<svg width="100" height="100" viewBox="0 0 100 100" fill="none" xmlns="http://www.w3.org/2000/svg">
  <g clip-path="url(#clip0)">
    <rect x="100" y="100" width="100" height="100" rx="50" transform="rotate(180 100 100)" fill="#EFF8FF"/>
    <path
      d="M74.594 82H25.406C21.3327 82 18 79.2184 18 75.8186V-3.81859C18 -7.21836 21.3327 -10 25.406 -10H74.594C78.6673 -10 82 -7.21836 82 -3.81859V75.8186C82 79.2184 78.6673 82 74.594 82Z"
      fill="#46A8EE"/>
    <rect x="21" y="-10" width="58" height="89" rx="4" fill="#F9FCFF"/>
    <path d="M24 -13C24 -15.7614 26.2386 -18 29 -18H71C73.7614 -18 76 -15.7614 76 -13V62H24V-13Z" fill="#CFF1FF"/>
    <path
      d="M40.9771 25.0308C40.444 24.32 39.4963 24.32 38.9633 25.0308L31.2632 34.567C30.7302 35.2777 31.0263 35.8108 31.974 35.8108H67.3349C68.2826 35.8108 68.6379 35.2777 68.0456 34.567L58.4502 15.7315C57.8579 15.0208 56.9695 15.0208 56.4364 15.7315L45.1233 30.2431L40.9771 25.0308ZM38.4302 12C36.1202 12 34.2248 13.8954 34.2248 16.2054C34.2248 18.5154 36.1202 20.4108 38.4302 20.4108C40.7402 20.4108 42.6356 18.5154 42.6356 16.2054C42.6356 13.8954 40.7402 12 38.4302 12Z"
      fill="white"/>
    <path
      d="M24.0062 60.0064C24.0028 58.8994 24.8994 58.0001 26.0064 58.0002L73.987 58.0056C75.0914 58.0057 75.9867 58.901 75.9868 60.0054L75.9884 74.0054C75.9885 75.1101 75.0929 76.0058 73.9882 76.0056L26.0494 76.0002C24.9473 76.0001 24.053 75.1085 24.0496 74.0064L24.0062 60.0064Z"
      fill="#75BEFE"/>
    <path
      d="M32.9736 62.2695L31.7158 64.7711L28.5176 65.2178C28.1088 65.285 27.9631 65.7401 28.2266 66.014L30.551 68.2748L30.0121 71.4615C29.9387 71.8484 30.3704 72.1457 30.7316 71.9417L33.5485 70.4692L36.356 71.957C36.716 72.1402 37.1495 71.8681 37.0786 71.4808L36.5358 68.3139L38.8745 66.0658C39.1638 65.7933 38.997 65.3374 38.5886 65.268L35.3933 64.8039L34.1513 62.2955C33.9606 61.794 33.2155 61.792 32.9736 62.2695Z"
      fill="white"/>
    <path
      d="M43.021 64.004C43.0227 63.4495 43.4735 63.0013 44.028 63.003L70.9742 63.0822C71.5286 63.0838 71.9768 63.5346 71.9752 64.0891C71.9735 64.6436 71.5227 65.0918 70.9682 65.0901L44.0221 65.0109C43.4676 65.0093 43.0194 64.5585 43.021 64.004Z"
      fill="white"/>
    <path
      d="M43.0029 69.993C43.0045 69.4464 43.4489 69.0046 43.9955 69.0062L62.2251 69.0598C62.7717 69.0614 63.2136 69.5058 63.212 70.0525C63.2104 70.5991 62.7659 71.0409 62.2193 71.0393L43.9897 70.9857C43.4431 70.9841 43.0013 70.5397 43.0029 69.993Z"
      fill="white"/>
  </g>
  <defs>
    <clipPath id="clip0">
      <rect x="100" y="100" width="100" height="100" rx="50" transform="rotate(180 100 100)" fill="white"/>
    </clipPath>
  </defs>
</svg>
