<svg width="100" height="100" viewBox="0 0 100 100" fill="none" xmlns="http://www.w3.org/2000/svg">
  <g clip-path="url(#clip0)">
    <rect width="100" height="100" rx="50" fill="#EFF8FF"/>
    <path
      d="M74.594 110H25.406C21.3327 110 18 107.218 18 103.819V24.1814C18 20.7816 21.3327 18 25.406 18H74.594C78.6673 18 82 20.7816 82 24.1814V103.819C82 107.218 78.6673 110 74.594 110Z"
      fill="#46A8EE"/>
    <path
      d="M41.0684 110.031C40.5354 109.32 39.5876 109.32 39.0546 110.031L31.3546 119.567C30.8215 120.278 31.1176 120.811 32.0653 120.811H67.4262C68.3739 120.811 68.7292 120.278 68.1369 119.567L58.5415 100.732C57.9492 100.021 57.0608 100.021 56.5277 100.732L45.2146 115.243L41.0684 110.031ZM38.5215 97C36.2115 97 34.3161 98.8954 34.3161 101.205C34.3161 103.515 36.2115 105.411 38.5215 105.411C40.8315 105.411 42.7269 103.515 42.7269 101.205C42.7269 98.8954 40.8315 97 38.5215 97Z"
      fill="white" fill-opacity="0.8"/>
    <g clip-path="url(#clip1)">
      <rect opacity="0.98" x="21" y="21" width="58" height="89" rx="4" fill="#F9FCFF"/>
      <g clip-path="url(#clip2)">
        <rect x="24" y="24" width="52" height="84" rx="2" fill="#E0F6FF"/>
        <path opacity="0.8"
              d="M38.0181 73.0826C36.8417 71.5091 34.7503 71.5091 33.5738 73.0826L16.5809 92.4043C15.4045 93.9778 16.0581 122 18.1495 122H96.1861C97.7546 122 98.3937 94.2677 97.7546 92.4043L75.6876 55.1801C74.3804 53.6066 72.4197 53.6066 71.2433 55.1801L47.1682 82.8321L38.0181 73.0826Z"
              fill="#B0DDFF" fill-opacity="0.4"/>
        <path opacity="0.4"
              d="M56.4293 26.1822L55.8098 27.4171L54.2347 27.6377C54.0334 27.6708 53.9616 27.8955 54.0914 28.0307L55.2361 29.1468L54.9707 30.7199C54.9346 30.9109 55.1472 31.0576 55.3251 30.957L56.7124 30.23L58.095 30.9645C58.2723 31.0549 58.4858 30.9206 58.4509 30.7294L58.1836 29.1661L59.3353 28.0563C59.4778 27.9217 59.3956 27.6967 59.1945 27.6624L57.6209 27.4333L57.0093 26.195C56.9153 25.9475 56.5484 25.9465 56.4293 26.1822Z"
              fill="#B0DDFF"/>
        <path opacity="0.4"
              d="M63.413 26.1822L62.7936 27.4171L61.2185 27.6377C61.0171 27.6708 60.9454 27.8955 61.0752 28.0307L62.2199 29.1468L61.9545 30.7199C61.9183 30.9109 62.131 31.0576 62.3088 30.957L63.6961 30.23L65.0788 30.9645C65.256 31.0549 65.4695 30.9206 65.4346 30.7294L65.1673 29.1661L66.3191 28.0563C66.4616 27.9217 66.3794 27.6967 66.1783 27.6624L64.6046 27.4333L63.993 26.195C63.8991 25.9475 63.5322 25.9465 63.413 26.1822Z"
              fill="#B0DDFF"/>
        <path opacity="0.4"
              d="M70.413 26.1822L69.7936 27.4171L68.2185 27.6377C68.0171 27.6708 67.9454 27.8955 68.0752 28.0307L69.2199 29.1468L68.9545 30.7199C68.9183 30.9109 69.131 31.0576 69.3088 30.957L70.6961 30.23L72.0788 30.9645C72.256 31.0549 72.4695 30.9206 72.4346 30.7294L72.1673 29.1661L73.3191 28.0563C73.4616 27.9217 73.3794 27.6967 73.1783 27.6624L71.6046 27.4333L70.993 26.195C70.8991 25.9475 70.5322 25.9465 70.413 26.1822Z"
              fill="#B0DDFF"/>
      </g>
      <g clip-path="url(#clip3)">
        <rect x="27" y="12" width="27" height="57" rx="2" fill="#BCE3FF"/>
        <path
          d="M28 39C28 38.4477 28.4477 38 29 38H52C52.5523 38 53 38.4477 53 39V62C53 62.5523 52.5523 63 52 63H28V39Z"
          fill="#75BEFE"/>
        <path
          d="M46.3535 65.581C46.3535 65.2052 46.6587 64.9009 47.0345 64.902L51.5162 64.9152C51.8905 64.9163 52.1933 65.22 52.1933 65.5942V65.5942C52.1933 65.97 51.888 66.2743 51.5123 66.2732L47.0305 66.26C46.6562 66.2589 46.3535 65.9552 46.3535 65.581V65.581Z"
          fill="#F5FAFF"/>
        <path
          d="M28.002 65.4958C28.0032 65.1115 28.3156 64.8009 28.6998 64.8021L43.6231 64.8459C44.0074 64.8471 44.318 65.1595 44.3168 65.5437V65.5437C44.3157 65.928 44.0033 66.2386 43.619 66.2374L28.6958 66.1936C28.3115 66.1924 28.0009 65.88 28.002 65.4958V65.4958Z"
          fill="#F5FAFF"/>
      </g>
      <path
        d="M43.4211 50.0915C43.7034 50.2907 43.7034 50.7093 43.4211 50.9085L38.0383 54.7069C37.7071 54.9406 37.25 54.7037 37.25 54.2984L37.25 46.7016C37.25 46.2963 37.7071 46.0594 38.0383 46.2931L43.4211 50.0915Z"
        fill="#F5FAFF"/>
    </g>
  </g>
  <defs>
    <clipPath id="clip0">
      <rect width="100" height="100" rx="50" fill="white"/>
    </clipPath>
    <clipPath id="clip1">
      <rect x="21" y="21" width="58" height="123" rx="4" fill="white"/>
    </clipPath>
    <clipPath id="clip2">
      <rect width="52" height="84" fill="white" transform="translate(24 24)"/>
    </clipPath>
    <clipPath id="clip3">
      <rect x="27" y="37" width="27" height="31" rx="2" fill="white"/>
    </clipPath>
  </defs>
</svg>
