<svg width="100" height="100" viewBox="0 0 100 100" fill="none" xmlns="http://www.w3.org/2000/svg">
  <g clip-path="url(#clip0)">
    <rect width="100" height="100" rx="50" fill="#EFF8FF"/>
    <path
      d="M74.594 110H25.406C21.3327 110 18 107.218 18 103.819V24.1814C18 20.7816 21.3327 18 25.406 18H74.594C78.6673 18 82 20.7816 82 24.1814V103.819C82 107.218 78.6673 110 74.594 110Z"
      fill="#46A8EE"/>
    <rect x="21" y="21" width="58" height="89" rx="4" fill="#EFF8FF"/>
    <rect x="24" y="24" width="52" height="84" rx="2" fill="#75BEFE"/>
    <path
      d="M58.5373 61.3412C59.7142 62.1339 59.7142 63.8661 58.5373 64.6588L46.1173 73.0246C44.7889 73.9194 43 72.9675 43 71.3658L43 54.6342C43 53.0325 44.7889 52.0806 46.1173 52.9754L58.5373 61.3412Z"
      fill="white"/>
    <rect x="67" y="28.2607" width="1.78284" height="7.13137" rx="0.891421" transform="rotate(-45 67 28.2607)"
          fill="#F9FAFF"/>
    <rect x="72.0426" y="27" width="1.78284" height="7.13137" rx="0.891421" transform="rotate(45 72.0426 27)"
          fill="#F9FAFF"/>
  </g>
  <defs>
    <clipPath id="clip0">
      <rect width="100" height="100" rx="50" fill="white"/>
    </clipPath>
  </defs>
</svg>
