<svg width="100" height="100" viewBox="0 0 100 100" fill="none" xmlns="http://www.w3.org/2000/svg">
  <g clip-path="url(#clip0)">
    <rect width="100" height="100" rx="50" fill="#EFF8FF"/>
    <path
      d="M74.594 110H25.406C21.3327 110 18 107.218 18 103.819V24.1814C18 20.7816 21.3327 18 25.406 18H74.594C78.6673 18 82 20.7816 82 24.1814V103.819C82 107.218 78.6673 110 74.594 110Z"
      fill="#46A8EE"/>
    <path
      d="M41.0684 110.031C40.5354 109.32 39.5876 109.32 39.0546 110.031L31.3546 119.567C30.8215 120.278 31.1176 120.811 32.0653 120.811H67.4262C68.3739 120.811 68.7292 120.278 68.1369 119.567L58.5415 100.732C57.9492 100.021 57.0608 100.021 56.5277 100.732L45.2146 115.243L41.0684 110.031ZM38.5215 97C36.2115 97 34.3161 98.8954 34.3161 101.205C34.3161 103.515 36.2115 105.411 38.5215 105.411C40.8315 105.411 42.7269 103.515 42.7269 101.205C42.7269 98.8954 40.8315 97 38.5215 97Z"
      fill="white" fill-opacity="0.8"/>
    <g clip-path="url(#clip1)">
      <rect opacity="0.98" x="21" y="21" width="58" height="89" rx="4" fill="#F9FCFF"/>
      <rect x="24" y="39" width="52" height="44" rx="2" fill="#75BEFE"/>
      <path
        d="M42.0414 57.4116C41.5746 56.7892 40.7446 56.7892 40.2778 57.4116L33.5346 65.7629C33.0677 66.3853 33.3271 66.8522 34.157 66.8522H65.124C65.7465 66.8522 66.0001 66.5 65.7465 65.7629L57.3434 49.2679C56.8247 48.6454 56.0466 48.6454 55.5797 49.2679L45.6724 61.9763L42.0414 57.4116ZM39.8109 46C37.788 46 36.1281 47.6599 36.1281 49.6828C36.1281 51.7058 37.788 53.3657 39.8109 53.3657C41.8339 53.3657 43.4938 51.7058 43.4938 49.6828C43.4938 47.6599 41.8339 46 39.8109 46Z"
        fill="white"/>
      <path
        d="M65.2105 72H33.7895C33.3684 72 33 71.5333 33 71C33 70.4667 33.3684 70 33.7895 70H65.2105C65.6316 70 66 70.4667 66 71C66 71.6 65.6316 72 65.2105 72Z"
        fill="white"/>
      <path
        d="M52.2441 77H33.7781C33.3631 77 33 76.5333 33 76C33 75.4667 33.3631 75 33.7781 75H52.2441C52.6591 75 53.0222 75.4667 53.0222 76C53.0222 76.5333 52.711 77 52.2441 77Z"
        fill="white"/>
      <rect x="24" y="87" width="52" height="44" rx="2" fill="#CFF1FF"/>
      <path
        d="M42.0414 105.412C41.5746 104.789 40.7446 104.789 40.2778 105.412L33.5346 113.763C33.0677 114.385 33.3271 114.852 34.157 114.852H65.124C65.7465 114.852 66.0001 114.5 65.7465 113.763L57.3434 97.2679C56.8247 96.6454 56.0466 96.6454 55.5797 97.2679L45.6724 109.976L42.0414 105.412ZM39.8109 94C37.788 94 36.1281 95.6599 36.1281 97.6828C36.1281 99.7058 37.788 101.366 39.8109 101.366C41.8339 101.366 43.4938 99.7058 43.4938 97.6828C43.4938 95.6599 41.8339 94 39.8109 94Z"
        fill="white"/>
      <rect x="24" y="-9" width="52" height="44" rx="2" fill="#CFF1FF"/>
      <path
        d="M64.7451 26.0393H33.7781C33.3631 26.0393 33 25.5635 33 25.0196C33 24.4758 33.3631 24 33.7781 24H64.7451C65.16 24 65.5231 24.4758 65.5231 25.0196C65.5231 25.6314 65.16 26.0393 64.7451 26.0393Z"
        fill="white"/>
      <path
        d="M52.2441 31H33.7781C33.3631 31 33 30.5333 33 30C33 29.4667 33.3631 29 33.7781 29H52.2441C52.6591 29 53.0222 29.4667 53.0222 30C53.0222 30.5333 52.711 31 52.2441 31Z"
        fill="white"/>
    </g>
  </g>
  <defs>
    <clipPath id="clip0">
      <rect width="100" height="100" rx="50" fill="white"/>
    </clipPath>
    <clipPath id="clip1">
      <rect x="21" y="21" width="58" height="123" rx="4" fill="white"/>
    </clipPath>
  </defs>
</svg>
