<svg width="100" height="100" viewBox="0 0 100 100" fill="none" xmlns="http://www.w3.org/2000/svg">
  <g clip-path="url(#clip0)">
    <rect width="100" height="100" rx="50" fill="#EFF8FF"/>
    <path
      d="M74.594 110H25.406C21.3327 110 18 107.218 18 103.819V24.1814C18 20.7816 21.3327 18 25.406 18H74.594C78.6673 18 82 20.7816 82 24.1814V103.819C82 107.218 78.6673 110 74.594 110Z"
      fill="#46A8EE"/>
    <rect x="21" y="21" width="58" height="89" rx="4" fill="#F9FCFF"/>
    <rect x="24" y="24" width="52" height="84" rx="2" fill="#75BEFE"/>
    <path
      d="M62.4805 46.9365V45.9113C62.4805 45.4101 62.0702 45 61.5687 45H38.4541C37.9526 45 37.5423 45.4101 37.5423 45.9113V46.9365H32.7325C31.775 46.9365 31 47.711 31 48.6679V54.3405V54.4089V54.6367L31.0228 54.8645C31.3647 58.6007 33.7127 61.4712 37.907 63.3849C39.0924 68.1235 43.0816 71.7686 48.051 72.5432V76.5528H46.82C46.4097 76.5528 46.0906 76.8717 46.0906 77.2818V79.1271H42.147C41.4175 79.1271 40.8248 79.6966 40.8248 80.4257V81.7242C40.8248 82.4305 41.3947 83 42.1014 83H58.5825C59.2891 83 59.859 82.4305 59.859 81.7242V80.4257C59.859 79.7194 59.2663 79.1271 58.5369 79.1271H53.9322V77.2362C53.9322 76.8489 53.6359 76.5528 53.2484 76.5528H51.9946V72.5432C56.964 71.7686 60.9532 68.1007 62.1386 63.3621C66.3785 61.4029 68.7265 58.4868 68.9772 54.6595L69 54.4317V54.3633V48.44C69 47.5971 68.3161 46.9365 67.4955 46.9365H62.4805ZM37.5651 60.2638L37.3827 60.1727L37.1548 60.036C34.9208 58.5779 33.781 56.7326 33.6215 54.4772V54.3177V49.9436C33.6215 49.7158 33.8038 49.5108 34.0546 49.5108H37.5651V60.2638ZM66.3785 54.295V54.4772L66.3557 54.6595L66.3329 54.8645C66.0594 57.006 64.8512 58.7602 62.6173 60.1499L62.5033 60.2182V49.5108H66.105C66.2645 49.5108 66.4013 49.6475 66.4013 49.807V54.295H66.3785Z"
      fill="white"/>
    <path
      d="M54 56.268C55.3333 57.0378 55.3333 58.9623 54 59.7321L48 63.1962C46.6667 63.966 45 63.0037 45 61.4641L45 54.5359C45 52.9963 46.6667 52.034 48 52.8038L54 56.268Z"
      fill="#CFF1FF"/>
  </g>
  <defs>
    <clipPath id="clip0">
      <rect width="100" height="100" rx="50" fill="white"/>
    </clipPath>
  </defs>
</svg>
