<svg width="100" height="100" viewBox="0 0 100 100" fill="none" xmlns="http://www.w3.org/2000/svg">
  <g clip-path="url(#clip0)">
    <rect width="100" height="100" rx="50" fill="#EFF8FF"/>
    <circle opacity="0.3" cx="67.5" cy="-3.5" r="4.5" fill="#F9FAFF"/>
    <path
      d="M66.9639 0.0221925H66.9139V0.0721924V0.82754V0.87754H66.9639H67.4121C67.6383 0.87754 67.7989 0.936044 67.9035 1.04441C68.0084 1.15311 68.0652 1.32055 68.0652 1.55615C68.0652 1.74654 68.0108 1.89496 67.906 2.0065C67.8041 2.11466 67.6613 2.17126 67.4707 2.17126C67.3072 2.17126 67.1714 2.11787 67.0601 2.01148C66.9518 1.90604 66.8967 1.77022 66.8967 1.5996V1.5496H66.8467H66H65.95V1.5996C65.95 2.03243 66.089 2.38491 66.3698 2.65188L66.37 2.652C66.6521 2.91824 67.0136 3.05 67.4502 3.05C67.9153 3.05 68.2937 2.91648 68.5802 2.64535C68.869 2.37388 69.0119 2.0135 69.0119 1.56952C69.0119 1.29459 68.9506 1.05361 68.826 0.848517C68.7182 0.668107 68.5612 0.528096 68.3574 0.427895C68.519 0.327538 68.6526 0.194358 68.758 0.0288548C68.8823 -0.166371 68.9445 -0.380683 68.9445 -0.612968C68.9445 -1.05561 68.8132 -1.40851 68.5454 -1.66505C68.2779 -1.92357 67.9107 -2.05 67.4502 -2.05C67.1829 -2.05 66.9365 -1.99145 66.7121 -1.87383L66.712 -1.87374C66.4893 -1.75596 66.3144 -1.59144 66.1885 -1.38058L66.1885 -1.38049C66.0643 -1.17154 66.0027 -0.935302 66.0027 -0.673128V-0.623128H66.0527H66.8994H66.9494V-0.673128C66.9494 -0.823274 66.9993 -0.940831 67.0973 -1.03066L67.0973 -1.03065L67.0977 -1.03103C67.197 -1.1241 67.3202 -1.17126 67.4707 -1.17126C67.6396 -1.17126 67.7658 -1.12039 67.856 -1.02343L67.856 -1.02343L67.8563 -1.02309C67.9486 -0.925745 67.9979 -0.786887 67.9979 -0.599599C67.9979 -0.405446 67.9484 -0.255245 67.8544 -0.143896C67.7633 -0.0360932 67.6205 0.0221925 67.415 0.0221925H66.9639ZM66.0535 -0.723128C66.0609 -0.957056 66.1202 -1.16766 66.2314 -1.35495C66.3525 -1.55771 66.5205 -1.71591 66.7354 -1.82955L66.0535 -0.723128Z"
      fill="white" stroke="white" stroke-width="0.1"/>
    <path
      d="M74.594 82H25.406C21.3327 82 18 79.2184 18 75.8186V-3.81859C18 -7.21836 21.3327 -10 25.406 -10H74.594C78.6673 -10 82 -7.21836 82 -3.81859V75.8186C82 79.2184 78.6673 82 74.594 82Z"
      fill="#46A8EE"/>
    <rect x="21" y="-10" width="58" height="89" rx="4" fill="#F9FAFF"/>
    <path d="M24 -13C24 -15.7614 26.2386 -18 29 -18H71C73.7614 -18 76 -15.7614 76 -13V58H24V-13Z" fill="#75BEFE"/>
    <path
      d="M40.9771 26.0308C40.444 25.32 39.4963 25.32 38.9633 26.0308L31.2632 35.567C30.7302 36.2777 31.0263 36.8108 31.974 36.8108H67.3349C68.2826 36.8108 68.6379 36.2777 68.0456 35.567L58.4502 16.7315C57.8579 16.0208 56.9695 16.0208 56.4364 16.7315L45.1233 31.2431L40.9771 26.0308ZM38.4302 13C36.1202 13 34.2248 14.8954 34.2248 17.2054C34.2248 19.5154 36.1202 21.4108 38.4302 21.4108C40.7402 21.4108 42.6356 19.5154 42.6356 17.2054C42.6356 14.8954 40.7402 13 38.4302 13Z"
      fill="white"/>
    <path
      d="M24 57.9315L76 58L75.9899 74.0069C75.9892 75.111 75.0939 76.0057 73.9897 76.0056L26.0494 76.0002C24.9473 76.0001 24.0531 75.1085 24.0496 74.0064L24 57.9315Z"
      fill="#CFF1FF"/>
    <path
      d="M32.9561 62.2695L31.7012 64.771L28.5106 65.2178C28.1027 65.285 27.9574 65.7401 28.2203 66.014L30.5391 68.2748L30.0014 71.4615C29.9283 71.8484 30.3589 72.1456 30.7193 71.9417L33.5295 70.4691L36.3303 71.957C36.6894 72.1401 37.1219 71.868 37.0512 71.4807L36.5097 68.3139L38.8428 66.0658C39.1315 65.7933 38.965 65.3374 38.5576 65.2679L35.3699 64.8038L34.1309 62.2955C33.9407 61.794 33.1974 61.7919 32.9561 62.2695Z"
      fill="white"/>
    <path
      d="M42.997 64.004C42.9987 63.4495 43.4495 63.0013 44.004 63.003L71.0068 63.0824C71.5613 63.084 72.0094 63.5348 72.0078 64.0893C72.0062 64.6438 71.5554 65.0919 71.0009 65.0903L43.9981 65.0109C43.4436 65.0093 42.9954 64.5585 42.997 64.004Z"
      fill="white"/>
    <path
      d="M43.0029 69.9897C43.0045 69.4431 43.449 69.0013 43.9956 69.0029L62.9887 69.0588C63.5353 69.0604 63.9771 69.5048 63.9755 70.0514C63.9739 70.598 63.5295 71.0399 62.9829 71.0383L43.9898 70.9824C43.4431 70.9808 43.0013 70.5364 43.0029 69.9897Z"
      fill="white"/>
  </g>
  <defs>
    <clipPath id="clip0">
      <rect width="100" height="100" rx="50" fill="white"/>
    </clipPath>
  </defs>
</svg>
