<svg width="32" height="32" viewBox="0 0 32 32" fill="none" xmlns="http://www.w3.org/2000/svg">
<path d="M0 16C0 7.16344 7.16344 0 16 0V0C24.8366 0 32 7.16344 32 16V16C32 24.8366 24.8366 32 16 32V32C7.16344 32 0 24.8366 0 16V16Z" fill="white"/>
<g clip-path="url(#clip0)">
<path d="M18.4153 10.1412C18.6133 9.94918 18.9313 9.95518 19.1233 10.1532C19.3153 10.3512 19.3093 10.6692 19.1113 10.8612L13.9573 15.9732L19.0813 21.1512C19.2733 21.3492 19.2733 21.6612 19.0753 21.8592C18.8773 22.0512 18.5653 22.0512 18.3673 21.8532L12.9073 16.3452C12.9013 16.3392 12.8953 16.3272 12.8893 16.3152C12.8893 16.3152 12.8833 16.3152 12.8833 16.3092C12.6913 16.1112 12.6913 15.7992 12.8893 15.6012L18.3973 10.1412C18.4093 10.1472 18.4093 10.1472 18.4153 10.1412Z" fill="#1A7DF1"/>
</g>
<defs>
<clipPath id="clip0">
<rect width="12" height="12" fill="white" transform="matrix(0 1 1 0 10 10)"/>
</clipPath>
</defs>
</svg>
