<svg width="32" height="32" viewBox="0 0 32 32" fill="none" xmlns="http://www.w3.org/2000/svg">
<path d="M18.4151 10.1411C18.6131 9.94906 18.9311 9.95506 19.1231 10.1531C19.3151 10.3511 19.3091 10.6691 19.1111 10.8611L13.9571 15.9731L19.0811 21.1511C19.2731 21.3491 19.2731 21.6611 19.0751 21.8591C18.8771 22.0511 18.5651 22.0511 18.3671 21.8531L12.9071 16.3451C12.9011 16.3391 12.8951 16.3271 12.8891 16.3151C12.8891 16.3151 12.8831 16.3151 12.8831 16.3091C12.6911 16.1111 12.6911 15.7991 12.8891 15.6011L18.3971 10.1411C18.4091 10.1471 18.4091 10.1471 18.4151 10.1411Z" fill="white"/>
<path fill-rule="evenodd" clip-rule="evenodd" d="M16 31C24.2843 31 31 24.2843 31 16C31 7.71573 24.2843 1 16 1C7.71573 1 1 7.71573 1 16C1 24.2843 7.71573 31 16 31ZM16 32C24.8366 32 32 24.8366 32 16C32 7.16344 24.8366 0 16 0C7.16344 0 0 7.16344 0 16C0 24.8366 7.16344 32 16 32Z" fill="white"/>
</svg>
