<svg width="32" height="32" viewBox="0 0 32 32" fill="none" xmlns="http://www.w3.org/2000/svg">
<path d="M0 16C0 7.16344 7.16344 0 16 0C24.8366 0 32 7.16344 32 16C32 24.8366 24.8366 32 16 32C7.16344 32 0 24.8366 0 16Z" fill="white"/>
<g clip-path="url(#clip0)">
<path d="M13.5876 21.8618C13.3896 22.0538 13.0716 22.0478 12.8796 21.8498C12.6876 21.6518 12.6936 21.3338 12.8916 21.1418L18.0456 16.0298L12.9216 10.8517C12.7296 10.6537 12.7296 10.3417 12.9276 10.1437C13.1256 9.95175 13.4376 9.95175 13.6356 10.1497L19.0956 15.6578C19.1016 15.6638 19.1076 15.6758 19.1136 15.6878C19.1136 15.6878 19.1196 15.6878 19.1196 15.6938C19.3116 15.8918 19.3116 16.2038 19.1136 16.4018L13.6056 21.8618C13.5936 21.8558 13.5936 21.8558 13.5876 21.8618Z" fill="#1A7DF1"/>
</g>
<defs>
<clipPath id="clip0">
<rect width="12" height="12" fill="white" transform="matrix(0 1 1 0 10 10)"/>
</clipPath>
</defs>
</svg>
