<svg width="18" height="32" viewBox="0 0 18 32" fill="none" xmlns="http://www.w3.org/2000/svg">
<path fill-rule="evenodd" clip-rule="evenodd" d="M16.3659 2.92723C16.3659 1.82287 15.4744 0.931393 14.3701 0.931393H2.92724C1.82287 0.931393 0.931393 1.82287 0.931393 2.92723V24.4824H16.3659V2.92723ZM17.2973 24.4824V25.4137V29.0062C17.2973 30.6295 15.9933 31.9335 14.3701 31.9335H2.92724C1.30395 31.9335 0 30.6295 0 29.0062V25.4137V24.4824V2.92723C0 1.30395 1.30395 0 2.92724 0H14.3701C15.9933 0 17.2973 1.30395 17.2973 2.92723V24.4824ZM0.931393 25.4137V29.0062C0.931393 30.1106 1.82287 31.0021 2.92724 31.0021H14.3701C15.4744 31.0021 16.3659 30.1106 16.3659 29.0062V25.4137H0.931393ZM8.64863 29.4054C9.31 29.4054 9.84614 28.8693 9.84614 28.2079C9.84614 27.5466 9.31 27.0104 8.64863 27.0104C7.98727 27.0104 7.45113 27.5466 7.45113 28.2079C7.45113 28.8693 7.98727 29.4054 8.64863 29.4054ZM1.86277 20.7569H15.4345V23.5511H1.86277V20.7569Z" fill="#1A7DF1"/>
</svg>
