<svg width="18" height="33" viewBox="0 0 18 33" fill="none" xmlns="http://www.w3.org/2000/svg">
<g clip-path="url(#clip0)">
<path fill-rule="evenodd" clip-rule="evenodd" d="M16.3659 3.42723C16.3659 2.32287 15.4744 1.43139 14.3701 1.43139H2.92723C1.82287 1.43139 0.931393 2.32287 0.931393 3.42723V24.9825H16.3659V3.42723ZM17.2973 24.9825V25.9139V29.5062C17.2973 31.1295 15.9933 32.4335 14.3701 32.4335H2.92723C1.30395 32.4335 0 31.1295 0 29.5062V25.9139V24.9825V3.42723C0 1.80395 1.30395 0.5 2.92723 0.5H14.3701C15.9933 0.5 17.2973 1.80395 17.2973 3.42723V24.9825ZM0.931393 25.9139V29.5062C0.931393 30.6106 1.82287 31.5021 2.92723 31.5021H14.3701C15.4744 31.5021 16.3659 30.6106 16.3659 29.5062V25.9139H0.931393ZM3.32639 4.02611H13.9709C14.7825 4.02611 15.4345 4.69139 15.4345 5.48973V16.1342C15.4345 16.9459 14.7825 17.5978 13.9709 17.5978H3.32639C2.51475 17.5978 1.86277 16.9459 1.86277 16.1342V5.48973C1.86277 4.67809 2.51475 4.02611 3.32639 4.02611ZM3.07359 15.8016H9.88606H10.6046H14.2237L12.5605 12.4087C12.321 11.9163 11.7888 11.9163 11.5493 12.4087L10.2453 15.0698L7.34469 9.16208C7.10519 8.66977 6.57296 8.66977 6.33346 9.16208L3.07359 15.8016ZM11.5759 6.71385C11.5759 7.44566 12.1746 8.04441 12.9064 8.04441C13.6382 8.04441 14.237 7.44566 14.237 6.71385C14.237 5.98204 13.6382 5.38329 12.9064 5.38329C12.1746 5.38329 11.5759 5.98204 11.5759 6.71385ZM8.64864 29.9054C9.31 29.9054 9.84615 29.3693 9.84615 28.7079C9.84615 28.0466 9.31 27.5104 8.64864 27.5104C7.98728 27.5104 7.45114 28.0466 7.45114 28.7079C7.45114 29.3693 7.98728 29.9054 8.64864 29.9054ZM2.28855 19.9263H15.0087C15.2482 19.9263 15.4345 19.74 15.4345 19.5005C15.4345 19.261 15.2482 19.0747 15.0087 19.0747H2.28855C2.04905 19.0747 1.86277 19.261 1.86277 19.5005C1.86277 19.74 2.04905 19.9263 2.28855 19.9263ZM2.28855 21.7623H9.89937C10.1389 21.7623 10.3385 21.576 10.3251 21.3365C10.3251 21.097 10.1389 20.9107 9.89937 20.9107H2.28855C2.04905 20.9107 1.86277 21.097 1.86277 21.3365C1.86277 21.576 2.04905 21.7623 2.28855 21.7623Z" fill="#1A7DF1"/>
</g>
<defs>
<clipPath id="clip0">
<rect width="17.2973" height="32" fill="white" transform="translate(0 0.5)"/>
</clipPath>
</defs>
</svg>
