<svg width="18" height="33" viewBox="0 0 18 33" fill="none" xmlns="http://www.w3.org/2000/svg">
<path fill-rule="evenodd" clip-rule="evenodd" d="M16.3659 3.43333C16.3659 2.32667 15.4744 1.43333 14.3701 1.43333H2.92723C1.82287 1.43333 0.931393 2.32667 0.931393 3.43333V25.0332H16.3659V3.43333ZM17.2973 25.0332V25.9666V29.5667C17.2973 31.1933 15.9933 32.5 14.3701 32.5H2.92723C1.30395 32.5 0 31.1933 0 29.5667V25.9666V25.0332V3.43333C0 1.80667 1.30395 0.5 2.92723 0.5H14.3701C15.9933 0.5 17.2973 1.80667 17.2973 3.43333V25.0332ZM0.931393 25.9666V29.5667C0.931393 30.6733 1.82287 31.5667 2.92723 31.5667H14.3701C15.4744 31.5667 16.3659 30.6733 16.3659 29.5667V25.9666H0.931393ZM8.64863 29.9667C9.31 29.9667 9.84614 29.4295 9.84614 28.7667C9.84614 28.104 9.31 27.5667 8.64863 27.5667C7.98727 27.5667 7.45113 28.104 7.45113 28.7667C7.45113 29.4295 7.98727 29.9667 8.64863 29.9667ZM11.5093 14.9532L11.5227 14.9399C11.7888 14.7532 11.975 14.4466 11.975 14.0866C11.975 13.6599 11.7089 13.2999 11.363 13.1399L6.95883 10.5932C6.78586 10.4732 6.58627 10.4066 6.36008 10.4066C5.78793 10.4066 5.33554 10.8599 5.33554 11.4199V11.4999V16.6732V16.7532C5.33554 17.3132 5.80124 17.7666 6.37338 17.7666C6.59958 17.7666 6.81247 17.6866 6.98544 17.5666L11.4428 14.9932C11.4561 14.9799 11.4827 14.9666 11.5093 14.9532Z" fill="#1A7DF1"/>
</svg>
