<svg width="18" height="33" viewBox="0 0 18 33" fill="none" xmlns="http://www.w3.org/2000/svg">
<g clip-path="url(#clip0)">
<path fill-rule="evenodd" clip-rule="evenodd" d="M16.3659 3.43333C16.3659 2.32667 15.4744 1.43333 14.3701 1.43333H2.92723C1.82287 1.43333 0.931393 2.32667 0.931393 3.43333V25.0332H16.3659V3.43333ZM17.2973 25.0332V25.9666V29.5667C17.2973 31.1933 15.9933 32.5 14.3701 32.5H2.92723C1.30395 32.5 0 31.1933 0 29.5667V25.9666V25.0332V3.43333C0 1.80667 1.30395 0.5 2.92723 0.5H14.3701C15.9933 0.5 17.2973 1.80667 17.2973 3.43333V25.0332ZM0.931393 25.9666V29.5667C0.931393 30.6733 1.82287 31.5667 2.92723 31.5667H14.3701C15.4744 31.5667 16.3659 30.6733 16.3659 29.5667V25.9666H0.931393ZM2.66111 2.36673H14.6362C15.0752 2.36673 15.4345 2.72673 15.4345 3.16673V23.3001C15.4345 23.7401 15.0752 24.1001 14.6362 24.1001H2.66111C2.22202 24.1001 1.86277 23.7401 1.86277 23.3001V3.16673C1.86277 2.72673 2.22202 2.36673 2.66111 2.36673ZM9.84614 28.7667C9.84614 29.4295 9.31 29.9667 8.64863 29.9667C7.98727 29.9667 7.45113 29.4295 7.45113 28.7667C7.45113 28.104 7.98727 27.5667 8.64863 27.5667C9.31 27.5667 9.84614 28.104 9.84614 28.7667Z" fill="#1A7DF1"/>
</g>
<defs>
<clipPath id="clip0">
<rect width="17.2973" height="32" fill="white" transform="translate(0 0.5)"/>
</clipPath>
</defs>
</svg>
