<svg width="31" height="56" viewBox="0 0 31 56" fill="none" xmlns="http://www.w3.org/2000/svg">
<g clip-path="url(#clip0)">
<path fill-rule="evenodd" clip-rule="evenodd" d="M28.6403 5.12266C28.6403 3.19002 27.0802 1.62994 25.1476 1.62994H5.12266C3.19002 1.62994 1.62994 3.19002 1.62994 5.12266V42.8443H28.6403V5.12266ZM30.2703 42.8443V44.4742V50.7609C30.2703 53.6017 27.9884 55.8836 25.1476 55.8836H5.12266C2.28191 55.8836 0 53.6017 0 50.7609V44.4742V42.8443V5.12266C0 2.28191 2.28191 0 5.12266 0H25.1476C27.9884 0 30.2703 2.28191 30.2703 5.12266V42.8443ZM1.62994 44.4742V50.7609C1.62994 52.6936 3.19002 54.2536 5.12266 54.2536H25.1476C27.0802 54.2536 28.6403 52.6936 28.6403 50.7609V44.4742H1.62994ZM15.1351 51.4596C16.2925 51.4596 17.2308 50.5214 17.2308 49.364C17.2308 48.2066 16.2925 47.2683 15.1351 47.2683C13.9777 47.2683 13.0395 48.2066 13.0395 49.364C13.0395 50.5214 13.9777 51.4596 15.1351 51.4596ZM3.25989 36.3243H27.0104V41.2141H3.25989V36.3243Z" fill="#1A7DF1"/>
</g>
<defs>
<clipPath id="clip0">
<path d="M0 0H30.2703V56H0V0Z" fill="white"/>
</clipPath>
</defs>
</svg>
