<svg width="14" height="24" viewBox="0 0 14 24" fill="none" xmlns="http://www.w3.org/2000/svg">
<g clip-path="url(#clip0)">
<path fill-rule="evenodd" clip-rule="evenodd" d="M12.2744 2.19543C12.2744 1.36715 11.6058 0.698545 10.7775 0.698545H2.19543C1.36715 0.698545 0.698545 1.36715 0.698545 2.19543V18.362H12.2744V2.19543ZM12.973 18.362V19.0605V21.7547C12.973 22.9721 11.995 23.9501 10.7775 23.9501H2.19543C0.977963 23.9501 0 22.9721 0 21.7547V19.0605V18.362V2.19543C0 0.977963 0.977963 0 2.19543 0H10.7775C11.995 0 12.973 0.977963 12.973 2.19543V18.362ZM0.698545 19.0605V21.7547C0.698545 22.583 1.36715 23.2516 2.19543 23.2516H10.7775C11.6058 23.2516 12.2744 22.583 12.2744 21.7547V19.0605H0.698545ZM6.48648 22.0543C6.9825 22.0543 7.38461 21.6521 7.38461 21.1561C7.38461 20.6601 6.9825 20.258 6.48648 20.258C5.99046 20.258 5.58835 20.6601 5.58835 21.1561C5.58835 21.6521 5.99046 22.0543 6.48648 22.0543ZM1.39711 15.5676H11.5759V17.6632H1.39711V15.5676Z" fill="#BDBDBD"/>
</g>
<defs>
<clipPath id="clip0">
<path d="M0 0H12.973V24H0V0Z" fill="white"/>
</clipPath>
</defs>
</svg>
