<svg width="31" height="56" viewBox="0 0 31 56" fill="none" xmlns="http://www.w3.org/2000/svg">
<g clip-path="url(#clip0)">
<path fill-rule="evenodd" clip-rule="evenodd" d="M28.6403 5.13333C28.6403 3.19667 27.0802 1.63333 25.1476 1.63333H5.12266C3.19002 1.63333 1.62994 3.19667 1.62994 5.13333V42.9333H28.6403V5.13333ZM30.2703 42.9333V44.5666V50.8667C30.2703 53.7133 27.9884 56 25.1476 56H5.12266C2.28191 56 0 53.7133 0 50.8667V44.5666V42.9333V5.13333C0 2.28667 2.28191 0 5.12266 0H25.1476C27.9884 0 30.2703 2.28667 30.2703 5.13333V42.9333ZM1.62994 44.5666V50.8667C1.62994 52.8033 3.19002 54.3667 5.12266 54.3667H25.1476C27.0802 54.3667 28.6403 52.8033 28.6403 50.8667V44.5666H1.62994ZM15.1351 51.5665C16.2925 51.5665 17.2308 50.6263 17.2308 49.4665C17.2308 48.3067 16.2925 47.3665 15.1351 47.3665C13.9777 47.3665 13.0395 48.3067 13.0395 49.4665C13.0395 50.6263 13.9777 51.5665 15.1351 51.5665ZM15.1352 7.3733C18.3019 7.3733 21.2823 8.60997 23.541 10.85C25.7763 13.1133 27.0104 16.1 27.0104 19.2733C27.0104 22.4466 25.7763 25.4333 23.541 27.6733C21.2823 29.9133 18.3252 31.15 15.1352 31.15C11.9451 31.15 8.96467 29.9133 6.72933 27.6733C4.49399 25.4333 3.25989 22.4466 3.25989 19.2733C3.25989 16.1 4.49399 13.1133 6.72933 10.85C8.98796 8.60997 11.9684 7.3733 15.1352 7.3733ZM17.8595 22.0033L22.5164 26.67C23.8437 25.34 24.7751 23.73 25.2175 21.98L18.8607 20.2766C19.047 19.6233 19.047 18.9233 18.8607 18.27L25.2175 16.5666C24.7518 14.8166 23.8437 13.2066 22.5164 11.8766L17.8595 16.5433C17.3705 16.0533 16.7651 15.7033 16.1364 15.54L17.8362 9.16997C16.9747 8.93663 16.0665 8.81997 15.1352 8.81997C14.2038 8.81997 13.2957 8.93663 12.4341 9.16997L14.1339 15.54C13.5052 15.7033 12.8998 16.0533 12.4108 16.5433L7.75386 11.8766C6.40334 13.23 5.51852 14.84 5.05282 16.5666L11.4096 18.27C11.2233 18.9233 11.2233 19.6233 11.4096 20.2766L5.05282 21.98C5.49524 23.7066 6.40334 25.3166 7.75386 26.67L12.4108 22.0033C12.8998 22.4933 13.5052 22.8433 14.1339 23.0066L12.4341 29.3766C13.2957 29.61 14.2038 29.7266 15.1352 29.7266C16.0665 29.7266 16.9747 29.61 17.8362 29.3766L16.1364 23.0066C16.7651 22.8433 17.3705 22.4933 17.8595 22.0033ZM15.1352 12.9733L15.7638 16.0533C16.3692 16.17 16.9747 16.4733 17.4636 16.94C18.7443 18.2233 18.7443 20.3 17.4636 21.5833C16.183 22.8666 14.1106 22.8666 12.83 21.5833C11.5493 20.3 11.5493 18.2233 12.83 16.94C13.3189 16.45 13.9243 16.1466 14.553 16.03L15.1352 12.9733ZM27.0802 35.2334H4.81992C4.4008 35.2334 4.07481 34.9068 4.07481 34.4868C4.07481 34.0668 4.4008 33.7401 4.81992 33.7401H27.0802C27.4993 33.7401 27.8253 34.0668 27.8253 34.4868C27.8253 34.9068 27.4993 35.2334 27.0802 35.2334ZM4.81992 38.4532H18.1388C18.558 38.4532 18.9072 38.1265 18.884 37.7065C18.884 37.2865 18.558 36.9598 18.1388 36.9598H4.81992C4.4008 36.9598 4.07481 37.2865 4.07481 37.7065C4.07481 38.1265 4.4008 38.4532 4.81992 38.4532Z" fill="#D8D8D8"/>
</g>
<defs>
<clipPath id="clip0">
<path d="M0 0H30.2703V56H0V0Z" fill="white"/>
</clipPath>
</defs>
</svg>
