<svg width="14" height="24" viewBox="0 0 14 24" fill="none" xmlns="http://www.w3.org/2000/svg">
<g clip-path="url(#clip0)">
<path fill-rule="evenodd" clip-rule="evenodd" d="M13.2471 2.2C13.2471 1.37 12.5785 0.7 11.7502 0.7H3.16808C2.33981 0.7 1.6712 1.37 1.6712 2.2V18.3999H13.2471V2.2ZM13.9456 18.3999V19.0999V21.8C13.9456 23.02 12.9677 24 11.7502 24H3.16808C1.95062 24 0.972656 23.02 0.972656 21.8V19.0999V18.3999V2.2C0.972656 0.98 1.95062 0 3.16808 0H11.7502C12.9677 0 13.9456 0.98 13.9456 2.2V18.3999ZM1.6712 19.0999V21.8C1.6712 22.63 2.33981 23.3 3.16808 23.3H11.7502C12.5785 23.3 13.2471 22.63 13.2471 21.8V19.0999H1.6712ZM7.45914 22.0998C7.95516 22.0998 8.35726 21.6968 8.35726 21.1998C8.35726 20.7027 7.95516 20.2998 7.45914 20.2998C6.96311 20.2998 6.56101 20.7027 6.56101 21.1998C6.56101 21.6968 6.96311 22.0998 7.45914 22.0998ZM7.45917 3.15993C8.81634 3.15993 10.0937 3.68993 11.0617 4.64993C12.0197 5.61993 12.5486 6.89993 12.5486 8.25993C12.5486 9.61994 12.0197 10.8999 11.0617 11.8599C10.0937 12.8199 8.82632 13.3499 7.45917 13.3499C6.09201 13.3499 4.81468 12.8199 3.85667 11.8599C2.89867 10.8999 2.36977 9.61994 2.36977 8.25993C2.36977 6.89993 2.89867 5.61993 3.85667 4.64993C4.82466 3.68993 6.10199 3.15993 7.45917 3.15993ZM8.62673 9.42994L10.6226 11.4299C11.1914 10.8599 11.5906 10.1699 11.7802 9.41993L9.05584 8.68993C9.13567 8.40993 9.13567 8.10993 9.05584 7.82994L11.7802 7.09993C11.5806 6.34993 11.1914 5.65993 10.6226 5.08993L8.62673 7.08993C8.41717 6.87993 8.15771 6.72993 7.88827 6.65993L8.61675 3.92993C8.24752 3.82993 7.85833 3.77993 7.45917 3.77993C7.06 3.77993 6.67081 3.82993 6.30158 3.92993L7.03006 6.65993C6.76062 6.72993 6.50116 6.87993 6.2916 7.08993L4.29576 5.08993C3.71696 5.66993 3.33775 6.35993 3.13817 7.09993L5.86249 7.82994C5.78266 8.10993 5.78266 8.40993 5.86249 8.68993L3.13817 9.41993C3.32777 10.1599 3.71696 10.8499 4.29576 11.4299L6.2916 9.42994C6.50116 9.63994 6.76062 9.78993 7.03006 9.85993L6.30158 12.5899C6.67081 12.6899 7.06 12.7399 7.45917 12.7399C7.85833 12.7399 8.24752 12.6899 8.61675 12.5899L7.88827 9.85993C8.15771 9.78993 8.41717 9.63994 8.62673 9.42994ZM7.45917 5.55993L7.7286 6.87994C7.98806 6.92993 8.24752 7.05993 8.45709 7.25993C9.00594 7.80993 9.00594 8.69993 8.45709 9.24994C7.90823 9.79993 7.02008 9.79993 6.47122 9.24994C5.92237 8.69993 5.92237 7.80993 6.47122 7.25993C6.68079 7.04993 6.94025 6.91993 7.20969 6.86993L7.45917 5.55993ZM12.5784 15.1001H3.03831C2.85868 15.1001 2.71897 14.9601 2.71897 14.7801C2.71897 14.6001 2.85868 14.4601 3.03831 14.4601H12.5784C12.7581 14.4601 12.8978 14.6001 12.8978 14.7801C12.8978 14.9601 12.7581 15.1001 12.5784 15.1001ZM3.03831 16.4798H8.74642C8.92604 16.4798 9.07573 16.3398 9.06575 16.1598C9.06575 15.9798 8.92604 15.8398 8.74642 15.8398H3.03831C2.85868 15.8398 2.71897 15.9798 2.71897 16.1598C2.71897 16.3398 2.85868 16.4798 3.03831 16.4798Z" fill="#BDBDBD"/>
</g>
<defs>
<clipPath id="clip0">
<path d="M0.972656 0H13.9456V24H0.972656V0Z" fill="white"/>
</clipPath>
</defs>
</svg>
