<svg width="14" height="24" viewBox="0 0 14 24" fill="none" xmlns="http://www.w3.org/2000/svg">
<g clip-path="url(#clip0)">
<path fill-rule="evenodd" clip-rule="evenodd" d="M13.2207 2.2C13.2207 1.37 12.5521 0.7 11.7238 0.7H3.14172C2.31344 0.7 1.64483 1.37 1.64483 2.2V18.3999H13.2207V2.2ZM13.9193 18.3999V19.0999V21.8C13.9193 23.02 12.9413 24 11.7238 24H3.14172C1.92425 24 0.946289 23.02 0.946289 21.8V19.0999V18.3999V2.2C0.946289 0.98 1.92425 0 3.14172 0H11.7238C12.9413 0 13.9193 0.98 13.9193 2.2V18.3999ZM1.64483 19.0999V21.8C1.64483 22.63 2.31344 23.3 3.14172 23.3H11.7238C12.5521 23.3 13.2207 22.63 13.2207 21.8V19.0999H1.64483ZM2.94205 1.40003H11.9233C12.2527 1.40003 12.5221 1.67003 12.5221 2.00003V17.1C12.5221 17.43 12.2527 17.7 11.9233 17.7H2.94205C2.61274 17.7 2.3433 17.43 2.3433 17.1V2.00003C2.3433 1.67003 2.61274 1.40003 2.94205 1.40003ZM8.331 21.1998C8.331 21.6968 7.92889 22.0998 7.43287 22.0998C6.93685 22.0998 6.53474 21.6968 6.53474 21.1998C6.53474 20.7027 6.93685 20.2998 7.43287 20.2998C7.92889 20.2998 8.331 20.7027 8.331 21.1998Z" fill="#BDBDBD"/>
</g>
<defs>
<clipPath id="clip0">
<path d="M0.946289 0H13.9193V24H0.946289V0Z" fill="white"/>
</clipPath>
</defs>
</svg>
