<svg width="31" height="56" viewBox="0 0 31 56" fill="none" xmlns="http://www.w3.org/2000/svg">
<g clip-path="url(#clip0)">
<path fill-rule="evenodd" clip-rule="evenodd" d="M28.6403 5.12266C28.6403 3.19002 27.0802 1.62994 25.1476 1.62994H5.12266C3.19002 1.62994 1.62994 3.19002 1.62994 5.12266V42.8444H28.6403V5.12266ZM30.2703 42.8444V44.4744V50.7609C30.2703 53.6017 27.9884 55.8836 25.1476 55.8836H5.12266C2.28191 55.8836 0 53.6017 0 50.7609V44.4744V42.8444V5.12266C0 2.28191 2.28191 0 5.12266 0H25.1476C27.9884 0 30.2703 2.28191 30.2703 5.12266V42.8444ZM1.62994 44.4744V50.7609C1.62994 52.6936 3.19002 54.2536 5.12266 54.2536H25.1476C27.0802 54.2536 28.6403 52.6936 28.6403 50.7609V44.4744H1.62994ZM5.82115 6.17045H24.449C25.8694 6.17045 27.0103 7.33469 27.0103 8.73178V27.3596C27.0103 28.78 25.8694 29.921 24.449 29.921H5.82115C4.40078 29.921 3.25982 28.78 3.25982 27.3596V8.73178C3.25982 7.31141 4.40078 6.17045 5.82115 6.17045ZM5.37874 26.7775H17.3006H18.5579H24.8914L21.9808 20.8399C21.5617 19.9783 20.6303 19.9783 20.2112 20.8399L17.9293 25.4969L12.8532 15.1584C12.434 14.2969 11.5026 14.2969 11.0835 15.1584L5.37874 26.7775ZM20.2577 10.874C20.2577 12.1546 21.3056 13.2025 22.5862 13.2025C23.8669 13.2025 24.9147 12.1546 24.9147 10.874C24.9147 9.59332 23.8669 8.5455 22.5862 8.5455C21.3056 8.5455 20.2577 9.59332 20.2577 10.874ZM15.1352 51.4594C16.2926 51.4594 17.2308 50.5211 17.2308 49.3637C17.2308 48.2064 16.2926 47.2681 15.1352 47.2681C13.9778 47.2681 13.0396 48.2064 13.0396 49.3637C13.0396 50.5211 13.9778 51.4594 15.1352 51.4594ZM4.00493 33.9958H26.2652C26.6844 33.9958 27.0103 33.6699 27.0103 33.2507C27.0103 32.8316 26.6844 32.5056 26.2652 32.5056H4.00493C3.58581 32.5056 3.25982 32.8316 3.25982 33.2507C3.25982 33.6699 3.58581 33.9958 4.00493 33.9958ZM4.00493 37.2091H17.3239C17.743 37.2091 18.0923 36.8831 18.069 36.464C18.069 36.0449 17.743 35.7189 17.3239 35.7189H4.00493C3.58581 35.7189 3.25982 36.0449 3.25982 36.464C3.25982 36.8831 3.58581 37.2091 4.00493 37.2091Z" fill="#1A7DF1"/>
</g>
<defs>
<clipPath id="clip0">
<path d="M0 0H30.2703V56H0V0Z" fill="white"/>
</clipPath>
</defs>
</svg>
