<svg width="14" height="24" viewBox="0 0 14 24" fill="none" xmlns="http://www.w3.org/2000/svg">
<g clip-path="url(#clip0)">
<path fill-rule="evenodd" clip-rule="evenodd" d="M13.1934 2.19543C13.1934 1.36715 12.5248 0.698545 11.6965 0.698545H3.11437C2.2861 0.698545 1.61749 1.36715 1.61749 2.19543V18.3622H13.1934V2.19543ZM13.8919 18.3622V19.0607V21.7547C13.8919 22.9721 12.914 23.9501 11.6965 23.9501H3.11437C1.89691 23.9501 0.918945 22.9721 0.918945 21.7547V19.0607V18.3622V2.19543C0.918945 0.977963 1.89691 0 3.11437 0H11.6965C12.914 0 13.8919 0.977963 13.8919 2.19543V18.3622ZM1.61749 19.0607V21.7547C1.61749 22.583 2.2861 23.2516 3.11437 23.2516H11.6965C12.5248 23.2516 13.1934 22.583 13.1934 21.7547V19.0607H1.61749ZM3.41367 2.64448H11.397C12.0058 2.64448 12.4948 3.14344 12.4948 3.74219V11.7256C12.4948 12.3343 12.0058 12.8233 11.397 12.8233H3.41367C2.80494 12.8233 2.31596 12.3343 2.31596 11.7256V3.74219C2.31596 3.13346 2.80494 2.64448 3.41367 2.64448ZM3.22407 11.4761H8.33342H8.8723H11.5866L10.3392 8.93138C10.1596 8.56215 9.76045 8.56215 9.58082 8.93138L8.60286 10.9272L6.42739 6.49645C6.24777 6.12722 5.8486 6.12722 5.66897 6.49645L3.22407 11.4761ZM9.60078 4.66028C9.60078 5.20914 10.0498 5.6582 10.5987 5.6582C11.1476 5.6582 11.5966 5.20914 11.5966 4.66028C11.5966 4.11142 11.1476 3.66236 10.5987 3.66236C10.0498 3.66236 9.60078 4.11142 9.60078 4.66028ZM7.40554 22.054C7.90156 22.054 8.30366 21.6519 8.30366 21.1559C8.30366 20.6599 7.90156 20.2578 7.40554 20.2578C6.90951 20.2578 6.50741 20.6599 6.50741 21.1559C6.50741 21.6519 6.90951 22.054 7.40554 22.054ZM2.63529 14.5697H12.1754C12.355 14.5697 12.4948 14.4299 12.4948 14.2503C12.4948 14.0707 12.355 13.931 12.1754 13.931H2.63529C2.45567 13.931 2.31596 14.0707 2.31596 14.2503C2.31596 14.4299 2.45567 14.5697 2.63529 14.5697ZM2.63529 15.9468H8.3434C8.52303 15.9468 8.67272 15.8071 8.66274 15.6274C8.66274 15.4478 8.52303 15.3081 8.3434 15.3081H2.63529C2.45567 15.3081 2.31596 15.4478 2.31596 15.6274C2.31596 15.8071 2.45567 15.9468 2.63529 15.9468Z" fill="#BDBDBD"/>
</g>
<defs>
<clipPath id="clip0">
<path d="M0.918945 0H13.8919V24H0.918945V0Z" fill="white"/>
</clipPath>
</defs>
</svg>
