<svg width="31" height="56" viewBox="0 0 31 56" fill="none" xmlns="http://www.w3.org/2000/svg">
<path fill-rule="evenodd" clip-rule="evenodd" d="M28.6403 5.18125C28.6403 3.24861 27.0802 1.68853 25.1476 1.68853H5.12266C3.19002 1.68853 1.62994 3.24861 1.62994 5.18125V42.9026H28.6403V5.18125ZM0 42.9026V44.5325V50.8195C0 53.6603 2.28191 55.9422 5.12266 55.9422H25.1476C27.9884 55.9422 30.2703 53.6603 30.2703 50.8195V44.5325V42.9026V5.18125C30.2703 2.34051 27.9884 0.0585938 25.1476 0.0585938H5.12266C2.28191 0.0585938 0 2.34051 0 5.18125V42.9026ZM28.6403 50.8195V44.5325H1.62994V50.8195C1.62994 52.7521 3.19002 54.3122 5.12266 54.3122H25.1476C27.0802 54.3122 28.6403 52.7521 28.6403 50.8195ZM25.6133 3.05859H4.65698C3.88858 3.05859 3.25989 3.68859 3.25989 4.45859V39.6919C3.25989 40.4619 3.88858 41.0919 4.65698 41.0919H25.6133C26.3817 41.0919 27.0104 40.4619 27.0104 39.6919V4.45859C27.0104 3.68859 26.3817 3.05859 25.6133 3.05859ZM17.2308 49.4225C17.2308 50.5798 16.2925 51.5181 15.1351 51.5181C13.9778 51.5181 13.0395 50.5798 13.0395 49.4225C13.0395 48.2651 13.9778 47.3268 15.1351 47.3268C16.2925 47.3268 17.2308 48.2651 17.2308 49.4225Z" fill="#1A7DF1"/>
</svg>
