<svg width="31" height="56" viewBox="0 0 31 56" fill="none" xmlns="http://www.w3.org/2000/svg">
<g clip-path="url(#clip0)">
<path fill-rule="evenodd" clip-rule="evenodd" d="M28.6403 5.13333C28.6403 3.19667 27.0802 1.63333 25.1476 1.63333H5.12266C3.19002 1.63333 1.62994 3.19667 1.62994 5.13333V42.9333H28.6403V5.13333ZM30.2703 42.9333V44.5666V50.8667C30.2703 53.7133 27.9884 56 25.1476 56H5.12266C2.28191 56 0 53.7133 0 50.8667V44.5666V42.9333V5.13333C0 2.28667 2.28191 0 5.12266 0H25.1476C27.9884 0 30.2703 2.28667 30.2703 5.13333V42.9333ZM1.62994 44.5666V50.8667C1.62994 52.8033 3.19002 54.3667 5.12266 54.3667H25.1476C27.0802 54.3667 28.6403 52.8033 28.6403 50.8667V44.5666H1.62994ZM15.1352 51.5665C16.2926 51.5665 17.2308 50.6263 17.2308 49.4665C17.2308 48.3067 16.2926 47.3665 15.1352 47.3665C13.9778 47.3665 13.0396 48.3067 13.0396 49.4665C13.0396 50.6263 13.9778 51.5665 15.1352 51.5665ZM20.1413 25.2932L20.1646 25.2699C20.6303 24.9432 20.9563 24.4065 20.9563 23.7765C20.9563 23.0299 20.4906 22.3999 19.8852 22.1199L12.1779 17.6632C11.8752 17.4532 11.5259 17.3365 11.1301 17.3365C10.1288 17.3365 9.33715 18.1299 9.33715 19.1099V19.2499V28.3032V28.4432C9.33715 29.4232 10.1521 30.2165 11.1534 30.2165C11.5492 30.2165 11.9218 30.0765 12.2245 29.8665L20.0249 25.3632C20.0482 25.3399 20.0947 25.3165 20.1413 25.2932L20.1413 25.2932Z" fill="#1A7DF1"/>
</g>
<defs>
<clipPath id="clip0">
<path d="M0 0H30.2703V56H0V0Z" fill="white"/>
</clipPath>
</defs>
</svg>
