<svg width="14" height="24" viewBox="0 0 14 24" fill="none" xmlns="http://www.w3.org/2000/svg">
<g clip-path="url(#clip0)">
<path fill-rule="evenodd" clip-rule="evenodd" d="M13.166 2.2C13.166 1.37 12.4974 0.7 11.6691 0.7H3.08703C2.25875 0.7 1.59015 1.37 1.59015 2.2V18.3999H13.166V2.2ZM13.8646 18.3999V19.0999V21.8C13.8646 23.02 12.8866 24 11.6691 24H3.08703C1.86956 24 0.891602 23.02 0.891602 21.8V19.0999V18.3999V2.2C0.891602 0.98 1.86956 0 3.08703 0H11.6691C12.8866 0 13.8646 0.98 13.8646 2.2V18.3999ZM1.59015 19.0999V21.8C1.59015 22.63 2.25875 23.3 3.08703 23.3H11.6691C12.4974 23.3 13.166 22.63 13.166 21.8V19.0999H1.59015ZM7.37818 22.0998C7.87421 22.0998 8.27631 21.6968 8.27631 21.1998C8.27631 20.7027 7.87421 20.2998 7.37818 20.2998C6.88216 20.2998 6.48006 20.7027 6.48006 21.1998C6.48006 21.6968 6.88216 22.0998 7.37818 22.0998ZM9.52354 10.8399L9.53351 10.8299C9.7331 10.6899 9.87281 10.4599 9.87281 10.1899C9.87281 9.86986 9.67322 9.59986 9.41376 9.47986L6.11065 7.56986C5.98092 7.47986 5.83123 7.42986 5.66158 7.42986C5.23248 7.42986 4.89318 7.76986 4.89318 8.18986V8.24986V12.1299V12.1899C4.89318 12.6099 5.24246 12.9499 5.67156 12.9499C5.84121 12.9499 6.00087 12.8899 6.1306 12.7999L9.47364 10.8699C9.48362 10.8599 9.50357 10.8499 9.52353 10.8399L9.52354 10.8399Z" fill="#BDBDBD"/>
</g>
<defs>
<clipPath id="clip0">
<path d="M0.891602 0H13.8646V24H0.891602V0Z" fill="white"/>
</clipPath>
</defs>
</svg>
