<svg width="14" height="14" viewBox="0 0 14 14" fill="none" xmlns="http://www.w3.org/2000/svg">
<path d="M5.425 0.350244C5.425 0.156944 5.5817 0.000244141 5.775 0.000244141H8.225C8.4183 0.000244141 8.575 0.156944 8.575 0.350244V2.80024C8.575 2.99354 8.4183 3.15024 8.225 3.15024H5.775C5.5817 3.15024 5.425 2.99354 5.425 2.80024V0.350244Z"/>
<path d="M9.1 2.10024H10.5C11.2732 2.10024 11.9 2.72705 11.9 3.50024V4.72524H12.95V3.50024C12.95 2.14715 11.8531 1.05024 10.5 1.05024H9.1V2.10024Z"/>
<path d="M11.2 8.40024C11.0067 8.40024 10.85 8.24354 10.85 8.05024V5.60024C10.85 5.40694 11.0067 5.25024 11.2 5.25024H13.65C13.8433 5.25024 14 5.40694 14 5.60024V8.05024C14 8.24354 13.8433 8.40024 13.65 8.40024H11.2Z"/>
<path d="M11.9 8.92524V10.5002C11.9 11.2734 11.2732 11.9002 10.5 11.9002H9.1V12.9502H10.5C11.8531 12.9502 12.95 11.8533 12.95 10.5002V8.92524H11.9Z"/>
<path d="M4.9 2.10024V1.05024H3.5C2.1469 1.05024 1.05 2.14715 1.05 3.50024V4.72524H2.1V3.50024C2.1 2.72705 2.7268 2.10024 3.5 2.10024H4.9Z"/>
<path d="M5.425 11.2002C5.425 11.0069 5.5817 10.8502 5.775 10.8502H8.225C8.4183 10.8502 8.575 11.0069 8.575 11.2002V13.6502C8.575 13.8435 8.4183 14.0002 8.225 14.0002H5.775C5.5817 14.0002 5.425 13.8435 5.425 13.6502V11.2002Z"/>
<path d="M4.9 11.9002V12.9502H3.5C2.1469 12.9502 1.05 11.8533 1.05 10.5002V8.92524H2.1V10.5002C2.1 11.2734 2.7268 11.9002 3.5 11.9002H4.9Z"/>
<path d="M0.35 5.25024H2.8C2.9933 5.25024 3.15 5.40694 3.15 5.60024V8.05024C3.15 8.24354 2.9933 8.40024 2.8 8.40024H0.35C0.1567 8.40024 0 8.24354 0 8.05024V5.60024C0 5.40694 0.1567 5.25024 0.35 5.25024Z"/>
</svg>
