<svg width="14" height="14" viewBox="0 0 14 14" fill="none" xmlns="http://www.w3.org/2000/svg">
<g clip-path="url(#clip0)">
<path d="M6.41534 0.98637C6.518 0.9282 6.72661 0.86562 7.00037 0.86562C7.23291 0.86562 7.4522 0.910892 7.58686 0.986737L12.664 3.81111L7.58576 6.63327C7.4522 6.70875 7.23291 6.75402 7.00037 6.75402C6.72661 6.75402 6.518 6.69144 6.41424 6.63252L1.33562 3.80963L6.41534 0.98637ZM13.4761 9.6281C13.5545 9.58207 13.641 9.5725 13.7249 9.60048C13.8242 9.63326 13.9081 9.71645 13.9567 9.82875C14.0553 10.0581 13.9773 10.3457 13.7859 10.4565L8.14324 13.7279C7.52108 14.0898 6.48569 14.0916 5.8569 13.7279L0.2142 10.455C0.0225225 10.3446 -0.0554751 10.0581 0.0438549 9.82912C0.0927849 9.71572 0.174843 9.63473 0.274558 9.60158C0.30549 9.59111 0.337924 9.58576 0.37058 9.58575C0.423202 9.58575 0.475072 9.60011 0.524387 9.6281L6.16634 12.9005C6.61043 13.1579 7.38973 13.1579 7.83419 12.9005L13.4761 9.6281ZM13.4761 6.43326C13.5545 6.38724 13.641 6.37766 13.7249 6.40565C13.8242 6.43842 13.9081 6.52162 13.9567 6.63392C14.0553 6.86331 13.9773 7.15087 13.7859 7.26168L8.14877 10.5301C7.80328 10.7164 7.4221 10.8143 7.03979 10.8143C6.60749 10.8177 6.18105 10.7197 5.8569 10.5327L0.21385 7.26204C0.0909475 7.19026 0.00962496 7.04261 0.000804958 6.87619C-0.00764754 6.70792 0.0593074 6.54776 0.17633 6.45829C0.23555 6.41301 0.302155 6.39018 0.36911 6.39018C0.4221 6.39018 0.475072 6.40454 0.524755 6.43326L6.1667 9.70534C6.6108 9.96271 7.39009 9.96233 7.83419 9.70534L13.4761 6.43326ZM7.00035 0C7.34108 0 7.66999 0.074375 7.90326 0.20398L13.6851 3.41897C13.8852 3.53055 14 3.67267 14 3.80963C13.9996 3.94697 13.8852 4.0891 13.6854 4.20028L7.90328 7.41566C7.43342 7.67634 6.56803 7.67634 6.09672 7.41566L0.314947 4.20028C0.1148 4.08908 0 3.94697 0 3.80963C0 3.67267 0.1148 3.53055 0.314947 3.41899L6.09782 0.20398C6.3311 0.074375 6.66003 0 7.00035 0Z" fill=""/>
</g>
<defs>
<clipPath id="clip0">
<rect width="14" height="14" fill=""/>
</clipPath>
</defs>
</svg>
