<svg width="16" height="17" viewBox="0 0 16 17" fill="none" xmlns="http://www.w3.org/2000/svg">
<path d="M7.84685 0.72154C7.94487 0.680931 8.05501 0.680931 8.15303 0.72154L14.753 3.45577C14.9025 3.51768 14.9999 3.66353 14.9999 3.82531V7.94824C14.9999 8.95516 14.8226 9.93187 14.4679 10.8784C14.1132 11.8249 13.6333 12.6808 13.0178 13.446C12.3815 14.2415 11.6408 14.9262 10.7853 15.48C9.92989 16.0338 9.00143 16.4265 7.99994 16.6581C6.98802 16.4265 6.05955 16.0338 5.21454 15.48C4.3591 14.9262 3.61842 14.2516 2.98206 13.446C2.36656 12.6808 1.88668 11.8249 1.53198 10.8784C1.17729 9.94194 0.999939 8.95516 0.999939 7.94824V3.82531C0.999939 3.66353 1.09739 3.51768 1.24685 3.45577L7.84685 0.72154ZM7.99994 8.64301L7.99994 3.24893C7.99994 2.96594 7.71413 2.77244 7.45138 2.87754L3.25138 4.55754C3.09952 4.61828 2.99994 4.76537 2.99994 4.92893V8.24301C2.99994 8.46393 3.17903 8.64301 3.39994 8.64301H7.99994L7.99994 14.1329C7.99994 14.3971 8.25248 14.5917 8.51059 14.5352C9.04339 14.4186 9.53897 14.3222 9.99994 14C10.6154 13.5771 11.0305 13.2321 11.4999 12.6581C11.9798 12.0942 12.187 11.5631 12.4999 10.8784C12.7507 10.3297 12.9345 9.74865 13.0514 9.15084C13.0975 8.91453 12.913 8.70092 12.6723 8.69808L7.99994 8.64301Z" fill="white"/>
</svg>
