<svg width="16" height="16" viewBox="0 0 16 16" fill="none" xmlns="http://www.w3.org/2000/svg">
<g clip-path="url(#clip0)">
<path d="M7.48709 8.86236C8.31873 9.77211 9.2725 9.76094 9.81873 9.77211C9.92115 9.78328 10.3187 9.77211 10.8187 9.27211L14.7161 4.21067C15.6265 3.32836 15.6265 1.89878 14.7389 1.01646C14.6934 0.971782 14.6478 0.927107 14.6023 0.893602C13.6464 0.0782942 12.1898 0.18998 11.3705 1.12814C11.3477 1.15048 11.3363 1.17282 11.3136 1.19515L6.81873 5.77211C6.75045 5.86146 6.36077 6.06622 6.5 7C6.56828 7.45791 6.81873 8.27211 7.48709 8.86236ZM0.0930782 12.4643C0.514131 12.576 0.944949 12.7598 1.48463 12.4643C2.564 11.8732 2 10.5 2.5 9C2.81623 8.05132 4 7.5 5 8C5.80152 8.40076 5.5 9 6.27127 9.77211C7.04254 10.5442 7.47496 10.475 8 11C8.5 11.5 8.48051 11.7208 8.5 12C8.56703 12.9605 7.42114 15.1112 4.09877 15.1224C0.491367 15.1224 -0.134416 12.0734 0.0930782 12.4643Z" fill="white"/>
</g>
<defs>
<clipPath id="clip0">
<rect width="16" height="15.1111" fill="white"/>
</clipPath>
</defs>
</svg>
