<svg width="16" height="16" viewBox="0 0 16 16" fill="none" xmlns="http://www.w3.org/2000/svg">
<path d="M13.4059 5.92201C13.696 4.78708 13.8155 3.61801 13.7643 2.45748C15.1979 3.94228 16 5.93054 16 7.99561C16 8.08948 15.9915 8.16628 15.9915 8.26015C15.2491 7.36415 14.3787 6.57055 13.4059 5.92201ZM3.5072 4.35188C2.38933 4.66761 1.32267 5.14548 0.315733 5.78548C0.9216 3.69481 2.34667 1.94548 4.26667 0.930012C3.84853 2.02228 3.59253 3.18281 3.5072 4.35188ZM8.14933 13.1327C9.27573 12.4329 10.2741 11.5455 11.1104 10.5129C11.9467 9.48041 12.6037 8.31135 13.056 7.06548C14.0117 7.74815 14.848 8.57588 15.5392 9.51454C15.6245 9.63401 15.6928 9.77055 15.7696 9.89001C15.1979 12.2111 13.6277 14.1567 11.4688 15.1977C10.2485 14.7113 9.12213 14.0116 8.14933 13.1327ZM9.9584 15.7439C9.3184 15.906 8.66133 15.9913 8.00427 15.9999C6.51093 15.9999 5.0432 15.5817 3.78027 14.7881C4.93227 14.5919 6.05013 14.2335 7.09973 13.7129C7.94453 14.5236 8.9088 15.2148 9.9584 15.7439ZM5.76 0.324145C8.05547 -0.349988 10.5216 0.0425452 12.5013 1.38228C12.5184 1.53588 12.5696 1.67241 12.5781 1.82601C12.6976 2.98655 12.6293 4.16414 12.3733 5.30761C11.2043 4.68468 9.9328 4.25801 8.61867 4.04468C7.30453 3.83988 5.97333 3.84841 4.66773 4.08735C4.80427 2.78174 5.1712 1.50175 5.76 0.324145ZM4.62507 5.25641C5.888 5.00041 7.17653 4.97481 8.448 5.17108C9.71947 5.37588 10.9483 5.80255 12.0661 6.43401C11.6565 7.65428 11.0336 8.78921 10.2229 9.78761C9.41227 10.786 8.43093 11.6308 7.33013 12.2879C6.4768 11.3236 5.80267 10.2228 5.34187 9.01961C4.87253 7.82494 4.6336 6.54494 4.62507 5.25641ZM4.26667 9.42921C4.74453 10.6665 5.4272 11.8185 6.28907 12.834C5.23947 13.3119 4.10453 13.6361 2.9184 13.7556C2.77333 13.7727 2.6368 13.7727 2.49173 13.7812C0.896 12.2793 0 10.1887 0 7.99561C0 7.79934 0.0170667 7.59454 0.0341333 7.39828C0.1536 7.30441 0.247467 7.20201 0.375467 7.10815C1.32267 6.42548 2.3808 5.89641 3.49867 5.54655C3.5328 6.84361 3.77173 8.15774 4.26667 9.42921Z" fill="white"/>
</svg>
