<svg width="16" height="16" viewBox="0 0 16 16" fill="none" xmlns="http://www.w3.org/2000/svg">
<path fill-rule="evenodd" clip-rule="evenodd" d="M2 2C2 1.44772 1.55228 1 1 1C0.447715 1 0 1.44772 0 2V13.5011V14.5011L1.00008 14.5011L15.0001 14.5C15.5524 14.5 16 14.0522 16 13.4999C16 12.9476 15.5522 12.5 14.9999 12.5L2 12.501V2ZM11.3414 2.34142C11.2154 2.21543 11.3047 2 11.4828 2H15.6C15.8209 2 16 2.17909 16 2.4V6.51716C16 6.69534 15.7846 6.78457 15.6586 6.65858L14.2071 5.20711L10.3598 9.05439C9.86555 9.54867 9.0551 9.51754 8.60019 8.98681L6.44352 6.4707L4.20711 8.70711C3.81658 9.09763 3.18342 9.09763 2.79289 8.70711C2.40237 8.31658 2.40237 7.68342 2.79289 7.29289L5.64018 4.44561C6.13445 3.95133 6.9449 3.98246 7.39981 4.51319L9.55648 7.0293L12.7929 3.79289L11.3414 2.34142Z" fill="white"/>
</svg>
