<svg width="16" height="16" viewBox="0 0 16 16" fill="none" xmlns="http://www.w3.org/2000/svg">
<path d="M13.6425 2H2.35746C1.33586 2 0.5 2.8295 0.5 3.84333V13.2817C0.5 14.3057 1.33586 15.125 2.35746 15.125H13.6425C14.6745 15.125 15.5 14.2955 15.5 13.2817V3.84333C15.5 2.8295 14.6641 2 13.6425 2ZM7.25392 12.5028C7.25392 12.8715 6.96498 13.1685 6.59349 13.1685H3.12727C2.67426 13.1685 2.375 12.8715 2.375 12.5028V10.8438C2.375 10.4752 2.67426 10.1782 3.04575 10.1782H6.58317C6.95466 10.1782 7.25392 10.4752 7.25392 10.8438V12.5028ZM7.26424 8.40653C7.26424 8.7752 6.96498 9.07218 6.59349 9.07218H3.04575C2.67426 9.07218 2.375 8.7752 2.375 8.40653V6.74753C2.375 6.37886 2.67426 6.08188 3.04575 6.08188H6.58317C6.95466 6.08188 7.25392 6.37886 7.25392 6.74753L7.26424 8.40653ZM13.6425 12.5028C13.6425 12.8715 13.3433 13.1685 12.9718 13.1685H9.43437C9.06288 13.1685 8.76362 12.8715 8.76362 12.5028V10.8438C8.76362 10.4752 9.06288 10.1782 9.43437 10.1782H12.9718C13.3433 10.1782 13.6425 10.4752 13.6425 10.8438V12.5028ZM13.6425 8.40653C13.6425 8.7752 13.3433 9.07218 12.9718 9.07218H9.43437C9.06288 9.07218 8.76362 8.7752 8.76362 8.40653V6.74753C8.76362 6.37886 9.06288 6.08188 9.43437 6.08188H12.9718C13.3433 6.08188 13.6425 6.37886 13.6425 6.74753V8.40653Z" fill="white"/>
</svg>
