<svg width="16" height="16" viewBox="0 0 16 16" fill="none" xmlns="http://www.w3.org/2000/svg">
<path fill-rule="evenodd" clip-rule="evenodd" d="M11.5522 8.49611C11.3598 8.49611 11.16 8.42211 11.012 8.27411L7.92614 5.18829C7.63014 4.89228 7.63014 4.41128 7.92614 4.11528L11.012 1.02205C11.308 0.726048 11.789 0.726048 12.085 1.02205L15.1782 4.10788C15.4742 4.40388 15.4742 4.88488 15.1782 5.18089L12.0924 8.27411C11.9444 8.42211 11.7446 8.49611 11.5522 8.49611ZM1.3993 15.5999H6.38695C6.83095 15.5999 7.18615 15.2447 7.19355 14.8007V9.8057C7.19355 9.3617 6.83095 9.0065 6.39435 9.0065H1.3993C0.955301 9.0065 0.600098 9.3691 0.600098 9.8057V14.8007C0.600098 15.2447 0.955301 15.5999 1.3993 15.5999ZM9.60594 15.5999H14.601C15.045 15.5999 15.4002 15.2447 15.4002 14.8007V9.8057C15.4002 9.3617 15.0376 9.0065 14.601 9.0065H9.60594C9.16194 9.0065 8.80674 9.3691 8.80674 9.8057V14.8007C8.80674 15.2447 9.16934 15.5999 9.60594 15.5999ZM1.3993 7.3861H6.38695C6.83095 7.3861 7.18615 7.0309 7.18615 6.5943V1.59926C7.18615 1.15525 6.83095 0.800049 6.39435 0.800049H1.3993C0.955301 0.800049 0.600098 1.15525 0.600098 1.59926V6.5869C0.600098 7.0309 0.955301 7.3861 1.3993 7.3861Z" fill="white"/>
</svg>
