<svg width="16" height="16" viewBox="0 0 16 16" fill="none" xmlns="http://www.w3.org/2000/svg">
<g clip-path="url(#clip0)">
<path fill-rule="evenodd" clip-rule="evenodd" d="M11.84 8.32C11.632 8.32 11.416 8.24 11.256 8.08L7.91998 4.744C7.59998 4.424 7.59998 3.904 7.91998 3.584L11.256 0.24C11.576 -0.08 12.096 -0.08 12.416 0.24L15.76 3.576C16.08 3.896 16.08 4.416 15.76 4.736L12.424 8.08C12.264 8.24 12.048 8.32 11.84 8.32ZM0.864 16.0001H6.256C6.736 16.0001 7.12 15.6161 7.128 15.1361V9.73606C7.128 9.25606 6.736 8.87206 6.264 8.87206H0.864C0.384 8.87206 0 9.26406 0 9.73606V15.1361C0 15.6161 0.384 16.0001 0.864 16.0001ZM9.73597 16.0001H15.136C15.616 16.0001 16 15.6161 16 15.1361V9.73606C16 9.25606 15.608 8.87206 15.136 8.87206H9.73597C9.25597 8.87206 8.87197 9.26406 8.87197 9.73606V15.1361C8.87197 15.6161 9.26397 16.0001 9.73597 16.0001ZM0.864 7.12H6.256C6.736 7.12 7.12 6.736 7.12 6.264V0.864C7.12 0.384 6.736 0 6.264 0H0.864C0.384 0 0 0.384 0 0.864V6.256C0 6.736 0.384 7.12 0.864 7.12Z"/>
</g>
<defs>
<clipPath id="clip0">
<path d="M0 0H16V16H0V0Z"/>
</clipPath>
</defs>
</svg>
