<svg width="14" height="14" viewBox="0 0 14 14" fill="none" xmlns="http://www.w3.org/2000/svg">
<path d="M6.99998 9.56815C5.58649 9.56815 4.43628 8.4181 4.43628 7.00462C4.43628 5.59097 5.58649 4.44092 6.99998 4.44092C8.41346 4.44092 9.56335 5.59097 9.56335 7.00462C9.56335 8.4181 8.41346 9.56815 6.99998 9.56815ZM6.99998 5.3033C6.06183 5.3033 5.29866 6.06647 5.29866 7.00462C5.29866 7.9426 6.06183 8.70577 6.99998 8.70577C7.93796 8.70577 8.70113 7.9426 8.70113 7.00462C8.70113 6.06647 7.93796 5.3033 6.99998 5.3033Z" />
<path d="M9.22257 13.6578C8.89332 13.6578 8.57241 13.487 8.39615 13.1819C8.11586 12.6967 7.59445 12.3957 7.03435 12.3957H7.03243L6.9711 12.3956C6.96613 12.3954 6.96099 12.3954 6.95569 12.3954C6.40025 12.3954 5.89104 12.6826 5.62264 13.148C5.4902 13.3774 5.27637 13.5414 5.02032 13.6098C4.76411 13.6787 4.49715 13.6434 4.26791 13.5109L2.7024 12.6067C2.4807 12.4787 2.3221 12.2721 2.25596 12.0249C2.18982 11.7777 2.22369 11.5195 2.35179 11.2978C2.63626 10.8052 2.63658 10.1927 2.35276 9.69975L2.34168 9.68049C2.05882 9.1891 1.53099 8.88393 0.964316 8.88393C0.432634 8.88393 0 8.45129 0 7.91961V6.13417C0 5.57825 0.452219 5.12603 1.00814 5.12603C1.54849 5.12603 2.0516 4.83515 2.32113 4.36704C2.62486 3.83969 2.62454 3.18472 2.32033 2.65769L2.27121 2.57277C2.05128 2.19167 2.18227 1.70333 2.56273 1.48372L4.261 0.503192C4.73891 0.227558 5.3515 0.391943 5.62713 0.869205C5.89361 1.33122 6.39881 1.61632 6.94767 1.61632C6.95329 1.61632 6.95906 1.61632 6.96452 1.61616L7.02119 1.61584H7.02312C7.59413 1.61584 8.11522 1.31516 8.3947 0.830677C8.52441 0.605933 8.72925 0.448772 8.97454 0.383114C9.2192 0.316975 9.4754 0.351008 9.69517 0.477988L11.3045 1.40731C11.5243 1.53397 11.6814 1.73881 11.7471 1.98394C11.8128 2.22891 11.779 2.48496 11.6524 2.70457C11.3759 3.18327 11.3862 3.79249 11.6793 4.29448L11.6967 4.3245C11.9808 4.81781 12.4998 5.12571 13.0501 5.12571C13.5739 5.12571 14 5.55176 14 6.07558V7.93567C14 8.45836 13.5748 8.88361 13.0519 8.88361C12.5011 8.88361 11.9813 9.19199 11.6957 9.68836L11.68 9.71549C11.3869 10.2178 11.3767 10.8275 11.6535 11.3065C11.9145 11.7592 11.759 12.3399 11.3066 12.6012L9.69774 13.53C9.54764 13.6167 9.38406 13.6578 9.22257 13.6578ZM7.03516 11.5333C7.90171 11.5333 8.70934 11.9995 9.14294 12.7507C9.15835 12.7775 9.18131 12.7881 9.19768 12.7926C9.21438 12.7974 9.2391 12.7988 9.26607 12.7837L10.8749 11.8549C10.9157 11.8313 10.9297 11.779 10.9061 11.738C10.475 10.9917 10.4861 10.0504 10.9346 9.28125L11.3215 9.47372L10.9478 9.25861C11.387 8.4956 12.1931 8.02155 13.0514 8.02155C13.0986 8.02155 13.1371 7.98318 13.1371 7.93599V6.0759C13.1371 6.02774 13.0978 5.98841 13.0495 5.98841C12.1918 5.98841 11.3862 5.515 10.9473 4.75296L10.9338 4.72952C10.4852 3.96073 10.4741 3.01985 10.9048 2.2737C10.9197 2.24785 10.9178 2.22329 10.9136 2.20724C10.9094 2.19135 10.8988 2.16919 10.873 2.15426L9.26398 1.22494C9.25407 1.21916 9.24309 1.21541 9.23171 1.21392C9.22032 1.21243 9.20875 1.21323 9.19768 1.21628C9.18163 1.22045 9.15964 1.23104 9.14471 1.25689C8.70854 2.01251 7.90123 2.47838 7.03468 2.47838H7.03195L6.97448 2.4787C6.10584 2.48705 5.3051 2.03643 4.88034 1.30039C4.85577 1.25737 4.81741 1.2418 4.7967 1.23634C4.77583 1.23088 4.73505 1.22543 4.69235 1.24999L3.05075 2.19777L3.06697 2.22602C3.5248 3.01905 3.52528 4.00407 3.06841 4.79726C2.64541 5.53186 1.85591 5.98825 1.00814 5.98825C0.927715 5.98825 0.862378 6.05359 0.862378 6.13401V7.91945C0.862378 7.97564 0.90813 8.02139 0.964316 8.02139C1.83873 8.02139 2.65279 8.49207 3.08896 9.24994L3.10003 9.26905C3.53684 10.028 3.53636 10.9705 3.09859 11.7287C3.08222 11.7573 3.0843 11.7839 3.08896 11.8016C3.09361 11.8189 3.10517 11.8433 3.13343 11.8596L4.69942 12.7635C4.76106 12.7991 4.84052 12.7783 4.876 12.7163C5.29836 11.9846 6.09348 11.5325 6.95505 11.5325C6.96308 11.5325 6.97062 11.5325 6.97849 11.5327L7.03243 11.5329C7.03307 11.5333 7.03419 11.5333 7.03516 11.5333Z" />
</svg>
