<svg width="14" height="14" viewBox="0 0 14 14" fill="none" xmlns="http://www.w3.org/2000/svg">
<g clip-path="url(#clip0)">
<rect x="11.48" y="6.30005" width="2.52" height="1.4" rx="0.7" fill=""/>
<rect x="11.2988" y="3.68579" width="2.52" height="1.4" rx="0.7" transform="rotate(-30 11.2988 3.68579)" fill=""/>
<rect width="2.45" height="1.4" rx="0.7" transform="matrix(-0.866026 -0.5 -0.5 0.866025 14 10.3264)" fill=""/>
<path d="M4.34129 9.93405C4.34129 11.0028 4.39871 12.2893 4.68097 13.042C4.84403 13.4768 4.74545 13.7995 4.46236 13.933C4.25924 14.0007 3.79734 14.0206 3.57464 13.5588C2.90005 12.4108 2.36523 9.85501 2.36523 9.85501C3.02213 9.70635 3.95631 9.84576 4.34129 9.93405Z" fill=""/>
<path d="M9.66 1.15505C9.72503 0.942183 9.87 0.805054 10.08 0.805054C10.36 0.805054 10.5 1.00026 10.5 1.22505V12.4951C10.5 12.7051 10.3452 12.9083 10.0652 12.9083C9.79565 12.9083 9.63727 12.6803 9.58447 12.4951C8.04447 9.48505 4.62 8.99505 3.08 8.99505H2.24H2.17H2.03H1.96C0.84 8.85505 0 7.94505 0 6.82505C0 5.70505 0.84 4.79505 2.03 4.72505L3.15 4.65505C4.69 4.65505 8.05 4.30505 9.66 1.15505Z" fill=""/>
</g>
<defs>
<clipPath id="clip0">
<rect width="14" height="14" fill="white"/>
</clipPath>
</defs>
</svg>
