<svg width="16" height="16" viewBox="0 0 16 16" fill="none" xmlns="http://www.w3.org/2000/svg">
<path d="M9.21422 7.83866L15.5981 1.4548C15.9208 1.13209 15.9208 0.602359 15.5981 0.279656L15.5631 0.244703C15.2404 -0.0779844 14.7107 -0.0779844 14.388 0.244703L8.00413 6.63664L1.62027 0.242016C1.29758 -0.0806719 0.767828 -0.0806719 0.445141 0.242016L0.410172 0.276969C0.0794219 0.599656 0.0794219 1.12941 0.410172 1.45209L6.79405 7.83866L0.410172 14.2225C0.0874843 14.5452 0.0874843 15.0749 0.410172 15.3976L0.445141 15.4326C0.767828 15.7553 1.29758 15.7553 1.62027 15.4326L8.00413 9.04872L14.388 15.4326C14.7107 15.7553 15.2404 15.7553 15.5631 15.4326L15.5981 15.3976C15.9208 15.0749 15.9208 14.5452 15.5981 14.2225L9.21422 7.83866Z" fill="#333333"/>
</svg>
