<svg width="13" height="15" viewBox="0 0 13 15" fill="none" xmlns="http://www.w3.org/2000/svg">
<path d="M0.348215 14.0625H0.928572V0.703125C0.928572 0.314795 1.24037 0 1.625 0H11.375C11.7596 0 12.0714 0.314795 12.0714 0.703125V14.0625H12.6518C12.8441 14.0625 13 14.2199 13 14.4141V15H0V14.4141C0 14.2199 0.155913 14.0625 0.348215 14.0625ZM9.28571 2.22656C9.28571 2.03241 9.1298 1.875 8.9375 1.875H7.77679C7.58448 1.875 7.42857 2.03241 7.42857 2.22656V3.39844C7.42857 3.59259 7.58448 3.75 7.77679 3.75H8.9375C9.1298 3.75 9.28571 3.59259 9.28571 3.39844V2.22656ZM9.28571 5.03906C9.28571 4.84491 9.1298 4.6875 8.9375 4.6875H7.77679C7.58448 4.6875 7.42857 4.84491 7.42857 5.03906V6.21094C7.42857 6.40509 7.58448 6.5625 7.77679 6.5625H8.9375C9.1298 6.5625 9.28571 6.40509 9.28571 6.21094V5.03906ZM7.77679 9.375H8.9375C9.1298 9.375 9.28571 9.21759 9.28571 9.02344V7.85156C9.28571 7.65741 9.1298 7.5 8.9375 7.5H7.77679C7.58448 7.5 7.42857 7.65741 7.42857 7.85156V9.02344C7.42857 9.21759 7.58448 9.375 7.77679 9.375ZM5.57143 14.0625H7.42857V11.6016C7.42857 11.4074 7.27266 11.25 7.08036 11.25H5.91964C5.72734 11.25 5.57143 11.4074 5.57143 11.6016V14.0625ZM3.71429 9.02344C3.71429 9.21759 3.8702 9.375 4.0625 9.375H5.22321C5.41552 9.375 5.57143 9.21759 5.57143 9.02344V7.85156C5.57143 7.65741 5.41552 7.5 5.22321 7.5H4.0625C3.8702 7.5 3.71429 7.65741 3.71429 7.85156V9.02344ZM3.71429 6.21094C3.71429 6.40509 3.8702 6.5625 4.0625 6.5625H5.22321C5.41552 6.5625 5.57143 6.40509 5.57143 6.21094V5.03906C5.57143 4.84491 5.41552 4.6875 5.22321 4.6875H4.0625C3.8702 4.6875 3.71429 4.84491 3.71429 5.03906V6.21094ZM3.71429 3.39844C3.71429 3.59259 3.8702 3.75 4.0625 3.75H5.22321C5.41552 3.75 5.57143 3.59259 5.57143 3.39844V2.22656C5.57143 2.03241 5.41552 1.875 5.22321 1.875H4.0625C3.8702 1.875 3.71429 2.03241 3.71429 2.22656V3.39844Z" />
</svg>
