<svg width="14" height="14" viewBox="0 0 14 14" fill="none" xmlns="http://www.w3.org/2000/svg">
<path d="M7.0035 0.700195C3.14457 0.700195 0 3.84477 0 7.70369C0 9.99384 1.12756 12.1439 3.0045 13.4536C3.08854 13.5096 3.18659 13.5446 3.28464 13.5446H10.7153C10.8134 13.5446 10.9114 13.5166 10.9955 13.4536C12.8794 12.1439 14 9.99384 14 7.70369C14.007 3.84477 10.8624 0.700195 7.0035 0.700195ZM10.5613 12.5641H3.44572C1.98899 11.4926 1.09255 9.83276 0.994496 8.03986C1.01551 8.03986 1.03652 8.04686 1.05753 8.04686H1.75788C1.95398 8.04686 2.10805 7.89279 2.10805 7.69669C2.10805 7.50059 1.95398 7.34651 1.75788 7.34651H1.05052C1.02951 7.34651 1.0085 7.34651 0.994496 7.35352C1.07854 5.95282 1.63882 4.68518 2.51426 3.7047C2.52126 3.7187 2.53527 3.73271 2.54927 3.74672L3.04652 4.24396C3.18659 4.38403 3.4037 4.38403 3.54377 4.24396C3.68384 4.10389 3.68384 3.88679 3.54377 3.74672L3.04652 3.24947C3.03251 3.23546 3.01851 3.22846 3.0045 3.21445C3.98499 2.33201 5.25262 1.77173 6.65332 1.69469C6.65332 1.7157 6.64632 1.72971 6.64632 1.75072V2.45107C6.64632 2.64717 6.80039 2.80124 6.99649 2.80124C7.19259 2.80124 7.34667 2.64717 7.34667 2.45107V1.75072C7.34667 1.72971 7.34667 1.7087 7.33966 1.69469C8.74036 1.77173 10.015 2.33201 11.0025 3.20745C10.9885 3.22145 10.9675 3.23546 10.9535 3.24947L10.4562 3.74672C10.3161 3.88679 10.3161 4.10389 10.4562 4.24396C10.5963 4.38403 10.8134 4.38403 10.9535 4.24396L11.4507 3.74672C11.4647 3.73271 11.4787 3.7117 11.4927 3.69769C12.3752 4.68518 12.9425 5.95982 13.0195 7.36052C12.9915 7.35352 12.9705 7.35352 12.9425 7.35352H12.2421C12.046 7.35352 11.8919 7.50759 11.8919 7.70369C11.8919 7.89979 12.046 8.05387 12.2421 8.05387H12.9425C12.9705 8.05387 12.9985 8.04686 13.0195 8.04686C12.9214 9.82575 12.018 11.4926 10.5613 12.5641Z"/>
<path d="M6.04395 9.59499L6.99642 10.4984L7.89987 9.59499L6.98942 3.74707L6.04395 9.59499Z"/>
</svg>
