<svg width="16" height="16" viewBox="0 0 16 16" fill="none" xmlns="http://www.w3.org/2000/svg">
<path d="M15.0857 3H0.914286C0.409429 3 0 3.37318 0 3.83333V12.1667C0 12.6268 0.409429 13 0.914286 13H15.0857C15.5906 13 16 12.6268 16 12.1667V3.83333C16 3.37318 15.5906 3 15.0857 3ZM1.37143 11.75V10.0833C2.38143 10.0833 3.2 10.8294 3.2 11.75H1.37143ZM1.37143 5.91667V4.25H3.2C3.2 5.17057 2.38143 5.91667 1.37143 5.91667ZM8 10.5C6.73743 10.5 5.71429 9.38047 5.71429 8C5.71429 6.61927 6.73771 5.5 8 5.5C9.26229 5.5 10.2857 6.61927 10.2857 8C10.2857 9.38099 9.262 10.5 8 10.5ZM14.6286 11.75H12.8C12.8 10.8294 13.6186 10.0833 14.6286 10.0833V11.75ZM14.6286 5.91667C13.6186 5.91667 12.8 5.17057 12.8 4.25H14.6286V5.91667Z" fill=""/>
</svg>
