<svg width="14" height="14" viewBox="0 0 14 14" fill="none" xmlns="http://www.w3.org/2000/svg">
<path fill-rule="evenodd" clip-rule="evenodd" d="M7.52501 4.84362C8.62582 4.60328 9.45001 3.62289 9.45001 2.45C9.45001 1.0969 8.3531 0 7.00001 0C5.64691 0 4.55001 1.0969 4.55001 2.45C4.55001 3.62289 5.37419 4.60328 6.47501 4.84362V7.175H2.79817C2.12162 7.175 1.57317 7.72345 1.57317 8.4V10.5086C0.688837 10.5964 -0.00183105 11.3426 -0.00183105 12.25C-0.00183105 13.2165 0.781671 14 1.74817 14C2.71467 14 3.49817 13.2165 3.49817 12.25C3.49817 11.6023 3.14624 11.0367 2.62317 10.7341V8.4C2.62317 8.30335 2.70152 8.225 2.79817 8.225H11.1982C11.2948 8.225 11.3732 8.30335 11.3732 8.4V10.7341C10.8501 11.0367 10.4982 11.6023 10.4982 12.25C10.4982 13.2165 11.2817 14 12.2482 14C13.2147 14 13.9982 13.2165 13.9982 12.25C13.9982 11.3426 13.3075 10.5964 12.4232 10.5086V8.4C12.4232 7.72345 11.8747 7.175 11.1982 7.175H7.52501V4.84362Z"/>
</svg>
