<svg width="16" height="16" viewBox="0 0 16 16" fill="none" xmlns="http://www.w3.org/2000/svg">
<path fill-rule="evenodd" clip-rule="evenodd" d="M8.35868 1.00408C8.16228 0.801699 7.83745 0.801699 7.64105 1.00408L0.702731 8.15364C0.395017 8.47072 0.619699 9.00185 1.06155 9.00185H14.9382C15.38 9.00185 15.6047 8.47072 15.297 8.15364L8.35868 1.00408ZM2.29095 9.00193H13.7012V15.5002C13.7012 15.7764 13.4773 16.0002 13.2012 16.0002H9.51744V11.0232C9.51744 10.7471 9.29358 10.5232 9.01744 10.5232H6.97471C6.69857 10.5232 6.47471 10.7471 6.47471 11.0232V16.0002H2.79095C2.51481 16.0002 2.29095 15.7764 2.29095 15.5002V9.00193Z" fill=""/>
</svg>
