<svg width="14" height="14" viewBox="0 0 14 14" fill="#070100" xmlns="http://www.w3.org/2000/svg">
<path d="M4.37495 1.57524C4.18165 1.57524 4.02495 1.73194 4.02495 1.92524V4.02524C4.02495 4.21854 4.18165 4.37524 4.37495 4.37524H9.62495C9.81825 4.37524 9.97495 4.21854 9.97495 4.02524V1.92524C9.97495 1.73194 9.81825 1.57524 9.62495 1.57524H4.37495Z" fill=""/>
<path fill-rule="evenodd" clip-rule="evenodd" d="M2.44995 1.40024C2.44995 0.627046 3.07675 0.000244141 3.84995 0.000244141H10.15C10.9232 0.000244141 11.55 0.627046 11.55 1.40024V12.6002C11.55 13.3734 10.9232 14.0002 10.15 14.0002H3.84995C3.07675 14.0002 2.44995 13.3734 2.44995 12.6002V1.40024ZM3.84995 1.05024H10.15C10.3433 1.05024 10.5 1.20694 10.5 1.40024V12.6002C10.5 12.7935 10.3433 12.9502 10.15 12.9502H3.84995C3.65665 12.9502 3.49995 12.7935 3.49995 12.6002V1.40024C3.49995 1.20694 3.65665 1.05024 3.84995 1.05024Z" fill=""/>
</svg>
