<svg width="32" height="32" viewBox="0 0 32 32" fill="none" xmlns="http://www.w3.org/2000/svg">
<path d="M17.1933 26.2167V26.0633C17.1933 25.2257 16.5143 24.5466 15.6767 24.5466C14.839 24.5466 14.16 25.2257 14.16 26.0633V26.2167C14.16 27.0543 14.839 27.7333 15.6767 27.7333C16.5143 27.7333 17.1933 27.0543 17.1933 26.2167Z" fill="#912D27"/>
<path d="M22.1467 13.4066C22.4667 12.7266 22.6267 11.9733 22.6267 11.14C22.6267 9.28664 21.9933 7.8 20.74 6.67332C19.48 5.56 17.9 5 16.0067 5C15.0667 5 14.18 5.14664 13.3333 5.44C12.4867 5.73332 11.72 6.1866 11.0333 6.79996C10.3467 7.41332 9.84668 8.11332 9.53332 8.89332C9.32569 9.41021 9.17661 10.0881 9.08801 10.9212C9.00718 11.6813 9.63072 12.3133 10.3951 12.3133C11.1452 12.3133 11.7359 11.7007 11.8445 10.9585C12.1936 8.57419 13.5449 7.38 15.9067 7.38C17.1333 7.38 18.0733 7.73332 18.72 8.42668C19.3667 9.12668 19.6933 9.92668 19.6933 10.8333C19.6933 11.74 19.5533 12.42 19.2734 12.88C18.9866 13.34 18.36 14.0733 17.38 15.0866C16.4067 16.1 15.7267 16.8666 15.3533 17.3866C14.9733 17.9067 14.7 18.52 14.5067 19.2133C14.3992 19.6164 14.3226 20.097 14.277 20.6549C14.2159 21.4033 14.8354 22.0133 15.5863 22.0133C16.3478 22.0133 16.942 21.3853 17.0189 20.6277C17.0576 20.2468 17.1197 19.9134 17.2067 19.6266C17.3866 19.0266 17.64 18.52 17.9866 18.0933C18.3267 17.6733 19.0333 16.9466 20.08 15.94C21.1333 14.9333 21.82 14.0866 22.1467 13.4066Z" fill="#912D27"/>
</svg>
