<svg width="16" height="16" viewBox="0 0 16 16" fill="none" xmlns="http://www.w3.org/2000/svg">
<path d="M11.3816 11.8065C11.512 11.3423 11.7076 11.1631 11.618 9.21682C14.9674 5.89426 15 1.29317 14.9918 1.01629C15 1.00814 15 1.00814 15 1.00814C15 1.00814 15 1.00814 14.9918 1.00814V1C14.9918 1 14.9918 1 14.9837 1.00814C14.6985 1.00814 10.094 1.03257 6.77716 4.37956C4.82943 4.28184 4.65014 4.48543 4.18562 4.61573C3.33807 4.85189 1.23551 7.0995 1.03177 7.87314C0.828031 8.65492 1.65928 8.77707 1.96081 8.80964C2.26234 8.83407 3.89224 8.65492 4.03078 8.87479C4.03078 8.87479 4.29157 9.05395 4.30786 9.53442C4.32416 10.0067 4.55235 10.6664 4.90278 11.0817L4.91093 11.0898L4.91908 11.098C5.3347 11.4481 5.99481 11.6762 6.46748 11.6925C6.9483 11.7087 7.12759 11.9693 7.12759 11.9693C7.34763 12.1078 7.16834 13.7365 7.19278 14.0378C7.21723 14.3391 7.34763 15.1779 8.12183 14.9661C8.90418 14.7544 11.1534 12.6534 11.3816 11.8065ZM9.07532 6.92034C8.43966 6.28515 8.43966 5.25092 9.07532 4.61573C9.71098 3.98053 10.746 3.98053 11.3816 4.61573C12.0173 5.25092 12.0173 6.28515 11.3816 6.92034C10.7378 7.55554 9.71098 7.55554 9.07532 6.92034ZM5.29395 12.3847C4.78868 12.3114 4.42196 12.0915 4.16117 11.8227C3.89224 11.5622 3.6722 11.1957 3.59886 10.6908C3.52551 10.2429 3.26473 10.0393 2.9795 10.0719C2.69426 10.1126 1.75707 11.1305 1.69188 11.497C1.63483 11.8553 2.1564 11.6925 2.43348 11.9368C2.70241 12.1811 2.40088 12.9221 2.19715 13.3212C2.0912 13.5247 2.03416 13.7446 2.13195 13.8586C2.24604 13.9564 2.46608 13.8912 2.66982 13.7935C3.06914 13.5899 3.8026 13.2886 4.05523 13.5573C4.29971 13.8342 4.13672 14.3554 4.4953 14.2984C4.85388 14.2414 5.88072 13.2967 5.92146 13.0117C5.95406 12.7185 5.74218 12.4579 5.29395 12.3847Z" fill=""/>
</svg>
