<svg width="15" height="14" viewBox="0 0 15 14" fill="none" xmlns="http://www.w3.org/2000/svg">
<g clip-path="url(#clip0)">
<path fill-rule="evenodd" clip-rule="evenodd" d="M7.23215 4.47998C6.72957 4.47998 6.32215 4.8874 6.32215 5.38998V12.18H8.14215V5.38998C8.14215 4.8874 7.73473 4.47998 7.23215 4.47998ZM9.19216 6.93012C9.19216 6.42754 9.59958 6.02012 10.1022 6.02012C10.6047 6.02012 11.0122 6.42754 11.0122 6.93012V12.1801H9.19216V6.93012ZM3.45215 9.23998C3.45215 8.7374 3.85957 8.32998 4.36215 8.32998C4.86473 8.32998 5.27215 8.7374 5.27215 9.23998V12.18H3.45215V9.23998Z" fill=""/>
<path fill-rule="evenodd" clip-rule="evenodd" d="M9.42005 1.3999H2.33184C1.94524 1.3999 1.63184 1.7133 1.63184 2.0999V13.2999C1.63184 13.6865 1.94524 13.9999 2.33184 13.9999H12.1318C12.5184 13.9999 12.8318 13.6865 12.8318 13.2999V4.81169C12.6081 4.86928 12.3735 4.8999 12.1318 4.8999C12.0133 4.8999 11.8965 4.89254 11.7818 4.87824V12.9499H2.68184V2.4499H9.3535C9.3392 2.33524 9.33184 2.21843 9.33184 2.0999C9.33184 1.85819 9.36246 1.62364 9.42005 1.3999Z" fill=""/>
<ellipse cx="12.1322" cy="2.1" rx="2.1" ry="2.1" fill=""/>
</g>
<defs>
<clipPath id="clip0">
<rect width="14" height="14" fill="white" transform="translate(0.231445)"/>
</clipPath>
</defs>
</svg>
