<svg width="12" height="12" viewBox="0 0 12 12" fill="none" xmlns="http://www.w3.org/2000/svg">
<g clip-path="url(#clip0)">
<path d="M3.5849 0.141055C3.3869 -0.0509443 3.0689 -0.0449448 2.8769 0.153055C2.6849 0.351055 2.6909 0.669056 2.8889 0.861055L8.0429 5.97306L2.9189 11.1511C2.7269 11.3491 2.7269 11.6611 2.9249 11.8591C3.1229 12.0511 3.4349 12.0511 3.6329 11.8531L9.0929 6.34506C9.0989 6.33906 9.1049 6.32706 9.1109 6.31506C9.1109 6.31506 9.1169 6.31506 9.1169 6.30906C9.3089 6.11106 9.3089 5.79906 9.1109 5.60106L3.6029 0.141055C3.5909 0.147056 3.5909 0.147056 3.5849 0.141055Z" fill="white"/>
</g>
<defs>
<clipPath id="clip0">
<path d="M12 0V12H0V0L12 0Z" fill="white"/>
</clipPath>
</defs>
</svg>
