<svg width="14" height="14" viewBox="0 0 14 14" fill="none" xmlns="http://www.w3.org/2000/svg">
<path d="M9.583 14H6.839V12.607C6.839 11.921 6.279 11.368 5.6 11.368C4.914 11.368 4.361 11.928 4.361 12.607V14H1.792C0.805 14 0 13.195 0 12.208V9.674H1.428C2.114 9.674 2.667 9.114 2.667 8.435C2.667 7.756 2.107 7.196 1.428 7.196H0V4.417C0 3.43 0.805 2.632 1.792 2.632H3.381V2.226C3.374 0.994 4.368 0 5.593 0C6.818 0 7.812 0.994 7.812 2.219V2.625H9.576C10.563 2.625 11.368 3.43 11.368 4.417V6.209H11.781C13.006 6.209 14 7.203 14 8.428C14 9.653 13.006 10.647 11.781 10.647H11.368V12.201C11.368 13.195 10.563 14 9.583 14ZM7.819 13.02H9.583C10.031 13.02 10.395 12.656 10.395 12.208V9.674H11.788C12.474 9.674 13.027 9.114 13.027 8.435C13.027 7.756 12.467 7.196 11.788 7.196H10.395V4.417C10.395 3.969 10.031 3.605 9.583 3.605H6.839V2.219C6.839 1.533 6.279 0.98 5.6 0.98C4.914 0.98 4.361 1.54 4.361 2.219V3.605H1.792C1.344 3.605 0.98 3.969 0.98 4.417V6.209H1.428C2.653 6.209 3.647 7.203 3.647 8.428C3.647 9.653 2.653 10.647 1.428 10.647H0.98V12.201C0.98 12.649 1.344 13.013 1.792 13.013H3.381V12.6C3.381 11.375 4.375 10.381 5.6 10.381C6.825 10.381 7.819 11.375 7.819 12.6V13.02Z"/>
</svg>
