<svg width="15" height="14" viewBox="0 0 15 14" fill="none" xmlns="http://www.w3.org/2000/svg">
<g clip-path="url(#clip0)">
<path d="M9.73318 7.80258C10.8615 7.0425 11.6036 5.75681 11.6036 4.29579C11.6036 1.92872 9.64431 0 7.23969 0C4.83502 0 2.90512 1.92872 2.90512 4.26643C2.90512 5.72745 3.64757 7.01351 4.77553 7.77318C2.22256 8.76699 0.441406 11.1652 0.441406 14H1.65857C1.65857 11.1946 3.82564 8.88364 6.58646 8.56222C6.61618 8.56222 7.35828 8.5039 7.98175 8.56222H8.04123C10.7429 8.94236 12.8208 11.2217 12.8208 13.9978H14.0677C14.038 11.1924 12.2568 8.76701 9.73318 7.80258ZM7.23969 7.48086C5.42875 7.48086 3.97439 6.04918 3.97439 4.26645C3.97439 2.48371 5.42875 1.05205 7.23969 1.05205C9.05062 1.05205 10.505 2.48371 10.505 4.26645C10.505 6.04918 9.05062 7.48086 7.23969 7.48086Z" fill=""/>
</g>
<defs>
<clipPath id="clip0">
<rect width="14" height="14" fill="white" transform="translate(0.231445)"/>
</clipPath>
</defs>
</svg>
