<svg width="20" height="20" viewBox="0 0 20 20" fill="none" xmlns="http://www.w3.org/2000/svg">
<rect width="20" height="20" rx="10" fill="white"/>
<path d="M6.87891 14V5.41016H10.1016C10.7578 5.41016 11.2832 5.49805 11.6777 5.67383C12.0762 5.8457 12.3867 6.11328 12.6094 6.47656C12.8359 6.83594 12.9492 7.21289 12.9492 7.60742C12.9492 7.97461 12.8496 8.32031 12.6504 8.64453C12.4512 8.96875 12.1504 9.23047 11.748 9.42969C12.2676 9.58203 12.666 9.8418 12.9434 10.209C13.2246 10.5762 13.3652 11.0098 13.3652 11.5098C13.3652 11.9121 13.2793 12.2871 13.1074 12.6348C12.9395 12.9785 12.7305 13.2441 12.4805 13.4316C12.2305 13.6191 11.916 13.7617 11.5371 13.8594C11.1621 13.9531 10.7012 14 10.1543 14H6.87891ZM8.01562 9.01953H9.87305C10.377 9.01953 10.7383 8.98633 10.957 8.91992C11.2461 8.83398 11.4629 8.69141 11.6074 8.49219C11.7559 8.29297 11.8301 8.04297 11.8301 7.74219C11.8301 7.45703 11.7617 7.20703 11.625 6.99219C11.4883 6.77344 11.293 6.625 11.0391 6.54688C10.7852 6.46484 10.3496 6.42383 9.73242 6.42383H8.01562V9.01953ZM8.01562 12.9863H10.1543C10.5215 12.9863 10.7793 12.9727 10.9277 12.9453C11.1895 12.8984 11.4082 12.8203 11.584 12.7109C11.7598 12.6016 11.9043 12.4434 12.0176 12.2363C12.1309 12.0254 12.1875 11.7832 12.1875 11.5098C12.1875 11.1895 12.1055 10.9121 11.9414 10.6777C11.7773 10.4395 11.5488 10.2734 11.2559 10.1797C10.9668 10.082 10.5488 10.0332 10.002 10.0332H8.01562V12.9863Z" fill="#0FCCAA"/>
</svg>
