<svg width="98" height="20" viewBox="0 0 98 20" fill="none" xmlns="http://www.w3.org/2000/svg" preserveAspectRatio="none meet">
<path d="M0 0H88C93.5229 0 98 4.47715 98 10C98 15.5228 93.5229 20 88 20H0V0Z" fill="#0FCCAA"/>
<path d="M80.8789 14V5.41016H84.1016C84.7578 5.41016 85.2832 5.49805 85.6777 5.67383C86.0762 5.8457 86.3867 6.11328 86.6094 6.47656C86.8359 6.83594 86.9492 7.21289 86.9492 7.60742C86.9492 7.97461 86.8496 8.32031 86.6504 8.64453C86.4512 8.96875 86.1504 9.23047 85.748 9.42969C86.2676 9.58203 86.666 9.8418 86.9434 10.209C87.2246 10.5762 87.3652 11.0098 87.3652 11.5098C87.3652 11.9121 87.2793 12.2871 87.1074 12.6348C86.9395 12.9785 86.7305 13.2441 86.4805 13.4316C86.2305 13.6191 85.916 13.7617 85.5371 13.8594C85.1621 13.9531 84.7012 14 84.1543 14H80.8789ZM82.0156 9.01953H83.873C84.377 9.01953 84.7383 8.98633 84.957 8.91992C85.2461 8.83398 85.4629 8.69141 85.6074 8.49219C85.7559 8.29297 85.8301 8.04297 85.8301 7.74219C85.8301 7.45703 85.7617 7.20703 85.625 6.99219C85.4883 6.77344 85.293 6.625 85.0391 6.54688C84.7852 6.46484 84.3496 6.42383 83.7324 6.42383H82.0156V9.01953ZM82.0156 12.9863H84.1543C84.5215 12.9863 84.7793 12.9727 84.9277 12.9453C85.1895 12.8984 85.4082 12.8203 85.584 12.7109C85.7598 12.6016 85.9043 12.4434 86.0176 12.2363C86.1309 12.0254 86.1875 11.7832 86.1875 11.5098C86.1875 11.1895 86.1055 10.9121 85.9414 10.6777C85.7773 10.4395 85.5488 10.2734 85.2559 10.1797C84.9668 10.082 84.5488 10.0332 84.002 10.0332H82.0156V12.9863Z" fill="white"/>
</svg>
