<svg width="20" height="20" viewBox="0 0 20 20" fill="none" xmlns="http://www.w3.org/2000/svg">
<g clip-path="url(#clip0)">
<path fill-rule="evenodd" clip-rule="evenodd" d="M13.1199 0.281292L12.12 1.73232C13.7097 2.47248 14.8248 3.87663 14.9673 5.51904H4.14031C4.28287 3.87858 5.39799 2.47443 6.98767 1.73427L5.98778 0.283245C5.92919 0.195363 5.94286 0.0820934 6.02098 0.0293644C6.09909 -0.0253176 6.21041 0.0020234 6.269 0.0879522L7.30795 1.59561C7.99148 1.32611 8.75312 1.17573 9.55382 1.17573C10.3545 1.17573 11.1162 1.32611 11.7997 1.59561L12.8386 0.0859993C12.8972 7.04891e-05 13.0085 -0.0253176 13.0867 0.0274115C13.1648 0.0820934 13.1785 0.195363 13.1199 0.281292ZM1 7.50329C1 6.81977 1.54487 6.26709 2.21667 6.26709C2.88848 6.26709 3.43335 6.81977 3.43335 7.50329V12.3329C3.43335 13.0164 2.88848 13.5691 2.21667 13.5691C1.54487 13.5691 1 13.0145 1 12.3329V7.50329ZM15.6743 7.50329C15.6743 6.81977 16.2192 6.26709 16.891 6.26709C17.5647 6.26709 18.1076 6.81977 18.1076 7.50329V12.3329C18.1076 13.0164 17.5628 13.5691 16.891 13.5691C16.2192 13.5691 15.6743 13.0145 15.6743 12.3329V7.50329ZM4.16569 6.30452V15.1279C4.16569 15.6512 4.59143 16.077 5.11482 16.077H6.19869V18.7642C6.19869 19.4458 6.74356 20.0004 7.41537 20.0004C8.08717 20.0004 8.63204 19.4477 8.63204 18.7642V16.075H10.5264V18.7622C10.5264 19.4438 11.0712 19.9985 11.7431 19.9985C12.4149 19.9985 12.9597 19.4458 12.9597 18.7622V16.075H14.0436C14.567 16.075 14.9927 15.6493 14.9927 15.1259V6.30452H4.16569ZM7.27085 4.02136C6.9408 4.02136 6.6713 3.75381 6.6713 3.42181C6.6713 3.09177 6.93885 2.82227 7.27085 2.82227C7.60089 2.82227 7.8704 3.08982 7.8704 3.42181C7.86845 3.75186 7.60089 4.02136 7.27085 4.02136ZM11.3134 3.42181C11.3134 3.75381 11.5829 4.02136 11.913 4.02136C12.243 4.02136 12.5106 3.75186 12.5125 3.42181C12.5125 3.08982 12.243 2.82227 11.913 2.82227C11.581 2.82227 11.3134 3.09177 11.3134 3.42181Z" fill="#00CF08"/>
</g>
<defs>
<clipPath id="clip0">
<path d="M0 0H20V20.0004H0V0Z" fill="white"/>
</clipPath>
</defs>
</svg>
