<svg width="17" height="10" viewBox="0 0 17 10" fill="none" xmlns="http://www.w3.org/2000/svg">
<path d="M16.316 1.784C16.572 1.52 16.564 1.096 16.3 0.839997C16.036 0.583997 15.612 0.591997 15.356 0.855997L8.53999 7.728L1.63599 0.895997C1.37199 0.639997 0.955988 0.639997 0.691988 0.903997C0.435988 1.168 0.435988 1.584 0.699988 1.848L8.04399 9.128C8.05199 9.136 8.06799 9.144 8.08399 9.152C8.08399 9.152 8.08399 9.16 8.09199 9.16C8.35599 9.416 8.77199 9.416 9.03599 9.152L16.316 1.808C16.308 1.792 16.308 1.792 16.316 1.784Z" fill="#BDBDBD"/>
</svg>
