<svg width="17" height="20" viewBox="0 0 17 20" fill="none" xmlns="http://www.w3.org/2000/svg">
<path fill-rule="evenodd" clip-rule="evenodd" d="M9.1763 1.51387C9.89905 0.67001 11.116 0.041021 12.122 0C12.2509 1.17203 11.7802 2.34797 11.0828 3.19183C10.3835 4.03764 9.30522 4.69593 8.18203 4.60803C8.02966 3.45944 8.52973 2.26397 9.1763 1.51387ZM12.1025 4.83669C12.7549 4.86404 14.5852 5.1004 15.7592 6.81937C15.7564 6.82121 15.7517 6.8241 15.7453 6.82805C15.5408 6.9547 13.5761 8.17157 13.6007 10.6265C13.6276 13.5973 16.1588 14.6211 16.2804 14.6702C16.2827 14.6711 16.2841 14.6717 16.2847 14.672C16.2835 14.6756 16.2813 14.6826 16.2781 14.6928C16.2191 14.8819 15.8153 16.1779 14.8997 17.5161C14.0656 18.735 13.2022 19.9481 11.8388 19.9734C11.1839 19.9859 10.7465 19.7963 10.2916 19.5992C9.81566 19.3929 9.32063 19.1784 8.53754 19.1784C7.71781 19.1784 7.19939 19.3995 6.6999 19.6125C6.26741 19.7969 5.84912 19.9753 5.26172 19.9988C3.94709 20.0477 2.94501 18.6823 2.10505 17.4673C0.386077 14.9845 -0.926595 10.4507 0.837309 7.38976C1.71242 5.86808 3.27708 4.90701 4.97457 4.88162C5.70632 4.86833 6.41485 5.14992 7.03511 5.39642C7.50931 5.58488 7.93191 5.75283 8.27384 5.75283C8.58028 5.75283 8.99128 5.59083 9.47059 5.40191C10.2256 5.10431 11.1502 4.73991 12.1025 4.83669Z" fill="#999999"/>
</svg>
