<svg width="16" height="16" viewBox="0 0 16 16" fill="none" xmlns="http://www.w3.org/2000/svg">
<path d="M7.30598 9.10869C7.69112 9.47977 8.31299 9.47977 8.69343 9.10869L15.7111 2.40971C16.0963 2.03862 16.0963 1.44489 15.7111 1.07459C15.3268 0.708209 14.7041 0.708209 14.319 1.07459L7.99971 7.11343L1.6804 1.07459C1.29526 0.708209 0.672632 0.708209 0.288271 1.07459C-0.0960902 1.44489 -0.0960902 2.03862 0.288271 2.40971L7.30598 9.10869ZM14.319 6.89L7.99971 12.9242L1.6804 6.89002C1.29526 6.51972 0.672632 6.51972 0.288271 6.89002C-0.0960902 7.25562 -0.0960902 7.85483 0.288271 8.22043L7.30598 14.9249C7.68644 15.2905 8.31299 15.2905 8.69343 14.9249L15.7111 8.22043C16.0963 7.85483 16.0963 7.25562 15.7111 6.89002C15.3268 6.51972 14.7042 6.51972 14.319 6.89Z" fill="#BDBDBD"/>
</svg>
