<svg width="16" height="16" viewBox="0 0 16 16" fill="none" xmlns="http://www.w3.org/2000/svg">
<path d="M8.69402 6.89033C8.30888 6.51925 7.68701 6.51925 7.30657 6.89033L0.288877 13.5893C-0.0962639 13.9604 -0.0962639 14.5541 0.288877 14.9244C0.673237 15.2908 1.29587 15.2908 1.68099 14.9244L8.00029 8.88559L14.3196 14.9244C14.7047 15.2908 15.3274 15.2908 15.7117 14.9244C16.0961 14.5541 16.0961 13.9604 15.7117 13.5893L8.69402 6.89033ZM1.68097 9.10902L8.00029 3.07484L14.3196 9.109C14.7047 9.4793 15.3274 9.4793 15.7117 9.109C16.0961 8.7434 16.0961 8.14419 15.7117 7.77859L8.69402 1.07414C8.31356 0.708541 7.68701 0.708541 7.30657 1.07414L0.288856 7.77859C-0.0962849 8.14419 -0.0962849 8.7434 0.288856 9.109C0.673217 9.4793 1.29583 9.4793 1.68097 9.10902Z" fill="#BDBDBD"/>
</svg>
