<?xml version="1.0" encoding="utf-8"?>
<!-- Generator: Adobe Illustrator 22.1.0, SVG Export Plug-In . SVG Version: 6.00 Build 0)  -->
<svg version="1.1" id="Layer_1" xmlns="http://www.w3.org/2000/svg" xmlns:xlink="http://www.w3.org/1999/xlink" x="0px" y="0px"
	 viewBox="0 0 92.3 19.3" style="enable-background:new 0 0 92.3 19.3;" xml:space="preserve">
<style type="text/css">
	.st0{fill:#3E3A39;}
	.st1{fill:url(#SVGID_1_);}
	.st2{fill:url(#SVGID_2_);}
	.st3{fill:url(#SVGID_3_);}
	.st4{fill:url(#SVGID_4_);}
	.st5{fill:url(#SVGID_5_);}
	.st6{fill:url(#SVGID_6_);}
	.st7{fill:url(#SVGID_7_);}
	.st8{fill:url(#SVGID_8_);}
</style>
<path class="st0" d="M32.6,11.2v7.8h2.2v-8.7h4.1c0,0,0,0,0,0V8.5c0,0,0,0,0,0H28.6v1.7h3.1C31.6,10.2,32.6,10.2,32.6,11.2z"/>
<path class="st0" d="M16.1,10v8.8H23c2.6,0,4.8-2.3,4.8-5.2c0-2.8-2.1-5.2-4.8-5.2H18C16.1,8.5,16.1,10,16.1,10z M22.8,17.1h-4.6
	v-6.9h4.6c1.7,0,3.1,1.6,3.1,3.5C25.9,15.6,24.5,17.1,22.8,17.1z"/>
<polygon class="st0" points="45.3,18.9 47.2,18.9 47.2,12.9 45.3,11 "/>
<polygon class="st0" points="56.3,18.9 58.3,18.9 58.3,10.9 56.3,12.5 "/>
<path class="st0" d="M74.9,15.8L67,8.6h-1.6v1.2v9.2h2.2v-6.4c0,0,0-0.3,0.1-0.3c0.2-0.1,0.4,0,0.4,0l4.4,4l2.8,2.6h2.4V8.6h-2.2v7
	c0,0,0,0.2-0.1,0.3C75.2,16.1,74.9,15.8,74.9,15.8z"/>
<path class="st0" d="M89.8,10.9v0.5h2v-0.9c0-2-2-1.9-2-1.9h-8.2c-2.1,0-2,1.8-2,1.8v6.8c0,0-0.1,1.6,2,1.6h10.2l0-4.3
	c0-1.9-2.1-1.7-2.1-1.7h-6.1l0.8,1.9h5.3l0,1.7c0,0,0,0.7-0.8,0.7h-7.5v-6.7h7.7C89.3,10.4,89.8,10.4,89.8,10.9z"/>
<rect x="61.2" y="8.6" class="st0" width="2" height="10.3"/>
<rect x="40.6" y="8.6" class="st0" width="2" height="10.3"/>
<path class="st0" d="M12.4,8.5H5.8c-2.2,0-2.6,1.6-2.6,1.6l-2.7,8.7h2.1l2.7-8.6H12V13H6l0.7,1.9h4c0,0,1.3-0.1,1.3,1.1v2.7h2.2
	v-8.5C14.2,8.3,12.4,8.5,12.4,8.5z"/>
<linearGradient id="SVGID_1_" gradientUnits="userSpaceOnUse" x1="47.4074" y1="9.381" x2="43.0478" y2="13.4984">
	<stop  offset="1.195790e-02" style="stop-color:#460000"/>
	<stop  offset="0.2571" style="stop-color:#860000"/>
	<stop  offset="0.8423" style="stop-color:#E50034"/>
</linearGradient>
<polygon class="st1" points="46.1,7.5 44.6,9 44.5,10.2 45.3,9.7 47.8,12.2 46.1,7.5 "/>
<linearGradient id="SVGID_2_" gradientUnits="userSpaceOnUse" x1="45.1823" y1="7.3033" x2="50.6852" y2="12.6394">
	<stop  offset="1.195790e-02" style="stop-color:#460000"/>
	<stop  offset="0.2571" style="stop-color:#860000"/>
	<stop  offset="0.8423" style="stop-color:#E50034"/>
</linearGradient>
<polygon class="st2" points="51.5,11 46.1,7.5 47.8,12.2 47.8,12.2 "/>
<linearGradient id="SVGID_3_" gradientUnits="userSpaceOnUse" x1="49.3334" y1="13.9018" x2="60.8773" y2="7.4885">
	<stop  offset="1.195790e-02" style="stop-color:#460000"/>
	<stop  offset="0.2571" style="stop-color:#860000"/>
	<stop  offset="0.8423" style="stop-color:#E50034"/>
</linearGradient>
<polygon class="st3" points="51.4,11 54.6,13 60,5.9 "/>
<linearGradient id="SVGID_4_" gradientUnits="userSpaceOnUse" x1="50.3154" y1="13.3738" x2="64.074" y2="5.7301">
	<stop  offset="1.195790e-02" style="stop-color:#460000"/>
	<stop  offset="0.2571" style="stop-color:#860000"/>
	<stop  offset="0.8423" style="stop-color:#E50034"/>
</linearGradient>
<polygon class="st4" points="54.6,13 54.6,13.1 63.8,5.2 60,5.9 "/>
<linearGradient id="SVGID_5_" gradientUnits="userSpaceOnUse" x1="57.2213" y1="8.0122" x2="69.555" y2="1.1601">
	<stop  offset="1.195790e-02" style="stop-color:#460000"/>
	<stop  offset="0.2571" style="stop-color:#860000"/>
	<stop  offset="0.8423" style="stop-color:#E50034"/>
</linearGradient>
<polygon class="st5" points="69.2,0.5 60,5.9 60,5.9 63.8,5.2 69.2,0.6 "/>
<linearGradient id="SVGID_6_" gradientUnits="userSpaceOnUse" x1="49.2924" y1="14.1641" x2="53.4846" y2="11.8351">
	<stop  offset="1.195790e-02" style="stop-color:#460000"/>
	<stop  offset="0.2571" style="stop-color:#860000"/>
	<stop  offset="0.8423" style="stop-color:#E50034"/>
</linearGradient>
<polygon class="st6" points="54.5,13.1 54.6,13 51.4,11 51.4,11 51.4,11 47.8,12.2 51.4,15.8 54.6,13.1 54.6,13 "/>
<linearGradient id="SVGID_7_" gradientUnits="userSpaceOnUse" x1="51.3992" y1="5.7431" x2="69.219" y2="5.7431">
	<stop  offset="1.195790e-02" style="stop-color:#460000"/>
	<stop  offset="0.2571" style="stop-color:#860000"/>
	<stop  offset="0.8423" style="stop-color:#E50034"/>
</linearGradient>
<polygon class="st7" points="51.4,11 51.4,9.9 69.2,0.5 "/>
<linearGradient id="SVGID_8_" gradientUnits="userSpaceOnUse" x1="52.8972" y1="12.1191" x2="45.6774" y2="6.1237">
	<stop  offset="1.195790e-02" style="stop-color:#460000"/>
	<stop  offset="0.2571" style="stop-color:#860000"/>
	<stop  offset="0.8423" style="stop-color:#E50034"/>
</linearGradient>
<polygon class="st8" points="51.4,9.9 46.7,7.4 46.1,7.5 51.4,11 "/>
</svg>
