<svg width="257" height="65" viewBox="0 0 257 65" fill="none" xmlns="http://www.w3.org/2000/svg">
<g clip-path="url(#clip0)">
<path d="M54.1727 20.4912C51.6714 21 49.8737 23.2197 48.8331 25.8159C50.5321 25.1355 52.3427 24.7767 54.1727 24.7578C56.0027 24.7767 57.8133 25.1355 59.5124 25.8159C62.1076 26.857 64.3264 28.6554 64.835 31.1577C64.835 28.3288 63.7116 25.6157 61.7121 23.6154C59.7125 21.615 57.0005 20.4912 54.1727 20.4912V20.4912Z" fill="url(#paint0_linear)"/>
<path d="M43.502 31.1577C44.0105 33.6601 46.2294 35.4585 48.8245 36.4995C48.1444 34.7998 47.7857 32.9885 47.7669 31.1577C47.7857 29.327 48.1444 27.5156 48.8245 25.8159C49.8652 23.2197 51.6628 21 54.1642 20.4912C51.3364 20.4912 48.6244 21.615 46.6249 23.6154C44.6253 25.6157 43.502 28.3288 43.502 31.1577V31.1577Z" fill="url(#paint1_linear)"/>
<path d="M59.5039 25.8164C60.1841 27.5161 60.5427 29.3274 60.5616 31.1582C60.5427 32.989 60.1841 34.8003 59.5039 36.5C58.4633 39.0962 56.6656 41.3159 54.1642 41.8247C56.9921 41.8247 59.704 40.7009 61.7036 38.7006C63.7032 36.7002 64.8265 33.9871 64.8265 31.1582C64.3179 28.6558 62.0991 26.8575 59.5039 25.8164Z" fill="url(#paint2_linear)"/>
<path d="M54.1642 37.5576C52.3342 37.5388 50.5236 37.18 48.8245 36.4995C46.2294 35.4585 44.0105 33.6601 43.502 31.1577C43.502 33.9866 44.6253 36.6997 46.6249 38.7001C48.6244 40.7004 51.3364 41.8242 54.1642 41.8242C56.6656 41.3154 58.4632 39.0957 59.5039 36.4995C57.8048 37.18 55.9942 37.5388 54.1642 37.5576V37.5576Z" fill="url(#paint3_linear)"/>
<path d="M48.8203 36.491L52.7312 32.5918" stroke="url(#paint4_linear)" stroke-width="0.2" stroke-miterlimit="10"/>
<path d="M59.5104 36.4997L55.6268 32.6196" stroke="url(#paint5_linear)" stroke-width="0.2" stroke-miterlimit="10"/>
<path d="M59.5315 25.8247L55.5851 29.7378" stroke="url(#paint6_linear)" stroke-width="0.2" stroke-miterlimit="10"/>
<path d="M52.7312 29.7258L48.8052 25.8247" stroke="url(#paint7_linear)" stroke-width="0.2" stroke-miterlimit="10"/>
<path d="M52.6848 32.6413C52.495 32.1694 52.3944 31.6664 52.3881 31.1578C52.3944 30.6491 52.495 30.1461 52.6848 29.6742C53.1567 29.4843 53.6597 29.3837 54.1684 29.3774C54.677 29.3837 55.18 29.4843 55.652 29.6742C55.8418 30.1461 55.9424 30.6491 55.9487 31.1578C55.9424 31.6664 55.8418 32.1694 55.652 32.6413C55.18 32.8312 54.677 32.9318 54.1684 32.9381C53.6597 32.9318 53.1567 32.8312 52.6848 32.6413V32.6413Z" fill="#1A7DF1"/>
</g>
<path d="M69.7278 28.3178C70.1532 27.7604 70.7325 27.2911 71.4658 26.9098C72.1992 26.5284 73.0278 26.3378 73.9518 26.3378C75.0078 26.3378 75.9685 26.6018 76.8338 27.1298C77.7138 27.6431 78.4032 28.3691 78.9018 29.3078C79.4005 30.2464 79.6498 31.3244 79.6498 32.5418C79.6498 33.7591 79.4005 34.8518 78.9018 35.8198C78.4032 36.7731 77.7138 37.5211 76.8338 38.0638C75.9685 38.5918 75.0078 38.8558 73.9518 38.8558C73.0278 38.8558 72.2065 38.6724 71.4878 38.3058C70.7692 37.9244 70.1825 37.4551 69.7278 36.8978V44.4218H67.2198V26.5358H69.7278V28.3178ZM77.0978 32.5418C77.0978 31.7058 76.9218 30.9871 76.5698 30.3858C76.2325 29.7698 75.7778 29.3078 75.2058 28.9998C74.6485 28.6771 74.0472 28.5158 73.4018 28.5158C72.7712 28.5158 72.1698 28.6771 71.5978 28.9998C71.0405 29.3224 70.5858 29.7918 70.2338 30.4078C69.8965 31.0238 69.7278 31.7498 69.7278 32.5858C69.7278 33.4218 69.8965 34.1551 70.2338 34.7858C70.5858 35.4018 71.0405 35.8711 71.5978 36.1938C72.1698 36.5164 72.7712 36.6778 73.4018 36.6778C74.0472 36.6778 74.6485 36.5164 75.2058 36.1938C75.7778 35.8564 76.2325 35.3724 76.5698 34.7418C76.9218 34.1111 77.0978 33.3778 77.0978 32.5418Z" fill="#1A7DF1"/>
<path d="M92.8 32.2998C92.8 32.7544 92.7707 33.1651 92.712 33.5318H83.45C83.5233 34.4998 83.8827 35.2771 84.528 35.8638C85.1733 36.4504 85.9653 36.7438 86.904 36.7438C88.2533 36.7438 89.2067 36.1791 89.764 35.0498H92.47C92.1033 36.1644 91.436 37.0811 90.468 37.7998C89.5147 38.5038 88.3267 38.8558 86.904 38.8558C85.7453 38.8558 84.704 38.5991 83.78 38.0858C82.8707 37.5578 82.152 36.8244 81.624 35.8858C81.1107 34.9324 80.854 33.8324 80.854 32.5858C80.854 31.3391 81.1033 30.2464 81.602 29.3078C82.1153 28.3544 82.8267 27.6211 83.736 27.1078C84.66 26.5944 85.716 26.3378 86.904 26.3378C88.048 26.3378 89.0673 26.5871 89.962 27.0858C90.8567 27.5844 91.5533 28.2884 92.052 29.1978C92.5507 30.0924 92.8 31.1264 92.8 32.2998ZM90.182 31.5078C90.1673 30.5838 89.8373 29.8431 89.192 29.2858C88.5467 28.7284 87.7473 28.4498 86.794 28.4498C85.9287 28.4498 85.188 28.7284 84.572 29.2858C83.956 29.8284 83.5893 30.5691 83.472 31.5078H90.182Z" fill="#1A7DF1"/>
<path d="M100.944 26.3378C101.897 26.3378 102.748 26.5358 103.496 26.9318C104.259 27.3278 104.853 27.9144 105.278 28.6918C105.703 29.4691 105.916 30.4078 105.916 31.5078V38.6578H103.43V31.8818C103.43 30.7964 103.159 29.9678 102.616 29.3958C102.073 28.8091 101.333 28.5158 100.394 28.5158C99.4555 28.5158 98.7075 28.8091 98.1501 29.3958C97.6075 29.9678 97.3361 30.7964 97.3361 31.8818V38.6578H94.8281V26.5358H97.3361V27.9218C97.7468 27.4231 98.2675 27.0344 98.8981 26.7558C99.5435 26.4771 100.225 26.3378 100.944 26.3378Z" fill="#1A7DF1"/>
<path d="M124.779 23.3678V38.6578H122.271V28.1858L117.607 38.6578H115.869L111.183 28.1858V38.6578H108.675V23.3678H111.381L116.749 35.3578L122.095 23.3678H124.779Z" fill="#1A7DF1"/>
<path d="M138.746 32.2998C138.746 32.7544 138.716 33.1651 138.658 33.5318H129.396C129.469 34.4998 129.828 35.2771 130.474 35.8638C131.119 36.4504 131.911 36.7438 132.85 36.7438C134.199 36.7438 135.152 36.1791 135.71 35.0498H138.416C138.049 36.1644 137.382 37.0811 136.414 37.7998C135.46 38.5038 134.272 38.8558 132.85 38.8558C131.691 38.8558 130.65 38.5991 129.726 38.0858C128.816 37.5578 128.098 36.8244 127.57 35.8858C127.056 34.9324 126.8 33.8324 126.8 32.5858C126.8 31.3391 127.049 30.2464 127.548 29.3078C128.061 28.3544 128.772 27.6211 129.682 27.1078C130.606 26.5944 131.662 26.3378 132.85 26.3378C133.994 26.3378 135.013 26.5871 135.908 27.0858C136.802 27.5844 137.499 28.2884 137.998 29.1978C138.496 30.0924 138.746 31.1264 138.746 32.2998ZM136.128 31.5078C136.113 30.5838 135.783 29.8431 135.138 29.2858C134.492 28.7284 133.693 28.4498 132.74 28.4498C131.874 28.4498 131.134 28.7284 130.518 29.2858C129.902 29.8284 129.535 30.5691 129.418 31.5078H136.128Z" fill="#1A7DF1"/>
<path d="M139.938 32.5418C139.938 31.3244 140.187 30.2464 140.686 29.3078C141.199 28.3691 141.888 27.6431 142.754 27.1298C143.634 26.6018 144.609 26.3378 145.68 26.3378C146.472 26.3378 147.249 26.5138 148.012 26.8658C148.789 27.2031 149.405 27.6578 149.86 28.2298V22.3778H152.39V38.6578H149.86V36.8318C149.449 37.4184 148.877 37.9024 148.144 38.2838C147.425 38.6651 146.596 38.8558 145.658 38.8558C144.602 38.8558 143.634 38.5918 142.754 38.0638C141.888 37.5211 141.199 36.7731 140.686 35.8198C140.187 34.8518 139.938 33.7591 139.938 32.5418ZM149.86 32.5858C149.86 31.7498 149.684 31.0238 149.332 30.4078C148.994 29.7918 148.547 29.3224 147.99 28.9998C147.432 28.6771 146.831 28.5158 146.186 28.5158C145.54 28.5158 144.939 28.6771 144.382 28.9998C143.824 29.3078 143.37 29.7698 143.018 30.3858C142.68 30.9871 142.512 31.7058 142.512 32.5418C142.512 33.3778 142.68 34.1111 143.018 34.7418C143.37 35.3724 143.824 35.8564 144.382 36.1938C144.954 36.5164 145.555 36.6778 146.186 36.6778C146.831 36.6778 147.432 36.5164 147.99 36.1938C148.547 35.8711 148.994 35.4018 149.332 34.7858C149.684 34.1551 149.86 33.4218 149.86 32.5858Z" fill="#1A7DF1"/>
<path d="M156.52 24.9298C156.065 24.9298 155.684 24.7758 155.376 24.4678C155.068 24.1598 154.914 23.7784 154.914 23.3238C154.914 22.8691 155.068 22.4878 155.376 22.1798C155.684 21.8718 156.065 21.7178 156.52 21.7178C156.96 21.7178 157.334 21.8718 157.642 22.1798C157.95 22.4878 158.104 22.8691 158.104 23.3238C158.104 23.7784 157.95 24.1598 157.642 24.4678C157.334 24.7758 156.96 24.9298 156.52 24.9298ZM157.752 26.5358V38.6578H155.244V26.5358H157.752Z" fill="#1A7DF1"/>
<path d="M159.769 32.5418C159.769 31.3244 160.018 30.2464 160.517 29.3078C161.03 28.3691 161.719 27.6431 162.585 27.1298C163.465 26.6018 164.433 26.3378 165.489 26.3378C166.442 26.3378 167.271 26.5284 167.975 26.9098C168.693 27.2764 169.265 27.7384 169.691 28.2958V26.5358H172.221V38.6578H169.691V36.8538C169.265 37.4258 168.686 37.9024 167.953 38.2838C167.219 38.6651 166.383 38.8558 165.445 38.8558C164.403 38.8558 163.45 38.5918 162.585 38.0638C161.719 37.5211 161.03 36.7731 160.517 35.8198C160.018 34.8518 159.769 33.7591 159.769 32.5418ZM169.691 32.5858C169.691 31.7498 169.515 31.0238 169.163 30.4078C168.825 29.7918 168.378 29.3224 167.821 28.9998C167.263 28.6771 166.662 28.5158 166.017 28.5158C165.371 28.5158 164.77 28.6771 164.213 28.9998C163.655 29.3078 163.201 29.7698 162.849 30.3858C162.511 30.9871 162.343 31.7058 162.343 32.5418C162.343 33.3778 162.511 34.1111 162.849 34.7418C163.201 35.3724 163.655 35.8564 164.213 36.1938C164.785 36.5164 165.386 36.6778 166.017 36.6778C166.662 36.6778 167.263 36.5164 167.821 36.1938C168.378 35.8711 168.825 35.4018 169.163 34.7858C169.515 34.1551 169.691 33.4218 169.691 32.5858Z" fill="#1A7DF1"/>
<path d="M178.001 28.5818V35.2918C178.001 35.7464 178.104 36.0764 178.309 36.2818C178.529 36.4724 178.896 36.5678 179.409 36.5678H180.949V38.6578H178.969C177.84 38.6578 176.974 38.3938 176.373 37.8658C175.772 37.3378 175.471 36.4798 175.471 35.2918V28.5818H174.041V26.5358H175.471V23.5218H178.001V26.5358H180.949V28.5818H178.001Z" fill="#1A7DF1"/>
<path d="M184.096 24.9298C183.642 24.9298 183.26 24.7758 182.952 24.4678C182.644 24.1598 182.49 23.7784 182.49 23.3238C182.49 22.8691 182.644 22.4878 182.952 22.1798C183.26 21.8718 183.642 21.7178 184.096 21.7178C184.536 21.7178 184.91 21.8718 185.218 22.1798C185.526 22.4878 185.68 22.8691 185.68 23.3238C185.68 23.7784 185.526 24.1598 185.218 24.4678C184.91 24.7758 184.536 24.9298 184.096 24.9298ZM185.328 26.5358V38.6578H182.82V26.5358H185.328Z" fill="#1A7DF1"/>
<path d="M193.439 38.8558C192.295 38.8558 191.261 38.5991 190.337 38.0858C189.413 37.5578 188.687 36.8244 188.159 35.8858C187.631 34.9324 187.367 33.8324 187.367 32.5858C187.367 31.3538 187.639 30.2611 188.181 29.3078C188.724 28.3544 189.465 27.6211 190.403 27.1078C191.342 26.5944 192.391 26.3378 193.549 26.3378C194.708 26.3378 195.757 26.5944 196.695 27.1078C197.634 27.6211 198.375 28.3544 198.917 29.3078C199.46 30.2611 199.731 31.3538 199.731 32.5858C199.731 33.8178 199.453 34.9104 198.895 35.8638C198.338 36.8171 197.575 37.5578 196.607 38.0858C195.654 38.5991 194.598 38.8558 193.439 38.8558ZM193.439 36.6778C194.085 36.6778 194.686 36.5238 195.243 36.2158C195.815 35.9078 196.277 35.4458 196.629 34.8298C196.981 34.2138 197.157 33.4658 197.157 32.5858C197.157 31.7058 196.989 30.9651 196.651 30.3638C196.314 29.7478 195.867 29.2858 195.309 28.9778C194.752 28.6698 194.151 28.5158 193.505 28.5158C192.86 28.5158 192.259 28.6698 191.701 28.9778C191.159 29.2858 190.726 29.7478 190.403 30.3638C190.081 30.9651 189.919 31.7058 189.919 32.5858C189.919 33.8911 190.249 34.9031 190.909 35.6218C191.584 36.3258 192.427 36.6778 193.439 36.6778Z" fill="#1A7DF1"/>
<path d="M207.886 26.3378C208.84 26.3378 209.69 26.5358 210.438 26.9318C211.201 27.3278 211.795 27.9144 212.22 28.6918C212.646 29.4691 212.858 30.4078 212.858 31.5078V38.6578H210.372V31.8818C210.372 30.7964 210.101 29.9678 209.558 29.3958C209.016 28.8091 208.275 28.5158 207.336 28.5158C206.398 28.5158 205.65 28.8091 205.092 29.3958C204.55 29.9678 204.278 30.7964 204.278 31.8818V38.6578H201.77V26.5358H204.278V27.9218C204.689 27.4231 205.21 27.0344 205.84 26.7558C206.486 26.4771 207.168 26.3378 207.886 26.3378Z" fill="#1A7DF1"/>
<defs>
<linearGradient id="paint0_linear" x1="64.8264" y1="31.1577" x2="43.4486" y2="31.1577" gradientUnits="userSpaceOnUse">
<stop offset="0.498526" stop-color="#1A7DF1"/>
<stop offset="1" stop-color="#1A7DF1" stop-opacity="0"/>
</linearGradient>
<linearGradient id="paint1_linear" x1="54.1642" y1="20.4912" x2="54.1642" y2="41.9842" gradientUnits="userSpaceOnUse">
<stop offset="0.496278" stop-color="#1A7DF1"/>
<stop offset="1" stop-color="#1A7DF1" stop-opacity="0"/>
</linearGradient>
<linearGradient id="paint2_linear" x1="54.1642" y1="20.545" x2="54.1642" y2="41.8247" gradientUnits="userSpaceOnUse">
<stop stop-color="#1A7DF1" stop-opacity="0"/>
<stop offset="0.498737" stop-color="#1A7DF1"/>
</linearGradient>
<linearGradient id="paint3_linear" x1="43.502" y1="31.1577" x2="64.8265" y2="31.1577" gradientUnits="userSpaceOnUse">
<stop offset="0.500013" stop-color="#1A7DF1"/>
<stop offset="1" stop-color="#1A7DF1" stop-opacity="0"/>
</linearGradient>
<linearGradient id="paint4_linear" x1="50.7757" y1="32.5918" x2="50.7757" y2="36.491" gradientUnits="userSpaceOnUse">
<stop stop-color="#1A7DF1"/>
<stop offset="1" stop-color="#1A7DF1" stop-opacity="0"/>
</linearGradient>
<linearGradient id="paint5_linear" x1="57.5686" y1="32.6196" x2="57.5686" y2="36.4997" gradientUnits="userSpaceOnUse">
<stop stop-color="#1A7DF1"/>
<stop offset="1" stop-color="#1A7DF1" stop-opacity="0"/>
</linearGradient>
<linearGradient id="paint6_linear" x1="57.5583" y1="25.8247" x2="57.5583" y2="29.7378" gradientUnits="userSpaceOnUse">
<stop stop-color="#1A7DF1" stop-opacity="0"/>
<stop offset="1" stop-color="#1A7DF1"/>
</linearGradient>
<linearGradient id="paint7_linear" x1="50.7682" y1="25.8247" x2="50.7682" y2="29.7258" gradientUnits="userSpaceOnUse">
<stop stop-color="#1A7DF1" stop-opacity="0"/>
<stop offset="1" stop-color="#1A7DF1"/>
</linearGradient>
<clipPath id="clip0">
<rect width="21.333" height="21.333" fill="white" transform="translate(43.502 20.4912)"/>
</clipPath>
</defs>
</svg>
