<svg width="160" height="160" viewBox="0 0 160 160" fill="none" xmlns="http://www.w3.org/2000/svg">
<rect width="160" height="160" rx="2" fill="white"/>
<circle cx="80" cy="80" r="80" fill="#F5F5F5"/>
<g opacity="0.5">
<path d="M61.2051 101.991V101.945C61.2041 101.939 61.2041 101.932 61.2051 101.926V101.907L61.1333 100.883C61.1354 100.913 61.1354 100.943 61.1333 100.973C61.1355 101.004 61.1355 101.034 61.1333 101.064C61.1333 101.094 61.1333 101.125 61.1185 101.155C61.1185 101.185 61.1037 101.214 61.0953 101.242C61.0862 101.273 61.0749 101.303 61.0615 101.332C61.0488 101.36 61.0361 101.389 61.0213 101.417V101.427C61.0066 101.455 60.9918 101.482 60.9749 101.51L60.9179 101.594L60.8587 101.668L60.8376 101.692L60.7869 101.749L60.7637 101.772C60.7404 101.795 60.7172 101.818 60.6919 101.839C60.6595 101.869 60.6257 101.896 60.5905 101.922L60.5525 101.951L60.468 102.01L60.4236 102.04L60.3307 102.097L60.2884 102.122C60.242 102.15 60.1934 102.175 60.1427 102.201L39.0216 112.565C38.954 112.596 38.8864 112.628 38.8104 112.655L38.785 112.666L38.5865 112.738H38.5611C38.4914 112.761 38.4196 112.782 38.3499 112.799H38.3394C38.2654 112.818 38.1894 112.833 38.1134 112.848L37.881 112.884C37.8029 112.884 37.7269 112.901 37.6487 112.905C37.5706 112.905 37.4924 112.905 37.4143 112.905C37.3361 112.905 37.258 112.905 37.1819 112.905C37.1059 112.905 37.0299 112.892 36.9559 112.884C36.8799 112.873 36.806 112.862 36.732 112.848C36.6602 112.835 36.5905 112.818 36.5208 112.799C36.4744 112.789 36.4279 112.774 36.3835 112.759L36.2484 112.713L36.1597 112.679L36.0329 112.622C36.0055 112.609 35.9801 112.598 35.9548 112.584C35.9294 112.569 35.8682 112.535 35.826 112.51L35.7647 112.474C35.7052 112.435 35.6481 112.393 35.5936 112.347L20.6525 99.9638C20.5876 99.9101 20.5275 99.8507 20.473 99.7864C20.4221 99.7279 20.3775 99.6641 20.3399 99.5963C20.3034 99.5376 20.273 99.4753 20.2491 99.4104C20.2281 99.3417 20.2146 99.2709 20.209 99.1992L20.2977 100.219C20.3032 100.291 20.3167 100.362 20.3378 100.431C20.36 100.499 20.389 100.565 20.4244 100.627C20.462 100.695 20.5066 100.759 20.5575 100.817C20.612 100.881 20.672 100.941 20.737 100.995L35.5809 113.435C35.6358 113.48 35.6929 113.522 35.752 113.562H35.7626L35.8133 113.591C35.8555 113.617 35.8978 113.642 35.9421 113.665L35.9654 113.678L36.0203 113.703C36.0625 113.722 36.1047 113.743 36.1491 113.76L36.185 113.777L36.2357 113.794L36.3012 113.819L36.3709 113.84L36.4216 113.857L36.4976 113.878H36.5187L36.5779 113.893L36.656 113.912L36.732 113.927L36.7996 113.94L36.8672 113.95H36.9348H36.9602H37.0045H37.0679H37.1312H37.1883H37.5684H37.6297H37.6909H37.7522H37.8134H37.8768H37.9085H37.9402H38.0014H38.069L38.1345 113.94H38.1493H38.1957L38.2612 113.925L38.3373 113.908H38.3753H38.4027L38.4788 113.887L38.5527 113.866L38.5886 113.853H38.6139L38.6604 113.838L38.7681 113.8L38.8125 113.783L38.8357 113.773L38.8716 113.758L38.9751 113.712H38.992H39.0089H39.0237H39.0406L60.1617 103.345C60.2103 103.32 60.2589 103.295 60.3053 103.267H60.318L60.3476 103.248C60.3798 103.231 60.4108 103.212 60.4405 103.191L60.4637 103.178L60.487 103.162L60.5694 103.102L60.5968 103.083L60.6137 103.071L60.6982 102.999C60.7189 102.982 60.7387 102.963 60.7573 102.944L60.77 102.931L60.7932 102.908L60.8186 102.881C60.8281 102.872 60.8366 102.862 60.8439 102.851C60.852 102.844 60.8592 102.837 60.8651 102.828L60.8756 102.815C60.8925 102.794 60.9094 102.775 60.9242 102.754L60.958 102.705L60.9812 102.669L61.0108 102.621L61.0256 102.591V102.581L61.0446 102.541C61.0446 102.528 61.0446 102.515 61.0615 102.505C61.0615 102.492 61.0615 102.477 61.0784 102.462C61.0824 102.449 61.0873 102.435 61.0932 102.422C61.0932 102.422 61.0932 102.403 61.0932 102.393C61.0977 102.38 61.1012 102.368 61.1037 102.355C61.1037 102.355 61.1037 102.342 61.1037 102.338C61.1037 102.338 61.1037 102.327 61.1037 102.323C61.1037 102.319 61.1037 102.298 61.1037 102.285C61.1037 102.272 61.1037 102.26 61.1037 102.247C61.1048 102.234 61.1048 102.222 61.1037 102.209C61.1048 102.196 61.1048 102.184 61.1037 102.171V102.15L61.2051 101.991Z" fill="#1269E1"/>
<path d="M61.0697 100.603C60.9856 100.39 60.8455 100.204 60.6641 100.064L45.6935 87.8141C45.4806 87.6472 45.2395 87.5199 44.9817 87.4381C44.6963 87.3462 44.4003 87.2915 44.1009 87.2755C43.7857 87.2584 43.4695 87.2782 43.1589 87.3346C42.8502 87.3896 42.5504 87.4862 42.2676 87.6219L21.269 97.8001C21.0166 97.9172 20.7871 98.0781 20.591 98.2754C20.4319 98.432 20.3143 98.6258 20.2488 98.8393C20.1917 99.0315 20.1961 99.2369 20.2615 99.4265C20.3418 99.6368 20.4766 99.822 20.6522 99.9629L35.5025 112.399C35.7161 112.573 35.9604 112.706 36.2227 112.79C36.5118 112.885 36.8122 112.942 37.1162 112.959C37.4364 112.977 37.7577 112.957 38.073 112.898C38.3876 112.841 38.6932 112.743 38.9812 112.604L60.1023 102.24C60.353 102.121 60.5805 101.959 60.774 101.76C60.9291 101.602 61.0417 101.406 61.1013 101.192C61.1533 100.997 61.1422 100.791 61.0697 100.603ZM45.7273 96.875H45.742H45.7273L45.6301 96.8476L45.7273 96.875ZM45.3471 90.5112H45.3175L45.2816 90.5218L45.3175 90.5112H45.3471ZM42.3796 91.4406L42.6584 90.4141L42.3796 91.4406C42.3679 91.4719 42.3679 91.5064 42.3796 91.5377C42.3911 91.5644 42.4084 91.5882 42.4302 91.6074C42.4084 91.5882 42.3911 91.5644 42.3796 91.5377C42.3663 91.5045 42.3663 91.4674 42.3796 91.4342V91.4406ZM42.8125 91.7046H42.7851C42.7591 91.7067 42.7329 91.7067 42.7069 91.7046C42.7329 91.7067 42.7591 91.7067 42.7851 91.7046H42.8125ZM42.7048 91.7046H42.671H42.7048ZM44.9014 96.7736C45.1098 96.7642 45.3186 96.7819 45.5224 96.8264C45.3186 96.7819 45.1098 96.7642 44.9014 96.7736L37.509 97.1369L44.9014 96.7736ZM43.0216 91.6475L43.0597 91.6243C43.0771 91.6134 43.0934 91.6006 43.1082 91.5863V91.5736V91.5863C43.0934 91.6006 43.0771 91.6134 43.0597 91.6243L43.0216 91.6475ZM44.988 90.5535H45.0873H44.988ZM40.6096 105.568C40.5042 105.526 40.4049 105.47 40.3139 105.402C40.4049 105.47 40.5042 105.526 40.6096 105.568ZM45.2203 90.055H45.2563H45.2203L43.5771 89.9621L45.2203 90.055ZM43.7102 88.7117L43.6764 88.6969H43.6532H43.6764L43.7102 88.7117ZM43.5285 88.6695H43.5581H43.5285C43.5032 88.6695 43.4757 88.6695 43.4504 88.6695H43.3765H43.4504C43.4821 88.6695 43.5032 88.6674 43.5285 88.6695ZM43.0935 88.8427C43.1034 88.8269 43.1147 88.812 43.1272 88.7983C43.1425 88.7845 43.1587 88.7718 43.1758 88.7603C43.1933 88.7466 43.2124 88.7352 43.2329 88.7265L43.2857 88.7054L43.2329 88.7265C43.2124 88.7352 43.1933 88.7466 43.1758 88.7603C43.1587 88.7718 43.1425 88.7845 43.1272 88.7983C43.1147 88.812 43.1034 88.8269 43.0935 88.8427C43.084 88.858 43.0762 88.8743 43.0702 88.8912L42.7914 89.9177L43.0702 88.8912C43.0766 88.8764 43.0844 88.8623 43.0935 88.849V88.8427ZM40.6899 90.0466C40.6947 90.0295 40.7018 90.0132 40.711 89.998C40.7217 89.9822 40.7337 89.9674 40.7469 89.9536C40.7617 89.9386 40.7779 89.9252 40.7955 89.9135C40.8134 89.9005 40.8325 89.8892 40.8525 89.8797C40.8734 89.8691 40.8954 89.8606 40.918 89.8544C40.942 89.8458 40.9667 89.8394 40.9919 89.8354C41.0179 89.8332 41.044 89.8332 41.07 89.8354C41.044 89.8332 41.0179 89.8332 40.9919 89.8354C40.9667 89.8394 40.942 89.8458 40.918 89.8544C40.8954 89.8606 40.8734 89.8691 40.8525 89.8797C40.8325 89.8892 40.8134 89.9005 40.7955 89.9135C40.7779 89.9252 40.7617 89.9386 40.7469 89.9536C40.7337 89.9674 40.7217 89.9822 40.711 89.998C40.7018 90.0132 40.6947 90.0295 40.6899 90.0466C40.6792 90.0781 40.6792 90.1122 40.6899 90.1437C40.7017 90.1766 40.723 90.2053 40.7511 90.2261C40.7838 90.2524 40.821 90.2724 40.8609 90.2852C40.8836 90.2935 40.9069 90.2999 40.9306 90.3042C40.9069 90.2999 40.8836 90.2935 40.8609 90.2852C40.821 90.2724 40.7838 90.2524 40.7511 90.2261C40.723 90.2053 40.7017 90.1766 40.6899 90.1437C40.6792 90.1122 40.6792 90.0781 40.6899 90.0466ZM32.4378 98.8625C32.3208 98.7717 32.2321 98.6493 32.1823 98.5098C32.1473 98.3922 32.154 98.2661 32.2013 98.1529C32.256 98.0259 32.3383 97.9126 32.4421 97.8213C32.5692 97.7108 32.7114 97.619 32.8645 97.5488C32.9333 97.5143 33.0038 97.4833 33.0757 97.4559C33.1391 97.4326 33.2066 97.4136 33.2721 97.3967C33.2066 97.4136 33.1391 97.4326 33.0757 97.4559C33.0038 97.4833 32.9333 97.5143 32.8645 97.5488C32.7114 97.619 32.5692 97.7108 32.4421 97.8213C32.3383 97.9126 32.256 98.0259 32.2013 98.1529C32.154 98.2661 32.1473 98.3922 32.1823 98.5098C32.2321 98.6493 32.3208 98.7717 32.4378 98.8625L37.5069 103.074L32.4378 98.8625ZM46.2321 99.0547L46.6862 98.2289C46.694 98.2145 46.7011 98.1997 46.7073 98.1845C46.7011 98.1997 46.694 98.2145 46.6862 98.2289L46.2321 99.0547Z" fill="#469DF6"/>
<path d="M40.7582 90.2258C40.7909 90.252 40.8281 90.2721 40.868 90.2849C40.9157 90.3016 40.9655 90.3116 41.0159 90.3145L42.6591 90.4074L42.3803 91.4339C42.3686 91.4652 42.3686 91.4997 42.3803 91.5311C42.3942 91.5634 42.416 91.5917 42.4437 91.6134C42.4767 91.6397 42.5138 91.6603 42.5535 91.6747C42.6015 91.6899 42.6511 91.6991 42.7013 91.7021C42.7281 91.7043 42.7549 91.7043 42.7816 91.7021H42.8597C42.8842 91.6981 42.9083 91.6917 42.9316 91.6831L42.9991 91.6557C43.0196 91.647 43.0387 91.6356 43.0562 91.6219C43.0736 91.6109 43.0899 91.5982 43.1048 91.5839C43.1179 91.5693 43.1299 91.5538 43.1407 91.5374C43.1498 91.5222 43.1569 91.5059 43.1618 91.4888L43.4406 90.4623L45.0838 90.5553H45.1725L45.2507 90.5447C45.2751 90.5406 45.2992 90.5342 45.3225 90.5257C45.3455 90.5185 45.368 90.5101 45.3901 90.5003L45.4471 90.4666C45.4642 90.4543 45.4804 90.4409 45.4957 90.4264C45.5082 90.4127 45.5196 90.3978 45.5295 90.3821C45.5391 90.3671 45.5462 90.3507 45.5506 90.3335C45.5622 90.3021 45.5622 90.2677 45.5506 90.2363C45.5369 90.2033 45.5151 90.1742 45.4872 90.1518C45.454 90.1263 45.417 90.1063 45.3774 90.0927C45.3296 90.0767 45.2799 90.0675 45.2295 90.0652L43.5863 89.9723L43.8651 88.9458C43.8747 88.9149 43.8747 88.8817 43.8651 88.8508C43.8517 88.8182 43.8298 88.7897 43.8017 88.7684C43.7687 88.741 43.7307 88.7202 43.6898 88.7071C43.6419 88.6918 43.5922 88.6825 43.542 88.6797C43.5166 88.6797 43.4892 88.6797 43.4638 88.6797H43.3857C43.3612 88.6838 43.3371 88.6901 43.3139 88.6987L43.2463 88.7262C43.2259 88.7349 43.2067 88.7462 43.1892 88.7599C43.1721 88.7714 43.1559 88.7841 43.1407 88.798C43.1281 88.8117 43.1168 88.8265 43.1069 88.8423C43.0974 88.8576 43.0896 88.8739 43.0836 88.8909L42.8048 89.9174L41.1637 89.8245H41.0835C41.0575 89.8223 41.0313 89.8223 41.0053 89.8245C40.9801 89.8286 40.9554 89.8349 40.9314 89.8435C40.9088 89.8497 40.8868 89.8582 40.8659 89.8688C40.8459 89.8784 40.8268 89.8897 40.8089 89.9026C40.7914 89.9143 40.7751 89.9277 40.7603 89.9427C40.7471 89.9565 40.7351 89.9713 40.7244 89.9871C40.7152 90.0023 40.7081 90.0186 40.7033 90.0357C40.6927 90.0672 40.6927 90.1013 40.7033 90.1328C40.7115 90.1688 40.7307 90.2012 40.7582 90.2258Z" fill="#9DDAFF"/>
<path d="M46.7326 97.6942C46.6605 97.5032 46.537 97.3358 46.3757 97.2106C46.1834 97.0561 45.9633 96.94 45.7273 96.8684C45.4607 96.7833 45.1809 96.7468 44.9014 96.7607L33.8403 97.2972C33.7502 97.2972 33.6614 97.3056 33.5741 97.3225C33.4881 97.3349 33.4028 97.3518 33.3186 97.3732C33.2341 97.3943 33.1538 97.4197 33.0757 97.4471C33.0038 97.4746 32.9333 97.5056 32.8645 97.54C32.7114 97.6103 32.5692 97.702 32.4421 97.8125C32.3383 97.9039 32.256 98.0171 32.2013 98.1441C32.154 98.2573 32.1473 98.3834 32.1823 98.5011C32.2321 98.6406 32.3208 98.763 32.4378 98.8538L40.2527 105.353C40.3942 105.466 40.5563 105.552 40.73 105.604C40.9101 105.659 41.0972 105.688 41.2855 105.689C41.4787 105.69 41.6715 105.67 41.86 105.627C42.042 105.587 42.2185 105.526 42.3859 105.444C42.5198 105.38 42.6454 105.3 42.7597 105.205C42.8101 105.16 42.8573 105.112 42.9012 105.061C42.9424 105.013 42.9778 104.961 43.0069 104.905L46.6798 98.2201C46.7243 98.1408 46.752 98.0532 46.7611 97.9627C46.7702 97.8722 46.7605 97.7808 46.7326 97.6942Z" fill="#9DDAFF"/>
</g>
<g opacity="0.5">
<path d="M133.85 63.5465C133.765 63.3334 133.625 63.1468 133.445 63.0058L118.474 50.7555C118.262 50.5879 118.02 50.4604 117.762 50.3796C117.477 50.2865 117.181 50.2318 116.881 50.2169C116.566 50.1997 116.25 50.2196 115.939 50.2761C115.631 50.331 115.331 50.4269 115.048 50.5612L94.0494 60.7416C93.8008 60.8597 93.5749 61.0206 93.382 61.2168C93.2228 61.3742 93.1052 61.5687 93.0398 61.7829C92.9827 61.9744 92.9871 62.179 93.0525 62.3679C93.1301 62.5803 93.2654 62.7668 93.4432 62.9065L108.291 75.3426C108.506 75.5155 108.75 75.6479 109.012 75.7334C109.301 75.8289 109.602 75.885 109.907 75.9002C110.227 75.9194 110.549 75.8996 110.864 75.8411C111.179 75.7842 111.484 75.6847 111.772 75.5454L132.878 65.1812C133.129 65.064 133.356 64.9023 133.548 64.7039C133.704 64.5454 133.817 64.3499 133.878 64.1357C133.93 63.9412 133.92 63.7353 133.85 63.5465ZM116.636 51.8792L116.617 51.9489L116.636 51.8792ZM115.842 66.1866L114.653 61.3942L115.842 66.1866C115.862 66.2649 115.862 66.347 115.842 66.4253C115.821 66.5059 115.786 66.5819 115.737 66.6492C115.71 66.6849 115.681 66.7188 115.65 66.7505C115.681 66.7188 115.71 66.6849 115.737 66.6492C115.786 66.5819 115.821 66.5059 115.842 66.4253C115.862 66.347 115.862 66.2649 115.842 66.1866ZM118.166 53.4316L118.127 53.4463L118.166 53.4316L118.189 53.4189L118.166 53.4316ZM117.868 53.4886L116.224 53.3914L117.868 53.4844V53.4886ZM116.928 59.28H116.89C116.808 59.2758 116.726 59.2758 116.645 59.28C116.726 59.2758 116.808 59.2758 116.89 59.28H116.928ZM116.615 59.2673H116.556H116.615ZM116.077 59.3265H116.051H116.077ZM115.84 54.5552L115.8 54.5784L115.84 54.5552L115.855 54.5425L115.84 54.5552ZM114.951 59.8101L114.877 59.8714L114.951 59.8101C115.037 59.744 115.128 59.6847 115.223 59.6327C115.128 59.6847 115.037 59.744 114.951 59.8101ZM114.662 60.1037C114.588 60.203 114.534 60.3156 114.503 60.4353C114.479 60.541 114.479 60.6507 114.503 60.7564C114.479 60.6507 114.479 60.541 114.503 60.4353C114.534 60.3156 114.588 60.203 114.662 60.1037C114.723 60.0219 114.794 59.9474 114.873 59.882C114.794 59.9474 114.723 60.0219 114.662 60.1037ZM114.662 67.1941C114.772 67.1798 114.88 67.1565 114.987 67.1244C115.089 67.0954 115.188 67.0572 115.282 67.0103C115.376 66.9655 115.464 66.911 115.546 66.8477C115.584 66.8182 115.619 66.7865 115.652 66.7527C115.619 66.7865 115.584 66.8182 115.546 66.8477C115.464 66.911 115.376 66.9655 115.282 67.0103C115.188 67.0572 115.089 67.0954 114.987 67.1244C114.88 67.1565 114.772 67.1798 114.662 67.1941C114.548 67.2086 114.434 67.2135 114.319 67.2089C114.203 67.2064 114.087 67.1923 113.973 67.1666L112.524 66.8435L113.973 67.1666C114.087 67.1923 114.203 67.2064 114.319 67.2089C114.433 67.2134 114.547 67.2085 114.659 67.1941H114.662ZM111.103 66.5942C111.153 66.5942 111.206 66.5942 111.257 66.5942C111.206 66.5942 111.155 66.5942 111.103 66.5942H110.94H111.103ZM109.041 64.7187C109.162 64.6955 109.28 64.6659 109.4 64.6342C109.28 64.6659 109.162 64.6955 109.041 64.7187C108.967 64.7335 108.895 64.744 108.83 64.7546C108.895 64.744 108.967 64.7335 109.041 64.7187ZM108.296 67.6609C108.315 67.6355 108.338 67.6102 108.359 67.5869C108.338 67.6102 108.315 67.6355 108.296 67.6609C108.244 67.7269 108.199 67.7976 108.16 67.8721C108.199 67.7976 108.244 67.7269 108.296 67.6609ZM108.674 67.2955C108.83 67.1779 108.998 67.076 109.174 66.9913C109.219 66.9681 109.269 66.9491 109.316 66.928C109.269 66.9491 109.219 66.9681 109.174 66.9913C108.998 67.076 108.83 67.1779 108.674 67.2955L108.604 67.3504L108.674 67.2955ZM110.416 66.6259C110.586 66.6044 110.758 66.5925 110.929 66.59C110.758 66.5925 110.586 66.6044 110.416 66.6259L110.275 66.6492L110.416 66.6259ZM118.001 52.9986C118.051 53.0006 118.101 53.0098 118.149 53.026L118.18 53.0408L118.149 53.026C118.101 53.0098 118.051 53.0006 118.001 52.9986L116.358 52.9056L118.001 52.9986ZM113.47 52.9986C113.475 52.981 113.483 52.964 113.491 52.9479C113.502 52.9321 113.514 52.9173 113.527 52.9035C113.542 52.8892 113.558 52.8765 113.576 52.8655C113.594 52.8526 113.613 52.8412 113.633 52.8317L113.698 52.8043L113.772 52.7852L113.848 52.7747H113.931L115.572 52.8676L115.851 51.8432C115.855 51.8262 115.863 51.8098 115.872 51.7947C115.883 51.779 115.895 51.7641 115.908 51.7503C115.922 51.7353 115.939 51.7219 115.956 51.7102C115.974 51.6972 115.993 51.6859 116.013 51.6764C116.034 51.6658 116.056 51.6573 116.079 51.651C116.103 51.6425 116.127 51.6361 116.153 51.632C116.178 51.6265 116.203 51.6229 116.229 51.6215H116.309C116.356 51.6236 116.403 51.6322 116.448 51.6468C116.403 51.6322 116.356 51.6236 116.309 51.6215H116.229C116.203 51.6229 116.178 51.6265 116.153 51.632C116.127 51.6361 116.103 51.6425 116.079 51.651C116.056 51.6573 116.034 51.6658 116.013 51.6764C115.993 51.6859 115.974 51.6972 115.956 51.7102C115.939 51.7219 115.922 51.7353 115.908 51.7503C115.895 51.7641 115.883 51.779 115.872 51.7947C115.863 51.8098 115.855 51.8262 115.851 51.8432L115.572 52.8676L113.931 52.7578H113.848L113.772 52.7684L113.698 52.7874L113.633 52.8148C113.613 52.8244 113.594 52.8357 113.576 52.8486C113.558 52.8596 113.542 52.8723 113.527 52.8866C113.514 52.9004 113.502 52.9152 113.491 52.931C113.483 52.9471 113.475 52.9641 113.47 52.9817C113.461 53.0134 113.461 53.0471 113.47 53.0788C113.485 53.1108 113.506 53.139 113.534 53.1612C113.567 53.1867 113.604 53.2067 113.643 53.2203C113.691 53.2365 113.741 53.2458 113.791 53.2478L115.435 53.3428L115.156 54.3693C115.144 54.4007 115.144 54.4352 115.156 54.4665C115.17 54.4988 115.191 54.5271 115.219 54.5489C115.252 54.5748 115.289 54.5948 115.329 54.608C115.377 54.6242 115.426 54.6334 115.477 54.6355C115.426 54.6334 115.377 54.6242 115.329 54.608C115.289 54.5948 115.252 54.5748 115.219 54.5489C115.191 54.5271 115.17 54.4988 115.156 54.4665C115.144 54.4352 115.144 54.4007 115.156 54.3693L115.435 53.3428L113.791 53.2478C113.741 53.2458 113.691 53.2365 113.643 53.2203C113.604 53.2067 113.567 53.1867 113.534 53.1612C113.506 53.139 113.485 53.1108 113.47 53.0788C113.462 53.0498 113.462 53.0192 113.47 52.9901V52.9986ZM111.614 62.4017C111.604 62.3458 111.59 62.2908 111.571 62.237C111.554 62.1833 111.533 62.1311 111.508 62.0807C111.533 62.1311 111.554 62.1833 111.571 62.237C111.589 62.288 111.603 62.3402 111.614 62.3933V62.4017ZM111.286 61.7533C111.221 61.6823 111.151 61.6166 111.075 61.5569C110.944 61.4523 110.802 61.361 110.653 61.2844C110.802 61.361 110.944 61.4523 111.075 61.5569C111.15 61.6139 111.221 61.6767 111.286 61.7448V61.7533ZM106.64 61.3668C106.766 61.3055 106.895 61.2527 107.026 61.2041C106.895 61.2527 106.766 61.3055 106.64 61.3668C106.309 61.5224 106.007 61.7323 105.746 61.9877C105.716 62.0186 105.687 62.051 105.66 62.0849C105.687 62.051 105.716 62.0186 105.746 61.9877C106.005 61.7296 106.306 61.5169 106.635 61.3583L106.64 61.3668ZM107.605 61.0267L107.377 61.088L107.605 61.0267ZM105.44 62.3785C105.374 62.4843 105.322 62.5978 105.284 62.7164C105.245 62.8373 105.224 62.9633 105.222 63.0903C105.224 62.9633 105.245 62.8373 105.284 62.7164C105.32 62.5951 105.371 62.4787 105.436 62.37L105.44 62.3785ZM105.282 63.4662C105.237 63.3443 105.212 63.2159 105.21 63.086C105.209 63.2123 105.229 63.3379 105.269 63.4578C105.362 63.7272 105.53 63.9641 105.755 64.14C105.949 64.2979 106.167 64.426 106.399 64.5202C106.167 64.426 105.949 64.2979 105.755 64.14C105.534 63.963 105.368 63.7262 105.277 63.4578L105.282 63.4662ZM106.6 64.5856C106.623 64.5856 106.646 64.6025 106.669 64.611C106.646 64.6089 106.623 64.5983 106.6 64.5856ZM109.449 72.6856C109.418 72.6615 109.391 72.6322 109.371 72.599C109.352 72.5659 109.339 72.5292 109.335 72.4913L108.019 68.5163C108.002 68.3653 108.019 68.2124 108.067 68.0685C108.079 68.0325 108.092 67.9972 108.108 67.9629C108.092 67.9972 108.079 68.0325 108.067 68.0685C108.019 68.2124 108.002 68.3653 108.019 68.5163L109.335 72.4913C109.339 72.5292 109.352 72.5659 109.371 72.599C109.391 72.6322 109.418 72.6615 109.449 72.6856C109.524 72.7419 109.61 72.7808 109.702 72.7996C109.611 72.7827 109.524 72.746 109.449 72.6919V72.6856ZM109.774 72.8081C109.802 72.8081 109.829 72.8186 109.859 72.8208C109.829 72.8229 109.802 72.8229 109.774 72.8229V72.8081Z" fill="#FAA653"/>
<path d="M113.538 53.1819C113.571 53.2075 113.608 53.2274 113.647 53.2411C113.695 53.2573 113.745 53.2665 113.795 53.2685L115.439 53.3636L115.16 54.3901C115.148 54.4214 115.148 54.4559 115.16 54.4872C115.174 54.5195 115.195 54.5479 115.223 54.5696C115.256 54.5955 115.293 54.6155 115.333 54.6287C115.381 54.6449 115.43 54.6542 115.481 54.6562H115.559C115.585 54.6584 115.611 54.6584 115.637 54.6562L115.709 54.6393L115.776 54.6118C115.796 54.6023 115.816 54.591 115.833 54.5781C115.851 54.5658 115.867 54.5524 115.882 54.5379C115.895 54.5246 115.906 54.5097 115.916 54.4936C115.927 54.4789 115.934 54.4625 115.939 54.445L116.224 53.3932L117.867 53.4861H117.948C117.974 53.4883 118 53.4883 118.026 53.4861L118.098 53.4671L118.165 53.4396C118.185 53.4296 118.204 53.4183 118.222 53.4058C118.239 53.3936 118.256 53.3802 118.271 53.3657C118.284 53.3528 118.296 53.3378 118.305 53.3213C118.315 53.3066 118.322 53.2901 118.326 53.2728C118.336 53.2413 118.336 53.2071 118.326 53.1756C118.312 53.1433 118.29 53.115 118.262 53.0932C118.229 53.0677 118.192 53.0477 118.153 53.0341C118.105 53.0179 118.055 53.0087 118.005 53.0066L116.362 52.9137L116.64 51.8872C116.651 51.8557 116.651 51.8216 116.64 51.7901C116.626 51.7578 116.605 51.7294 116.577 51.7077C116.544 51.6813 116.507 51.6613 116.467 51.6486C116.419 51.6322 116.37 51.6229 116.319 51.6211H116.239C116.213 51.6225 116.188 51.6261 116.163 51.6317C116.138 51.6357 116.113 51.6421 116.089 51.6507C116.066 51.6569 116.045 51.6654 116.024 51.676C116.004 51.6855 115.985 51.6969 115.967 51.7098C115.949 51.7215 115.933 51.7349 115.918 51.7499C115.905 51.7638 115.893 51.7786 115.882 51.7943C115.873 51.8095 115.866 51.8258 115.861 51.8429L115.582 52.8672L113.93 52.7595H113.848L113.772 52.7701L113.698 52.7891L113.633 52.8165C113.613 52.8261 113.594 52.8374 113.576 52.8503C113.558 52.8613 113.542 52.874 113.527 52.8884C113.514 52.9021 113.502 52.9169 113.491 52.9327C113.482 52.9488 113.475 52.9658 113.47 52.9834C113.461 53.0151 113.461 53.0489 113.47 53.0806C113.483 53.1199 113.506 53.1549 113.538 53.1819Z" fill="#FFD596"/>
<path d="M109.042 64.7155C109.449 64.6372 109.844 64.5066 110.218 64.3269C110.553 64.173 110.86 63.963 111.124 63.7059C111.333 63.5022 111.491 63.2517 111.585 62.9751C111.664 62.7315 111.664 62.469 111.585 62.2253C111.49 61.9571 111.32 61.7213 111.097 61.5452C110.827 61.3309 110.52 61.1696 110.191 61.07C109.821 60.9549 109.439 60.8896 109.052 60.8757C108.641 60.8585 108.229 60.8897 107.825 60.9686C107.418 61.0467 107.023 61.1766 106.649 61.3551C106.318 61.5107 106.016 61.7206 105.755 61.9761C105.544 62.178 105.386 62.4281 105.293 62.7048C105.212 62.9483 105.212 63.2111 105.293 63.4546C105.385 63.724 105.554 63.961 105.778 64.1368C106.048 64.351 106.355 64.5129 106.685 64.6141C107.054 64.7294 107.438 64.7947 107.825 64.8084C108.233 64.8246 108.641 64.7934 109.042 64.7155Z" fill="#FFD596"/>
<path d="M128.787 63.2494C128.719 63.1881 128.637 63.1445 128.548 63.1227L117.434 59.3673C117.256 59.3186 117.073 59.2875 116.889 59.2744C116.707 59.2575 116.524 59.2575 116.342 59.2744C116.165 59.2927 115.99 59.3266 115.818 59.3758C115.656 59.4212 115.498 59.4805 115.345 59.5532C115.206 59.6212 115.073 59.7032 114.95 59.7982C114.84 59.8813 114.742 59.9802 114.661 60.0918C114.587 60.191 114.533 60.3037 114.503 60.4234C114.474 60.5414 114.474 60.6645 114.503 60.7824L115.839 66.1747C115.86 66.253 115.86 66.335 115.839 66.4133C115.819 66.494 115.783 66.57 115.734 66.6372C115.679 66.712 115.613 66.7788 115.54 66.8358C115.457 66.8991 115.369 66.9536 115.276 66.9984C115.181 67.0453 115.082 67.0834 114.98 67.1124C114.874 67.1446 114.765 67.1679 114.655 67.1821C114.541 67.1966 114.427 67.2016 114.312 67.1969C114.196 67.1945 114.08 67.1803 113.966 67.1547L111.788 66.6689C111.562 66.6181 111.33 66.5891 111.098 66.5823C110.868 66.5738 110.639 66.5844 110.411 66.614C110.191 66.643 109.972 66.6889 109.759 66.7513C109.556 66.8106 109.359 66.8869 109.169 66.9794C108.993 67.0641 108.825 67.1659 108.669 67.2835C108.527 67.3883 108.4 67.5111 108.291 67.6489C108.19 67.7748 108.113 67.9179 108.063 68.0713C108.014 68.2153 107.997 68.3681 108.014 68.5191L109.33 72.4941C109.335 72.5325 109.348 72.5695 109.367 72.6029C109.387 72.6363 109.413 72.6654 109.444 72.6884C109.519 72.7447 109.606 72.7837 109.697 72.8025C109.804 72.8245 109.913 72.8295 110.021 72.8173C110.136 72.8063 110.249 72.7748 110.354 72.7243L128.59 63.7943C128.673 63.7546 128.745 63.6968 128.802 63.6253C128.847 63.5702 128.87 63.5002 128.867 63.4289C128.863 63.3612 128.835 63.2973 128.787 63.2494Z" fill="#FFD596"/>
<path d="M133.983 64.9302C133.983 64.9302 133.983 64.9302 133.983 64.9154V64.8964C133.983 64.8964 133.983 64.8837 133.983 64.8774V64.8415L133.909 63.8171C133.911 63.8467 133.911 63.8763 133.909 63.9058C133.911 63.9354 133.911 63.965 133.909 63.9945C133.909 64.0241 133.909 64.0537 133.894 64.0832C133.894 64.1128 133.88 64.1403 133.871 64.1698C133.871 64.1994 133.85 64.229 133.837 64.2607C133.825 64.2902 133.81 64.3177 133.795 64.3473C133.78 64.3747 133.766 64.4022 133.749 64.4275C133.731 64.456 133.712 64.4834 133.692 64.5099L133.633 64.5859L133.611 64.6092L133.561 64.6641L133.537 64.6873L133.466 64.757L133.366 64.8394L133.328 64.8668L133.244 64.9281L133.2 64.9577L133.107 65.0147L133.064 65.04L132.919 65.1161L111.757 75.5436C111.69 75.5774 111.622 75.6069 111.546 75.6344L111.521 75.645C111.455 75.6703 111.39 75.6956 111.322 75.7168H111.297C111.227 75.74 111.155 75.759 111.086 75.778H111.075C110.999 75.797 110.925 75.8139 110.849 75.8287C110.771 75.8435 110.693 75.8562 110.617 75.8646L110.385 75.8857H110.15C110.072 75.8857 109.994 75.8857 109.916 75.8857C109.84 75.8857 109.764 75.8857 109.69 75.8667H109.679C109.605 75.8667 109.529 75.8456 109.457 75.8329C109.385 75.8181 109.314 75.8034 109.246 75.7844L109.107 75.7421C109.06 75.7294 109.016 75.7125 108.972 75.6978L108.885 75.664L108.756 75.6069L108.678 75.5689C108.634 75.5457 108.591 75.5203 108.549 75.495L108.488 75.4591C108.429 75.4197 108.372 75.3774 108.317 75.3324L93.4686 62.8962C93.403 62.8425 93.3422 62.7832 93.287 62.7188C93.2374 62.6597 93.1936 62.5961 93.156 62.5287C93.1198 62.4668 93.0907 62.4009 93.0694 62.3323C93.0484 62.2636 93.0349 62.1928 93.0293 62.1211L93.118 63.1412C93.1221 63.2131 93.1356 63.2841 93.1581 63.3525C93.1794 63.4217 93.2085 63.4883 93.2447 63.551C93.2823 63.6184 93.3261 63.682 93.3757 63.7411C93.4309 63.8054 93.4917 63.8648 93.5573 63.9185L108.401 76.3588C108.455 76.4044 108.512 76.4461 108.572 76.4835H108.583L108.634 76.513C108.676 76.5384 108.716 76.5637 108.76 76.587L108.784 76.5996L108.841 76.625L108.967 76.682L109.003 76.6968L109.056 76.7158L109.121 76.739L109.189 76.7601L109.24 76.777L109.318 76.7982H109.328L109.388 76.813L109.468 76.8299L109.544 76.8446L109.611 76.8573L109.679 76.8679H109.749H109.774H109.818H109.88H109.943H110H110.063H110.486H110.545H110.608H110.672H110.703H110.733H110.796L110.862 76.8573L110.929 76.8446H110.951H110.997L111.063 76.832L111.124 76.8341L111.162 76.8235H111.172H111.2L111.274 76.8024L111.35 76.7792H111.386H111.411L111.457 76.7644L111.565 76.7242L111.61 76.7073H111.635L111.669 76.6926C111.705 76.6799 111.738 76.663 111.772 76.6482H111.789H111.806H111.823H111.838L132.959 66.282C133.007 66.2587 133.056 66.2313 133.102 66.2059H133.115L133.145 66.1869L133.238 66.1299C133.246 66.1262 133.254 66.1212 133.261 66.1151L133.284 66.1003L133.366 66.0412L133.394 66.0222H133.404H133.421L133.504 65.9504L133.563 65.8954L133.576 65.8828L133.599 65.8574L133.624 65.8321L133.649 65.8025L133.671 65.7793L133.681 65.7666L133.73 65.7032L133.761 65.6568C133.77 65.6453 133.778 65.6333 133.785 65.6209C133.795 65.6059 133.804 65.5903 133.812 65.5744C133.812 65.5638 133.823 65.5533 133.829 65.5448V65.5343L133.848 65.492C133.848 65.492 133.848 65.4688 133.865 65.4561C133.869 65.4416 133.875 65.4274 133.882 65.4139L133.935 65.2175C133.935 65.2175 133.935 65.1963 133.935 65.1879C133.935 65.1794 133.935 65.1604 133.945 65.1478C133.956 65.1351 133.945 65.1372 133.945 65.1309V65.1097C133.944 65.0964 133.944 65.083 133.945 65.0696C133.944 65.0577 133.944 65.0456 133.945 65.0337C133.945 65.021 133.945 65.0084 133.945 64.9957C133.945 64.983 133.945 64.9703 133.945 64.9577V64.9365L133.983 64.9302Z" fill="#DB752F"/>
</g>
<g opacity="0.5">
<path d="M81.1707 119.619V119.547C81.1697 119.541 81.1697 119.536 81.1707 119.53L81.0989 118.506C81.0989 118.535 81.0989 118.565 81.0989 118.594V118.683C81.0989 118.713 81.0883 118.742 81.082 118.772C81.0762 118.801 81.0685 118.83 81.0588 118.859C81.0482 118.888 81.0376 118.918 81.025 118.949C81.0123 118.979 80.9996 119.006 80.9848 119.036V119.046C80.9714 119.074 80.9559 119.101 80.9384 119.127C80.9193 119.154 80.9025 119.182 80.8813 119.209L80.8201 119.285L80.8011 119.308C80.7846 119.328 80.7669 119.346 80.7483 119.363L80.7271 119.387L80.6553 119.456C80.6237 119.486 80.5899 119.513 80.5561 119.541L80.5181 119.568L80.4336 119.629L80.3892 119.659L80.2963 119.716L80.2519 119.741L80.1083 119.817L58.947 130.243C58.8794 130.277 58.8119 130.306 58.7358 130.334L58.7105 130.344C58.6471 130.37 58.5795 130.395 58.514 130.416H58.4887C58.4169 130.439 58.3472 130.458 58.2775 130.477H58.2669C58.193 130.496 58.117 130.513 58.0409 130.528C57.9649 130.543 57.8867 130.555 57.8086 130.564L57.5763 130.585H57.3418C57.2637 130.589 57.1855 130.589 57.1074 130.585L56.8793 130.566C56.8032 130.566 56.7293 130.545 56.6554 130.532C56.5836 130.517 56.5118 130.503 56.4442 130.484H56.4336L56.2942 130.441L56.1611 130.397L56.0724 130.363L55.9457 130.306L55.8676 130.268C55.8232 130.245 55.781 130.22 55.7387 130.194L55.6775 130.158C55.618 130.119 55.5609 130.077 55.5064 130.032L40.6561 117.595C40.5912 117.542 40.5311 117.482 40.4766 117.418C40.4257 117.36 40.3811 117.296 40.3435 117.228C40.3082 117.166 40.2791 117.1 40.2569 117.032C40.2358 116.963 40.2224 116.892 40.2168 116.82L40.3055 117.843C40.3107 117.914 40.3242 117.985 40.3456 118.054C40.3678 118.123 40.3968 118.189 40.4322 118.252C40.4698 118.32 40.5144 118.384 40.5653 118.442C40.6198 118.507 40.6799 118.566 40.7448 118.62L55.5888 131.06C55.6431 131.105 55.7003 131.147 55.7598 131.185H55.7704L55.8211 131.214C55.8633 131.24 55.9056 131.265 55.9499 131.288L55.9732 131.301L56.0281 131.326L56.1569 131.383L56.1928 131.398L56.2435 131.415C56.2648 131.425 56.2867 131.433 56.309 131.44L56.3787 131.461L56.4273 131.478L56.5054 131.5H56.516H56.5265L56.5836 131.514L56.6638 131.531L56.7399 131.546L56.8075 131.559H56.8772H56.9447H56.9701H57.0144H57.0778H57.1391H57.1982H57.2616H57.684H57.7452H57.8065H57.8698H57.9015H57.9332H57.9945L58.062 131.548L58.1275 131.535H58.1486H58.1951L58.2606 131.523L58.3366 131.504H58.3746H58.3873H58.4127L58.4887 131.483L58.5626 131.459L58.5985 131.449H58.626L58.6725 131.434L58.7781 131.394L58.8224 131.377L58.8478 131.366L58.8837 131.352L58.9872 131.307H59.0019H59.0188H59.0357H59.0526L80.1632 120.941C80.2139 120.918 80.2604 120.89 80.3089 120.865H80.3216L80.3512 120.846L80.4441 120.789L80.4674 120.774L80.4885 120.759L80.573 120.698L80.5983 120.679H80.611L80.6258 120.666L80.7103 120.597L80.7694 120.542L80.7821 120.527L80.8032 120.504C80.8134 120.496 80.8226 120.487 80.8306 120.476L80.856 120.449L80.875 120.426L80.8877 120.413L80.9362 120.35C80.9489 120.335 80.9595 120.318 80.97 120.303L80.9933 120.267L81.0207 120.219L81.0376 120.191C81.0455 120.178 81.0526 120.163 81.0588 120.149C81.0588 120.136 81.0588 120.126 81.0735 120.113C81.0735 120.098 81.0862 120.084 81.0904 120.071C81.0963 120.057 81.1012 120.043 81.1052 120.029C81.1052 120.018 81.1052 120.007 81.1158 119.999C81.1183 119.985 81.1218 119.972 81.1263 119.959C81.1263 119.959 81.1263 119.959 81.1263 119.942V119.929V119.889V119.853C81.1253 119.841 81.1253 119.828 81.1263 119.815C81.1253 119.803 81.1253 119.79 81.1263 119.777V119.756L81.1707 119.619Z" fill="#E6AE25"/>
<path d="M81.0378 118.234C80.9522 118.021 80.8124 117.835 80.6323 117.693L65.6595 105.443C65.447 105.275 65.2059 105.147 64.9477 105.065C64.6624 104.973 64.3663 104.919 64.067 104.904C63.7517 104.887 63.4356 104.907 63.125 104.964C62.8166 105.019 62.5168 105.115 62.2336 105.249L41.235 115.423C40.983 115.54 40.7535 115.701 40.557 115.898C40.3979 116.055 40.2803 116.25 40.2149 116.464C40.1587 116.656 40.1632 116.86 40.2275 117.049C40.3067 117.261 40.4417 117.447 40.6183 117.588L55.4685 130.032C55.6826 130.206 55.9268 130.338 56.1888 130.423C56.4777 130.519 56.7782 130.575 57.0822 130.59C57.403 130.609 57.725 130.589 58.0411 130.531C58.3553 130.474 58.6602 130.375 58.9472 130.235L80.0683 119.871C80.3179 119.752 80.5445 119.591 80.7379 119.393C80.8937 119.234 81.007 119.038 81.0674 118.823C81.1194 118.629 81.109 118.422 81.0378 118.234ZM70.9609 120.232C70.9619 120.237 70.9619 120.242 70.9609 120.247C70.9619 120.242 70.9619 120.237 70.9609 120.232ZM70.9081 120.162C70.8822 120.144 70.8537 120.13 70.8236 120.12C70.8536 120.13 70.8821 120.144 70.9081 120.162ZM68.796 120.692C69.3815 120.586 69.9499 120.4 70.4857 120.141C70.5208 120.125 70.5576 120.114 70.5955 120.107C70.6333 120.102 70.6717 120.102 70.7096 120.107H70.7433H70.7053C70.6613 120.105 70.6172 120.11 70.5744 120.12C70.5278 120.132 70.4825 120.148 70.4392 120.169C69.9125 120.422 69.3541 120.603 68.7791 120.707C68.2013 120.814 67.6127 120.851 67.026 120.817C66.4673 120.787 65.9148 120.684 65.3828 120.511C64.9019 120.357 64.4532 120.116 64.0585 119.801L64.238 119.685L64.0585 119.801C64.4532 120.116 64.9019 120.357 65.3828 120.511C65.9162 120.684 66.4702 120.785 67.0302 120.813C67.625 120.845 68.2215 120.804 68.8065 120.692H68.796ZM61.5366 111L62.0457 110.753L61.5366 111ZM65.499 118.426C65.4266 118.542 65.3469 118.654 65.2603 118.76C65.2223 118.808 65.1822 118.855 65.1399 118.903C65.1822 118.855 65.2223 118.808 65.2603 118.76C65.3505 118.654 65.4337 118.543 65.5095 118.426H65.499ZM65.8918 117.535C65.9066 117.482 65.9193 117.427 65.9298 117.372C65.9193 117.427 65.9066 117.482 65.8918 117.535C65.877 117.588 65.8644 117.643 65.8475 117.695C65.8707 117.643 65.8897 117.588 65.9024 117.535H65.8918ZM64.6921 111.397C64.8663 111.592 65.0011 111.818 65.0892 112.064C65.1709 112.295 65.2075 112.538 65.1969 112.783C65.1844 113.034 65.1279 113.281 65.0301 113.513C64.9238 113.766 64.7815 114.001 64.6077 114.212C64.7815 114.001 64.9238 113.766 65.0301 113.513C65.1279 113.281 65.1844 113.034 65.1969 112.783C65.2075 112.538 65.1709 112.295 65.0892 112.064C65.0011 111.818 64.8663 111.592 64.6921 111.397L63.5157 110.039L64.6921 111.397ZM62.9982 120.316C62.8525 120.373 62.7025 120.426 62.5483 120.473C62.7025 120.426 62.8525 120.373 62.9982 120.316ZM66.0059 113.946C66.0066 113.941 66.0066 113.936 66.0059 113.932C66.0066 113.936 66.0066 113.941 66.0059 113.946ZM65.7081 110.909C65.8047 111.018 65.8923 111.135 65.97 111.258C65.8923 111.135 65.8047 111.018 65.7081 110.909L65.4483 110.62L65.7081 110.909ZM63.8621 109.167H63.879H63.8621C63.8079 109.163 63.7536 109.163 63.6994 109.167C63.7536 109.163 63.8079 109.163 63.8621 109.167ZM63.1609 109.289C63.2713 109.236 63.3886 109.199 63.5094 109.179C63.568 109.169 63.6273 109.162 63.6868 109.16C63.5053 109.168 63.3272 109.212 63.163 109.289L60.9453 110.366L60.884 110.303L60.9453 110.366L63.1609 109.289ZM60.3898 114.656L55.7896 115.144L60.3898 114.656ZM60.3391 109.878C60.3795 109.889 60.4191 109.902 60.4574 109.919C60.4191 109.902 60.3795 109.889 60.3391 109.878ZM59.0908 117.993L59.0465 118.033L59.0127 118.057L59.0465 118.033L59.0908 117.993ZM58.9007 118.111C58.8577 118.131 58.8132 118.147 58.7677 118.16C58.8132 118.147 58.8577 118.131 58.9007 118.111ZM58.4783 118.202H58.4107H58.3621H58.4107H58.4783ZM55.6058 115.178H55.627H55.6058ZM61.1332 114.998C61.1178 114.921 61.0741 114.851 61.0107 114.804C60.943 114.751 60.8655 114.711 60.7826 114.688C60.8655 114.711 60.943 114.751 61.0107 114.804C61.0741 114.851 61.1178 114.921 61.1332 114.998C61.1443 115.073 61.1253 115.149 61.0804 115.209C61.1034 115.18 61.1202 115.146 61.13 115.109C61.1398 115.073 61.1423 115.035 61.1375 114.998H61.1332ZM49.0034 115.685C48.9539 115.653 48.9109 115.612 48.8766 115.564C48.8493 115.527 48.8332 115.482 48.8302 115.435C48.8286 115.393 48.8413 115.351 48.8661 115.317C48.8984 115.275 48.9405 115.242 48.9886 115.22L59.9293 109.91C59.985 109.883 60.0451 109.867 60.1067 109.862C60.1586 109.854 60.2112 109.854 60.263 109.862C60.2112 109.854 60.1586 109.854 60.1067 109.862C60.0451 109.867 59.985 109.883 59.9293 109.91L48.9886 115.22C48.9405 115.242 48.8984 115.275 48.8661 115.317C48.8413 115.351 48.8286 115.393 48.8302 115.435C48.8332 115.482 48.8493 115.527 48.8766 115.564C48.9109 115.612 48.9539 115.653 49.0034 115.685L49.4258 115.968L47.2144 117.041C47.1286 117.082 47.0496 117.136 46.98 117.201C47.0496 117.136 47.1286 117.082 47.2144 117.041L49.4173 115.961L49.0034 115.685ZM50.955 118.954C50.8472 118.918 50.7438 118.88 50.6445 118.838C50.7459 118.88 50.8557 118.918 50.955 118.954C51.299 119.069 51.6523 119.153 52.011 119.205C52.1715 119.231 52.3363 119.248 52.501 119.263C52.3363 119.248 52.1715 119.231 52.011 119.205C51.6538 119.153 51.3018 119.068 50.9592 118.954H50.955ZM51.3056 119.848C51.2112 119.831 51.1162 119.812 51.0204 119.791C51.119 119.812 51.2155 119.831 51.3098 119.848H51.3056ZM53.1769 119.294H52.896H53.1769C53.5072 119.294 53.8373 119.275 54.1654 119.237C53.8387 119.275 53.51 119.294 53.1811 119.294H53.1769ZM54.3534 119.214L50.2411 116.502L54.3534 119.214ZM46.8891 117.313C46.8683 117.35 46.854 117.39 46.8469 117.431C46.8562 117.392 46.8719 117.355 46.8934 117.321L46.8891 117.313ZM47.0898 117.839C47.008 117.792 46.9391 117.726 46.8891 117.647C46.8598 117.598 46.8437 117.543 46.8427 117.486C46.8437 117.543 46.8598 117.598 46.8891 117.647C46.9391 117.726 47.008 117.792 47.0898 117.839L49.0308 119.024C49.1597 119.102 49.297 119.174 49.4385 119.235C49.297 119.165 49.1597 119.094 49.0308 119.024L47.0898 117.839ZM52.7144 119.995C52.8622 119.995 53.0079 119.995 53.1558 119.995C53.0122 120.012 52.8664 120.008 52.7186 120.004L52.7144 119.995ZM55.2489 119.784C55.0271 119.831 54.8011 119.867 54.5751 119.898C54.8011 119.867 55.0271 119.831 55.2489 119.784C55.8223 120.104 56.4331 120.352 57.0674 120.521C56.436 120.356 55.8273 120.113 55.2552 119.799L55.2489 119.784ZM59.5872 120.872C60.095 120.878 60.6025 120.847 61.1058 120.779C61.3001 120.752 61.4944 120.716 61.6845 120.678C61.4944 120.716 61.3001 120.752 61.1058 120.779C60.605 120.852 60.0996 120.888 59.5935 120.887L59.5872 120.872ZM61.9823 124.684C61.945 124.682 61.9081 124.675 61.8725 124.663C61.8413 124.652 61.8121 124.637 61.7859 124.617L61.7732 124.602L61.7859 124.617C61.8121 124.637 61.8413 124.652 61.8725 124.663C61.9081 124.675 61.945 124.682 61.9823 124.684C62.0209 124.689 62.0599 124.689 62.0985 124.684L62.1365 124.672L62.0985 124.684C62.0626 124.694 62.0257 124.699 61.9886 124.699L61.9823 124.684ZM66.5212 122.528L70.8363 120.416C70.8574 120.405 70.8773 120.391 70.8954 120.376C70.8773 120.391 70.8574 120.405 70.8363 120.416L66.5212 122.528Z" fill="#F9CA53"/>
<path d="M63.1611 109.29C63.2716 109.237 63.3889 109.2 63.5096 109.18C63.626 109.159 63.7448 109.155 63.8623 109.167C63.9708 109.179 64.0769 109.206 64.177 109.25C64.2683 109.288 64.3499 109.347 64.4157 109.421L65.7083 110.899C65.9567 111.178 66.1432 111.506 66.2554 111.862C66.3603 112.197 66.3912 112.55 66.3462 112.897C66.2987 113.262 66.1834 113.614 66.0061 113.936C65.8093 114.297 65.5586 114.625 65.2627 114.91C65.5739 115.29 65.7968 115.734 65.9153 116.211C66.0189 116.643 66.0146 117.095 65.9026 117.525C65.7819 117.974 65.5658 118.392 65.269 118.75C64.9296 119.162 64.5216 119.513 64.063 119.787C64.4577 120.102 64.9064 120.342 65.3873 120.497C65.9193 120.67 66.4717 120.773 67.0305 120.803C67.6171 120.837 68.2057 120.8 68.7836 120.693C69.3586 120.589 69.917 120.408 70.4437 120.154C70.4869 120.134 70.5322 120.117 70.5789 120.106C70.6217 120.095 70.6658 120.091 70.7098 120.093C70.7478 120.093 70.7855 120.099 70.8217 120.11C70.8541 120.12 70.8843 120.135 70.9105 120.157C70.9322 120.174 70.9489 120.196 70.959 120.222C70.9665 120.245 70.9665 120.27 70.959 120.294C70.9518 120.319 70.938 120.343 70.9189 120.361C70.8966 120.387 70.8692 120.407 70.8386 120.421L62.2085 124.645C62.1746 124.662 62.1383 124.674 62.1008 124.681C62.0623 124.686 62.0232 124.686 61.9847 124.681C61.9473 124.678 61.9104 124.671 61.8748 124.66C61.8437 124.649 61.8145 124.633 61.7882 124.613C61.767 124.596 61.7503 124.573 61.7397 124.548C61.7322 124.524 61.7322 124.499 61.7397 124.476C61.7472 124.45 61.7609 124.426 61.7798 124.406C61.8033 124.381 61.8313 124.361 61.8622 124.347C62.3336 124.123 62.7625 123.818 63.1294 123.447C63.4257 123.154 63.6436 122.791 63.7631 122.391C63.8655 122.032 63.853 121.65 63.7272 121.299C63.5763 120.913 63.3247 120.573 62.9985 120.317C62.3899 120.547 61.7571 120.707 61.1124 120.794C60.4392 120.886 59.7586 120.911 59.0805 120.868C58.402 120.828 57.7295 120.717 57.074 120.537C56.4397 120.367 55.8289 120.12 55.2555 119.8C54.7044 119.915 54.145 119.985 53.5827 120.011C53.025 120.034 52.4664 120.014 51.912 119.95C51.3853 119.888 50.865 119.78 50.3575 119.626C49.8948 119.485 49.4508 119.289 49.0353 119.041L47.0943 117.856C47.0125 117.81 46.9436 117.744 46.8936 117.664C46.855 117.601 46.84 117.526 46.8514 117.453C46.8676 117.373 46.9064 117.3 46.9633 117.242C47.0379 117.165 47.126 117.102 47.2231 117.056L49.4345 115.983L49.0121 115.7C48.9626 115.668 48.9196 115.627 48.8853 115.58C48.858 115.542 48.8419 115.497 48.8389 115.451C48.8373 115.408 48.85 115.367 48.8748 115.332C48.9071 115.291 48.9492 115.257 48.9973 115.235L59.938 109.925C59.9937 109.898 60.0538 109.882 60.1154 109.877C60.1784 109.867 60.2425 109.867 60.3055 109.877C60.369 109.887 60.4303 109.908 60.4872 109.938C60.5434 109.965 60.5942 110.003 60.6371 110.048L60.9497 110.373L63.1611 109.29ZM61.0786 115.225C61.1033 115.193 61.1212 115.157 61.1314 115.118C61.1416 115.079 61.1437 115.038 61.1377 114.999C61.1222 114.921 61.0786 114.852 61.0152 114.804C60.9374 114.744 60.8473 114.7 60.7512 114.678C60.6329 114.65 60.5107 114.643 60.39 114.657L55.7898 115.145C55.7582 115.145 55.7265 115.145 55.6969 115.157L55.6103 115.178C55.5828 115.178 55.5554 115.195 55.53 115.204L55.4561 115.235C55.3881 115.268 55.326 115.311 55.2724 115.364C55.228 115.407 55.1946 115.46 55.1752 115.518C55.1573 115.572 55.1573 115.63 55.1752 115.683C55.1965 115.744 55.2355 115.798 55.2872 115.837L57.9548 118.051C58.018 118.1 58.0896 118.137 58.166 118.161C58.2475 118.186 58.332 118.2 58.4173 118.203C58.5051 118.207 58.593 118.201 58.6792 118.184C58.7624 118.168 58.8433 118.142 58.92 118.106L58.9876 118.068L59.0488 118.025C59.0674 118.01 59.0851 117.994 59.1016 117.977C59.1181 117.961 59.133 117.943 59.146 117.924L61.0807 115.225H61.0786ZM64.7051 111.398L63.5286 110.04L61.5496 111.001L64.6185 114.213C64.7923 114.002 64.9346 113.766 65.0409 113.514C65.1387 113.282 65.1952 113.035 65.2077 112.783C65.2195 112.539 65.1829 112.295 65.1 112.065C65.012 111.819 64.8771 111.592 64.703 111.398H64.7051ZM50.0449 118.539C50.3329 118.713 50.6397 118.855 50.9594 118.961C51.3034 119.076 51.6568 119.16 52.0155 119.212C52.3979 119.27 52.7841 119.3 53.1708 119.301C53.5644 119.302 53.9575 119.275 54.3473 119.221L50.2413 116.503L48.2707 117.459L50.0407 118.539" fill="#FFEEAD"/>
</g>
<g opacity="0.5">
<path d="M152.785 81.7475C152.748 81.6555 152.688 81.5747 152.61 81.513L136.011 67.9385C135.919 67.8654 135.815 67.8102 135.703 67.7759C135.579 67.7349 135.45 67.7114 135.32 67.7062C135.183 67.6979 135.046 67.7064 134.911 67.7315C134.777 67.7554 134.647 67.7973 134.524 67.8561L111.244 79.1348C111.135 79.1871 111.035 79.2587 110.951 79.346C110.882 79.4144 110.831 79.4985 110.803 79.591C110.777 79.6742 110.777 79.7634 110.803 79.8466C110.838 79.938 110.897 80.0183 110.974 80.0789L127.436 93.8668C127.529 93.942 127.635 93.9993 127.748 94.0358C127.874 94.0772 128.005 94.102 128.137 94.1097C128.278 94.1186 128.42 94.1101 128.56 94.0843C128.696 94.059 128.828 94.0157 128.952 93.9555L152.367 82.4656C152.476 82.4132 152.575 82.3416 152.659 82.2544C152.727 82.1857 152.775 82.1005 152.8 82.0073C152.824 81.9214 152.819 81.8301 152.785 81.7475ZM138.816 83.5639H138.837C138.848 83.5675 138.859 83.5725 138.869 83.5787C138.859 83.5725 138.848 83.5675 138.837 83.5639H138.816ZM142.563 80.4654C142.563 80.4654 142.563 80.4654 142.563 80.4528C142.563 80.4401 142.563 80.4528 142.563 80.4654ZM142.525 80.4126C142.531 80.4172 142.536 80.423 142.54 80.4295C142.536 80.423 142.531 80.4172 142.525 80.4126L141.961 79.9543C141.942 79.9394 141.92 79.9274 141.898 79.9184C141.92 79.9274 141.942 79.9394 141.961 79.9543L142.525 80.4126ZM141.891 79.9163C141.863 79.907 141.834 79.9014 141.805 79.8994C141.836 79.901 141.866 79.9067 141.895 79.9163H141.891ZM129.578 81.5321C129.654 81.5483 129.732 81.5582 129.81 81.5616C129.733 81.5579 129.657 81.548 129.582 81.5321H129.578ZM140.423 78.9468C140.433 78.9325 140.441 78.9177 140.449 78.9025C140.441 78.9177 140.433 78.9325 140.423 78.9468C140.412 78.9617 140.398 78.9752 140.383 78.987C140.398 78.9752 140.412 78.9617 140.423 78.9468ZM140.364 78.6427C140.325 78.6144 140.28 78.5937 140.233 78.5814L138.053 77.8443L140.233 78.5814C140.28 78.5937 140.325 78.6144 140.364 78.6427ZM129.973 76.6235C129.994 76.5354 130.034 76.4527 130.089 76.3806C130.149 76.3007 130.22 76.2296 130.3 76.1694C130.39 76.1006 130.487 76.0412 130.589 75.992C130.7 75.9377 130.816 75.8938 130.936 75.861C130.816 75.8938 130.7 75.9377 130.589 75.992C130.487 76.0412 130.39 76.1006 130.3 76.1694C130.22 76.2296 130.149 76.3007 130.089 76.3806C130.034 76.4527 129.994 76.5354 129.973 76.6235C129.951 76.7095 129.951 76.7994 129.973 76.8854L130.942 80.8203C130.957 80.8778 130.957 80.9381 130.942 80.9956C130.928 81.0543 130.902 81.1096 130.866 81.1582C130.825 81.2122 130.778 81.2605 130.724 81.3018C130.664 81.3482 130.599 81.3886 130.53 81.4222C130.462 81.4549 130.391 81.4824 130.319 81.5046C130.242 81.5279 130.162 81.5449 130.082 81.5553C129.999 81.5659 129.915 81.5701 129.831 81.568C129.915 81.5701 129.999 81.5659 130.082 81.5553C130.162 81.5449 130.242 81.5279 130.319 81.5046C130.391 81.4824 130.462 81.4549 130.53 81.4222C130.599 81.3886 130.664 81.3482 130.724 81.3018C130.778 81.2605 130.825 81.2122 130.866 81.1582C130.902 81.1096 130.928 81.0543 130.942 80.9956C130.957 80.9381 130.957 80.8778 130.942 80.8203L129.973 76.8854C129.951 76.7994 129.951 76.7095 129.973 76.6235ZM125.748 76.9445C125.521 76.9486 125.295 76.9726 125.072 77.0164L124.971 77.0375L125.072 77.0164C125.296 76.971 125.524 76.9455 125.753 76.9403L125.748 76.9445ZM124.76 77.0924C124.663 77.1199 124.57 77.1515 124.477 77.1853C124.574 77.1473 124.667 77.1156 124.764 77.0882L124.76 77.0924ZM124.213 77.3036L124.19 77.3163L124.213 77.3036ZM124.236 79.684C123.995 79.611 123.77 79.4927 123.573 79.3355C123.41 79.2071 123.287 79.0349 123.218 78.8391C123.159 78.6608 123.159 78.4682 123.218 78.29C123.286 78.0878 123.402 77.9052 123.556 77.7577C123.634 77.6804 123.719 77.6097 123.809 77.5465C123.719 77.6097 123.634 77.6804 123.556 77.7577C123.402 77.9052 123.286 78.0878 123.218 78.29C123.159 78.4682 123.159 78.6608 123.218 78.8391C123.287 79.0349 123.41 79.2071 123.573 79.3355C123.77 79.4927 123.995 79.611 124.236 79.684C124.506 79.768 124.786 79.8156 125.068 79.8255C125.209 79.8337 125.35 79.8337 125.491 79.8255C125.35 79.8337 125.209 79.8337 125.068 79.8255C124.787 79.8118 124.508 79.7607 124.24 79.6734L124.236 79.684ZM125.256 82.2058C125.293 82.0958 125.349 81.9934 125.423 81.9038C125.503 81.8027 125.596 81.7131 125.7 81.6377C125.814 81.551 125.936 81.4759 126.065 81.4138C126.352 81.2783 126.659 81.1885 126.973 81.1477C127.139 81.1262 127.307 81.1184 127.474 81.1244C127.55 81.1244 127.624 81.1244 127.698 81.1413C127.624 81.1413 127.55 81.1265 127.474 81.1244C127.307 81.1184 127.139 81.1262 126.973 81.1477C126.659 81.1885 126.352 81.2783 126.065 81.4138C125.936 81.4759 125.814 81.551 125.7 81.6377C125.596 81.7137 125.503 81.8032 125.423 81.9038C125.349 81.9934 125.293 82.0958 125.256 82.2058C125.223 82.302 125.21 82.4042 125.218 82.5057C125.21 82.4004 125.224 82.2944 125.26 82.1953L125.256 82.2058ZM126.859 85.6169C126.827 85.6296 126.794 85.6395 126.76 85.6465C126.796 85.6364 126.83 85.6229 126.864 85.6063L126.859 85.6169ZM126.179 85.4247L125.284 82.7275L126.179 85.4247C126.186 85.4732 126.209 85.518 126.245 85.5514C126.208 85.5147 126.186 85.4658 126.183 85.4141L126.179 85.4247ZM126.291 85.5831C126.338 85.615 126.39 85.6372 126.445 85.6486C126.391 85.6335 126.34 85.6077 126.295 85.5725L126.291 85.5831ZM127.787 86.7616C127.794 86.7405 127.805 86.7211 127.82 86.7046C127.839 86.6855 127.861 86.6698 127.886 86.6582L141.627 79.9437L141.676 79.929L141.627 79.9437L127.886 86.6582C127.861 86.6698 127.839 86.6855 127.82 86.7046C127.805 86.7211 127.794 86.7405 127.787 86.7616C127.783 86.7741 127.783 86.7872 127.787 86.7997C127.785 86.7868 127.786 86.7738 127.791 86.7616H127.787ZM127.827 86.8715C127.814 86.8597 127.803 86.8462 127.795 86.8313C127.803 86.8462 127.814 86.8597 127.827 86.8715L128.188 87.1714L127.827 86.8715ZM129.423 88.124C129.429 88.103 129.44 88.084 129.455 88.069C129.474 88.0491 129.496 88.0326 129.521 88.0205L138.582 83.5935C138.61 83.5799 138.639 83.5707 138.67 83.566C138.639 83.5707 138.61 83.5799 138.582 83.5935L129.535 88.0184C129.511 88.0305 129.489 88.047 129.47 88.0669C129.454 88.0819 129.443 88.1009 129.438 88.1218C129.432 88.1403 129.432 88.1604 129.438 88.1789C129.426 88.1592 129.423 88.1358 129.428 88.1134L129.423 88.124ZM129.464 88.2338C129.451 88.2232 129.44 88.2103 129.432 88.1958C129.44 88.2103 129.451 88.2232 129.464 88.2338L130.021 88.6985C130.032 88.7056 130.043 88.7119 130.055 88.7175C130.043 88.7119 130.032 88.7056 130.021 88.6985L129.464 88.2338ZM130.097 88.7386C130.123 88.7457 130.149 88.7507 130.175 88.7534C130.151 88.7469 130.127 88.7384 130.103 88.728L130.097 88.7386Z" fill="#47CA41"/>
<path d="M125.974 79.749C126.271 79.6919 126.56 79.5967 126.834 79.466C127.075 79.3517 127.297 79.1982 127.488 79.0119C127.642 78.8634 127.758 78.6801 127.826 78.4775C127.883 78.2997 127.883 78.1084 127.826 77.9305C127.756 77.735 127.632 77.563 127.469 77.4342C127.273 77.2772 127.047 77.1596 126.806 77.0878C126.537 77.0027 126.257 76.9544 125.974 76.9441C125.673 76.9329 125.372 76.9563 125.076 77.0138C124.779 77.0703 124.49 77.1647 124.217 77.2948C123.975 77.4084 123.753 77.5619 123.562 77.7489C123.408 77.8963 123.292 78.079 123.224 78.2811C123.165 78.4594 123.165 78.652 123.224 78.8303C123.293 79.0261 123.416 79.1982 123.579 79.3266C123.776 79.4839 124.001 79.6022 124.242 79.6751C124.512 79.7592 124.792 79.8068 125.074 79.8166C125.376 79.8285 125.678 79.8058 125.974 79.749Z" fill="#9BEB7F"/>
<path d="M139.466 84.0654L138.907 83.6028C138.886 83.5866 138.862 83.5744 138.837 83.5669C138.809 83.5567 138.78 83.5509 138.75 83.55C138.72 83.5458 138.69 83.5458 138.659 83.55C138.629 83.5547 138.599 83.5639 138.571 83.5775L129.525 88.0024C129.5 88.0145 129.478 88.031 129.459 88.0509C129.444 88.0659 129.433 88.0849 129.427 88.1058C129.42 88.1241 129.42 88.1446 129.427 88.1629C129.435 88.1839 129.448 88.2022 129.465 88.2157L130.023 88.6803C130.043 88.6979 130.067 88.7109 130.093 88.7184C130.121 88.7272 130.15 88.7329 130.179 88.7353C130.21 88.7394 130.241 88.7394 130.272 88.7353C130.302 88.7296 130.331 88.7204 130.359 88.7078L139.409 84.2724C139.434 84.2612 139.456 84.2454 139.475 84.2259C139.489 84.2099 139.5 84.1912 139.506 84.171C139.512 84.1523 139.512 84.1326 139.506 84.114C139.497 84.0947 139.483 84.0781 139.466 84.0654Z" fill="#9BEB7F"/>
<path d="M140.422 78.9473C140.455 78.9077 140.472 78.8573 140.471 78.8058C140.466 78.756 140.443 78.7096 140.407 78.6749C140.358 78.6294 140.297 78.5974 140.232 78.5819L132.115 75.8362C131.985 75.7993 131.852 75.776 131.718 75.7665C131.584 75.7549 131.45 75.7549 131.317 75.7665C131.187 75.7811 131.06 75.8059 130.934 75.8404C130.815 75.8732 130.699 75.917 130.588 75.9714C130.486 76.0206 130.389 76.08 130.299 76.1488C130.219 76.209 130.148 76.2801 130.087 76.36C130.032 76.4321 129.993 76.5148 129.971 76.6029C129.95 76.6889 129.95 76.7788 129.971 76.8648L130.941 80.7997C130.955 80.8572 130.955 80.9175 130.941 80.975C130.926 81.0337 130.901 81.089 130.865 81.1376C130.824 81.1916 130.777 81.2399 130.723 81.2812C130.662 81.3276 130.597 81.3679 130.529 81.4016C130.461 81.4343 130.39 81.4618 130.318 81.484C130.24 81.5073 130.161 81.5243 130.081 81.5347C129.914 81.5579 129.744 81.5515 129.578 81.5157L127.986 81.1608C127.82 81.1251 127.651 81.1039 127.481 81.0975C127.314 81.0914 127.146 81.0992 126.98 81.1207C126.666 81.1616 126.359 81.2514 126.072 81.3868C125.943 81.449 125.821 81.524 125.707 81.6107C125.603 81.6867 125.51 81.7762 125.43 81.8768C125.357 81.9665 125.3 82.0689 125.263 82.1789C125.227 82.2832 125.215 82.3944 125.227 82.5041L126.186 85.3977C126.19 85.4256 126.199 85.4525 126.213 85.4768C126.227 85.5011 126.246 85.5223 126.269 85.5392C126.323 85.5804 126.386 85.6085 126.452 85.6216C126.531 85.6387 126.611 85.643 126.691 85.6343C126.776 85.6255 126.858 85.6019 126.934 85.5646L140.27 79.0719C140.33 79.043 140.382 79.0003 140.422 78.9473Z" fill="#9BEB7F"/>
<path d="M142.563 80.4637C142.556 80.4431 142.543 80.4248 142.525 80.4109L141.962 79.9526C141.941 79.935 141.917 79.9221 141.892 79.9146C141.864 79.9053 141.835 79.8996 141.805 79.8977C141.775 79.8935 141.745 79.8935 141.714 79.8977C141.685 79.9037 141.656 79.9129 141.628 79.9251L127.886 86.6395C127.862 86.6512 127.84 86.6669 127.821 86.686C127.806 86.7025 127.794 86.7219 127.787 86.743C127.782 86.7617 127.782 86.7814 127.787 86.8001C127.795 86.8207 127.808 86.8389 127.825 86.8529L128.383 87.3154C128.403 87.333 128.427 87.3459 128.452 87.3534C128.48 87.3627 128.51 87.3684 128.539 87.3703C128.569 87.3745 128.6 87.3745 128.63 87.3703C128.661 87.365 128.691 87.355 128.719 87.3408L142.464 80.6221C142.488 80.6099 142.509 80.5943 142.528 80.5757C142.543 80.5603 142.555 80.5414 142.561 80.5208C142.568 80.5025 142.569 80.4824 142.563 80.4637Z" fill="#9BEB7F"/>
<path d="M152.885 82.9155V82.8902L152.813 81.8658C152.816 81.8932 152.816 81.9208 152.813 81.9482C152.81 81.9755 152.805 82.0025 152.796 82.0284C152.786 82.0552 152.775 82.0813 152.762 82.1066C152.748 82.1329 152.733 82.1583 152.716 82.1826C152.696 82.2081 152.675 82.232 152.652 82.2544L152.585 82.3157L152.572 82.3263L152.49 82.3833L152.473 82.3938C152.441 82.4129 152.409 82.4319 152.376 82.4488L128.95 93.9429C128.889 93.9726 128.826 93.998 128.762 94.0189C128.697 94.0403 128.631 94.0565 128.564 94.0675C128.494 94.0804 128.423 94.0888 128.352 94.0928C128.282 94.0972 128.212 94.0972 128.141 94.0928C128.07 94.0893 128 94.0808 127.93 94.0675C127.871 94.0565 127.813 94.0416 127.757 94.0231L127.712 94.0084L127.674 93.9936L127.619 93.9682L127.586 93.9513C127.566 93.9428 127.548 93.9322 127.531 93.9196L127.503 93.9049L127.429 93.8499L110.968 80.0621C110.939 80.04 110.912 80.0145 110.889 79.986C110.868 79.9601 110.848 79.9326 110.83 79.9037C110.815 79.8762 110.803 79.8471 110.794 79.8171C110.785 79.789 110.778 79.76 110.775 79.7305L110.864 80.7506C110.872 80.8119 110.89 80.8713 110.919 80.9259C110.955 80.9864 111.002 81.04 111.056 81.0843L127.512 94.8764L127.586 94.9313L127.609 94.944C127.626 94.9558 127.645 94.9664 127.664 94.9757L127.687 94.9863L127.744 95.0116H127.759H127.782L127.81 95.0222H127.824L127.862 95.0348H127.896H127.93H127.964H127.998H128.027H128.057H128.086H128.116H128.143H128.494H128.519H128.547H128.576H128.606H128.627H128.657H128.69H128.722H128.756L128.787 95.0243H128.804H128.828L128.874 95.0074L128.918 94.9905L128.963 94.9694L152.437 83.4837L152.504 83.4478L152.534 83.4288L152.553 83.4182H152.568C152.587 83.4058 152.606 83.3925 152.625 83.3781L152.656 83.3506L152.686 83.3253L152.699 83.3084L152.724 83.2809L152.747 83.2535L152.762 83.2345L152.775 83.2133L152.787 83.1922V83.1774C152.788 83.1711 152.788 83.1647 152.787 83.1584V83.1415V83.1225V83.1056C152.787 83.1015 152.787 83.0971 152.787 83.093C152.786 83.0874 152.786 83.0816 152.787 83.0761C152.787 83.0761 152.787 83.0634 152.787 83.0592C152.787 83.0549 152.787 83.0465 152.787 83.0423C152.788 83.0367 152.788 83.0309 152.787 83.0254C152.788 83.0198 152.788 83.0141 152.787 83.0085C152.786 83.0029 152.786 82.9972 152.787 82.9916V82.9683L152.885 82.9155Z" fill="#159F0E"/>
</g>
<g opacity="0.5">
<path d="M30.626 76.4692C30.8326 76.3705 31.0514 76.2995 31.2765 76.258C31.5021 76.2166 31.7319 76.2025 31.9609 76.2158C32.1763 76.2276 32.3893 76.2674 32.5945 76.3341C32.7828 76.3937 32.9588 76.4867 33.1141 76.6086L40.6945 82.8077C40.8248 82.91 40.9261 83.0447 40.988 83.1984C41.0377 83.3339 41.0443 83.4814 41.0071 83.6209C40.964 83.7757 40.8818 83.9168 40.7684 84.0306C40.6279 84.1736 40.4635 84.2908 40.2826 84.377L18.3652 95.1128C18.156 95.2124 17.9343 95.2835 17.7062 95.3241C17.4779 95.3664 17.2452 95.3806 17.0134 95.3663C16.7928 95.3549 16.5747 95.3137 16.365 95.2438C16.1756 95.1853 15.9988 95.0922 15.8433 94.9692L8.32421 88.6688C8.1959 88.566 8.09805 88.4302 8.04119 88.2759C7.99362 88.1398 7.9892 87.9923 8.02851 87.8535C8.0747 87.694 8.16042 87.5487 8.27774 87.4311C8.42059 87.2881 8.58708 87.1709 8.76986 87.0847L30.626 76.4692ZM19.8141 91.2751C20.2476 91.0725 20.6411 90.7935 20.9758 90.4514C21.2468 90.1801 21.4457 89.8454 21.5545 89.4777C21.6479 89.1442 21.6353 88.79 21.5186 88.4639C21.3785 88.0992 21.1428 87.779 20.8364 87.5367C20.4735 87.2449 20.0605 87.0216 19.6177 86.8777C19.1255 86.7166 18.6141 86.6215 18.097 86.5947C17.552 86.5633 17.0053 86.5973 16.4685 86.6961C15.9339 86.7926 15.4147 86.9602 14.9246 87.1945C14.4921 87.3971 14.0988 87.6745 13.7629 88.014C13.4908 88.286 13.2905 88.6213 13.18 88.9898C13.084 89.3219 13.0943 89.6757 13.2095 90.0015C13.3477 90.3667 13.5819 90.6878 13.8875 90.9309C14.252 91.2243 14.6672 91.4483 15.1125 91.592C15.6064 91.7551 16.1201 91.8511 16.6396 91.8771C17.1859 91.9085 17.734 91.8745 18.2723 91.7757C18.8085 91.6795 19.3293 91.5111 19.8204 91.2751H19.8141ZM34.544 80.0598L33.4098 79.1284C33.4018 79.1211 33.3925 79.1154 33.3823 79.1115H33.3443H33.3063C33.2936 79.1135 33.2815 79.1178 33.2704 79.1242L20.2703 85.4647L20.2429 85.4837C20.2362 85.4902 20.2311 85.4982 20.2281 85.507C20.2259 85.5153 20.2259 85.524 20.2281 85.5323C20.2324 85.5403 20.2381 85.5475 20.245 85.5534L21.3686 86.4849C21.3871 86.4999 21.4102 86.5081 21.4341 86.5081H21.4742C21.4869 86.5061 21.4991 86.5018 21.5101 86.4954L34.5165 80.1591L34.5419 80.1401C34.5489 80.1339 34.5541 80.1259 34.5567 80.1169C34.5582 80.1132 34.559 80.1092 34.559 80.1052C34.559 80.1012 34.5582 80.0973 34.5567 80.0936C34.5538 80.0842 34.5478 80.076 34.5398 80.0704L34.544 80.0598ZM36.8905 81.9966L35.7606 81.0694L35.731 81.0546C35.7191 81.0524 35.707 81.0524 35.6951 81.0546C35.6825 81.0525 35.6697 81.0525 35.6571 81.0546H35.619L22.6084 87.3973L22.5789 87.4163C22.5735 87.4234 22.5692 87.4312 22.5662 87.4395C22.564 87.4479 22.564 87.4566 22.5662 87.4649C22.5692 87.4737 22.5752 87.4811 22.5831 87.486L23.7088 88.4217C23.718 88.4279 23.728 88.4328 23.7384 88.4365C23.7503 88.4386 23.7625 88.4386 23.7743 88.4365C23.7876 88.4385 23.8012 88.4385 23.8145 88.4365C23.8243 88.433 23.8336 88.428 23.8419 88.4217L36.8652 82.0853C36.8747 82.0815 36.8834 82.0758 36.8906 82.0685C36.8979 82.0613 36.9036 82.0526 36.9074 82.0431C36.9095 82.0348 36.9095 82.0261 36.9074 82.0178C36.9038 82.0093 36.898 82.002 36.8905 81.9966Z" fill="#D96764"/>
<path d="M20.2285 85.526C20.2263 85.5177 20.2263 85.5089 20.2285 85.5006C20.2315 85.4918 20.2366 85.4839 20.2433 85.4774L20.2707 85.4584L33.2708 79.122C33.2818 79.1156 33.294 79.1113 33.3067 79.1094H33.3468H33.3848C33.3949 79.1132 33.4043 79.119 33.4123 79.1263L34.5401 80.0493C34.5482 80.0549 34.5541 80.0631 34.557 80.0725C34.5586 80.0762 34.5594 80.0801 34.5594 80.0841C34.5594 80.0881 34.5586 80.0921 34.557 80.0957C34.5545 80.1047 34.5493 80.1128 34.5423 80.119L34.5169 80.138L21.519 86.487C21.5079 86.4934 21.4957 86.4977 21.4831 86.4997H21.4345C21.4106 86.4997 21.3875 86.4915 21.369 86.4764L20.2517 85.5471C20.2425 85.5418 20.2346 85.5346 20.2285 85.526ZM36.9142 82.0072C36.9105 81.9988 36.9047 81.9915 36.8973 81.9861L35.7673 81.0589L35.7377 81.0441C35.7258 81.0419 35.7137 81.0419 35.7018 81.0441C35.6892 81.042 35.6764 81.042 35.6638 81.0441H35.6258L22.6088 87.3973L22.5793 87.4163C22.5739 87.4234 22.5696 87.4312 22.5666 87.4395C22.5644 87.4479 22.5644 87.4566 22.5666 87.4649C22.5696 87.4737 22.5756 87.4811 22.5835 87.486L23.7092 88.4217C23.7184 88.4279 23.7284 88.4328 23.7388 88.4365C23.7507 88.4386 23.7628 88.4386 23.7747 88.4365C23.788 88.4385 23.8015 88.4385 23.8148 88.4365C23.8247 88.4329 23.8339 88.428 23.8423 88.4217L36.8656 82.0853C36.8751 82.0815 36.8838 82.0758 36.891 82.0685C36.8983 82.0613 36.904 82.0526 36.9078 82.0431C36.9113 82.0313 36.9106 82.0185 36.9057 82.0072H36.9142ZM20.8389 87.5367C20.4754 87.2447 20.0617 87.0214 19.6181 86.8777C19.1259 86.7166 18.6145 86.6215 18.0973 86.5947C17.5524 86.5633 17.0057 86.5973 16.4689 86.6961C15.9343 86.7926 15.4151 86.9602 14.925 87.1945C14.4925 87.3971 14.0992 87.6745 13.7633 88.014C13.4912 88.286 13.2909 88.6213 13.1803 88.9898C13.0844 89.3219 13.0947 89.6757 13.2099 90.0015C13.3481 90.3667 13.5823 90.6878 13.8879 90.9309C14.2524 91.2243 14.6676 91.4483 15.1129 91.592C15.6068 91.7551 16.1205 91.8511 16.64 91.8771C17.1863 91.9085 17.7344 91.8745 18.2727 91.7757C18.8089 91.6795 19.3297 91.5111 19.8208 91.2751C20.2543 91.0725 20.6478 90.7935 20.9825 90.4514C21.2512 90.1794 21.4479 89.8448 21.5549 89.4777C21.6483 89.1442 21.6357 88.79 21.519 88.4639C21.3794 88.0995 21.1446 87.7793 20.8389 87.5367Z" fill="#FEADB3"/>
<path d="M41.1116 84.4355V84.4101L41.0398 83.3984C41.044 83.4434 41.044 83.4887 41.0398 83.5336C41.034 83.5788 41.0241 83.6233 41.0102 83.6667C40.9952 83.7119 40.9761 83.7558 40.9532 83.7976C40.9293 83.8427 40.9017 83.8858 40.8708 83.9265C40.8394 83.9691 40.8048 84.0094 40.7673 84.0469C40.7314 84.0806 40.6934 84.1144 40.6512 84.1482L40.63 84.1672C40.5878 84.1989 40.5434 84.2306 40.4949 84.2623L40.4632 84.2813C40.4114 84.3138 40.3578 84.3434 40.3027 84.37L18.3641 95.1143L18.2142 95.1798H18.1973L18.0537 95.2326H18.0346L17.8805 95.277C17.8256 95.2896 17.7706 95.3023 17.7157 95.3108C17.6608 95.3213 17.6038 95.3298 17.5468 95.3361C17.4897 95.3361 17.4327 95.3488 17.3778 95.353C17.3208 95.353 17.2658 95.353 17.2088 95.353C17.1518 95.353 17.0948 95.353 17.0398 95.353C16.9849 95.353 16.93 95.353 16.8751 95.3382C16.8202 95.3382 16.7674 95.3234 16.7125 95.3129L16.5583 95.2791L16.459 95.2495L16.3597 95.2157L16.2985 95.1904L16.2034 95.1502L16.1485 95.1228C16.1147 95.1059 16.0852 95.0869 16.0556 95.07L16.0112 95.0425C15.9681 95.0145 15.9265 94.9841 15.8866 94.9517L8.32315 88.6703C8.27637 88.6299 8.2326 88.5861 8.1922 88.5393C8.15586 88.4965 8.12335 88.4506 8.09505 88.402C8.06866 88.3559 8.04741 88.307 8.03168 88.2563C8.03168 88.231 8.01901 88.2077 8.01267 88.1824C8.00634 88.157 8.01267 88.1317 8.01267 88.1063H8L8.0866 89.118C8.09588 89.2222 8.12758 89.323 8.17953 89.4137C8.20711 89.4627 8.23967 89.5087 8.27669 89.551C8.31656 89.5983 8.36037 89.6421 8.40764 89.682L15.9246 95.9803C15.9627 96.012 16.0049 96.0415 16.0472 96.0711C16.0596 96.0774 16.0716 96.0844 16.0831 96.0922L16.176 96.145H16.1929L16.233 96.164L16.3259 96.2042L16.3513 96.2168L16.3893 96.2295L16.4358 96.2464L16.4865 96.2633L16.5224 96.2739L16.5794 96.2908H16.5942H16.6364L16.6935 96.3034L16.7484 96.314H16.797H16.8476H16.8962H16.9131H16.9469H16.9913H17.0377H17.439H17.4834H17.5299H17.5742H17.5974H17.6207H17.665H17.7136H17.7622H17.777H17.8108H17.8572L17.9121 96.3013H17.9396H17.9586L18.0135 96.2865L18.0684 96.2718H18.0938H18.1128H18.1466L18.2247 96.2422L18.2564 96.2295H18.2754H18.3008L18.3747 96.1957H18.3874H18.4H18.4127L40.328 85.4662L40.4421 85.4049L40.4906 85.3754L40.5202 85.3564L40.5477 85.3395C40.5815 85.3183 40.6131 85.2951 40.6448 85.2719H40.6575L40.6723 85.2613L40.7251 85.217C40.7423 85.2026 40.7585 85.1871 40.7737 85.1705L40.7863 85.1578L40.8096 85.1325L40.8518 85.086L40.8898 85.0374L40.9131 85.0036L40.9363 84.9698L40.9553 84.9339C40.961 84.926 40.966 84.9175 40.9701 84.9086C40.9701 84.9086 40.9806 84.8875 40.9849 84.879L40.9975 84.8495L41.0102 84.8178C41.015 84.8084 41.0185 84.7985 41.0208 84.7882V84.7692C41.0217 84.7594 41.0217 84.7495 41.0208 84.7396V84.7122C41.0218 84.703 41.0218 84.6938 41.0208 84.6847C41.0216 84.6756 41.0216 84.6664 41.0208 84.6573C41.0208 84.6573 41.0208 84.6425 41.0208 84.634C41.0196 84.6249 41.0196 84.6157 41.0208 84.6066V84.5495L41.1116 84.4355Z" fill="#CB2725"/>
</g>
<path d="M140.383 93.6487C140.893 94.0464 141.291 94.5706 141.536 95.1694C141.737 95.701 141.768 96.2817 141.625 96.8316C141.462 97.4342 141.15 97.9858 140.716 98.4347C140.181 98.9937 139.548 99.4509 138.849 99.7844L102.356 117.862C101.553 118.253 100.7 118.533 99.8216 118.694C98.9367 118.858 98.0354 118.914 97.1371 118.861C96.2818 118.814 95.4365 118.654 94.6236 118.384C93.8859 118.144 93.1985 117.77 92.596 117.281L28.0435 63.1477C27.5618 62.7617 27.1963 62.25 26.9874 61.6692C26.812 61.149 26.8038 60.5869 26.9642 60.0619C27.1528 59.4747 27.482 58.9425 27.9231 58.5116C28.4712 57.9732 29.1077 57.5331 29.805 57.2105L65.7701 39.9651C66.5527 39.5957 67.3808 39.3315 68.2328 39.1794C69.0887 39.0235 69.9599 38.9689 70.8286 39.0168C71.6534 39.0568 72.4693 39.2052 73.2554 39.4582C73.9649 39.6792 74.6278 40.0286 75.2112 40.4889L140.383 93.6487Z" fill="#DCE0E5"/>
<path d="M136.995 96.1747C137.007 96.1621 137.016 96.1494 137.026 96.1367L136.963 96.2064C136.963 96.2064 136.986 96.1853 136.995 96.1747Z" fill="#DEDEDE"/>
<path d="M136.765 92.9519C137.11 93.2189 137.378 93.5723 137.542 93.9762C137.679 94.3308 137.702 94.7187 137.61 95.0872C137.555 95.2962 137.471 95.4962 137.359 95.6807L137.318 95.742C137.31 95.7572 137.301 95.772 137.291 95.7863C137.28 95.8047 137.268 95.8224 137.255 95.8391V95.8518L137.223 95.894L137.179 95.9468L137.168 95.961C137.141 95.9981 137.114 96.0337 137.084 96.0693L137.027 96.1306C136.997 96.1643 136.97 96.1919 136.945 96.2172L136.93 96.232L136.964 96.2003C136.921 96.2446 136.875 96.289 136.828 96.3333L136.809 96.3502L136.776 96.3819L136.697 96.4516L136.731 96.4326L136.719 96.4432L136.649 96.5002L136.609 96.534L136.539 96.5889L136.467 96.6417L136.381 96.703H136.393C136.351 96.7325 136.302 96.7663 136.269 96.7896C136.235 96.8128 136.197 96.8339 136.163 96.855L136.034 96.9311L136.072 96.91C136.028 96.9374 135.981 96.9628 135.935 96.9881H135.92L135.825 97.0388L135.736 97.0853L99.0215 115.245L98.9307 115.287L98.842 115.33L98.7786 115.357L98.6582 115.408L98.5252 115.461L98.5548 115.448C98.5125 115.465 98.4703 115.484 98.428 115.499L98.2696 115.554L98.1218 115.6L98.1703 115.587L98.0141 115.634H97.9908L97.8831 115.666L97.8409 115.676L97.8028 115.687H97.7817L97.7374 115.697H97.7796L97.7162 115.712L97.6571 115.725H97.6275C97.5522 115.744 97.4751 115.76 97.3994 115.775L97.3783 115.78L97.2283 115.807H97.2558L97.146 115.828L96.9348 115.858L96.789 115.877H96.8482L96.6855 115.892H96.6433L96.4954 115.904C96.1712 115.925 95.846 115.925 95.5218 115.904C94.9468 115.872 94.3787 115.764 93.8321 115.583C93.3347 115.421 92.8715 115.169 92.4655 114.84L31.5733 63.83C31.3617 63.6556 31.1798 63.4481 31.0347 63.2154C30.908 63.0108 30.8226 62.7833 30.7834 62.5459C30.7471 62.3154 30.7565 62.08 30.8108 61.8531C30.8707 61.6108 30.9706 61.3802 31.1065 61.1709L31.1403 61.1181L31.1762 61.0674L31.2121 61.0146L31.2522 60.9639L31.3135 60.89L31.3642 60.8308L31.4085 60.7801L31.4508 60.7337L31.5353 60.6513L31.6029 60.5858L31.6578 60.533L31.7106 60.4887L31.7993 60.4147L31.8753 60.3535L31.9471 60.2986L32.0168 60.2479L32.1182 60.1824L32.1985 60.1296L32.2639 60.0874L32.3252 60.0515L32.4604 59.9733L32.5702 59.9121L32.6589 59.8571L32.7455 59.8128L44.6705 54.0869L68.9598 42.4132L69.0464 42.3731L69.3125 42.259L69.4456 42.2104L69.547 42.1724L69.6294 42.1429L69.8511 42.071L69.9757 42.0351L70.0813 42.0056L70.1764 41.9802L70.2947 41.9528L70.3961 41.9295L70.4848 41.9126L70.5671 41.8957L70.7129 41.8704L70.8269 41.8514L70.9177 41.8366L70.998 41.826L71.1353 41.8113L71.2472 41.7986H71.4329L71.4225 41.7901C71.7917 41.7627 72.1623 41.7627 72.5314 41.7901C72.8874 41.8176 73.2406 41.8741 73.5875 41.9591C73.9135 42.0406 74.2311 42.1531 74.5358 42.2949C74.8179 42.4249 75.0832 42.5887 75.3257 42.7828L136.765 92.9519Z" fill="white"/>
<path d="M97.3368 115.79L97.3938 115.777L97.2734 115.798L97.3368 115.79Z" fill="#DEDEDE"/>
<path d="M83.0706 53.4677C83.3455 53.3829 83.6288 53.3284 83.9155 53.3051C84.1968 53.2801 84.4799 53.2843 84.7603 53.3178C85.0266 53.3482 85.2883 53.4106 85.5397 53.5036C85.7685 53.5873 85.9824 53.7071 86.1733 53.8585L112.013 74.9796C112.179 75.1107 112.313 75.2775 112.406 75.4675C112.485 75.633 112.517 75.8172 112.499 75.9998C112.478 76.1903 112.411 76.3729 112.304 76.532C112.179 76.7196 112.02 76.8828 111.836 77.0136L74.4891 95.3319C73.9313 95.5046 73.3431 95.5572 72.7635 95.4861C72.4924 95.4549 72.2263 95.3896 71.9715 95.2918C71.7421 95.2083 71.5281 95.0877 71.3378 94.9349L45.6989 73.4758C45.5366 73.3456 45.4071 73.1792 45.3208 72.99C45.2461 72.8239 45.2191 72.6404 45.2427 72.4599C45.2706 72.2697 45.3429 72.0888 45.4539 71.9318C45.585 71.7457 45.7472 71.5835 45.9333 71.4524L83.0706 53.4677Z" fill="#D9DFEA"/>
<path d="M142.037 101.215C142.037 101.185 142.037 101.156 142.037 101.126V101.095C142.038 101.08 142.038 101.066 142.037 101.052V101.012C142.037 100.997 142.037 100.983 142.037 100.97L141.718 95.9875C141.718 96.0719 141.718 96.1564 141.718 96.243C141.718 96.3275 141.718 96.4099 141.697 96.4944C141.697 96.4944 141.697 96.507 141.697 96.5134C141.697 96.5936 141.672 96.6739 141.655 96.7542C141.655 96.7542 141.655 96.7647 141.655 96.771C141.636 96.8552 141.614 96.9384 141.587 97.0203V97.0329C141.562 97.1132 141.532 97.1935 141.498 97.2737C141.499 97.2815 141.499 97.2892 141.498 97.297C141.467 97.373 141.433 97.4469 141.393 97.523L141.374 97.5589C141.336 97.6328 141.294 97.7067 141.249 97.7701L141.228 97.8018C141.182 97.8757 141.133 97.9496 141.08 98.013L141.044 98.0594C141 98.1186 140.953 98.1777 140.905 98.2347L140.846 98.3044C140.799 98.3573 140.753 98.41 140.704 98.4607L140.645 98.5241C140.575 98.5938 140.504 98.6635 140.434 98.7353C140.364 98.8071 140.235 98.9064 140.13 98.9909L140.03 99.0648C139.952 99.1239 139.874 99.181 139.792 99.238L139.669 99.3204C139.585 99.3753 139.498 99.4281 139.407 99.4809L139.289 99.5527C139.16 99.6266 139.027 99.6984 138.886 99.7639L102.367 117.856C102.179 117.949 101.989 118.034 101.795 118.114L101.725 118.141C101.544 118.213 101.36 118.281 101.172 118.353L101.1 118.378C100.904 118.439 100.705 118.498 100.504 118.549H100.471C100.259 118.602 100.048 118.648 99.837 118.686H99.818C99.6067 118.726 99.3955 118.76 99.1674 118.788H99.1442C98.933 118.815 98.7091 118.834 98.4915 118.849H98.4683C98.2571 118.862 98.0311 118.87 97.8136 118.87H97.7967C97.5854 118.87 97.3573 118.87 97.1398 118.851C96.9286 118.838 96.7174 118.817 96.5061 118.792H96.4808C96.2696 118.764 96.0584 118.733 95.8472 118.695C95.636 118.657 95.4438 118.61 95.2473 118.56H95.222C95.0235 118.507 94.827 118.45 94.6369 118.384C94.5313 118.348 94.4257 118.31 94.3286 118.27L94.2314 118.232L94.0202 118.146C93.9822 118.131 93.9442 118.112 93.9083 118.095C93.8724 118.078 93.7879 118.04 93.7308 118.01L93.6168 117.953L93.4499 117.863L93.3422 117.801L93.1796 117.702L93.0803 117.639L92.9113 117.523L92.8332 117.466C92.7529 117.406 92.6748 117.345 92.5987 117.282L28.0504 63.142C27.8752 62.9962 27.7127 62.8359 27.5647 62.6625C27.4291 62.5046 27.3089 62.3342 27.2056 62.1535C27.1101 61.9843 27.0315 61.806 26.9712 61.6213C26.9152 61.4433 26.8783 61.26 26.8613 61.0742L27.3175 66.0123C27.3341 66.1983 27.3716 66.3819 27.4295 66.5594C27.4874 66.7447 27.5653 66.9232 27.6618 67.0916C27.7646 67.2733 27.8848 67.4445 28.0209 67.6028C28.1687 67.7755 28.3305 67.9359 28.5046 68.0822L92.9874 122.266C93.0634 122.33 93.1416 122.391 93.2218 122.45L93.3 122.507L93.4689 122.623L93.4985 122.644L93.5682 122.687C93.621 122.72 93.6738 122.754 93.7308 122.786L93.8386 122.847L94.0054 122.938L94.0667 122.972L94.1174 122.995L94.2948 123.082L94.4067 123.132L94.6179 123.217L94.6961 123.249H94.7151C94.8165 123.287 94.9263 123.325 95.0235 123.36C95.1333 123.398 95.2452 123.434 95.3593 123.468L95.5705 123.529H95.6022H95.6275L95.7923 123.57C95.8662 123.589 95.9401 123.605 96.0161 123.62L96.2274 123.665H96.2443L96.4343 123.698L96.6265 123.728L96.8187 123.755H96.8631H96.8884L97.0131 123.77L97.1905 123.787L97.3658 123.802L97.5263 123.815H97.5432H97.7206H97.8917H98.0649H98.4092H98.5781H98.7492H98.859H98.8781H98.9203C98.9766 123.815 99.0337 123.81 99.0914 123.802L99.2667 123.787L99.442 123.768L99.5307 123.758H99.5518H99.6173L99.7926 123.734L99.9785 123.705L100.158 123.694H100.194L100.325 123.671L100.509 123.631L100.72 123.582L100.823 123.557H100.857L100.933 123.538L101.144 123.481L101.356 123.417L101.455 123.384L101.527 123.36L101.658 123.318C101.759 123.284 101.858 123.246 101.958 123.208L102.08 123.16L102.15 123.132L102.249 123.09C102.346 123.05 102.443 123.008 102.538 122.963L102.583 122.94L102.629 122.919L102.674 122.898L102.72 122.875L139.167 104.789C139.306 104.719 139.439 104.647 139.57 104.577C139.582 104.571 139.594 104.564 139.606 104.556C139.636 104.542 139.661 104.523 139.688 104.508C139.777 104.455 139.864 104.4 139.948 104.345L140.011 104.305C140.033 104.292 140.049 104.278 140.071 104.263C140.153 104.206 140.231 104.149 140.309 104.09L140.381 104.039L140.406 104.016L140.444 103.988C140.537 103.912 140.626 103.838 140.711 103.76C140.774 103.703 140.837 103.644 140.896 103.585L140.924 103.555L140.983 103.492L141.068 103.403C141.088 103.382 141.107 103.359 141.125 103.335L141.186 103.266L141.226 103.219C141.26 103.177 141.291 103.133 141.323 103.09L141.353 103.055V103.044L141.363 103.031L141.454 102.898L141.501 102.824L141.522 102.793L141.539 102.765C141.566 102.719 141.593 102.674 141.617 102.628C141.628 102.61 141.638 102.592 141.646 102.573L141.665 102.535C141.674 102.522 141.682 102.508 141.688 102.493C141.708 102.455 141.727 102.415 141.743 102.377C141.76 102.339 141.762 102.332 141.771 102.311C141.774 102.303 141.777 102.295 141.781 102.288C141.782 102.279 141.782 102.27 141.781 102.26C141.798 102.22 141.813 102.182 141.828 102.142L141.86 102.047V102.024C141.872 101.988 141.883 101.952 141.893 101.914C141.904 101.876 141.912 101.842 141.921 101.804C141.921 101.785 141.921 101.785 141.921 101.766C141.921 101.743 141.921 101.718 141.936 101.694L141.955 101.585C141.954 101.566 141.954 101.547 141.955 101.528C141.953 101.521 141.953 101.513 141.955 101.506C141.954 101.497 141.954 101.487 141.955 101.477C141.955 101.443 141.955 101.407 141.955 101.371C141.957 101.335 141.957 101.299 141.955 101.264V101.247L142.037 101.215Z" fill="#BEC1C7"/>
<path d="M119.073 72.955V72.936C119.074 72.9297 119.074 72.9233 119.073 72.917V72.898L118.957 71.2421C118.963 71.3074 118.963 71.3732 118.957 71.4385C118.948 71.5043 118.934 71.5693 118.914 71.6328C118.894 71.6983 118.868 71.7619 118.836 71.8229C118.802 71.8879 118.764 71.9501 118.72 72.0088C118.675 72.0699 118.625 72.1278 118.572 72.182L118.559 72.1946C118.507 72.2471 118.452 72.2965 118.395 72.3425L118.365 72.3678C118.302 72.4177 118.237 72.4642 118.169 72.5072L118.122 72.5347C118.048 72.579 117.972 72.6234 117.89 72.6635L81.4137 90.5658C81.3447 90.5996 81.2743 90.6313 81.2025 90.6608L81.1771 90.6714C81.1095 90.6988 81.0398 90.7242 80.9659 90.7474H80.9384C80.8645 90.7707 80.7906 90.7918 80.7146 90.8108H80.7019C80.6237 90.8298 80.5456 90.8467 80.4653 90.8615C80.3851 90.8763 80.3027 90.8889 80.2224 90.8995C80.1422 90.9101 80.0598 90.9164 79.9795 90.9227H79.7345C79.6522 90.9227 79.5719 90.9227 79.4895 90.9227C79.4093 90.9227 79.329 90.9122 79.2509 90.9016C79.1706 90.9016 79.0925 90.8784 79.0143 90.8636L78.7904 90.815H78.7799L78.6341 90.7728L78.4926 90.7242L78.4018 90.6883L78.2666 90.6291L78.1842 90.589C78.1378 90.5658 78.0934 90.5383 78.0512 90.513L77.9857 90.4728C77.9233 90.4328 77.8634 90.3891 77.8062 90.3419L52.1186 68.8807C52.0499 68.8253 51.9869 68.763 51.9307 68.6949C51.8266 68.5771 51.7482 68.439 51.7004 68.2893C51.6791 68.2206 51.6649 68.1498 51.6582 68.0781C51.7075 68.6273 51.7554 69.1778 51.8018 69.7298C51.8087 69.8015 51.8228 69.8722 51.8441 69.941C51.8674 70.0142 51.8979 70.0849 51.9349 70.1522C51.9751 70.2226 52.0218 70.289 52.0743 70.3508C52.1311 70.4184 52.194 70.4806 52.2623 70.5366L77.897 92.0105C77.9534 92.0583 78.0127 92.1028 78.0744 92.1435H78.0871L78.1399 92.1731L78.2751 92.2512L78.2983 92.2639L78.3574 92.2914L78.4905 92.3505L78.5285 92.3674L78.5834 92.3864L78.651 92.4118L78.7249 92.435L78.7756 92.4519L78.858 92.4751H78.8791L78.9404 92.492L79.0249 92.5089L79.1051 92.5258C79.1286 92.5323 79.1527 92.5365 79.1769 92.5385L79.2488 92.5512H79.3206H79.3459H79.3924H79.4578H79.5254H79.5846H79.6522H80.102H80.1654H80.2309H80.2964H80.328H80.3618H80.4273L80.497 92.5406L80.5688 92.5279H80.5878H80.6385L80.7061 92.5131L80.7864 92.4941H80.8244H80.8371H80.8666L80.9448 92.4709L81.0229 92.4498L81.0609 92.4371H81.0884L81.137 92.4202L81.2489 92.3801L81.2954 92.3611L81.3207 92.3505L81.3588 92.3357L81.4665 92.2872H81.4834H81.5024H81.5193H81.5362L117.983 74.3912C118.04 74.3617 118.095 74.3342 118.148 74.3025L118.215 74.2624L118.262 74.2328L118.3 74.2096C118.348 74.1779 118.395 74.1441 118.439 74.1103L118.458 74.0955H118.469L118.488 74.0786L118.566 74.0153L118.635 73.9498L118.652 73.9308L118.665 73.9181L118.699 73.8822L118.76 73.8125C118.779 73.7909 118.796 73.7683 118.813 73.7449C118.826 73.728 118.838 73.7132 118.849 73.6963L118.88 73.6457C118.891 73.6288 118.902 73.6119 118.91 73.595C118.917 73.5842 118.924 73.5729 118.929 73.5612C118.929 73.5612 118.944 73.5316 118.95 73.5189L118.969 73.4746C118.976 73.4602 118.981 73.4453 118.986 73.4302L119.003 73.388C119.006 73.3764 119.009 73.3651 119.014 73.3542C119.013 73.3408 119.013 73.3274 119.014 73.314C119.014 73.2993 119.014 73.2866 119.014 73.2718C119.014 73.257 119.014 73.2443 119.014 73.2317C119.014 73.219 119.014 73.2063 119.014 73.1915C119.015 73.1782 119.015 73.1648 119.014 73.1514C119.015 73.1381 119.015 73.1246 119.014 73.1113C119.015 73.0986 119.015 73.0859 119.014 73.0733L119.073 72.955Z" fill="#354F8C"/>
<path d="M118.894 70.9563C118.806 70.7334 118.66 70.538 118.472 70.3903L92.6215 49.2502C92.3989 49.0745 92.1463 48.9407 91.8759 48.8552C91.576 48.7597 91.2651 48.703 90.9508 48.6862C90.6201 48.6678 90.2883 48.6884 89.9624 48.7475C89.639 48.8058 89.325 48.9074 89.0288 49.0495L52.7744 66.6138C52.5098 66.7362 52.2688 66.9042 52.0626 67.1102C51.8967 67.2761 51.7735 67.4798 51.7035 67.7037C51.6443 67.9057 51.6487 68.121 51.7162 68.3204C51.7989 68.5416 51.9406 68.7359 52.1259 68.8822L77.7628 90.354C77.9882 90.5349 78.2443 90.6737 78.5189 90.7637C78.8231 90.8635 79.1391 90.9224 79.4588 90.939C79.7945 90.9586 80.1313 90.9381 80.4621 90.8778C80.7921 90.8176 81.1125 90.7132 81.4146 90.5673L117.878 72.6735C118.14 72.549 118.378 72.3796 118.582 72.1729C118.745 72.0058 118.863 71.8002 118.926 71.5752C118.98 71.3706 118.969 71.1543 118.894 70.9563ZM96.0833 73.8521C95.9988 73.8183 95.9143 73.7845 95.8256 73.7528C95.7369 73.7211 95.682 73.7105 95.6144 73.6894C95.6841 73.7105 95.758 73.7295 95.8256 73.7528C95.8932 73.776 95.9925 73.8183 96.0769 73.8521H96.0833ZM96.493 78.3234C96.436 78.3572 96.379 78.391 96.3198 78.4227C96.3726 78.391 96.4297 78.3572 96.4867 78.3234H96.493ZM95.268 73.607C95.1814 73.5859 95.0948 73.5648 95.004 73.5479C94.9132 73.531 94.8414 73.5226 94.759 73.5099C94.8414 73.5226 94.9237 73.5331 95.004 73.5479C95.0842 73.5627 95.1814 73.5775 95.268 73.607ZM94.2922 73.455L94.119 73.4402H93.9078H94.119L94.2922 73.455ZM88.8873 71.1802C88.8873 71.1802 88.8873 71.1908 88.8725 71.195C88.8725 71.195 88.881 71.176 88.8873 71.1718V71.1802ZM89.4512 69.7017C89.4563 69.681 89.4626 69.6605 89.4702 69.6405C89.4626 69.6605 89.4563 69.681 89.4512 69.7017C89.4512 69.7271 89.4512 69.7524 89.4407 69.7778C89.4449 69.7419 89.447 69.7165 89.4512 69.6912V69.7017ZM90.0743 68.4936C90.1229 68.4218 90.1694 68.35 90.22 68.2824C90.2707 68.2148 90.3193 68.1367 90.3721 68.0712L90.5284 67.8389L90.6932 67.5896L90.7544 67.4967C90.7333 67.5284 90.7122 67.5601 90.6932 67.5917L90.5221 67.8473L90.3594 68.0923L90.2137 68.3035L90.0743 68.5147C90.0447 68.557 90.0194 68.5992 89.9919 68.6394L90.0743 68.4936ZM91.8274 65.0635C91.8274 65.0086 91.84 64.9516 91.8485 64.8946C91.8485 64.9516 91.8379 65.0086 91.8274 65.0635C91.8168 65.1185 91.8105 65.1375 91.8041 65.1755C91.8062 65.1375 91.8274 65.1016 91.8274 65.0635ZM86.9188 59.515C86.7541 59.4622 86.5851 59.4136 86.4161 59.3693C86.2957 59.3376 86.1732 59.3101 86.0507 59.2806C86.1732 59.3101 86.2957 59.3376 86.4161 59.3693C86.5809 59.4136 86.7583 59.4559 86.9146 59.515H86.9188ZM87.432 59.6882C87.2694 59.6291 87.1047 59.572 86.9378 59.5214C87.1004 59.572 87.2652 59.6291 87.4278 59.6882H87.432ZM82.9227 68.3479C83.0333 68.1161 83.1589 67.8917 83.2986 67.6762C83.3493 67.5917 83.4042 67.5073 83.457 67.4228L83.4761 67.3932L83.457 67.4228C83.4042 67.5073 83.3493 67.5917 83.2986 67.6762C83.1589 67.8917 83.0333 68.1161 82.9227 68.3479C82.8228 68.5604 82.7367 68.7791 82.665 69.0026C82.7351 68.777 82.8198 68.5562 82.9185 68.3415L82.9227 68.3479ZM84.5047 72.2152C84.3779 72.1856 84.2533 72.1518 84.1329 72.1138C84.2491 72.1455 84.3737 72.1793 84.5004 72.2088L84.5047 72.2152ZM84.3885 66.0288C84.3948 66.0208 84.4005 66.0124 84.4054 66.0034C84.4476 65.938 84.4857 65.8746 84.5237 65.8112C84.5617 65.7479 84.6166 65.6676 84.6588 65.6C84.6166 65.6718 84.5744 65.7436 84.5237 65.8112C84.473 65.8788 84.4476 65.938 84.4054 66.0034C84.3989 66.0103 84.3918 66.0167 84.3843 66.0224L84.3885 66.0288ZM84.8109 65.2917L84.7835 65.355L84.8109 65.2917C84.8437 65.2051 84.8699 65.1161 84.8891 65.0255C84.9072 64.9371 84.9192 64.8474 84.925 64.7573C84.9238 64.7044 84.916 64.6519 84.9017 64.601C84.8836 64.5343 84.8566 64.4704 84.8215 64.4109C84.7732 64.3292 84.7166 64.2527 84.6525 64.1828C84.5637 64.0856 84.4677 63.9952 84.3653 63.9124C84.2264 63.7892 84.0723 63.6842 83.9069 63.5998C83.8182 63.5555 83.7274 63.5133 83.6302 63.4752C83.7274 63.5133 83.8182 63.5555 83.9069 63.5998C84.0723 63.6842 84.2264 63.7892 84.3653 63.9124C84.4677 63.9952 84.5637 64.0856 84.6525 64.1828C84.7166 64.2527 84.7732 64.3292 84.8215 64.4109C84.8566 64.4704 84.8836 64.5343 84.9017 64.601C84.916 64.6519 84.9238 64.7044 84.925 64.7573C84.9203 64.8475 84.9083 64.9372 84.8891 65.0255C84.8654 65.1143 84.8351 65.2012 84.7982 65.2853L84.8109 65.2917ZM84.6039 59.0335C85.0432 59.087 85.4755 59.1574 85.9008 59.2447C85.4769 59.1531 85.0447 59.0827 84.6039 59.0335ZM84.1097 58.9828C83.4566 58.9253 82.8007 58.907 82.1454 58.9279C81.9659 58.9279 81.7864 58.9448 81.6047 58.9574C81.7864 58.9448 81.9659 58.9363 82.1454 58.9279C82.8006 58.9056 83.4565 58.9225 84.1097 58.9785V58.9828ZM80.6332 59.0335C80.4663 59.0525 80.3015 59.0736 80.1368 59.0968C79.9256 59.1264 79.7017 59.1665 79.4842 59.2045C79.6954 59.1665 79.9171 59.1264 80.1368 59.0968C80.3079 59.082 80.4726 59.0609 80.6332 59.0335ZM74.5925 60.74H74.6094C75.1715 60.4688 75.7483 60.2291 76.3371 60.0219C76.9447 59.8076 77.5629 59.625 78.1894 59.4749L78.3605 59.4369L78.1894 59.4749C77.5629 59.625 76.9447 59.8076 76.3371 60.0219C75.7483 60.2291 75.1715 60.4688 74.6094 60.74H74.5925H74.5777H74.5925ZM74.1067 60.9829C73.6843 61.2054 73.2837 61.4321 72.9049 61.663C72.8007 61.7264 72.6993 61.7919 72.6008 61.8595C72.7008 61.7919 72.8021 61.7264 72.9049 61.663C73.2809 61.4363 73.6836 61.2125 74.1131 60.9914L74.1067 60.9829ZM71.7623 62.4614C71.9735 62.2967 72.1974 62.134 72.436 61.9735C72.2037 62.1383 71.9735 62.3009 71.7623 62.4656V62.4614ZM69.0017 67.5305C68.9813 67.2268 68.9912 66.9219 69.0313 66.6202C69.076 66.2896 69.1553 65.9647 69.2679 65.6507C69.3937 65.2977 69.5558 64.9586 69.7515 64.639C69.9749 64.2746 70.2316 63.9317 70.5182 63.6146C70.8231 63.2785 71.1521 62.9651 71.5025 62.6769C71.1521 62.9651 70.8231 63.2785 70.5182 63.6146C70.2316 63.9317 69.9749 64.2746 69.7515 64.639C69.5558 64.9586 69.3937 65.2977 69.2679 65.6507C69.1553 65.9647 69.076 66.2896 69.0313 66.6202C68.9912 66.9219 68.9813 67.2268 69.0017 67.5305C69.0203 67.8154 69.0641 68.0982 69.1327 68.3753C69.1482 68.4392 69.168 68.502 69.1918 68.5633C69.168 68.502 69.1482 68.4392 69.1327 68.3753C69.0688 68.0963 69.03 67.8122 69.0165 67.5263L69.0017 67.5305ZM69.7769 69.3152C69.7102 69.2628 69.6467 69.2064 69.5868 69.1463C69.5336 69.0876 69.4842 69.0255 69.4389 68.9604C69.4009 68.9097 69.3671 68.8569 69.3355 68.8062C69.3671 68.8569 69.4009 68.9097 69.4389 68.9604C69.4891 69.0238 69.5435 69.0837 69.6016 69.1399C69.6615 69.2 69.725 69.2564 69.7917 69.3089C69.8593 69.3617 69.9311 69.4145 70.0029 69.4631C70.0747 69.5117 70.1465 69.5476 70.2141 69.5877C70.1402 69.5476 70.0662 69.5053 70.0029 69.4631C69.9395 69.4208 69.8614 69.3638 69.7832 69.311L69.7769 69.3152ZM71.4074 69.9848C71.2997 69.9658 71.1962 69.9446 71.0885 69.9193C70.9808 69.8939 70.8773 69.8665 70.7865 69.8348C70.8836 69.8665 70.985 69.8939 71.0885 69.9193C71.192 69.9446 71.2997 69.9658 71.4074 69.9848C71.5152 70.0038 71.6186 70.0186 71.7369 70.0291C71.8172 70.0291 71.8996 70.0439 71.9819 70.0481L71.7369 70.0312C71.6313 70.0165 71.5215 69.9996 71.4138 69.9805L71.4074 69.9848ZM74.0835 69.7736C73.98 69.8095 73.8723 69.8411 73.7667 69.8707C73.6611 69.9003 73.5555 69.9277 73.4393 69.951C73.3231 69.9742 73.2154 69.9932 73.1014 70.0101C72.9873 70.027 72.8732 70.0397 72.7592 70.0481C72.6895 70.0481 72.6219 70.0481 72.548 70.0481C72.6177 70.0481 72.6853 70.0481 72.7592 70.0481C72.8732 70.0397 72.9873 70.027 73.1014 70.0101C73.2154 69.9932 73.3273 69.9742 73.4393 69.951C73.5512 69.9277 73.6505 69.9003 73.7667 69.8707C73.8828 69.8411 73.9779 69.8095 74.0835 69.7736C74.1891 69.7377 74.2947 69.6975 74.3876 69.6553H74.4088H74.3876C74.2968 69.6848 74.1933 69.725 74.0856 69.7609L74.0835 69.7736ZM74.451 69.6278L74.489 69.6109L74.5165 69.5983L74.489 69.6109L74.451 69.6278ZM74.5777 69.5708H74.5883C74.6495 69.5412 74.7087 69.5095 74.7678 69.4757C74.7087 69.5095 74.6495 69.5412 74.5883 69.5708H74.5777ZM75.2114 69.1801C75.148 69.2265 75.0846 69.273 75.017 69.3173C74.9495 69.3617 74.8945 69.3955 74.8312 69.4314C74.8945 69.3955 74.9579 69.3575 75.017 69.3173C75.0762 69.2772 75.148 69.2265 75.2114 69.1801C75.2747 69.1336 75.3317 69.0829 75.3867 69.0322L75.4205 69.0005L75.3867 69.0322C75.3529 69.0702 75.2853 69.1188 75.224 69.1716L75.2114 69.1801ZM76.0245 68.0226C76.0091 68.0946 75.988 68.1653 75.9612 68.2338C75.9612 68.2592 75.9379 68.2824 75.9274 68.3078C75.9379 68.2824 75.9527 68.2592 75.9612 68.2338C75.988 68.1653 76.0091 68.0946 76.0245 68.0226C76.0406 67.9532 76.0505 67.8825 76.0541 67.8114C76.0604 67.7411 76.0604 67.6705 76.0541 67.6002C76.0459 67.5289 76.0325 67.4583 76.014 67.389C75.9846 67.264 75.9656 67.1369 75.9569 67.0088C75.9489 66.8827 75.9524 66.7562 75.9675 66.6307C75.9848 66.5063 76.0145 66.3839 76.0562 66.2653C75.9732 66.5039 75.9402 66.7569 75.959 67.0088C75.9684 67.1362 75.9882 67.2627 76.0182 67.3869C76.0371 67.456 76.0498 67.5267 76.0562 67.5981C76.0614 67.6684 76.0614 67.739 76.0562 67.8093C76.0555 67.8766 76.0491 67.9437 76.0372 68.0099L76.0245 68.0226ZM79.3701 63.7519C79.0871 63.8554 78.8083 63.9631 78.5422 64.1004C78.2309 64.2498 77.9278 64.4155 77.6339 64.5968L77.5009 64.6813L77.6339 64.5968C77.9278 64.4155 78.2309 64.2498 78.5422 64.1004C78.8083 63.9716 79.0871 63.8554 79.3701 63.7519L79.4799 63.716L79.3701 63.7519ZM81.0197 63.3295L81.1084 63.3126L81.2119 63.302L81.1084 63.3126L81.0197 63.3295ZM82.1264 63.2345H82.2954C82.3587 63.2345 82.42 63.2345 82.4813 63.2471C82.42 63.2471 82.3587 63.2471 82.2954 63.2345H82.1264ZM82.6207 69.104C82.559 69.3117 82.5118 69.5235 82.4791 69.7376C82.4602 69.8531 82.4475 69.9694 82.4411 70.0862C82.4475 69.9694 82.4602 69.8531 82.4791 69.7376C82.5154 69.5196 82.567 69.3043 82.6333 69.0935L82.6207 69.104ZM82.4306 70.4304C82.4384 70.5753 82.4698 70.718 82.5235 70.8528C82.5464 70.9116 82.5732 70.9688 82.6038 71.0239C82.5732 70.9688 82.5464 70.9116 82.5235 70.8528C82.473 70.7139 82.4459 70.5676 82.4432 70.4199L82.4306 70.4304ZM82.7432 71.2309C82.7094 71.1866 82.6819 71.1422 82.6523 71.0957C82.6819 71.1422 82.7094 71.1866 82.7432 71.2309C82.842 71.3591 82.9554 71.4754 83.0811 71.5773C83.1605 71.6415 83.2437 71.7007 83.3303 71.7547C83.2437 71.7007 83.1605 71.6415 83.0811 71.5773C82.9592 71.4713 82.8501 71.3515 82.7558 71.2204L82.7432 71.2309ZM83.6746 71.9427C83.8044 72.0045 83.9377 72.0588 84.0738 72.1053C83.9418 72.0549 83.8127 71.9971 83.6873 71.9321L83.6746 71.9427ZM86.0148 72.3377C85.7876 72.3514 85.5598 72.3514 85.3326 72.3377C85.1742 72.3271 85.0179 72.3081 84.8658 72.287C85.02 72.3081 85.1742 72.3271 85.3326 72.3377C85.5598 72.3514 85.7876 72.3514 86.0148 72.3377C86.188 72.3271 86.3591 72.306 86.5281 72.2806L86.6675 72.2511L86.5281 72.2806C86.3718 72.2954 86.2007 72.3165 86.0275 72.3271L86.0148 72.3377ZM87.4933 72.0314L87.3623 72.0715L87.4933 72.0314C87.6425 71.978 87.7885 71.916 87.9305 71.8455C87.7938 71.9118 87.6535 71.9703 87.5102 72.0208L87.4933 72.0314ZM88.1797 71.7125H88.1924C88.2023 71.7081 88.2115 71.7024 88.2199 71.6956C88.2115 71.7024 88.2023 71.7081 88.1924 71.7125H88.1797ZM89.5209 78.1967C89.3511 78.057 89.1986 77.8975 89.0668 77.7214C88.9457 77.562 88.8489 77.3855 88.7796 77.1976C88.7117 77.0198 88.6725 76.8323 88.6634 76.6422C88.6553 76.4492 88.6767 76.2562 88.7268 76.0698C88.7823 75.8725 88.864 75.6836 88.9697 75.5079C89.085 75.3177 89.2218 75.1412 89.3773 74.982C89.5479 74.8072 89.7346 74.6488 89.9349 74.5089C90.1537 74.3546 90.3847 74.2183 90.6256 74.1013C90.8841 73.9764 91.1509 73.8691 91.4239 73.7802C91.7065 73.6918 91.9943 73.6213 92.2857 73.569C92.583 73.5127 92.8835 73.4746 93.1854 73.455C92.8835 73.4746 92.583 73.5127 92.2857 73.569C91.9943 73.6213 91.7065 73.6918 91.4239 73.7802C91.1509 73.8691 90.8841 73.9764 90.6256 74.1013C90.3847 74.2183 90.1537 74.3546 89.9349 74.5089C89.7346 74.6488 89.5479 74.8072 89.3773 74.982C89.2218 75.1412 89.085 75.3177 88.9697 75.5079C88.864 75.6836 88.7823 75.8725 88.7268 76.0698C88.6767 76.2562 88.6553 76.4492 88.6634 76.6422C88.6725 76.8323 88.7117 77.0198 88.7796 77.1976C88.8489 77.3855 88.9457 77.562 89.0668 77.7214C89.1986 77.8975 89.3511 78.057 89.5209 78.1967C89.7079 78.3515 89.9103 78.4867 90.125 78.6001C90.3218 78.7045 90.5258 78.7948 90.7354 78.8704C90.5258 78.7948 90.3218 78.7045 90.125 78.6001C89.9157 78.4824 89.719 78.3437 89.5378 78.1861L89.5209 78.1967ZM91.0543 78.976C91.2543 79.0374 91.4573 79.0881 91.6626 79.1281C91.7872 79.1513 91.9161 79.1704 92.047 79.1894C91.9161 79.1704 91.7872 79.1513 91.6626 79.1281C91.4628 79.0841 91.2654 79.0298 91.0712 78.9655L91.0543 78.976ZM93.0735 79.2485C93.2045 79.2485 93.3354 79.2485 93.4664 79.2358C93.5593 79.2358 93.6522 79.2168 93.7473 79.2084C93.6522 79.2084 93.5593 79.2295 93.4664 79.2358C93.3523 79.2316 93.2214 79.2337 93.0946 79.2358L93.0735 79.2485ZM94.2056 79.1471L94.3703 79.1197C94.5182 79.0922 94.666 79.0605 94.8097 79.0225C94.666 79.0605 94.5182 79.0922 94.3703 79.1197L94.2056 79.1471ZM94.9047 78.995C95.0174 78.9655 95.1272 78.9338 95.2342 78.9L95.3102 78.8725L95.2342 78.9C95.1385 78.9253 95.0343 78.9528 94.9216 78.9824L94.9047 78.995ZM96.9894 77.9622C97.0919 77.8788 97.1892 77.7892 97.2808 77.694C97.1943 77.7844 97.1026 77.8697 97.0063 77.9496L96.9894 77.9622ZM97.8722 75.4763C97.8617 75.4467 97.8448 75.4171 97.8321 75.3897C97.8448 75.4171 97.8617 75.4467 97.8722 75.4763C97.9401 75.6541 97.9793 75.8416 97.9884 76.0318C97.9861 75.8383 97.9526 75.6464 97.8891 75.4636L97.8722 75.4763Z" fill="#6781AA"/>
<path fill-rule="evenodd" clip-rule="evenodd" d="M88.6947 70.2245C88.6567 70.3573 88.5999 70.4843 88.5261 70.6019C88.4432 70.7361 88.3443 70.8602 88.2316 70.9718C88.1134 71.089 87.9835 71.1946 87.844 71.2869L87.7336 71.3586L87.6192 71.4266L87.501 71.4907C87.4623 71.5115 87.4216 71.5323 87.379 71.5511C87.2487 71.6141 87.1148 71.6695 86.9779 71.7172C86.8384 71.7663 86.695 71.8097 86.5458 71.8474C86.3966 71.8851 86.2435 71.9172 86.0885 71.9399C85.9334 71.9625 85.7765 71.9814 85.6176 71.9908C85.4092 72.0031 85.2002 72.0031 84.9917 71.9908C84.7908 71.9788 84.5909 71.9548 84.393 71.9191C84.2043 71.8862 84.0184 71.8395 83.8369 71.7795C83.6653 71.7237 83.4987 71.6543 83.3389 71.5719C83.1929 71.4969 83.0547 71.4084 82.9261 71.3077C82.8108 71.2166 82.7068 71.1127 82.6161 70.9982C82.5349 70.8927 82.4696 70.7764 82.4223 70.6529C82.3731 70.5324 82.3443 70.4049 82.3371 70.2755C82.3336 70.067 82.3485 69.8587 82.3817 69.6527C82.4132 69.4424 82.4618 69.2348 82.527 69.0319C82.5943 68.8221 82.6765 68.6172 82.7731 68.4186C82.8745 68.2115 82.9897 68.011 83.118 67.8185C83.149 67.7682 83.1817 67.7179 83.2144 67.6676C83.2308 67.6424 83.2471 67.6172 83.2633 67.5921L83.4144 67.3656C83.4648 67.2901 83.5171 67.2146 83.5695 67.141L83.7284 66.9146L83.8776 66.6995L84.0132 66.5108C84.0558 66.4409 84.0946 66.3806 84.1333 66.3221C84.1721 66.2636 84.2069 66.207 84.2418 66.1504L84.2418 66.1503C84.2962 66.0769 84.3454 66 84.3891 65.9201C84.4312 65.8449 84.4675 65.7666 84.4976 65.6861C84.5277 65.6088 84.5517 65.5293 84.5693 65.4483C84.5869 65.3695 84.598 65.2893 84.6023 65.2087C84.6012 65.1615 84.594 65.1145 84.5809 65.069C84.5643 65.0095 84.5396 64.9523 84.5073 64.8992C84.4631 64.8262 84.4111 64.7579 84.3523 64.6954C84.2708 64.6086 84.1827 64.5278 84.0888 64.4539C83.9613 64.3438 83.82 64.2499 83.6683 64.1746C83.5869 64.1349 83.5036 64.0972 83.4144 64.0632C83.3238 64.0283 83.2313 63.998 83.1374 63.9727L83.1328 63.9715C83.0338 63.9455 82.9421 63.9215 82.8428 63.9047C82.7421 63.8877 82.6374 63.8726 82.5328 63.8613C82.4282 63.85 82.3216 63.8406 82.2131 63.8406H81.8875C81.6319 63.849 81.377 63.8717 81.1241 63.9085C80.8554 63.9474 80.589 63.9997 80.3258 64.0651C80.0584 64.1293 79.789 64.2067 79.5294 64.2991C79.2697 64.3916 79.0139 64.4954 78.7698 64.6105C78.4843 64.744 78.2061 64.892 77.9366 65.054C77.7256 65.1794 77.5236 65.3188 77.332 65.471C77.1838 65.586 77.0452 65.7122 76.9174 65.8484C76.8196 65.956 76.7315 66.0716 76.6538 66.1937C76.5869 66.2991 76.5317 66.411 76.4891 66.5278C76.4487 66.6371 76.4201 66.7504 76.4039 66.8655C76.39 66.9776 76.3868 67.0907 76.3942 67.2033C76.4021 67.3177 76.4196 67.4313 76.4465 67.543C76.4635 67.6049 76.4758 67.668 76.4833 67.7317C76.4891 67.7945 76.4891 67.8576 76.4833 67.9204C76.48 67.984 76.4709 68.0471 76.4562 68.1091C76.4421 68.1734 76.4226 68.2366 76.3981 68.2978C76.3724 68.3625 76.3427 68.4255 76.3089 68.4865C76.2737 68.5518 76.2342 68.6148 76.1907 68.6752C76.1457 68.7357 76.0972 68.7937 76.0454 68.8488C75.9907 68.9081 75.9324 68.9642 75.871 69.0168C75.8206 69.0621 75.7683 69.1074 75.7102 69.1489C75.701 69.1554 75.692 69.1619 75.6829 69.1685C75.6342 69.2034 75.5858 69.2381 75.5319 69.2715C75.468 69.3112 75.406 69.3489 75.3381 69.3867C75.2703 69.4244 75.2025 69.4584 75.1308 69.4923L75.0862 69.5131L75.0397 69.5338L74.9932 69.5546L74.9467 69.5735C74.8615 69.6112 74.7646 69.6471 74.6677 69.6792C74.5708 69.7112 74.4836 69.7395 74.377 69.766C74.3523 69.7721 74.3285 69.7781 74.3051 69.784C74.2276 69.8035 74.1556 69.8217 74.0767 69.8377C73.974 69.8584 73.8713 69.8754 73.7667 69.8905C73.7143 69.8981 73.662 69.9028 73.6097 69.9075C73.5574 69.9122 73.5051 69.9169 73.4528 69.9245C73.3481 69.9396 73.2416 69.9396 73.1369 69.9396C73.102 69.9396 73.0672 69.94 73.0326 69.9404C72.9635 69.9412 72.8946 69.9421 72.8249 69.9396C72.7349 69.9363 72.6505 69.9289 72.5596 69.9209C72.5449 69.9196 72.53 69.9182 72.5149 69.9169C72.4064 69.9075 72.3115 69.8943 72.2126 69.8773C72.1138 69.8603 72.015 69.8414 71.92 69.8188C71.8251 69.7962 71.734 69.7716 71.6429 69.7433C71.5519 69.715 71.4627 69.6829 71.3794 69.649C71.2961 69.615 71.2147 69.5773 71.1372 69.5395C71.0597 69.5018 70.9803 69.4603 70.9144 69.4169C70.8485 69.3734 70.7826 69.3263 70.7206 69.2791C70.6594 69.2322 70.6012 69.1818 70.5462 69.1281C70.4929 69.0779 70.4431 69.0243 70.397 68.9677C70.3539 68.9137 70.3144 68.8569 70.2788 68.7979C70.2444 68.7372 70.2146 68.6741 70.1897 68.6092C70.1647 68.5479 70.1446 68.4848 70.1296 68.4205C70.0667 68.1728 70.0265 67.9202 70.0095 67.6657C69.9907 67.3943 69.9998 67.1219 70.0366 66.8523C70.0776 66.557 70.1503 66.2667 70.2536 65.9862C70.3691 65.6707 70.5178 65.3678 70.6974 65.0823C70.9023 64.7567 71.1377 64.4503 71.4007 64.167C71.6997 63.848 72.0236 63.5521 72.3696 63.282C72.7599 62.9749 73.1696 62.692 73.5961 62.4347C74.083 62.142 74.5849 61.8737 75.0998 61.6308H75.1153H75.1308H75.1444H75.1599C75.6756 61.3885 76.2048 61.1743 76.7449 60.9892C77.3023 60.7977 77.8695 60.6346 78.4443 60.5005C79.0275 60.3589 79.6263 60.2532 80.2308 60.1702C80.8354 60.0872 81.4516 60.0325 82.0677 60.0079C82.7331 59.9867 83.3992 60.0081 84.0616 60.0721C84.7097 60.1343 85.3518 60.2459 85.9819 60.4061C86.5925 60.5605 87.1863 60.7722 87.7549 61.0383C88.308 61.2921 88.8283 61.6088 89.305 61.9818C89.5638 62.1875 89.8054 62.4128 90.0278 62.6555C90.2241 62.8697 90.398 63.1023 90.5471 63.3499C90.6819 63.575 90.7898 63.8143 90.8688 64.0632C90.9418 64.3013 90.9848 64.5472 90.9966 64.7954C91.0074 65.0259 90.9924 65.2568 90.9521 65.4842C90.9129 65.703 90.8552 65.9182 90.7796 66.1277C90.7066 66.3294 90.6212 66.5266 90.5238 66.7183C90.4903 66.7783 90.4581 66.8373 90.4264 66.8953C90.3595 67.0179 90.2952 67.1359 90.2254 67.2486C90.177 67.3278 90.1248 67.407 90.0725 67.4862L90.0724 67.4864C90.02 67.5656 89.9677 67.6449 89.9154 67.7204L89.7643 67.9431L89.6209 68.1506C89.5928 68.1845 89.566 68.2223 89.5394 68.2597C89.5201 68.2869 89.5009 68.314 89.4814 68.3393C89.4456 68.3858 89.4121 68.4345 89.3782 68.4837C89.3681 68.4985 89.3579 68.5133 89.3477 68.528L89.2217 68.7168L89.0996 68.9055C89.0465 68.9783 88.9986 69.0546 88.9563 69.1338C88.9141 69.2097 88.8778 69.2885 88.8477 69.3697C88.8174 69.4469 88.7934 69.5265 88.776 69.6074C88.7594 69.6865 88.7484 69.7666 88.7431 69.8471C88.7471 69.9746 88.7308 70.1019 88.6947 70.2245ZM96.6065 74.568C96.723 74.7332 96.817 74.9154 96.8856 75.1091C96.9513 75.2935 96.9891 75.4879 96.9977 75.6851C97.0072 75.8842 96.9873 76.0838 96.9386 76.2763C96.8867 76.4811 96.8085 76.6771 96.7063 76.8589C96.5958 77.0554 96.4645 77.2377 96.3151 77.4021C96.1513 77.5835 95.9719 77.7478 95.7792 77.893C95.5677 78.0529 95.3441 78.1938 95.1108 78.3141C94.862 78.4452 94.6046 78.5567 94.3406 78.6479C94.0676 78.7403 93.7892 78.8132 93.5072 78.8661C93.2191 78.925 92.9278 78.9651 92.6351 78.9861C92.3406 79.0046 92.0453 79.0046 91.7508 78.9861C91.4636 78.9679 91.1777 78.93 90.895 78.8727C90.6277 78.8198 90.3642 78.7469 90.1065 78.6545C89.8671 78.5672 89.6347 78.4592 89.4116 78.3316C89.2045 78.2144 89.0093 78.0748 88.8289 77.9148C88.665 77.7706 88.5179 77.6058 88.3908 77.4239C88.274 77.2592 88.1806 77.0769 88.1137 76.8829C88.0482 76.6991 88.0104 76.5055 88.0016 76.309C87.9938 76.1098 88.0144 75.9104 88.0627 75.7178C88.1163 75.514 88.1951 75.3188 88.2971 75.1374C88.4083 74.9409 88.5403 74.7586 88.6903 74.5942C88.8549 74.4135 89.035 74.2499 89.2282 74.1054C89.4394 73.946 89.6622 73.8052 89.8946 73.6844C90.144 73.5553 90.4013 73.4445 90.6648 73.3527C90.9373 73.2614 91.215 73.1885 91.4961 73.1345C92.0734 73.0179 92.6619 72.9769 93.2485 73.0124C93.5351 73.0287 93.8203 73.0659 94.1022 73.1236C94.3689 73.1765 94.6317 73.2494 94.8887 73.3418C95.128 73.4295 95.3603 73.5375 95.5836 73.6647C95.7895 73.7819 95.9841 73.9208 96.1643 74.0793C96.3289 74.2232 96.4773 74.3872 96.6065 74.568Z" fill="#FCFDFF"/>
</svg>
