<svg width="16" height="10" viewBox="0 0 16 10" fill="none" xmlns="http://www.w3.org/2000/svg">
<path d="M0.188154 8.22015C-0.0678463 8.48415 -0.0598469 8.90815 0.204154 9.16415C0.468154 9.42015 0.892155 9.41215 1.14816 9.14815L7.96416 2.27615L14.8682 9.10815C15.1322 9.36415 15.5482 9.36415 15.8122 9.10015C16.0682 8.83615 16.0682 8.42015 15.8042 8.15615L8.46016 0.876154C8.45216 0.868154 8.43616 0.860155 8.42016 0.852155C8.42016 0.852155 8.42016 0.844154 8.41216 0.844154C8.14816 0.588155 7.73216 0.588155 7.46816 0.852155L0.188154 8.19615C0.196155 8.21215 0.196155 8.21215 0.188154 8.22015Z" fill="#BDBDBD"/>
</svg>
