<svg width="12" height="12" viewBox="0 0 12 12" fill="none" xmlns="http://www.w3.org/2000/svg">
<path d="M10.8842 7.974L7.45816 6L10.8842 4.026C11.2262 3.852 11.4002 3.342 11.1422 3C10.9682 2.658 10.4582 2.484 10.1162 2.742L6.69016 4.716V0.774C6.77416 0.342 6.42616 0 6.00016 0C5.57416 0 5.22616 0.342 5.22616 0.774V4.716L1.80015 2.742C1.54215 2.484 1.02615 2.658 0.858154 3C0.690154 3.342 0.774154 3.858 1.11615 4.026L4.54216 6L1.11615 7.974C0.774154 8.148 0.600154 8.658 0.858154 9C1.03215 9.258 1.28415 9.342 1.54215 9.342C1.62615 9.342 1.80015 9.342 1.88415 9.258L5.31016 7.284V11.226C5.22616 11.652 5.56816 12 5.99416 12C6.42016 12 6.76816 11.658 6.76816 11.226V7.284L10.1942 9.258C10.2782 9.342 10.4522 9.342 10.5362 9.342C10.7942 9.342 11.0522 9.168 11.2202 9C11.3162 8.658 11.2262 8.142 10.8842 7.974Z" fill="#1A7DF1"/>
</svg>
