<svg width="240" height="240" viewBox="0 0 240 240" fill="none" xmlns="http://www.w3.org/2000/svg">
<rect width="240" height="240" fill="white"/>
<rect x="75.3506" y="56.1152" width="33.4282" height="66.1878" fill="#EFF0F3"/>
<rect x="68.6641" y="42.7441" width="46.7995" height="13.3713" rx="6.68564" fill="#EFF0F3"/>
<path d="M114.791 182.474C117.644 182.474 120.477 181.756 122.811 180.114C136.564 170.436 145.55 154.439 145.55 136.344C145.55 106.805 121.604 82.8584 92.0652 82.8584C62.5263 82.8584 38.5801 106.805 38.5801 136.344C38.5801 154.439 47.5662 170.436 61.3197 180.114C63.653 181.756 66.4863 182.474 69.3395 182.474H114.791Z" fill="#EFF0F3"/>
<path fill-rule="evenodd" clip-rule="evenodd" d="M119.098 176.999C117.609 177.999 115.834 178.462 114.039 178.462H70.0947C68.3002 178.462 66.5252 177.999 65.0354 176.999C51.9094 168.184 43.2617 153.133 43.2617 136.047C43.2617 135.024 43.2927 134.008 43.3539 133H140.78C140.841 134.008 140.872 135.024 140.872 136.047C140.872 153.133 132.224 168.184 119.098 176.999Z" fill="#FD9D6C"/>
<rect x="153.8" y="56.1152" width="33.4282" height="66.1878" fill="#EFF0F3"/>
<rect x="147.113" y="42.7441" width="46.7995" height="13.3713" rx="6.68564" fill="#EFF0F3"/>
<path d="M193.24 182.474C196.093 182.474 198.927 181.756 201.26 180.114C215.013 170.436 224 154.439 224 136.344C224 106.805 200.053 82.8584 170.514 82.8584C140.976 82.8584 117.029 106.805 117.029 136.344C117.029 154.439 126.015 170.436 139.769 180.114C142.102 181.756 144.936 182.474 147.789 182.474H193.24Z" fill="#EFF0F3"/>
<path fill-rule="evenodd" clip-rule="evenodd" d="M197.546 176.999C196.056 178 194.281 178.463 192.486 178.463H148.542C146.747 178.463 144.972 178 143.483 176.999C130.357 168.185 121.709 153.134 121.709 136.047C121.709 126.185 124.59 117.002 129.55 109.304H211.478C216.438 117.002 219.319 126.185 219.319 136.047C219.319 153.134 210.672 168.185 197.546 176.999Z" fill="#2BDFBF"/>
<circle cx="188.342" cy="134.263" r="14.2627" fill="#AFFDF3"/>
<g clip-path="url(#clip0)">
<path d="M195.624 141.828C195.971 141.828 196.252 141.547 196.252 141.2C196.252 140.853 195.971 140.572 195.624 140.572H187.62C187.274 140.572 186.992 140.853 186.992 141.2C186.992 141.547 187.274 141.828 187.62 141.828H195.624ZM185.843 135.297L187.957 137.411L187.845 137.845C187.77 138.137 187.856 138.448 188.07 138.661C188.403 138.991 188.94 138.99 189.271 138.658L194.053 133.876C194.385 133.545 194.385 133.007 194.053 132.675C193.843 132.464 193.537 132.379 193.248 132.451L192.807 132.56L187.632 127.385L187.751 127.035C187.852 126.739 187.777 126.413 187.559 126.19C187.237 125.863 186.71 125.861 186.386 126.185L181.554 131.017C181.242 131.329 181.238 131.832 181.544 132.149C181.761 132.375 182.089 132.454 182.385 132.353L182.732 132.236L184.903 134.407L180.878 138.462C180.632 138.71 180.63 139.108 180.873 139.358C181.122 139.614 181.532 139.617 181.784 139.364L185.843 135.297Z" fill="#2BDFBF"/>
</g>
<circle cx="159.813" cy="162.788" r="14.2627" fill="#AFFDF3"/>
<path d="M152.325 157.609C152.325 157.15 152.698 156.777 153.157 156.777H154.821C155.281 156.777 155.653 157.15 155.653 157.609V159.273C155.653 159.733 155.281 160.105 154.821 160.105H154.613V163.352H158.843V163.144C158.843 162.685 159.215 162.312 159.675 162.312H166.473C166.932 162.312 167.305 162.685 167.305 163.144V164.808C167.305 165.268 166.932 165.64 166.473 165.64H159.675C159.215 165.64 158.843 165.268 158.843 164.808V164.6H154.613V168.887H158.843V168.679C158.843 168.22 159.215 167.847 159.675 167.847H166.473C166.932 167.847 167.305 168.22 167.305 168.679V170.343C167.305 170.803 166.932 171.175 166.473 171.175H159.675C159.215 171.175 158.843 170.803 158.843 170.343V170.135H154.365C153.813 170.135 153.365 169.688 153.365 169.135V160.105H153.157C152.698 160.105 152.325 159.733 152.325 159.273V157.609Z" fill="#2BDFBF"/>
<path d="M156.901 157.609C156.901 157.15 157.274 156.777 157.733 156.777H166.472C166.932 156.777 167.304 157.15 167.304 157.609V159.273C167.304 159.733 166.932 160.105 166.472 160.105H157.733C157.274 160.105 156.901 159.733 156.901 159.273V157.609Z" fill="#2BDFBF"/>
<circle cx="209.735" cy="180.617" r="14.2627" fill="#EFF0F3"/>
<g clip-path="url(#clip1)">
<path d="M209.039 173.469C209.161 173.4 209.409 173.326 209.734 173.326C210.011 173.326 210.271 173.38 210.431 173.47L216.466 176.827L210.43 180.181C210.271 180.271 210.011 180.324 209.734 180.324C209.409 180.324 209.161 180.25 209.038 180.18L203.002 176.825L209.039 173.469ZM217.431 183.74C217.524 183.686 217.627 183.674 217.727 183.708C217.845 183.747 217.945 183.845 218.002 183.979C218.12 184.252 218.027 184.593 217.799 184.725L211.093 188.613C210.353 189.043 209.123 189.046 208.375 188.613L201.669 184.723C201.441 184.592 201.348 184.252 201.466 183.979C201.524 183.845 201.622 183.748 201.74 183.709C201.777 183.696 201.816 183.69 201.855 183.69C201.917 183.69 201.979 183.707 202.037 183.74L208.743 187.63C209.271 187.936 210.197 187.936 210.725 187.63L217.431 183.74ZM217.431 179.943C217.524 179.888 217.627 179.877 217.727 179.91C217.845 179.949 217.945 180.048 218.002 180.182C218.12 180.454 218.027 180.796 217.799 180.928L211.099 184.813C210.689 185.034 210.236 185.15 209.781 185.15C209.267 185.154 208.761 185.038 208.375 184.816L201.668 180.928C201.522 180.843 201.426 180.667 201.415 180.47C201.405 180.27 201.485 180.079 201.624 179.973C201.694 179.919 201.773 179.892 201.853 179.892C201.916 179.892 201.979 179.909 202.038 179.943L208.744 183.832C209.271 184.138 210.198 184.138 210.725 183.832L217.431 179.943ZM209.734 172.297C210.139 172.297 210.53 172.385 210.808 172.539L217.68 176.361C217.917 176.493 218.054 176.662 218.054 176.825C218.053 176.988 217.917 177.157 217.68 177.289L210.808 181.111C210.249 181.421 209.221 181.421 208.66 181.111L201.788 177.289C201.551 177.157 201.414 176.988 201.414 176.825C201.414 176.662 201.551 176.493 201.788 176.361L208.662 172.539C208.939 172.385 209.33 172.297 209.734 172.297Z" fill="#A7A7B9"/>
</g>
<circle cx="57.5986" cy="182.994" r="14.2627" fill="#EFF0F3"/>
<g clip-path="url(#clip2)">
<path d="M56.9043 175.846C57.0263 175.777 57.2743 175.703 57.5996 175.703C57.876 175.703 58.1367 175.756 58.2967 175.847L64.3312 179.204L58.2954 182.558C58.1367 182.648 57.876 182.701 57.5996 182.701C57.2743 182.701 57.0263 182.627 56.903 182.557L50.8668 179.202L56.9043 175.846ZM65.2965 186.117C65.3896 186.063 65.4924 186.051 65.5921 186.085C65.7102 186.124 65.8099 186.222 65.8676 186.356C65.9848 186.629 65.8921 186.97 65.6647 187.102L58.958 190.99C58.2185 191.42 56.9879 191.423 56.2406 190.99L49.5339 187.1C49.3061 186.969 49.2134 186.629 49.3314 186.356C49.3896 186.222 49.4871 186.125 49.6056 186.086C49.6424 186.073 49.6809 186.067 49.7198 186.067C49.7823 186.067 49.8439 186.084 49.9026 186.117L56.6083 190.007C57.1362 190.313 58.0624 190.313 58.5907 190.007L65.2965 186.117ZM65.2965 182.32C65.3896 182.265 65.4924 182.254 65.5921 182.287C65.7102 182.326 65.8099 182.425 65.8676 182.559C65.9848 182.831 65.8921 183.173 65.6647 183.305L58.9646 187.189C58.554 187.411 58.1009 187.527 57.6465 187.527C57.1327 187.531 56.6258 187.415 56.2406 187.193L49.5335 183.305C49.3874 183.22 49.2907 183.044 49.2803 182.847C49.2702 182.647 49.3498 182.456 49.4889 182.35C49.5593 182.296 49.6384 182.269 49.718 182.269C49.781 182.269 49.8439 182.286 49.903 182.32L56.6088 186.209C57.1366 186.515 58.0628 186.515 58.5907 186.209L65.2965 182.32ZM57.5996 174.674C58.0046 174.674 58.3955 174.762 58.6728 174.916L65.5448 178.737C65.7827 178.87 65.9191 179.039 65.9191 179.202C65.9187 179.365 65.7827 179.534 65.5452 179.666L58.6728 183.488C58.1144 183.798 57.0858 183.798 56.5256 183.488L49.6536 179.666C49.4157 179.534 49.2793 179.365 49.2793 179.202C49.2793 179.039 49.4157 178.87 49.6536 178.737L56.5269 174.916C56.8042 174.762 57.1951 174.674 57.5996 174.674Z" fill="#A7A7B9"/>
</g>
<circle cx="30.2627" cy="171.108" r="14.2627" fill="#EFF0F3"/>
<g clip-path="url(#clip3)">
<path d="M37.5422 178.673C37.8891 178.673 38.1704 178.392 38.1704 178.045C38.1704 177.698 37.8891 177.417 37.5422 177.417H29.5385C29.1915 177.417 28.9103 177.698 28.9103 178.045C28.9103 178.392 29.1915 178.673 29.5385 178.673H37.5422ZM27.7614 172.142L29.8746 174.255L29.7631 174.689C29.6879 174.982 29.7736 175.293 29.9883 175.506C30.3211 175.836 30.858 175.834 31.1894 175.503L35.9713 170.721C36.3031 170.389 36.3031 169.851 35.9713 169.519C35.7607 169.309 35.4553 169.224 35.1662 169.296L34.7251 169.405L29.5501 164.23L29.6693 163.879C29.7697 163.584 29.6951 163.257 29.4766 163.035C29.155 162.708 28.6284 162.705 28.304 163.03L23.4719 167.862C23.1604 168.173 23.1559 168.677 23.4617 168.994C23.679 169.219 24.0069 169.299 24.3032 169.198L24.6497 169.08L26.8212 171.252L22.7959 175.307C22.5503 175.555 22.5483 175.953 22.7914 176.203C23.0401 176.459 23.4499 176.461 23.7019 176.209L27.7614 172.142Z" fill="#A7A7B9"/>
</g>
<circle cx="89.6904" cy="162.788" r="14.2627" fill="#FFE7DA"/>
<path d="M82.2021 156.421C82.2021 155.961 82.5746 155.589 83.0341 155.589H84.6981C85.1576 155.589 85.5301 155.961 85.5301 156.421V158.085C85.5301 158.544 85.1576 158.917 84.6981 158.917H84.4901V162.164H88.7199V161.956C88.7199 161.496 89.0924 161.124 89.5519 161.124H96.3496C96.8091 161.124 97.1816 161.496 97.1816 161.956V163.62C97.1816 164.079 96.8091 164.452 96.3496 164.452H89.5519C89.0924 164.452 88.7199 164.079 88.7199 163.62V163.412H84.4901V167.699H88.7199V167.491C88.7199 167.031 89.0924 166.659 89.5519 166.659H96.3496C96.8091 166.659 97.1816 167.031 97.1816 167.491V169.155C97.1816 169.614 96.8091 169.987 96.3496 169.987H89.5519C89.0924 169.987 88.7199 169.614 88.7199 169.155V168.947H84.2421C83.6899 168.947 83.2421 168.499 83.2421 167.947V158.917H83.0341C82.5746 158.917 82.2021 158.544 82.2021 158.085V156.421Z" fill="#FD9D6C"/>
<path d="M86.7781 156.421C86.7781 155.961 87.1506 155.589 87.6101 155.589H96.3492C96.8087 155.589 97.1812 155.961 97.1812 156.421V158.085C97.1812 158.544 96.8087 158.917 96.3492 158.917H87.6101C87.1506 158.917 86.7781 158.544 86.7781 158.085V156.421Z" fill="#FD9D6C"/>
<defs>
<clipPath id="clip0">
<rect width="16.6398" height="16.6398" fill="white" transform="translate(180.023 125.943)"/>
</clipPath>
<clipPath id="clip1">
<rect width="16.6398" height="16.6398" fill="white" transform="translate(201.414 172.297)"/>
</clipPath>
<clipPath id="clip2">
<rect width="16.6398" height="16.6398" fill="white" transform="translate(49.2793 174.674)"/>
</clipPath>
<clipPath id="clip3">
<rect width="16.6398" height="16.6398" fill="white" transform="translate(21.9414 162.788)"/>
</clipPath>
</defs>
</svg>
