<svg width="20" height="21" viewBox="0 0 20 21" fill="none" xmlns="http://www.w3.org/2000/svg">
<g clip-path="url(#clip0)">
<path fill-rule="evenodd" clip-rule="evenodd" d="M11.1569 13.1575C11.247 13.1488 11.3397 13.14 11.4331 13.1285C12.1145 13.0444 12.7255 12.6718 13.2963 12.2902C13.3764 12.2367 13.4571 12.1767 13.5386 12.1073C13.6868 11.9813 13.8533 11.8764 14.0044 11.754C15.372 10.6465 16.246 8.95781 16.246 7.06262C16.246 3.6811 13.4471 0.925781 10.0119 0.925781C6.57664 0.925781 3.81964 3.6811 3.81964 7.02068C3.81964 9.10785 4.88029 10.9451 6.49165 12.0303C2.84455 13.4501 0.300049 16.8761 0.300049 20.9258H2.03886C2.03886 16.918 5.13467 13.6167 9.07869 13.1575C9.08381 13.1575 9.10371 13.1563 9.13632 13.1543C9.37424 13.1399 10.2887 13.0843 11.072 13.1575H11.1569ZM5.34717 7.02071C5.34717 9.56747 7.42482 11.6127 10.0119 11.6127C12.5989 11.6127 14.6766 9.56747 14.6766 7.02071C14.6766 4.47394 12.5989 2.42871 10.0119 2.42871C7.42482 2.42871 5.34717 4.47394 5.34717 7.02071Z" fill="#666666"/>
<path d="M16 12.9258C13.7909 12.9258 12 14.7166 12 16.9258C12 19.1349 13.7909 20.9258 16 20.9258C18.2091 20.9258 20 19.1349 20 16.9258C20 14.7166 18.2091 12.9258 16 12.9258ZM18.4751 16.5786C18.4447 16.6151 18.4122 16.6395 18.3777 16.6639L17.2508 17.407C17.2325 17.4151 17.2 17.4699 17.202 17.5106C17.202 17.5207 17.2041 17.5309 17.2061 17.5369L17.7015 18.9887C17.7157 19.0334 17.7259 19.076 17.7279 19.1288C17.7279 19.1694 17.7218 19.2243 17.6792 19.2831C17.6386 19.342 17.5574 19.3765 17.5005 19.3765H17.4924C17.3787 19.3705 17.332 19.3278 17.2731 19.2852L16.1056 18.3349C16.0975 18.3268 16.0751 18.3187 16.0487 18.3187C16.0223 18.3187 16 18.3288 15.9898 18.3369L14.8832 19.2791C14.8264 19.3217 14.7777 19.3684 14.6619 19.3745C14.601 19.3786 14.5117 19.34 14.4711 19.277C14.4305 19.2161 14.4244 19.1633 14.4244 19.1207C14.4244 19.072 14.4345 19.0314 14.4467 18.9887L14.8873 17.5471C14.8893 17.541 14.8914 17.5329 14.8914 17.5227C14.8954 17.4801 14.8589 17.4172 14.8386 17.409L13.7056 16.6618C13.669 16.6375 13.6386 16.6131 13.6081 16.5765C13.5797 16.542 13.5452 16.4913 13.5431 16.408C13.5431 16.3552 13.5635 16.2984 13.5959 16.2598C13.6264 16.2212 13.6629 16.2009 13.6934 16.1867C13.7543 16.1603 13.8051 16.1583 13.8599 16.1562H15.265C15.2772 16.1562 15.3076 16.1481 15.332 16.1278C15.3584 16.1095 15.3746 16.0831 15.3766 16.0689L15.7827 14.607C15.7949 14.5603 15.8112 14.5197 15.8416 14.473C15.8701 14.4324 15.931 14.3633 16.0426 14.3613C16.1543 14.3633 16.2152 14.4324 16.2437 14.473C16.2741 14.5177 16.2883 14.5603 16.3025 14.605L16.7086 16.0669C16.7107 16.0791 16.7289 16.1055 16.7533 16.1258C16.7777 16.1461 16.8081 16.1542 16.8223 16.1542H18.2274C18.268 16.1542 18.3066 16.1583 18.3492 16.1684C18.3898 16.1806 18.4426 16.1989 18.4893 16.2578C18.5198 16.2943 18.5421 16.3532 18.5421 16.404C18.5401 16.4933 18.5036 16.5441 18.4751 16.5786Z" fill="#666666"/>
</g>
<defs>
<clipPath id="clip0">
<rect width="20" height="20" fill="white" transform="translate(0 0.925781)"/>
</clipPath>
</defs>
</svg>
