<svg width="101" height="65" viewBox="0 0 101 65" fill="none" xmlns="http://www.w3.org/2000/svg">
<path d="M32.5967 38.0341V37.9574C32.5967 37.5386 32.2571 37.1991 31.8383 37.1991C31.4195 37.1991 31.08 37.5386 31.08 37.9574V38.0341C31.08 38.4529 31.4195 38.7924 31.8383 38.7924C32.2571 38.7924 32.5967 38.4529 32.5967 38.0341Z" fill="#666666"/>
<path d="M35.0733 31.6291C35.2333 31.2891 35.3133 30.9124 35.3133 30.4958C35.3133 29.5691 34.9967 28.8258 34.37 28.2624C33.74 27.7058 32.95 27.4258 32.0033 27.4258C31.5333 27.4258 31.09 27.4991 30.6667 27.6458C30.2433 27.7924 29.86 28.0191 29.5167 28.3258C29.1733 28.6324 28.9233 28.9824 28.7667 29.3724C28.6628 29.6309 28.5883 29.9698 28.544 30.3864C28.5036 30.7664 28.8154 31.0824 29.1975 31.0824C29.5726 31.0824 29.8679 30.7761 29.9223 30.405C30.0968 29.2129 30.7724 28.6158 31.9533 28.6158C32.5667 28.6158 33.0367 28.7924 33.36 29.1391C33.6833 29.4891 33.8467 29.8891 33.8467 30.3424C33.8467 30.7958 33.7767 31.1358 33.6367 31.3658C33.4933 31.5958 33.18 31.9624 32.69 32.4691C32.2033 32.9758 31.8633 33.3591 31.6767 33.6191C31.4867 33.8791 31.35 34.1858 31.2533 34.5324C31.1996 34.734 31.1613 34.9743 31.1385 35.2532C31.1079 35.6274 31.4177 35.9324 31.7931 35.9324C32.1739 35.9324 32.471 35.6184 32.5095 35.2396C32.5288 35.0492 32.5598 34.8825 32.6033 34.7391C32.6933 34.4391 32.82 34.1858 32.9933 33.9724C33.1633 33.7624 33.5167 33.3991 34.04 32.8958C34.5667 32.3924 34.91 31.9691 35.0733 31.6291Z" fill="#666666"/>
<path d="M43.25 32.9258C43.25 39.139 38.2132 44.1758 32 44.1758C25.7868 44.1758 20.75 39.139 20.75 32.9258C20.75 26.7126 25.7868 21.6758 32 21.6758C38.2132 21.6758 43.25 26.7126 43.25 32.9258Z" stroke="#666666" stroke-width="1.5"/>
<path d="M53.1211 37.9258V27.9043H54.4473V32.0195H59.6562V27.9043H60.9824V37.9258H59.6562V33.2021H54.4473V37.9258H53.1211ZM68.0098 35.5879L69.2812 35.7451C69.0807 36.488 68.7093 37.0645 68.167 37.4746C67.6247 37.8848 66.932 38.0898 66.0889 38.0898C65.027 38.0898 64.1839 37.764 63.5596 37.1123C62.9398 36.4561 62.6299 35.5378 62.6299 34.3574C62.6299 33.1361 62.9443 32.1882 63.5732 31.5137C64.2021 30.8392 65.0179 30.502 66.0205 30.502C66.9912 30.502 67.7842 30.8324 68.3994 31.4932C69.0146 32.154 69.3223 33.0837 69.3223 34.2822C69.3223 34.3551 69.32 34.4645 69.3154 34.6104H63.9014C63.9469 35.4079 64.1725 36.0186 64.5781 36.4424C64.9837 36.8662 65.4896 37.0781 66.0957 37.0781C66.5469 37.0781 66.932 36.9596 67.251 36.7227C67.57 36.4857 67.8229 36.1074 68.0098 35.5879ZM63.9697 33.5986H68.0234C67.9688 32.988 67.8138 32.5299 67.5586 32.2246C67.1667 31.7507 66.6585 31.5137 66.0342 31.5137C65.4691 31.5137 64.9928 31.7028 64.6055 32.0811C64.2227 32.4593 64.0107 32.9652 63.9697 33.5986ZM70.8057 37.9258V27.9043H72.0361V37.9258H70.8057ZM73.9502 40.708V30.666H75.0713V31.6094C75.3356 31.2402 75.6341 30.9645 75.9668 30.7822C76.2995 30.5954 76.7028 30.502 77.1768 30.502C77.7965 30.502 78.3434 30.6615 78.8174 30.9805C79.2913 31.2995 79.6491 31.7507 79.8906 32.334C80.1322 32.9128 80.2529 33.5485 80.2529 34.2412C80.2529 34.984 80.1185 35.654 79.8496 36.251C79.5853 36.8434 79.1979 37.2992 78.6875 37.6182C78.1816 37.9326 77.6484 38.0898 77.0879 38.0898C76.6777 38.0898 76.3086 38.0033 75.9805 37.8301C75.6569 37.6569 75.3903 37.4382 75.1807 37.1738V40.708H73.9502ZM75.0645 34.3369C75.0645 35.2712 75.2536 35.9616 75.6318 36.4082C76.0101 36.8548 76.4681 37.0781 77.0059 37.0781C77.5527 37.0781 78.0199 36.848 78.4072 36.3877C78.7992 35.9229 78.9951 35.2051 78.9951 34.2344C78.9951 33.3092 78.8037 32.6165 78.4209 32.1562C78.0426 31.696 77.5892 31.4658 77.0605 31.4658C76.5365 31.4658 76.0716 31.7119 75.666 32.2041C75.265 32.6917 75.0645 33.4027 75.0645 34.3369Z" fill="#666666"/>
</svg>
