<svg width="64" height="64" viewBox="0 0 64 64" fill="none" xmlns="http://www.w3.org/2000/svg">
<ellipse cx="32" cy="32.0742" rx="14" ry="14" fill="#BDBDBD"/>
<path d="M32.6959 38.0346V37.9451C32.6959 37.4565 32.2998 37.0604 31.8112 37.0604C31.3226 37.0604 30.9265 37.4565 30.9265 37.9451V38.0346C30.9265 38.5232 31.3226 38.9193 31.8112 38.9193C32.2998 38.9193 32.6959 38.5232 32.6959 38.0346Z" fill="white"/>
<path d="M35.5854 30.5621C35.7721 30.1654 35.8654 29.726 35.8654 29.2399C35.8654 28.1587 35.4959 27.2915 34.7648 26.6343C34.0298 25.9849 33.1082 25.6582 32.0037 25.6582C31.4554 25.6582 30.9382 25.7437 30.4443 25.9149C29.9504 26.086 29.5031 26.3504 29.1026 26.7082C28.7021 27.066 28.4104 27.4743 28.2276 27.9293C28.1065 28.2308 28.0195 28.6263 27.9678 29.1122C27.9207 29.5556 28.2844 29.9243 28.7303 29.9243C29.1679 29.9243 29.5124 29.567 29.5758 29.134C29.7794 27.7431 30.5677 27.0465 31.9454 27.0465C32.6609 27.0465 33.2093 27.2526 33.5865 27.6571C33.9637 28.0654 34.1543 28.5321 34.1543 29.061C34.1543 29.5899 34.0726 29.9865 33.9093 30.2549C33.742 30.5232 33.3765 30.951 32.8048 31.5421C32.2371 32.1332 31.8404 32.5804 31.6226 32.8837C31.4009 33.1871 31.2415 33.5448 31.1287 33.9493C31.066 34.1845 31.0214 34.4648 30.9948 34.7902C30.9591 35.2268 31.3205 35.5826 31.7585 35.5826C32.2027 35.5826 32.5493 35.2163 32.5942 34.7744C32.6168 34.5522 32.653 34.3577 32.7037 34.1904C32.8087 33.8404 32.9565 33.5449 33.1587 33.296C33.3571 33.051 33.7693 32.6271 34.3798 32.0399C34.9943 31.4526 35.3948 30.9587 35.5854 30.5621Z" fill="white"/>
</svg>
