<svg width="20" height="21" viewBox="0 0 20 21" fill="none" xmlns="http://www.w3.org/2000/svg">
<g clip-path="url(#clip0)">
<path d="M14.9492 13.9559L15.9593 14.966L19.9999 10.9254L15.9593 6.88477L14.9492 7.89494L17.2654 10.2111H7.14282V11.6397H17.2654L14.9492 13.9559Z" fill="#666666"/>
<path d="M16.0487 16.9868C14.4299 18.6056 12.2776 19.4972 9.98821 19.4972C7.69862 19.4972 5.54598 18.6056 3.92696 16.9867C2.3079 15.3678 1.42857 13.2153 1.42857 10.9258C1.42857 8.63645 2.3079 6.48404 3.92701 4.86502C5.54607 3.246 7.69866 2.35435 9.98821 2.35435C12.2775 2.35435 14.4298 3.246 16.0487 4.86498C16.1615 4.97783 16.2704 5.09359 16.3761 5.2115H18.1944C16.3875 2.62096 13.386 0.925781 9.98821 0.925781C4.46522 0.925781 0 5.40337 0 10.9258C0 16.4488 4.46522 20.9258 9.98821 20.9258C13.3861 20.9258 16.3878 19.2307 18.1946 16.6401H16.3762C16.2705 16.7581 16.1617 16.8738 16.0487 16.9868Z" fill="#666666"/>
</g>
<defs>
<clipPath id="clip0">
<rect width="20" height="20" fill="white" transform="translate(0 0.925781)"/>
</clipPath>
</defs>
</svg>
