<svg width="20" height="21" viewBox="0 0 20 21" fill="none" xmlns="http://www.w3.org/2000/svg">
<path d="M9.32506 12.1321C10.8242 11.3486 11.8443 9.79516 11.8443 8.00316C11.8443 5.42765 9.7207 3.32728 7.11609 3.32728C4.51343 3.32728 2.38785 5.42765 2.38785 8.00316C2.38785 9.6866 2.9265 10.9796 4.23463 11.778C4.27394 11.802 4.19393 12.2 4.23463 12.2231C4.28128 12.2496 4.44886 11.901 4.49736 11.9263C2.49736 13.4263 0.399976 15.5106 0.399976 18.4041C0.399976 18.7338 0.671491 19.0015 1.00313 19.0015C1.3367 19.0015 1.45501 18.7338 1.45501 18.4041C1.45501 15.3981 4.07513 12.7295 7.11609 12.7295C10.1571 12.7295 12.7772 15.3961 12.7772 18.4041C12.7772 18.7338 12.8955 19.0015 13.2291 19.0015C13.5626 19.0015 13.8322 18.7338 13.8322 18.4041C13.8342 15.5106 11.9374 13.0398 9.32506 12.1321ZM3.47003 8.00316C3.47003 6.08704 5.18058 4.29698 7.11609 4.29698C9.05355 4.29698 10.7525 6.08898 10.7525 8.00316C10.7525 9.91928 9.04191 11.6104 7.1064 11.6104C5.16894 11.6104 3.47003 9.91928 3.47003 8.00316Z" fill="#666666"/>
<path fill-rule="evenodd" clip-rule="evenodd" d="M2.08785 8.00316C2.08785 5.25875 4.35097 3.02728 7.11609 3.02728C9.88324 3.02728 12.1443 5.25883 12.1443 8.00316C12.1443 9.6914 11.2943 11.1791 9.9964 12.0765C12.4235 13.1672 14.1341 15.5925 14.1322 18.4043C14.1321 18.9021 13.7257 19.3015 13.2291 19.3015C12.9676 19.3015 12.7576 19.1889 12.6276 18.9915C12.5103 18.8137 12.4772 18.5965 12.4772 18.4041C12.4772 15.5598 9.98934 13.0295 7.11609 13.0295C4.24292 13.0295 1.75501 15.5616 1.75501 18.4041C1.75501 18.5965 1.72189 18.8137 1.60463 18.9915C1.47455 19.1889 1.26463 19.3015 1.00313 19.3015C0.508967 19.3015 0.0999756 18.9027 0.0999756 18.4041C0.0999756 15.5928 1.80032 13.167 4.23463 12.0762C4.29683 12.1192 4.36006 12.1608 4.42427 12.2011C4.53608 12.2711 4.65088 12.3369 4.76844 12.3981L4.49736 11.9263L4.80899 11.8486C4.61349 11.9163 4.42189 11.9923 4.23463 12.0762C2.93719 11.1796 2.08785 9.69067 2.08785 8.00316ZM9.32506 12.1321L9.1861 11.8663C10.5915 11.1317 11.5443 9.6777 11.5443 8.00316C11.5443 5.59646 9.55816 3.62728 7.11609 3.62728C4.67589 3.62728 2.68785 5.59654 2.68785 8.00316C2.68785 9.67789 3.64086 11.1336 5.04581 11.8661L5.66308 12.1879L5.00526 12.4156C2.49815 13.2835 0.699976 15.6445 0.699976 18.4041C0.699976 18.565 0.834014 18.7015 1.00313 18.7015C1.04574 18.7015 1.06678 18.6932 1.07576 18.6885C1.08419 18.6841 1.0933 18.6771 1.10368 18.6613C1.12897 18.623 1.15501 18.5414 1.15501 18.4041C1.15501 15.2345 3.90733 12.4295 7.11609 12.4295C10.3248 12.4295 13.0772 15.2325 13.0772 18.4041C13.0772 18.5414 13.1032 18.623 13.1285 18.6613C13.1389 18.6771 13.148 18.6841 13.1564 18.6885C13.1654 18.6932 13.1864 18.7015 13.2291 18.7015C13.3995 18.7015 13.5322 18.5656 13.5322 18.4041C13.5341 15.6453 11.7249 13.2835 9.2266 12.4155L9.32506 12.1321ZM7.11609 4.59698C5.3535 4.59698 3.77003 6.2454 3.77003 8.00316C3.77003 9.75164 5.33267 11.3104 7.1064 11.3104C8.87932 11.3104 10.4525 9.75051 10.4525 8.00316C10.4525 6.2461 8.87942 4.59698 7.11609 4.59698ZM3.17003 8.00316C3.17003 5.92868 5.00766 3.99698 7.11609 3.99698C9.22767 3.99698 11.0525 5.93186 11.0525 8.00316C11.0525 10.088 9.2045 11.9104 7.1064 11.9104C5.00522 11.9104 3.17003 10.0869 3.17003 8.00316Z" fill="#666666"/>
<path d="M15.2674 11.5563C16.5997 10.732 17.6121 9.26004 17.6121 7.60185C17.6121 5.02828 15.4885 2.92598 12.8839 2.92598C12.5503 2.92598 12.2807 3.19361 12.2807 3.52331C12.2807 3.85301 12.5522 4.04501 12.8839 4.04501C14.8213 4.04501 16.5299 5.68573 16.5299 7.60185C16.5299 9.51797 14.8194 11.1839 12.8839 11.1839C12.5503 11.1839 12.4068 11.3507 12.4068 11.6804C12.4068 12.0101 12.5503 12.1769 12.8839 12.1769C15.9248 12.1769 18.5197 14.7175 18.5197 17.7255C18.5197 18.0552 18.6633 18.3228 18.9968 18.3228C19.3304 18.3228 19.6 18.0552 19.6 17.7255C19.6 14.9347 17.8603 12.5454 15.3934 11.5563H15.2674Z" fill="#666666"/>
<path fill-rule="evenodd" clip-rule="evenodd" d="M11.9807 3.52331C11.9807 3.02541 12.3871 2.62598 12.8839 2.62598C15.6511 2.62598 17.9121 4.85954 17.9121 7.60185C17.9121 9.16565 17.077 10.5583 15.9249 11.4622C18.2757 12.5874 19.9 14.9675 19.9 17.7255C19.9 18.2234 19.4936 18.6228 18.9968 18.6228C18.7378 18.6228 18.5259 18.5129 18.3894 18.3227C18.2628 18.1462 18.2197 17.9277 18.2197 17.7255C18.2197 14.8881 15.7641 12.4769 12.8839 12.4769C12.6709 12.4769 12.4565 12.4233 12.3012 12.2572C12.1496 12.0953 12.1068 11.8816 12.1068 11.6804C12.1068 11.4792 12.1496 11.2655 12.3012 11.1035C12.4565 10.9375 12.6709 10.8839 12.8839 10.8839C14.6595 10.8839 16.2299 9.34653 16.2299 7.60185C16.2299 5.85978 14.6641 4.34501 12.8839 4.34501C12.6629 4.34501 12.441 4.28121 12.2683 4.14023C12.0895 3.99434 11.9807 3.77874 11.9807 3.52331ZM15.2674 11.5563L15.1095 11.3011C16.372 10.5201 17.3121 9.13608 17.3121 7.60185C17.3121 5.19702 15.3258 3.22598 12.8839 3.22598C12.7134 3.22598 12.5807 3.36182 12.5807 3.52331C12.5807 3.59757 12.6077 3.64282 12.6476 3.67535C12.6935 3.7128 12.7732 3.74501 12.8839 3.74501C14.9785 3.74501 16.8299 5.51169 16.8299 7.60185C16.8299 9.68942 14.9792 11.4839 12.8839 11.4839C12.8244 11.4839 12.7874 11.4915 12.7663 11.4988C12.7471 11.5054 12.7412 11.5115 12.7393 11.5135C12.7357 11.5174 12.7068 11.5519 12.7068 11.6804C12.7068 11.8089 12.7357 11.8434 12.7393 11.8473C12.7412 11.8493 12.7471 11.8554 12.7663 11.862C12.7874 11.8693 12.8244 11.8769 12.8839 11.8769C16.0856 11.8769 18.8197 14.5469 18.8197 17.7255C18.8197 17.853 18.8484 17.9331 18.8769 17.9729C18.8897 17.9906 18.9024 18.0009 18.9159 18.0076C18.9297 18.0145 18.9543 18.0228 18.9968 18.0228C19.1673 18.0228 19.3 17.887 19.3 17.7255C19.3 15.0833 17.6654 12.8148 15.3349 11.8563H15.2674L15.2674 11.5563Z" fill="#666666"/>
</svg>
