<svg width="20" height="21" viewBox="0 0 20 21" fill="none" xmlns="http://www.w3.org/2000/svg">
<g clip-path="url(#clip0)">
<path d="M9.99982 14.5941C7.98056 14.5941 6.3374 12.9512 6.3374 10.932C6.3374 8.91246 7.98056 7.26953 9.99982 7.26953C12.0191 7.26953 13.6618 8.91246 13.6618 10.932C13.6618 12.9512 12.0191 14.5941 9.99982 14.5941ZM9.99982 8.5015C8.65961 8.5015 7.56937 9.59174 7.56937 10.932C7.56937 12.2719 8.65961 13.3622 9.99982 13.3622C11.3398 13.3622 12.43 12.2719 12.43 10.932C12.43 9.59174 11.3398 8.5015 9.99982 8.5015Z" fill="#666666"/>
<path d="M13.1751 20.4368C12.7047 20.4368 12.2463 20.1928 11.9945 19.7569C11.5941 19.0638 10.8492 18.6338 10.0491 18.6338H10.0463L9.95872 18.6336C9.95161 18.6334 9.94427 18.6334 9.9367 18.6334C9.14322 18.6334 8.41578 19.0436 8.03234 19.7085C7.84314 20.0362 7.53767 20.2706 7.17188 20.3683C6.80587 20.4666 6.42449 20.4162 6.09701 20.227L3.86057 18.9352C3.54386 18.7524 3.31728 18.4572 3.2228 18.1041C3.12831 17.7509 3.1767 17.3821 3.35971 17.0654C3.76608 16.3616 3.76654 15.4867 3.36108 14.7824L3.34526 14.7549C2.94118 14.0529 2.18713 13.617 1.37759 13.617C0.618048 13.617 0 12.9989 0 12.2394V9.68875C0 8.89457 0.646027 8.24855 1.4402 8.24855C2.21213 8.24855 2.93086 7.833 3.3159 7.16427C3.7498 6.41091 3.74934 5.47524 3.31476 4.72235L3.24458 4.60103C2.9304 4.0566 3.11753 3.35897 3.66105 3.04524L6.08715 1.64449C6.76987 1.25073 7.64499 1.48556 8.03876 2.16736C8.41945 2.82738 9.14115 3.23467 9.92524 3.23467C9.93326 3.23467 9.94152 3.23467 9.94932 3.23444L10.0303 3.23398H10.033C10.8488 3.23398 11.5932 2.80445 11.9924 2.11232C12.1777 1.79126 12.4704 1.56674 12.8208 1.47295C13.1703 1.37846 13.5363 1.42708 13.8502 1.60848L16.1493 2.93608C16.4632 3.11703 16.6878 3.40965 16.7816 3.75984C16.8754 4.1098 16.8272 4.47558 16.6463 4.78931C16.2513 5.47318 16.266 6.34349 16.6848 7.06061L16.7096 7.10349C17.1155 7.80823 17.8569 8.24809 18.643 8.24809C19.3914 8.24809 20 8.85673 20 9.60504V12.2623C20 13.009 19.3925 13.6165 18.6456 13.6165C17.8587 13.6165 17.1162 14.0571 16.7082 14.7661L16.6857 14.8049C16.2669 15.5225 16.2525 16.3935 16.6479 17.0778C17.0208 17.7245 16.7985 18.554 16.1523 18.9274L13.8539 20.2543C13.6395 20.3781 13.4058 20.4368 13.1751 20.4368ZM10.0502 17.4019C11.2882 17.4019 12.4419 18.0678 13.0613 19.1409C13.0834 19.1792 13.1162 19.1943 13.1395 19.2007C13.1634 19.2076 13.1987 19.2097 13.2372 19.1881L15.5356 17.8612C15.5939 17.8275 15.6138 17.7527 15.5801 17.6943C14.9643 16.6281 14.9802 15.2833 15.6209 14.1846L16.1736 14.4595L15.6397 14.1522C16.2672 13.0622 17.4186 12.385 18.6449 12.385C18.7123 12.385 18.7673 12.3302 18.7673 12.2628V9.6055C18.7673 9.5367 18.7112 9.48052 18.6421 9.48052C17.4168 9.48052 16.266 8.80422 15.639 7.71558L15.6198 7.6821C14.9788 6.58383 14.963 5.23972 15.5783 4.17378C15.5996 4.13686 15.5968 4.10177 15.5909 4.07884C15.5849 4.05614 15.5698 4.02449 15.5329 4.00316L13.2343 2.67556C13.2201 2.66729 13.2044 2.66194 13.1882 2.65981C13.1719 2.65768 13.1554 2.65883 13.1395 2.66318C13.1166 2.66914 13.0852 2.68428 13.0639 2.7212C12.4408 3.80066 11.2875 4.46618 10.0495 4.46618H10.0456L9.96354 4.46664C8.72262 4.47857 7.57872 3.83483 6.97191 2.78335C6.93682 2.72189 6.88201 2.69964 6.85243 2.69184C6.82261 2.68405 6.76436 2.67625 6.70336 2.71134L4.35822 4.06531L4.38138 4.10567C5.03543 5.23857 5.03612 6.64575 4.38344 7.77888C3.77915 8.8283 2.6513 9.48029 1.4402 9.48029C1.32531 9.48029 1.23197 9.57362 1.23197 9.68852V12.2391C1.23197 12.3194 1.29733 12.3848 1.37759 12.3848C2.62676 12.3848 3.7897 13.0572 4.4128 14.1398L4.42862 14.1671C5.05263 15.2514 5.05194 16.5978 4.42656 17.681C4.40317 17.7218 4.40615 17.7598 4.4128 17.7851C4.41945 17.8098 4.43596 17.8447 4.47632 17.8679L6.71345 19.1592C6.80151 19.2101 6.91503 19.1803 6.96572 19.0918C7.56909 18.0465 8.70496 17.4007 9.93579 17.4007C9.94725 17.4007 9.95803 17.4007 9.96927 17.4009L10.0463 17.4012C10.0472 17.4019 10.0488 17.4019 10.0502 17.4019Z" fill="#666666"/>
</g>
<defs>
<clipPath id="clip0">
<rect width="20" height="20" fill="white" transform="translate(0 0.925781)"/>
</clipPath>
</defs>
</svg>
