<svg width="26" height="29" viewBox="0 0 26 29" fill="none" xmlns="http://www.w3.org/2000/svg">
<path fill-rule="evenodd" clip-rule="evenodd" d="M0.819824 22.5399C0.819824 23.5423 1.62849 24.351 2.63089 24.351H23.2855C24.2879 24.351 25.0966 23.5423 25.0966 22.5399C25.0966 21.5375 24.2879 20.7288 23.2855 20.7288H22.5695V12.0525C22.5695 7.45632 19.1839 3.65425 14.7693 3.00302V1.88529C14.7693 0.882883 13.9606 0.0742188 12.9582 0.0742188C11.9558 0.0742188 11.1471 0.882883 11.1471 1.88529V3.00301C6.73253 3.65422 3.34687 7.4563 3.34687 12.0525V20.7288H2.63089C1.62849 20.7288 0.819824 21.5375 0.819824 22.5399ZM12.9582 28.0742C14.4829 28.0742 15.7211 26.8359 15.7211 25.3113H10.1953C10.1953 26.8359 11.4335 28.0742 12.9582 28.0742Z" fill="#BDBDBD"/>
</svg>
