<svg width="16" height="17" viewBox="0 0 16 17" fill="none" xmlns="http://www.w3.org/2000/svg">
<g clip-path="url(#clip0)">
<path d="M15.7429 3.51804C15.403 3.18644 14.8642 3.19468 14.5325 3.5346L5.76334 12.4896L1.45902 8.1854C1.12742 7.8538 0.5803 7.8538 0.2487 8.1854C-0.0829 8.517 -0.0829 9.0642 0.2487 9.39572L5.06782 14.2148C5.09654 14.2545 5.12838 14.2929 5.1647 14.3284C5.24289 14.4071 5.33587 14.4696 5.43831 14.5123C5.54075 14.555 5.65061 14.577 5.76158 14.577C5.98542 14.577 6.20926 14.4941 6.37502 14.3199L15.7595 4.72836C15.8382 4.64798 15.9003 4.55282 15.942 4.44837C15.9838 4.34392 16.0046 4.23223 16.003 4.11974C16.0015 4.00725 15.9777 3.89617 15.933 3.79291C15.8884 3.68964 15.8238 3.59623 15.7429 3.51804Z" fill="#1A7DF1"/>
</g>
<defs>
<clipPath id="clip0">
<rect width="16" height="16" fill="white" transform="translate(0 0.925781)"/>
</clipPath>
</defs>
</svg>
