<svg id="Layer_1" data-name="Layer 1" xmlns="http://www.w3.org/2000/svg" viewBox="0 0 300 69.75"><defs><style>.cls-1{fill:#fff;}</style></defs><title>adtiming-logo-white</title><path class="cls-1" d="M106.6,39.06V63.89h6.94V36.09h13.14V30.6h-33v5.49h9.82a2.82,2.82,0,0,1,3.09,2.52A2.26,2.26,0,0,1,106.6,39.06Z"/><path class="cls-1" d="M53.85,35.49v28h21.8C84.09,63.49,91,56.07,91,47S84.09,30.48,75.65,30.48H59.8C53.63,30.48,53.85,35.49,53.85,35.49ZM75.16,58.1H60.51V35.92H75.16c5.44,0,9.87,5,9.87,11.09S80.6,58.1,75.16,58.1Z"/><polygon class="cls-1" points="147.08 63.89 153.33 63.89 153.31 44.76 147.08 38.52 147.08 63.89"/><polygon class="cls-1" points="182.44 63.89 188.69 63.89 188.69 38.06 182.44 43.27 182.44 63.89"/><path class="cls-1" d="M242,54.07l-25.4-23.3h-5V63.89h6.91V43.49s0-.85.42-1.09a1.28,1.28,0,0,1,1.32.14l14,12.85,8.83,8.19h7.75V30.81h-7V53.37a1.1,1.1,0,0,1-.43,1.09C242.82,54.79,242,54.07,242,54.07Z"/><path class="cls-1" d="M289.7,38.35v1.49H296V37c0-6.39-6.45-6.12-6.45-6.12H263.32c-6.82,0-6.29,5.88-6.29,5.88V58.53s-.3,5,6.42,5h32.69L296.25,50c0-6-6.59-5.3-6.59-5.3H270l2.53,6h17.11v5.44a2.18,2.18,0,0,1-2.05,2.3,1.61,1.61,0,0,1-.38,0h-24V36.76H288a1.61,1.61,0,0,1,1.7,1.5Z"/><rect class="cls-1" x="198.15" y="30.97" width="6.25" height="32.92"/><rect class="cls-1" x="132.21" y="30.76" width="6.25" height="33.12"/><path class="cls-1" d="M42,30.41H20.85c-7,0-8.39,5.27-8.39,5.27L3.75,63.53H10.5l8.8-27.6H40.59v9.14H21.3l2.3,6H36.39s4.2-.37,4.2,3.62V63.4h7V36.1C47.56,29.82,42,30.41,42,30.41Z"/><polygon class="cls-1" points="149.75 27.21 144.87 32.06 144.8 36.04 147.06 34.48 155.1 42.42 149.85 27.28 149.75 27.21"/><polygon class="cls-1" points="166.98 38.53 149.85 27.28 155.1 42.42 155.13 42.45 166.98 38.53"/><polygon class="cls-1" points="166.83 38.49 176.86 45.09 194.39 22.25 166.83 38.49"/><polygon class="cls-1" points="176.86 45.09 176.95 45.15 206.5 19.96 194.37 22.27 176.86 45.09"/><polygon class="cls-1" points="223.81 4.92 194.39 22.25 194.37 22.27 206.5 19.96 223.81 5.21 223.81 4.92"/><polygon class="cls-1" points="176.82 45.15 176.86 45.09 166.83 38.49 166.81 38.5 166.78 38.5 155.13 42.45 166.7 53.89 176.95 45.15 176.86 45.09 176.82 45.15"/><polygon class="cls-1" points="166.81 38.5 166.75 34.94 223.81 4.92 166.81 38.5"/><polygon class="cls-1" points="166.79 34.99 151.63 27.09 149.75 27.21 166.81 38.5 166.79 34.99"/></svg>