<svg width="12" height="12" viewBox="0 0 12 12" fill="none" xmlns="http://www.w3.org/2000/svg">
<path d="M6.91018 5.87899L11.6981 1.0911C11.9401 0.84907 11.9401 0.45177 11.6981 0.209742L11.6718 0.183527C11.4298 -0.0584883 11.0325 -0.0584883 10.7905 0.183527L6.00261 4.97748L1.21471 0.181512C0.972696 -0.0605039 0.575383 -0.0605039 0.333367 0.181512L0.307141 0.207727C0.0590781 0.449742 0.0590781 0.847055 0.307141 1.08907L5.09505 5.87899L0.307141 10.6669C0.065125 10.9089 0.065125 11.3062 0.307141 11.5482L0.333367 11.5744C0.575383 11.8165 0.972696 11.8165 1.21471 11.5744L6.00261 6.78654L10.7905 11.5744C11.0325 11.8165 11.4298 11.8165 11.6719 11.5744L11.6981 11.5482C11.9401 11.3062 11.9401 10.9089 11.6981 10.6669L6.91018 5.87899Z" fill="white"/>
</svg>
