<svg width="12" height="12" viewBox="0 0 12 12" fill="none" xmlns="http://www.w3.org/2000/svg">
<path fill-rule="evenodd" clip-rule="evenodd" d="M4.55139 7.31224C3.38471 6.14556 3.38471 4.254 4.55139 3.08732L6.72034 0.918369C7.92399 -0.285288 9.87551 -0.285291 11.0792 0.918367C12.2828 2.12203 12.2828 4.07354 11.0792 5.2772L9.72083 6.63554C9.54509 6.81128 9.26017 6.81128 9.08443 6.63554C8.9087 6.4598 8.9087 6.17488 9.08443 5.99914L10.4428 4.6408C11.295 3.78862 11.295 2.40695 10.4428 1.55476C9.59059 0.702578 8.20892 0.702579 7.35673 1.55477L5.18778 3.72371C4.37258 4.53892 4.37258 5.86064 5.18779 6.67584C5.34754 6.8356 5.52008 6.98204 5.70368 7.11371L6.0213 7.34148C6.22326 7.48632 6.26957 7.76745 6.12474 7.96941C5.9799 8.17138 5.69877 8.21769 5.4968 8.07285L5.17918 7.84508C4.95576 7.68486 4.7458 7.50665 4.55139 7.31224Z" fill="#999999"/>
<path fill-rule="evenodd" clip-rule="evenodd" d="M1.5323 7.37919C0.680118 8.23138 0.680117 9.61305 1.5323 10.4652C2.38449 11.3174 3.76616 11.3174 4.61834 10.4652L6.44416 8.63942C7.44887 7.6347 7.44887 6.00573 6.44415 5.00101L6.43417 4.99103L5.97213 4.62894C5.77651 4.47564 5.74221 4.19279 5.89551 3.99717C6.04881 3.80156 6.33166 3.76725 6.52728 3.92055L7.01072 4.29942C7.02497 4.31059 7.03854 4.32261 7.05135 4.33541L7.08055 4.36462C8.43674 5.72081 8.43674 7.91962 7.08055 9.27581L5.25474 11.1016C4.05108 12.3053 2.09957 12.3053 0.895907 11.1016C-0.307751 9.89797 -0.30775 7.94645 0.895908 6.7428L2.27436 5.36434C2.4501 5.18861 2.73502 5.18861 2.91076 5.36434C3.08649 5.54008 3.08649 5.825 2.91076 6.00074L1.5323 7.37919Z" fill="#999999"/>
</svg>
