<svg width="256" height="64" viewBox="0 0 256 64" fill="none" xmlns="http://www.w3.org/2000/svg">
<rect width="256" height="64" fill="#B02D13"/>
<path d="M109.003 30.0011V40.9365H112.088V28.7394H117.836V26.2158H103.395V28.5992H107.741C107.601 28.5992 109.003 28.5992 109.003 30.0011Z" fill="white"/>
<path d="M85.8707 28.3184V40.6557H95.5443C99.1894 40.6557 102.274 37.4312 102.274 33.3654C102.274 29.4399 99.3296 26.0752 95.5443 26.0752H88.5344C85.8707 26.2154 85.8707 28.3184 85.8707 28.3184ZM95.2639 38.2723H88.8148V28.5987H95.2639C97.6473 28.5987 99.61 30.8419 99.61 33.5056C99.61 36.1694 97.6473 38.2723 95.2639 38.2723Z" fill="white"/>
<path d="M126.808 40.7963H129.472V32.3844L126.808 29.7207V40.7963Z" fill="white"/>
<path d="M142.23 40.7958H145.034V29.5801L142.23 31.8232V40.7958Z" fill="white"/>
<path d="M168.307 36.4506L157.231 26.3564H154.988V28.0388V40.9369H158.072V31.9643C158.072 31.9643 158.072 31.5437 158.213 31.5437C158.493 31.4035 158.773 31.5437 158.773 31.5437L164.942 37.1516L168.868 40.7968H172.232V26.3564H169.148V36.1702C169.148 36.1702 169.148 36.4506 169.008 36.5908C168.727 36.8712 168.307 36.4506 168.307 36.4506Z" fill="white"/>
<path d="M189.196 29.5802V30.2812H192V29.0194C192 26.2155 189.196 26.3557 189.196 26.3557H177.7C174.756 26.3557 174.896 28.8792 174.896 28.8792V38.4126C174.896 38.4126 174.756 40.6558 177.7 40.6558H192V34.6273C192 31.9635 189.056 32.2439 189.056 32.2439H180.504L181.625 34.9077H189.056V37.291C189.056 37.291 189.056 38.2724 187.934 38.2724H177.419V28.8792H188.215C188.495 28.8792 189.196 28.8792 189.196 29.5802Z" fill="white"/>
<path d="M151.904 26.3564H149.1V40.7968H151.904V26.3564Z" fill="white"/>
<path d="M123.023 26.3564H120.219V40.7968H123.023V26.3564Z" fill="white"/>
<path d="M80.6835 26.2155H71.4304C68.3461 26.2155 67.7853 28.4587 67.7853 28.4587L64 40.6558H66.9441L70.7295 28.5989H80.1227V32.5244H71.7108L72.6922 35.1881H78.3001C78.3001 35.1881 80.1227 35.0479 80.1227 36.7303V40.5156H83.207V28.5989C83.207 25.9351 80.6835 26.2155 80.6835 26.2155Z" fill="white"/>
<path d="M127.93 24.8135L125.827 26.9164L125.687 28.5988L126.808 27.8978L130.313 31.4027L127.93 24.8135Z" fill="white"/>
<path d="M135.501 29.7204L127.93 24.8135L130.313 31.4027L135.501 29.7204Z" fill="white"/>
<path d="M135.36 29.7204L139.847 32.5243L147.417 22.5703L135.36 29.7204Z" fill="white"/>
<path d="M139.847 32.5242V32.6644L152.745 21.5889L147.417 22.5702L139.847 32.5242Z" fill="white"/>
<path d="M160.315 15L147.417 22.5706L152.745 21.5893L160.315 15.1402V15Z" fill="white"/>
<path d="M139.706 32.6648L139.847 32.5246L135.36 29.7207L130.313 31.4031L135.36 36.4502L139.847 32.6648V32.5246L139.706 32.6648Z" fill="white"/>
<path d="M135.36 29.7207V28.1785L160.315 15L135.36 29.7207Z" fill="white"/>
<path d="M135.36 28.1788L128.771 24.6738L127.93 24.814L135.36 29.7209V28.1788Z" fill="white"/>
</svg>
