<svg width="256" height="64" viewBox="0 0 256 64" fill="none" xmlns="http://www.w3.org/2000/svg">
<path d="M0 0H256V64H0V0Z" fill="#912D27"/>
<g clip-path="url(#clip0)">
<path d="M45.7492 18C42.9351 18.5724 40.9127 21.0696 39.742 23.9904C41.6534 23.2249 43.6904 22.8212 45.7492 22.8C47.808 22.8212 49.845 23.2249 51.7564 23.9904C54.676 25.1616 57.1722 27.1848 57.7444 30C57.7444 26.8174 56.4806 23.7652 54.2311 21.5147C51.9816 19.2643 48.9305 18 45.7492 18V18Z" fill="url(#paint0_linear)"/>
<path d="M33.7444 30C34.3166 32.8152 36.8128 34.8384 39.7324 36.0096C38.9672 34.0974 38.5637 32.0596 38.5425 30C38.5637 27.9404 38.9672 25.9026 39.7324 23.9904C40.9031 21.0696 42.9255 18.5724 45.7396 18C42.5583 18 39.5072 19.2643 37.2577 21.5147C35.0082 23.7652 33.7444 26.8174 33.7444 30V30Z" fill="url(#paint1_linear)"/>
<path d="M51.7468 23.9907C52.512 25.9029 52.9155 27.9407 52.9368 30.0003C52.9155 32.06 52.512 34.0977 51.7468 36.0099C50.5761 38.9307 48.5537 41.4279 45.7396 42.0003C48.921 42.0003 51.972 40.736 54.2215 38.4856C56.4711 36.2352 57.7348 33.1829 57.7348 30.0003C57.1627 27.1851 54.6665 25.1619 51.7468 23.9907Z" fill="url(#paint2_linear)"/>
<path d="M45.7396 37.2C43.6808 37.1788 41.6438 36.7751 39.7324 36.0096C36.8128 34.8384 34.3166 32.8152 33.7444 30C33.7444 33.1826 35.0082 36.2348 37.2577 38.4853C39.5072 40.7357 42.5583 42 45.7396 42C48.5537 41.4276 50.5761 38.9304 51.7468 36.0096C49.8354 36.7751 47.7984 37.1788 45.7396 37.2Z" fill="url(#paint3_linear)"/>
<path d="M39.7276 35.9999L44.1275 31.6133" stroke="url(#paint4_linear)" stroke-width="0.2" stroke-miterlimit="10"/>
<path d="M51.7541 36.0097L47.385 31.6445" stroke="url(#paint5_linear)" stroke-width="0.2" stroke-miterlimit="10"/>
<path d="M51.7779 24L47.3381 28.4023" stroke="url(#paint6_linear)" stroke-width="0.2" stroke-miterlimit="10"/>
<path d="M44.1275 28.3888L39.7107 24" stroke="url(#paint7_linear)" stroke-width="0.2" stroke-miterlimit="10"/>
<path d="M44.0753 31.669C43.8617 31.1381 43.7485 30.5722 43.7415 30C43.7485 29.4277 43.8617 28.8618 44.0753 28.3309C44.6062 28.1173 45.1721 28.0041 45.7443 27.9971C46.3165 28.0041 46.8825 28.1173 47.4134 28.3309C47.627 28.8618 47.7401 29.4277 47.7472 30C47.7401 30.5722 47.627 31.1381 47.4134 31.669C46.8825 31.8826 46.3165 31.9958 45.7443 32.0028C45.1721 31.9958 44.6062 31.8826 44.0753 31.669Z" fill="white"/>
</g>
<g clip-path="url(#clip1)">
<path d="M196.308 33.038C196.308 28.5808 199.305 26 202.618 26C205.931 26 208.925 28.5808 208.925 33.038C208.925 37.4953 205.929 40.062 202.618 40.062C199.307 40.062 196.308 37.4953 196.308 33.038ZM206.052 33.038C206.052 30.2124 204.735 28.3139 202.618 28.3139C200.501 28.3139 199.206 30.2124 199.206 33.038C199.206 35.8637 200.523 37.7622 202.618 37.7622C204.713 37.7622 206.042 35.8878 206.042 33.038H206.052Z" fill="white"/>
<path d="M142.591 27.7851C141.453 26.5629 139.968 25.9448 138.176 25.9448C136.326 25.9448 134.798 26.575 133.636 27.8232C132.474 29.0715 131.888 30.8335 131.888 33.0812C131.888 35.2506 132.47 36.9625 133.618 38.1706C134.766 39.3787 136.344 39.9928 138.3 39.9928C139.854 39.9928 141.15 39.6075 142.154 38.8489C143.188 38.0443 143.917 36.912 144.223 35.6379L144.253 35.5276L141.738 35.2165L141.712 35.2928C141.379 36.2159 140.925 36.8982 140.361 37.3157C139.766 37.7443 139.046 37.9656 138.312 37.9458C137.809 37.9568 137.309 37.8618 136.845 37.6672C136.38 37.4726 135.962 37.1825 135.617 36.816C134.915 36.0815 134.511 35.0098 134.413 33.6411H144.285V33.5448C144.293 33.2772 144.297 33.0765 144.297 32.9427C144.311 30.7392 143.727 29.0033 142.591 27.7851ZM134.541 31.5981C134.632 30.5225 135.011 29.6495 135.671 29.0013C136.004 28.6727 136.399 28.4145 136.833 28.2421C137.268 28.0696 137.733 27.9866 138.2 27.9978C138.716 27.9855 139.228 28.0922 139.696 28.3097C140.164 28.5273 140.576 28.8497 140.899 29.2521C141.335 29.7719 141.61 30.5606 141.714 31.5941L134.541 31.5981Z" fill="white"/>
<path d="M222.162 29.3141C222.042 28.6915 221.793 28.1008 221.432 27.5802C221.024 27.0464 220.478 26.6353 219.852 26.3922C219.128 26.089 218.349 25.9368 217.564 25.9446C215.772 25.9446 214.353 26.6209 213.35 27.9515V26.2497H211.088V39.9926H213.583V32.495C213.583 30.7992 213.93 29.6372 214.614 29.0392C215.294 28.4413 216.173 28.1186 217.079 28.1341C217.622 28.1222 218.157 28.2612 218.626 28.5355C219.04 28.7756 219.361 29.1492 219.535 29.5951C219.708 30.0446 219.796 30.739 219.796 31.6561V39.9926H222.292V31.5638C222.313 30.8116 222.269 30.059 222.162 29.3141Z" fill="white"/>
<path d="M126.486 21L121.988 34.0707C121.659 35.0319 121.386 35.8287 121.186 36.4488C121.007 35.8889 120.774 35.1684 120.485 34.2994L116.046 21H112V39.9929H114.77V25.1803L119.803 39.9929H122.309L127.367 25.4151V39.9929H130.14V21H126.486Z" fill="white"/>
<path d="M84.7567 27.7851C83.6208 26.5629 82.1337 25.9448 80.3416 25.9448C78.4933 25.9448 76.9661 26.575 75.8041 27.8232C74.6421 29.0715 74.0481 30.8335 74.0481 33.0812C74.0481 35.2506 74.6301 36.9625 75.778 38.1706C76.9259 39.3787 78.5093 39.9928 80.47 39.9928C82.0233 39.9928 83.3198 39.6075 84.3212 38.8489C85.3226 38.0903 86.021 37.0106 86.3923 35.6379L86.4224 35.5276L83.9078 35.2165L83.8797 35.2928C83.5486 36.2159 83.093 36.8982 82.5311 37.3157C81.9353 37.744 81.2156 37.9653 80.4821 37.9458C79.9784 37.9569 79.4781 37.8621 79.0134 37.6674C78.5488 37.4728 78.1302 37.1827 77.7849 36.816C77.0825 36.0815 76.6791 35.0098 76.5808 33.6411H86.4505V33.5448C86.4585 33.2772 86.4625 33.0765 86.4625 32.9427C86.4685 30.7392 85.8886 29.0033 84.7567 27.7851ZM76.7072 31.5981C76.7975 30.5225 77.1768 29.6495 77.837 29.0013C78.1699 28.6727 78.5655 28.4145 79.0003 28.2421C79.4351 28.0697 79.9001 27.9867 80.3677 27.9978C80.8857 27.9838 81.4 28.0897 81.8703 28.3073C82.3406 28.5248 82.7543 28.8482 83.079 29.2521C83.5144 29.7719 83.7874 30.5606 83.8937 31.5941L76.7072 31.5981Z" fill="white"/>
<path d="M99.1683 29.3141C99.0494 28.6912 98.8005 28.1004 98.4378 27.5802C98.0314 27.0465 97.4855 26.6354 96.8604 26.3922C96.1354 26.0889 95.3563 25.9367 94.5706 25.9446C92.9089 25.9446 91.5743 26.5266 90.591 27.6745V26.2497H88.0964V39.9926H90.593V32.495C90.593 30.7992 90.9381 29.6373 91.6225 29.0392C92.3029 28.4417 93.1815 28.119 94.0869 28.1341C94.6305 28.1222 95.1668 28.2611 95.6362 28.5355C96.0499 28.7757 96.3697 29.1493 96.5433 29.5951C96.7179 30.0446 96.8042 30.739 96.8042 31.6561V39.9926H99.3007V31.5638C99.3206 30.8115 99.2762 30.0589 99.1683 29.3141Z" fill="white"/>
<path d="M60.0002 26.2742H62.2861L62.5048 27.7272H62.577C63.739 26.7579 65.186 25.9351 66.6951 25.9351C70.0626 25.9351 71.9531 28.6242 71.9531 32.7182C71.9531 37.2959 69.2157 39.9128 66.2215 39.9128C65.0334 39.9128 63.8474 39.381 62.7075 38.4117L62.8058 40.6895V45.0002H60.0002V26.2742ZM69.0692 32.7664C69.0692 29.9809 68.1742 28.261 65.9446 28.261C64.903 28.261 63.9096 28.7928 62.7958 29.8846V36.4008C63.8374 37.2959 64.8548 37.6049 65.6776 37.6049C67.6263 37.611 69.0692 35.8911 69.0692 32.7664Z" fill="white"/>
<path d="M155.321 21V27.4219C154.279 26.561 153.326 26.0171 151.859 26.0171C148.881 26.0171 146.143 28.7043 146.143 33.0151C146.143 37.4462 148.299 39.9889 151.64 39.9889C153.045 39.9889 154.345 39.2865 155.321 38.3633V39.9889H158.104V21H155.321ZM152.294 37.691C150.211 37.691 149.025 36.0213 149.025 32.995C149.025 30.1131 150.526 28.3451 152.391 28.3451C153.384 28.3451 154.327 28.6602 155.321 29.5492V36.0695C154.345 37.1833 153.408 37.691 152.294 37.691Z" fill="white"/>
<path d="M177.022 31.6123C177.022 28.0582 175.489 25.939 172.154 25.939C170.01 25.939 168.14 26.816 166.747 27.693L167.791 29.5914C168.935 28.8609 170.249 28.2288 171.662 28.2288C173.635 28.2288 174.195 29.5914 174.219 31.1488C168.644 31.7508 166.209 33.2439 166.209 36.1157C166.209 38.4778 167.839 39.987 170.153 39.987C171.674 39.987 173.043 39.2665 174.219 38.2992V39.987H177.002V39.6639H177.022V31.6123ZM171.002 37.7714C169.797 37.7714 168.906 37.2356 168.906 35.9211C168.906 34.4119 170.245 33.3904 174.215 32.9268V36.2141C173.117 37.2115 172.168 37.7714 171.002 37.7714Z" fill="white"/>
<path d="M62.7958 26.2744H60.0002V45.0004H62.7958V26.2744Z" fill="white"/>
<path fill-rule="evenodd" clip-rule="evenodd" d="M164.182 23.0108C164.182 24.1191 163.284 25.0176 162.176 25.0176C161.067 25.0176 160.169 24.1191 160.169 23.0108C160.169 21.9024 161.067 21.0039 162.176 21.0039C163.284 21.0039 164.182 21.9024 164.182 23.0108ZM160.771 25.9351H163.58V39.9931H160.771V25.9351Z" fill="white"/>
<path fill-rule="evenodd" clip-rule="evenodd" d="M194.642 23.0108C194.642 24.1191 193.743 25.0176 192.635 25.0176C191.527 25.0176 190.628 24.1191 190.628 23.0108C190.628 21.9024 191.527 21.0039 192.635 21.0039C193.743 21.0039 194.642 21.9024 194.642 23.0108ZM191.23 39.9931V25.9351H194.04V39.9931H191.23Z" fill="white"/>
<path d="M188.112 37.1994C187.616 37.4109 187.085 37.5279 186.546 37.5445C185.043 37.5445 184.431 36.6535 184.423 34.9356V27.4821H188.218V25.0137H184.423V21H184.341L181.369 21.4214V25.0137H179.243V27.4801H181.369V34.9657C181.395 37.988 182.547 39.9829 185.802 39.9829C186.778 39.9599 187.744 39.7845 188.666 39.4631L188.112 37.1994Z" fill="white"/>
</g>
<defs>
<linearGradient id="paint0_linear" x1="57.7348" y1="30" x2="33.6844" y2="30" gradientUnits="userSpaceOnUse">
<stop offset="0.498526" stop-color="white"/>
<stop offset="1" stop-color="white" stop-opacity="0"/>
</linearGradient>
<linearGradient id="paint1_linear" x1="45.7396" y1="18" x2="45.7396" y2="42.18" gradientUnits="userSpaceOnUse">
<stop offset="0.496278" stop-color="white"/>
<stop offset="1" stop-color="white" stop-opacity="0"/>
</linearGradient>
<linearGradient id="paint2_linear" x1="45.7396" y1="18.0603" x2="45.7396" y2="42.0003" gradientUnits="userSpaceOnUse">
<stop stop-color="white" stop-opacity="0"/>
<stop offset="0.498737" stop-color="white"/>
</linearGradient>
<linearGradient id="paint3_linear" x1="33.7444" y1="30" x2="57.7348" y2="30" gradientUnits="userSpaceOnUse">
<stop offset="0.500013" stop-color="white"/>
<stop offset="1" stop-color="white" stop-opacity="0"/>
</linearGradient>
<linearGradient id="paint4_linear" x1="41.9276" y1="31.6133" x2="41.9276" y2="35.9999" gradientUnits="userSpaceOnUse">
<stop stop-color="white"/>
<stop offset="1" stop-color="white" stop-opacity="0"/>
</linearGradient>
<linearGradient id="paint5_linear" x1="49.5696" y1="31.6445" x2="49.5696" y2="36.0097" gradientUnits="userSpaceOnUse">
<stop stop-color="white"/>
<stop offset="1" stop-color="white" stop-opacity="0"/>
</linearGradient>
<linearGradient id="paint6_linear" x1="49.558" y1="24" x2="49.558" y2="28.4023" gradientUnits="userSpaceOnUse">
<stop stop-color="white" stop-opacity="0"/>
<stop offset="1" stop-color="white"/>
</linearGradient>
<linearGradient id="paint7_linear" x1="41.9191" y1="24" x2="41.9191" y2="28.3888" gradientUnits="userSpaceOnUse">
<stop stop-color="white" stop-opacity="0"/>
<stop offset="1" stop-color="white"/>
</linearGradient>
<clipPath id="clip0">
<rect x="33.7444" y="18" width="24" height="24" fill="white"/>
</clipPath>
<clipPath id="clip1">
<rect x="60.0002" y="21" width="164" height="24.0004" fill="white"/>
</clipPath>
</defs>
</svg>
