<svg width="32" height="32" viewBox="0 0 32 32" fill="none" xmlns="http://www.w3.org/2000/svg">
<rect width="32" height="32" rx="7.2" fill="#EFF0F1"/>
<g clip-path="url(#clip0)">
<path fill-rule="evenodd" clip-rule="evenodd" d="M26.0002 19.3001C26.0002 22.9013 23.1589 25.8388 19.5956 25.9935V26.0001H19.3C15.5997 26.0001 12.5999 23.0007 12.5999 19.3003C12.5999 15.5999 15.5996 12.6001 19.3 12.6001C23.0004 12.6001 26.0002 15.5999 26.0002 19.3001ZM19.301 15.8028C18.9906 15.8018 18.6806 15.7928 18.371 15.7757C18.4999 15.2341 18.6544 14.7938 18.8221 14.4803C18.9226 14.2924 19.0207 14.1638 19.1091 14.0853C19.1955 14.0085 19.2583 13.9915 19.3 13.9915C19.3419 13.9915 19.4046 14.0085 19.4909 14.0852C19.5793 14.1637 19.6773 14.2924 19.7777 14.4802C19.9454 14.7937 20.0998 15.2338 20.2288 15.7753C19.9282 15.7921 19.6213 15.8028 19.301 15.8028ZM21.5739 15.654C21.451 15.1678 21.3036 14.7216 21.1338 14.3302C21.7824 14.572 22.369 14.9397 22.8692 15.4019H22.8328L22.7939 15.4127C22.4509 15.5083 22.0377 15.5899 21.5739 15.654ZM21.8336 16.9781C22.5659 16.8481 23.2159 16.6623 23.7442 16.4314C24.0965 16.9724 24.3461 17.5733 24.481 18.2041H21.9627C21.9359 17.7939 21.8929 17.3849 21.8336 16.9781ZM15.7669 15.4017H15.7302C16.2304 14.9396 16.8171 14.572 17.4659 14.3301C17.296 14.7217 17.1486 15.1679 17.0256 15.6538C16.5619 15.5897 16.1488 15.5081 15.8059 15.4126L15.7669 15.4017ZM14.1186 18.2041C14.2536 17.5732 14.5034 16.9721 14.8558 16.4309C15.3841 16.6622 16.0346 16.8484 16.7678 16.9783C16.7085 17.385 16.6654 17.7939 16.6386 18.2041H14.1186ZM18.0335 18.2044C18.0548 17.8509 18.0873 17.4986 18.1309 17.1473C18.508 17.1766 18.8978 17.194 19.3008 17.194C19.7036 17.194 20.0934 17.1766 20.4703 17.1473C20.5138 17.4985 20.5461 17.8507 20.5672 18.2039L18.0335 18.2044ZM22.8471 23.1879L22.8819 23.1974C22.3779 23.661 21.786 24.0289 21.133 24.2707C21.3036 23.8775 21.4519 23.429 21.5756 22.9409C22.0599 23.0057 22.4902 23.0896 22.8471 23.1879ZM21.8354 21.6168C21.9314 20.9471 21.9851 20.2721 21.9961 19.5956L24.6009 19.595C24.5473 20.5337 24.2402 21.4005 23.7567 22.147C23.2222 21.923 22.5692 21.7429 21.8354 21.6168ZM17.0246 22.9404C17.148 23.4287 17.296 23.8769 17.4666 24.2699C16.8139 24.0279 16.2224 23.66 15.7186 23.1969L15.7533 23.1873C16.1103 23.0891 16.5406 23.0052 17.0246 22.9404ZM14.8443 22.1477C14.3608 21.4008 14.0538 20.534 14.0001 19.5958L16.6048 19.5963C16.6159 20.2728 16.6696 20.9478 16.7655 21.6175C16.0317 21.7436 15.3788 21.9235 14.8443 22.1477ZM17.9968 19.5957H20.6031C20.5932 20.2165 20.5501 20.8363 20.474 21.4525C20.0956 21.4237 19.7045 21.4064 19.2999 21.4064C18.8951 21.4064 18.504 21.4238 18.1258 21.4526C18.0497 20.8363 18.0066 20.2165 17.9968 19.5957ZM18.8172 24.1199C18.6483 23.8068 18.4925 23.3667 18.3628 22.8247C18.6661 22.8082 18.9769 22.7978 19.299 22.7978C19.6119 22.7987 19.9245 22.8075 20.2367 22.8243C20.1074 23.3663 19.9516 23.8064 19.7827 24.1196C19.6815 24.3073 19.5827 24.4359 19.4936 24.5145C19.4064 24.5914 19.3428 24.6087 19.3 24.6087H19.2919C19.2494 24.6067 19.1883 24.5871 19.1062 24.5147C19.0171 24.4362 18.9184 24.3076 18.8172 24.1199Z" fill="#333333"/>
<path fill-rule="evenodd" clip-rule="evenodd" d="M6.4502 7.75C6.4502 6.7835 7.2337 6 8.2002 6H18.2002C19.1667 6 19.9502 6.7835 19.9502 7.75V10.6968C19.9502 11.111 19.6144 11.4468 19.2002 11.4468C18.786 11.4468 18.4502 11.111 18.4502 10.6968V7.75C18.4502 7.61193 18.3383 7.5 18.2002 7.5H8.2002C8.06212 7.5 7.9502 7.61193 7.9502 7.75V24.25C7.9502 24.3881 8.06212 24.5 8.2002 24.5H12.4622C12.8764 24.5 13.2122 24.8358 13.2122 25.25C13.2122 25.6642 12.8764 26 12.4622 26H8.2002C7.2337 26 6.4502 25.2165 6.4502 24.25V7.75Z" fill="#333333"/>
</g>
<defs>
<clipPath id="clip0">
<rect width="20" height="20" fill="white" transform="translate(6 6)"/>
</clipPath>
</defs>
</svg>
