<svg width="200" height="24" viewBox="0 0 200 24" fill="none" xmlns="http://www.w3.org/2000/svg">
<path fill-rule="evenodd" clip-rule="evenodd" d="M32.7006 9.02267C33.4501 8.45358 34.1851 7.89871 34.9201 7.34385C33.3773 5.23108 30.4083 4.58374 27.8468 5.25243C24.9215 6.0207 23.0221 8.46781 23.0003 11.3986C22.9785 14.4148 24.7832 16.9189 27.5703 17.7014C30.2046 18.4412 33.2827 17.8507 35.0001 15.4321C34.6963 15.2203 34.3924 15.0098 34.0896 14.8L34.0893 14.7998L34.0891 14.7997L34.0885 14.7992L34.0856 14.7972L34.083 14.7955L34.0826 14.7952L34.0792 14.7928C33.6531 14.4975 33.2289 14.2037 32.8097 13.9098C32.7104 13.9972 32.6178 14.0822 32.5282 14.1643L32.5281 14.1644L32.5281 14.1644C32.3553 14.3229 32.1938 14.4711 32.0165 14.6069C30.1172 16.0652 27.4393 15.4036 26.4715 13.2482C26.0858 12.3874 25.9984 11.484 26.2022 10.5663C26.5006 9.22897 27.2501 8.21883 28.6255 7.78489C30.0226 7.34385 31.2525 7.72799 32.3222 8.6741C32.4057 8.74616 32.4893 8.82471 32.575 8.90536C32.6163 8.94414 32.6581 8.98341 32.7006 9.02267ZM77.0001 7.07242H74.3933C74.3933 7.87445 74.3933 8.63571 74.386 9.38336V11.7351C74.3273 11.6693 74.2793 11.6168 74.238 11.5718C74.177 11.5051 74.131 11.4548 74.0875 11.402C73.7959 11.0493 73.4969 10.7008 73.1978 10.3522L73.1977 10.3521C72.5632 9.61251 71.9284 8.87264 71.3642 8.09195C70.7671 7.26953 70.0972 6.86851 69.0341 7.03844C68.8054 7.07556 68.5666 7.06516 68.3291 7.05483C68.2188 7.05002 68.1087 7.04523 68.0001 7.04523V15.956H70.6142V11.1438C70.6641 11.1958 70.7057 11.2379 70.7419 11.2746L70.7421 11.2747C70.7956 11.3289 70.8372 11.371 70.8763 11.4156C71.1438 11.7344 71.412 12.0531 71.6804 12.372L71.6884 12.3815C72.5791 13.4399 73.4714 14.5002 74.3424 15.5685C74.5972 15.8812 74.8521 16.0239 75.2744 15.9967C75.6734 15.9732 76.0759 15.979 76.4746 15.9848C76.6507 15.9874 76.8261 15.9899 77.0001 15.9899V7.07242ZM61.0101 7C64.7408 7.0262 67.0874 10.4124 65.4925 13.4712C64.6073 15.1676 62.5066 16.2025 60.455 15.9667C58.537 15.744 57.0897 14.8794 56.359 13.183C55.1927 10.4779 56.9843 7.57638 60.0686 7.0917C60.2641 7.06335 60.4596 7.04752 60.6534 7.03183C60.773 7.02214 60.8921 7.0125 61.0101 7ZM58.6494 11.4997C58.6564 12.8097 59.6822 13.8314 61.003 13.8314C62.3309 13.8314 63.3497 12.8359 63.3497 11.5456C63.3497 10.2094 62.3309 9.18108 60.996 9.18763C59.6471 9.18108 58.6424 10.1701 58.6494 11.4997ZM45.8791 10.5173C45.352 8.40431 43.4403 7.02625 41.0296 7C40.9162 7.0123 40.8029 7.02184 40.6896 7.03138C40.5007 7.04727 40.3118 7.06316 40.1229 7.09187C36.6439 7.60372 34.8517 11.2786 36.8056 13.9756C38.0215 15.649 39.7996 16.2002 41.8941 15.9377C44.6351 15.5899 46.5046 13.0372 45.8791 10.5173ZM41.0507 9.18522C42.379 9.2049 43.384 10.2417 43.3559 11.5607C43.3349 12.8797 42.3228 13.8575 40.9944 13.8378C39.652 13.8247 38.6259 12.7879 38.647 11.4623C38.6681 10.1367 39.7012 9.16553 41.0507 9.18522ZM12.0001 15.9866V7.02362C12.0502 7.02123 12.0994 7.01801 12.1481 7.01483L12.1481 7.01483C12.2392 7.00887 12.3282 7.00305 12.4173 7.00305C12.7839 7.00305 13.1513 7.00229 13.5189 7.00153H13.5189H13.5189H13.519C14.255 7 14.9922 6.99847 15.7261 7.00305C17.0856 7.01676 18.3587 7.30478 19.452 8.13456C21.6962 9.84211 21.6675 14.183 18.258 15.534C17.7041 15.7534 17.0927 15.9386 16.4957 15.966C15.4339 16.01 14.372 16.0017 13.2998 15.9933H13.2997H13.2997H13.2997C12.8684 15.99 12.4354 15.9866 12.0001 15.9866ZM14.6399 9.14949V13.8538C14.841 13.8373 15.0402 13.8258 15.2374 13.8144L15.2374 13.8144L15.2375 13.8144L15.2375 13.8144C15.6962 13.7878 16.1444 13.7619 16.582 13.6755C17.661 13.463 18.2652 12.688 18.3012 11.5977C18.3371 10.5004 17.7761 9.62953 16.7259 9.37579C16.2602 9.26479 15.773 9.23191 15.2746 9.19826L15.2745 9.19826C15.0648 9.1841 14.853 9.1698 14.6399 9.14949ZM9.36617 15.9992H9.36651H9.36686C9.57651 15.9987 9.78745 15.9983 10.0001 15.9983C9.97964 15.9102 9.97282 15.8831 9.95917 15.8356L6.29364 7.23349C6.26178 7.1657 6.23903 7.11298 6.21931 7.06729C6.20945 7.04444 6.20035 7.02335 6.19125 7.00301C6.14993 6.99845 6.0839 7.00003 6.02018 7.00155H6.02017C5.98915 7.00229 5.95868 7.00301 5.93186 7.00301C5.82947 7.00414 5.72708 7.00546 5.6247 7.00678C5.11275 7.01337 4.6008 7.01996 4.08886 7.00301H3.80217C3.79711 7.01557 3.78455 7.04117 3.76796 7.07497L3.76796 7.07498L3.76795 7.075C3.73978 7.1324 3.70001 7.21345 3.66565 7.2945C2.9724 8.93403 2.2768 10.5712 1.58162 12.2075L1.58157 12.2076L1.58145 12.2079L1.58142 12.2079C1.09248 13.3587 0.603738 14.5091 0.116163 15.6594C0.0904564 15.7189 0.0701284 15.7812 0.0467393 15.8528L0.0467331 15.8528L0.0467304 15.8528L0.0467212 15.8528C0.0328516 15.8953 0.0179051 15.9411 0.00012207 15.9915C0.212644 15.9915 0.421667 15.992 0.628076 15.9924H0.628164C1.23717 15.9937 1.82342 15.9949 2.40968 15.9847H2.5735C2.61446 15.9102 2.64859 15.8424 2.66906 15.7949C2.74761 15.6202 2.81893 15.4426 2.89034 15.2648L2.89034 15.2648L2.89035 15.2648L2.89035 15.2647C2.97408 15.0562 3.05793 14.8474 3.15371 14.6426L3.1641 14.6182C3.18633 14.5657 3.22121 14.4834 3.25609 14.4257H3.46087C4.06292 14.4175 4.66252 14.4167 5.2626 14.4159H5.26267H5.26274C5.66274 14.4154 6.06297 14.4148 6.46429 14.4121H6.71685C6.72983 14.4293 6.74831 14.4874 6.7688 14.5518L6.76881 14.5518L6.76882 14.5519C6.78063 14.589 6.79311 14.6282 6.80558 14.6629C6.9421 15.0493 7.09227 15.4221 7.26292 15.7949C7.2834 15.8424 7.33801 15.9576 7.35848 15.9915H7.51548C8.12856 16.0017 8.74164 16.0004 9.36617 15.9992ZM4.60229 10.9232L4.60255 10.9226L4.60281 10.9219C4.72668 10.6142 4.85247 10.3018 4.98306 9.97885C5.3107 10.8058 5.60422 11.5515 5.89091 12.2904C5.91138 12.331 5.93186 12.3785 5.95234 12.4463H3.98647C4.1953 11.9342 4.39614 11.4353 4.60229 10.9232L4.60229 10.9232L4.60229 10.9232ZM84.343 16H81.6572C81.6572 15.8179 81.6524 15.6371 81.6476 15.4574V15.4572C81.6367 15.0499 81.626 14.6481 81.6719 14.2496C81.797 13.1419 81.4585 12.2051 80.7889 11.2889C80.1394 10.3979 79.5476 9.47329 78.9555 8.54809C78.7024 8.15267 78.4492 7.75713 78.1914 7.36404C78.1483 7.29392 78.1091 7.2238 78.0595 7.13487C78.0413 7.10239 78.0218 7.06741 78.0001 7.02899C78.2022 7.02899 78.4019 7.02871 78.5996 7.02844C79.3812 7.02735 80.1329 7.0263 80.8846 7.04267C80.9876 7.04267 81.1201 7.17942 81.1863 7.28199C81.6393 8.01171 82.0825 8.74144 82.5279 9.47495L82.8198 9.95551C82.8548 10.0123 82.8923 10.0692 82.9356 10.1346L82.9363 10.1357C82.9656 10.1802 82.9977 10.2286 83.0332 10.2837C83.1892 10.0307 83.3477 9.78188 83.5052 9.53482C83.8753 8.95406 84.2393 8.38279 84.5491 7.78797C84.8655 7.17942 85.2628 6.93327 85.9839 7.01532C86.396 7.0609 86.8146 7.05179 87.2332 7.04267C87.4425 7.03811 87.6518 7.03355 87.8603 7.03583C87.8819 7.03583 87.901 7.04289 87.9279 7.05288C87.9469 7.0599 87.9697 7.06838 88.0001 7.07686C87.927 7.19111 87.8569 7.30258 87.7878 7.41252L87.7868 7.41411C87.7032 7.54706 87.621 7.67777 87.5366 7.80849C87.178 8.35633 86.8176 8.90328 86.4573 9.44999L86.4553 9.45309C85.818 10.4202 85.1812 11.3864 84.5564 12.3555C84.446 12.5265 84.3725 12.7521 84.3725 12.9572C84.3567 13.5922 84.3597 14.2272 84.3627 14.8621C84.3639 15.1161 84.3651 15.37 84.3651 15.6239C84.343 15.747 84.343 15.8632 84.343 15.9999V16ZM55.0001 16V13.8188H50.5347V7H48.0001V16H55.0001Z" fill="#333333"/>
</svg>
