<svg width="200" height="24" viewBox="0 0 200 24" fill="none" xmlns="http://www.w3.org/2000/svg">
<path d="M6.59961 17.7123C4.86449 17.7143 3.19854 17.0321 1.96311 15.8138C0.727677 14.5955 0.0223917 12.9392 0.000228882 11.2042C0.0223917 9.46921 0.727677 7.81292 1.96311 6.59458C3.19854 5.37624 4.86449 4.69409 6.59961 4.6961C7.42543 4.68297 8.24556 4.83495 9.01185 5.14312C9.77813 5.45128 10.4751 5.90943 11.0619 6.49065L9.83986 7.74033C8.979 6.91406 7.8274 6.46003 6.63428 6.4765C6.01637 6.47644 5.4046 6.59915 4.83451 6.8375C4.26441 7.07586 3.74736 7.4251 3.31336 7.86495C2.87937 8.3048 2.5371 8.8265 2.30641 9.39973C2.07572 9.97297 1.96123 10.5863 1.96957 11.2042C1.96132 11.822 2.07589 12.4353 2.30662 13.0084C2.53735 13.5816 2.87964 14.1032 3.31362 14.543C3.7476 14.9827 4.26463 15.3319 4.83467 15.5702C5.40472 15.8085 6.01643 15.9312 6.63428 15.9312C7.24262 15.9549 7.84924 15.8517 8.41551 15.6281C8.98178 15.4046 9.49529 15.0656 9.92335 14.6327C10.4868 14.0148 10.8262 13.2255 10.8871 12.3916H6.5989V10.6176H12.5841C12.6522 10.9839 12.6849 11.3559 12.6817 11.7285C12.7295 13.2614 12.1759 14.7523 11.1391 15.8823C10.5557 16.4922 9.8492 16.9708 9.06648 17.2863C8.28376 17.6019 7.44281 17.7471 6.59961 17.7123ZM21.9347 13.5224C21.9565 14.0785 21.8659 14.6333 21.6681 15.1535C21.4704 15.6737 21.1696 16.1487 20.7839 16.5499C20.3981 16.951 19.9354 17.2702 19.4233 17.4882C18.9113 17.7062 18.3604 17.8186 17.8039 17.8186C17.2474 17.8186 16.6966 17.7062 16.1845 17.4882C15.6724 17.2702 15.2097 16.951 14.8239 16.5499C14.4382 16.1487 14.1374 15.6737 13.9397 15.1535C13.7419 14.6333 13.6513 14.0785 13.6731 13.5224C13.6513 12.9663 13.7419 12.4115 13.9397 11.8913C14.1374 11.371 14.4382 10.8961 14.8239 10.4949C15.2097 10.0937 15.6724 9.77458 16.1845 9.55657C16.6966 9.33855 17.2474 9.22618 17.8039 9.22618C18.3604 9.22618 18.9113 9.33855 19.4233 9.55657C19.9354 9.77458 20.3981 10.0937 20.7839 10.4949C21.1696 10.8961 21.4704 11.371 21.6681 11.8913C21.8659 12.4115 21.9565 12.9663 21.9347 13.5224ZM20.126 13.5224C20.1564 13.1991 20.119 12.873 20.0161 12.565C19.9133 12.257 19.7472 11.9739 19.5287 11.7338C19.3101 11.4937 19.0438 11.3018 18.7468 11.1706C18.4498 11.0393 18.1286 10.9715 17.8039 10.9715C17.4792 10.9715 17.1581 11.0393 16.8611 11.1706C16.5641 11.3018 16.2977 11.4937 16.0791 11.7338C15.8606 11.9739 15.6945 12.257 15.5917 12.565C15.4888 12.873 15.4514 13.1991 15.4818 13.5224C15.4514 13.8457 15.4888 14.1718 15.5917 14.4797C15.6945 14.7877 15.8606 15.0709 16.0791 15.311C16.2977 15.5511 16.5641 15.7429 16.8611 15.8742C17.1581 16.0055 17.4792 16.0733 17.8039 16.0733C18.1286 16.0733 18.4498 16.0055 18.7468 15.8742C19.0438 15.7429 19.3101 15.5511 19.5287 15.311C19.7472 15.0709 19.9133 14.7877 20.0161 14.4797C20.119 14.1718 20.1564 13.8457 20.126 13.5224ZM31.1941 13.5224C31.2171 14.0792 31.1274 14.6349 30.9302 15.1561C30.733 15.6774 30.4325 16.1533 30.0466 16.5555C29.6608 16.9576 29.1977 17.2776 28.6851 17.4961C28.1724 17.7147 27.6209 17.8274 27.0636 17.8274C26.5063 17.8274 25.9548 17.7147 25.4422 17.4961C24.9296 17.2776 24.4664 16.9576 24.0806 16.5555C23.6948 16.1533 23.3943 15.6774 23.1971 15.1561C22.9999 14.6349 22.9101 14.0792 22.9332 13.5224C22.9101 12.9656 22.9999 12.4099 23.1971 11.8886C23.3943 11.3674 23.6948 10.8914 24.0806 10.4893C24.4664 10.0872 24.9296 9.76723 25.4422 9.54865C25.9548 9.33008 26.5063 9.2174 27.0636 9.2174C27.6209 9.2174 28.1724 9.33008 28.6851 9.54865C29.1977 9.76723 29.6608 10.0872 30.0466 10.4893C30.4325 10.8914 30.733 11.3674 30.9302 11.8886C31.1274 12.4099 31.2171 12.9656 31.1941 13.5224ZM29.3854 13.5224C29.4163 13.1988 29.3793 12.8724 29.2768 12.564C29.1742 12.2556 29.0082 11.972 28.7896 11.7315C28.571 11.4909 28.3046 11.2987 28.0073 11.1672C27.7101 11.0357 27.3887 10.9678 27.0636 10.9678C26.7386 10.9678 26.4172 11.0357 26.1199 11.1672C25.8227 11.2987 25.5562 11.4909 25.3376 11.7315C25.119 11.972 24.9531 12.2556 24.8505 12.564C24.7479 12.8724 24.7109 13.1988 24.7419 13.5224C24.7109 13.8459 24.7479 14.1724 24.8505 14.4808C24.9531 14.7892 25.119 15.0728 25.3376 15.3133C25.5562 15.5539 25.8227 15.7461 26.1199 15.8776C26.4172 16.0091 26.7386 16.077 27.0636 16.077C27.3887 16.077 27.7101 16.0091 28.0073 15.8776C28.3046 15.7461 28.571 15.5539 28.7896 15.3133C29.0082 15.0728 29.1742 14.7892 29.2768 14.4808C29.3793 14.1724 29.4163 13.8459 29.3854 13.5224ZM40.2164 9.58442V17.1327C40.2164 20.2336 38.3942 21.4974 36.236 21.4974C35.4411 21.5018 34.6629 21.2689 34.0011 20.8286C33.3393 20.3883 32.8239 19.7605 32.5209 19.0256L34.1201 18.3272C34.2826 18.7554 34.5683 19.1258 34.941 19.3918C35.3138 19.6577 35.757 19.8074 36.2147 19.8217C37.6116 19.8217 38.4501 18.9627 38.4501 17.3634V16.7556H38.3864C38.1104 17.0659 37.7699 17.3122 37.3889 17.4775C37.0078 17.6427 36.5953 17.7228 36.18 17.7123C35.0688 17.7123 34.0031 17.2708 33.2173 16.4851C32.4316 15.6993 31.9902 14.6336 31.9902 13.5224C31.9902 12.4112 32.4316 11.3454 33.2173 10.5597C34.0031 9.77393 35.0688 9.3325 36.18 9.3325C36.5935 9.32162 37.0045 9.39956 37.3852 9.56106C37.766 9.72257 38.1076 9.96388 38.3871 10.2687H38.4707V9.57027L40.2164 9.58442ZM38.5959 13.5365C38.6225 13.222 38.5858 12.9054 38.4879 12.6053C38.39 12.3053 38.2329 12.0279 38.026 11.7896C37.819 11.5513 37.5663 11.3569 37.283 11.218C36.9996 11.079 36.6912 10.9983 36.3761 10.9806C36.0541 10.9921 35.7376 11.0678 35.4452 11.2031C35.1528 11.3385 34.8903 11.5308 34.6731 11.7688C34.4559 12.0068 34.2884 12.2857 34.1803 12.5892C34.0723 12.8928 34.0258 13.2148 34.0437 13.5365C34.0278 13.8561 34.0758 14.1756 34.185 14.4763C34.2942 14.777 34.4623 15.0529 34.6796 15.2878C34.8968 15.5226 35.1588 15.7117 35.4501 15.8439C35.7415 15.9762 36.0563 16.0489 36.3761 16.0578C36.6891 16.0429 36.9959 15.9652 37.2783 15.8294C37.5607 15.6936 37.813 15.5024 38.0201 15.2673C38.2272 15.0321 38.385 14.7577 38.484 14.4604C38.583 14.1631 38.6213 13.8489 38.5966 13.5365H38.5959ZM43.4432 5.14332V17.454H41.5991V5.14332H43.4432ZM50.6844 14.9051L52.0812 15.8547C51.6971 16.428 51.1774 16.8975 50.5682 17.2215C49.959 17.5456 49.2791 17.7142 48.5891 17.7123C48.0413 17.7191 47.4977 17.6147 46.9914 17.4055C46.4851 17.1962 46.0265 16.8864 45.6433 16.4948C45.2602 16.1032 44.9605 15.6379 44.7623 15.1271C44.5642 14.6163 44.4717 14.0706 44.4905 13.5231C44.4905 11.0294 46.2221 9.3325 48.3867 9.3325C49.1859 9.35423 49.9589 9.62212 50.6001 10.0996C51.2414 10.5771 51.7196 11.2408 51.9695 12.0003L52.1577 12.4751L46.5716 14.7933C46.7454 15.1827 47.0318 15.5112 47.3938 15.7366C47.7559 15.9619 48.1771 16.0738 48.6032 16.0578C49.0204 16.0629 49.4316 15.9593 49.7965 15.7572C50.1614 15.555 50.4674 15.2614 50.6844 14.9051ZM46.285 13.3971L50.0284 11.8396C49.886 11.5556 49.6629 11.3199 49.3871 11.1622C49.1113 11.0045 48.795 10.9317 48.478 10.953C48.1724 10.9662 47.8725 11.0403 47.5959 11.1709C47.3193 11.3016 47.0716 11.4861 46.8672 11.7138C46.6629 11.9415 46.5061 12.2076 46.406 12.4967C46.3059 12.7857 46.2645 13.0919 46.2843 13.3971H46.285Z" fill="#333333"/>
<path fill-rule="evenodd" clip-rule="evenodd" d="M54.9175 17.1466L59.1208 6H60.7399L64.9432 17.1466H63.3553L62.2811 14.1264H57.5952L56.5054 17.1466H54.9175ZM58.0778 12.7876H61.7829L59.9615 7.75917H59.8992L58.0778 12.7876ZM68.889 17.3957C67.9032 17.3957 67.0519 17.0065 66.3358 16.2281C65.6197 15.4497 65.2616 14.4845 65.2616 13.3325C65.2616 12.1805 65.6197 11.2152 66.3358 10.4369C67.0519 9.65846 67.9032 9.26926 68.889 9.26926C69.4699 9.26926 69.9915 9.3938 70.4535 9.64289C70.9156 9.89198 71.2602 10.2033 71.4888 10.577H71.5511L71.4888 9.51835V6H72.921V17.1466H71.5511V16.088H71.4888C71.2602 16.4616 70.9156 16.773 70.4535 17.0221C69.9915 17.2712 69.4699 17.3957 68.889 17.3957ZM69.1225 16.088C69.7969 16.088 70.3707 15.8389 70.8427 15.3407C71.3147 14.8426 71.5511 14.1732 71.5511 13.3325C71.5511 12.4918 71.3147 11.8224 70.8427 11.3242C70.3707 10.8261 69.7969 10.577 69.1225 10.577C68.458 10.577 67.8877 10.8289 67.41 11.332C66.9324 11.8351 66.6939 12.5024 66.6939 13.3325C66.6939 14.1625 66.9324 14.8298 67.41 15.333C67.8877 15.8361 68.458 16.088 69.1225 16.088ZM74.843 17.1466V6H76.2752L80.1516 12.7876H80.2139L84.0903 6H85.5226V17.1466H84.0903V10.5303L84.1526 8.66211H84.0903L80.6031 14.7803H79.7624L76.2752 8.66211H76.213L76.2752 10.5303V17.1466H74.843ZM88.1139 10.4369C88.8506 9.65846 89.7903 9.26926 90.9317 9.26926C92.0731 9.26926 93.0121 9.65563 93.7495 10.4291C94.4861 11.2025 94.8548 12.1698 94.8548 13.3325C94.8548 14.4951 94.4868 15.4625 93.7495 16.2359C93.0129 17.0093 92.0731 17.3957 90.9317 17.3957C89.7903 17.3957 88.8513 17.0093 88.1139 16.2359C87.3773 15.4625 87.0086 14.4951 87.0086 13.3325C87.0086 12.1698 87.3766 11.2046 88.1139 10.4369ZM89.1725 15.3407C89.6707 15.8389 90.2573 16.088 90.9317 16.088C91.6061 16.088 92.1899 15.8361 92.6831 15.333C93.1763 14.8298 93.4226 14.1625 93.4226 13.3325C93.4226 12.5024 93.1763 11.8351 92.6831 11.332C92.1899 10.8289 91.6061 10.577 90.9317 10.577C90.2573 10.577 89.6735 10.8289 89.1803 11.332C88.6871 11.8351 88.4408 12.5024 88.4408 13.3325C88.4408 14.1625 88.685 14.8327 89.1725 15.3407ZM100.124 17.3957C99.5429 17.3957 99.0214 17.2712 98.5593 17.0221C98.0972 16.773 97.7526 16.4616 97.524 16.088H97.4617V17.1466H96.0918V6H97.524V9.51835L97.4617 10.577H97.524C97.7526 10.2033 98.0972 9.89198 98.5593 9.64289C99.0214 9.3938 99.5429 9.26926 100.124 9.26926C101.11 9.26926 101.961 9.65846 102.677 10.4369C103.393 11.2152 103.751 12.1805 103.751 13.3325C103.751 14.4845 103.393 15.4497 102.677 16.2281C101.961 17.0065 101.11 17.3957 100.124 17.3957ZM99.8903 16.088C100.555 16.088 101.125 15.8361 101.603 15.333C102.08 14.8298 102.319 14.1625 102.319 13.3325C102.319 12.5024 102.08 11.8351 101.603 11.332C101.125 10.8289 100.555 10.577 99.8903 10.577C99.216 10.577 98.6421 10.8261 98.1701 11.3242C97.6981 11.8224 97.4617 12.4918 97.4617 13.3325C97.4617 14.1732 97.6981 14.8426 98.1701 15.3407C98.6421 15.8389 99.216 16.088 99.8903 16.088Z" fill="#333333"/>
</svg>
