<svg width="120" height="24" viewBox="0 0 120 24" fill="none" xmlns="http://www.w3.org/2000/svg">
<path d="M31.6423 13.547V21.2359H33.8109V12.6598H37.8525V10.8854H27.6992V12.5612H30.7551C30.6565 12.5612 31.6423 12.5612 31.6423 13.547Z" fill="#333333"/>
<path d="M15.377 12.3639V21.0386H22.1787C24.7417 21.0386 26.9103 18.7713 26.9103 15.9126C26.9103 13.1525 24.8402 10.7867 22.1787 10.7867H17.2499C15.377 10.8853 15.377 12.3639 15.377 12.3639ZM21.9815 19.3628H17.447V12.561H21.9815C23.6573 12.561 25.0374 14.1383 25.0374 16.0112C25.0374 17.8841 23.6573 19.3628 21.9815 19.3628Z" fill="#333333"/>
<path d="M44.1621 21.1369H46.0351V15.2223L44.1621 13.3494V21.1369Z" fill="#333333"/>
<path d="M55.0059 21.1377H56.9774V13.2516L55.0059 14.8288V21.1377Z" fill="#333333"/>
<path d="M73.3413 18.0817L65.5538 10.9842H63.9766V12.1671V21.2361H66.1452V14.9272C66.1452 14.9272 66.1452 14.6315 66.2438 14.6315C66.441 14.5329 66.6381 14.6315 66.6381 14.6315L70.9755 18.5745L73.7356 21.1375H76.1014V10.9842H73.9327V17.8845C73.9327 17.8845 73.9327 18.0817 73.8342 18.1802C73.637 18.3774 73.3413 18.0817 73.3413 18.0817Z" fill="#333333"/>
<path d="M88.0282 13.2523V13.7451H89.9997V12.8579C89.9997 10.8864 88.0282 10.985 88.0282 10.985H79.9449C77.8748 10.985 77.9734 12.7594 77.9734 12.7594V19.4625C77.9734 19.4625 77.8748 21.0397 79.9449 21.0397H89.9997V16.801C89.9997 14.928 87.9296 15.1252 87.9296 15.1252H81.9164L82.705 16.9981H87.9296V18.6739C87.9296 18.6739 87.9296 19.364 87.141 19.364H79.7478V12.7594H87.3381C87.5353 12.7594 88.0282 12.7594 88.0282 13.2523Z" fill="#333333"/>
<path d="M61.8075 10.9842H59.8359V21.1375H61.8075V10.9842Z" fill="#333333"/>
<path d="M41.5008 10.9842H39.5293V21.1375H41.5008V10.9842Z" fill="#333333"/>
<path d="M11.7305 10.8855H5.22452C3.05585 10.8855 2.66155 12.4627 2.66155 12.4627L0 21.0388H2.07009L4.73164 12.5613H11.3362V15.3214H5.42167L6.11171 17.1943H10.0547C10.0547 17.1943 11.3362 17.0958 11.3362 18.2787V20.9402H13.5049V12.5613C13.5049 10.6883 11.7305 10.8855 11.7305 10.8855Z" fill="#333333"/>
<path d="M44.9503 9.89941L43.4716 11.3781L43.373 12.561L44.1617 12.0681L46.626 14.5325L44.9503 9.89941Z" fill="url(#paint0_linear)"/>
<path d="M50.2743 13.3496L44.9512 9.89941L46.627 14.5325L50.2743 13.3496Z" fill="url(#paint1_linear)"/>
<path d="M50.1758 13.3506L53.3302 15.3221L58.6533 8.32324L50.1758 13.3506Z" fill="url(#paint2_linear)"/>
<path d="M53.3301 15.3227V15.4213L62.3991 7.63379L58.6532 8.32382L53.3301 15.3227Z" fill="url(#paint3_linear)"/>
<path d="M67.7213 3L58.6523 8.3231L62.3982 7.63307L67.7213 3.09858V3Z" fill="url(#paint4_linear)"/>
<path d="M53.2296 15.4197L53.3282 15.3211L50.1737 13.3496L46.625 14.5325L50.1737 18.0813L53.3282 15.4197V15.3211L53.2296 15.4197Z" fill="url(#paint5_linear)"/>
<path d="M50.1758 13.3505V12.2661L67.7223 3L50.1758 13.3505Z" fill="url(#paint6_linear)"/>
<path d="M50.1757 12.2662L45.5426 9.80176L44.9512 9.90033L50.1757 13.3505V12.2662Z" fill="url(#paint7_linear)"/>
<g clip-path="url(#clip0)">
<path d="M106.251 16.4557C106.501 16.4557 106.704 16.2529 106.704 16.0027C106.704 15.7525 106.501 15.5497 106.251 15.5497H100.479C100.229 15.5497 100.026 15.7525 100.026 16.0027C100.026 16.2529 100.229 16.4557 100.479 16.4557H106.251ZM99.1971 11.7457L100.721 13.2697L100.641 13.5828C100.586 13.7939 100.648 14.018 100.803 14.1715C101.043 14.4094 101.43 14.4085 101.669 14.1696L105.118 10.721C105.357 10.4817 105.357 10.0937 105.118 9.85441C104.966 9.70254 104.746 9.64127 104.537 9.69291L104.219 9.7717L100.487 6.0397L100.573 5.78696C100.645 5.57404 100.592 5.33849 100.434 5.17808C100.202 4.9421 99.8224 4.94043 99.5885 5.17437L96.1037 8.65909C95.8791 8.88372 95.8758 9.24689 96.0964 9.47554C96.2531 9.638 96.4896 9.69532 96.7033 9.62266L96.9531 9.5377L98.5191 11.1037L95.6162 14.0282C95.4391 14.2067 95.4376 14.4941 95.613 14.6744C95.7923 14.8588 96.0879 14.8607 96.2696 14.6786L99.1971 11.7457Z" fill="#B28BD9"/>
</g>
<defs>
<linearGradient id="paint0_linear" x1="46.239" y1="11.7536" x2="41.9415" y2="15.8124" gradientUnits="userSpaceOnUse">
<stop offset="0.0119579" stop-color="#460000"/>
<stop offset="0.2571" stop-color="#860000"/>
<stop offset="0.8423" stop-color="#E50034"/>
</linearGradient>
<linearGradient id="paint1_linear" x1="44.0465" y1="9.70552" x2="49.4711" y2="14.9656" gradientUnits="userSpaceOnUse">
<stop offset="0.0119579" stop-color="#460000"/>
<stop offset="0.2571" stop-color="#860000"/>
<stop offset="0.8423" stop-color="#E50034"/>
</linearGradient>
<linearGradient id="paint2_linear" x1="48.1386" y1="16.2111" x2="59.5181" y2="9.88912" gradientUnits="userSpaceOnUse">
<stop offset="0.0119579" stop-color="#460000"/>
<stop offset="0.2571" stop-color="#860000"/>
<stop offset="0.8423" stop-color="#E50034"/>
</linearGradient>
<linearGradient id="paint3_linear" x1="49.1065" y1="15.6912" x2="62.6692" y2="8.15633" gradientUnits="userSpaceOnUse">
<stop offset="0.0119579" stop-color="#460000"/>
<stop offset="0.2571" stop-color="#860000"/>
<stop offset="0.8423" stop-color="#E50034"/>
</linearGradient>
<linearGradient id="paint4_linear" x1="55.9132" y1="10.4052" x2="68.0713" y2="3.6507" gradientUnits="userSpaceOnUse">
<stop offset="0.0119579" stop-color="#460000"/>
<stop offset="0.2571" stop-color="#860000"/>
<stop offset="0.8423" stop-color="#E50034"/>
</linearGradient>
<linearGradient id="paint5_linear" x1="48.0961" y1="16.4687" x2="52.2286" y2="14.1728" gradientUnits="userSpaceOnUse">
<stop offset="0.0119579" stop-color="#460000"/>
<stop offset="0.2571" stop-color="#860000"/>
<stop offset="0.8423" stop-color="#E50034"/>
</linearGradient>
<linearGradient id="paint6_linear" x1="50.175" y1="8.16843" x2="67.741" y2="8.16843" gradientUnits="userSpaceOnUse">
<stop offset="0.0119579" stop-color="#460000"/>
<stop offset="0.2571" stop-color="#860000"/>
<stop offset="0.8423" stop-color="#E50034"/>
</linearGradient>
<linearGradient id="paint7_linear" x1="51.6516" y1="14.4537" x2="44.5346" y2="8.54363" gradientUnits="userSpaceOnUse">
<stop offset="0.0119579" stop-color="#460000"/>
<stop offset="0.2571" stop-color="#860000"/>
<stop offset="0.8423" stop-color="#E50034"/>
</linearGradient>
<clipPath id="clip0">
<rect width="12" height="12" fill="white" transform="translate(95 5)"/>
</clipPath>
</defs>
</svg>
