<svg width="200" height="24" viewBox="0 0 200 24" fill="none" xmlns="http://www.w3.org/2000/svg">
<g clip-path="url(#clip0)">
<path fill-rule="evenodd" clip-rule="evenodd" d="M56.098 14.9873C56.098 17.0314 54.8002 18.7185 51.6205 18.7185C48.4409 18.7185 47.1431 17.0314 47.1431 14.9873V9.7312C47.1431 7.68715 48.4409 6 51.6205 6C54.8326 6 56.098 7.68715 56.098 9.7312V14.9873ZM48.2787 14.9873C48.2787 16.7718 49.3494 17.7452 51.653 17.7452C53.9566 17.7452 55.0273 16.7394 55.0273 14.9873V9.7312C55.0273 7.94672 53.9566 6.97336 51.653 6.97336C49.3494 6.97336 48.2787 7.97916 48.2787 9.7312V14.9873ZM8.27354 15.8953L9.18201 18.5558L11.4207 18.5883L7.07307 6.16172H4.47745L0 18.5883H2.43339L2.82274 17.258C2.95577 16.9254 3.0585 16.5928 3.15163 16.2913L3.15164 16.2913L3.15165 16.2913L3.15165 16.2913C3.1948 16.1516 3.23589 16.0186 3.27697 15.8953H8.27354ZM5.37753 9.8685C5.5003 9.53446 5.62423 9.19724 5.74281 8.85467L7.5273 13.8512H3.95832C4.0744 13.5262 4.19048 13.2137 4.30358 12.9091C4.50662 12.3624 4.70009 11.8415 4.86679 11.3205C5.02094 10.8388 5.19799 10.357 5.37753 9.86851L5.37753 9.8685ZM14.1788 6.19361H18.7211C21.2194 6.22605 22.4199 7.2643 22.4523 9.40569V11.1577C22.4523 13.3316 21.2519 14.3698 18.7536 14.3698H16.2877V18.5877H14.1788V6.19361ZM18.6562 8.17277H16.2553V12.488H18.6562C20.0838 12.488 20.311 12.0662 20.311 11.1902V9.47058C20.311 8.52966 20.0838 8.17277 18.6562 8.17277ZM29.46 6.19361H24.9177V18.5877H27.0266V14.3698H29.4925C31.9907 14.3698 33.1912 13.3316 33.1912 11.1577V9.40569C33.1588 7.2643 31.9583 6.22605 29.46 6.19361ZM26.9942 8.17277H29.3951C30.8227 8.17277 31.0498 8.52966 31.0498 9.47058V11.1902C31.0498 12.0662 30.8227 12.488 29.3951 12.488H26.9942V8.17277ZM45.0991 17.3542H39.4211V6.22549H38.1558V18.5871H45.0991V17.3542ZM59.2128 6.22549H58.0124L62.4249 18.5871H64.0472L68.5246 6.22549H67.2593L63.2361 17.3542L59.2128 6.22549ZM72.3854 6.22549H71.1201V18.6196H72.3854V6.22549ZM78.3554 18.5871V7.68553L84.0982 18.5871H85.5907V6.22549H84.4226V16.8026L79.0043 6.22549H77.1874V18.5871H78.3554Z" fill="#333333"/>
</g>
<defs>
<clipPath id="clip0">
<path d="M0 0H200V24H0V0Z" fill="white"/>
</clipPath>
</defs>
</svg>
