<svg width="120" height="24" viewBox="0 0 120 24" fill="none" xmlns="http://www.w3.org/2000/svg">
<path d="M10.3699 18.4555H7.74459V13.3954H2.62529V18.4555H0V6.64872H2.62529V11.433H7.74459V6.64872H10.3699V18.4555Z" fill="#333333"/>
<path d="M16.8631 18.6176C15.4746 18.6176 14.3428 18.223 13.4677 17.4337C12.5985 16.6445 12.1638 15.593 12.1638 14.2793V14.0523C12.1638 13.1711 12.3476 12.3845 12.7151 11.6925C13.0827 10.9952 13.6019 10.46 14.2728 10.0869C14.9495 9.70853 15.7196 9.51932 16.5831 9.51932C17.8782 9.51932 18.8962 9.89774 19.6371 10.6546C20.3839 11.4114 20.7573 12.4845 20.7573 13.8739V14.8307H14.7279C14.8095 15.4038 15.0546 15.8633 15.4629 16.2093C15.8771 16.5553 16.3993 16.7282 17.0294 16.7282C18.0036 16.7282 18.765 16.4012 19.3134 15.7471L20.556 17.0364C20.1768 17.5337 19.6634 17.923 19.0158 18.2041C18.3683 18.4798 17.6507 18.6176 16.8631 18.6176ZM16.5743 11.4168C16.0726 11.4168 15.6642 11.5736 15.3492 11.8872C15.04 12.2007 14.8416 12.6494 14.7541 13.2333H18.272V13.0467C18.2603 12.5278 18.1086 12.1277 17.8169 11.8466C17.5252 11.5601 17.111 11.4168 16.5743 11.4168Z" fill="#333333"/>
<path d="M24.8702 18.4555H22.3324V6H24.8702V18.4555Z" fill="#333333"/>
<path d="M29.6307 18.4555H27.093V9.6815H29.6307V18.4555ZM26.9442 7.41097C26.9442 7.05958 27.0696 6.77036 27.3205 6.5433C27.5772 6.31625 27.9243 6.20273 28.3618 6.20273C28.7936 6.20273 29.1378 6.31625 29.3945 6.5433C29.6511 6.77036 29.7795 7.05958 29.7795 7.41097C29.7795 7.76777 29.6482 8.05969 29.3857 8.28675C29.129 8.5138 28.7877 8.62733 28.3618 8.62733C27.936 8.62733 27.5918 8.5138 27.3292 8.28675C27.0725 8.05969 26.9442 7.76777 26.9442 7.41097Z" fill="#333333"/>
<path d="M37.3928 17.5635C36.7686 18.2663 35.9052 18.6176 34.8025 18.6176C33.7874 18.6176 33.0115 18.3473 32.4748 17.8067C31.9439 17.2661 31.6726 16.4742 31.6609 15.4308V9.6815H34.19V15.3497C34.19 16.2633 34.6392 16.7201 35.5376 16.7201C36.3952 16.7201 36.9844 16.4444 37.3053 15.893V9.6815H39.8431V18.4555H37.4628L37.3928 17.5635Z" fill="#333333"/>
<path d="M44.1223 9.6815L44.2011 10.6627C44.872 9.90044 45.7792 9.51932 46.9226 9.51932C48.1419 9.51932 48.9791 9.96531 49.4341 10.8573C50.0992 9.96531 51.0472 9.51932 52.2782 9.51932C53.305 9.51932 54.0692 9.79773 54.5709 10.3545C55.0727 10.906 55.3235 11.7385 55.3235 12.8521V18.4555H52.7858V12.8602C52.7858 12.3629 52.6807 12.0007 52.4707 11.7736C52.2607 11.5412 51.8902 11.4249 51.3593 11.4249C50.6009 11.4249 50.0759 11.7601 49.7842 12.4305L49.7929 18.4555H47.2639V12.8683C47.2639 12.3602 47.156 11.9926 46.9401 11.7655C46.7243 11.5385 46.3567 11.4249 45.8375 11.4249C45.1199 11.4249 44.6007 11.7006 44.2798 12.2521V18.4555H41.7508V9.6815H44.1223Z" fill="#333333"/>
<path fill-rule="evenodd" clip-rule="evenodd" d="M57.2656 14.7354H65.4456C65.4456 14.7354 68.0085 6.22979 62.1225 11.7394C60.0954 13.6379 57.2656 14.7354 57.2656 14.7354Z" fill="#333333"/>
<path fill-rule="evenodd" clip-rule="evenodd" d="M57.2656 13.7647C57.2656 13.7647 59.468 12.7873 61.5269 11.2038C63.3342 9.81405 65.0303 7.79291 65.0303 7.79291L64.4716 6L62.6878 7.05438C62.6878 7.05438 61.9108 8.80712 60.6192 10.4054C59.2051 12.1552 57.2656 13.7647 57.2656 13.7647Z" fill="#333333"/>
<g clip-path="url(#clip0)">
<path d="M82.2507 16.4557C82.5009 16.4557 82.7037 16.2529 82.7037 16.0027C82.7037 15.7525 82.5009 15.5497 82.2507 15.5497H76.4787C76.2285 15.5497 76.0257 15.7525 76.0257 16.0027C76.0257 16.2529 76.2285 16.4557 76.4787 16.4557H82.2507ZM75.1971 11.7457L76.7211 13.2697L76.6407 13.5828C76.5865 13.7939 76.6483 14.018 76.8031 14.1715C77.0431 14.4094 77.4303 14.4085 77.6693 14.1696L81.1178 10.721C81.3571 10.4817 81.3571 10.0937 81.1178 9.85441C80.966 9.70254 80.7457 9.64127 80.5372 9.69291L80.2191 9.7717L76.4871 6.0397L76.5731 5.78696C76.6455 5.57404 76.5917 5.33849 76.4341 5.17808C76.2022 4.9421 75.8224 4.94043 75.5885 5.17437L72.1037 8.65909C71.8791 8.88372 71.8758 9.24689 72.0964 9.47554C72.2531 9.638 72.4896 9.69532 72.7033 9.62266L72.9531 9.5377L74.5191 11.1037L71.6162 14.0282C71.4391 14.2067 71.4376 14.4941 71.613 14.6744C71.7923 14.8588 72.0879 14.8607 72.2696 14.6786L75.1971 11.7457Z" fill="#B28BD9"/>
</g>
<defs>
<clipPath id="clip0">
<rect width="12" height="12" fill="white" transform="translate(71 5)"/>
</clipPath>
</defs>
</svg>
