<svg width="200" height="24" viewBox="0 0 200 24" fill="none" xmlns="http://www.w3.org/2000/svg">
<path d="M10.2197 14.5124C10.9597 14.8724 11.6697 15.2124 12.3897 15.5624C11.3797 17.6924 9.04966 18.9624 6.12965 18.4924C3.24965 18.0324 1.10964 15.7624 0.909639 12.9324C0.679638 9.7724 2.33964 7.22239 5.19965 6.34239C8.21966 5.41239 10.9497 6.40239 12.4297 9.0024C11.7097 9.3624 10.9897 9.7224 10.2397 10.0924C10.1797 10.0224 10.1197 9.9524 10.0597 9.8724C8.62966 7.75239 6.09965 8.0624 4.76965 9.3524C3.27965 10.7924 3.14964 13.3924 4.47965 14.9524C6.10965 16.8624 8.68966 16.6824 10.2197 14.5124Z" fill="#333333"/>
<path d="M48.6298 6.21305C49.3898 6.21305 50.1198 6.21305 50.8998 6.21305C50.8998 7.64306 50.8998 9.08306 50.8998 10.5931C51.1998 10.3231 51.4098 10.0931 51.6498 9.91306C52.9498 8.97306 55.0398 9.22306 56.1698 10.4431C57.1098 11.4631 57.3798 12.7231 57.3698 14.0431C57.3598 15.2231 57.1098 16.3531 56.3498 17.3131C55.1298 18.8531 52.4298 19.0731 51.1098 17.4931C51.0798 17.4531 51.0298 17.4331 50.9398 17.3531C50.9398 17.7131 50.9398 18.0331 50.9398 18.3731C50.1398 18.3731 49.3998 18.3731 48.6298 18.3731C48.6298 14.3431 48.6298 10.3031 48.6298 6.21305ZM50.9198 13.9531C50.9198 14.4231 50.8998 14.8831 50.9298 15.3431C50.9398 15.5431 51.0198 15.7831 51.1598 15.9231C52.0698 16.8731 53.9298 16.6431 54.5898 15.5031C54.9498 14.8731 55.0098 14.1831 54.9298 13.4831C54.7198 11.5831 52.9898 10.8831 51.3398 11.8731C51.0398 12.0531 50.9098 12.3131 50.9198 12.6631C50.9298 13.0931 50.9198 13.5231 50.9198 13.9531Z" fill="#333333"/>
<path d="M16.1497 18.3928C15.3497 18.3928 14.6197 18.3928 13.8497 18.3928C13.8497 14.3528 13.8497 10.3128 13.8497 6.2428C14.5897 6.2428 15.3397 6.2428 16.1497 6.2428C16.1497 7.6628 16.1497 9.08281 16.1497 10.6028C16.3397 10.4628 16.4497 10.3728 16.5597 10.2828C17.5897 9.42281 18.7797 9.18281 20.0697 9.43281C21.1197 9.64281 21.7797 10.4028 21.9097 11.4628C21.9397 11.6928 21.9597 11.9228 21.9597 12.1628C21.9597 14.0628 21.9597 15.9628 21.9597 17.8628C21.9597 18.0228 21.9597 18.1928 21.9597 18.3828C21.1797 18.3828 20.4397 18.3828 19.6397 18.3828C19.6297 18.2528 19.6197 18.1128 19.6197 17.9628C19.6197 16.4328 19.6197 14.9028 19.6197 13.3628C19.6197 13.2428 19.6197 13.1328 19.6197 13.0128C19.5697 11.6128 18.4297 10.9628 17.1897 11.6428C16.8697 11.8128 16.5797 12.0528 16.3297 12.3128C16.2097 12.4328 16.1697 12.6728 16.1697 12.8528C16.1597 14.5828 16.1597 16.3128 16.1597 18.0528C16.1497 18.1528 16.1497 18.2528 16.1497 18.3928Z" fill="#333333"/>
<path d="M58.4798 13.9322C58.4798 11.2222 60.3998 9.34219 63.1298 9.35219C65.8398 9.36219 67.7998 11.3122 67.7798 13.9722C67.7598 16.6722 65.7998 18.6022 63.0698 18.5922C60.3698 18.5722 58.4798 16.6522 58.4798 13.9322ZM60.8398 13.9222C60.9298 14.3222 60.9698 14.7422 61.1198 15.1222C61.4598 15.9922 62.1198 16.4722 63.0698 16.4922C64.0098 16.5122 64.6998 16.0722 65.0798 15.2122C65.4698 14.3522 65.4598 13.4622 65.0398 12.6122C64.3598 11.2322 62.4798 10.9922 61.4898 12.1522C61.0698 12.6622 60.8898 13.2622 60.8398 13.9222Z" fill="#333333"/>
<path d="M78.1999 13.9932C78.1999 16.6632 76.2499 18.5832 73.5399 18.5832C70.8198 18.5832 68.8898 16.6332 68.8998 13.9232C68.9098 11.2432 70.8498 9.33319 73.5599 9.34319C76.3099 9.36319 78.1999 11.2532 78.1999 13.9932ZM75.8099 13.9632C75.7699 13.7032 75.7499 13.4332 75.6899 13.1732C75.4499 12.1732 74.6999 11.5032 73.7099 11.4232C72.7899 11.3432 71.9599 11.8532 71.5798 12.7532C71.1998 13.6232 71.2398 14.5032 71.6598 15.3532C72.1198 16.2732 73.1099 16.6932 74.0999 16.4332C75.1499 16.1532 75.7799 15.2232 75.8099 13.9632Z" fill="#333333"/>
<path d="M31.7797 18.3825C31.0197 18.3825 30.2797 18.3825 29.4897 18.3825C29.4897 18.1225 29.4897 17.8625 29.4897 17.5225C29.3597 17.6125 29.2997 17.6525 29.2397 17.7025C28.1697 18.6125 26.9497 18.8125 25.6497 18.3625C24.3297 17.9025 23.6097 16.5825 23.8497 15.1624C24.0897 13.7424 25.1097 12.8624 26.5797 12.8124C27.7297 12.7724 28.3197 12.9624 29.4797 13.7724C29.4797 13.4224 29.4997 13.0924 29.4797 12.7724C29.4097 11.6724 28.5497 11.2824 27.4697 11.3324C26.6097 11.3724 25.8797 11.7524 25.1897 12.3724C24.8797 11.8124 24.5897 11.2824 24.2897 10.7424C25.4997 9.64243 26.9297 9.26243 28.4997 9.37243C28.9097 9.40243 29.3297 9.48243 29.7197 9.59243C30.9597 9.95243 31.7097 10.8224 31.7597 12.0824C31.8397 14.1724 31.7797 16.2624 31.7797 18.3825ZM29.4797 15.7124C29.4797 14.9924 29.4497 14.8724 29.0797 14.6824C28.4197 14.3524 27.7197 14.2724 27.0097 14.5124C26.4697 14.6924 26.1397 15.1924 26.1597 15.7224C26.1797 16.2924 26.4997 16.7725 27.0797 16.8725C27.5597 16.9625 28.0697 16.9525 28.5497 16.8825C29.3297 16.7625 29.4797 16.5325 29.4797 15.7124Z" fill="#333333"/>
<path d="M79.1299 17.2131C79.4799 16.6231 79.7999 16.0831 80.0799 15.6231C80.7699 15.9431 81.4099 16.3131 82.0899 16.5431C82.5499 16.6931 83.0699 16.6931 83.5599 16.6931C83.8099 16.6931 84.0899 16.5831 84.2999 16.4431C84.7899 16.1231 84.7499 15.5331 84.2099 15.3031C83.7699 15.1131 83.2899 15.0331 82.8299 14.9031C82.2199 14.7331 81.5999 14.6131 81.0099 14.3931C80.1199 14.0531 79.5599 13.4231 79.4599 12.4331C79.3699 11.433 79.7199 10.643 80.5299 10.053C81.1499 9.59304 81.8699 9.41304 82.6299 9.36304C84.0799 9.27304 85.3999 9.62304 86.5899 10.553C86.2799 11.103 85.9699 11.653 85.6599 12.203C84.8399 11.493 83.9099 11.123 82.8499 11.213C82.5499 11.233 82.2199 11.343 81.9699 11.513C81.5299 11.803 81.5799 12.293 82.0699 12.473C82.5799 12.6631 83.1299 12.7431 83.6499 12.8931C84.2199 13.0531 84.8099 13.1931 85.3599 13.4231C86.3399 13.8331 86.8599 14.5931 86.8799 15.6731C86.8999 16.7931 86.3699 17.5831 85.3999 18.0831C84.6099 18.4931 83.7499 18.6131 82.8799 18.5731C81.5299 18.5331 80.2499 18.1631 79.1299 17.2131Z" fill="#333333"/>
<path d="M89.1499 11.4625C88.5499 11.4625 88.0099 11.4625 87.4399 11.4625C87.4399 10.8625 87.4399 10.3025 87.4399 9.70253C87.9899 9.70253 88.5299 9.70253 89.1299 9.70253C89.1299 8.92253 89.1299 8.18252 89.1299 7.41252C89.9299 7.41252 90.6699 7.41252 91.4799 7.41252C91.4799 8.14252 91.4799 8.89253 91.4799 9.68253C92.0899 9.68253 92.6299 9.68253 93.2099 9.68253C93.2099 10.2725 93.2099 10.8325 93.2099 11.4325C92.6599 11.4325 92.0999 11.4325 91.4899 11.4325C91.4899 12.1125 91.4899 12.7425 91.4899 13.3625C91.4899 14.0325 91.4899 14.6925 91.4899 15.3625C91.4899 16.4525 91.9599 16.7525 92.9899 16.2625C93.1499 16.8426 93.2999 17.4126 93.4699 18.0226C92.7599 18.5726 91.9499 18.6726 91.1199 18.5626C89.8699 18.4026 89.2499 17.7626 89.1899 16.4925C89.1299 15.2825 89.1599 14.0625 89.1499 12.8525C89.1499 12.4025 89.1499 11.9725 89.1499 11.4625Z" fill="#333333"/>
<path d="M42.2198 11.4625C41.6198 11.4625 41.0898 11.4625 40.5198 11.4625C40.5198 10.8825 40.5198 10.3025 40.5198 9.69253C41.0698 9.69253 41.6098 9.69253 42.1998 9.69253C42.1998 8.91253 42.1998 8.17252 42.1998 7.41252C42.9898 7.41252 43.7398 7.41252 44.5398 7.41252C44.5398 8.14252 44.5398 8.88253 44.5398 9.67253C45.1498 9.67253 45.7098 9.67253 46.2798 9.67253C46.2798 10.2825 46.2798 10.8425 46.2798 11.4625C45.7198 11.4625 45.1598 11.4625 44.5498 11.4625C44.5498 12.3625 44.5498 13.2025 44.5498 14.0525C44.5498 14.5825 44.5298 15.1225 44.5698 15.6525C44.6298 16.4825 45.0498 16.7125 45.8198 16.3525C45.8598 16.3325 45.8998 16.3125 45.9798 16.2625C46.1198 16.7925 46.2698 17.2926 46.3798 17.8126C46.3998 17.9326 46.2998 18.1226 46.1898 18.2026C45.4298 18.7426 43.7998 18.7326 43.0498 18.1926C42.3898 17.7226 42.2198 17.0125 42.2098 16.2625C42.1998 14.8425 42.2098 13.4325 42.2098 12.0125C42.2198 11.8425 42.2198 11.6825 42.2198 11.4625Z" fill="#333333"/>
<path d="M34.1297 9.70302C34.8897 9.70302 35.6397 9.70302 36.4297 9.70302C36.4297 9.98302 36.4297 10.253 36.4297 10.533C36.4597 10.553 36.4897 10.573 36.5097 10.603C37.0997 9.89302 37.7397 9.30302 38.7597 9.37302C38.7597 10.123 38.7597 10.843 38.7597 11.593C38.4897 11.593 38.2497 11.583 37.9997 11.593C37.1797 11.633 36.4497 12.393 36.4497 13.203C36.4497 14.753 36.4497 16.303 36.4497 17.853C36.4497 18.013 36.4497 18.183 36.4497 18.383C35.6697 18.383 34.9097 18.383 34.1297 18.383C34.1297 15.493 34.1297 12.603 34.1297 9.70302Z" fill="#333333"/>
</svg>
