<svg width="120" height="22" viewBox="0 0 120 22" fill="none" xmlns="http://www.w3.org/2000/svg">
<g clip-path="url(#clip0)">
<path d="M18.384 7.20772H14.4154V3.23918C14.4154 1.45871 12.9567 0 11.1763 0H3.23918C1.45871 0 0 1.45871 0 3.23918V11.1763C0 12.9567 1.45871 14.4154 3.23918 14.4154H7.20772V18.384C7.20772 20.1645 8.66643 21.6232 10.4469 21.6232H18.384C20.1645 21.6232 21.6232 20.1645 21.6232 18.384V10.4469C21.6232 8.66643 20.1645 7.20772 18.384 7.20772ZM14.4154 12.2488C14.4154 13.4501 13.4501 14.4154 12.2488 14.4154H7.20772V9.37433C7.20772 8.17304 8.17304 7.20772 9.37433 7.20772H14.4154V12.2488Z" fill="#1A7DF1"/>
<path d="M8.70935 9.37398V12.9135H12.2489C12.6135 12.9135 12.9139 12.6132 12.9139 12.2485V8.70898H9.37435C9.00967 8.70898 8.70935 9.00931 8.70935 9.37398Z" fill="#1A7DF1"/>
<path d="M48.4376 7.78711C46.1423 7.78711 44.3189 9.41743 44.3189 12.1847C44.3189 14.5443 45.7133 16.0889 47.6224 16.3892V14.2011C46.6786 13.8793 46.0136 12.9998 46.0136 11.9702C46.0136 10.6831 47.0647 9.58904 48.3947 9.58904C49.6818 9.58904 50.7544 10.6831 50.7544 11.9702C50.7544 12.9998 50.0679 13.9008 49.1455 14.2011V16.3677C50.8616 16.046 52.449 14.6945 52.449 12.0345C52.449 9.52468 50.8187 7.78711 48.4376 7.78711Z" fill="#1A7DF1"/>
<path d="M42.5599 7.85151C42.2596 7.87296 41.9592 7.91587 41.6375 8.00167C41.4873 8.04457 41.3157 8.08748 41.1441 8.17328C41.0583 8.21619 40.9725 8.25909 40.8867 8.30199C40.8009 8.36635 40.6936 8.4307 40.6292 8.47361C40.4576 8.62377 40.3075 8.81683 40.1573 8.98844V8.08748H38.6128V16.3892H40.1573V11.155C40.2002 10.8118 40.3075 10.5544 40.3933 10.4042C40.4791 10.2326 40.6078 10.0396 40.7794 9.86796C40.951 9.69634 41.2299 9.61054 41.38 9.54618C41.4229 9.52473 41.4659 9.50328 41.4873 9.50328L41.616 9.46038C41.7018 9.43893 41.8091 9.41747 41.9378 9.39602C42.3883 9.33167 42.9246 9.35312 43.375 9.39602L43.4608 7.87296C43.1391 7.83006 42.8602 7.80861 42.5599 7.85151Z" fill="#1A7DF1"/>
<path d="M78.6843 11.1342C78.5341 10.8554 78.3196 10.6194 78.0836 10.4263C77.9549 10.3405 77.8262 10.2547 77.6975 10.1689C77.6332 10.126 77.5474 10.0831 77.483 10.0402C77.7833 9.80423 78.0622 9.52536 78.2767 9.18213C78.577 8.68875 78.7272 8.0881 78.6843 7.50891C78.6843 7.20859 78.6199 6.92972 78.5341 6.65085C78.4483 6.37198 78.3196 6.11456 78.1695 5.85714C77.8477 5.36376 77.3972 4.97763 76.8824 4.72021C76.6249 4.5915 76.3461 4.5057 76.0457 4.44134C75.8956 4.41989 75.7669 4.39844 75.6167 4.39844C75.5524 4.39844 75.4666 4.39844 75.4022 4.39844H75.2306C74.3296 4.39844 73.4501 4.41989 72.5491 4.41989H71.7983V5.14924L71.8412 10.126V10.1475V15.8107V16.4971H72.5277H75.5309C76.153 16.4971 76.7751 16.347 77.3114 16.0466C77.5903 15.8965 77.8262 15.7034 78.0622 15.4889C78.2767 15.2744 78.4912 15.017 78.6414 14.7595C78.9632 14.2233 79.1348 13.5797 79.1348 12.9576C79.1777 12.3141 79.0275 11.6705 78.6843 11.1342ZM75.4022 5.90005C75.4666 5.90005 75.488 5.90005 75.5309 5.90005C75.6167 5.90005 75.6811 5.9215 75.7669 5.9215C75.917 5.9644 76.0672 5.98585 76.1959 6.07166C76.4748 6.20037 76.7107 6.41488 76.8824 6.6723C77.054 6.92972 77.1398 7.23004 77.1612 7.53036C77.1612 7.68053 77.1612 7.83069 77.1183 7.98085C77.0969 8.13101 77.0325 8.28117 76.9896 8.43133C76.8824 8.73165 76.6678 9.01052 76.389 9.16068C76.1101 9.3323 75.7669 9.39665 75.4451 9.39665H73.2785L73.2999 5.85714C73.9435 5.87859 74.587 5.87859 75.252 5.87859H75.4022V5.90005ZM77.3972 14.0087C77.054 14.6737 76.3246 15.1028 75.5738 15.1028H73.257V10.8125H75.5524C75.9385 10.8125 76.3032 10.8983 76.6464 11.0913C76.818 11.1771 76.9467 11.3273 77.054 11.4775C77.0969 11.5633 77.1612 11.6276 77.2256 11.692L77.3114 11.7992L77.3757 11.9065C77.5474 12.2283 77.6546 12.5715 77.6546 12.9362C77.6546 13.3223 77.5688 13.687 77.3972 14.0087Z" fill="#1A7DF1"/>
<path d="M120 16.3465L119.957 8.04475H118.456V8.96717C118.391 8.90282 118.305 8.83846 118.241 8.77411C118.027 8.60249 117.791 8.45233 117.555 8.32362C117.426 8.25927 117.297 8.21637 117.168 8.17346C117.04 8.13056 116.911 8.08766 116.782 8.04475L116.375 7.9804L115.967 7.95895C115.452 7.9375 114.873 8.00185 114.337 8.23782C113.801 8.45233 113.329 8.81701 112.985 9.26749C112.277 10.1685 112.02 11.2839 112.02 12.2922C112.02 12.807 112.084 13.3433 112.235 13.8581C112.385 14.373 112.621 14.8878 112.985 15.3168C113.35 15.7459 113.822 16.1105 114.337 16.3251C114.852 16.561 115.431 16.6683 115.967 16.6468C116.503 16.6468 117.061 16.5396 117.576 16.2822C117.919 16.1105 118.22 15.896 118.498 15.6172V16.3465V16.6039C118.498 16.6683 118.498 16.7112 118.498 16.7755C118.477 16.8828 118.456 17.0115 118.413 17.1188C118.327 17.3547 118.177 17.5907 118.005 17.8052C117.662 18.2342 117.147 18.5346 116.611 18.6418C116.332 18.7062 116.053 18.7062 115.753 18.6847C115.452 18.6633 115.173 18.5989 114.916 18.4917C114.659 18.3844 114.423 18.2342 114.208 18.0626C113.994 17.8696 113.822 17.6551 113.672 17.4191L112.471 18.3201C112.707 18.6418 113.007 18.9421 113.329 19.1996C113.65 19.457 114.037 19.6715 114.444 19.8217C114.83 19.9718 115.259 20.0576 115.645 20.0791C115.753 20.0791 115.838 20.1005 115.946 20.1005C116.053 20.1005 116.139 20.1005 116.246 20.1005C116.461 20.1005 116.675 20.0791 116.89 20.0362C117.726 19.8646 118.52 19.4355 119.078 18.8134C119.357 18.4917 119.614 18.127 119.786 17.7194C119.871 17.5049 119.936 17.2904 119.979 17.0544C120 16.9472 120 16.8184 120.022 16.6897C120 16.4967 120 16.4323 120 16.3465ZM118.456 12.8499C118.456 12.9572 118.434 13.043 118.434 13.1502C118.434 13.2575 118.413 13.3433 118.391 13.4291C118.305 13.8152 118.155 14.1584 117.941 14.4588C117.705 14.7591 117.404 14.9522 117.083 15.1023C116.761 15.231 116.396 15.2954 116.01 15.2739C115.259 15.2525 114.616 14.9307 114.208 14.3515C114.015 14.0726 113.843 13.7509 113.736 13.3862C113.629 13.0215 113.586 12.6568 113.586 12.2493C113.586 11.4556 113.779 10.7047 114.208 10.147C114.637 9.58927 115.259 9.26749 116.01 9.26749C116.396 9.24604 116.739 9.3104 117.04 9.46056C117.362 9.58927 117.64 9.82523 117.855 10.1041C118.284 10.6618 118.498 11.4341 118.477 12.2493V12.5496C118.477 12.6568 118.456 12.7426 118.456 12.8499Z" fill="#1A7DF1"/>
<path d="M54.1008 14.223C54.1652 14.3303 54.2724 14.459 54.4012 14.6091C54.5728 14.7808 55.0876 15.2956 55.8384 15.2956C55.9886 15.2956 56.5249 15.2956 56.9324 14.888C57.1684 14.6306 57.2328 14.3517 57.2542 14.2659C57.3186 13.9227 57.2328 13.6438 57.1684 13.5151C57.147 13.4722 57.147 13.4508 57.1255 13.4508C56.9753 13.1504 56.7179 12.9788 56.5249 12.893C56.2031 12.7429 55.9028 12.6785 55.7097 12.6141C55.7097 12.6141 54.8302 12.3567 54.2939 11.8633C54.1866 11.7775 54.0365 11.6274 53.8863 11.3914C53.5431 10.8766 53.5216 10.3617 53.5216 10.2759C53.5002 9.78254 53.6718 9.41786 53.7576 9.24625C54.1223 8.49544 54.7658 8.13077 55.0447 7.98061C56.1602 7.46577 57.1899 7.8948 57.34 7.95915C58.005 8.23802 58.3911 8.70996 58.5628 8.94593C58.2624 9.2248 57.9621 9.50367 57.6403 9.78254C57.576 9.67528 57.4902 9.48222 57.3186 9.33205C57.2328 9.24625 56.7608 8.83867 56.0958 8.92447C56.0744 8.92447 55.3665 9.03173 55.0876 9.63238C55.0018 9.82544 54.9803 9.99705 54.9803 10.1043C54.9803 10.1043 54.9803 10.1687 54.9803 10.233C54.9803 10.233 55.0018 10.3832 55.0662 10.5333C55.2378 10.9624 55.7955 11.2198 55.7955 11.2198C56.2245 11.4129 56.5463 11.4987 56.8895 11.6488C57.4258 11.8848 57.812 12.0779 58.1337 12.3996C58.7344 13.0003 58.7344 13.8583 58.7344 14.0085C58.7344 14.9095 58.1981 15.5101 57.9836 15.7461C57.2542 16.4754 56.3318 16.5183 55.9028 16.5398C55.5595 16.5612 54.6586 16.5183 53.8863 15.9177C53.5645 15.6817 53.4358 15.4887 53.3071 15.317C53.5645 14.9309 53.8434 14.5662 54.1008 14.223Z" fill="#1A7DF1"/>
<path d="M60.3861 14.223C60.4505 14.3303 60.5577 14.459 60.6864 14.6091C60.8581 14.7808 61.3729 15.2956 62.1237 15.2956C62.2739 15.2956 62.8101 15.2956 63.2177 14.888C63.4537 14.6306 63.5181 14.3517 63.5395 14.2659C63.6039 13.9227 63.518 13.6438 63.4537 13.5151C63.4322 13.4722 63.4322 13.4508 63.4108 13.4508C63.2606 13.1504 63.0032 12.9788 62.8101 12.893C62.4884 12.7429 62.1881 12.6785 61.995 12.6141C61.995 12.6141 61.1155 12.3567 60.5792 11.8633C60.4719 11.7775 60.3218 11.6274 60.1716 11.3914C59.8284 10.8766 59.8069 10.3617 59.8069 10.2759C59.7855 9.78254 59.9571 9.41786 60.0429 9.24625C60.4076 8.49544 61.0511 8.13077 61.33 7.98061C62.4455 7.46577 63.4751 7.8948 63.6253 7.95915C64.2903 8.23802 64.6764 8.70996 64.848 8.94593C64.5477 9.2248 64.2474 9.50367 63.9256 9.78254C63.8613 9.67528 63.7755 9.48222 63.6039 9.33205C63.518 9.24625 63.0461 8.83867 62.3811 8.92447C62.3597 8.92447 61.6518 9.03173 61.3729 9.63238C61.2871 9.82544 61.2656 9.99705 61.2656 10.1043C61.2656 10.1043 61.2656 10.1687 61.2656 10.233C61.2656 10.233 61.2871 10.3832 61.3514 10.5333C61.5231 10.9624 62.0808 11.2198 62.0808 11.2198C62.5098 11.4129 62.8316 11.4987 63.1748 11.6488C63.7111 11.8848 64.0972 12.0779 64.419 12.3996C65.0197 13.0003 65.0197 13.8583 65.0197 14.0085C65.0197 14.9095 64.4834 15.5101 64.2689 15.7461C63.5395 16.4754 62.6171 16.5183 62.188 16.5398C61.8448 16.5612 60.9439 16.5183 60.1716 15.9177C59.8498 15.6817 59.7211 15.4887 59.5924 15.317C59.8498 14.9309 60.1287 14.5662 60.3861 14.223Z" fill="#1A7DF1"/>
<path d="M111.119 9.99682C111.055 9.61069 110.905 9.24601 110.669 8.92424C110.411 8.60246 110.089 8.34505 109.703 8.19489C109.253 8.00182 108.781 7.91602 108.309 7.91602C107.301 7.91602 106.464 8.28069 105.863 8.96714V8.08763H104.34V16.4966H105.863V11.9489C105.863 10.9192 106.078 10.1899 106.485 9.8252C106.893 9.46053 107.451 9.26746 107.987 9.26746C108.33 9.26746 108.652 9.35327 108.931 9.50343C109.188 9.65359 109.381 9.88956 109.489 10.147C109.596 10.4258 109.639 10.8549 109.639 11.4126V16.5181H111.162V11.3697C111.205 10.9192 111.183 10.4473 111.119 9.99682Z" fill="#1A7DF1"/>
<path d="M82.1595 8.19531H80.5078V16.4542H82.1595V8.19531Z" fill="#1A7DF1"/>
<path d="M81.3229 7.23076C81.9745 7.23076 82.5027 6.70253 82.5027 6.05093C82.5027 5.39932 81.9745 4.87109 81.3229 4.87109C80.6713 4.87109 80.1431 5.39932 80.1431 6.05093C80.1431 6.70253 80.6713 7.23076 81.3229 7.23076Z" fill="#1A7DF1"/>
<path d="M88.5735 5.59961V9.16057C87.9728 8.66718 87.4365 8.47412 86.5999 8.47412C84.9053 8.47412 83.3393 9.99718 83.3393 12.4641C83.3393 14.9954 84.562 16.4326 86.4712 16.4326C87.3936 16.4326 88.0157 16.2396 88.5735 15.7033V16.4326H90.1609V5.59961H88.5735ZM86.8573 15.1026C85.6775 15.1026 84.9911 14.1588 84.9911 12.4212C84.9911 10.7694 85.8491 9.76121 86.9003 9.76121C87.458 9.76121 87.9943 9.93282 88.5735 10.4477V14.2446C88.123 14.8881 87.4794 15.1026 86.8573 15.1026Z" fill="#1A7DF1"/>
<path d="M96.2531 5.59961V9.16057C95.6525 8.66718 95.1162 8.47412 94.2796 8.47412C92.5849 8.47412 91.0189 9.99718 91.0189 12.4641C91.0189 14.9954 92.2417 16.4326 94.1509 16.4326C95.0733 16.4326 95.6954 16.2396 96.2531 15.7033V16.4326H97.8405V5.59961H96.2531ZM94.537 15.1026C93.3571 15.1026 92.6707 14.1588 92.6707 12.4212C92.6707 10.7694 93.5288 9.76121 94.5799 9.76121C95.1376 9.76121 95.6739 9.93282 96.2531 10.4477V14.2446C95.8026 14.8881 95.1591 15.1026 94.537 15.1026Z" fill="#1A7DF1"/>
<path d="M37.7762 14.1789C37.0469 15.1013 35.9957 15.7878 34.8374 16.1095C33.679 16.4098 32.3919 16.324 31.2764 15.8521C30.7187 15.6161 30.2038 15.2944 29.7319 14.8868C29.2814 14.4792 28.8953 14.0287 28.5735 13.5139C28.2517 12.999 28.0158 12.4413 27.8441 11.8836C27.6725 11.3044 27.6082 10.7037 27.5867 10.1031C27.6082 9.50245 27.6725 8.9018 27.8441 8.32261C28.0158 7.74342 28.2517 7.18568 28.5735 6.69229C28.8953 6.17745 29.2814 5.72697 29.7319 5.31939C30.1824 4.93326 30.7187 4.61149 31.2764 4.35407C32.3919 3.88214 33.6575 3.77488 34.8374 4.09665C35.9957 4.39697 37.0469 5.10488 37.7762 6.02729L36.7894 6.8639C36.1674 6.17745 35.3522 5.70552 34.4727 5.51246C33.5932 5.31939 32.6707 5.42665 31.877 5.76987C31.4695 5.96294 31.1048 6.1989 30.7616 6.49923C30.4398 6.79955 30.1395 7.14277 29.9035 7.5289C29.6675 7.91503 29.4959 8.32261 29.3672 8.75164C29.2385 9.18067 29.1956 9.63116 29.1956 10.0816C29.1956 10.5321 29.2599 10.9826 29.3672 11.4116C29.4959 11.8407 29.6675 12.2697 29.9035 12.6344C30.1395 13.0205 30.4398 13.3637 30.7616 13.664C31.1048 13.9429 31.4695 14.2003 31.877 14.3934C32.6707 14.7581 33.6146 14.8653 34.4727 14.6508C35.3522 14.4578 36.1674 13.9858 36.7894 13.2994L37.7762 14.1789Z" fill="#1A7DF1"/>
<path d="M101.873 11.8618H100.372V16.4524H101.873V11.8618Z" fill="#1A7DF1"/>
<path d="M98.8059 11.9905C98.8059 10.7034 99.857 9.60938 101.187 9.60938C102.474 9.60938 103.547 10.7034 103.547 11.9905C103.547 13.2776 102.496 14.3502 101.187 14.3502C99.857 14.3287 98.8059 13.2776 98.8059 11.9905Z" fill="#1A7DF1"/>
</g>
<defs>
<clipPath id="clip0">
<rect width="120" height="21.6232" fill="white"/>
</clipPath>
</defs>
</svg>
