<svg width="200" height="24" viewBox="0 0 200 24" fill="none" xmlns="http://www.w3.org/2000/svg">
<path d="M6.07824 7.35287C5.19591 7.35287 4.90181 7.74501 4.90181 8.62734V10.0979H7.35271L7.0586 12.5488H4.90181V19.8035H1.96072V12.5488H0V10.0979H1.96072V8.72537C1.96072 6.27447 2.94108 5 5.6861 5C6.27431 5 6.96057 5 7.35271 5.09804V7.35287" fill="#333333"/>
<path d="M10.3917 15.293C10.3917 16.7635 10.8819 17.6458 12.2544 17.6458C13.4309 17.6458 14.0191 16.7635 14.0191 15.391V14.4107C14.0191 13.0381 13.4309 12.1558 12.2544 12.1558C10.8819 12.1558 10.3917 13.1362 10.3917 14.5087V15.293ZM7.54868 14.7048C7.54868 11.9597 8.82315 9.99902 11.4701 9.99902C12.9407 9.99902 13.823 10.7833 14.2151 11.6656V10.0971H17.0582V19.7046H14.2151V18.2341C13.823 19.2144 12.9407 19.9007 11.4701 19.9007C8.82315 19.9007 7.54868 17.8419 7.54868 15.1949V14.7048Z" fill="#333333"/>
<path d="M23.1362 9.90234C24.3127 9.90234 25.3911 10.0984 25.9793 10.5886L25.293 12.6474C24.8029 12.4513 24.1166 12.1572 23.3323 12.1572C21.7637 12.1572 21.0775 13.0395 21.0775 14.6081V15.2943C21.0775 16.8629 21.7637 17.7452 23.3323 17.7452C24.1166 17.7452 24.8029 17.5492 25.293 17.2551L25.9793 19.3138C25.3911 19.706 24.3127 20.0001 23.1362 20.0001C19.705 20.0001 18.1364 18.1374 18.1364 15.1963V14.7061C18.1364 11.765 19.705 9.90234 23.1362 9.90234Z" fill="#333333"/>
<path d="M29.2152 14.1179H32.7445V13.8238C32.7445 12.7454 32.3523 11.9611 31.0779 11.9611C29.7053 11.9611 29.2152 12.7454 29.2152 14.1179ZM26.2741 15.2943V14.412C26.2741 11.667 27.8427 9.90234 30.9798 9.90234C34.0189 9.90234 35.2934 11.765 35.2934 14.412V15.9806H29.1171C29.2152 17.2551 29.8034 17.8433 31.372 17.8433C32.4504 17.8433 33.6268 17.6472 34.5091 17.2551L34.9993 19.2158C34.215 19.6079 32.6464 19.902 31.2739 19.902C27.6466 20.0001 26.2741 18.1374 26.2741 15.2943Z" fill="#333333"/>
<path d="M43.2338 14.6075C43.2338 13.235 42.7436 12.2547 41.273 12.2547C40.0966 12.2547 39.4104 13.137 39.4104 14.5095V15.4899C39.4104 16.8624 40.0966 17.7447 41.273 17.7447C42.6455 17.7447 43.2338 16.7643 43.2338 15.3918V14.6075ZM46.1748 15.2938C46.1748 18.0388 44.9004 19.9995 42.1554 19.9995C40.6848 19.9995 39.7045 19.3133 39.3123 18.3329V19.8035H36.5673V5.29411L39.5084 5V11.4704C39.9005 10.5881 40.8809 9.90181 42.2534 9.90181C44.9004 9.90181 46.2729 11.9606 46.2729 14.6075V15.2938H46.1748Z" fill="#333333"/>
<path d="M53.822 14.51C53.822 13.2356 53.3318 12.2552 51.9593 12.2552C50.5868 12.2552 50.0966 13.2356 50.0966 14.51V15.3924C50.0966 16.6668 50.5868 17.6472 51.9593 17.6472C53.3318 17.6472 53.822 16.6668 53.822 15.3924V14.51ZM47.1555 15.1963V14.7061C47.1555 11.9611 48.7241 9.90234 51.9593 9.90234C55.1945 9.90234 56.7631 11.8631 56.7631 14.7061V15.1963C56.7631 17.9413 55.1945 20.0001 51.9593 20.0001C48.7241 20.0001 47.1555 18.0393 47.1555 15.1963Z" fill="#333333"/>
<path d="M64.4097 14.51C64.4097 13.2356 63.9195 12.2552 62.547 12.2552C61.1745 12.2552 60.6843 13.2356 60.6843 14.51V15.3924C60.6843 16.6668 61.1745 17.6472 62.547 17.6472C63.9195 17.6472 64.4097 16.6668 64.4097 15.3924V14.51ZM57.7432 15.1963V14.7061C57.7432 11.9611 59.3118 9.90234 62.547 9.90234C65.7822 9.90234 67.3508 11.8631 67.3508 14.7061V15.1963C67.3508 17.9413 65.7822 20.0001 62.547 20.0001C59.3118 20.0001 57.7432 18.0393 57.7432 15.1963Z" fill="#333333"/>
<path d="M71.3704 14.7056L74.2134 10.0979H77.3506L74.3114 14.9017L77.4486 19.8035H74.3114L71.3704 15.0977V19.8035H68.4293V5.29411L71.3704 5" fill="#333333"/>
</svg>
