<svg width="120" height="24" viewBox="0 0 120 24" fill="none" xmlns="http://www.w3.org/2000/svg">
<g clip-path="url(#clip0)">
<path d="M6.07824 7.35287C5.19591 7.35287 4.90181 7.74501 4.90181 8.62734V10.0979H7.35271L7.0586 12.5488H4.90181V19.8035H1.96072V12.5488H0V10.0979H1.96072V8.72537C1.96072 6.27447 2.94108 5 5.6861 5C6.27431 5 6.96057 5 7.35271 5.09804V7.35287" fill="#333333"/>
<path d="M10.3919 15.2933C10.3919 16.7639 10.8821 17.6462 12.2546 17.6462C13.431 17.6462 14.0192 16.7639 14.0192 15.3914V14.411C14.0192 13.0385 13.431 12.1562 12.2546 12.1562C10.8821 12.1562 10.3919 13.1365 10.3919 14.5091V15.2933ZM7.54883 14.7051C7.54883 11.9601 8.8233 9.99939 11.4703 9.99939C12.9408 9.99939 13.8231 10.7837 14.2153 11.666V10.0974H17.0583V19.705H14.2153V18.2344C13.8231 19.2148 12.9408 19.901 11.4703 19.901C8.8233 19.901 7.54883 17.8423 7.54883 15.1953V14.7051Z" fill="#333333"/>
<path d="M23.1366 9.90198C24.313 9.90198 25.3914 10.098 25.9796 10.5882L25.2934 12.647C24.8032 12.4509 24.1169 12.1568 23.3326 12.1568C21.7641 12.1568 21.0778 13.0391 21.0778 14.6077V15.294C21.0778 16.8625 21.7641 17.7449 23.3326 17.7449C24.1169 17.7449 24.8032 17.5488 25.2934 17.2547L25.9796 19.3134C25.3914 19.7056 24.313 19.9997 23.1366 19.9997C19.7053 19.9997 18.1367 18.137 18.1367 15.1959V14.7057C18.1367 11.7647 19.7053 9.90198 23.1366 9.90198Z" fill="#333333"/>
<path d="M29.2145 14.1175H32.7438V13.8234C32.7438 12.745 32.3517 11.9607 31.0772 11.9607C29.7047 11.9607 29.2145 12.745 29.2145 14.1175ZM26.2734 15.294V14.4116C26.2734 11.6666 27.842 9.90198 30.9792 9.90198C34.0183 9.90198 35.2928 11.7647 35.2928 14.4116V15.9802H29.1165C29.2145 17.2547 29.8027 17.8429 31.3713 17.8429C32.4497 17.8429 33.6261 17.6468 34.5085 17.2547L34.9987 19.2154C34.2144 19.6076 32.6458 19.9017 31.2733 19.9017C27.6459 19.9997 26.2734 18.137 26.2734 15.294Z" fill="#333333"/>
<path d="M43.2329 14.6075C43.2329 13.235 42.7427 12.2547 41.2721 12.2547C40.0957 12.2547 39.4095 13.137 39.4095 14.5095V15.4899C39.4095 16.8624 40.0957 17.7447 41.2721 17.7447C42.6446 17.7447 43.2329 16.7643 43.2329 15.3918V14.6075ZM46.1739 15.2938C46.1739 18.0388 44.8995 19.9995 42.1545 19.9995C40.6839 19.9995 39.7036 19.3133 39.3114 18.3329V19.8035H36.5664V5.29411L39.5075 5V11.4704C39.8996 10.5881 40.88 9.90181 42.2525 9.90181C44.8995 9.90181 46.272 11.9606 46.272 14.6075V15.2938H46.1739Z" fill="#333333"/>
<path d="M53.8227 14.5097C53.8227 13.2352 53.3325 12.2548 51.96 12.2548C50.5875 12.2548 50.0973 13.2352 50.0973 14.5097V15.392C50.0973 16.6665 50.5875 17.6468 51.96 17.6468C53.3325 17.6468 53.8227 16.6665 53.8227 15.392V14.5097ZM47.1562 15.1959V14.7057C47.1562 11.9607 48.7248 9.90198 51.96 9.90198C55.1952 9.90198 56.7638 11.8627 56.7638 14.7057V15.1959C56.7638 17.9409 55.1952 19.9997 51.96 19.9997C48.7248 19.9997 47.1562 18.039 47.1562 15.1959Z" fill="#333333"/>
<path d="M64.4106 14.5097C64.4106 13.2352 63.9204 12.2548 62.5479 12.2548C61.1754 12.2548 60.6852 13.2352 60.6852 14.5097V15.392C60.6852 16.6665 61.1754 17.6468 62.5479 17.6468C63.9204 17.6468 64.4106 16.6665 64.4106 15.392V14.5097ZM57.7441 15.1959V14.7057C57.7441 11.9607 59.3127 9.90198 62.5479 9.90198C65.7831 9.90198 67.3517 11.8627 67.3517 14.7057V15.1959C67.3517 17.9409 65.7831 19.9997 62.5479 19.9997C59.3127 19.9997 57.7441 18.039 57.7441 15.1959Z" fill="#333333"/>
<path d="M71.3708 14.7056L74.2138 10.0979H77.351L74.3119 14.9017L77.449 19.8035H74.3119L71.3708 15.0977V19.8035H68.4297V5.29411L71.3708 5" fill="#333333"/>
<g clip-path="url(#clip1)">
<path d="M93.7507 16.4557C94.0009 16.4557 94.2037 16.2529 94.2037 16.0027C94.2037 15.7525 94.0009 15.5497 93.7507 15.5497H87.9787C87.7285 15.5497 87.5257 15.7525 87.5257 16.0027C87.5257 16.2529 87.7285 16.4557 87.9787 16.4557H93.7507ZM86.6971 11.7457L88.2211 13.2697L88.1407 13.5828C88.0865 13.7939 88.1483 14.018 88.3031 14.1715C88.5431 14.4094 88.9303 14.4085 89.1693 14.1696L92.6178 10.721C92.8571 10.4817 92.8571 10.0937 92.6178 9.85441C92.466 9.70254 92.2457 9.64127 92.0372 9.69291L91.7191 9.7717L87.9871 6.0397L88.0731 5.78696C88.1455 5.57404 88.0917 5.33849 87.9341 5.17808C87.7022 4.9421 87.3224 4.94043 87.0885 5.17437L83.6037 8.65909C83.3791 8.88372 83.3758 9.24689 83.5964 9.47554C83.7531 9.638 83.9896 9.69532 84.2033 9.62266L84.4531 9.5377L86.0191 11.1037L83.1162 14.0282C82.9391 14.2067 82.9376 14.4941 83.113 14.6744C83.2923 14.8588 83.5879 14.8607 83.7696 14.6786L86.6971 11.7457Z" fill="#B28BD9"/>
</g>
</g>
<defs>
<clipPath id="clip0">
<rect width="120" height="24" fill="white"/>
</clipPath>
<clipPath id="clip1">
<rect width="12" height="12" fill="white" transform="translate(82.5 5)"/>
</clipPath>
</defs>
</svg>
