<svg width="73" height="20" viewBox="0 0 73 20" fill="none" xmlns="http://www.w3.org/2000/svg">
<path d="M0 14.5714H2.24173V9.25714H7.0126V7.2H2.24173V4.05714H7.47244V2H0V14.5714Z" fill="#333333"/>
<path d="M16.037 5.42871L13.163 12.0573L10.4039 5.42871H8.04724L11.9559 14.6287L10.4614 18.0001H12.7606L18.3937 5.42871H16.037Z" fill="#333333"/>
<path d="M25.6937 11.8857C25.1764 12.3999 24.6016 12.6285 23.7968 12.6285C23.0496 12.6285 22.3598 12.3428 21.8425 11.8857C21.3252 11.3714 21.0378 10.7428 21.0378 9.99994C21.0378 9.25709 21.3252 8.57137 21.8425 8.11423C22.3598 7.59995 23.0496 7.37137 23.7968 7.37137C24.5441 7.37137 25.1764 7.65709 25.6937 8.11423C26.211 8.62852 26.4409 9.25709 26.4409 9.99994C26.4409 10.7428 26.211 11.3714 25.6937 11.8857ZM24.0842 5.42852C22.5897 5.42852 21.5551 6.05709 21.2677 6.91423V2.22852H19.1409V14.3428H21.2677V13.0857C21.5551 13.9428 22.6472 14.5714 24.0842 14.5714C25.3488 14.5714 26.3834 14.1142 27.2457 13.2571C28.1079 12.3428 28.5102 11.3142 28.5102 9.99994C28.5102 8.68566 28.1079 7.59994 27.2457 6.7428C26.4409 5.82852 25.3488 5.42852 24.0842 5.42852Z" fill="#333333"/>
<path d="M31.7866 9.02872C31.844 8.51444 32.1314 8.0573 32.5913 7.6573C33.0511 7.31444 33.6259 7.08587 34.3157 7.08587C34.948 7.08587 35.4653 7.2573 35.8677 7.6573C36.3275 8.00015 36.5574 8.4573 36.5574 8.97158H31.7866V9.02872ZM34.3157 5.37158C32.9362 5.37158 31.844 5.77158 30.9818 6.62873C30.1196 7.48587 29.6598 8.57158 29.6598 10.0002V10.0573C29.6598 11.4287 30.1196 12.5144 30.9818 13.3144C31.844 14.1144 32.9937 14.5716 34.3732 14.5716C35.8677 14.5716 37.1322 14.0573 38.1094 13.0287L36.8448 11.8287C36.1551 12.5144 35.3503 12.8573 34.4307 12.8573C32.8787 12.8573 31.844 11.943 31.7291 10.5716H38.6267C38.6267 10.343 38.6842 10.1144 38.6842 9.82873C38.6842 8.57158 38.2818 7.54301 37.4196 6.68587C36.6724 5.77158 35.5803 5.37158 34.3157 5.37158Z" fill="#333333"/>
<mask id="mask0" mask-type="alpha" maskUnits="userSpaceOnUse" x="40" y="5" width="6" height="10">
<path d="M40.0989 5.44238H45.5021V14.3567H40.0989V5.44238Z" fill="#333333"/>
</mask>
<g mask="url(#mask0)">
<path d="M44.8698 5.44238C43.6052 5.44238 42.6281 6.01381 42.2257 6.9281V5.61381H40.0989V14.3567H42.2257V9.7281C42.2257 8.29953 43.1454 7.38524 44.6399 7.38524C44.9848 7.38524 45.2722 7.44238 45.5021 7.49953V5.49953C45.3296 5.44238 45.0997 5.44238 44.8698 5.44238Z" fill="#333333"/>
</g>
</svg>
