<svg width="120" height="24" viewBox="0 0 120 24" fill="none" xmlns="http://www.w3.org/2000/svg">
<path d="M10.3699 18.4555H7.74459V13.3954H2.62529V18.4555H0V6.64872H2.62529V11.433H7.74459V6.64872H10.3699V18.4555Z" fill="#333333"/>
<path d="M16.8631 18.6176C15.4746 18.6176 14.3428 18.223 13.4677 17.4337C12.5985 16.6445 12.1638 15.593 12.1638 14.2793V14.0523C12.1638 13.1711 12.3476 12.3845 12.7151 11.6925C13.0827 10.9952 13.6019 10.46 14.2728 10.0869C14.9495 9.70853 15.7196 9.51932 16.5831 9.51932C17.8782 9.51932 18.8962 9.89774 19.6371 10.6546C20.3839 11.4114 20.7573 12.4845 20.7573 13.8739V14.8307H14.7279C14.8095 15.4038 15.0546 15.8633 15.4629 16.2093C15.8771 16.5553 16.3993 16.7282 17.0294 16.7282C18.0036 16.7282 18.765 16.4012 19.3134 15.7471L20.556 17.0364C20.1768 17.5337 19.6634 17.923 19.0158 18.2041C18.3683 18.4798 17.6507 18.6176 16.8631 18.6176ZM16.5743 11.4168C16.0726 11.4168 15.6642 11.5736 15.3492 11.8872C15.04 12.2007 14.8416 12.6494 14.7541 13.2333H18.272V13.0467C18.2603 12.5278 18.1086 12.1277 17.8169 11.8466C17.5252 11.5601 17.111 11.4168 16.5743 11.4168Z" fill="#333333"/>
<path d="M24.8702 18.4555H22.3324V6H24.8702V18.4555Z" fill="#333333"/>
<path d="M29.6307 18.4555H27.093V9.6815H29.6307V18.4555ZM26.9442 7.41097C26.9442 7.05958 27.0696 6.77036 27.3205 6.5433C27.5772 6.31625 27.9243 6.20273 28.3618 6.20273C28.7936 6.20273 29.1378 6.31625 29.3945 6.5433C29.6511 6.77036 29.7795 7.05958 29.7795 7.41097C29.7795 7.76777 29.6482 8.05969 29.3857 8.28675C29.129 8.5138 28.7877 8.62733 28.3618 8.62733C27.936 8.62733 27.5918 8.5138 27.3292 8.28675C27.0725 8.05969 26.9442 7.76777 26.9442 7.41097Z" fill="#333333"/>
<path d="M37.3928 17.5635C36.7686 18.2663 35.9052 18.6176 34.8025 18.6176C33.7874 18.6176 33.0115 18.3473 32.4748 17.8067C31.9439 17.2661 31.6726 16.4742 31.6609 15.4308V9.6815H34.19V15.3497C34.19 16.2633 34.6392 16.7201 35.5376 16.7201C36.3952 16.7201 36.9844 16.4444 37.3053 15.893V9.6815H39.8431V18.4555H37.4628L37.3928 17.5635Z" fill="#333333"/>
<path d="M44.1223 9.6815L44.2011 10.6627C44.872 9.90044 45.7792 9.51932 46.9226 9.51932C48.1419 9.51932 48.9791 9.96531 49.4341 10.8573C50.0992 9.96531 51.0472 9.51932 52.2782 9.51932C53.305 9.51932 54.0692 9.79773 54.5709 10.3545C55.0727 10.906 55.3235 11.7385 55.3235 12.8521V18.4555H52.7858V12.8602C52.7858 12.3629 52.6807 12.0007 52.4707 11.7736C52.2607 11.5412 51.8902 11.4249 51.3593 11.4249C50.6009 11.4249 50.0759 11.7601 49.7842 12.4305L49.7929 18.4555H47.2639V12.8683C47.2639 12.3602 47.156 11.9926 46.9401 11.7655C46.7243 11.5385 46.3567 11.4249 45.8375 11.4249C45.1199 11.4249 44.6007 11.7006 44.2798 12.2521V18.4555H41.7508V9.6815H44.1223Z" fill="#333333"/>
<path fill-rule="evenodd" clip-rule="evenodd" d="M57.2647 14.7358H65.4447C65.4447 14.7358 68.0076 6.23018 62.1216 11.7398C60.0945 13.6383 57.2647 14.7358 57.2647 14.7358Z" fill="#333333"/>
<path fill-rule="evenodd" clip-rule="evenodd" d="M57.2647 13.7647C57.2647 13.7647 59.4671 12.7873 61.526 11.2038C63.3333 9.81405 65.0294 7.79291 65.0294 7.79291L64.4707 6L62.6869 7.05438C62.6869 7.05438 61.9099 8.80712 60.6183 10.4054C59.2042 12.1552 57.2647 13.7647 57.2647 13.7647Z" fill="#333333"/>
</svg>
