<svg width="120" height="24" viewBox="0 0 120 24" fill="none" xmlns="http://www.w3.org/2000/svg">
<path fill-rule="evenodd" clip-rule="evenodd" d="M24.5984 7.5359C26.0385 7.57522 27.1958 8.68939 27.2472 10.2099C27.3115 12.1498 27.3115 14.0898 27.2472 16.0298C27.1958 17.524 26.1028 18.6906 24.6241 18.9135C23.544 19.0708 22.4124 19.0839 21.4223 18.3367C20.7023 17.7862 20.3551 17.0784 20.2008 16.2264C20.0071 15.1452 20.0317 14.0573 20.0564 12.9674V12.9674V12.9673V12.9673C20.0661 12.5377 20.0758 12.1078 20.0722 11.678C20.0446 10.068 20.0499 8.46478 20.0551 6.85867V6.85829V6.85792C20.0572 6.21509 20.0593 5.57181 20.0593 4.92745C20.0593 4.24584 20.2908 4.02301 20.9723 4.0099C21.0431 4.0086 21.1104 4.00717 21.1743 4.00581C21.7552 3.99347 22.0604 3.98699 22.2182 4.1363C22.3928 4.30157 22.3867 4.65774 22.3739 5.40816V5.40818L22.3739 5.41244C22.3654 6.00669 22.3681 6.59529 22.3709 7.21913V7.21924V7.21935V7.2197V7.22005C22.3723 7.54538 22.3739 7.8803 22.3739 8.23061C23.0811 7.69319 23.7883 7.50969 24.5984 7.5359ZM23.9426 16.7114C24.4826 16.6851 24.9455 16.1215 24.9455 15.453V13.2378V11.075C24.9327 10.341 24.4826 9.81666 23.8269 9.77733C23.0296 9.7249 22.6182 10.0919 22.5024 10.9177C22.2838 12.4906 22.2967 14.0505 22.5024 15.6234C22.6182 16.4885 22.9782 16.7638 23.9426 16.7114ZM59.0204 4.06228C58.4289 4.08849 58.2746 4.67834 58.3774 5.15022C58.3774 5.83784 58.3774 6.14972 58.5327 6.29117C58.6616 6.40857 58.8974 6.40857 59.329 6.40857C60.6277 6.42168 60.7048 6.35614 60.7048 5.34684C60.7048 5.29637 60.7058 5.24541 60.7068 5.19429C60.7129 4.87366 60.7191 4.54693 60.4862 4.29822C60.1692 3.96346 59.6925 4.00483 59.2144 4.04633C59.1496 4.05196 59.0848 4.05758 59.0204 4.06228ZM38.9611 17.891V12.9756C38.9611 12.4377 38.9654 11.8983 38.9697 11.3595C38.9782 10.2832 38.9868 9.20883 38.9611 8.15195C38.9096 6.42172 38.151 5.12405 36.5565 4.3769C35.7197 3.9822 34.8465 4.008 33.9722 4.03383L33.8948 4.0361C32.9047 4.06232 32.0304 4.42933 31.2974 5.09783C30.1787 6.10713 30.0116 7.50967 29.9859 8.88599C29.9391 11.0786 29.9468 13.2711 29.9544 15.4637C29.9573 16.2859 29.9602 17.1082 29.9602 17.9304C29.9602 18.2187 30.0116 18.5333 30.2688 18.6513C30.8602 18.9397 31.5032 18.9397 32.0947 18.6906C32.5453 18.5022 32.5391 18.0703 32.5332 17.6612C32.5325 17.6151 32.5318 17.5692 32.5318 17.524C32.5318 16.5 32.5304 15.4759 32.529 14.4519L32.529 14.4437C32.5261 12.3901 32.5233 10.3366 32.5318 8.28303C32.5318 7.49656 32.879 6.88049 33.5862 6.53969C34.3706 6.17267 35.2707 6.35618 35.8493 6.93292C36.4022 7.48345 36.5051 8.20438 36.5051 8.92531C36.5244 11.1672 36.522 13.4165 36.5196 15.6621C36.5188 16.41 36.518 17.1575 36.518 17.9042C36.518 18.5202 36.788 18.7955 37.3923 18.8217C37.6238 18.8348 37.8681 18.8348 38.0996 18.8217C38.7039 18.7955 38.9611 18.5071 38.9611 17.891ZM17.3619 13.3689C17.3604 12.9757 17.359 12.5824 17.359 12.1892C17.359 11.5857 17.3558 10.9822 17.3525 10.3803V10.3799V10.3795V10.379V10.3786V10.3782V10.3778V10.3774V10.377C17.3493 9.77737 17.3461 9.17934 17.3461 8.58456C17.359 8.04714 17.1239 7.76676 16.47 7.8112L16.4456 7.81287C16.2629 7.82535 16.1027 7.83631 15.918 7.8112C15.1593 7.73256 15.0316 7.85053 15.0316 8.84672V15.5186C15.0316 16.1215 14.5687 16.659 14.0287 16.7245C13.3986 16.8032 12.73 16.3968 12.6142 15.8201C12.5499 15.5317 12.4856 15.2171 12.4856 14.9418C12.4944 14.2182 12.4808 13.4931 12.4671 12.7675C12.4407 11.3637 12.4143 9.9582 12.5499 8.55835C12.5885 8.20444 12.4471 7.87674 12.0099 7.8112C10.454 7.56216 10.1583 7.8112 10.1583 9.42346C10.1583 9.50163 10.1569 9.58124 10.1554 9.66133V9.66134V9.66135V9.66136V9.66137V9.66138V9.66139V9.6614V9.66141C10.1526 9.82304 10.1497 9.98665 10.1583 10.1444C10.1814 10.8699 10.1663 11.597 10.1512 12.324V12.324V12.3241C10.1243 13.62 10.0974 14.9155 10.2869 16.2002C10.4026 16.9736 10.724 17.6289 11.3541 18.1926C12.2028 18.9397 13.1671 18.979 14.183 18.9659C15.9831 18.9266 17.3461 17.5503 17.359 15.7283C17.3676 14.9418 17.3647 14.1554 17.3619 13.3689ZM67.8801 12.3523L67.8801 12.3521C68.1404 11.0908 68.4008 9.82949 68.6643 8.57145C68.78 8.03403 69.05 7.68011 69.6801 7.79808C69.8191 7.8217 69.9628 7.81695 70.1055 7.81223C70.2004 7.80909 70.2949 7.80596 70.3873 7.81119C71.0945 7.81119 71.2746 8.00781 71.0945 8.72874C70.3359 11.7435 69.5644 14.7583 68.78 17.7731C68.5871 18.5203 68.1628 18.8349 67.417 18.8217C67.2964 18.8181 67.1758 18.8225 67.0552 18.8269C66.7386 18.8383 66.422 18.8498 66.1055 18.7169C65.604 18.5203 65.3211 18.1795 65.1925 17.6814C64.8134 16.1814 64.4343 14.6847 64.0552 13.1881L64.0549 13.1868C63.6754 11.6887 63.296 10.1907 62.9166 8.68942C62.7751 8.12578 62.9937 7.8243 63.5723 7.8243C63.6494 7.8243 63.7276 7.82783 63.8059 7.83136C63.989 7.83963 64.1727 7.84792 64.3439 7.81119C65.0382 7.66701 65.2954 8.07335 65.4111 8.65009C65.8698 10.7655 66.3193 12.8903 66.7673 15.0086L67.0055 16.1346H67.0956C67.3591 14.8764 67.6195 13.6149 67.8798 12.3535L67.8798 12.3533L67.8799 12.3531L67.8799 12.3529L67.88 12.3527L67.88 12.3525L67.8801 12.3523ZM51.0028 9.34607V9.34752V9.34896V9.3504V9.35184V9.35328V9.3547C51.0014 9.88924 51 10.4233 51 10.9574C51 11.4531 50.9951 11.9487 50.9902 12.4448C50.9793 13.5622 50.9683 14.6816 51.0128 15.8072C51.0514 16.8428 51.2057 17.9438 52.2729 18.4681C53.1859 18.9138 54.1631 18.9269 55.1532 18.7303C55.6161 18.6385 55.7576 18.3895 55.7576 17.9307V17.8917C55.7576 17.2407 55.7577 16.9162 55.5954 16.7545C55.4342 16.5937 55.1127 16.5937 54.4717 16.5937C53.5845 16.5937 53.3145 16.3184 53.3145 15.414V11.4161C53.3145 9.76414 53.3145 9.76414 54.9347 9.96473L55.0118 9.97427C55.3975 10.0267 55.8219 9.92184 55.7576 9.31888C55.7319 9.04362 55.7447 8.75525 55.7576 8.46687C55.7704 8.0081 55.5776 7.79838 55.1147 7.78527C54.9333 7.78125 54.7289 7.80559 54.5245 7.82992C54.0625 7.88493 53.6006 7.93993 53.4045 7.6673C53.0959 7.26096 53.1601 6.38642 53.2501 5.79466C53.2531 5.77533 53.2564 5.75548 53.2598 5.73527L53.2598 5.73522C53.2882 5.56668 53.3208 5.37287 53.1601 5.24413C52.7718 4.96269 52.1058 5.00642 51.5657 5.09817C51.1028 5.18992 51 5.63559 51 6.10747C51.0085 7.19154 51.0057 8.26977 51.0028 9.34607ZM58.3774 13.2245C58.3774 12.8382 58.3782 12.4511 58.379 12.0636C58.3814 10.8995 58.3838 9.73167 58.3645 8.57122C58.3516 8.0207 58.5445 7.77165 59.1103 7.79786C59.3635 7.80725 59.5772 7.80067 59.7573 7.79513C60.583 7.7697 60.7024 7.76603 60.6919 9.42323C60.6662 12.1756 60.679 14.928 60.6919 17.6803V17.6811C60.6919 18.5331 60.499 18.7167 59.7146 18.7035L59.5741 18.701C58.9715 18.6906 58.6658 18.6853 58.5122 18.5297C58.3541 18.3696 58.3572 18.0502 58.3634 17.402L58.3645 17.2879C58.3838 16.2759 58.3814 15.264 58.379 14.2465C58.3782 13.9065 58.3774 13.5659 58.3774 13.2245ZM8.06225 5.9105C7.34218 4.49486 5.95347 4.2327 4.55189 4.15406C3.59665 4.1017 2.64141 4.11626 1.67962 4.13092C1.43737 4.13461 1.19471 4.13831 0.951526 4.14095C0.257169 4.14095 0 4.4031 0 5.09782V11.4551V17.406C0 18.8217 0.0128585 18.8348 1.42729 18.8217C2.18594 18.8086 2.44311 18.5595 2.44311 17.7862C2.44311 17.4515 2.44391 17.1177 2.44472 16.7842V16.7842V16.7842V16.7842C2.44713 15.7856 2.44953 14.7906 2.43025 13.7883C2.43025 13.4344 2.49454 13.2902 2.88029 13.3033C3.56179 13.3295 4.25615 13.3557 4.93765 13.3033C6.40351 13.1853 7.62506 12.6479 8.25513 11.1405C8.44611 10.6862 8.49842 10.2063 8.54936 9.73876L8.55087 9.72487C8.73089 8.4272 8.6666 7.10331 8.06225 5.9105ZM4.38473 10.9439C4.10778 10.9651 3.83083 10.9596 3.55388 10.9542C3.31649 10.9496 3.07911 10.9449 2.84172 10.957C2.48168 10.9832 2.43025 10.8259 2.43025 10.5113C2.44311 9.39718 2.45597 8.28301 2.43025 7.16885C2.41739 6.69697 2.55883 6.55278 2.99602 6.61832C3.14738 6.63547 3.30424 6.63019 3.4738 6.62448H3.47381H3.47382H3.47382C3.56353 6.62146 3.65679 6.61832 3.75467 6.61832C3.87264 6.62584 3.99378 6.62689 4.11748 6.62796C4.42525 6.63063 4.7489 6.63344 5.07909 6.73629C5.74773 6.95912 5.96632 7.45722 6.03062 8.07329C6.05139 8.27097 6.04606 8.47246 6.04073 8.67365V8.67366C6.03617 8.846 6.03161 9.01812 6.04347 9.18745C6.12063 10.354 5.43913 10.8652 4.38473 10.9439ZM76.7135 13.8406C76.921 13.8039 77.1348 13.8122 77.3461 13.8205C77.436 13.824 77.5254 13.8275 77.6136 13.8275C77.8189 13.8275 78.0256 13.8261 78.2327 13.8246C78.6485 13.8217 79.0662 13.8188 79.4781 13.8275C79.8896 13.8406 80.211 13.6571 80.2239 13.2508C80.2288 13.0421 80.2374 12.8325 80.2459 12.6226L80.246 12.6216V12.6216C80.2827 11.7241 80.3196 10.8209 80.0696 9.96072C79.8896 9.33155 79.6324 8.72859 79.0409 8.29603C78.1537 7.62754 77.1764 7.47024 76.1349 7.54889C74.3733 7.66686 73.0874 8.93832 73.0489 10.6817C72.9974 12.3988 72.9974 14.129 73.0489 15.8592C73.0874 17.0389 73.6532 17.9434 74.669 18.5594C75.5117 19.0774 76.4379 19.0109 77.3327 18.9468L77.4336 18.9396C78.7066 18.8478 79.941 17.7205 80.0696 16.4622C80.0788 16.3677 80.0886 16.2778 80.098 16.1925L80.098 16.1923C80.1939 15.3188 80.2371 14.9248 78.9252 15.0203C78.8223 15.0334 78.7066 15.0334 78.6037 15.0203C78.0637 14.9679 77.7422 15.1383 77.7808 15.7675C77.8065 16.2263 77.5108 16.5802 77.1122 16.6719L77.0734 16.6806C76.6718 16.7706 76.2257 16.8706 75.852 16.5277C75.1169 15.8644 75.2627 14.9707 75.3898 14.1921L75.3899 14.1918C75.3984 14.1398 75.4068 14.0882 75.4148 14.0373C75.4652 13.7377 75.8115 13.779 76.1711 13.8219C76.3623 13.8447 76.5573 13.8679 76.7135 13.8406ZM75.3505 11.1666C75.492 10.1573 75.8392 9.80343 76.6235 9.76411C77.4722 9.71168 77.8194 10.354 77.9094 10.9569C78.0637 12.0055 78.0251 12.0055 77.035 12.0055H76.5849H76.0706C75.2862 12.0055 75.2477 11.9531 75.3505 11.1666ZM47.7491 8.52708C48.4306 9.19557 48.6621 10.1262 48.7006 11.07C48.7174 11.5479 48.7123 12.0313 48.7067 12.5636C48.7038 12.849 48.7006 13.1485 48.7006 13.4687C48.6806 13.7786 48.6868 14.1049 48.6931 14.4419C48.7071 15.1881 48.7221 15.9862 48.4563 16.7719C47.9934 18.1351 46.8747 18.9871 45.4732 19.0002C44.5731 19.0002 43.6987 18.9609 42.8758 18.4759C41.9242 17.9123 41.5642 17.0471 41.4999 15.9985C41.4485 14.9761 41.4999 14.0061 42.3228 13.2197C42.9529 12.6167 43.7116 12.407 44.5216 12.3152C44.7741 12.2785 45.0329 12.2868 45.2892 12.2951C45.3984 12.2986 45.5071 12.3021 45.6146 12.3021C46.0212 12.3021 46.2269 12.3021 46.3247 12.1994C46.425 12.0942 46.4121 11.8812 46.3861 11.4501C46.3218 10.4015 45.8589 9.82475 45.0617 9.81164C44.4188 9.79853 44.0202 10.1262 43.9687 10.8472C43.9302 11.3977 43.5 11.4998 43.1844 11.5025C43.1039 11.5033 43.0239 11.5052 42.9452 11.5071C42.4203 11.52 41.9513 11.5314 41.7699 11.1617C41.397 10.4015 41.7442 9.64124 42.13 9.01207C43.3001 7.13765 46.3218 7.13765 47.7491 8.52708ZM46.2266 15.8044C46.2965 15.5451 46.3627 15.2998 46.3861 14.9892C46.3946 14.9023 46.3919 14.8096 46.389 14.7149C46.3876 14.6669 46.3861 14.6183 46.3861 14.5698C46.4118 14.1896 46.1418 14.1241 45.6918 14.1241H45.1774C44.2002 14.1241 43.8016 14.5173 43.8016 15.5004C43.8016 16.2214 44.0973 16.6539 44.6374 16.7457C45.486 16.8899 46.0261 16.6146 46.2061 15.8806C46.2129 15.855 46.2198 15.8296 46.2266 15.8044Z" fill="#333333"/>
<g clip-path="url(#clip0)">
<path d="M96.5202 16.4557C96.7704 16.4557 96.9732 16.2529 96.9732 16.0027C96.9732 15.7525 96.7704 15.5497 96.5202 15.5497H90.7482C90.4981 15.5497 90.2952 15.7525 90.2952 16.0027C90.2952 16.2529 90.4981 16.4557 90.7482 16.4557H96.5202ZM89.4667 11.7457L90.9907 13.2697L90.9102 13.5828C90.856 13.7939 90.9178 14.018 91.0726 14.1715C91.3127 14.4094 91.6998 14.4085 91.9388 14.1696L95.3874 10.721C95.6267 10.4817 95.6267 10.0937 95.3874 9.85441C95.2355 9.70254 95.0152 9.64127 94.8068 9.69291L94.4887 9.7717L90.7567 6.0397L90.8426 5.78696C90.915 5.57404 90.8612 5.33849 90.7036 5.17808C90.4717 4.9421 90.0919 4.94043 89.858 5.17437L86.3733 8.65909C86.1486 8.88372 86.1454 9.24689 86.3659 9.47554C86.5226 9.638 86.7591 9.69532 86.9728 9.62266L87.2227 9.5377L88.7887 11.1037L85.8858 14.0282C85.7086 14.2067 85.7072 14.4941 85.8825 14.6744C86.0618 14.8588 86.3574 14.8607 86.5391 14.6786L89.4667 11.7457Z" fill="#B28BD9"/>
</g>
<defs>
<clipPath id="clip0">
<rect width="12" height="12" fill="white" transform="translate(85.2695 5)"/>
</clipPath>
</defs>
</svg>
