<svg width="121" height="24" viewBox="0 0 121 24" fill="none" xmlns="http://www.w3.org/2000/svg">
<g clip-path="url(#clip0)">
<path d="M0.0078125 17.5V6.51981H2.61038V17.5H0.0078125ZM51.7629 17.4824C51.8663 17.4555 51.9668 17.4274 52.0658 17.3988L52.1335 17.3779C52.2127 17.3543 52.2885 17.3295 52.3639 17.3058C52.3969 17.2954 52.4284 17.2838 52.4608 17.2723C52.5235 17.251 52.5858 17.229 52.6478 17.2063L52.7463 17.1694C52.8046 17.1469 52.8618 17.1249 52.9185 17.1018L53.0114 17.0633C53.0664 17.0396 53.1213 17.0149 53.1763 16.9901L53.2576 16.9533C53.3165 16.9258 53.3737 16.8983 53.4309 16.8692L53.4899 16.8395C53.6428 16.7614 53.7873 16.6789 53.9231 16.5958L53.9371 16.587C53.9987 16.5485 54.0579 16.5095 54.1162 16.4715L54.156 16.4434C54.2055 16.4099 54.2521 16.3758 54.2983 16.3423L54.3418 16.3109C54.3852 16.2774 54.4286 16.2438 54.4704 16.2097C54.4831 16.2003 54.4957 16.1904 54.5078 16.1795C54.5518 16.1442 54.593 16.1085 54.6348 16.0728L54.6614 16.0491C54.7098 16.0068 54.7549 15.9644 54.7989 15.9215L54.8026 15.9182C54.9374 15.7892 55.0633 15.6512 55.1794 15.5051C55.2141 15.4611 55.2477 15.4177 55.2796 15.3743L55.286 15.3649C55.3163 15.3225 55.3455 15.2807 55.3736 15.2389C55.3755 15.2369 55.377 15.2348 55.3784 15.2324C55.5351 15.0014 55.6644 14.753 55.7635 14.4921C55.7634 14.4906 55.7634 14.4891 55.7635 14.4877C55.7767 14.4536 55.7882 14.4194 55.7998 14.3864C55.8001 14.3835 55.8001 14.3806 55.7998 14.3776C55.8108 14.3463 55.8208 14.315 55.8285 14.2858C55.8285 14.282 55.8284 14.2787 55.8323 14.2754C55.8411 14.2457 55.8488 14.2203 55.8559 14.189C55.8559 14.189 55.8559 14.1835 55.8559 14.1808C55.8631 14.1527 55.8708 14.1257 55.8769 14.0999C55.8772 14.0977 55.8772 14.0955 55.8769 14.0933C55.9153 13.9478 55.9349 13.7978 55.9351 13.6472V10.3577L55.9241 9.91769C55.9241 9.84949 55.9175 9.78019 55.9126 9.72739C55.9076 9.66414 55.9009 9.59539 55.8943 9.53709V9.52114C55.8872 9.45019 55.8779 9.3754 55.8658 9.30445C55.8651 9.29612 55.8639 9.28786 55.8621 9.27971L55.8197 9.04704L55.8129 9.02008C55.8052 8.98213 55.7959 8.94366 55.7882 8.91011C55.7859 8.89656 55.7827 8.88316 55.7788 8.86996L55.7458 8.7429C55.7348 8.70605 55.7243 8.66919 55.7122 8.63289L55.6905 8.56139L55.6628 8.48056C55.6579 8.46626 55.6519 8.4503 55.648 8.44095C55.637 8.41015 55.6266 8.3799 55.615 8.3491L55.5968 8.30455C55.5819 8.26605 55.5659 8.2281 55.5516 8.1973C55.5456 8.1819 55.5398 8.16705 55.5299 8.1456L55.4681 8.01579C55.4505 7.97949 55.4318 7.94376 55.4131 7.90911L55.3835 7.85409C55.3654 7.82274 55.3483 7.79139 55.3285 7.75674L55.2981 7.71001C55.28 7.67921 55.2602 7.64896 55.2398 7.61816L55.2087 7.57361C55.1839 7.53621 55.1564 7.49991 55.1305 7.46361C55.119 7.44931 55.1074 7.43555 55.0997 7.4251C55.0777 7.3954 55.054 7.37009 55.0325 7.34259C55.0219 7.32845 55.0103 7.31504 54.9979 7.30244C54.9676 7.26614 54.9356 7.23148 54.8988 7.19243C54.8872 7.17978 54.8759 7.16769 54.8655 7.15779C54.8369 7.12754 54.8066 7.09894 54.7752 7.07034C54.7642 7.05989 54.7521 7.04889 54.7438 7.04174C54.7092 7.00984 54.6729 6.9796 54.6377 6.9499L54.5942 6.91525C54.5541 6.8839 54.5138 6.85309 54.472 6.82284C54.4605 6.81404 54.4484 6.80636 54.4385 6.80031C54.4016 6.77501 54.3636 6.75024 54.3141 6.71944L54.2841 6.70021C54.2373 6.67216 54.1888 6.6452 54.1393 6.6188L54.0963 6.59681C54.0507 6.57426 54.0047 6.55224 53.9492 6.52639L53.9277 6.51652H53.9226C56.3426 6.70352 58.2458 8.37605 58.2458 10.4044V13.5757C58.2458 15.7301 56.1007 17.4808 53.4695 17.4808L51.7629 17.4824ZM46.6445 17.4824C44.2795 17.4824 42.3546 15.7295 42.3546 13.5774V11.0315V11.0166C42.3546 11.0083 42.3583 10.9979 42.361 10.9863L42.3651 10.9688C42.3695 10.9528 42.3748 10.9347 42.3825 10.9138L42.3863 10.9011C42.394 10.8764 42.4044 10.8461 42.4204 10.807C42.4363 10.768 42.4508 10.7333 42.4728 10.6882C42.4909 10.6514 42.5112 10.6112 42.5343 10.5722L42.5493 10.5469C42.5718 10.5089 42.5971 10.4682 42.6218 10.4303L42.6559 10.383C42.6834 10.345 42.711 10.3066 42.7424 10.2692L42.7655 10.24L42.7862 10.2153C42.8495 10.1431 42.9168 10.0744 42.9876 10.0095L43.0128 9.98701C43.0711 9.93201 43.1383 9.877 43.2059 9.82585L43.2301 9.80769C43.3621 9.71032 43.5006 9.62212 43.6447 9.5437L43.6861 9.52225C43.7928 9.46725 43.8999 9.41225 44.0121 9.36605L44.0255 9.36054C44.0805 9.33579 44.1431 9.31216 44.2041 9.28961C44.2294 9.28026 44.2542 9.27146 44.2823 9.26266C44.3862 9.22526 44.4968 9.18951 44.6123 9.15651L44.7173 9.12734L44.7772 9.11086C44.7959 9.10481 44.8157 9.09876 44.8371 9.09326L45.3014 8.98601C45.1028 9.1528 44.9428 9.36098 44.8331 9.59603C44.7233 9.83108 44.6663 10.0873 44.666 10.3467V13.6516C44.6733 14.1365 44.8728 14.5986 45.2203 14.9367C45.5679 15.2748 46.0353 15.4613 46.5201 15.4551H54.091C54.4267 15.4559 54.7565 15.3668 55.0462 15.1971C54.3934 16.0931 53.0317 17.1172 50.1932 17.4885L46.6445 17.4824ZM59.9968 17.4763V6.51816H68.1138C69.0117 6.46784 69.9072 6.65226 70.7121 7.05329C71.1045 7.30867 71.4206 7.66537 71.6271 8.08565C71.8335 8.50592 71.9224 8.97415 71.8846 9.44084C71.899 9.89934 71.8542 10.3578 71.7514 10.8049C71.6745 11.0924 71.5333 11.3587 71.3384 11.5836C72.0594 12.0385 72.4252 12.8833 72.4252 14.1015C72.4252 15.2939 72.12 16.1662 71.5188 16.6942C70.732 17.2742 69.7627 17.5517 68.7882 17.4758L59.9968 17.4763ZM62.5515 15.1834H68.5642C69.5036 15.1834 69.8841 14.8358 69.8841 13.9844C69.8841 13.4492 69.7191 12.9025 68.4871 12.9025H62.5472L62.5515 15.1834ZM62.5515 10.6102H68.1439C69.201 10.6102 69.3468 10.1883 69.3468 9.73014C69.3468 9.24339 69.1983 8.79514 68.1286 8.79514H62.5515V10.6102ZM74.4106 17.4758V6.53082H77.0078V17.4758H74.4106ZM38.0948 17.4758V10.9693C38.1121 10.6705 38.0633 10.3716 37.9519 10.0938C37.8405 9.81598 37.6693 9.56618 37.4502 9.36219C36.9464 8.95482 36.3098 8.74815 35.6627 8.78194H33.4627C32.8159 8.74792 32.1793 8.95462 31.6758 9.36219C31.4552 9.565 31.2828 9.81458 31.1712 10.0927C31.0595 10.3707 31.0113 10.6703 31.0304 10.9693V17.4758H28.4765V10.9693C28.4938 10.6705 28.445 10.3716 28.3336 10.0938C28.2222 9.81598 28.0507 9.56618 27.8317 9.36219C27.3277 8.95478 26.6908 8.74812 26.0437 8.78194H23.8437C23.1968 8.74792 22.5602 8.95462 22.0567 9.36219C21.836 9.56488 21.6634 9.81445 21.5518 10.0926C21.4402 10.3707 21.3923 10.6702 21.4116 10.9693V17.4758H18.8585V11.1893C18.8184 10.5487 18.9172 9.90697 19.1477 9.30794C19.3783 8.70892 19.7353 8.1667 20.1945 7.71826C21.2158 6.87217 22.519 6.44348 23.8431 6.51816H26.0431C27.3674 6.44312 28.6712 6.87185 29.6925 7.71826C29.714 7.73751 29.732 7.75951 29.7524 7.77986C29.7733 7.76006 29.7914 7.73751 29.8134 7.71826C30.8344 6.87226 32.1378 6.44356 33.4617 6.51816H35.6617C36.9858 6.4432 38.2892 6.87193 39.3103 7.71826C39.7696 8.16664 40.1268 8.70883 40.3573 9.30787C40.5879 9.90692 40.6865 10.5487 40.6463 11.1893V17.4758H38.0948ZM14.2842 17.4758V10.9693C14.3015 10.6705 14.2527 10.3716 14.1413 10.0938C14.0299 9.81598 13.8587 9.56618 13.6396 9.36219C13.1359 8.95477 12.4992 8.7481 11.8521 8.78194H9.65215C9.00543 8.7479 8.369 8.95461 7.86572 9.36219C7.64522 9.56503 7.47291 9.81465 7.36138 10.0927C7.24984 10.3708 7.20197 10.6703 7.22119 10.9693V17.4758H4.66697V11.1893C4.62719 10.5487 4.72583 9.907 4.95647 9.30801C5.18711 8.70901 5.54415 8.16679 6.0033 7.71826C7.02453 6.87217 8.32806 6.44348 9.65215 6.51816H11.8521C13.1764 6.44323 14.4799 6.87195 15.5013 7.71826C15.9605 8.16672 16.3179 8.7089 16.5486 9.30791C16.7794 9.90691 16.8781 10.5486 16.8384 11.1893V17.4758H14.2842ZM46.6644 6.5H52.2863C52.3666 6.5 52.4438 6.50001 52.5197 6.50551H52.536L52.6209 6.51155C52.6638 6.51155 52.705 6.51759 52.7474 6.52199C52.8024 6.52694 52.8541 6.53191 52.9058 6.53961H52.9249C52.9799 6.54786 53.0311 6.55611 53.0828 6.56546L53.1379 6.57701C53.6193 6.66129 54.0708 6.86806 54.4492 7.17746C54.8276 7.48687 55.1199 7.88847 55.2981 8.34359C55.2981 8.34359 55.2981 8.34801 55.2981 8.35021C55.3297 8.42574 55.3586 8.50127 55.3846 8.5768L55.4276 8.7088C55.4457 8.7638 55.4611 8.81879 55.4754 8.87379L55.4901 8.93321C55.5039 8.98821 55.5159 9.04319 55.5275 9.09434L55.553 9.23295C55.3769 9.01368 55.1536 8.83688 54.8999 8.71568C54.6461 8.59447 54.3684 8.53196 54.0872 8.53279H46.5212C46.4563 8.53279 46.3909 8.53666 46.3354 8.54216H46.3155L46.2607 8.54598H46.2481L46.1458 8.55424H46.1227H46.106H46.0929H46.0598C46.0048 8.55974 45.9499 8.5669 45.8861 8.57405H45.8667C45.8051 8.5823 45.7392 8.59055 45.6694 8.601H45.6594L45.6253 8.60594L45.6022 8.60926H45.5979C45.5182 8.62191 45.4329 8.63621 45.3482 8.65216C45.1656 8.68626 44.9692 8.72861 44.7657 8.78251C44.7387 8.78911 44.7152 8.79679 44.691 8.80339C44.6668 8.80999 44.6589 8.81329 44.6413 8.81769C44.6028 8.82759 44.5649 8.83915 44.528 8.84905C44.4087 8.8837 44.2915 8.9211 44.1826 8.95905L44.0991 8.98766C44.0364 9.01241 43.9737 9.03605 43.9154 9.0608L43.9023 9.06685C43.7791 9.11855 43.6619 9.17684 43.547 9.23624L43.4919 9.26484C43.334 9.35065 43.1824 9.44792 43.0386 9.55582L43.026 9.56461C42.999 9.58551 42.9745 9.60586 42.9486 9.62621C42.8991 9.66691 42.85 9.70705 42.8066 9.7472L42.7792 9.77194C42.6992 9.84499 42.6234 9.92269 42.5525 10.0046L42.5367 10.0238C42.5295 10.0332 42.5222 10.042 42.5079 10.0612C42.4733 10.1036 42.4418 10.1454 42.4088 10.1894L42.3737 10.2411C42.3682 10.2499 42.3617 10.2592 42.3562 10.2669C42.4233 8.18905 44.3302 6.5 46.6644 6.5Z" fill="#333333"/>
<g clip-path="url(#clip1)">
<path d="M93.2585 16.4557C93.5087 16.4557 93.7115 16.2529 93.7115 16.0027C93.7115 15.7525 93.5087 15.5497 93.2585 15.5497H87.4865C87.2363 15.5497 87.0335 15.7525 87.0335 16.0027C87.0335 16.2529 87.2363 16.4557 87.4865 16.4557H93.2585ZM86.205 11.7457L87.729 13.2697L87.6485 13.5828C87.5943 13.7939 87.6561 14.018 87.8109 14.1715C88.0509 14.4094 88.4381 14.4085 88.6771 14.1696L92.1257 10.721C92.365 10.4817 92.365 10.0937 92.1257 9.85441C91.9738 9.70254 91.7535 9.64127 91.545 9.69291L91.227 9.7717L87.495 6.0397L87.5809 5.78696C87.6533 5.57404 87.5995 5.33849 87.4419 5.17807C87.21 4.9421 86.8302 4.94043 86.5963 5.17437L83.1116 8.65908C82.8869 8.88372 82.8837 9.24689 83.1042 9.47553C83.2609 9.63799 83.4974 9.69532 83.7111 9.62265L83.9609 9.5377L85.527 11.1037L82.624 14.0282C82.4469 14.2067 82.4455 14.4941 82.6208 14.6744C82.8001 14.8588 83.0957 14.8607 83.2774 14.6786L86.205 11.7457Z" fill="#B28BD9"/>
</g>
</g>
<defs>
<clipPath id="clip0">
<rect width="120" height="24" fill="white" transform="translate(0.0078125)"/>
</clipPath>
<clipPath id="clip1">
<rect width="12" height="12" fill="white" transform="translate(82.0078 5)"/>
</clipPath>
</defs>
</svg>
