<svg width="160" height="24" viewBox="0 0 160 24" fill="none" xmlns="http://www.w3.org/2000/svg">
<path d="M75.7225 11.7479C75.525 12.0504 75.3276 12.3529 75.2289 12.8571H77.9932C77.8944 12.3529 77.7957 12.0504 77.5983 11.7479C77.4008 11.4454 77.0059 11.3445 76.7097 11.3445C76.3148 11.3445 75.9199 11.4454 75.7225 11.7479ZM74.9327 17.5966C74.4391 17.395 73.9454 17.0924 73.5505 16.6891C73.1556 16.2857 72.8594 15.8824 72.662 15.2773C72.4645 14.7731 72.3658 14.1681 72.3658 13.563C72.3658 12.958 72.4645 12.3529 72.662 11.8487C72.8594 11.3445 73.1556 10.8403 73.5505 10.437C73.9454 10.0336 74.3403 9.73109 74.9327 9.52941C75.525 9.32773 76.0187 9.22689 76.611 9.22689C77.2034 9.22689 77.7957 9.32773 78.2894 9.52941C78.783 9.73109 79.1779 10.0336 79.5728 10.3361C80.0664 10.8403 80.4613 11.3445 80.6588 12.0504C80.8562 12.7563 80.9549 13.4622 80.9549 14.2689H75.2289C75.3276 14.7731 75.525 15.0756 75.7225 15.3782C76.0187 15.6807 76.3148 15.7815 76.8085 15.7815C77.3021 15.7815 77.697 15.5798 77.8944 15.1765H80.7575C80.6588 15.5798 80.4613 15.8824 80.2639 16.2857C80.0664 16.6891 79.6715 16.8908 79.2766 17.1933C78.8817 17.395 78.4868 17.5966 78.0919 17.6975C77.5983 17.7983 77.2034 17.8992 76.7097 17.8992C76.0187 18 75.4263 17.8992 74.9327 17.5966ZM66.2448 17.6975C65.7512 17.4958 65.2576 17.1933 64.8627 16.7899C64.4678 16.3866 64.1716 15.9832 63.9741 15.3782C63.7767 14.8739 63.678 14.2689 63.678 13.6639C63.678 13.0588 63.7767 12.4538 63.9741 11.9496C64.1716 11.4454 64.4678 10.9412 64.8627 10.5378C65.2576 10.1345 65.7512 9.83193 66.2448 9.63025C66.8372 9.42857 67.4295 9.32773 68.0219 9.32773C68.6142 9.32773 69.1079 9.42857 69.6015 9.52941C70.0951 9.73109 70.49 9.93277 70.7862 10.2353C71.0824 10.5378 71.3786 10.8403 71.576 11.2437C71.7735 11.6471 71.8722 12.0504 71.9709 12.5546H69.1079C69.0091 12.1513 68.9104 11.8487 68.713 11.6471C68.5155 11.4454 68.3181 11.3445 67.9232 11.3445C67.4295 11.3445 67.1334 11.5462 66.9359 11.9496C66.7385 12.3529 66.6397 12.8571 66.6397 13.563C66.6397 14.2689 66.7385 14.7731 66.9359 15.1765C67.1334 15.5798 67.5283 15.7815 67.9232 15.7815C68.3181 15.7815 68.5155 15.6807 68.713 15.3782C68.9104 15.1765 69.0092 14.7731 69.0092 14.2689H71.8722C71.8722 15.2773 71.4773 16.1849 70.7862 16.7899C70.3913 17.0924 69.9964 17.395 69.5028 17.4958C69.0092 17.6975 68.4168 17.7983 67.8244 17.7983C67.3308 18 66.7385 17.8992 66.2448 17.6975ZM60.42 10.8403C60.7162 10.3361 61.1111 9.93277 61.506 9.73109C61.9009 9.52941 62.3945 9.42857 62.8882 9.42857C63.0856 9.42857 63.2831 9.42857 63.3818 9.52941V12.1513H63.2831C62.3945 12.0504 61.7035 12.1513 61.2098 12.5546C60.7162 12.958 60.5188 13.563 60.5188 14.5714V17.8992H57.557V9.73109H60.42V10.8403ZM53.7067 16.6891C53.4105 17.0924 53.0156 17.395 52.6207 17.6975C52.2258 17.8992 51.7322 18 51.1398 18C50.6462 18 50.2513 17.8992 49.8564 17.7983C49.5602 17.6975 49.1653 17.395 48.9679 17.1933C48.7704 16.8908 48.573 16.5882 48.4742 16.1849C48.3755 15.7815 48.2768 15.3782 48.2768 14.8739V9.63025H51.2386V14.1681C51.2386 15.0756 51.6335 15.479 52.3245 15.479C52.7194 15.479 53.0156 15.3782 53.2131 15.0756C53.4105 14.7731 53.5092 14.4706 53.5092 14.0672V9.63025H56.471V17.7983H53.608C53.7067 17.6975 53.7067 16.6891 53.7067 16.6891ZM44.229 15.2773C44.4265 14.8739 44.5252 14.2689 44.6239 13.563C44.6239 12.8571 44.5252 12.3529 44.3278 11.8487C44.1303 11.4454 43.7354 11.2437 43.3405 11.2437C42.8469 11.2437 42.5507 11.4454 42.3533 11.8487C42.1558 12.2521 42.0571 12.8571 42.0571 13.563C42.0571 14.2689 42.1558 14.7731 42.3533 15.2773C42.5507 15.6807 42.9456 15.8824 43.3405 15.8824C43.6367 15.9832 44.0316 15.6807 44.229 15.2773ZM41.4647 17.5966C40.9711 17.395 40.4775 17.0924 40.0826 16.6891C39.6877 16.2857 39.3915 15.8824 39.194 15.2773C38.9966 14.7731 38.8979 14.1681 38.8979 13.563C38.8979 12.958 38.9966 12.3529 39.194 11.8487C39.3915 11.3445 39.6877 10.8403 40.0826 10.437C40.4775 10.0336 40.9711 9.73109 41.4647 9.52941C41.9584 9.32773 42.6494 9.22689 43.2418 9.22689C43.9329 9.22689 44.5252 9.32773 45.0188 9.52941C45.5125 9.73109 46.0061 10.0336 46.401 10.437C46.7959 10.8403 47.0921 11.2437 47.2895 11.8487C47.487 12.3529 47.5857 12.958 47.5857 13.563C47.5857 14.1681 47.487 14.7731 47.2895 15.2773C47.0921 15.7815 46.7959 16.2857 46.401 16.6891C46.0061 17.0924 45.6112 17.395 45.0188 17.5966C44.5252 17.7983 43.8341 17.8992 43.2418 17.8992C42.5507 18 41.9584 17.7983 41.4647 17.5966ZM31.4934 17.6975C30.9011 17.5966 30.4075 17.2941 29.9138 16.9916C29.4202 16.6891 29.124 16.2857 28.8279 15.7815C28.5317 15.2773 28.433 14.6723 28.433 14.0672H31.7896C31.8883 14.5714 31.9871 14.874 32.382 15.0756C32.6782 15.2773 33.1718 15.3782 33.6654 15.3782C33.8629 15.3782 33.9616 15.3782 34.159 15.3782C34.3565 15.3782 34.4552 15.2773 34.6527 15.1765C34.7514 15.0756 34.8501 14.9748 34.9488 14.8739C35.0476 14.7731 35.0476 14.5714 35.0476 14.4706C35.0476 14.2689 35.0476 14.1681 34.9488 14.0672C34.8501 13.9664 34.6527 13.8655 34.5539 13.7647C34.3565 13.6639 34.159 13.563 33.8629 13.563C33.5667 13.4622 33.2705 13.3613 32.9743 13.3613C32.4807 13.2605 31.9871 13.0588 31.4934 12.958C30.9998 12.8571 30.6049 12.5546 30.1113 12.3529C29.7164 12.0504 29.4202 11.7479 29.124 11.3445C28.8279 10.9412 28.7291 10.437 28.7291 9.83193C28.7291 9.22689 28.8279 8.62185 29.124 8.21849C29.3215 7.81513 29.7164 7.41176 30.1113 7.10924C30.6049 6.60504 31.0985 6.40336 31.5922 6.20168C32.1845 6.10084 32.7769 6 33.3692 6C33.9616 6 34.4552 6.10084 35.0476 6.20168C35.5412 6.30252 36.0348 6.5042 36.4297 6.80672C36.8246 7.10924 37.2195 7.41176 37.417 7.91597C37.7132 8.31933 37.8119 8.92437 37.8119 9.52941H34.5539C34.5539 9.22689 34.3565 8.92437 34.159 8.82353C33.9616 8.62185 33.5667 8.52101 33.1718 8.52101C32.7769 8.52101 32.4807 8.62185 32.2832 8.72269C32.0858 8.82353 31.9871 9.02521 31.9871 9.32773C31.9871 9.52941 32.0858 9.63025 32.1845 9.73109C32.382 9.83193 32.4807 9.93277 32.6781 10.0336C32.8756 10.1345 33.1718 10.2353 33.468 10.2353C33.7641 10.3361 34.159 10.437 34.5539 10.5378C35.0476 10.6387 35.4425 10.8403 35.9361 10.9412C36.4297 11.1429 36.8246 11.3445 37.1208 11.6471C37.5157 11.9496 37.7132 12.2521 38.0093 12.6555C38.2068 13.0588 38.3055 13.563 38.3055 14.1681C38.3055 14.7731 38.2068 15.3782 37.9106 15.7815C37.6144 16.2857 37.3183 16.6891 36.8246 16.9916C36.331 17.2941 35.8374 17.5966 35.245 17.6975C34.6527 17.8992 34.0603 17.8992 33.3692 17.8992C32.8756 18 32.1845 17.8992 31.4934 17.6975ZM22.5094 10.6387C22.8056 10.2353 23.2005 9.83193 23.5954 9.63025C23.9903 9.42857 24.4839 9.32773 25.0763 9.32773C25.9648 9.32773 26.6559 9.63025 27.1495 10.2353C27.6432 10.8403 27.8406 11.5462 27.8406 12.5546V17.7983H24.8788V13.2605C24.8788 12.8571 24.7801 12.4538 24.5827 12.2521C24.3852 11.9496 24.089 11.8487 23.6941 11.8487C23.2992 11.8487 23.0031 11.9496 22.8056 12.2521C22.6081 12.5546 22.5094 12.958 22.5094 13.3613V17.7983H19.5477V9.63025H22.4107L22.5094 10.6387ZM15.4999 15.2773C15.6974 14.8739 15.7961 14.2689 15.8948 13.563C15.8948 12.8571 15.7961 12.3529 15.5986 11.8487C15.4012 11.4454 15.0063 11.2437 14.6114 11.2437C14.1178 11.2437 13.8216 11.4454 13.6241 11.8487C13.4267 12.2521 13.3279 12.8571 13.3279 13.563C13.3279 14.2689 13.4267 14.7731 13.6241 15.2773C13.8216 15.6807 14.2165 15.8824 14.6114 15.8824C14.9076 15.8824 15.3025 15.6807 15.4999 15.2773ZM12.7356 17.5966C12.242 17.395 11.7483 17.0924 11.3534 16.6891C10.9585 16.2857 10.6624 15.8824 10.4649 15.2773C10.2675 14.7731 10.1687 14.1681 10.1687 13.563C10.1687 12.958 10.2675 12.3529 10.4649 11.8487C10.6624 11.3445 10.9585 10.8403 11.3534 10.437C11.7483 10.0336 12.242 9.73109 12.7356 9.52941C13.2292 9.32773 13.9203 9.22689 14.5127 9.22689C15.2037 9.22689 15.7961 9.32773 16.2897 9.52941C16.7833 9.73109 17.277 10.0336 17.6719 10.437C18.0668 10.8403 18.363 11.2437 18.5604 11.8487C18.7579 12.3529 18.8566 12.958 18.8566 13.563C18.8566 14.1681 18.7579 14.7731 18.5604 15.2773C18.363 15.7815 18.0668 16.2857 17.6719 16.6891C17.277 17.0924 16.7833 17.395 16.2897 17.5966C15.7961 17.7983 15.105 17.8992 14.5127 17.8992C13.8216 17.8992 13.2292 17.7983 12.7356 17.5966ZM6.91079 10.7395C7.20696 10.2353 7.60187 9.83193 7.99677 9.63025C8.39167 9.42857 8.8853 9.32773 9.37893 9.32773C9.57638 9.32773 9.77383 9.32773 9.87255 9.42857V12.0504H9.77383C8.8853 11.9496 8.19422 12.0504 7.70059 12.4538C7.20696 12.8571 7.00951 13.4622 7.00951 14.4706V17.7983H4.04775V9.63025H6.91079V10.7395ZM2.96177 9.52941V17.6975H0V9.52941C0.0987255 9.42857 2.96177 9.52941 2.96177 9.52941ZM3.06049 6.20168V8.52101H0.0987242V6.20168H3.06049Z" fill="#333333"/>
</svg>
