<svg width="120" height="24" viewBox="0 0 120 24" fill="none" xmlns="http://www.w3.org/2000/svg">
  <path d="M26.5415 8.13384L26.5406 5.8283H20.1836V4.23781H29.4249C32.2403 4.33004 32.4845 4.07192 33.2001 3.31566C33.2918 3.21872 33.3913 3.11361 33.5049 3L35 3.99172C34.9304 4.07058 34.8642 4.14679 34.8003 4.22037L34.799 4.22193C33.8482 5.31677 33.404 5.8283 29.8684 5.8283H29.129L29.1299 8.13503L34.1235 8.13384L34.1226 9.94785L29.129 9.94904V12.2638H36.2982V14.2868H29.1269V17.0338C29.1758 18.8166 28.2641 20.0478 26.3918 20H24.0271V18.045H25.3577C26.1944 18.0928 26.5885 17.7313 26.54 16.9605V14.2856H19.0731V12.2626H26.5415V9.94786H20.6802L20.6811 8.13384H26.5415Z" fill="#333333"/>
  <path d="M4.51045 10.1063V19.7798H2.36588V3.22452H4.50984L4.51045 8.27501C4.86145 8.27247 5.15889 8.2732 5.50331 8.27404C5.6942 8.2745 5.90003 8.27501 6.13691 8.27501L6.13631 10.1063H4.51045Z" fill="#333333"/>
  <path fill-rule="evenodd" clip-rule="evenodd" d="M5.32383 17.5C8 16.5 8.69934 15.0807 9.09426 13.2012H5.47177V11.683H9.24311V7.05592H6.58135V5.53777H9.24311V3.22541H11.6078V5.53777H15.8951V11.683H17.226V13.2012H11.8297C12.3218 15.0807 14 16.9605 16.7091 17.5V19.7798C13.6524 18.6233 11.5823 17.1773 10.4988 15.4421C9.56224 17.3218 7.83724 18.7677 5.32383 19.7798V17.5ZM11.6069 11.683H13.6769V7.05592H11.6069V11.683Z" fill="#333333"/>
  <path d="M1.47853 12.6951C1.72469 11.3937 1.82322 9.29713 1.77411 6.4055H0.44353C0.430855 8.50906 0.282716 10.6098 0 12.6951H1.47853Z" fill="#333333"/>
  <path fill-rule="evenodd" clip-rule="evenodd" d="M39.1121 5.46573V15.8417L37.9268 15.8761V17.611C39.9968 17.4667 41.5986 17.298 42.7322 17.1049L42.7501 19.9921H44.5691L44.5806 16.6718C44.9242 16.5757 45.2198 16.5035 45.4676 16.4551C45.539 16.4206 45.6104 16.3855 45.6822 16.3502L45.7632 16.3104V14.9366C45.3637 14.977 44.9682 15.0496 44.5809 15.1536V5.6107H45.394L45.4785 3.98345H37.8995V5.46573H39.1121ZM40.628 13H42.7501L42.7322 15.4421C42.5804 15.4763 42.4185 15.5167 42.2512 15.5585C41.7116 15.6932 41.1165 15.8417 40.628 15.8417V13ZM42.7501 5.46573V8.13384H40.628V5.46573H42.7501ZM42.7322 9.5V11.6818L40.628 11.6913V9.5H42.7322Z" fill="#333333"/>
  <path d="M48.9425 10.2504V7.34556H45.7638V5.46573H46.9462C46.6585 4.79435 46.4598 4.08981 46.3547 3.36919H48.4247C48.5122 4.10222 48.7378 4.81305 49.0901 5.46573H51.0125C51.292 4.80311 51.4703 4.1039 51.5418 3.39054H53.3608C53.3508 3.45356 53.3408 3.51757 53.3308 3.58247C53.2408 4.16329 53.1398 4.81535 52.8739 5.46573H54.561V7.34526H51.1601V10.2504H55.0785V12.2611H51.2341C51.4311 14.6707 52.5 16.5 55 17.5L55.0785 19.7795C52.6142 18.6236 50.9384 17.1295 50.0511 15.2974C49.0651 17.1762 47.414 18.6702 45.0981 19.7795V17.3354C48 15.5177 48.6708 14.6229 48.8685 12.2611H45.3197V10.2504H48.9425Z" fill="#333333"/>
  <path fill-rule="evenodd" clip-rule="evenodd" d="M74.0061 19.2014V17.828H72.4536V13.2012H58.5533V17.828H57.0745V19.2014H74.0061ZM70.3075 17.828H68.4582V14.7193H70.3075V17.828ZM62.6193 14.7193V17.828H60.77V14.7193H62.6193ZM66.4637 14.7193V17.828H64.6144V14.7193H66.4637Z" fill="#333333"/>
  <path d="M70.4092 10.0202H67.4253C67.1784 11.3222 67 12 66 12.6228L64.5 11.5C65.2385 10.8743 65.4772 10.0451 65.4287 8.64641L65.4872 3.98345H73.0663L73.1199 10.3816C73.1686 11.9243 72.4048 12.6714 70.8283 12.6228H69.2019V11.3937H70.015C70.655 11.4425 70.9508 11.1533 70.9023 10.5262V10.0202V8.93575H70.8996V7.56227H70.9023V6.4055H70.8996V5.10405H67.6467V6.4055H70.4092V7.56227H67.6467V8.93575H70.4092V10.0202Z" fill="#333333"/>
  <path fill-rule="evenodd" clip-rule="evenodd" d="M61.8826 12.0444C62.2327 12.0371 62.5435 12.0296 62.821 12.0229C63.3584 12.0099 63.7708 12 64.1006 12C64.1006 11.8554 64.1027 11.6731 64.105 11.4673L64.1051 11.4653C64.1109 10.9599 64.1184 10.3126 64.1006 9.73204V3.94728H57.9646V12.0444H61.8826ZM59.9579 8.57437H61.7657V7.34526H59.9579V5.32106H62.1018V9.80318C62.0843 9.97204 62.0915 10.2627 62.0973 10.4952C62.0997 10.5921 62.1018 10.6794 62.1018 10.743L61.8757 10.743C61.6974 10.7431 61.4953 10.7432 61.2884 10.743H59.9579V8.57437Z" fill="#333333"/>
</svg>
