<svg width="200" height="24" viewBox="0 0 200 24" fill="none" xmlns="http://www.w3.org/2000/svg">
<path d="M26.5074 9.0957H22.0224C20.8407 9.0957 19.847 10.0625 19.847 11.2711V16.8841H21.1361V11.2711C21.1361 10.7877 21.539 10.4117 21.9955 10.4117H26.4806C26.964 10.4117 27.34 10.8145 27.34 11.2711V16.8841H28.6291V11.2711C28.656 10.0894 27.6891 9.0957 26.5074 9.0957Z" fill="#333333"/>
<path d="M17.8059 8.9082H16.5168V16.8846H17.8059V8.9082Z" fill="#333333"/>
<path d="M17.1614 7.94148C17.636 7.94148 18.0208 7.55671 18.0208 7.08207C18.0208 6.60743 17.636 6.22266 17.1614 6.22266C16.6867 6.22266 16.3019 6.60743 16.3019 7.08207C16.3019 7.55671 16.6867 7.94148 17.1614 7.94148Z" fill="#333333"/>
<path d="M31.5565 7.08203H30.2674V14.7093C30.2674 15.891 31.2342 16.8847 32.4428 16.8847H33.5439V15.5956H32.4428C31.9593 15.5956 31.5834 15.1927 31.5834 14.7362V10.5197H33.5439V9.23056H31.5834L31.5565 7.08203Z" fill="#333333"/>
<path d="M41.6546 9.23047H37.0621C36.4712 9.23047 35.9341 9.44532 35.5313 9.87503C35.1284 10.2779 34.8867 10.815 34.8867 11.4059V14.7361C34.8867 15.3269 35.1016 15.864 35.5313 16.2669C35.9341 16.6697 36.4712 16.9115 37.0621 16.9115H43.454V15.6223H37.0621C36.8204 15.6223 36.6055 15.5418 36.4444 15.3538C36.2832 15.1926 36.1758 14.9778 36.1758 14.7361V11.4059C36.1758 11.1641 36.2564 10.9493 36.4444 10.7882C36.6055 10.627 36.8204 10.5196 37.0621 10.5196H41.6546C42.0306 10.5196 42.326 10.815 42.326 11.191V11.7281C42.326 12.1041 42.0306 12.3995 41.6546 12.3995H37.3307V13.6887H41.6546C42.7288 13.6887 43.6151 12.8024 43.6151 11.7281V11.191C43.6151 10.1167 42.7288 9.23047 41.6546 9.23047Z" fill="#333333"/>
<path d="M68.4306 9.23047H63.3547V10.5196H68.4306C68.6723 10.5196 68.8871 10.6002 69.0483 10.7882C69.2094 10.9493 69.3169 11.1641 69.3169 11.4059V14.7361C69.3169 14.9778 69.2363 15.1926 69.0483 15.3538C68.8871 15.5149 68.6723 15.6223 68.4306 15.6223H63.8381C63.6501 15.6223 63.489 15.5418 63.3815 15.4343C63.2473 15.3001 63.1936 15.1389 63.1936 14.9778V14.4406C63.1936 14.0647 63.489 13.7692 63.865 13.7692H68.1889V12.4801H63.865C62.7907 12.4801 61.9044 13.3664 61.9044 14.4406V14.9778C61.9044 15.4881 62.1193 15.9983 62.4684 16.3743C62.8444 16.7503 63.3278 16.9383 63.865 16.9383H68.4574C69.0483 16.9383 69.5854 16.7235 69.9883 16.2938C70.3911 15.8909 70.6328 15.3538 70.6328 14.7629V11.4327C70.6328 10.8419 70.418 10.3047 69.9883 9.90188C69.5317 9.47218 68.9946 9.23047 68.4306 9.23047Z" fill="#333333"/>
<path d="M57.8222 9.23047C57.2314 9.23047 56.6943 9.44532 56.2914 9.87503C55.8886 10.2779 55.6469 10.815 55.6469 11.4059V16.9115H56.936V11.4059C56.936 11.1641 57.0165 10.9493 57.2045 10.7882C57.3657 10.627 57.5805 10.5196 57.8222 10.5196H61.2867V9.23047H57.8222Z" fill="#333333"/>
<path d="M51.6989 9.23047H47.1065C46.0322 9.23047 45.1459 10.1167 45.1459 11.191V14.9241C45.1459 15.9983 46.0322 16.8846 47.1065 16.8846H51.4304V15.5955H47.1065C46.7305 15.5955 46.435 15.3001 46.435 14.9241V11.191C46.435 10.815 46.7305 10.5196 47.1065 10.5196H51.6989C51.9406 10.5196 52.1555 10.6002 52.3166 10.7882C52.4778 10.9493 52.5852 11.1641 52.5852 11.4059V17.8514C52.5852 18.0931 52.5046 18.308 52.3166 18.4691C52.1555 18.6303 51.9406 18.7108 51.6989 18.7108H45.3071V20H51.6989C52.2898 20 52.8269 19.7851 53.2298 19.3554C53.6326 18.9526 53.8743 18.4154 53.8743 17.8246V11.4059C53.8743 10.815 53.6595 10.2779 53.2298 9.87503C52.8269 9.47218 52.2629 9.23047 51.6989 9.23047Z" fill="#333333"/>
<path d="M11.8169 3H11.5483L6.87529 7.67305L2.2291 3H1.96053C0.993694 3 0 3.8057 0 5.17538V16.9117H1.28912V5.14853C1.28912 4.71882 1.47711 4.4234 1.71882 4.31597L6.87529 9.47244L12.0318 4.31597C12.2735 4.4234 12.4615 4.69196 12.4615 5.14853V16.8849H13.7506V5.14853C13.7774 3.8057 12.7837 3 11.8169 3Z" fill="#333333"/>
<path d="M73.3991 3.2959H72.1099V16.8853H73.3991V3.2959Z" fill="#333333"/>
</svg>
