<svg width="120" height="24" viewBox="0 0 120 24" fill="none" xmlns="http://www.w3.org/2000/svg">
<path d="M16.1023 6.37204C16.3916 6.37204 16.6609 6.44715 16.8914 6.57886C17.122 6.71058 17.3137 6.89889 17.4478 7.12529C17.5819 7.3517 17.6584 7.61619 17.6584 7.90025V16.0876C17.6584 16.3716 17.5819 16.6361 17.4478 16.8625C17.3137 17.0889 17.122 17.2772 16.8914 17.4089C16.6609 17.5407 16.3916 17.6158 16.1023 17.6158C15.8131 17.6158 15.5438 17.5407 15.3132 17.4089C15.0827 17.2772 14.891 17.0889 14.7568 16.8625C14.6227 16.6361 14.5463 16.3716 14.5463 16.0876V7.90025C14.5463 7.61619 14.6227 7.3517 14.7568 7.12529C14.891 6.89889 15.0827 6.71058 15.3132 6.57886C15.5438 6.44715 15.8131 6.37204 16.1023 6.37204ZM37.5442 9.34208V16.0734C37.5442 16.3575 37.4677 16.622 37.3336 16.8484C37.1995 17.0748 37.0077 17.2631 36.7772 17.3948C36.5467 17.5265 36.2774 17.6016 35.9881 17.6016C35.6989 17.6016 35.4296 17.5265 35.199 17.3948C34.9685 17.2631 34.7767 17.0748 34.6426 16.8484C34.5085 16.622 34.432 16.3575 34.432 16.0734V9.34208H32.0808C31.2377 9.34208 30.5543 8.67088 30.5543 7.84291C30.5543 7.01495 31.2377 6.34375 32.0808 6.34375H39.9203C40.7634 6.34375 41.4469 7.01495 41.4469 7.84291C41.4469 8.67088 40.7634 9.34208 39.9203 9.34208H37.5442ZM22.3651 6.89319C22.4059 6.93532 22.445 6.98014 22.4822 7.02763L26.2995 11.9081V7.87196C26.2995 7.5879 26.376 7.32341 26.5101 7.09701C26.6442 6.8706 26.836 6.68229 27.0665 6.55058C27.297 6.41886 27.5664 6.34375 27.8556 6.34375C28.1448 6.34375 28.4142 6.41886 28.6447 6.55058C28.8752 6.68229 29.067 6.8706 29.2011 7.09701C29.3352 7.32341 29.4117 7.5879 29.4117 7.87196V16.0593C29.4117 16.3433 29.3352 16.6078 29.2011 16.8342C29.067 17.0606 28.8752 17.2489 28.6447 17.3807C28.4142 17.5124 28.1448 17.5875 27.8556 17.5875C27.7855 17.5875 27.7166 17.5831 27.6492 17.5745C27.4278 17.5825 27.2074 17.5428 27.002 17.4576C26.757 17.3559 26.5334 17.1892 26.3548 16.9609L22.7205 12.3145V16.0593C22.7205 16.3433 22.644 16.6078 22.5099 16.8342C22.3758 17.0606 22.1841 17.2489 21.9535 17.3807C21.723 17.5124 21.4537 17.5875 21.1644 17.5875C20.8752 17.5875 20.6059 17.5124 20.3753 17.3807C20.1448 17.2489 19.9531 17.0606 19.8189 16.8342C19.6848 16.6078 19.6083 16.3433 19.6083 16.0593V7.87196C19.6083 7.5879 19.6848 7.32341 19.8189 7.09701C19.9531 6.8706 20.1448 6.68229 20.3753 6.55058C20.6059 6.41886 20.8752 6.34375 21.1644 6.34375C21.4537 6.34375 21.723 6.41886 21.9535 6.55058C22.1108 6.64041 22.2499 6.75657 22.3651 6.89319ZM9.47318 11.4005L7.4063 13.3917C7.19804 13.5924 6.95353 13.7261 6.69693 13.793C6.56175 13.8283 6.42321 13.8449 6.28485 13.843C6.1465 13.8449 6.00796 13.8283 5.87278 13.793C5.61618 13.7261 5.37166 13.5924 5.1634 13.3917L3.11217 11.4155V16.0876C3.11217 16.3716 3.03569 16.6361 2.90157 16.8625C2.76746 17.0889 2.57571 17.2772 2.34518 17.4089C2.11465 17.5407 1.84533 17.6158 1.55608 17.6158C1.26684 17.6158 0.997526 17.5407 0.766995 17.4089C0.536464 17.2772 0.344715 17.0889 0.210599 16.8625C0.0764834 16.6361 0 16.3716 0 16.0876V7.90025C0 7.61619 0.0764834 7.3517 0.210599 7.12529C0.344715 6.89889 0.536464 6.71058 0.766995 6.57886C0.98922 6.4519 1.24748 6.37752 1.5249 6.37233C1.69506 6.35937 1.86674 6.3746 2.03332 6.41802C2.28992 6.4849 2.53444 6.61867 2.7427 6.81931L6.28485 10.2319L9.82701 6.81931C10.0353 6.61867 10.2798 6.4849 10.5364 6.41802C10.7019 6.37488 10.8724 6.35957 11.0415 6.37208C11.3261 6.37417 11.5911 6.44901 11.8183 6.57886C12.0489 6.71058 12.2406 6.89889 12.3747 7.12529C12.5089 7.3517 12.5853 7.61619 12.5853 7.90025V16.0876C12.5853 16.3716 12.5089 16.6361 12.3747 16.8625C12.2406 17.0889 12.0489 17.2772 11.8183 17.4089C11.5878 17.5407 11.3185 17.6158 11.0293 17.6158C10.74 17.6158 10.4707 17.5407 10.2402 17.4089C10.0096 17.2772 9.81789 17.0889 9.68377 16.8625C9.54966 16.6361 9.47318 16.3716 9.47318 16.0876V11.4005Z" fill="#333333"/>
</svg>
