<svg width="120" height="24" viewBox="0 0 120 24" fill="none" xmlns="http://www.w3.org/2000/svg">
<path d="M26.5081 9.09607H22.023C20.8413 9.09607 19.8477 10.0629 19.8477 11.2715V16.8845H21.1368V11.2715C21.1368 10.788 21.5396 10.412 21.9962 10.412H26.4812C26.9647 10.412 27.3406 10.8149 27.3406 11.2715V16.8845H28.6298V11.2715C28.6566 10.0898 27.6898 9.09607 26.5081 9.09607Z" fill="#333333"/>
<path d="M17.8067 8.90833H16.5176V16.8847H17.8067V8.90833Z" fill="#333333"/>
<path d="M17.1621 7.94148C17.6368 7.94148 18.0216 7.55671 18.0216 7.08207C18.0216 6.60743 17.6368 6.22266 17.1621 6.22266C16.6875 6.22266 16.3027 6.60743 16.3027 7.08207C16.3027 7.55671 16.6875 7.94148 17.1621 7.94148Z" fill="#333333"/>
<path d="M31.5567 7.08209H30.2676V14.7094C30.2676 15.8911 31.2344 16.8847 32.443 16.8847H33.5441V15.5956H32.443C31.9595 15.5956 31.5836 15.1928 31.5836 14.7362V10.5197H33.5441V9.23062H31.5836L31.5567 7.08209Z" fill="#333333"/>
<path d="M41.6546 9.23077H37.0621C36.4713 9.23077 35.9341 9.44563 35.5313 9.87533C35.1284 10.2782 34.8867 10.8153 34.8867 11.4062V14.7364C34.8867 15.3272 35.1016 15.8644 35.5313 16.2672C35.9341 16.67 36.4713 16.9118 37.0621 16.9118H43.454V15.6226H37.0621C36.8204 15.6226 36.6055 15.5421 36.4444 15.3541C36.2833 15.1929 36.1758 14.9781 36.1758 14.7364V11.4062C36.1758 11.1644 36.2564 10.9496 36.4444 10.7885C36.6055 10.6273 36.8204 10.5199 37.0621 10.5199H41.6546C42.0306 10.5199 42.326 10.8153 42.326 11.1913V11.7284C42.326 12.1044 42.0306 12.3999 41.6546 12.3999H37.3307V13.689H41.6546C42.7288 13.689 43.6151 12.8027 43.6151 11.7284V11.1913C43.6151 10.117 42.7288 9.23077 41.6546 9.23077Z" fill="#333333"/>
<path d="M68.4304 9.23077H63.3546V10.5199H68.4304C68.6722 10.5199 68.887 10.6005 69.0482 10.7885C69.2093 10.9496 69.3167 11.1644 69.3167 11.4062V14.7364C69.3167 14.9781 69.2361 15.1929 69.0482 15.3541C68.887 15.5152 68.6722 15.6226 68.4304 15.6226H63.838C63.65 15.6226 63.4888 15.5421 63.3814 15.4346C63.2471 15.3004 63.1934 15.1392 63.1934 14.9781V14.441C63.1934 14.065 63.4888 13.7695 63.8648 13.7695H68.1887V12.4804H63.8648C62.7906 12.4804 61.9043 13.3667 61.9043 14.441V14.9781C61.9043 15.4884 62.1192 15.9986 62.4683 16.3746C62.8443 16.7506 63.3277 16.9386 63.8648 16.9386H68.4573C69.0481 16.9386 69.5853 16.7238 69.9881 16.2941C70.391 15.8912 70.6327 15.3541 70.6327 14.7632V11.433C70.6327 10.8422 70.4178 10.305 69.9881 9.90219C69.5316 9.47248 68.9944 9.23077 68.4304 9.23077Z" fill="#333333"/>
<path d="M57.8219 9.23077C57.231 9.23077 56.6939 9.44563 56.291 9.87533C55.8882 10.2782 55.6465 10.8153 55.6465 11.4062V16.9118H56.9356V11.4062C56.9356 11.1644 57.0162 10.9496 57.2042 10.7885C57.3653 10.6273 57.5802 10.5199 57.8219 10.5199H61.2864V9.23077H57.8219Z" fill="#333333"/>
<path d="M51.6995 9.23077H47.107C46.0327 9.23077 45.1465 10.117 45.1465 11.1913V14.9244C45.1465 15.9986 46.0327 16.8849 47.107 16.8849H51.4309V15.5958H47.107C46.731 15.5958 46.4356 15.3004 46.4356 14.9244V11.1913C46.4356 10.8153 46.731 10.5199 47.107 10.5199H51.6995C51.9412 10.5199 52.1561 10.6005 52.3172 10.7885C52.4783 10.9496 52.5858 11.1644 52.5858 11.4062V17.8517C52.5858 18.0934 52.5052 18.3083 52.3172 18.4694C52.1561 18.6306 51.9412 18.7112 51.6995 18.7112H45.3076V20.0003H51.6995C52.2903 20.0003 52.8275 19.7854 53.2303 19.3557C53.6332 18.9529 53.8749 18.4157 53.8749 17.8249V11.4062C53.8749 10.8153 53.66 10.2782 53.2303 9.87533C52.8275 9.47248 52.2635 9.23077 51.6995 9.23077Z" fill="#333333"/>
<path d="M11.8169 3H11.5483L6.87529 7.67305L2.2291 3H1.96053C0.993694 3 0 3.8057 0 5.17538V16.9117H1.28912V5.14853C1.28912 4.71882 1.47711 4.4234 1.71882 4.31597L6.87529 9.47244L12.0318 4.31597C12.2735 4.4234 12.4615 4.69196 12.4615 5.14853V16.8849H13.7506V5.14853C13.7774 3.8057 12.7837 3 11.8169 3Z" fill="#333333"/>
<path d="M73.3985 3.29565H72.1094V16.8851H73.3985V3.29565Z" fill="#333333"/>
<g clip-path="url(#clip0)">
<path d="M89.6511 16.4557C89.9013 16.4557 90.1041 16.2529 90.1041 16.0027C90.1041 15.7525 89.9013 15.5497 89.6511 15.5497H83.8791C83.6289 15.5497 83.4261 15.7525 83.4261 16.0027C83.4261 16.2529 83.6289 16.4557 83.8791 16.4557H89.6511ZM82.5975 11.7457L84.1215 13.2697L84.0411 13.5828C83.9869 13.7939 84.0487 14.018 84.2035 14.1715C84.4435 14.4094 84.8307 14.4085 85.0697 14.1696L88.5182 10.721C88.7575 10.4817 88.7575 10.0937 88.5182 9.85441C88.3664 9.70254 88.1461 9.64127 87.9376 9.69291L87.6195 9.7717L83.8875 6.0397L83.9735 5.78696C84.0459 5.57404 83.9921 5.33849 83.8345 5.17808C83.6026 4.9421 83.2228 4.94043 82.9889 5.17437L79.5041 8.65909C79.2795 8.88372 79.2762 9.24689 79.4968 9.47554C79.6535 9.638 79.8899 9.69532 80.1037 9.62266L80.3535 9.5377L81.9195 11.1037L79.0166 14.0282C78.8395 14.2067 78.838 14.4941 79.0133 14.6744C79.1927 14.8588 79.4883 14.8607 79.67 14.6786L82.5975 11.7457Z" fill="#B28BD9"/>
</g>
<defs>
<clipPath id="clip0">
<rect width="12" height="12" fill="white" transform="translate(78.4004 5)"/>
</clipPath>
</defs>
</svg>
