<svg width="200" height="24" viewBox="0 0 200 24" fill="none" xmlns="http://www.w3.org/2000/svg">
<path d="M16.1967 17.2787H13.5082V11.1148C13.5082 10.9836 13.5082 10.7869 13.4426 10.5246C13.377 10.3279 13.3115 10.0656 13.1803 9.86885C13.0492 9.67213 12.8525 9.47541 12.5902 9.34426C12.3279 9.21311 12 9.14754 11.541 9.14754C10.9508 9.14754 10.4262 9.34426 10.0328 9.67213C9.63935 10.0656 9.44262 10.5246 9.44262 11.1148V17.2787H6.7541V11.1148C6.7541 10.9836 6.7541 10.7869 6.68852 10.5246C6.62295 10.3279 6.55738 10.0656 6.42623 9.86885C6.29508 9.67213 6.09836 9.47541 5.83607 9.34426C5.57377 9.21311 5.2459 9.14754 4.78689 9.14754C4.19672 9.14754 3.67213 9.34426 3.27869 9.67213C2.88525 10.0656 2.68852 10.5246 2.68852 11.1148V17.2787H0V11.1803C0 10.5246 0.131148 9.86885 0.327869 9.34426C0.590164 8.68852 0.852459 8.22951 1.31148 7.77049C1.70492 7.37705 2.22951 6.98361 2.81967 6.78689C3.40984 6.52459 4.06557 6.45902 4.78689 6.45902C5.5082 6.45902 6.16393 6.59016 6.7541 6.85246C7.34426 7.11475 7.80328 7.5082 8.19672 7.96721C8.59016 7.5082 9.04918 7.11475 9.63934 6.85246C10.2295 6.59016 10.8197 6.45902 11.541 6.45902C12.2623 6.45902 12.918 6.59016 13.5082 6.78689C14.0984 7.04918 14.5574 7.31148 15.0164 7.77049C15.4098 8.16393 15.7377 8.68853 15.9344 9.27869C16.1311 9.86885 16.2623 10.459 16.2623 11.1803V17.2787H16.1967ZM22.2951 6.45902C23.0164 6.45902 23.7377 6.59016 24.3934 6.85246C25.0492 7.11475 25.5738 7.5082 26.0984 8.03279C26.5574 8.55738 26.9508 9.14754 27.2131 9.80328C27.4754 10.459 27.6066 11.2459 27.6066 12.0328C27.6066 12.8197 27.4754 13.541 27.2131 14.1967C26.9508 14.8525 26.5574 15.4426 26.0984 15.9672C25.5738 16.4262 24.9836 16.8197 24.3279 17.082C23.6721 17.3443 23.0164 17.4754 22.2295 17.4754C21.5082 17.4754 20.7869 17.3443 20.1311 17.082C19.4754 16.8197 18.9508 16.4262 18.4262 15.9016C17.9672 15.4426 17.5738 14.8525 17.3115 14.1311C17.0492 13.4754 16.918 12.7541 16.918 11.9672C16.918 11.1803 17.0492 10.459 17.3115 9.7377C17.5738 9.08197 17.9672 8.4918 18.4262 7.96721C18.8852 7.44262 19.4754 7.04918 20.1311 6.78689C20.8525 6.59016 21.5082 6.45902 22.2951 6.45902ZM22.2951 15.0492C22.623 15.0492 23.0164 14.9836 23.2787 14.8525C23.6066 14.7213 23.8689 14.5246 24.1311 14.2623C24.3934 14 24.5902 13.6721 24.7213 13.2787C24.8525 12.8852 24.918 12.4918 24.918 12.0328C24.918 11.5738 24.8525 11.1803 24.7213 10.7869C24.5902 10.3934 24.3934 10.0656 24.1311 9.80328C23.8689 9.54098 23.6066 9.34426 23.2787 9.14754C22.9508 9.01639 22.623 8.95082 22.2951 8.95082C21.9672 8.95082 21.5738 9.01639 21.2459 9.14754C20.918 9.27869 20.6557 9.54098 20.3934 9.80328C20.1311 10.0656 20 10.3934 19.8689 10.7869C19.7377 11.1803 19.6721 11.5738 19.6721 12.0328C19.6721 12.4918 19.7377 12.8852 19.8689 13.2787C20 13.6721 20.1967 13.9344 20.3934 14.2623C20.6557 14.5246 20.918 14.7213 21.2459 14.8525C21.5738 14.918 21.9016 15.0492 22.2951 15.0492ZM32.1967 14.6557H33.7705C34.1639 14.6557 34.4918 14.5902 34.8852 14.459C35.2131 14.3279 35.541 14.1311 35.7377 13.8689C36 13.6066 36.1967 13.3443 36.3279 13.0164C36.459 12.6885 36.5246 12.2951 36.5246 11.9016C36.5246 11.5082 36.459 11.1148 36.3279 10.7869C36.1967 10.459 36 10.1311 35.7377 9.86885C35.4754 9.60656 35.2131 9.40984 34.8852 9.27869C34.5574 9.14754 34.2295 9.08197 33.8361 9.08197C33.4426 9.08197 33.1148 9.14754 32.7869 9.34426C32.459 9.47541 32.1967 9.7377 31.9344 10C31.6721 10.2623 31.4754 10.5902 31.3443 10.918C31.2131 11.2459 31.1475 11.6393 31.1475 12.0328V22H28.459V12.0328C28.459 11.2459 28.5902 10.5246 28.8525 9.86885C29.1148 9.21311 29.5082 8.62295 29.9672 8.09836C30.4262 7.57377 31.0164 7.18033 31.6721 6.91803C32.3279 6.65574 33.0492 6.45902 33.8361 6.45902C34.6229 6.45902 35.3443 6.59016 36 6.91803C36.6557 7.18033 37.2459 7.63934 37.7049 8.09836C38.1639 8.62295 38.5574 9.14754 38.8197 9.86885C39.082 10.5246 39.2131 11.2459 39.2131 11.9672C39.2182 13.3696 38.7044 14.7243 37.7705 15.7705C37.3115 16.2295 36.7869 16.623 36.1311 16.8852C35.4754 17.1475 34.8197 17.2787 34.0984 17.2787H32.1967V14.6557ZM49.1803 14.6557C48.9836 15.2459 48.6557 15.7049 48.1967 16.1639C47.8033 16.5574 47.2787 16.9508 46.6885 17.1475C46.0984 17.4098 45.4426 17.4754 44.7213 17.4754C44 17.4754 43.3443 17.3443 42.7541 17.1475C42.1639 16.8852 41.7049 16.623 41.2459 16.1639C40.8525 15.7705 40.5246 15.2459 40.3279 14.6557C40.1311 14.0656 40 13.4754 40 12.7541V6.72131H42.6885V12.8852C42.6885 13.0164 42.6885 13.2131 42.7541 13.4754C42.8197 13.6721 42.8852 13.9344 43.0164 14.1311C43.1475 14.3279 43.3443 14.5246 43.6066 14.6557C43.8689 14.7869 44.1967 14.8525 44.6557 14.8525C45.2459 14.8525 45.7705 14.6557 46.0984 14.2623C46.4918 13.8689 46.6885 13.4098 46.6885 12.8197V6.72131H49.3771V12.8197C49.5082 13.4754 49.4426 14.0656 49.1803 14.6557ZM56.3279 6.72131C57.0492 6.72131 57.7049 6.85246 58.3607 7.11475C59.0164 7.37705 59.541 7.77049 60 8.22951C60.459 8.68852 60.7869 9.27869 61.0492 9.93443C61.3115 10.5902 61.4426 11.2459 61.4426 12.0328C61.4426 12.7541 61.3115 13.4754 61.0492 14.1311C60.7869 14.7869 60.3934 15.377 59.9344 15.9016C59.4754 16.4262 58.8853 16.8197 58.2295 17.082C57.5738 17.3443 56.8525 17.541 56.0656 17.541C55.2787 17.541 54.5574 17.4098 53.9016 17.082C53.2459 16.8197 52.6557 16.3607 52.1967 15.9016C51.7377 15.377 51.3443 14.7869 51.082 14.1311C50.8197 13.4754 50.6885 12.7541 50.6885 11.9672V2H53.377V11.9672C53.377 12.3607 53.4426 12.7541 53.5738 13.1475C53.7049 13.4754 53.9016 13.8033 54.1639 14.0656C54.4262 14.3279 54.6885 14.5246 55.0164 14.7213C55.3443 14.8525 55.6721 14.918 56.0656 14.918C56.459 14.918 56.7869 14.8525 57.1148 14.7213C57.4426 14.5902 57.7049 14.3934 57.9672 14.1311C58.2295 13.8689 58.4262 13.6066 58.5574 13.2131C58.6885 12.8852 58.7541 12.4918 58.7541 12.0984C58.7541 11.7049 58.6885 11.377 58.5574 11.0492C58.4262 10.7213 58.2295 10.3934 57.9672 10.1967C57.7049 9.86885 57.377 9.67213 57.0492 9.54098C56.7213 9.40984 56.3279 9.34426 55.9344 9.34426H54.4262V6.72131H56.3279ZM69.5082 2.65574C69.2459 2.78689 68.9836 2.85246 68.7213 2.85246C68.9836 2.65574 69.2459 2.39344 69.3115 2.06557C69.0492 2.19672 68.7213 2.32787 68.459 2.39344C68.1967 2.13115 67.8033 2 67.4098 2C66.6229 2 66.0328 2.65574 66.0328 3.37705C66.0328 3.5082 66.0328 3.57377 66.0984 3.70492C64.918 3.63934 63.9344 3.11475 63.2131 2.2623C63.082 2.45902 63.0164 2.72131 63.0164 2.98361C63.0164 3.44262 63.2787 3.90164 63.6066 4.16393C63.4098 4.16393 63.1475 4.09836 62.9508 3.96721C62.9508 4.62295 63.4098 5.21311 64.0656 5.34426C63.9344 5.34426 63.8033 5.40984 63.6721 5.40984H63.4098C63.6066 5.93443 64.1311 6.32787 64.7213 6.39344C64.2623 6.78689 63.6721 6.98361 63.0164 6.98361H62.6885C63.2787 7.37705 64 7.57377 64.7869 7.57377C67.3443 7.57377 68.7213 5.47541 68.7213 3.63934V3.44262C69.1148 3.18033 69.3115 2.91803 69.5082 2.65574Z" fill="#333333"/>
</svg>
