<svg width="120" height="24" viewBox="0 0 120 24" fill="none" xmlns="http://www.w3.org/2000/svg">
  <g clip-path="url(#clip0)">
    <path d="M16.6558 18.9999C16.444 18.9999 15.9497 18.974 15.7467 18.9307C15.4025 18.8527 15.0582 18.7748 14.7405 18.6449C14.0961 18.3764 13.4871 18.0473 12.7986 17.7182C13.3988 16.9994 13.9108 16.3845 14.4404 15.7436C15.5702 16.5837 16.7882 16.7396 18.1034 16.4105C19.3303 16.1073 20.0982 14.8689 19.8511 13.6044C19.8069 13.6131 19.7628 13.6131 19.7363 13.6391C17.8916 15.3799 13.7166 14.8429 12.1013 11.7771C10.4066 8.55537 12.6044 4.6235 15.9762 4.10387C16.6647 4.01727 17.8121 4.12119 18.3241 4.32904C18.8448 4.52824 19.4009 4.73609 19.9217 4.93528C19.9217 4.79671 19.9393 4.64082 19.9393 4.38967H22.3578C22.3666 4.50225 22.3931 4.60618 22.3931 4.71877C22.3931 7.76727 22.4196 10.8071 22.3843 13.8556C22.3666 15.2586 21.9783 16.5663 20.9191 17.5969C20.1512 18.3504 19.1979 18.7228 18.1475 18.9047C18.1122 18.9133 18.0769 18.922 18.0416 18.922C17.8209 18.974 17.6003 18.9999 17.3796 18.9999H16.6558ZM16.9824 12.1581C18.5447 12.1755 19.8687 10.885 19.8952 9.33482C19.9128 7.79325 18.6153 6.49417 17.0354 6.46819C15.4554 6.44221 14.0961 7.75861 14.0961 9.30884C14.0961 10.8331 15.4201 12.1408 16.9824 12.1581Z" fill="#333333"/>
    <path d="M50.9998 4.77104C50.7879 5.767 50.5761 6.76296 50.3731 7.76758C49.8347 10.5563 49.3051 13.3449 48.7578 16.1336C48.4312 17.8051 47.1602 18.8963 45.4037 18.9743C44.2033 19.0262 42.9941 18.9829 41.7495 18.9829C41.7495 18.1862 41.7495 17.4067 41.7495 16.5667C42.3409 16.5667 42.9411 16.5667 43.5413 16.5667C44.0532 16.5667 44.574 16.5667 45.086 16.5667C45.845 16.558 46.1893 16.2809 46.3305 15.5534C46.3658 15.3542 46.4011 15.1637 46.4453 14.9385C46.0304 14.8692 45.642 14.8172 45.2537 14.7393C43.8679 14.4362 42.897 13.6394 42.2703 12.3923C41.7054 11.2491 41.4935 10.0107 41.264 8.78086C41.0257 7.51643 40.7698 6.26065 40.5226 5.00488C40.505 4.89229 40.505 4.7797 40.4873 4.61516C41.2729 4.61516 42.032 4.60649 42.7999 4.63248C42.8793 4.63248 43.0117 4.80569 43.0382 4.91827C43.3471 6.44252 43.6207 7.97543 43.9385 9.49968C44.0444 10.002 44.1945 10.5043 44.3798 10.9893C44.8212 12.1498 45.5979 12.5915 46.9395 12.4616C47.4427 9.86342 47.9546 7.24795 48.4665 4.61516C49.3404 4.61516 50.1701 4.61516 51.0086 4.61516C50.9998 4.65846 50.9998 4.71908 50.9998 4.77104Z" fill="#333333"/>
    <path d="M6.76116 4.18187C9.29439 4.80543 11.0244 7.26501 10.742 9.83718C10.4507 12.4873 8.1999 14.5225 5.53427 14.5658C2.80685 14.6091 0.591381 12.8337 0.0882658 10.2096C0.0441329 9.97575 0 9.74192 0 9.50808L0 9.02309C0 8.78926 0.0353063 8.56409 0.0882658 8.33025C0.0882658 8.32159 0.0882658 8.31293 0.0970924 8.31293C0.556075 6.26039 1.80062 4.89203 3.83956 4.23383C4.13967 4.13857 4.90758 4 5.35774 4C5.80789 4 6.51402 4.12125 6.76116 4.18187ZM5.37539 12.1409C6.94652 12.1409 8.27051 10.8678 8.29699 9.31755C8.32347 7.77598 6.973 6.44226 5.39304 6.44226C3.81308 6.44226 2.4891 7.71536 2.48027 9.25693C2.45379 10.8245 3.77778 12.1322 5.37539 12.1409Z" fill="#333333"/>
    <path d="M23.4082 4.43311C24.2556 4.43311 25.0323 4.43311 25.862 4.43311C25.8709 4.60632 25.8885 4.77953 25.8885 4.94408C25.8885 6.52895 25.8797 8.12248 25.8973 9.70735C25.9062 10.9545 26.7623 11.9418 28.0069 12.1843C29.1279 12.4008 30.3283 11.7686 30.7784 10.6687C30.9108 10.3569 30.9726 10.0018 30.9726 9.66405C30.9903 8.08784 30.9815 6.52029 30.9815 4.94408C30.9815 4.78819 30.9815 4.6323 30.9815 4.44177C31.8023 4.44177 32.5879 4.44177 33.4352 4.44177C33.4441 4.57167 33.4529 4.71024 33.4529 4.84881C33.4529 6.49431 33.4617 8.1398 33.4529 9.7853C33.4441 12.3142 31.4404 14.384 28.7836 14.6092C26.2945 14.8171 23.9114 13.0157 23.4877 10.5994C23.4259 10.2616 23.3994 9.91521 23.3994 9.56879C23.3994 7.87133 23.4082 6.16521 23.4082 4.43311Z" fill="#333333"/>
    <path d="M39.9226 6.94433C38.9252 6.94433 37.972 6.94433 36.9569 6.94433C36.9569 8.23474 36.9569 9.48185 36.9569 10.729C36.9569 11.9847 36.9569 13.2319 36.9569 14.5223C36.136 14.5223 35.3328 14.5223 34.4766 14.5223C34.4678 14.401 34.459 14.2711 34.459 14.1325C34.459 11.569 34.459 8.99687 34.459 6.43336C34.459 5.24687 35.2092 4.52804 36.4185 4.52804C37.3276 4.52804 38.2368 4.51938 39.1547 4.5367C39.2783 4.5367 39.4813 4.64929 39.5078 4.7359C39.6578 5.45472 39.7814 6.17354 39.9226 6.94433Z" fill="#333333"/>
  </g>
  <defs>
    <clipPath id="clip0">
      <rect width="51" height="15" fill="white" transform="translate(0 4)"/>
    </clipPath>
  </defs>
</svg>
