<svg width="120" height="24" viewBox="0 0 120 24" fill="none" xmlns="http://www.w3.org/2000/svg">
<path d="M12.538 5.62349C13.4954 5.48992 14.4667 5.48992 15.4242 5.62349V10.3786H20.1555V5.62349C21.1127 5.48993 22.0838 5.48993 23.0409 5.62349V17.749C22.0834 17.8809 21.1123 17.8809 20.1547 17.749V12.5039H15.4233V17.749C14.4658 17.8811 13.4947 17.8811 12.5371 17.749L12.538 5.62349V5.62349ZM39.1547 5.68189C39.7302 5.62518 40.2711 5.57947 40.7738 5.538C41.2774 5.49907 42.3312 5.47875 42.9457 5.47875C43.6651 5.47875 44.3761 5.53631 45.0761 5.64803C45.7348 5.74757 46.3739 5.94947 46.9703 6.24644C47.5133 6.51721 47.9817 6.91677 48.3347 7.41023C48.6817 7.89945 48.8544 8.52071 48.8544 9.27401C48.8544 9.7226 48.7892 10.1187 48.6563 10.4623C48.5268 10.806 48.3601 11.1073 48.157 11.3655C47.9538 11.6236 47.7355 11.8454 47.501 12.0299C47.2915 12.1981 47.0677 12.3479 46.8324 12.4776L46.498 12.6621L49.9344 17.7896C49.672 17.8116 49.3986 17.8345 49.11 17.8565C48.3241 17.9181 47.5339 17.8954 46.7528 17.7888L43.0625 12.1568L43.5339 11.9546C43.7176 11.8758 43.9385 11.776 44.2009 11.6515C44.4633 11.5288 44.7138 11.3722 44.9576 11.1877C45.198 11.0015 45.4045 10.7772 45.5746 10.5123C45.7447 10.2482 45.8302 9.93674 45.8302 9.57702C45.8302 8.86773 45.5941 8.34974 45.1235 8.01626C44.6529 7.68531 44.0435 7.51942 43.2978 7.51942C43.01 7.51942 42.2533 7.5355 42.0197 7.5702V17.8066C41.7827 17.8294 41.5483 17.8489 41.313 17.8658C41.0768 17.8827 40.8458 17.8912 40.6249 17.8912C40.4023 17.8912 40.1661 17.8853 39.9181 17.8743C39.662 17.8629 39.4064 17.8406 39.1521 17.8074V5.68189H39.1547V5.68189ZM51.9353 5.62349H59.9439C60.0209 5.95951 60.0624 6.30399 60.0624 6.65271C60.0624 7.02258 60.0209 7.37723 59.9439 7.71494H54.8004V10.3455H58.8851C58.9621 10.7053 59.0036 11.0548 59.0036 11.3908C59.0036 11.7514 58.9621 12.1044 58.8851 12.4531H54.8012V15.6575H60.0827C60.1614 15.9953 60.2012 16.3389 60.2012 16.6859C60.2012 17.0575 60.1598 17.4121 60.0827 17.749H51.937V5.62349H51.9353Z" fill="#333333"/>
<path d="M30.8164 8.58757L29.8921 5.58286C29.7415 5.59725 29.6467 5.60232 29.4884 5.62179L25.0312 17.7481C25.5057 17.8152 25.9842 17.8486 26.4634 17.848C26.8959 17.848 27.3478 17.815 27.8201 17.7481L30.8164 8.58757V8.58757Z" fill="#333333"/>
<path d="M32.6872 5.62333C32.3859 5.58947 32.11 5.56408 31.8628 5.54715C31.3335 5.51478 30.8026 5.51478 30.2733 5.54715C30.2479 5.54969 30.2183 5.55477 30.1903 5.55561L33.0275 14.7644H29.1679L28.5195 16.8043H33.6944L34.0812 17.7488C34.5518 17.8165 35.0368 17.8487 35.5336 17.8487C36.044 17.8487 36.5671 17.8157 37.1046 17.7488L32.6864 5.62333H32.6872Z" fill="#333333"/>
<path d="M63.0041 11.1936H61.6897C61.649 11.0285 61.6193 10.8608 61.6008 10.6917C61.5814 10.5251 61.5712 10.3575 61.5703 10.1898C61.5703 9.86055 61.6084 9.53892 61.6888 9.22237H65.7321V17.7456C65.2774 17.8176 64.8178 17.8543 64.3575 17.8556C63.9258 17.8556 63.4747 17.8184 63.0033 17.7456V11.1945L63.0041 11.1936ZM69.0516 10.2804H67.7753L67.6788 9.91642L71.3488 5.14188H71.7999V8.31164H74.1775C74.2155 8.49447 74.2401 8.65697 74.2562 8.8034C74.2827 9.11883 74.2827 9.43594 74.2562 9.75137C74.2395 9.92927 74.2132 10.1061 74.1775 10.2812H71.7999V13.9851C71.7999 14.3617 71.8338 14.6664 71.8998 14.8966C71.965 15.1277 72.0598 15.3097 72.1842 15.4442C72.3086 15.5788 72.4618 15.6685 72.6438 15.7176C72.8274 15.7659 73.0433 15.7904 73.2913 15.7904C73.4876 15.7904 73.6806 15.776 73.8702 15.7439C74.0606 15.7134 74.2274 15.6872 74.3713 15.6626C74.4627 15.8928 74.5287 16.1341 74.5676 16.3837C74.6226 16.7154 74.6388 17.0522 74.6159 17.3876C74.6105 17.476 74.6009 17.5641 74.5871 17.6517C73.9845 17.7854 73.3624 17.8531 72.7208 17.8531C71.5299 17.8531 70.6209 17.5949 69.9928 17.0778C69.3648 16.5615 69.0508 15.7185 69.0508 14.5504V10.2812H69.0516V10.2804Z" fill="#333333"/>
<path d="M65.7309 6.55399C65.7309 7.41309 64.9826 8.10798 64.0592 8.10798C63.1349 8.10798 62.3867 7.41309 62.3867 6.55399C62.3867 5.6949 63.1366 5 64.0592 5C64.9826 4.99831 65.7309 5.6949 65.7309 6.55399Z" fill="#333333"/>
<path d="M8.85417 11.5267C7.9171 10.9391 6.85456 10.581 5.75297 10.4814C4.67466 10.3147 3.98569 10.065 3.68522 9.72984C3.38475 9.39636 3.38475 8.99178 3.68522 8.5178C3.98569 8.04551 4.67466 7.80767 5.75297 7.80767C6.83213 7.80767 7.67176 8.142 8.27101 8.81065C8.27101 8.81065 8.96167 8.35106 9.3527 7.98795C9.80299 7.57068 10.0688 7.13902 10.0688 7.13902L10.0594 7.13055H10.0679C9.14534 6.10302 7.53972 5.42167 5.71149 5.42167C5.30776 5.42167 4.91588 5.45976 4.53839 5.52155C3.90528 5.60619 3.28318 5.81271 2.67123 6.13349C2.56966 6.18512 2.47148 6.24522 2.37245 6.30362C2.34706 6.31801 2.32167 6.33409 2.29459 6.34763L2.29205 6.35694L2.28951 6.35864C1.9525 6.57107 1.64512 6.82722 1.3754 7.1204C1.29584 7.20757 1.21881 7.29814 1.1511 7.3904L1.12232 7.43272C1.06054 7.51736 1.00129 7.602 0.950503 7.69002C0.933575 7.71795 0.920035 7.74842 0.905646 7.77635C0.863326 7.85253 0.821853 7.92701 0.787151 8.00488C0.764298 8.05567 0.748217 8.10899 0.727903 8.15977C0.70505 8.21902 0.680503 8.27658 0.66019 8.33667C0.626334 8.45009 0.597556 8.5652 0.578089 8.68116H0.575551C0.554391 8.83097 0.541695 8.98501 0.541695 9.14414C0.541695 10.3697 0.990285 11.233 1.88831 11.7341C2.80329 12.2408 3.81289 12.5534 4.8541 12.6525C6.05344 12.7642 6.80081 13.057 7.09705 13.5293C7.39498 14.0033 7.39498 14.4773 7.09705 14.9496C6.80081 15.4236 6.05344 15.6606 4.8541 15.6606C3.41691 15.548 2.39869 15.1595 1.7986 14.4908C1.7986 14.4908 1.25013 14.7913 0.848936 15.179C0.44859 15.5658 0 16.1608 0 16.1608C0.600943 16.7186 1.31869 17.1638 2.15832 17.4981C2.9971 17.8316 4.04325 18 5.29592 18C6.61291 18 7.76994 17.6377 8.76107 16.9141C9.75389 16.1896 10.2482 15.3262 10.2482 14.3241C10.2465 13.0435 9.78267 12.1099 8.85417 11.5267V11.5267Z" fill="#333333"/>
</svg>
