<svg width="120" height="24" viewBox="0 0 120 24" fill="none" xmlns="http://www.w3.org/2000/svg">
<g clip-path="url(#clip0)">
<path fill-rule="evenodd" clip-rule="evenodd" d="M13.3142 6.7582C13.2836 6.90956 13.2528 7.0625 13.2213 7.21742C13.6605 7.21742 14.0876 7.21806 14.5089 7.21869C14.9189 7.2193 15.3233 7.2199 15.7281 7.2199C15.7597 7.21345 15.7892 7.19869 15.8139 7.177C15.8386 7.15531 15.8577 7.12739 15.8694 7.09583C15.9755 6.58749 16.0758 6.07847 16.1794 5.55234C16.2149 5.3722 16.2507 5.19006 16.2874 5.00526C15.9983 5.00526 15.7142 5.00442 15.4332 5.00358C14.8798 5.00194 14.3378 5.00032 13.7912 5.00526C13.7597 5.01182 13.7302 5.02662 13.7055 5.0483C13.6809 5.06998 13.6617 5.09784 13.6499 5.12933C13.5351 5.66411 13.4268 6.20042 13.3142 6.7582ZM0.0232771 15.4915C0.0163367 15.5577 0.00909853 15.6268 0 15.6997L0.328507 15.696H7.33067C9.1498 15.6923 10.7982 14.2518 11.1514 12.3821C11.2191 12.0425 11.2189 11.6918 11.1509 11.3523C11.0828 11.0128 10.9485 10.692 10.7563 10.4103C10.5641 10.1285 10.3184 9.89202 10.0347 9.71586C9.751 9.53969 9.4356 9.42771 9.10859 9.38705C8.68918 9.33304 8.2642 9.29406 7.83768 9.25493L7.8376 9.25492L7.83752 9.25492L7.83744 9.25491L7.83736 9.2549L7.83728 9.25489L7.8372 9.25489C7.67596 9.24009 7.5145 9.22528 7.35305 9.20963C6.87053 9.16312 6.38824 9.11729 5.90597 9.07146L5.90549 9.07141L5.9051 9.07137L5.90472 9.07134L5.90433 9.0713L5.90394 9.07126L5.90356 9.07122C5.25452 9.00955 4.60554 8.94787 3.95617 8.88457C3.65121 8.85479 3.56526 8.74313 3.57821 8.41931C3.59469 7.99623 3.83371 7.76794 4.27407 7.76794H11.2209L11.7778 5.01732C11.7299 5.01541 11.6862 5.01296 11.6454 5.01065C11.5799 5.00697 11.5214 5.00367 11.4634 5.00367H4.84277C3.94242 4.99948 3.06797 5.32096 2.3655 5.91439C1.66303 6.50783 1.17508 7.33729 0.983158 8.26422C0.697042 9.69102 1.48592 10.9205 2.65157 11.2282C3.02674 11.3271 3.41835 11.3606 3.80854 11.3939C3.90818 11.4024 4.00772 11.411 4.10687 11.4205L8.17842 11.7928C8.43157 11.8163 8.56108 11.9739 8.54931 12.2518C8.53518 12.6811 8.28321 12.9168 7.82872 12.9168C5.48407 12.9226 3.13981 12.9226 0.795943 12.9168C0.60049 12.9168 0.50394 12.954 0.463907 13.1861C0.392425 13.5964 0.306347 14.0043 0.220262 14.4122L0.220259 14.4122C0.170221 14.6493 0.12018 14.8864 0.0730036 15.124C0.0495484 15.241 0.0369942 15.3607 0.0232771 15.4915ZM15.8882 18.5468L15.8879 18.5486L15.8873 18.5515C15.8589 18.695 15.8302 18.8402 15.8008 18.9876L16.2294 18.9802C16.6321 18.9802 17.0348 18.9757 17.4375 18.9713H17.4375C18.33 18.9615 19.2225 18.9516 20.1149 18.9901C22.1413 19.077 24.1818 17.3189 24.5762 15.3437C24.6514 14.9665 24.7294 14.5899 24.8073 14.2133L24.8073 14.2131L24.8074 14.2128L24.8074 14.2127L24.8074 14.2126C24.9819 13.3694 25.1563 12.5264 25.3003 11.6775C25.5605 10.139 24.7151 8.74941 23.3328 8.35983C23.2299 8.32686 23.1242 8.30402 23.0173 8.2916C22.697 8.29011 22.3754 8.27891 22.0538 8.26771C21.303 8.24156 20.5519 8.21541 19.8159 8.31269C17.7848 8.58316 16.2541 10.3313 16.0022 12.474C15.8232 13.9926 16.8511 15.4479 18.2887 15.6191C18.8613 15.6869 19.4417 15.6866 20.0217 15.6863C20.217 15.6862 20.4122 15.6861 20.6071 15.6886C21.3214 15.7022 21.3241 15.6888 21.4713 14.9562L21.4737 14.9442C21.5607 14.5063 21.6487 14.0679 21.7387 13.6194L21.8799 12.9157H21.5267C21.2912 12.9157 21.0557 12.9169 20.8202 12.9181C20.3492 12.9206 19.8783 12.9231 19.4073 12.9157C18.8845 12.9082 18.589 12.4839 18.7126 11.9492C18.7707 11.6971 18.906 11.4721 19.0975 11.3091C19.289 11.1461 19.5262 11.054 19.7723 11.0472H21.8611C22.4368 11.0509 22.7194 11.4244 22.6017 12.0273C22.396 13.0679 22.1876 14.108 21.9764 15.1477C21.834 15.8474 21.4089 16.2085 20.7295 16.2085H17.3456C17.2552 16.2085 17.1576 16.1983 17.0596 16.188C16.8195 16.1629 16.5773 16.1376 16.4343 16.2618C16.2861 16.3906 16.2463 16.6626 16.2075 16.9283L16.2075 16.9283L16.2075 16.9283C16.1936 17.0236 16.1798 17.118 16.1611 17.2047C16.0663 17.6459 15.9789 18.0878 15.8882 18.5468ZM51.8987 5.01442H54.489C54.4582 5.17895 54.4283 5.34138 54.3986 5.50232C54.3344 5.85113 54.2714 6.19299 54.2029 6.53427C53.8489 8.30764 53.4898 10.0839 53.1256 11.8631C52.9855 12.5541 53.2669 12.9201 53.9321 12.9214C54.3754 12.9222 54.8114 12.9219 55.2474 12.9216H55.248L55.9031 12.9214C56.1501 12.9203 56.3902 12.8352 56.5875 12.6787C56.7848 12.5222 56.9289 12.3027 56.9981 12.0529C57.1489 11.4884 56.8521 11.0603 56.2917 11.0504C55.8207 11.0446 55.3498 11.0465 54.8789 11.0485H54.8788C54.6433 11.0494 54.4078 11.0504 54.1723 11.0504H53.8521L54.4043 8.23651C54.7269 8.24663 55.0492 8.24973 55.3707 8.25282C56.1133 8.25996 56.852 8.26707 57.5833 8.36058C58.8973 8.52187 59.658 9.99457 59.7215 11.0169C59.8664 13.3345 57.654 15.7961 55.2367 15.7105C54.9242 15.6992 54.611 15.6973 54.2978 15.6953C53.7482 15.6919 53.1987 15.6885 52.6534 15.6348C51.4466 15.5107 50.4163 14.3593 50.4163 13.0814C50.4163 12.3689 50.5542 11.6505 50.6895 10.9456L50.7013 10.8842C50.9558 9.53604 51.2305 8.19116 51.5051 6.84671L51.5056 6.84421C51.6119 6.3236 51.7182 5.80305 51.8233 5.28241C51.8361 5.22797 51.851 5.17801 51.8667 5.12526L51.8667 5.12515L51.8668 5.12466L51.8669 5.12452L51.8669 5.12446L51.8669 5.12439L51.867 5.1243L51.867 5.12421C51.8773 5.08953 51.888 5.05362 51.8987 5.01442ZM49.5522 11.7408C49.8053 10.0807 48.8846 8.59686 47.3151 8.32515C46.7676 8.23209 45.6431 8.26311 45.6431 8.26311H44.6729C42.4747 8.26063 40.5248 10.0683 40.2376 12.3648C40.0244 14.0671 41.1501 15.5311 42.5783 15.639C43.066 15.6753 43.5563 15.6789 44.0476 15.6825C44.3794 15.6849 44.7116 15.6873 45.0438 15.6998C47.2291 15.783 49.2284 13.8773 49.5522 11.7408ZM44.8529 10.8675L44.853 10.8675C44.9445 10.8655 45.036 10.8636 45.1274 10.8636C45.242 10.864 45.3565 10.8637 45.471 10.8633C45.7191 10.8625 45.9669 10.8618 46.2142 10.8686C46.6333 10.8785 46.8606 11.1217 46.8841 11.5634C46.9312 12.5026 46.3979 13.1031 45.5183 13.1031H43.6945C43.1399 13.0969 42.8491 12.7681 42.9197 12.1961C43.008 11.4703 43.3389 10.7904 44.3032 10.8636C44.4862 10.8752 44.6696 10.8713 44.8529 10.8675ZM30.9796 14.9329L30.9796 14.9327L30.9796 14.9326L30.9796 14.9326L30.9796 14.9326C31.0474 14.5891 31.1134 14.2546 31.1817 13.9218C31.2451 13.5961 31.3132 13.2709 31.3813 12.9455C31.4398 12.666 31.4983 12.3865 31.5538 12.1066C31.6927 11.4069 31.4043 11.0396 30.7202 11.0372H30.2492C29.6264 11.0372 29.1895 11.3994 29.0553 12.0458C28.8198 13.165 28.5953 14.2853 28.3818 15.4069C28.3382 15.6315 28.2558 15.7084 28.0286 15.7034C27.5155 15.6935 27.0019 15.6968 26.4809 15.7001C26.2175 15.7017 25.9523 15.7034 25.6843 15.7034C25.7491 15.3787 25.8146 15.0571 25.8796 14.7375L25.8797 14.7373C26.0312 13.9934 26.1805 13.2603 26.3131 12.5235C26.4791 11.6066 26.7428 10.7419 27.3433 10.0297C28.3006 8.89448 29.4533 8.21086 30.9427 8.26173C31.0289 8.26471 31.1151 8.26665 31.2011 8.26859L31.2012 8.26859L31.2012 8.26859L31.2012 8.26859C31.7233 8.28035 32.2417 8.29203 32.7289 8.53592C33.8804 9.11284 34.4891 10.4255 34.2266 11.7927C33.9911 13.0161 33.7438 14.2369 33.4895 15.4553C33.4707 15.5458 33.3635 15.686 33.2964 15.6873C32.7008 15.6965 32.1031 15.6954 31.4776 15.6943H31.4776H31.4774C31.2647 15.6939 31.0487 15.6935 30.8285 15.6935C30.8808 15.4335 30.9306 15.1809 30.9796 14.9329ZM35.9452 15.634L35.9352 15.684C36.1439 15.684 36.3484 15.6835 36.5498 15.6829H36.5499L36.5511 15.6829H36.5512C37.1445 15.6813 37.711 15.6797 38.2794 15.6927C38.4902 15.6964 38.5667 15.6331 38.6079 15.416C38.7116 14.8719 38.8218 14.329 38.932 13.7861C39.0696 13.1085 39.2072 12.4309 39.332 11.751C39.6229 10.1741 38.7939 8.69146 37.3587 8.37632C36.6734 8.2262 35.9352 8.27459 35.2287 8.32545C34.777 8.39093 34.3361 8.52161 33.9182 8.71379C34.1981 9.05189 34.4204 9.43849 34.5752 9.85647C34.6984 10.2332 34.7648 10.628 34.7719 11.0264C34.9016 11.0264 35.0359 11.0252 35.1716 11.024C35.4474 11.0215 35.7289 11.019 35.9893 11.0264C36.4933 11.0413 36.7747 11.4148 36.6781 11.9421C36.5711 12.5097 36.4574 13.0749 36.3435 13.6412L36.3435 13.6415L36.3434 13.6419L36.3319 13.6989C36.2068 14.333 36.0805 14.9612 35.9454 15.633L35.9452 15.634ZM14.1419 15.6877H11.5186C11.6088 15.2409 11.6944 14.8137 11.7799 14.3866L11.7812 14.38L12.0616 12.9926L12.0617 12.992C12.362 11.5066 12.6624 10.021 12.9586 8.53384C12.9987 8.3316 13.0681 8.26585 13.2636 8.26833C13.7758 8.27573 14.2881 8.27333 14.8144 8.27086H14.8144C15.0828 8.26961 15.3549 8.26833 15.6326 8.26833L14.1419 15.6877Z" fill="#333333"/>
</g>
<defs>
<clipPath id="clip0">
<rect width="59.7333" height="14" fill="white" transform="translate(0 5)"/>
</clipPath>
</defs>
</svg>
