<svg width="200" height="24" viewBox="0 0 200 24" fill="none" xmlns="http://www.w3.org/2000/svg">
<g clip-path="url(#clip0)">
<path fill-rule="evenodd" clip-rule="evenodd" d="M9.90061 12.8525L11.8707 2.26645H33.4891L33.9145 0H5.75127C2.35508 0 0.458242 1.11579 0.0816627 3.46941C-0.0401229 4.03352 -0.0255111 4.61856 0.124284 5.17589C0.274079 5.73323 0.55473 6.24676 0.942913 6.67381C1.7414 7.53158 3.03502 7.9221 4.35653 7.92908L4.77146 5.70796C4.00087 5.69053 3.34535 5.5371 2.97923 5.16401C2.80724 4.98041 2.68495 4.75595 2.62394 4.51188C2.56292 4.26782 2.56519 4.01222 2.63054 3.76928C2.86416 2.60467 4.02528 2.26645 6.00581 2.26645H9.14396L7.18087 12.8525H9.90061ZM37.8267 6.73264C38.5485 6.73264 38.9634 7.19639 38.6392 8.90494C38.3567 10.3799 37.8197 11.0772 37.098 11.0772C36.3762 11.0772 35.9613 10.6135 36.2855 8.90494C36.568 7.43 37.1049 6.73264 37.8267 6.73264ZM36.8853 13.1275C39.1134 13.1275 40.7417 11.6944 41.2647 8.90494C41.6553 6.81981 40.9056 4.68237 38.0394 4.68237C35.8113 4.68237 34.183 6.11547 33.6599 8.90494C33.2694 10.9901 34.0191 13.1275 36.8853 13.1275ZM11.9683 9.26827C12.4809 6.4788 14.4823 4.73537 17.1497 4.73537C18.0754 4.72056 18.9963 4.8705 19.8695 5.1782L18.8722 10.5096C18.7467 11.1756 18.7432 11.5521 18.942 11.7997C19.0055 11.8729 19.0824 11.9333 19.1686 11.9775C19.0354 12.285 18.813 12.5455 18.5302 12.7251C18.2473 12.9048 17.9171 12.9954 17.5821 12.9852C17.419 12.9848 17.2579 12.95 17.1091 12.8831C16.9604 12.8162 16.8274 12.7187 16.7188 12.597C16.6103 12.4753 16.5286 12.3321 16.4791 12.1767C16.4296 12.0213 16.4133 11.8572 16.4315 11.6951H16.4036C16.138 12.1091 15.7689 12.4465 15.3329 12.674C14.8968 12.9015 14.4089 13.0112 13.9174 12.9922C13.6353 12.9755 13.3604 12.8968 13.1121 12.7618C12.8638 12.6268 12.6483 12.4388 12.4809 12.2112C11.9404 11.5626 11.7172 10.6351 11.9683 9.26827ZM14.9941 10.8526C15.1503 10.9286 15.3238 10.9618 15.497 10.9489L15.483 10.9559C15.8614 10.9335 16.2197 10.7779 16.4942 10.5166L17.1916 6.87281C16.9328 6.80126 16.665 6.76836 16.3966 6.77518C15.4133 6.78215 14.7473 7.40281 14.437 8.90912C14.2836 9.64485 14.3638 10.1679 14.6078 10.5166C14.7047 10.6607 14.8379 10.7767 14.9941 10.8526ZM24.8905 6.77862C25.0619 6.76497 25.2337 6.79796 25.3878 6.87408C25.5419 6.9502 25.6725 7.06663 25.7657 7.21099C26.0168 7.55968 26.0621 8.18033 25.9087 8.91606C25.5984 10.4189 24.9917 10.9559 23.9909 10.9559C23.7226 10.9617 23.4549 10.9288 23.1959 10.8582L23.8933 7.21797C24.1654 6.95294 24.5251 6.79667 24.9045 6.77862H24.8905ZM22.8612 12.6644C23.8165 12.9674 24.8502 12.9053 25.7623 12.4901C27.1326 11.838 28.0636 10.4747 28.3844 8.72428C28.6354 7.35744 28.3844 6.31487 27.9311 5.68027C27.7318 5.40072 27.471 5.17073 27.1687 5.00809C26.8664 4.84544 26.5307 4.75451 26.1876 4.74231C25.752 4.69789 25.312 4.76114 24.9065 4.92651C24.501 5.09188 24.1423 5.3543 23.8619 5.69073H23.834C23.834 5.09099 23.4435 4.74231 22.6415 4.74231C22.3065 4.73168 21.976 4.8221 21.6931 5.00182C21.4101 5.18154 21.1878 5.44223 21.055 5.75C21.1421 5.79442 21.2202 5.85473 21.2852 5.92783C21.4839 6.1754 21.4804 6.55547 21.3549 7.21797L19.8346 15.3946H22.3486L22.8612 12.6644ZM25.1242 21.6497C26.3899 21.702 27.4987 20.8512 27.8195 19.1601L28.088 17.6956H26.6444C25.2671 17.6956 23.9282 18.236 23.6562 19.6901C23.447 20.8268 24.1304 21.6078 25.1242 21.6497ZM45.3443 10.6661L47.8932 4.86401L50.5572 4.88145L46.5473 12.8245C45.0201 15.8545 43.6218 17.6747 39.4167 17.6747H30.609L30.2812 19.3797C29.8453 21.7089 28.1891 23.9998 25.0126 23.9998C22.8298 23.9998 20.5111 22.5284 21.0864 19.4669C21.6478 16.4996 24.3396 15.3943 26.9303 15.3943H28.5203L30.4904 4.88145H33.0044L31.0483 15.4047H39.4063C40.8672 15.4047 42.5026 15.1502 43.3917 13.4835L42.377 4.88145H44.919L45.2223 10.6661H45.3443ZM51.5143 6.1776C51.684 6.1776 51.8472 6.11176 51.9693 5.99394L51.9763 5.99743C52.0368 5.93774 52.0849 5.86663 52.1177 5.78821C52.1505 5.7098 52.1674 5.62565 52.1674 5.54065C52.1674 5.45566 52.1505 5.37151 52.1177 5.29309C52.0849 5.21468 52.0368 5.14356 51.9763 5.08388C51.917 5.02306 51.8459 4.97499 51.7673 4.94261C51.6888 4.91023 51.6045 4.89423 51.5195 4.89559C51.3549 4.89406 51.1961 4.95657 51.0767 5.06993C51.0115 5.1288 50.9597 5.20098 50.9248 5.28159C50.89 5.36219 50.8728 5.44935 50.8745 5.53717C50.8722 5.62191 50.8875 5.70621 50.9193 5.7848C50.9511 5.86338 50.9987 5.93458 51.0593 5.99394C51.1814 6.11176 51.3446 6.1776 51.5143 6.1776ZM51.0031 5.53132C50.9985 5.39532 51.046 5.2627 51.136 5.16059C51.1851 5.10987 51.2439 5.06954 51.3088 5.04199C51.3738 5.01445 51.4437 5.00025 51.5143 5.00025C51.5849 5.00025 51.6548 5.01445 51.7197 5.04199C51.7847 5.06954 51.8435 5.10987 51.8926 5.16059C51.9419 5.2098 51.9809 5.26824 52.0076 5.33256C52.0342 5.39687 52.0479 5.46581 52.0479 5.53542C52.0479 5.60504 52.0342 5.67397 52.0076 5.73829C51.9809 5.80261 51.9419 5.86104 51.8926 5.91026C51.7913 6.00114 51.6592 6.04988 51.5231 6.04652C51.3871 6.04316 51.2575 5.98795 51.1608 5.89217C51.0642 5.7964 51.0078 5.66731 51.0031 5.53132ZM51.2336 5.19197V5.88934L51.4254 5.92072V5.66967H51.5056C51.5264 5.66666 51.5475 5.66666 51.5683 5.66967C51.5804 5.67402 51.5913 5.68096 51.6003 5.68999C51.6094 5.69903 51.6163 5.70995 51.6206 5.72197C51.6243 5.75091 51.6243 5.7802 51.6206 5.80914C51.6175 5.84161 51.6175 5.8743 51.6206 5.90677H51.7845V5.88585C51.7837 5.8789 51.7837 5.87188 51.7845 5.86493C51.784 5.85796 51.784 5.85097 51.7845 5.84401V5.78124C51.7873 5.75147 51.7831 5.72145 51.7722 5.6936C51.7613 5.66576 51.744 5.64084 51.7218 5.62085C51.6918 5.59921 51.6572 5.58488 51.6206 5.57901C51.6739 5.57827 51.7254 5.55987 51.7671 5.52671C51.7847 5.5105 51.7983 5.4904 51.8068 5.46799C51.8153 5.44559 51.8184 5.42151 51.8159 5.39769C51.8181 5.3632 51.8105 5.32879 51.7938 5.29852C51.7771 5.26825 51.7521 5.24338 51.7218 5.22684C51.6782 5.20565 51.6307 5.19378 51.5823 5.19197H51.2336ZM51.4742 5.31749C51.51 5.31117 51.5465 5.31117 51.5823 5.31749H51.5652C51.5761 5.31776 51.5868 5.32022 51.5967 5.32476C51.6078 5.32983 51.6175 5.33736 51.6253 5.34676C51.633 5.35617 51.6385 5.36722 51.6413 5.37906C51.6441 5.39091 51.6442 5.40324 51.6416 5.41513C51.6426 5.43115 51.6396 5.44718 51.6329 5.46177C51.6262 5.47637 51.616 5.48909 51.6032 5.49881C51.5728 5.51705 51.5375 5.52556 51.5021 5.52322H51.4289V5.31749H51.4742Z" fill="#333333"/>
</g>
<defs>
<clipPath id="clip0">
<path d="M0 0H200V24H0V0Z" fill="white"/>
</clipPath>
</defs>
</svg>
