<svg width="160" height="24" viewBox="0 0 160 24" fill="none" xmlns="http://www.w3.org/2000/svg">
<path d="M11.0514 7H0.206568L0 8.91544H4.67359L3.09851 18.9997H5.21583L6.92001 8.91544H10.8448L11.0514 7Z" fill="#333333"/>
<path d="M17.0677 18.9996C17.0677 18.9996 17.8424 15.2533 18.5137 10.521C20.4245 11.7041 20.4245 11.7041 20.4245 11.7041C20.4245 11.7041 21.9479 10.183 24.5042 10.69C24.5042 10.69 26.3633 11.1407 26.3116 13.4223C25.821 17.5912 25.5887 18.9996 25.5887 18.9996H23.1357C23.1357 18.9996 23.7812 16.4363 23.9361 14.0984C24.091 11.7604 21.3798 11.6477 20.3986 13.5913C20.1921 13.9012 19.5207 18.9996 19.5207 18.9996H17.0677Z" fill="#333333"/>
<path d="M44.2312 18.9996C44.2312 18.9996 45.3931 14.1547 45.6772 10.521C47.5879 11.7041 47.5879 11.7041 47.5879 11.7041C47.5879 11.7041 49.1114 10.183 51.6676 10.69C51.6676 10.69 53.5267 11.1407 53.4751 13.4223C52.9845 17.5912 52.7521 18.9996 52.7521 18.9996H50.2991C50.2991 18.9996 50.9446 16.4363 51.0996 14.0984C51.2545 11.7604 48.5433 11.6477 47.5621 13.5913C47.3555 13.9012 46.6842 18.9996 46.6842 18.9996H44.2312Z" fill="#333333"/>
<path d="M35.5554 12.9157V10.7186C35.5554 10.7186 34.7549 10.2397 32.9475 10.1834C31.14 10.1271 27.396 11.4228 27.3702 15.1973C27.3443 18.9719 31.8888 18.9719 31.8888 18.9719C31.8888 18.9719 33.5155 19.0846 34.7808 18.0423C34.7549 16.4649 34.7808 16.2959 34.7808 16.2959C34.7808 16.2959 33.9028 17.2536 32.0954 17.1973C30.2879 17.141 29.7199 15.7325 29.694 14.8312C29.6682 13.9298 30.7785 11.6763 33.2573 11.9298C35.0131 12.2115 35.5554 12.9157 35.5554 12.9157Z" fill="#333333"/>
<path d="M60.9116 12.2389L56.5736 8.54883L56.2122 10.7178H53.5784L54.5596 12.2389H56.0314L54.8695 18.9993H57.1417L58.0713 12.267L60.9116 12.2389Z" fill="#333333"/>
<path d="M43.6632 11.2253C42.2689 9.76056 39.5061 9.84507 37.8277 11.2253C36.3559 12.4647 35.8137 13.7323 35.8395 15.4224C35.8653 16.7463 36.7949 18.9998 39.945 18.9998C42.6046 18.9998 43.7665 17.704 43.7665 17.704V16.1829C43.7665 16.1829 42.398 17.5068 40.5131 17.3097C39.0155 17.1688 37.8277 16.8026 37.9826 15.028H44.1022C44.1022 15.028 45.0576 12.6901 43.6632 11.2253ZM38.3958 13.3098C39.5319 10.5211 42.5271 11.3662 42.5013 13.5069H38.3183C38.37 13.4506 38.3958 13.3943 38.3958 13.3098Z" fill="#333333"/>
<path d="M15.9056 11.2253C14.5113 9.76056 11.7485 9.84507 10.0701 11.2253C8.62415 12.4365 8.08191 13.7041 8.08191 15.3942C8.10773 16.7181 9.03728 18.9716 12.1874 18.9716C14.847 18.9716 16.0089 17.6758 16.0089 17.6758V16.1548C16.0089 16.1548 14.6404 17.4787 12.7555 17.2815C11.2579 17.1406 10.0701 16.7745 10.225 14.9999H16.3446C16.3446 15.028 17.3 12.6901 15.9056 11.2253ZM10.6382 13.3098C11.7743 10.5211 14.7695 11.3662 14.7437 13.5069H10.5607C10.6124 13.4506 10.6124 13.3943 10.6382 13.3098Z" fill="#333333"/>
<path d="M68.0867 16.5046H64.2844L62.9444 18.9995H60.9146L66.5429 8.3335H68.7443L70.3313 18.9995H68.4445L68.0867 16.5046ZM67.858 14.7581L67.2862 10.5478L64.9706 14.7581H67.858Z" fill="#333333"/>
<path d="M77.6111 18.9992H75.8387L76.2918 18.0006C75.9487 18.3437 75.6056 18.6244 75.2912 18.7803C74.9481 18.9362 74.5764 18.9986 74.1762 18.9986C73.4615 18.9986 72.8611 18.7179 72.4323 18.1877C71.9749 17.6576 71.7748 16.8467 71.7748 15.8175C71.7748 14.6012 72.0892 13.5096 72.7182 12.5116C73.3471 11.5448 74.1762 11.0458 75.2054 11.0458C76.1488 11.0458 76.8349 11.4513 77.3209 12.2621L78.0642 8.33252H79.9511L77.6111 18.9992ZM73.5759 15.7239C73.5759 16.2541 73.6902 16.6908 73.9475 17.0026C74.2048 17.3145 74.5193 17.4704 74.8623 17.4704C75.2054 17.4704 75.5199 17.3457 75.8057 17.0962C76.0916 16.8467 76.3489 16.4413 76.5205 15.9423C76.692 15.4121 76.7778 14.9131 76.7778 14.4453C76.7778 13.8839 76.6348 13.4473 76.3775 13.1042C76.1202 12.7611 75.8058 12.6052 75.4341 12.6052C74.8909 12.6052 74.4335 12.9483 74.0904 13.6032C73.7474 14.2581 73.5759 14.9443 73.5759 15.7239Z" fill="#333333"/>
<path d="M79.4364 16.6903L81.2661 16.3785C81.4376 16.7839 81.6377 17.0958 81.8664 17.2829C82.0951 17.47 82.4382 17.5324 82.8384 17.5324C83.2673 17.5324 83.6103 17.4388 83.8676 17.2205C84.0391 17.0646 84.1249 16.9086 84.1249 16.6903C84.1249 16.5656 84.0677 16.4408 83.982 16.3161C83.8962 16.2225 83.6389 16.0978 83.2101 15.9418C82.0665 15.5364 81.3804 15.1933 81.0945 14.975C80.6657 14.6008 80.4656 14.133 80.4656 13.5092C80.4656 12.8855 80.6657 12.3865 81.0945 11.9498C81.6663 11.3573 82.524 11.0454 83.6389 11.0454C84.5252 11.0454 85.2113 11.2325 85.6687 11.5756C86.1261 11.9187 86.412 12.4177 86.5263 13.0414L84.7825 13.3845C84.6967 13.1038 84.5537 12.9167 84.325 12.7607C84.0391 12.5736 83.6961 12.48 83.3244 12.48C82.9242 12.48 82.6383 12.5424 82.4668 12.6983C82.2953 12.8543 82.2095 13.0102 82.2095 13.1973C82.2095 13.3845 82.2953 13.5404 82.4668 13.6652C82.5811 13.7275 82.9242 13.8835 83.5246 14.0706C84.4394 14.3513 85.0683 14.632 85.3542 14.9127C85.783 15.3181 86.0118 15.7859 86.0118 16.3473C86.0118 17.0646 85.7259 17.6883 85.1827 18.2185C84.6395 18.7487 83.839 18.9982 82.8384 18.9982C81.8378 18.9982 81.0659 18.8111 80.5228 18.4056C80.0082 18.0002 79.6365 17.4388 79.4364 16.6903Z" fill="#333333"/>
</svg>
