<svg width="200" height="24" viewBox="0 0 200 24" fill="none" xmlns="http://www.w3.org/2000/svg">
<g clip-path="url(#clip0)">
<path d="M-0.00012207 6.05371H8.7308L7.91736 8.54826H5.63973V17.7673H2.8198V8.54826H-0.00012207V6.05371Z" fill="#333333"/>
<path d="M23.0474 6.05371H31.9952L31.1818 8.54826H28.7414V17.7673H25.8673V8.54826H23.0474V6.05371Z" fill="#333333"/>
<path d="M9.2731 9.74121H12.0388V17.7672H9.2731V9.74121Z" fill="#333333"/>
<path d="M13.1776 6H15.9975V11.4772L18.7632 8.7657H22.0712L18.6005 12.1821L22.505 17.7678H19.414L16.811 13.8633L15.9975 14.6767V17.7678H13.1776V6Z" fill="#333333"/>
<path d="M42.8411 6H45.661V11.4772L48.4267 8.7657H51.7889L48.264 12.1821L52.1685 17.7678H49.0774L46.4744 13.8633L45.661 14.6767V17.7678H42.8411V6Z" fill="#333333"/>
<path d="M10.6831 8.87364C11.4618 8.87364 12.093 8.24238 12.093 7.46367C12.093 6.68497 11.4618 6.05371 10.6831 6.05371C9.90437 6.05371 9.2731 6.68497 9.2731 7.46367C9.2731 8.24238 9.90437 8.87364 10.6831 8.87364Z" fill="#333333"/>
<path d="M31.6156 12.9948C31.6156 10.5003 33.5679 8.43957 36.0624 8.22266C35.9539 8.22266 35.7913 8.22266 35.6286 8.22266C33.0798 8.38534 31.1275 10.4461 31.1275 12.9948C31.1275 15.5436 33.134 17.6586 35.6286 17.767C35.737 17.767 35.8997 17.767 36.0624 17.767C33.5679 17.6043 31.6156 15.4894 31.6156 12.9948Z" fill="#25F4EE"/>
<path d="M37.147 8.16895C37.0385 8.16895 36.8216 8.16895 36.7132 8.16895C39.2077 8.38586 41.1057 10.4466 41.1057 12.9411C41.1057 15.4357 39.2077 17.4964 36.7132 17.7133C36.8216 17.7133 36.9843 17.7133 37.147 17.7133C39.8042 17.7133 41.9192 15.5441 41.9192 12.9411C41.9192 10.3381 39.8042 8.16895 37.147 8.16895Z" fill="#FE2C55"/>
<path d="M36.3878 15.3272C35.0863 15.3272 34.0559 14.2969 34.0559 12.9954C34.0559 11.6939 35.0863 10.6635 36.3878 10.6635C37.6893 10.6635 38.7196 11.6939 38.7196 12.9954C38.7196 14.2426 37.6893 15.3272 36.3878 15.3272ZM36.3878 8.16895C33.7305 8.16895 31.6156 10.3381 31.6156 12.9411C31.6156 15.5441 33.7848 17.7133 36.3878 17.7133C39.045 17.7133 41.16 15.5441 41.16 12.9411C41.16 11.6939 40.6719 10.4466 39.75 9.52468C38.8281 8.60278 37.635 8.16895 36.3878 8.16895Z" fill="#333333"/>
</g>
<defs>
<clipPath id="clip0">
<path d="M0 0H200V24H0V0Z" fill="white"/>
</clipPath>
</defs>
</svg>
