<svg width="120" height="24" viewBox="0 0 120 24" fill="none" xmlns="http://www.w3.org/2000/svg">
<path d="M2.14245 17.148L0 15.8625V3.84527H4.97126C5.61286 3.8416 6.24292 4.01627 6.79138 4.34993C7.93801 5.04567 8.62931 6.2996 8.60669 7.64266C8.61312 8.31748 8.4434 8.98225 8.11438 9.57106C7.79858 10.1379 7.3438 10.6146 6.79298 10.9563C6.24609 11.296 5.61468 11.4742 4.97126 11.4705H2.14245V17.148ZM2.14245 9.39429H4.93438C5.19806 9.39768 5.45594 9.31661 5.67044 9.16288C5.90152 8.99522 6.08951 8.77489 6.21888 8.52008C6.36018 8.24892 6.43235 7.94694 6.42896 7.64106C6.44282 7.19036 6.28254 6.7517 5.98155 6.41652C5.72091 6.10841 5.33744 5.93187 4.93438 5.9344H2.14245V9.39429Z" fill="#333333"/>
<path d="M18.4674 17.1481L16.3923 15.8978V15.8191C16.1065 16.107 15.786 16.358 15.4381 16.5664C14.8578 16.916 14.1908 17.0943 13.5138 17.0806C12.7622 17.0868 12.0252 16.8722 11.3938 16.4635C10.7483 16.0447 10.2258 15.4612 9.87996 14.773C9.49812 14.005 9.30669 13.1561 9.3219 12.2982C9.30634 11.4403 9.50419 10.592 9.8976 9.82983C10.2639 9.13152 10.8155 8.54816 11.4916 8.14409C12.1926 7.73534 12.9915 7.52588 13.8024 7.53825C14.3995 7.52648 14.9889 7.67401 15.5103 7.96571C15.8315 8.14875 16.1279 8.37235 16.3923 8.63101V7.82751H18.4674V17.1481ZM13.9195 9.45861C13.4611 9.4513 13.0104 9.57746 12.6222 9.82179C12.2408 10.0684 11.9336 10.4146 11.7338 10.823C11.5148 11.2805 11.405 11.7828 11.413 12.2901C11.4046 12.8006 11.5144 13.3062 11.7338 13.767C11.9321 14.1811 12.2393 14.5333 12.6222 14.7858C13.0082 15.0346 13.459 15.1637 13.9179 15.157C14.3879 15.1672 14.8503 15.0381 15.2473 14.7858C15.6295 14.5329 15.936 14.1807 16.1341 13.767C16.3535 13.3062 16.4633 12.8006 16.4549 12.2901C16.4622 11.7896 16.3523 11.2942 16.1341 10.8438C15.9336 10.4328 15.6261 10.0836 15.2441 9.83304C14.8492 9.57987 14.3883 9.44958 13.9195 9.45861Z" fill="#333333"/>
<path d="M22.4363 17.1939L20.3772 15.9549V7.82346H22.4363V8.82623C22.7092 8.52464 23.0247 8.26476 23.3728 8.05487C23.9139 7.71542 24.5401 7.53707 25.1785 7.54058C26.0075 7.54058 26.665 7.71579 27.1301 8.0629C27.5963 8.41247 27.9385 8.90241 28.1067 9.46099C28.2919 10.0746 28.3827 10.713 28.3761 11.354V17.1939L26.317 15.9565V11.4713C26.3221 11.0987 26.268 10.7277 26.1567 10.3722C26.0682 10.084 25.8872 9.83321 25.6419 9.65865C25.4094 9.49795 25.071 9.42242 24.6108 9.44331C24.2197 9.44097 23.8342 9.53536 23.4882 9.71811C23.1721 9.88639 22.9039 10.1325 22.7089 10.4332C22.5246 10.7207 22.4282 11.0558 22.4314 11.3974L22.4363 17.1939Z" fill="#333333"/>
<path d="M34.353 20.9994C33.6998 20.9976 33.0507 20.8951 32.4286 20.6957C31.8605 20.5304 31.3292 20.2576 30.8634 19.8922L30.7672 19.8134L31.5466 18.1679L31.707 18.2884C32.0737 18.5585 32.4852 18.7614 32.9225 18.8878C33.3892 19.0374 33.8758 19.1148 34.3658 19.1176C35.2301 19.1176 35.8972 18.9071 36.3495 18.4925C36.8306 18.0506 37.0166 17.4672 37.023 16.4034V15.8281C36.8959 15.9713 36.7582 16.1045 36.6109 16.2266C36.2884 16.4897 35.9256 16.6986 35.5364 16.8453C35.1269 17.0025 34.6921 17.0831 34.2535 17.0832C32.6051 17.1154 31.0763 16.2242 30.2893 14.7723C29.8808 14.0171 29.6731 13.1693 29.6864 12.3104C29.6707 11.4496 29.8756 10.5992 30.2813 9.84043C31.0527 8.40346 32.5564 7.51445 34.1846 7.53278C34.8402 7.52149 35.4873 7.68333 36.0608 8.00202C36.4047 8.19314 36.7236 8.42633 37.0102 8.69624V7.814H39.066V16.2186C39.066 17.5187 38.8752 18.343 38.4069 19.063C37.9871 19.7197 37.3805 20.2353 36.6654 20.543C35.9336 20.8513 35.1467 21.0067 34.353 20.9994ZM34.4155 9.44028C33.9366 9.43255 33.4654 9.56189 33.0572 9.81311C32.6593 10.064 32.3355 10.4169 32.1191 10.8352C31.8843 11.2896 31.7658 11.7955 31.7743 12.3072C31.7654 12.8157 31.8833 13.3183 32.1175 13.7695C32.3365 14.1843 32.6606 14.534 33.0572 14.7835C33.4654 15.0348 33.9366 15.1641 34.4155 15.1564C34.9045 15.1671 35.3868 15.0401 35.8074 14.79C36.2042 14.5462 36.5256 14.1968 36.7359 13.7808C36.9655 13.3241 37.0811 12.8184 37.0727 12.3072C37.083 11.7933 36.968 11.2847 36.7376 10.8255C36.5225 10.4109 36.2008 10.0614 35.8058 9.81311C35.3874 9.55845 34.9049 9.42909 34.4155 9.44028Z" fill="#333333"/>
<path d="M42.8491 17.1464L40.79 15.9106V3L42.8491 4.23578V17.1464Z" fill="#333333"/>
<path d="M48.9829 17.104C48.1072 17.1215 47.2415 16.914 46.4684 16.5014C45.7576 16.1149 45.1676 15.5387 44.7638 14.8365C44.3492 14.1021 44.1382 13.2698 44.1528 12.4261C44.1261 11.5093 44.3478 10.6024 44.7942 9.80182C45.2026 9.09633 45.7946 8.51532 46.5069 8.12091C47.2194 7.73211 48.0193 7.5324 48.8306 7.54078C49.5705 7.53403 50.298 7.73199 50.9329 8.11287C51.5602 8.50009 52.0811 9.03809 52.4484 9.67809C52.8252 10.3209 53 11.0649 53 12.0098L52.9808 12.9146H46.2359C46.3327 13.5449 46.6533 14.1189 47.1388 14.5312C47.6631 14.9715 48.3399 15.1949 49.1513 15.1949C49.6457 15.2124 50.1362 15.1017 50.5753 14.8735C50.7068 14.7996 50.9201 14.6694 51.0372 14.5875C51.1686 14.4961 51.2945 14.3968 51.414 14.2902L51.6337 14.0989L52.6697 15.6272L52.5734 15.722C52.1181 16.1328 51.5936 16.4592 51.0243 16.6862C50.3795 16.9639 49.6848 17.1061 48.9829 17.104ZM46.3209 11.2079H50.9329C50.8938 10.8851 50.7698 10.5784 50.5737 10.3193C50.3826 10.0561 50.1268 9.84686 49.8312 9.71183C49.5053 9.55655 49.1497 9.47377 48.7889 9.46918C48.1218 9.46918 47.6407 9.59774 47.2318 9.887C46.7825 10.2062 46.4599 10.6739 46.3209 11.2079Z" fill="#333333"/>
<path d="M65.6114 11.4903L64.3266 11.0146L63.6553 11.6943L62.7215 11.0146L61.7292 11.8301L60.7076 11.0146L59.8323 12L59.161 10.913C58.7814 10.8113 57.5551 11.4561 57.5551 11.4561C57.5266 10.2027 59.1317 9.14698 59.1317 8.90882C59.1317 8.67066 58.0809 9.24865 56.4159 9.11285C54.7509 8.97706 54.4904 7.34686 55.9765 7.21037C57.4625 7.07389 59.0147 4.25568 61.1742 4.01752C63.3336 3.77937 65.1734 6.04744 65.1734 6.04744C65.9951 6.8608 67.6546 10.9805 67.6546 10.9805L66.2089 11.0975" fill="#333333"/>
<path d="M62.6228 11.0974L62.6388 9.92685L62.0086 9.26809L62.0824 9.19775L62.7391 9.88507L62.7217 11.016L62.6228 11.0974Z" fill="white"/>
<path d="M64.4137 11.0448L64.3266 11.0128L64.3329 9.78789L63.5878 9.18623L62.7222 9.94109L62.6553 9.86449L63.585 9.05322L64.4373 9.74124L64.4137 11.0448Z" fill="white"/>
<path d="M66.209 11.0966L65.9959 9.747L65.1602 9.29019L64.4144 9.80759L64.3566 9.72333L65.154 9.17041L66.0906 9.68294L66.3085 11.0889L66.209 11.0966Z" fill="white"/>
<path d="M66.0858 9.74301L66.0016 9.68591L66.6694 8.70264L66.7195 8.81197L66.0858 9.74301Z" fill="white"/>
<path d="M63.5357 9.12312L63.5245 7.86479L62.8323 7.13012L62.1687 7.87802L62.0928 7.81047L62.8302 6.979L63.6262 7.8237L63.6373 9.12243L63.5357 9.12312Z" fill="white"/>
<path d="M65.1066 9.23522L65.0383 7.77702L64.1658 7.1865L63.615 7.87591L63.5356 7.81254L64.1449 7.04932L65.1379 7.72131L65.2083 9.23034L65.1066 9.23522Z" fill="white"/>
<path d="M64.3101 5.74485L64.0513 5.75488L64.1043 7.12083L64.3631 7.1108L64.3101 5.74485Z" fill="white"/>
<path d="M65.3747 7.35405L65.1101 6.28443L64.6031 5.57135L64.1017 5.80741L63.2333 5.3694L62.8496 6.12148L62.8817 7.05113L62.78 7.05461L62.7466 6.09919L63.1888 5.23291L64.1031 5.6946L64.6191 5.46898L65.2069 6.251L65.4464 7.21895L65.8566 7.06854L65.9067 7.15907L65.3747 7.35405Z" fill="white"/>
<path d="M62.0795 4.39785L62.0376 4.04834L62.1429 4.06857L62.1813 4.38599L62.0795 4.39785Z" fill="white"/>
<path d="M60.9485 4.79854L60.3297 4.24184L60.426 4.20068L61.0162 4.7218L60.9485 4.79854Z" fill="white"/>
<path d="M62.7577 6.14285L61.9604 5.11989L61.3894 6.10107L60.2055 5.38172L58.8671 5.18465L58.9604 5.10805L60.2097 5.27936L60.9709 4.70555L61.9186 4.96669L62.0962 4.32324L62.8323 4.6185L63.2543 5.27448L63.1686 5.3295L62.764 4.70276L62.1644 4.46043L62.0105 5.01752L62.8385 6.07948L62.7577 6.14285ZM60.3142 5.3281L61.3539 5.96041L61.8768 5.0607L60.9904 4.81697L60.3142 5.3281Z" fill="white"/>
<path d="M62.8147 4.7081L62.7812 4.61183L63.2145 4.46045L63.3149 4.51417L62.8147 4.7081Z" fill="white"/>
<path d="M55.2803 7.84246C55.2751 7.9247 55.3375 7.99559 55.4198 8.00081C55.4594 7.99849 55.4964 7.98045 55.5226 7.95071C55.5488 7.92097 55.562 7.882 55.5593 7.84246C55.5593 7.75456 55.6347 7.54736 55.5593 7.54736C55.484 7.54736 55.2803 7.75456 55.2803 7.84246Z" fill="white"/>
<path d="M60.1052 7.98273C60.2482 7.98273 60.3642 7.71803 60.3642 7.39151C60.3642 7.06499 60.2482 6.80029 60.1052 6.80029C59.9622 6.80029 59.8463 7.06499 59.8463 7.39151C59.8463 7.71803 59.9622 7.98273 60.1052 7.98273Z" fill="white"/>
<path d="M59.01 7.72756C59.153 7.72756 59.269 7.50807 59.269 7.23731C59.269 6.96656 59.153 6.74707 59.01 6.74707C58.867 6.74707 58.751 6.96656 58.751 7.23731C58.751 7.50807 58.867 7.72756 59.01 7.72756Z" fill="white"/>
<path d="M65.1755 6.31091L65.1385 6.21604L65.2774 6.16162L65.3436 6.24534L65.1755 6.31091Z" fill="white"/>
<path d="M65.37 7.25696L65.0468 7.71875L65.2593 7.86751L65.5825 7.40572L65.37 7.25696Z" fill="white"/>
<path d="M60.8768 9.85054L60.9903 8.61587L61.5997 7.41325L61.3211 6.0414L61.4214 6.02051L61.6999 7.39305L62.1832 7.82201L62.0941 9.26559L60.8768 9.85054ZM61.0857 8.65209L60.9945 9.68271L61.9959 9.19943L62.0781 7.86589L61.6686 7.50238L61.0857 8.65209Z" fill="white"/>
<path d="M60.7968 11.0853L60.7077 11.0143L60.886 9.75732L60.9946 9.76707L60.7968 11.0853Z" fill="white"/>
</svg>
