<svg width="200" height="24" viewBox="0 0 200 24" fill="none" xmlns="http://www.w3.org/2000/svg">
<path d="M14.8288 7.72871C13.6716 7.68586 12.5574 8.28586 12.0002 9.31443H11.9145V7.98586H9.64307V17.5859H12.0002V12.143C12.0002 10.8144 12.8145 9.95729 13.9288 9.95729C15.0431 9.95729 15.7716 10.6001 15.7716 11.7144V17.6287H18.1288V11.3287C18.1288 9.22871 16.8002 7.72871 14.8288 7.72871Z" fill="#333333"/>
<path d="M6.04286 13.5149C6.04286 14.8006 5.31429 15.7006 4.11429 15.7006C3.04286 15.7006 2.35714 15.1006 2.35714 13.9435V7.98633H0V14.372C0 16.472 1.2 17.8435 3.34286 17.8435C4.45714 17.8863 5.48572 17.372 6.08572 16.472H6.12857V17.5863H8.35714V7.98633H6L6.04286 13.5149Z" fill="#333333"/>
<path d="M21.7287 7.98633H19.3716V17.5863H21.7287V7.98633Z" fill="#333333"/>
<path d="M21.7287 4.98633H19.3716V6.9149H21.7287V4.98633Z" fill="#333333"/>
<path d="M33.6003 12.3149C33.3003 13.172 33.0432 14.4149 33.0432 14.4149H33.0003C33.0003 14.4149 32.7003 13.2149 32.4003 12.3149L30.7717 7.98633H28.2432L30.8146 14.8006C31.3717 16.2578 31.5432 16.8578 31.5432 17.4149C31.5432 18.1863 31.1146 18.7435 30.1289 18.7435H29.2289V20.7578H30.7289C32.6574 20.7578 33.3432 19.9863 34.0717 17.8435L37.4575 7.98633H34.9717L33.6003 12.3149Z" fill="#333333"/>
<path d="M26.1004 14.7578V9.65776H27.6004V7.98633H26.1004V4.98633H23.7861V7.98633H22.4575V9.65776H23.7861V15.272C23.7861 17.072 25.1575 17.5863 26.4004 17.5863C26.8289 17.5863 27.2575 17.5863 27.6861 17.5435V15.7006H27.0861C26.6147 15.7435 26.1861 15.4435 26.1432 14.972C26.0575 14.8863 26.0575 14.8435 26.1004 14.7578Z" fill="#333333"/>
<path d="M66.1719 14.3718H67.7576C67.9719 16.0861 69.0862 16.5575 70.5862 16.5575C72.2147 16.5575 72.8576 15.8718 72.8576 14.9289C72.8576 13.8146 72.0862 13.5575 70.2862 13.1718C68.3576 12.7861 66.6004 12.3575 66.6004 10.2146C66.6004 8.58608 67.8433 7.51465 70.1147 7.51465C72.5576 7.51465 73.7576 8.67179 73.9719 10.6004H72.3862C72.2147 9.31465 71.529 8.71465 70.0719 8.71465C68.6147 8.71465 68.1004 9.35751 68.1004 10.1289C68.1004 11.2004 69.0433 11.4146 70.7576 11.7575C72.729 12.1432 74.4004 12.6146 74.4004 14.8432C74.4004 16.8146 72.7719 17.8432 70.5433 17.8432C67.8433 17.8432 66.3433 16.6004 66.1719 14.3718Z" fill="#333333"/>
<path d="M56.3145 12.7C56.3145 9.44286 58.2002 7.51429 60.643 7.51429C61.8859 7.51429 63.043 8.11429 63.7287 9.14286H63.7716V4H65.3145V17.5857H63.7716V16.3857H63.7287C63.043 17.3714 61.8859 17.9286 60.6859 17.8857C57.9859 17.8429 56.3145 15.8286 56.3145 12.7ZM63.8573 12.7C63.8573 10.4286 62.743 8.84286 60.7287 8.84286C58.843 8.84286 57.9002 10.5143 57.9002 12.7C57.9002 14.8857 58.843 16.5571 60.7287 16.5571C62.9144 16.5571 63.8573 14.9286 63.8573 12.7Z" fill="#333333"/>
<path d="M44.4429 17.8857L49.1143 4.38574H50.8714L55.8429 17.8857H54L52.5857 13.8143H47.4857L46.1572 17.8857H44.4429ZM47.9572 12.3143H52.0714L50.7857 8.58574C50.4 7.47146 50.1 6.5286 49.9286 5.80003C49.7572 6.65717 49.5429 7.51431 49.2857 8.37146L47.9572 12.3143Z" fill="#333333"/>
</svg>
