<svg width="200" height="24" viewBox="0 0 200 24" fill="none" xmlns="http://www.w3.org/2000/svg">
<path d="M9.2484 4L4.62337 16.7004H6.93713L11.5597 4H9.2484ZM33.8926 15.0905C31.5979 15.0905 31.0989 14.9352 31.0989 14.6304C31.0989 14.3892 31.3038 14.3206 32.191 14.3206C32.191 14.3206 32.9749 14.3256 33.5366 14.3256C35.7471 14.3256 37.0588 12.7726 37.0588 10.6678V10.6497C37.0697 10.0492 36.9197 9.45684 36.6243 8.93396H37.9155V7.27114H33.2723C31.2187 7.28518 29.5402 8.4689 29.5402 10.6488V10.667C29.5402 11.5996 29.8442 13.5582 31.4649 13.5582C30.676 13.5582 29.5179 13.6746 29.356 14.6469C29.1709 15.7563 29.9664 16.3304 31.5516 16.7013H30.0647C30.0647 16.7013 29.1891 17.0193 29.1891 18.2228C29.1891 20.3648 31.1526 21 33.5589 21C35.6108 21 37.9989 20.3458 37.9989 17.9222C37.9981 15.895 36.4748 15.0905 33.8926 15.0905ZM31.5979 10.2589C31.5978 10.0692 31.635 9.88132 31.7075 9.70599C31.78 9.53067 31.8864 9.37134 32.0204 9.2371C32.1545 9.10287 32.3137 8.99636 32.489 8.92365C32.6642 8.85095 32.8521 8.81347 33.0418 8.81336H33.5548C34.5196 8.81336 35.0003 9.46016 35.0003 10.2589V10.9569C35.0003 12.1729 34.3527 12.6206 33.5548 12.6206H33.0418C32.243 12.6206 31.5962 12.0424 31.5962 10.9569L31.5979 10.2589ZM33.468 19.248C32.6007 19.248 31.1501 19.0604 31.1501 17.9742C31.1452 17.7203 31.224 17.4718 31.3743 17.2671C31.5247 17.0624 31.7382 16.9129 31.982 16.8417H33.7167C34.6427 16.8417 35.9106 16.8417 35.9106 17.9742C35.909 19.248 34.3527 19.248 33.468 19.248ZM41.2841 4H39.0719V13.9902C39.0719 15.9826 39.9475 16.7004 41.6921 16.7004H42.8973V14.7179H41.2841V4ZM45.4969 12.5909H51.4874V11.6137C51.4918 11.0214 51.4083 10.4318 51.2396 9.86409C51.0843 9.33988 50.829 8.85068 50.4879 8.42347C50.145 8.00389 49.7103 7.6687 49.2174 7.44378C48.6568 7.19555 48.0486 7.07345 47.4356 7.0861C46.855 7.07088 46.2786 7.18964 45.7513 7.43317C45.224 7.67671 44.7599 8.03847 44.3949 8.49038C44.0245 8.9539 43.7522 9.48787 43.5945 10.0599C43.4151 10.6951 43.3264 11.3525 43.331 12.0126C43.326 12.6733 43.4093 13.3317 43.5788 13.9704C43.7271 14.5359 43.9869 15.0661 44.3429 15.5299C44.6894 15.9703 45.1326 16.325 45.6381 16.5666C46.2019 16.8266 46.8174 16.9551 47.4381 16.9425C47.9257 16.9457 48.4106 16.8709 48.8746 16.7211C49.3209 16.5766 49.7397 16.3583 50.1137 16.0751C50.4796 15.7957 50.7865 15.4464 51.0165 15.0475C51.2541 14.6232 51.3914 14.1502 51.418 13.6647H49.3529C49.2959 14.1901 49.1051 14.5626 48.7639 14.7989C48.4555 15.0089 48.0988 15.1368 47.7272 15.1706C47.3885 15.1878 47.0492 15.1513 46.7219 15.0624C46.4921 14.9858 46.2784 14.8673 46.0916 14.713C45.9079 14.5625 45.7591 14.374 45.6555 14.1603C45.5455 13.9241 45.4913 13.6658 45.4969 13.4053V12.5909ZM45.5043 10.4208C45.5043 9.98597 45.6771 9.56891 45.9846 9.2614C46.2921 8.9539 46.7091 8.78115 47.144 8.78115H47.7223C48.8168 8.78115 49.362 9.5155 49.362 10.4208V10.9462H45.5043V10.4208ZM14.2493 16.9301C15.7907 16.9301 16.9562 15.838 16.9562 14.1992V16.7004H18.9726V7.50078H16.7613V13.6523C16.7611 14.0337 16.6095 14.3994 16.3398 14.669C16.0702 14.9387 15.7045 15.0903 15.3231 15.0905H14.7862C14.4047 15.0905 14.0388 14.939 13.769 14.6693C13.4992 14.3996 13.3475 14.0338 13.3472 13.6523V7.50078H11.1351V13.6399C11.1351 15.5506 12.2858 16.9301 14.2493 16.9301ZM25.1283 7.27114C23.5869 7.27114 22.4222 8.36317 22.4222 10.002V7.50078H20.4033V16.7004H22.6146V10.5489C22.6147 10.3599 22.6521 10.1728 22.7245 9.99828C22.7969 9.82373 22.903 9.66516 23.0367 9.53162C23.1704 9.39807 23.3291 9.29217 23.5037 9.21996C23.6783 9.14774 23.8655 9.11063 24.0544 9.11074H24.593C24.9744 9.11096 25.34 9.26255 25.6097 9.5322C25.8793 9.80186 26.0309 10.1675 26.0311 10.5489V16.7004H28.2425V10.5613C28.2425 8.65063 27.0943 7.27114 25.1283 7.27114Z" fill="#333333"/>
<path d="M2.31127 4L6.9363 16.7004H4.62255L0 4H2.31127Z" fill="black" fill-opacity="0.83"/>
</svg>
