<svg width="16" height="16" viewBox="0 0 16 16" fill="none" xmlns="http://www.w3.org/2000/svg">
<path d="M11.9139 8.65914H4.04856C3.69364 8.65914 3.40649 8.37199 3.40649 8.01707C3.40649 7.66215 3.69364 7.375 4.04856 7.375H11.9139C12.2688 7.375 12.556 7.66215 12.556 8.01707C12.556 8.37199 12.2688 8.65914 11.9139 8.65914Z" fill="#666666"/>
<path d="M2 1H14V-1H2V1ZM15 2V14H17V2H15ZM14 15H2V17H14V15ZM1 14V2H-1V14H1ZM2 15C1.44772 15 1 14.5523 1 14H-1C-1 15.6569 0.343146 17 2 17V15ZM15 14C15 14.5523 14.5523 15 14 15V17C15.6569 17 17 15.6569 17 14H15ZM14 1C14.5523 1 15 1.44772 15 2H17C17 0.343146 15.6569 -1 14 -1V1ZM2 -1C0.343146 -1 -1 0.343146 -1 2H1C1 1.44772 1.44772 1 2 1V-1Z" fill="#D8D8D8"/>
</svg>
