<svg width="16" height="16" viewBox="0 0 16 16" fill="none" xmlns="http://www.w3.org/2000/svg">
<path d="M12.9191 0.247337L10.702 2.4651L13.5308 5.29311L15.7479 3.07535C16.0603 2.76288 16.0602 2.25635 15.7477 1.94398L14.0504 0.247171C13.738 -0.0652027 13.2314 -0.065128 12.9191 0.247337Z" fill="#1A7DF1"/>
<path d="M10.055 3.12742L1.05207 12.145L0.0349026 15.4705C-0.0585706 15.7761 0.226367 16.0625 0.532441 15.9706L3.87489 14.967L12.8778 5.94941L10.055 3.12742Z" fill="#1A7DF1"/>
<path d="M12.9191 0.247337L10.702 2.4651L13.5308 5.29311L15.7479 3.07535C16.0603 2.76288 16.0602 2.25635 15.7477 1.94398L14.0504 0.247171C13.738 -0.0652027 13.2314 -0.065128 12.9191 0.247337Z" fill="#1A7DF1"/>
<path d="M10.055 3.12742L1.05207 12.145L0.0349026 15.4705C-0.0585706 15.7761 0.226367 16.0625 0.532441 15.9706L3.87489 14.967L12.8778 5.94941L10.055 3.12742Z" fill="#1A7DF1"/>
</svg>
