<svg width="16" height="16" viewBox="0 0 16 16" fill="none" xmlns="http://www.w3.org/2000/svg">
<g clip-path="url(#clip0)">
<path fill-rule="evenodd" clip-rule="evenodd" d="M5.64492 10.0286L13.5504 2.01006C13.857 1.69777 14.3539 1.69777 14.6605 2.01034L15.7701 3.14103C16.0766 3.45331 16.0766 3.95971 15.7701 4.27199L7.01626 13.1508L6.19024 13.9929C5.88367 14.3052 5.38669 14.3052 5.08011 13.9929L4.21487 13.1033L3.97227 12.8562C3.95922 12.8429 3.94673 12.8292 3.93479 12.8153L0.229683 9.00549C-0.0766087 8.69292 -0.0766086 8.18681 0.229969 7.87452L1.33981 6.74327C1.64639 6.43098 2.14308 6.43098 2.44966 6.74327L5.64492 10.0286Z" fill="#1A7DF1"/>
</g>
<defs>
<clipPath id="clip0">
<path d="M0 0H16V16H0V0Z" fill="white"/>
</clipPath>
</defs>
</svg>
