<svg width="21" height="20" viewBox="0 0 21 20" fill="none" xmlns="http://www.w3.org/2000/svg">
<path d="M14.336 16C14.336 17.1046 13.4406 18 12.336 18C11.2314 18 10.336 17.1046 10.336 16C10.336 14.8954 11.2314 14 12.336 14C13.4406 14 14.336 14.8954 14.336 16Z" fill="#333333"/>
<path d="M8.33337 14C8.88566 14 9.33337 13.5523 9.33337 13C9.33337 12.4477 8.88566 12 8.33337 12C7.78109 12 7.33337 12.4477 7.33337 13C7.33337 13.5523 7.78109 14 8.33337 14Z" fill="#333333"/>
<path fill-rule="evenodd" clip-rule="evenodd" d="M19.9552 16.032C21.003 17.7783 19.7451 20 17.7086 20H2.9634C0.92689 20 -0.331006 17.7783 0.716771 16.032L6.33998 6.66H6.336V1.5H5.086C4.67178 1.5 4.336 1.16421 4.336 0.75C4.336 0.335786 4.67178 0 5.086 0H15.586C16.0002 0 16.336 0.335786 16.336 0.75C16.336 1.16421 16.0002 1.5 15.586 1.5H14.336V6.66H14.332L19.9552 16.032ZM12.836 1.5V6.55022C12.8138 6.85359 12.8839 7.16195 13.0457 7.43174L18.669 16.8038C19.1169 17.5503 18.5791 18.5 17.7086 18.5H2.9634C2.09283 18.5 1.55511 17.5503 2.00301 16.8038L7.62622 7.43174C7.78803 7.16207 7.85814 6.85387 7.836 6.55063V1.5H12.836Z" fill="#333333"/>
</svg>
