<svg width="36" height="36" viewBox="0 0 36 36" fill="none" xmlns="http://www.w3.org/2000/svg">
<path fill-rule="evenodd" clip-rule="evenodd" d="M36.4961 35.9961L0.5 0H36.4961V35.9961Z" fill="#32B611"/>
<g clip-path="url(#clip0)">
<path d="M31.3032 5.94419C31.0484 5.69549 30.6443 5.70167 30.3955 5.95661L23.8186 12.6729L20.5904 9.44471C20.3417 9.19601 19.9313 9.19601 19.6826 9.44471C19.4339 9.69341 19.4339 10.1038 19.6826 10.3525L23.297 13.9668C23.3185 13.9966 23.3424 14.0254 23.3696 14.0519C23.4283 14.111 23.498 14.1579 23.5748 14.1899C23.6517 14.2219 23.7341 14.2384 23.8173 14.2384C23.9852 14.2384 24.153 14.1763 24.2774 14.0456L31.3157 6.85193C31.3748 6.79165 31.4213 6.72028 31.4526 6.64194C31.484 6.5636 31.4995 6.47984 31.4983 6.39547C31.4972 6.3111 31.4794 6.22779 31.4459 6.15034C31.4124 6.07289 31.3639 6.00283 31.3032 5.94419Z" fill="white"/>
</g>
<defs>
<clipPath id="clip0">
<rect width="12" height="12" fill="white" transform="translate(19.4961 4)"/>
</clipPath>
</defs>
</svg>
