<svg width="200" height="40" viewBox="0 0 200 40" fill="none" xmlns="http://www.w3.org/2000/svg">
<g opacity="0.3">
<path d="M35 19.9756C35.0063 16.02 36.186 12.1552 38.3899 8.87037C40.5938 5.58556 43.7226 3.02846 47.3805 1.52276C51.0383 0.017057 55.0607 -0.369545 58.9384 0.411889C62.816 1.19332 66.3747 3.10766 69.1638 5.91258C71.953 8.71749 73.8473 12.2869 74.6069 16.1689C75.3665 20.0509 74.9572 24.071 73.431 27.7203C71.9047 31.3696 69.33 34.4841 66.0328 36.6694C62.7357 38.8547 58.8643 40.0127 54.9087 39.9967C43.9427 40.0037 35 31.0013 35 19.9756ZM72.3727 19.9756C72.3665 16.5515 71.3497 13.2053 69.4499 10.3566C67.5501 7.50779 64.8517 5.28313 61.6929 3.96142C58.5341 2.6397 55.0555 2.27973 51.693 2.92661C48.3305 3.57349 45.2337 5.19845 42.7908 7.59783C40.3479 9.99721 38.6675 13.0643 37.9603 16.4146C37.253 19.7649 37.5504 23.2495 38.8151 26.4315C40.0798 29.6135 42.2556 32.3515 45.0697 34.3022C47.8839 36.253 51.2112 37.3297 54.6347 37.3975C56.9488 37.4409 59.2484 37.0225 61.3989 36.1668C63.5494 35.311 65.5077 34.0351 67.1593 32.4136C68.8109 30.792 70.1226 28.8575 71.0178 26.7231C71.9129 24.5887 72.3735 22.2972 72.3727 19.9827V19.9756Z" fill="#02BED5"/>
<path d="M106.486 12.9964V7.76989C106.486 6.61428 107.227 6.06985 108.344 6.40002C108.562 6.45451 108.756 6.57999 108.895 6.75674C109.035 6.93349 109.111 7.15149 109.113 7.37649C109.113 7.47484 109.113 7.57319 109.113 7.67154C109.113 13.0573 109.113 18.4513 109.113 23.8535C109.113 25.5746 108.614 27.0885 107.304 28.2651C104.814 30.5061 100.529 30.2532 98.379 27.7418C97.5194 26.7209 97.059 25.4231 97.0829 24.0888C97.0829 21.8584 97.0477 19.6245 97.0829 17.3905C97.118 15.1566 98.0734 13.3161 100.156 12.308C102.239 11.2999 104.343 11.4369 106.268 12.8595C106.328 12.8946 106.373 12.9157 106.486 12.9964ZM99.7418 20.7239C99.7418 21.7776 99.7418 22.8314 99.7418 23.8851C99.7169 24.385 99.8019 24.8843 99.9906 25.3479C100.179 25.8115 100.467 26.2282 100.834 26.5686C101.923 27.531 103.202 27.6224 104.498 27.1236C105.903 26.5756 106.437 25.3674 106.468 23.9624C106.517 21.8057 106.507 19.642 106.468 17.4819C106.433 15.0231 104.361 13.5057 102.021 14.2012C100.648 14.6087 99.7629 15.8626 99.7348 17.4783C99.7278 18.5778 99.7418 19.6701 99.7418 20.7239Z" fill="#02BED5"/>
<path d="M92.6045 20.5416C92.6045 21.8623 92.6677 23.183 92.6045 24.5002C92.5209 25.8819 91.9261 27.1831 90.936 28.1505C89.9459 29.1178 88.6313 29.6822 87.248 29.7338C85.1686 29.8392 83.3527 29.2842 81.9512 27.686C80.339 25.849 80.3249 22.9301 81.902 21.2441C82.6939 20.4564 83.7008 19.92 84.7963 19.7022C86.2399 19.3509 87.6941 19.0348 89.1412 18.6941C89.928 18.5114 90.0123 18.392 90.0123 17.5806C90.0123 15.8244 89.222 14.6302 87.7538 14.1806C87.3189 14.0304 86.8576 13.9723 86.3991 14.0098C85.9406 14.0474 85.4949 14.1799 85.0904 14.3989C84.6858 14.6178 84.3311 14.9185 84.0489 15.2818C83.7667 15.6451 83.5631 16.0632 83.451 16.5093C83.3999 16.7994 83.3718 17.093 83.3667 17.3875C83.367 17.658 83.2633 17.9184 83.0769 18.1145C82.8906 18.3107 82.6359 18.4277 82.3657 18.4412C81.1609 18.5782 80.6375 18.0689 80.7218 16.8465C80.8124 15.6162 81.3106 14.4512 82.1376 13.5357C82.9646 12.6203 84.0732 12.0067 85.288 11.7921C86.6414 11.4889 88.0561 11.6242 89.3274 12.1785C91.4946 13.1514 92.5694 14.869 92.6396 17.2153C92.6748 18.3253 92.6396 19.4352 92.6396 20.5452L92.6045 20.5416ZM90.0088 20.8648C88.9024 21.1247 87.8521 21.3565 86.8054 21.6165C86.1204 21.7567 85.4475 21.9505 84.7928 22.196C84.2474 22.4231 83.8082 22.848 83.5632 23.3855C83.3182 23.923 83.2857 24.5333 83.4721 25.0938C83.6732 25.757 84.0837 26.3372 84.6422 26.7475C85.2007 27.1578 85.8771 27.3762 86.5701 27.3699C88.1472 27.391 89.3801 26.5269 89.8051 25.0657C90.1844 23.6888 89.9069 22.2803 90.0018 20.8648H90.0088Z" fill="#03BED5"/>
<path d="M144.143 11.5914C144.981 11.6067 145.806 11.803 146.562 12.1667C147.317 12.5304 147.985 13.0531 148.519 13.6988C149.212 14.5254 149.576 15.5783 149.542 16.6563C149.542 17.4537 149.092 17.8436 148.235 17.8506C147.378 17.8576 146.911 17.4748 146.893 16.6599C146.897 16.2067 146.776 15.7612 146.543 15.3726C146.31 14.9839 145.974 14.6673 145.572 14.4575C145.063 14.1532 144.486 13.9809 143.894 13.9564C143.301 13.9318 142.712 14.0558 142.179 14.317C141.822 14.4699 141.51 14.7127 141.273 15.0218C141.037 15.331 140.885 15.696 140.832 16.0813C140.778 16.4667 140.825 16.8594 140.969 17.2211C141.112 17.5828 141.346 17.9013 141.649 18.1456C142.368 18.7111 143.211 19.0986 144.108 19.2766C145.428 19.6279 146.725 20.0318 147.835 20.8643C149.369 22.0129 149.889 23.59 149.682 25.4305C149.616 26.3015 149.287 27.1321 148.74 27.8129C148.193 28.4937 147.452 28.993 146.616 29.245C144.136 30.1231 141.779 29.8948 139.71 28.1C139.192 27.6621 138.784 27.1083 138.52 26.4834C138.256 25.8585 138.142 25.1801 138.189 24.5032C138.221 23.8464 138.695 23.474 139.478 23.4495C140.262 23.4249 140.831 23.8007 140.796 24.4329C140.704 26.0241 142.232 27.2254 143.718 27.2429C144.345 27.269 144.972 27.1834 145.569 26.99C147.504 26.3086 147.434 23.8604 146.254 22.8875C145.393 22.185 144.368 21.8618 143.317 21.5914C142.263 21.3474 141.255 20.9321 140.335 20.362C139.64 19.9237 139.073 19.3086 138.692 18.5796C138.312 17.8505 138.132 17.0335 138.17 16.2121C138.209 15.3907 138.465 14.5942 138.912 13.9039C139.359 13.2137 139.981 12.6545 140.715 12.2833C141.777 11.7562 142.959 11.5175 144.143 11.5914Z" fill="#03BED5"/>
<path d="M133.7 18.6165C133.7 20.4852 133.757 22.3538 133.7 24.2189C133.581 27.5523 131.168 29.8073 127.831 29.8389C125.875 29.8389 124.185 29.2453 122.914 27.7138C122.061 26.6519 121.623 25.3163 121.681 23.9555C121.681 20.2744 121.681 16.5945 121.681 12.9158C121.681 12.3995 121.804 11.9604 122.334 11.7602C122.603 11.6342 122.902 11.5868 123.196 11.6234C123.491 11.6601 123.769 11.7794 123.999 11.9674C124.152 12.1469 124.257 12.3619 124.305 12.5927C124.335 12.7583 124.342 12.9273 124.326 13.0949C124.326 16.6882 124.326 20.285 124.326 23.8817C124.326 24.9882 124.631 25.9892 125.53 26.7304C126.028 27.1364 126.631 27.3928 127.269 27.4699C127.907 27.547 128.554 27.4416 129.134 27.1659C130.378 26.6531 130.89 25.5888 131.038 24.3067C131.049 24.1243 131.049 23.9413 131.038 23.7588C131.038 20.1948 131.038 16.6285 131.038 13.0598C131.038 11.8761 131.927 11.3036 133.029 11.7426C133.197 11.8003 133.345 11.9035 133.457 12.0406C133.57 12.1777 133.642 12.3433 133.665 12.5189C133.693 12.7132 133.707 12.9092 133.707 13.1055C133.707 14.946 133.707 16.783 133.707 18.6236L133.7 18.6165Z" fill="#02BED5"/>
<path d="M155.632 14.4856H153.37C152.668 14.4856 152.295 14.0851 152.278 13.33C152.26 12.5748 152.661 12.1252 153.367 12.1147C154.073 12.1041 154.828 12.1147 155.618 12.1147V11.6475C155.618 10.3128 155.618 8.97801 155.618 7.64328C155.618 7.11992 155.748 6.67383 156.272 6.48767C156.851 6.28395 157.466 6.23829 157.926 6.71247C158.131 6.97021 158.245 7.28909 158.249 7.61869C158.281 8.93938 158.249 10.2601 158.249 11.5808V12.1111H158.706C160.069 12.1111 161.431 12.1111 162.794 12.1111C163.237 12.1111 163.651 12.1814 163.869 12.6204C164.003 12.846 164.067 13.1061 164.053 13.368C164.04 13.6299 163.949 13.8819 163.792 14.0922C163.577 14.32 163.283 14.456 162.97 14.4715C161.565 14.5102 160.16 14.4891 158.755 14.4891H158.288V14.9738C158.288 18.2521 158.288 21.5246 158.288 24.7912C158.288 25.8203 158.562 26.7406 159.549 27.2288C160.015 27.4687 160.539 27.5719 161.061 27.5265C161.583 27.4811 162.082 27.289 162.499 26.9724C163.152 26.5228 163.714 26.6211 164.175 27.2288C164.281 27.3516 164.361 27.4952 164.409 27.6505C164.457 27.8058 164.472 27.9693 164.454 28.1308C164.435 28.2923 164.383 28.4482 164.302 28.5886C164.22 28.729 164.109 28.8509 163.978 28.9464C161.87 30.4849 157.817 30.2952 156.25 27.4571C155.828 26.6599 155.619 25.7669 155.643 24.8649C155.643 21.5866 155.643 18.3001 155.643 15.0054L155.632 14.4856Z" fill="#01BDD4"/>
<path d="M116.869 21.472C116.869 24.3522 116.914 27.229 116.869 30.1057C116.854 31.45 116.431 32.7582 115.656 33.857C114.882 34.9559 113.792 35.7937 112.531 36.2595C111.505 36.6354 110.69 36.126 110.623 35.0723C110.592 34.8327 110.643 34.5896 110.766 34.3819C110.89 34.1743 111.079 34.0142 111.305 33.9272C113.444 32.9964 114.273 31.2894 114.273 29.0519C114.273 23.6603 114.273 18.2687 114.273 12.8946C114.273 12.3818 114.357 11.9251 114.877 11.7144C115.14 11.5748 115.438 11.516 115.734 11.5453C116.031 11.5747 116.312 11.691 116.542 11.8795C116.772 12.1362 116.897 12.4694 116.893 12.8138C116.921 15.7045 116.911 18.5988 116.911 21.4896L116.869 21.472Z" fill="#01BDD4"/>
<path d="M114.255 8.38079C114.255 8.15599 114.255 7.93119 114.255 7.70991C114.248 7.53029 114.278 7.35105 114.344 7.18388C114.41 7.01671 114.511 6.86538 114.639 6.73975C114.768 6.61413 114.922 6.51703 115.09 6.45482C115.259 6.3926 115.439 6.36666 115.618 6.37868C115.798 6.36297 115.979 6.38511 116.15 6.44366C116.321 6.50222 116.477 6.5959 116.61 6.71866C116.742 6.84143 116.847 6.99055 116.918 7.15644C116.99 7.32233 117.025 7.50129 117.023 7.68181C117.041 8.15599 117.041 8.63369 117.023 9.11138C117 9.46659 116.84 9.79903 116.578 10.0396C116.315 10.2802 115.97 10.4104 115.614 10.4031C115.258 10.3959 114.919 10.2518 114.666 10.0007C114.414 9.74971 114.268 9.41106 114.259 9.05518C114.252 8.83039 114.255 8.60559 114.255 8.38079Z" fill="#04BED5"/>
<path d="M47.2409 24.3874L48.8391 20.8995C48.9515 21.1524 49.0323 21.335 49.1096 21.5142C49.4397 22.2588 49.7769 22.9999 50.086 23.7516C50.1456 23.9149 50.1456 24.0941 50.086 24.2574C49.7348 25.0723 49.3835 25.8731 49.0323 26.6845C49.0121 26.7716 48.9594 26.8477 48.885 26.8973C48.8106 26.9469 48.72 26.9663 48.6319 26.9515C47.7608 26.9515 46.8756 26.9515 46.0186 26.9515C45.8726 26.9499 45.7329 26.892 45.6287 26.7899C44.3361 25.1109 43.0786 23.4144 42.2005 21.4896C41.6627 20.4342 41.3914 19.2633 41.4102 18.079C41.4109 17.6596 41.496 17.2446 41.6606 16.8588C41.8251 16.473 42.0657 16.1243 42.3679 15.8335C42.6702 15.5428 43.0279 15.3159 43.4198 15.1664C43.8116 15.0169 44.2296 14.9478 44.6487 14.9634C46.3277 14.9458 47.8275 15.5711 49.3203 16.2279C49.7699 16.4246 50.209 16.6424 50.7007 16.8742C50.8131 16.6283 50.922 16.393 51.0274 16.1717C52.1818 13.5092 53.3362 10.8468 54.4907 8.18435C54.5215 8.07862 54.589 7.98734 54.681 7.92684C54.7731 7.86634 54.8836 7.84058 54.9929 7.85418C55.85 7.87291 56.707 7.87291 57.5641 7.85418C57.6722 7.83822 57.7824 7.86126 57.8751 7.91918C57.9678 7.97711 58.0368 8.06612 58.0699 8.1703C60.8798 14.4927 63.6992 20.8035 66.5279 27.1025C66.5577 27.178 66.57 27.2592 66.5639 27.3401C66.5578 27.421 66.5335 27.4995 66.4928 27.5697C65.8465 28.2511 65.1756 28.9114 64.5012 29.5893C63.4088 28.7569 62.3445 27.9385 61.2732 27.1306C58.0066 24.6254 54.596 22.3137 51.059 20.2075C49.3337 19.1516 47.466 18.3485 45.5128 17.8226C45.2278 17.7491 44.9358 17.7067 44.6417 17.6961C44.1991 17.6961 43.9989 17.8577 44.0165 18.3003C44.0329 18.7047 44.1123 19.104 44.2518 19.484C44.9332 21.2753 46.0502 22.8032 47.2409 24.3874ZM62.2778 24.3874L62.3691 24.4611L62.334 24.3347C62.3199 24.2675 62.3 24.2017 62.2743 24.138C60.3003 19.7193 58.3239 15.3029 56.3452 10.8889C56.3042 10.8183 56.2572 10.7513 56.2047 10.6887C55.1088 13.1721 54.027 15.6062 52.9381 18.0649L53.6406 18.5215C55.1369 19.4875 56.6473 20.4358 58.1225 21.4299C59.5205 22.3958 60.8904 23.4004 62.2778 24.3803V24.3874Z" fill="#02BED5"/>
</g>
</svg>
