<svg width="14" height="14" viewBox="0 0 21 20" fill="none" xmlns="http://www.w3.org/2000/svg">
<path d="M8.086 0.5C8.086 0.223858 8.30986 0 8.586 0H12.086C12.3621 0 12.586 0.223858 12.586 0.5V4C12.586 4.27614 12.3621 4.5 12.086 4.5H8.586C8.30986 4.5 8.086 4.27614 8.086 4V0.5Z" fill="#FFFFFF"/>
<path d="M13.336 3H15.336C16.4406 3 17.336 3.89543 17.336 5V6.75H18.836V5C18.836 3.067 17.269 1.5 15.336 1.5H13.336V3Z" fill="#FFFFFF"/>
<path d="M16.336 12C16.0599 12 15.836 11.7761 15.836 11.5V8C15.836 7.72386 16.0599 7.5 16.336 7.5H19.836C20.1121 7.5 20.336 7.72386 20.336 8V11.5C20.336 11.7761 20.1121 12 19.836 12H16.336Z" fill="#FFFFFF"/>
<path d="M17.336 12.75V15C17.336 16.1046 16.4406 17 15.336 17H13.336V18.5H15.336C17.269 18.5 18.836 16.933 18.836 15V12.75H17.336Z" fill="#FFFFFF"/>
<path d="M7.336 3V1.5H5.336C3.403 1.5 1.836 3.067 1.836 5V6.75H3.336V5C3.336 3.89543 4.23143 3 5.336 3H7.336Z" fill="#FFFFFF"/>
<path d="M8.086 16C8.086 15.7239 8.30986 15.5 8.586 15.5H12.086C12.3621 15.5 12.586 15.7239 12.586 16V19.5C12.586 19.7761 12.3621 20 12.086 20H8.586C8.30986 20 8.086 19.7761 8.086 19.5V16Z" fill="#FFFFFF"/>
<path d="M7.336 17V18.5H5.336C3.403 18.5 1.836 16.933 1.836 15V12.75H3.336V15C3.336 16.1046 4.23143 17 5.336 17H7.336Z" fill="#FFFFFF"/>
<path d="M0.835999 7.5H4.336C4.61214 7.5 4.836 7.72386 4.836 8V11.5C4.836 11.7761 4.61214 12 4.336 12H0.835999C0.559856 12 0.335999 11.7761 0.335999 11.5V8C0.335999 7.72386 0.559856 7.5 0.835999 7.5Z" fill="#FFFFFF"/>
</svg>
