<svg width="16" height="16" viewBox="0 0 16 16" fill="none" xmlns="http://www.w3.org/2000/svg">
<path fill-rule="evenodd" clip-rule="evenodd" d="M8.70917 1.3694C8.39398 0.823481 7.60602 0.823481 7.29083 1.3694L0.110931 13.8054C-0.204256 14.3513 0.189727 15.0337 0.820101 15.0337H15.1799C15.8103 15.0337 16.2043 14.3513 15.8891 13.8054L8.70917 1.3694ZM8.73289 9.53194C8.73289 9.86519 8.39964 10.1318 8.06639 10.1318H7.93309C7.59984 10.1318 7.26659 9.86519 7.26659 9.53194L7.06664 5.79955C6.99999 5.26635 7.46654 4.7998 7.99974 4.7998C8.53294 4.7998 8.99949 5.26635 8.93284 5.79955L8.73289 9.53194ZM8.9595 11.84C8.9595 12.3701 8.52981 12.7998 7.99975 12.7998C7.46969 12.7998 7.03999 12.3701 7.03999 11.84C7.03999 11.31 7.46969 10.8803 7.99975 10.8803C8.52981 10.8803 8.9595 11.31 8.9595 11.84Z" fill="#E26D68"/>
</svg>
