<svg width="16" height="16" viewBox="0 0 16 16" fill="none" xmlns="http://www.w3.org/2000/svg">
<path d="M12.9188 0.247337L10.7017 2.4651L13.5306 5.29311L15.7477 3.07535C16.06 2.76288 16.06 2.25635 15.7475 1.94398L14.0502 0.247171C13.7377 -0.0652027 13.2312 -0.065128 12.9188 0.247337Z" fill="#333333"/>
<path d="M10.0547 3.12742L1.05183 12.145L0.0346585 15.4705C-0.0588147 15.7761 0.226123 16.0625 0.532197 15.9706L3.87465 14.967L12.8776 5.94941L10.0547 3.12742Z" fill="#333333"/>
<path d="M12.9188 0.247337L10.7017 2.4651L13.5306 5.29311L15.7477 3.07535C16.06 2.76288 16.06 2.25635 15.7475 1.94398L14.0502 0.247171C13.7377 -0.0652027 13.2312 -0.065128 12.9188 0.247337Z" fill="#333333"/>
<path d="M10.0547 3.12742L1.05183 12.145L0.0346585 15.4705C-0.0588147 15.7761 0.226123 16.0625 0.532197 15.9706L3.87465 14.967L12.8776 5.94941L10.0547 3.12742Z" fill="#333333"/>
</svg>
