<svg width="16" height="16" viewBox="0 0 16 16" fill="none" xmlns="http://www.w3.org/2000/svg">
<path d="M15.8252 14.8852L10.9626 9.9918L10.9063 9.9595C12.996 7.30283 12.554 3.43492 9.90166 1.32735C7.24934 -0.780212 3.40749 -0.328014 1.31778 2.32865C-0.77193 4.98532 -0.329876 8.85323 2.31441 10.9608C4.5729 12.7615 7.77177 12.7292 9.99811 10.8881C9.99811 10.8881 9.99811 10.9204 10.0303 10.9285L14.8929 15.8219C15.1581 16.0722 15.576 16.0561 15.8252 15.7896C16.0583 15.5312 16.0583 15.1436 15.8252 14.8852ZM6.09196 10.9608C3.42356 10.9608 1.25348 8.78055 1.25348 6.09966C1.25348 3.41877 3.42356 1.23853 6.09196 1.23853C8.76036 1.23853 10.9304 3.41877 10.9304 6.09966C10.9304 8.78863 8.7684 10.9608 6.09196 10.9608Z" fill="#333333"/>
</svg>
