<svg width="200" height="40" viewBox="0 0 200 40" fill="none" xmlns="http://www.w3.org/2000/svg">
<g clip-path="url(#clip0)">
<path d="M31.8224 12.6767L37.73 23.9383C38.1916 24.7383 39.0224 25.2614 39.9454 25.3229L52.0377 25.2921C52.8685 25.2921 53.207 24.6767 52.807 23.9075L46.8993 12.646C46.4377 11.846 45.607 11.3229 44.6839 11.2614H32.53C31.7608 11.2921 31.4531 11.9075 31.8224 12.6767Z" fill="#86CF00"/>
<path d="M54.7761 25.8152L58.3454 32.4921C58.6223 32.9844 59.1146 33.2921 59.6684 33.3228L66.8684 33.2613C67.3607 33.2613 67.5454 32.8921 67.2992 32.4305L63.73 25.7536C63.4531 25.2613 62.9608 24.9844 62.4069 24.9536L55.2069 25.0152H55.1761C54.7146 24.9844 54.53 25.3536 54.7761 25.8152Z" fill="#86CF00"/>
<path d="M54.8071 0.4L47.6071 9.63077C47.1148 10.4 47.0532 11.3538 47.4532 12.1538L53.484 23.3846C53.884 24.1538 54.6225 24.2769 55.1148 23.6308L62.3148 14.4C62.8071 13.6308 62.8686 12.6769 62.4686 11.8769L56.4378 0.646154C56.284 0.276923 55.9148 0 55.5148 0C55.2378 0.0307692 54.9917 0.184615 54.8071 0.4Z" fill="#0091D0"/>
<path d="M53.1455 25.9079L48.8686 31.4156C48.5609 31.8771 48.5301 32.431 48.7763 32.9233L52.3455 39.631C52.5917 40.0925 53.0224 40.1541 53.3301 39.7848L57.6071 34.2771C57.9147 33.8156 57.9455 33.2617 57.6994 32.7694L54.0994 26.0925C54.0071 25.8771 53.7917 25.7233 53.5455 25.6925C53.3917 25.6925 53.2378 25.7848 53.1455 25.9079Z" fill="#0091D0"/>
<path d="M131.792 9.78516H134.192V27.8775H131.792V9.78516Z" fill="#0096D6"/>
<path d="M88.7454 15.5082C85.2993 15.5082 82.4993 18.3082 82.4993 21.7544V33.2621H84.8993V21.7544C84.8993 19.6313 86.6223 17.9082 88.7454 17.9082C90.8685 17.9082 92.5916 19.6313 92.5916 21.7544C92.5916 23.8775 90.8685 25.6005 88.7454 25.6005C87.5762 25.6005 86.4993 25.0775 85.7608 24.1852V27.2313C88.8069 28.8621 92.5916 27.7236 94.2223 24.7082C95.8531 21.6621 94.7146 17.8775 91.6993 16.2467C90.8069 15.7544 89.7916 15.5082 88.7454 15.5082ZM102.284 15.5082C98.8377 15.5082 96.0377 18.3082 96.0377 21.7544V33.2621H98.4377V21.7544C98.4377 19.6313 100.161 17.9082 102.284 17.9082C104.407 17.9082 106.13 19.6313 106.13 21.7544C106.13 23.8775 104.407 25.6005 102.284 25.6005C101.115 25.6005 100.038 25.0775 99.2993 24.1852V27.2313C102.345 28.8621 106.13 27.7236 107.761 24.7082C109.392 21.6621 108.253 17.8775 105.238 16.2467C104.345 15.7544 103.33 15.5082 102.284 15.5082ZM74.8069 9.78516C71.3608 9.78516 68.5608 12.5852 68.5608 16.0313V27.8775H70.9608V16.0313C70.8993 13.9082 72.5608 12.1544 74.6839 12.0928C76.8069 12.0313 78.5608 13.6928 78.6223 15.8159C78.6223 15.8775 78.6223 15.9698 78.6223 16.0313V17.3852H72.4685V19.7852H78.6531V27.8775H81.0531V16.0313C81.0531 12.5852 78.2531 9.78516 74.8069 9.78516Z" fill="#86CF00"/>
<path d="M123.761 16.0313C123.761 13.9082 125.484 12.1852 127.607 12.1852H130.622V9.78516H127.607C124.161 9.78516 121.361 12.5852 121.361 16.0313V27.8775H123.761V20.0313H130.407V17.6313H123.761V16.0313ZM144.253 15.6005V23.139C144.192 24.6775 142.899 25.9082 141.361 25.8467C139.884 25.7852 138.715 24.6159 138.653 23.139V15.6005H136.253V23.1698C136.284 25.539 137.945 27.6005 140.253 28.1544V33.2928H142.653V28.1236C144.961 27.5698 146.622 25.5082 146.653 23.139V15.6005H144.253ZM157.761 22.7082C157.238 24.7698 155.146 26.0005 153.115 25.4775C151.084 24.9544 149.822 22.8621 150.345 20.8313C150.869 18.7698 152.961 17.539 154.992 18.0621C155.576 18.2159 156.13 18.4928 156.592 18.9236L151.207 22.0313L152.407 24.1236L154.899 22.6775L159.946 19.7544C158.838 16.4928 155.269 14.739 152.007 15.8467C148.745 16.9544 146.992 20.5236 148.099 23.7852C149.207 27.0467 152.776 28.8005 156.038 27.6929C158.253 26.9544 159.853 25.0159 160.192 22.739L157.761 22.7082ZM167.73 15.5082C166.346 15.5082 164.992 15.9698 163.884 16.8313V15.5698H161.515V27.8775H163.915V21.7544C163.915 19.6313 165.638 17.9082 167.761 17.9082H168.253V15.5082H167.73Z" fill="#0096D6"/>
<path d="M117.638 22.1848L111.669 19.3848C111.392 19.2309 111.269 18.8925 111.392 18.5848C111.484 18.3694 111.699 18.2463 111.915 18.2463H118.745V15.8463H111.915C110.253 15.8463 108.93 17.2002 108.93 18.8309C108.93 20.0002 109.607 21.0463 110.653 21.5386L116.622 24.3386C116.93 24.4617 117.053 24.8309 116.899 25.1386C116.807 25.354 116.592 25.4771 116.376 25.4771H109.392V27.8771H116.376C118.038 27.8771 119.361 26.554 119.361 24.8925C119.361 23.7232 118.715 22.6771 117.638 22.1848Z" fill="#86CF00"/>
</g>
<defs>
<clipPath id="clip0">
<rect width="200" height="40" fill="white"/>
</clipPath>
</defs>
</svg>
