<svg width="21" height="20" viewBox="0 0 21 20" fill="none" xmlns="http://www.w3.org/2000/svg">
<g clip-path="url(#clip0)">
<path fill-rule="evenodd" clip-rule="evenodd" d="M14.8026 10.4C14.5426 10.4 14.2726 10.3 14.0726 10.1L9.9026 5.93C9.5026 5.53 9.5026 4.88 9.9026 4.48L14.0726 0.3C14.4726 -0.1 15.1226 -0.1 15.5226 0.3L19.7026 4.47C20.1026 4.87 20.1026 5.52 19.7026 5.92L15.5326 10.1C15.3326 10.3 15.0626 10.4 14.8026 10.4ZM1.08262 20H7.82262C8.42262 20 8.90262 19.52 8.91262 18.92V12.17C8.91262 11.57 8.42262 11.09 7.83262 11.09H1.08262C0.482625 11.09 0.00262451 11.58 0.00262451 12.17V18.92C0.00262451 19.52 0.482625 20 1.08262 20ZM12.1726 20H18.9226C19.5226 20 20.0026 19.52 20.0026 18.92V12.17C20.0026 11.57 19.5126 11.09 18.9226 11.09H12.1726C11.5726 11.09 11.0926 11.58 11.0926 12.17V18.92C11.0926 19.52 11.5826 20 12.1726 20ZM1.08262 8.9H7.82262C8.42262 8.9 8.90262 8.42 8.90262 7.83V1.08C8.90262 0.48 8.42262 0 7.83262 0H1.08262C0.482624 0 0.00262451 0.48 0.00262451 1.08V7.82C0.00262451 8.42 0.482624 8.9 1.08262 8.9Z" fill="#333333"/>
</g>
<defs>
<clipPath id="clip0">
<path d="M0.00262451 0H20.0026V20H0.00262451V0Z" fill="white"/>
</clipPath>
</defs>
</svg>
