<svg width="181" height="32" viewBox="0 0 181 32" fill="none" xmlns="http://www.w3.org/2000/svg">
<rect x="0.5" y="0.5" width="180" height="31" rx="3.5" fill="white"/>
<path fill-rule="evenodd" clip-rule="evenodd" d="M32 10.4004C31.3814 10.4004 30.88 10.9018 30.88 11.5204V21.6004H33.12V11.5204C33.12 10.9018 32.6186 10.4004 32 10.4004ZM34.88 13.7602C34.88 13.1417 35.3814 12.6402 36 12.6402C36.6186 12.6402 37.12 13.1417 37.12 13.7602V21.6002H34.88V13.7602ZM26.88 17.1204C26.88 16.5018 27.3814 16.0004 28 16.0004C28.6186 16.0004 29.12 16.5018 29.12 17.1204V21.6004H26.88V17.1204Z" fill="#1A7DF1"/>
<path fill-rule="evenodd" clip-rule="evenodd" d="M38.4 9.2H25.6C25.3791 9.2 25.2 9.37909 25.2 9.6V22.4C25.2 22.6209 25.3791 22.8 25.6 22.8H38.4C38.6209 22.8 38.8 22.6209 38.8 22.4V9.6C38.8 9.37909 38.6209 9.2 38.4 9.2ZM25.6 8C24.7163 8 24 8.71634 24 9.6V22.4C24 23.2837 24.7163 24 25.6 24H38.4C39.2837 24 40 23.2837 40 22.4V9.6C40 8.71634 39.2837 8 38.4 8H25.6Z" fill="#1A7DF1"/>
<path d="M49.1006 21V10.9785H53.5439C54.4372 10.9785 55.1162 11.0697 55.5811 11.252C56.0459 11.4297 56.4173 11.7464 56.6953 12.2021C56.9733 12.6579 57.1123 13.1615 57.1123 13.7129C57.1123 14.4238 56.8822 15.0231 56.4219 15.5107C55.9616 15.9984 55.2507 16.3083 54.2891 16.4404C54.64 16.609 54.9066 16.7754 55.0889 16.9395C55.4762 17.2949 55.8431 17.7393 56.1895 18.2725L57.9326 21H56.2646L54.9385 18.915C54.5511 18.3135 54.2321 17.8532 53.9814 17.5342C53.7308 17.2152 53.5052 16.9919 53.3047 16.8643C53.1087 16.7367 52.9082 16.6478 52.7031 16.5977C52.5527 16.5658 52.3066 16.5498 51.9648 16.5498H50.4268V21H49.1006ZM50.4268 15.4014H53.2773C53.8835 15.4014 54.3574 15.3398 54.6992 15.2168C55.041 15.0892 55.3008 14.8887 55.4785 14.6152C55.6562 14.3372 55.7451 14.0365 55.7451 13.7129C55.7451 13.2389 55.5719 12.8493 55.2256 12.5439C54.8838 12.2386 54.3415 12.0859 53.5986 12.0859H50.4268V15.4014ZM64.0098 18.6621L65.2812 18.8193C65.0807 19.5622 64.7093 20.1387 64.167 20.5488C63.6247 20.959 62.932 21.1641 62.0889 21.1641C61.027 21.1641 60.1839 20.8382 59.5596 20.1865C58.9398 19.5303 58.6299 18.612 58.6299 17.4316C58.6299 16.2103 58.9443 15.2624 59.5732 14.5879C60.2021 13.9134 61.0179 13.5762 62.0205 13.5762C62.9912 13.5762 63.7842 13.9066 64.3994 14.5674C65.0146 15.2282 65.3223 16.1579 65.3223 17.3564C65.3223 17.4294 65.32 17.5387 65.3154 17.6846H59.9014C59.9469 18.4821 60.1725 19.0928 60.5781 19.5166C60.9837 19.9404 61.4896 20.1523 62.0957 20.1523C62.5469 20.1523 62.932 20.0339 63.251 19.7969C63.57 19.5599 63.8229 19.1816 64.0098 18.6621ZM59.9697 16.6729H64.0234C63.9688 16.0622 63.8138 15.6042 63.5586 15.2988C63.1667 14.8249 62.6585 14.5879 62.0342 14.5879C61.4691 14.5879 60.9928 14.777 60.6055 15.1553C60.2227 15.5335 60.0107 16.0394 59.9697 16.6729ZM66.833 23.7822V13.7402H67.9541V14.6836C68.2184 14.3145 68.5169 14.0387 68.8496 13.8564C69.1823 13.6696 69.5856 13.5762 70.0596 13.5762C70.6794 13.5762 71.2262 13.7357 71.7002 14.0547C72.1742 14.3737 72.5319 14.8249 72.7734 15.4082C73.015 15.987 73.1357 16.6227 73.1357 17.3154C73.1357 18.0583 73.0013 18.7282 72.7324 19.3252C72.4681 19.9176 72.0807 20.3734 71.5703 20.6924C71.0645 21.0068 70.5312 21.1641 69.9707 21.1641C69.5605 21.1641 69.1914 21.0775 68.8633 20.9043C68.5397 20.7311 68.2731 20.5124 68.0635 20.248V23.7822H66.833ZM67.9473 17.4111C67.9473 18.3454 68.1364 19.0358 68.5146 19.4824C68.8929 19.929 69.3509 20.1523 69.8887 20.1523C70.4355 20.1523 70.9027 19.9222 71.29 19.4619C71.682 18.9971 71.8779 18.2793 71.8779 17.3086C71.8779 16.3835 71.6865 15.6908 71.3037 15.2305C70.9255 14.7702 70.472 14.54 69.9434 14.54C69.4193 14.54 68.9544 14.7861 68.5488 15.2783C68.1478 15.766 67.9473 16.4769 67.9473 17.4111ZM74.168 17.3701C74.168 16.0257 74.5417 15.0299 75.2891 14.3828C75.9134 13.8451 76.6745 13.5762 77.5723 13.5762C78.5703 13.5762 79.3861 13.9043 80.0195 14.5605C80.653 15.2122 80.9697 16.1146 80.9697 17.2676C80.9697 18.2018 80.8285 18.9378 80.5459 19.4756C80.2679 20.0088 79.86 20.4235 79.3223 20.7197C78.7891 21.016 78.2057 21.1641 77.5723 21.1641C76.556 21.1641 75.7334 20.8382 75.1045 20.1865C74.4801 19.5348 74.168 18.596 74.168 17.3701ZM75.4326 17.3701C75.4326 18.2998 75.6354 18.9971 76.041 19.4619C76.4466 19.9222 76.957 20.1523 77.5723 20.1523C78.1829 20.1523 78.6911 19.9199 79.0967 19.4551C79.5023 18.9902 79.7051 18.2816 79.7051 17.3291C79.7051 16.4313 79.5 15.7523 79.0898 15.292C78.6842 14.8271 78.1784 14.5947 77.5723 14.5947C76.957 14.5947 76.4466 14.8249 76.041 15.2852C75.6354 15.7454 75.4326 16.4404 75.4326 17.3701ZM82.4053 21V13.7402H83.5127V14.8408C83.7952 14.3258 84.055 13.9863 84.292 13.8223C84.5335 13.6582 84.7979 13.5762 85.085 13.5762C85.4997 13.5762 85.9212 13.7083 86.3496 13.9727L85.9258 15.1143C85.625 14.9365 85.3242 14.8477 85.0234 14.8477C84.7546 14.8477 84.513 14.9297 84.2988 15.0938C84.0846 15.2533 83.932 15.4766 83.8408 15.7637C83.7041 16.2012 83.6357 16.6797 83.6357 17.1992V21H82.4053ZM89.7676 19.8994L89.9453 20.9863C89.599 21.0592 89.2891 21.0957 89.0156 21.0957C88.569 21.0957 88.2227 21.0251 87.9766 20.8838C87.7305 20.7425 87.5573 20.5579 87.457 20.3301C87.3568 20.0977 87.3066 19.6123 87.3066 18.874V14.6973H86.4043V13.7402H87.3066V11.9424L88.5303 11.2041V13.7402H89.7676V14.6973H88.5303V18.9424C88.5303 19.2933 88.5508 19.5189 88.5918 19.6191C88.6374 19.7194 88.708 19.7992 88.8037 19.8584C88.904 19.9176 89.0452 19.9473 89.2275 19.9473C89.3643 19.9473 89.5443 19.9313 89.7676 19.8994ZM90.9844 12.3936V10.9785H92.2148V12.3936H90.9844ZM90.9844 21V13.7402H92.2148V21H90.9844ZM94.0947 21V13.7402H95.2021V14.7725C95.7354 13.9749 96.5055 13.5762 97.5127 13.5762C97.9502 13.5762 98.3512 13.6559 98.7158 13.8154C99.085 13.9704 99.3607 14.1755 99.543 14.4307C99.7253 14.6859 99.8529 14.9889 99.9258 15.3398C99.9714 15.5677 99.9941 15.9665 99.9941 16.5361V21H98.7637V16.584C98.7637 16.0827 98.7158 15.709 98.6201 15.4629C98.5244 15.2122 98.3535 15.014 98.1074 14.8682C97.8659 14.7178 97.5811 14.6426 97.2529 14.6426C96.7288 14.6426 96.2754 14.8089 95.8926 15.1416C95.5143 15.4743 95.3252 16.1055 95.3252 17.0352V21H94.0947ZM101.662 21.6016L102.858 21.7793C102.909 22.1484 103.048 22.4173 103.275 22.5859C103.581 22.8138 103.998 22.9277 104.526 22.9277C105.096 22.9277 105.536 22.8138 105.846 22.5859C106.156 22.3581 106.365 22.0391 106.475 21.6289C106.538 21.3783 106.568 20.8519 106.563 20.0498C106.026 20.6833 105.356 21 104.554 21C103.556 21 102.783 20.64 102.236 19.9199C101.689 19.1999 101.416 18.3363 101.416 17.3291C101.416 16.6364 101.541 15.9984 101.792 15.415C102.043 14.8271 102.405 14.3737 102.879 14.0547C103.357 13.7357 103.918 13.5762 104.561 13.5762C105.417 13.5762 106.124 13.9225 106.68 14.6152V13.7402H107.814V20.0156C107.814 21.1458 107.698 21.9456 107.466 22.415C107.238 22.889 106.873 23.2627 106.372 23.5361C105.875 23.8096 105.262 23.9463 104.533 23.9463C103.667 23.9463 102.968 23.7503 102.435 23.3584C101.901 22.971 101.644 22.3854 101.662 21.6016ZM102.681 17.2402C102.681 18.1927 102.87 18.8877 103.248 19.3252C103.626 19.7627 104.1 19.9814 104.67 19.9814C105.235 19.9814 105.709 19.765 106.092 19.332C106.475 18.8945 106.666 18.2109 106.666 17.2812C106.666 16.3926 106.468 15.7227 106.071 15.2715C105.679 14.8203 105.205 14.5947 104.649 14.5947C104.103 14.5947 103.638 14.818 103.255 15.2646C102.872 15.7067 102.681 16.3652 102.681 17.2402ZM113.68 21V10.9785H117.439C118.205 10.9785 118.818 11.0811 119.278 11.2861C119.743 11.4867 120.105 11.7988 120.365 12.2227C120.63 12.6419 120.762 13.0817 120.762 13.542C120.762 13.9704 120.646 14.3737 120.413 14.752C120.181 15.1302 119.83 15.4355 119.36 15.668C119.966 15.8457 120.431 16.1488 120.755 16.5771C121.083 17.0055 121.247 17.5114 121.247 18.0947C121.247 18.5641 121.147 19.0016 120.946 19.4072C120.75 19.8083 120.507 20.1182 120.215 20.3369C119.923 20.5557 119.556 20.722 119.114 20.8359C118.677 20.9453 118.139 21 117.501 21H113.68ZM115.006 15.1895H117.173C117.761 15.1895 118.182 15.1507 118.438 15.0732C118.775 14.973 119.028 14.8066 119.196 14.5742C119.369 14.3418 119.456 14.0501 119.456 13.6992C119.456 13.3665 119.376 13.0749 119.217 12.8242C119.057 12.569 118.829 12.3958 118.533 12.3047C118.237 12.209 117.729 12.1611 117.009 12.1611H115.006V15.1895ZM115.006 19.8174H117.501C117.929 19.8174 118.23 19.8014 118.403 19.7695C118.709 19.7148 118.964 19.6237 119.169 19.4961C119.374 19.3685 119.543 19.1839 119.675 18.9424C119.807 18.6963 119.873 18.4137 119.873 18.0947C119.873 17.721 119.777 17.3975 119.586 17.124C119.395 16.846 119.128 16.6523 118.786 16.543C118.449 16.429 117.961 16.3721 117.323 16.3721H115.006V19.8174ZM127.673 21V19.9336C127.108 20.7539 126.34 21.1641 125.369 21.1641C124.941 21.1641 124.54 21.082 124.166 20.918C123.797 20.7539 123.521 20.5488 123.339 20.3027C123.161 20.0521 123.036 19.7467 122.963 19.3867C122.913 19.1452 122.888 18.7624 122.888 18.2383V13.7402H124.118V17.7666C124.118 18.4092 124.143 18.8421 124.193 19.0654C124.271 19.389 124.435 19.6442 124.686 19.8311C124.936 20.0133 125.246 20.1045 125.615 20.1045C125.984 20.1045 126.331 20.0111 126.654 19.8242C126.978 19.6328 127.206 19.3753 127.338 19.0518C127.475 18.7236 127.543 18.2497 127.543 17.6299V13.7402H128.773V21H127.673ZM130.715 12.3936V10.9785H131.945V12.3936H130.715ZM130.715 21V13.7402H131.945V21H130.715ZM133.798 21V10.9785H135.028V21H133.798ZM141.652 21V20.084C141.192 20.804 140.515 21.1641 139.622 21.1641C139.043 21.1641 138.51 21.0046 138.022 20.6855C137.539 20.3665 137.163 19.9222 136.895 19.3525C136.63 18.7783 136.498 18.1198 136.498 17.377C136.498 16.6523 136.619 15.9961 136.86 15.4082C137.102 14.8158 137.464 14.3623 137.947 14.0479C138.43 13.7334 138.97 13.5762 139.567 13.5762C140.005 13.5762 140.395 13.6696 140.736 13.8564C141.078 14.0387 141.356 14.278 141.57 14.5742V10.9785H142.794V21H141.652ZM137.763 17.377C137.763 18.3066 137.959 19.0016 138.351 19.4619C138.743 19.9222 139.205 20.1523 139.738 20.1523C140.276 20.1523 140.732 19.9336 141.105 19.4961C141.484 19.054 141.673 18.3818 141.673 17.4795C141.673 16.486 141.481 15.7568 141.099 15.292C140.716 14.8271 140.244 14.5947 139.684 14.5947C139.137 14.5947 138.679 14.818 138.31 15.2646C137.945 15.7113 137.763 16.4154 137.763 17.377ZM149.705 18.6621L150.977 18.8193C150.776 19.5622 150.405 20.1387 149.862 20.5488C149.32 20.959 148.627 21.1641 147.784 21.1641C146.722 21.1641 145.879 20.8382 145.255 20.1865C144.635 19.5303 144.325 18.612 144.325 17.4316C144.325 16.2103 144.64 15.2624 145.269 14.5879C145.897 13.9134 146.713 13.5762 147.716 13.5762C148.687 13.5762 149.479 13.9066 150.095 14.5674C150.71 15.2282 151.018 16.1579 151.018 17.3564C151.018 17.4294 151.015 17.5387 151.011 17.6846H145.597C145.642 18.4821 145.868 19.0928 146.273 19.5166C146.679 19.9404 147.185 20.1523 147.791 20.1523C148.242 20.1523 148.627 20.0339 148.946 19.7969C149.265 19.5599 149.518 19.1816 149.705 18.6621ZM145.665 16.6729H149.719C149.664 16.0622 149.509 15.6042 149.254 15.2988C148.862 14.8249 148.354 14.5879 147.729 14.5879C147.164 14.5879 146.688 14.777 146.301 15.1553C145.918 15.5335 145.706 16.0394 145.665 16.6729ZM152.515 21V13.7402H153.622V14.8408C153.905 14.3258 154.164 13.9863 154.401 13.8223C154.643 13.6582 154.907 13.5762 155.194 13.5762C155.609 13.5762 156.031 13.7083 156.459 13.9727L156.035 15.1143C155.734 14.9365 155.434 14.8477 155.133 14.8477C154.864 14.8477 154.622 14.9297 154.408 15.0938C154.194 15.2533 154.041 15.4766 153.95 15.7637C153.813 16.2012 153.745 16.6797 153.745 17.1992V21H152.515Z" fill="#1A7DF1"/>
<rect x="0.5" y="0.5" width="180" height="31" rx="3.5" stroke="#1A7DF1"/>
</svg>
