<svg width="24" height="24" viewBox="0 0 24 24" fill="none" xmlns="http://www.w3.org/2000/svg">
<rect width="24" height="24" rx="12" fill="#D8D8D8"/>
<path d="M12.9102 11.879L17.6981 7.0911C17.9401 6.84907 17.9401 6.45177 17.6981 6.20974L17.6718 6.18353C17.4298 5.94151 17.0325 5.94151 16.7905 6.18353L12.0026 10.9775L7.21471 6.18151C6.9727 5.9395 6.57538 5.9395 6.33337 6.18151L6.30714 6.20773C6.05908 6.44974 6.05908 6.84705 6.30714 7.08907L11.095 11.879L6.30714 16.6669C6.06512 16.9089 6.06512 17.3062 6.30714 17.5482L6.33337 17.5744C6.57538 17.8165 6.9727 17.8165 7.21471 17.5744L12.0026 12.7865L16.7905 17.5744C17.0325 17.8165 17.4298 17.8165 17.6719 17.5744L17.6981 17.5482C17.9401 17.3062 17.9401 16.9089 17.6981 16.6669L12.9102 11.879Z" fill="white"/>
</svg>
