<svg width="6" height="10" viewBox="0 0 6 10" fill="none" xmlns="http://www.w3.org/2000/svg">
<path d="M0.954707 0.361078C0.797978 0.209098 0.546261 0.213848 0.394281 0.370577C0.242301 0.527306 0.247051 0.779023 0.40378 0.931003L4.48349 4.97747L0.427527 9.07618C0.275547 9.23291 0.275547 9.47987 0.432276 9.6366C0.589005 9.78858 0.835973 9.78858 0.992702 9.63185L5.31463 5.27193C5.31938 5.26718 5.32413 5.25768 5.32888 5.24818C5.32888 5.24818 5.33363 5.24818 5.33363 5.24343C5.48561 5.0867 5.4856 4.83974 5.32888 4.68301L0.968955 0.361078C0.959456 0.365828 0.959456 0.365828 0.954707 0.361078Z" fill="#1A7DF1"/>
</svg>
