<svg width="16" height="16" viewBox="0 0 16 16" fill="none" xmlns="http://www.w3.org/2000/svg">
<path fill-rule="evenodd" clip-rule="evenodd" d="M14 3H2C1.44772 3 1 3.44772 1 4V5H15V4C15 3.44772 14.5523 3 14 3ZM0 4V5.5V12C0 13.1046 0.895431 14 2 14H14C15.1046 14 16 13.1046 16 12V5.5V4C16 2.89543 15.1046 2 14 2H2C0.895431 2 0 2.89543 0 4ZM15 12V6H1V12C1 12.5523 1.44772 13 2 13H14C14.5523 13 15 12.5523 15 12ZM2.5 7.5C2.22386 7.5 2 7.72386 2 8C2 8.27614 2.22386 8.5 2.5 8.5H6.5C6.77614 8.5 7 8.27614 7 8C7 7.72386 6.77614 7.5 6.5 7.5H2.5ZM8.5 8C8.5 7.72386 8.72386 7.5 9 7.5H10C10.2761 7.5 10.5 7.72386 10.5 8C10.5 8.27614 10.2761 8.5 10 8.5H9C8.72386 8.5 8.5 8.27614 8.5 8ZM2.5 9.79883C2.22386 9.79883 2 10.0227 2 10.2988C2 10.575 2.22386 10.7988 2.5 10.7988H5.5C5.77614 10.7988 6 10.575 6 10.2988C6 10.0227 5.77614 9.79883 5.5 9.79883H2.5Z" fill="#999999"/>
</svg>
