<svg width="24" height="24" viewBox="0 0 24 24" fill="none" xmlns="http://www.w3.org/2000/svg">
<rect width="24" height="24" rx="12" fill="#1A7DF1"/>
<g clip-path="url(#clip0)">
<path fill-rule="evenodd" clip-rule="evenodd" d="M10.5281 13.2674L15.4691 8.25574C15.6607 8.06056 15.9713 8.06056 16.1629 8.25592L16.8564 8.96259C17.048 9.15777 17.048 9.47427 16.8564 9.66945L11.3654 15.2388L10.8689 15.745C10.6773 15.9402 10.3667 15.9402 10.1751 15.745L9.62564 15.1801L9.48276 15.0345C9.47483 15.0265 9.46722 15.0182 9.45995 15.0097L7.14355 12.6279C6.95212 12.4325 6.95212 12.1162 7.14373 11.921L7.83738 11.214C8.02899 11.0188 8.33942 11.0188 8.53104 11.214L10.5281 13.2674Z" fill="white"/>
</g>
<defs>
<clipPath id="clip0">
<rect width="10" height="10" fill="white" transform="translate(7 7)"/>
</clipPath>
</defs>
</svg>
