<svg width="12" height="12" viewBox="0 0 12 12" fill="none" xmlns="http://www.w3.org/2000/svg">
<path fill-rule="evenodd" clip-rule="evenodd" d="M11.1 6C11.1 8.81665 8.81665 11.1 6 11.1C3.18335 11.1 0.9 8.81665 0.9 6C0.9 3.18335 3.18335 0.9 6 0.9C8.81665 0.9 11.1 3.18335 11.1 6ZM12 6C12 9.31371 9.31371 12 6 12C2.68629 12 0 9.31371 0 6C0 2.68629 2.68629 0 6 0C9.31371 0 12 2.68629 12 6ZM6.44843 2.7C6.44843 2.45147 6.24695 2.25 5.99843 2.25C5.7499 2.25 5.54843 2.45147 5.54843 2.7V6C5.54843 6.14533 5.61861 6.28171 5.73687 6.36618L7.83687 7.86618C8.0391 8.01064 8.32015 7.96379 8.4646 7.76156C8.60906 7.55932 8.56222 7.27827 8.35998 7.13382L6.44843 5.76842V2.7Z" fill="#999999"/>
</svg>
