<svg width="16" height="16" viewBox="0 0 16 16" fill="none" xmlns="http://www.w3.org/2000/svg">
<path d="M9.2141 7.83866L15.5979 1.4548C15.9206 1.13209 15.9206 0.602359 15.5979 0.279656L15.563 0.244703C15.2403 -0.0779844 14.7106 -0.0779844 14.3879 0.244703L8.004 6.63664L1.62014 0.242016C1.29746 -0.0806719 0.767706 -0.0806719 0.445019 0.242016L0.41005 0.276969C0.0792998 0.599656 0.0792998 1.12941 0.41005 1.45209L6.79393 7.83866L0.41005 14.2225C0.0873623 14.5452 0.0873623 15.0749 0.41005 15.3976L0.445019 15.4326C0.767706 15.7553 1.29746 15.7553 1.62014 15.4326L8.004 9.04872L14.3879 15.4326C14.7106 15.7553 15.2403 15.7553 15.563 15.4326L15.598 15.3976C15.9206 15.0749 15.9206 14.5452 15.598 14.2225L9.2141 7.83866Z" fill="#FFFFFF"/>
</svg>
