<svg width="16" height="16" viewBox="0 0 16 16" fill="none" xmlns="http://www.w3.org/2000/svg">
  <g clip-path="url(#clip0)">
    <path fill-rule="evenodd" clip-rule="evenodd" d="M5.32804 11.736H11.2C11.52 11.736 11.736 11.52 11.736 11.2V5.33604H14.928V14.936H5.32804V11.736ZM4.26404 11.736H0.536C0.216 11.736 0 11.52 0 11.2V0.536C0 0.216 0.216 0 0.536 0H11.2C11.52 0 11.736 0.216 11.736 0.536V4.26404H15.464C15.784 4.26404 16 4.48004 16 4.80004V15.464C16 15.784 15.784 16 15.464 16H4.80004C4.48004 16 4.26404 15.784 4.26404 15.464V11.736ZM10.664 10.664H1.064V1.064H10.664V10.664Z" fill="#1A7DF1"/>
  </g>
  <defs>
    <clipPath id="clip0">
      <path d="M0 0H16V16H0V0Z" fill="white"/>
    </clipPath>
  </defs>
</svg>
