<svg width="16" height="16" viewBox="0 0 16 16" fill="none" xmlns="http://www.w3.org/2000/svg">
<path d="M8.88889 6.22222H5.78667C5.72759 6.22115 5.66889 6.23186 5.61399 6.25371C5.55909 6.27556 5.50909 6.30811 5.46689 6.34948C5.4247 6.39084 5.39116 6.44019 5.36823 6.49465C5.3453 6.54911 5.33344 6.60758 5.33333 6.66667C5.33333 6.90489 5.536 7.11111 5.78667 7.11111H8.88889V10.1662C8.88889 10.4356 9.088 10.6667 9.33333 10.6667C9.57156 10.6667 9.77778 10.4427 9.77778 10.1662V7.11111H12.88C13.1351 7.11111 13.3333 6.912 13.3333 6.66667C13.331 6.54799 13.2822 6.43495 13.1975 6.35184C13.1127 6.26874 12.9987 6.2222 12.88 6.22222H9.77778V3.16711C9.77778 2.89778 9.57867 2.66667 9.33333 2.66667C9.09511 2.66667 8.88889 2.89067 8.88889 3.16711V6.22222ZM2.66667 2.66667H0.799999C0.358171 2.66667 0 3.02484 0 3.46667V15.2C0 15.6418 0.358172 16 0.8 16H12.5333C12.9752 16 13.3333 15.6418 13.3333 15.2V13.3333H15.2C15.6418 13.3333 16 12.9752 16 12.5333V0.8C16 0.358172 15.6418 0 15.2 0H3.46667C3.02484 0 2.66667 0.358172 2.66667 0.8V2.66667ZM12.4444 13.3333V15.1111H0.888906V3.55556H2.66669V13.3333H12.4444ZM3.55556 0.888906H15.1111V12.4445H3.55556V0.888906Z" fill="#666666"/>
</svg>
