<svg width="12" height="12" viewBox="0 0 12 12" fill="none" xmlns="http://www.w3.org/2000/svg">
<path d="M9.65157 4.9714C10.1861 4.9714 10.4538 5.61769 10.0758 5.99567L6.42436 9.64714C6.19005 9.88145 5.81015 9.88145 5.57583 9.64714L1.92436 5.99567C1.54638 5.61769 1.81408 4.9714 2.34863 4.9714H3.81438V1.19998C3.81438 0.868605 4.08301 0.599976 4.41438 0.599976H7.58581C7.91718 0.599976 8.18581 0.868604 8.18581 1.19998V4.9714H9.65157Z" fill="#1A7DF1"/>
<path d="M1.0501 11.1C0.80157 11.1 0.600098 11.3014 0.600098 11.55C0.600098 11.7985 0.80157 12 1.0501 12H10.9501C11.1986 12 11.4001 11.7985 11.4001 11.55C11.4001 11.3014 11.1986 11.1 10.9501 11.1H1.0501Z" fill="#1A7DF1"/>
</svg>
