<svg width="21" height="20" viewBox="0 0 21 20" fill="none" xmlns="http://www.w3.org/2000/svg">
<g clip-path="url(#clip0)">
<path d="M10.341 1C4.82824 1 0.335999 5.49224 0.335999 11.005C0.335999 14.2766 1.9468 17.3482 4.62814 19.2191C4.7482 19.2991 4.88827 19.3492 5.02834 19.3492H15.6436C15.7837 19.3492 15.9238 19.3091 16.0438 19.2191C18.7352 17.3482 20.336 14.2766 20.336 11.005C20.346 5.49224 15.8537 1 10.341 1ZM15.4235 17.9485H5.25846C3.17742 16.4177 1.89678 14.0465 1.75671 11.4852C1.78672 11.4852 1.81674 11.4952 1.84675 11.4952H2.84725C3.12739 11.4952 3.3475 11.2751 3.3475 10.995C3.3475 10.7148 3.12739 10.4947 2.84725 10.4947H1.83675C1.80673 10.4947 1.77672 10.4947 1.75671 10.5047C1.87677 8.50375 2.67717 6.69284 3.92779 5.29214C3.9378 5.31215 3.95781 5.33216 3.97782 5.35217L4.68817 6.06253C4.88827 6.26263 5.19843 6.26263 5.39853 6.06253C5.59863 5.86243 5.59863 5.55227 5.39853 5.35217L4.68817 4.64182C4.66816 4.62181 4.64815 4.6118 4.62814 4.59179C6.02884 3.33116 7.83974 2.53076 9.84074 2.42071C9.84074 2.45072 9.83074 2.47073 9.83074 2.50075V3.50125C9.83074 3.78139 10.0508 4.0015 10.331 4.0015C10.6111 4.0015 10.8312 3.78139 10.8312 3.50125V2.50075C10.8312 2.47073 10.8312 2.44072 10.8212 2.42071C12.8222 2.53076 14.6431 3.33116 16.0538 4.58179C16.0338 4.6018 16.0038 4.62181 15.9838 4.64182L15.2735 5.35217C15.0734 5.55227 15.0734 5.86243 15.2735 6.06253C15.4736 6.26263 15.7837 6.26263 15.9838 6.06253L16.6942 5.35217C16.7142 5.33216 16.7342 5.30215 16.7542 5.28214C18.0148 6.69284 18.8252 8.51375 18.9353 10.5147C18.8953 10.5047 18.8652 10.5047 18.8252 10.5047H17.8247C17.5446 10.5047 17.3245 10.7249 17.3245 11.005C17.3245 11.2851 17.5446 11.5052 17.8247 11.5052H18.8252C18.8652 11.5052 18.9053 11.4952 18.9353 11.4952C18.7952 14.0365 17.5046 16.4177 15.4235 17.9485Z" fill="#FFFFFF"/>
<path d="M8.97034 13.7067L10.331 14.9974L11.6217 13.7067L10.321 5.35254L8.97034 13.7067Z" fill="#FFFFFF"/>
</g>
<defs>
<clipPath id="clip0">
<path d="M0.335999 0H20.336V20H0.335999V0Z" fill="white"/>
</clipPath>
</defs>
</svg>
