<svg width="16" height="16" viewBox="0 0 16 16" fill="none" xmlns="http://www.w3.org/2000/svg">
<g clip-path="url(#clip0)">
<path d="M12.4956 13.5798C12.4989 13.7098 12.4757 13.8391 12.4274 13.9599C12.3792 14.0807 12.3069 14.1904 12.2149 14.2823C12.123 14.3743 12.0133 14.4466 11.8925 14.4948C11.7717 14.5431 11.6424 14.5663 11.5124 14.563H4.4928C4.3628 14.5663 4.23348 14.5431 4.11272 14.4948C3.99195 14.4466 3.88226 14.3743 3.7903 14.2823C3.69834 14.1904 3.62604 14.0807 3.57779 13.9599C3.52954 13.8391 3.50635 13.7098 3.50962 13.5798V3.26098H12.4956V13.5798ZM5.47599 1.57619C5.47199 1.54757 5.47471 1.51842 5.48393 1.49104C5.49314 1.46365 5.50861 1.43879 5.52909 1.41842C5.54958 1.39804 5.57453 1.38271 5.60196 1.37365C5.62939 1.36458 5.65856 1.36202 5.68715 1.36617H10.3907C10.4194 1.36198 10.4487 1.36455 10.4763 1.37368C10.5038 1.3828 10.5288 1.39824 10.5493 1.41875C10.5698 1.43926 10.5853 1.46428 10.5944 1.49182C10.6035 1.51935 10.6061 1.54864 10.6019 1.57734V2.13931H5.54752C5.47712 2.13931 5.47712 1.57734 5.47712 1.57734L5.47599 1.57619ZM15.3736 2.13817H11.6532V1.5762C11.6533 1.40098 11.619 1.22744 11.552 1.06552C11.485 0.903606 11.3867 0.756485 11.2628 0.632581C11.1389 0.508676 10.9918 0.410418 10.8299 0.34343C10.668 0.276442 10.4944 0.242039 10.3192 0.242188H5.61564C5.44041 0.242037 5.26688 0.276438 5.10496 0.343424C4.94304 0.41041 4.79592 0.508666 4.67202 0.63257C4.54812 0.756473 4.44986 0.903593 4.38287 1.06551C4.31589 1.22743 4.28149 1.40096 4.28164 1.57619V2.13816H0.56691C0.492814 2.13709 0.419257 2.15089 0.350591 2.17876C0.281926 2.20662 0.219548 2.24798 0.167149 2.30038C0.114751 2.35278 0.0733967 2.41516 0.0455347 2.48382C0.0176727 2.55249 0.00386908 2.62605 0.00494076 2.70014C0.0147717 2.84595 0.077135 2.98325 0.18047 3.08659C0.283805 3.18993 0.421102 3.25229 0.56691 3.26213H2.32211V13.5809C2.32479 14.1573 2.55495 14.7093 2.96252 15.1169C3.37009 15.5245 3.9221 15.7547 4.49849 15.7573H11.5181C12.0945 15.7546 12.6465 15.5245 13.0541 15.1169C13.4616 14.7093 13.6918 14.1573 13.6945 13.5809V3.26213H15.4395C15.5135 3.2632 15.5871 3.24939 15.6558 3.22153C15.7244 3.19367 15.7868 3.15231 15.8392 3.09991C15.8916 3.04752 15.933 2.98514 15.9608 2.91647C15.9887 2.84781 16.0025 2.77425 16.0014 2.70016C15.9871 2.54391 15.9139 2.39895 15.7967 2.29462C15.6795 2.19028 15.5271 2.13437 15.3702 2.13819L15.3736 2.13817ZM8.00318 12.8101C8.07728 12.8112 8.15083 12.7973 8.2195 12.7695C8.28816 12.7416 8.35054 12.7003 8.40294 12.6479C8.45534 12.5955 8.49669 12.5331 8.52455 12.4644C8.55242 12.3958 8.56622 12.3222 8.56515 12.2481V6.00389C8.56622 5.92979 8.55242 5.85623 8.52455 5.78757C8.49669 5.71891 8.45534 5.65653 8.40294 5.60413C8.35054 5.55173 8.28816 5.51038 8.2195 5.48251C8.15083 5.45465 8.07728 5.44085 8.00318 5.44192C7.85738 5.45175 7.72008 5.51411 7.61675 5.61745C7.51341 5.72078 7.45105 5.85808 7.44121 6.00389V12.2481C7.44014 12.3222 7.45395 12.3957 7.48181 12.4644C7.50967 12.5331 7.55103 12.5955 7.60343 12.6479C7.65583 12.7003 7.7182 12.7416 7.78687 12.7695C7.85553 12.7973 7.92909 12.8112 8.00318 12.8101ZM5.26596 12.8101C5.34005 12.8111 5.41361 12.7973 5.48227 12.7695C5.55094 12.7416 5.61331 12.7003 5.66571 12.6479C5.71811 12.5955 5.75946 12.5331 5.78733 12.4644C5.81519 12.3957 5.82899 12.3222 5.82792 12.2481V6.0039C5.82899 5.92981 5.81519 5.85625 5.78733 5.78758C5.75946 5.71892 5.71811 5.65654 5.66571 5.60414C5.61331 5.55175 5.55094 5.51039 5.48227 5.48253C5.41361 5.45467 5.34005 5.44086 5.26596 5.44193C5.12015 5.45177 4.98285 5.51413 4.87952 5.61746C4.77619 5.7208 4.71382 5.85809 4.70399 6.0039V12.2481C4.71382 12.3939 4.77619 12.5312 4.87952 12.6345C4.98285 12.7379 5.12015 12.8002 5.26596 12.8101ZM10.7416 12.8101C10.8157 12.8111 10.8892 12.7973 10.9579 12.7695C11.0265 12.7416 11.0889 12.7003 11.1413 12.6479C11.1937 12.5955 11.2351 12.5331 11.2629 12.4644C11.2908 12.3957 11.3046 12.3222 11.3035 12.2481V6.0039C11.3046 5.92981 11.2908 5.85625 11.2629 5.78758C11.2351 5.71892 11.1937 5.65654 11.1413 5.60414C11.0889 5.55175 11.0265 5.51039 10.9579 5.48253C10.8892 5.45467 10.8157 5.44086 10.7416 5.44193C10.5958 5.45176 10.4585 5.51412 10.3551 5.61746C10.2518 5.72079 10.1894 5.85809 10.1796 6.0039V12.2481C10.1785 12.3222 10.1923 12.3957 10.2202 12.4644C10.248 12.5331 10.2894 12.5955 10.3418 12.6479C10.3942 12.7003 10.4566 12.7416 10.5252 12.7695C10.5939 12.7973 10.6675 12.8111 10.7416 12.8101Z" fill="#666666"/>
</g>
<defs>
<clipPath id="clip0">
<rect width="16" height="16" fill="white"/>
</clipPath>
</defs>
</svg>
