<svg width="16" height="16" viewBox="0 0 16 16" fill="none" xmlns="http://www.w3.org/2000/svg">
<path fill-rule="evenodd" clip-rule="evenodd" d="M3.57412 2.1851C3.33408 1.94505 3.19922 1.61948 3.19922 1.28C3.19922 0.940523 3.33408 0.61495 3.57412 0.374903C3.81417 0.134857 4.13974 0 4.47922 0C4.8187 0 5.14427 0.134857 5.38432 0.374903C5.62436 0.61495 5.75922 0.940523 5.75922 1.28C5.75922 1.61948 5.62436 1.94505 5.38432 2.1851C5.14427 2.42514 4.8187 2.56 4.47922 2.56C4.13974 2.56 3.81417 2.42514 3.57412 2.1851ZM3.57412 9.01179C3.33408 8.77174 3.19922 8.44617 3.19922 8.10669C3.19922 7.76722 3.33408 7.44164 3.57412 7.2016C3.81417 6.96155 4.13974 6.82669 4.47922 6.82669C4.8187 6.82669 5.14427 6.96155 5.38432 7.2016C5.62436 7.44164 5.75922 7.76722 5.75922 8.10669C5.75922 8.44617 5.62436 8.77174 5.38432 9.01179C5.14427 9.25184 4.8187 9.38669 4.47922 9.38669C4.13974 9.38669 3.81417 9.25184 3.57412 9.01179ZM3.19922 14.72C3.19922 15.0595 3.33408 15.3851 3.57412 15.6251C3.81417 15.8652 4.13974 16 4.47922 16C4.8187 16 5.14427 15.8652 5.38432 15.6251C5.62436 15.3851 5.75922 15.0595 5.75922 14.72C5.75922 14.3806 5.62436 14.055 5.38432 13.8149C5.14427 13.5749 4.8187 13.44 4.47922 13.44C4.13974 13.44 3.81417 13.5749 3.57412 13.8149C3.33408 14.055 3.19922 14.3806 3.19922 14.72ZM9.97412 2.29177C9.73408 2.05172 9.59922 1.72615 9.59922 1.38667C9.59922 1.0472 9.73408 0.721623 9.97412 0.481577C10.2142 0.24153 10.5397 0.106673 10.8792 0.106673C11.2187 0.106673 11.5443 0.24153 11.7843 0.481577C12.0244 0.721623 12.1592 1.0472 12.1592 1.38667C12.1592 1.72615 12.0244 2.05172 11.7843 2.29177C11.5443 2.53182 11.2187 2.66667 10.8792 2.66667C10.5397 2.66667 10.2142 2.53182 9.97412 2.29177ZM9.59922 8.21336C9.59922 8.55284 9.73408 8.87841 9.97412 9.11846C10.2142 9.35851 10.5397 9.49336 10.8792 9.49336C11.2187 9.49336 11.5443 9.35851 11.7843 9.11846C12.0244 8.87841 12.1592 8.55284 12.1592 8.21336C12.1592 7.87389 12.0244 7.54832 11.7843 7.30827C11.5443 7.06822 11.2187 6.93337 10.8792 6.93337C10.5397 6.93337 10.2142 7.06822 9.97412 7.30827C9.73408 7.54832 9.59922 7.87389 9.59922 8.21336ZM9.97412 15.6251C9.73408 15.3851 9.59922 15.0595 9.59922 14.72C9.59922 14.3806 9.73408 14.055 9.97412 13.8149C10.2142 13.5749 10.5397 13.44 10.8792 13.44C11.2187 13.44 11.5443 13.5749 11.7843 13.8149C12.0244 14.055 12.1592 14.3806 12.1592 14.72C12.1592 15.0595 12.0244 15.3851 11.7843 15.6251C11.5443 15.8652 11.2187 16 10.8792 16C10.5397 16 10.2142 15.8652 9.97412 15.6251Z" fill="#BDBDBD"/>
</svg>
