<svg width="85" height="80" viewBox="0 0 85 80" fill="none" xmlns="http://www.w3.org/2000/svg">
<path d="M35.8648 80.0005C55.6724 80.0005 71.7296 77.0001 71.7296 73.2991C71.7296 69.598 55.6724 66.5977 35.8648 66.5977C16.0572 66.5977 0 69.598 0 73.2991C0 77.0001 16.0572 80.0005 35.8648 80.0005Z" fill="#F5F5F7" fill-opacity="0.8"/>
<path fill-rule="evenodd" clip-rule="evenodd" d="M64.5564 53.6129L51.9 38.0364C51.2927 37.3032 50.405 36.8594 49.4703 36.8594H22.2584C21.3242 36.8594 20.4365 37.3032 19.8292 38.0364L7.17334 53.6129V61.7505H64.5569V53.6129H64.5564Z" fill="#AEB8C2"/>
<path fill-rule="evenodd" clip-rule="evenodd" d="M17.8963 16.7539H53.833C54.3942 16.7539 54.9324 16.9768 55.3293 17.3737C55.7261 17.7705 55.949 18.3087 55.949 18.8699V68.2491C55.949 68.8103 55.7261 69.3485 55.3293 69.7454C54.9324 70.1422 54.3942 70.3651 53.833 70.3651H17.8963C17.3351 70.3651 16.7969 70.1422 16.4 69.7454C16.0032 69.3485 15.7803 68.8103 15.7803 68.2491V18.8699C15.7803 18.3087 16.0032 17.7705 16.4 17.3737C16.7969 16.9768 17.3351 16.7539 17.8963 16.7539V16.7539Z" fill="#F5F5F7"/>
<path fill-rule="evenodd" clip-rule="evenodd" d="M22.5769 22.0195H49.1524C49.433 22.0195 49.7021 22.131 49.9005 22.3294C50.0989 22.5278 50.2104 22.7969 50.2104 23.0775V36.2799C50.2104 36.5605 50.0989 36.8296 49.9005 37.028C49.7021 37.2264 49.433 37.3379 49.1524 37.3379H22.5769C22.2963 37.3379 22.0272 37.2264 21.8288 37.028C21.6303 36.8296 21.5189 36.5605 21.5189 36.2799V23.0775C21.5189 22.7969 21.6303 22.5278 21.8288 22.3294C22.0272 22.131 22.2963 22.0195 22.5769 22.0195ZM22.7155 43.0812H49.0138C49.3311 43.0812 49.6355 43.2073 49.8599 43.4317C50.0843 43.6561 50.2104 43.9605 50.2104 44.2778C50.2104 44.5952 50.0843 44.8996 49.8599 45.124C49.6355 45.3484 49.3311 45.4744 49.0138 45.4744H22.7155C22.3981 45.4744 22.0938 45.3484 21.8693 45.124C21.6449 44.8996 21.5189 44.5952 21.5189 44.2778C21.5189 43.9605 21.6449 43.6561 21.8693 43.4317C22.0938 43.2073 22.3981 43.0812 22.7155 43.0812ZM22.7155 49.3039H49.0138C49.3312 49.3039 49.6356 49.43 49.8601 49.6545C50.0845 49.8789 50.2106 50.1833 50.2106 50.5008C50.2106 50.8182 50.0845 51.1226 49.8601 51.3471C49.6356 51.5715 49.3312 51.6976 49.0138 51.6976H22.7155C22.398 51.6976 22.0936 51.5715 21.8692 51.3471C21.6447 51.1226 21.5186 50.8182 21.5186 50.5008C21.5186 50.1833 21.6447 49.8789 21.8692 49.6545C22.0936 49.43 22.398 49.3039 22.7155 49.3039ZM64.4395 72.3166C64.0295 73.9411 62.5896 75.152 60.8767 75.152H10.8526C9.13968 75.152 7.69974 73.9406 7.29029 72.3166C7.2122 72.007 7.17275 71.6889 7.17285 71.3697V53.6126H21.0951C22.633 53.6126 23.8724 54.9076 23.8724 56.4798V56.501C23.8724 58.0726 25.1261 59.3417 26.664 59.3417H45.0653C46.6031 59.3417 47.8569 58.061 47.8569 56.4888V56.4825C47.8569 54.9103 49.0963 53.6121 50.6341 53.6121H64.5564V71.3702C64.5564 71.6966 64.5157 72.0135 64.4395 72.3166Z" fill="#DCE0E6"/>
<path fill-rule="evenodd" clip-rule="evenodd" d="M66.1892 17.6116L62.5762 19.0134C62.4833 19.0495 62.3822 19.0587 62.2844 19.0398C62.1866 19.021 62.0961 18.975 62.0234 18.907C61.9506 18.839 61.8985 18.7519 61.873 18.6556C61.8475 18.5593 61.8498 18.4578 61.8795 18.3627L62.9041 15.0792C61.5345 13.5218 60.7305 11.6227 60.7305 9.57336C60.7305 4.28598 66.0829 0 72.6859 0C79.2873 0 84.6403 4.28598 84.6403 9.57336C84.6403 14.8607 79.2879 19.1467 72.6854 19.1467C70.2901 19.1467 68.0598 18.5828 66.1892 17.6116Z" fill="#DCE0E6"/>
<path d="M77.3953 11.3025C78.2277 11.3025 78.9024 10.6358 78.9024 9.81336C78.9024 8.99093 78.2277 8.32422 77.3953 8.32422C76.5629 8.32422 75.8882 8.99093 75.8882 9.81336C75.8882 10.6358 76.5629 11.3025 77.3953 11.3025Z" fill="white"/>
<path fill-rule="evenodd" clip-rule="evenodd" d="M69.4835 11.1176H66.4692L68.0023 8.51172L69.4835 11.1176ZM71.3673 8.51172H74.0044V11.1176H71.3673V8.51172Z" fill="white"/>
</svg>
