<svg width="16" height="16" viewBox="0 0 16 16" fill="none" xmlns="http://www.w3.org/2000/svg">
<path fill-rule="evenodd" clip-rule="evenodd" d="M0 8C0 3.6 3.6 0 8 0C12.4 0 16 3.6 16 8C16 12.4 12.4 16 8 16C3.6 16 0 12.4 0 8ZM8.1 9.9004C8.6 9.9004 9.1 9.5004 9.1 9.0004L9.4 3.4004C9.5 2.6004 8.8 1.9004 8 1.9004C7.2 1.9004 6.5 2.6004 6.6 3.4004L6.9 9.0004C6.9 9.5004 7.4 9.9004 7.9 9.9004H8.1ZM8.00001 13.9034C8.7953 13.9034 9.44001 13.2587 9.44001 12.4634C9.44001 11.6681 8.7953 11.0234 8.00001 11.0234C7.20472 11.0234 6.56001 11.6681 6.56001 12.4634C6.56001 13.2587 7.20472 13.9034 8.00001 13.9034Z" fill="#D5432F"/>
</svg>
