<svg width="145" height="20" viewBox="0 0 145 20" fill="none" xmlns="http://www.w3.org/2000/svg">
<path d="M0.380859 19V0.388672H13.1396V3.53711H4.13867V7.94238H11.9082V11.0908H4.13867V19H0.380859ZM16.2246 3.68945V0.388672H19.792V3.68945H16.2246ZM16.2246 19V5.51758H19.792V19H16.2246ZM35.7246 19H32.1572V12.1191C32.1572 10.6634 32.0811 9.72396 31.9287 9.30078C31.7764 8.86914 31.5267 8.53483 31.1797 8.29785C30.8411 8.06087 30.4307 7.94238 29.9482 7.94238C29.3304 7.94238 28.776 8.11165 28.2852 8.4502C27.7943 8.78874 27.4557 9.2373 27.2695 9.7959C27.0918 10.3545 27.0029 11.387 27.0029 12.8936V19H23.4355V5.51758H26.749V7.49805C27.9255 5.97461 29.4066 5.21289 31.1924 5.21289C31.9795 5.21289 32.6989 5.35677 33.3506 5.64453C34.0023 5.92383 34.4932 6.28353 34.8232 6.72363C35.1618 7.16374 35.3945 7.66309 35.5215 8.22168C35.6569 8.78027 35.7246 9.58008 35.7246 10.6211V19ZM42.0215 9.63086L38.7842 9.04688C39.1481 7.74349 39.7744 6.77865 40.6631 6.15234C41.5518 5.52604 42.8721 5.21289 44.624 5.21289C46.2152 5.21289 47.4001 5.40332 48.1787 5.78418C48.9574 6.15658 49.5033 6.63477 49.8164 7.21875C50.138 7.79427 50.2988 8.85645 50.2988 10.4053L50.2607 14.5693C50.2607 15.7542 50.3158 16.6302 50.4258 17.1973C50.5443 17.7559 50.7601 18.3568 51.0732 19H47.5439C47.4508 18.763 47.3366 18.4118 47.2012 17.9463C47.1419 17.7347 47.0996 17.5951 47.0742 17.5273C46.4648 18.1198 45.8132 18.5641 45.1191 18.8604C44.4251 19.1566 43.6846 19.3047 42.8975 19.3047C41.5094 19.3047 40.4134 18.9281 39.6094 18.1748C38.8138 17.4215 38.416 16.4694 38.416 15.3184C38.416 14.5566 38.598 13.8796 38.9619 13.2871C39.3258 12.6862 39.8337 12.2292 40.4854 11.916C41.1455 11.5944 42.0934 11.3151 43.3291 11.0781C44.9964 10.765 46.1517 10.473 46.7949 10.2021V9.84668C46.7949 9.16113 46.6257 8.67448 46.2871 8.38672C45.9486 8.09049 45.3096 7.94238 44.3701 7.94238C43.7354 7.94238 43.2402 8.06934 42.8848 8.32324C42.5293 8.56868 42.2415 9.00456 42.0215 9.63086ZM46.7949 12.5254C46.3379 12.6777 45.6143 12.8597 44.624 13.0713C43.6338 13.2829 42.9863 13.4902 42.6816 13.6934C42.2161 14.0234 41.9834 14.4424 41.9834 14.9502C41.9834 15.4495 42.1696 15.8812 42.542 16.2451C42.9144 16.609 43.3883 16.791 43.9639 16.791C44.6071 16.791 45.2207 16.5794 45.8047 16.1562C46.2363 15.8346 46.5199 15.4411 46.6553 14.9756C46.7484 14.6709 46.7949 14.0911 46.7949 13.2363V12.5254ZM53.8281 19V0.388672H57.3955V19H53.8281ZM80.2344 12.1572L83.8779 13.3125C83.3193 15.3438 82.3883 16.8545 81.085 17.8447C79.79 18.8265 78.1439 19.3174 76.1465 19.3174C73.6751 19.3174 71.6439 18.4753 70.0527 16.791C68.4616 15.0983 67.666 12.7878 67.666 9.85938C67.666 6.76172 68.4658 4.35807 70.0654 2.64844C71.665 0.930339 73.7682 0.0712891 76.375 0.0712891C78.6517 0.0712891 80.501 0.744141 81.9229 2.08984C82.7692 2.88542 83.404 4.02799 83.8271 5.51758L80.1074 6.40625C79.8874 5.44141 79.4261 4.67969 78.7236 4.12109C78.0296 3.5625 77.1833 3.2832 76.1846 3.2832C74.805 3.2832 73.6836 3.77832 72.8203 4.76855C71.9655 5.75879 71.5381 7.36263 71.5381 9.58008C71.5381 11.9329 71.9613 13.6087 72.8076 14.6074C73.654 15.6061 74.7542 16.1055 76.1084 16.1055C77.1071 16.1055 77.9661 15.7881 78.6855 15.1533C79.4049 14.5186 79.9212 13.5199 80.2344 12.1572ZM90.6445 0.388672V7.23145C91.7956 5.88574 93.1709 5.21289 94.7705 5.21289C95.5915 5.21289 96.332 5.36523 96.9922 5.66992C97.6523 5.97461 98.1475 6.36393 98.4775 6.83789C98.8161 7.31185 99.0446 7.83659 99.1631 8.41211C99.29 8.98763 99.3535 9.88053 99.3535 11.0908V19H95.7861V11.8779C95.7861 10.4645 95.7184 9.56738 95.583 9.18652C95.4476 8.80566 95.2064 8.50521 94.8594 8.28516C94.5208 8.05664 94.0934 7.94238 93.5771 7.94238C92.9847 7.94238 92.4557 8.08626 91.9902 8.37402C91.5247 8.66178 91.182 9.09766 90.9619 9.68164C90.7503 10.2572 90.6445 11.112 90.6445 12.2461V19H87.0771V0.388672H90.6445ZM110.792 14.709L114.347 15.3057C113.89 16.609 113.166 17.6035 112.176 18.2891C111.194 18.9661 109.963 19.3047 108.481 19.3047C106.137 19.3047 104.402 18.5387 103.276 17.0068C102.388 15.7796 101.943 14.2308 101.943 12.3604C101.943 10.126 102.527 8.37826 103.695 7.11719C104.863 5.84766 106.34 5.21289 108.126 5.21289C110.132 5.21289 111.715 5.87728 112.874 7.20605C114.034 8.52637 114.588 10.5534 114.537 13.2871H105.6C105.625 14.3451 105.913 15.1702 106.463 15.7627C107.013 16.3467 107.699 16.6387 108.52 16.6387C109.078 16.6387 109.548 16.4863 109.929 16.1816C110.31 15.877 110.597 15.3861 110.792 14.709ZM110.995 11.1035C110.97 10.071 110.703 9.28809 110.195 8.75488C109.688 8.21322 109.07 7.94238 108.342 7.94238C107.563 7.94238 106.92 8.22591 106.412 8.79297C105.904 9.36003 105.655 10.1302 105.663 11.1035H110.995ZM129.213 9.50391L125.696 10.1387C125.578 9.4362 125.307 8.90723 124.884 8.55176C124.469 8.19629 123.927 8.01855 123.259 8.01855C122.37 8.01855 121.659 8.32747 121.126 8.94531C120.601 9.55469 120.339 10.5788 120.339 12.0176C120.339 13.6172 120.605 14.7471 121.139 15.4072C121.68 16.0674 122.404 16.3975 123.31 16.3975C123.987 16.3975 124.541 16.207 124.973 15.8262C125.404 15.4368 125.709 14.7725 125.887 13.833L129.391 14.4297C129.027 16.0378 128.328 17.2523 127.296 18.0732C126.263 18.8942 124.88 19.3047 123.145 19.3047C121.173 19.3047 119.598 18.6826 118.422 17.4385C117.254 16.1943 116.67 14.472 116.67 12.2715C116.67 10.0456 117.258 8.31478 118.435 7.0791C119.611 5.83496 121.202 5.21289 123.208 5.21289C124.85 5.21289 126.153 5.56836 127.118 6.2793C128.091 6.98177 128.79 8.05664 129.213 9.50391ZM131.803 19V0.388672H135.37V10.2656L139.547 5.51758H143.939L139.331 10.4434L144.27 19H140.423L137.033 12.9443L135.37 14.6836V19H131.803Z" fill="#1A7DF1"/>
</svg>
