<svg width="1072" height="400" viewBox="0 0 1072 400" fill="none" xmlns="http://www.w3.org/2000/svg">
<g clip-path="url(#clip0)">
<rect width="1072" height="400" fill="#5ACEFF"/>
<path opacity="0.2" fill-rule="evenodd" clip-rule="evenodd" d="M938.717 244.546H943.397C944.703 244.546 945.956 245.064 946.88 245.987C947.804 246.909 948.325 248.16 948.327 249.466V461.056H900.837V455.573C891.808 528.073 870.334 579.073 845.279 579.073C812.08 579.073 785.166 489.525 785.166 379.062C785.166 268.6 812.08 179.052 845.279 179.052C870.334 179.052 891.808 230.052 900.837 302.552V225.056C900.837 222.961 901.67 220.951 903.151 219.47C904.633 217.988 906.642 217.156 908.737 217.156H911.467V97.1561C911.467 95.9626 911.941 94.818 912.785 93.9741C913.629 93.1302 914.774 92.6561 915.967 92.6561H916.247V30.5861C916.246 30.2351 916.314 29.8873 916.448 29.5628C916.582 29.2382 916.778 28.9434 917.026 28.6952C917.275 28.447 917.569 28.2504 917.894 28.1166C918.219 27.9829 918.566 27.9148 918.917 27.9161H921.027V-18.0839C921.027 -18.3491 921.133 -18.6035 921.32 -18.791C921.508 -18.9785 921.762 -19.0839 922.027 -19.0839H922.347L923.407 -50.7539H924.217L925.277 -19.1039H925.607C925.872 -19.1039 926.127 -18.9985 926.314 -18.811C926.502 -18.6235 926.607 -18.3691 926.607 -18.1039V15.8961H927.187C928.321 15.8961 929.408 16.3456 930.21 17.1461C931.013 17.9466 931.465 19.0327 931.467 20.1661V119.946H933.597C934.955 119.946 936.258 120.486 937.218 121.446C938.178 122.406 938.717 123.708 938.717 125.066V244.546ZM1052.43 236.714C1052.45 236.759 1052.46 236.808 1052.46 236.857L1052.49 242.604H1050.05C1050.42 243.076 1050.62 243.665 1050.6 244.268L1045.51 448.719H967.688L962.551 242.604H960.742V236.49H970.696V220.03C970.696 219.025 971.095 218.061 971.806 217.35C972.517 216.639 973.481 216.239 974.487 216.239H976.015V193.702C976.015 192.65 976.432 191.641 977.175 190.896C977.918 190.151 978.925 189.731 979.977 189.728H982.937V186.854C982.937 185.988 983.281 185.157 983.893 184.545C984.505 183.933 985.336 183.589 986.202 183.589H988.048V180.837C988.048 180.504 988.114 180.174 988.242 179.866C988.37 179.558 988.558 179.278 988.794 179.043C989.03 178.808 989.311 178.622 989.619 178.495C989.928 178.369 990.258 178.304 990.592 178.306H992.805L998.651 138.563H1001.46V135.188C1001.46 134.453 1001.6 133.725 1001.89 133.045C1002.17 132.366 1002.58 131.748 1003.1 131.228C1003.61 130.708 1004.23 130.295 1004.91 130.014C1005.59 129.732 1006.32 129.587 1007.05 129.587H1007.47V88.7188L1010.59 91.4824V130.406C1011.42 130.897 1012.11 131.596 1012.59 132.434C1013.07 133.272 1013.32 134.221 1013.32 135.188V138.551H1015.12L1020.99 178.367C1021.28 178.417 1021.54 178.567 1021.73 178.791C1021.91 179.015 1022.01 179.299 1022.01 179.59V183.589H1023.11C1023.79 183.582 1024.47 183.711 1025.1 183.968C1025.74 184.225 1026.31 184.605 1026.8 185.086C1027.28 185.567 1027.67 186.14 1027.93 186.771C1028.19 187.401 1028.33 188.078 1028.33 188.762V189.728H1032.55C1033.16 189.728 1033.76 189.847 1034.32 190.079C1034.88 190.312 1035.39 190.652 1035.82 191.081C1036.25 191.511 1036.59 192.02 1036.82 192.581C1037.05 193.142 1037.17 193.743 1037.17 194.35V216.178H1038.08C1039.25 216.178 1040.37 216.643 1041.2 217.471C1042.03 218.299 1042.49 219.422 1042.49 220.593V236.49H1052.08C1052.13 236.488 1052.18 236.497 1052.22 236.514C1052.27 236.532 1052.31 236.559 1052.34 236.593C1052.38 236.627 1052.41 236.668 1052.43 236.714ZM767.674 249.546H770.222V358.232H779.109V491.984H716.535V358.264H725.412V249.579H727.959V217.494H732.332V205.097H735.294V185.999H738.268V168.508H740.738V160.855C740.748 159.738 741.023 158.64 741.54 157.65C742.057 156.66 742.801 155.806 743.712 155.16H743.537V147.507C743.538 147.364 743.586 147.224 743.675 147.111C743.765 146.998 743.889 146.918 744.029 146.884L744.685 135.865L745.701 118.92L747.286 91.984H748.237L749.844 118.888L750.85 135.81L751.506 146.83C751.647 146.862 751.772 146.941 751.862 147.055C751.951 147.168 751.999 147.308 751.998 147.453V155.105H751.932C752.849 155.758 753.597 156.62 754.112 157.62C754.627 158.621 754.896 159.73 754.895 160.855V168.508H757.366V185.999H760.339V205.064H763.302V217.461H767.674V249.546ZM365.474 218.567C359.89 217.92 354.347 216.952 348.873 215.67C344.2 214.217 339.988 212.865 336.175 211.641C331.645 210.187 327.68 208.914 324.175 207.868L324.458 189.246L312.614 189.044L304.246 188.896L304.098 197.641L303.168 196.779C300.121 196.213 297.772 195.147 295.703 194.208L295.702 194.208C294.715 193.76 293.792 193.341 292.887 193.019C291.282 192.451 289.523 192.504 287.955 193.167C287.61 192.683 287.155 192.285 286.629 192.007C286.103 191.729 285.519 191.577 284.924 191.564C282.902 191.47 282.363 192.911 282.229 195C282.188 195.529 282.116 196.056 282.013 196.577C278.995 195.795 274.616 194.663 271.436 194.043L270.964 193.949C271.14 193.353 271.195 192.727 271.125 192.109C271.056 191.491 270.864 190.894 270.56 190.351C269.63 188.263 268.39 187.306 267.258 187.279C264.144 187.279 264.14 187.917 264.13 189.519C264.128 189.809 264.126 190.131 264.105 190.486C264.045 191.108 264.081 191.735 264.213 192.346C262.314 191.911 260.495 191.179 258.823 190.176C258.505 189.928 258.267 189.706 258.055 189.509L258.054 189.508L258.054 189.508C257.368 188.87 256.948 188.479 254.943 188.222C255.001 187.373 254.886 186.52 254.606 185.716C254.571 185.622 254.538 185.53 254.505 185.439C253.978 183.977 253.632 183.021 251.399 183.021C249.378 183.021 247.357 183.169 247.95 188.182C247.432 188.261 246.963 188.351 246.529 188.434C244.894 188.748 243.74 188.97 242.25 188.182C242.184 187.986 242.094 187.755 241.982 187.468C241.91 187.282 241.828 187.073 241.738 186.834C240.974 185.325 240.815 183.58 241.293 181.957C241.416 181.567 241.454 181.155 241.404 180.749C241.353 180.343 241.216 179.953 241.001 179.605C240.786 179.257 240.499 178.96 240.159 178.733C239.818 178.507 239.433 178.356 239.029 178.292C237.049 178.063 234.462 178.453 234.785 180.987C234.891 181.765 234.859 182.456 234.831 183.092C234.786 184.075 234.747 184.927 235.23 185.77L233.882 185.932C233.101 186.026 232.306 186.066 231.511 186.093C231.137 185.595 230.866 185.027 230.716 184.423C230.002 182.038 230.015 181.728 230.284 180.286C230.334 180.021 230.444 179.74 230.553 179.461C231.038 178.219 231.517 176.994 226.7 177.214C225.87 177.377 225.123 177.823 224.587 178.478C224.051 179.132 223.76 179.952 223.763 180.798C223.577 182.743 223.865 183.262 224.265 183.982C224.533 184.464 224.851 185.037 225.11 186.188C224.739 186.215 224.373 186.287 224.019 186.403C222.213 187.064 220.731 185.81 217.942 183.372C215.153 180.933 213.9 179.962 212.35 180.879C211.331 181.713 210.515 182.768 209.965 183.964L209.022 183.749C208.965 183.484 208.893 183.223 208.806 182.967H209.17C209.17 182.967 210.167 181.62 207.337 179.706C206.811 178.864 206.177 178.094 205.451 177.416C201.934 174.155 198.377 173.373 197.622 173.508C197.278 173.598 195.977 174.183 194.695 174.76L194.694 174.761L194.483 174.856C184.606 171.905 184.121 170.975 184.121 170.975L183.595 170.813L183.878 154.644L166.456 150.763L157.024 150.602L156.848 160.667L156.107 160.546C151.243 160.034 131.139 159.36 128.498 160.034L127.865 160.195C118.648 157.069 111.695 154.698 111.695 154.698C106.939 153.296 104.392 153.862 103.624 157.783C102.775 162.095 105.524 167.782 115.94 173.953C123.93 178.763 131.368 182.684 146.594 188.088L146.446 196.765L142.148 198.18L138.308 415.241L156.848 409.177L202.163 416.359L205.882 202.707L218.009 205.2L217.834 212.584L215.233 213.433L211.703 415.833L228.991 410.188L271.247 416.925L274.75 216.155C278.146 216.748 280.598 217.152 281.784 217.314C284.074 217.6 287.048 218.087 290.805 218.701C291.823 218.867 292.898 219.043 294.032 219.227L293.924 225.223L291.634 226.072L288.077 429.685L303.357 423.972L306.941 221.194L303.397 423.972L340.627 430.602L344.184 226.988L325.32 223.633C335.507 224.846 347.539 226.059 361.701 227.15C385.012 228.942 373.896 219.321 365.474 218.567ZM303.976 200.808V201.603L301.362 200.969L303.976 200.808ZM117.639 484.532L127.256 480.737L86.5811 377.753C94.1971 373.093 99.154 365.515 99.154 356.957C99.154 347.34 92.8933 338.962 83.6637 334.574V198.788C91.5638 194.451 96.8175 186.758 96.8175 177.98C96.8175 166.362 87.5363 156.565 75.1053 154.073V143.746H77.0416V140.39H75.1053V115.115C76.3903 114.381 77.4637 113.328 78.2214 112.056C78.9791 110.785 79.3953 109.34 79.4297 107.861C79.4117 106.614 79.1147 105.387 78.5608 104.27C78.0068 103.154 77.2099 102.175 76.2284 101.406V96.643H72.0073V71.5488H73.9436V67.7408H70.7681V39.9357H73.3498V36.1277H70.7422L69.9548 -15.0289H67.6055L66.8181 36.1277H64.1589V39.9357H66.7406V67.7408H63.6942V71.5488H65.6305V96.643H62.442V101.406C61.4355 102.172 60.6219 103.162 60.0664 104.298C59.5108 105.433 59.2286 106.683 59.2424 107.948C59.2562 109.212 59.5656 110.456 60.1458 111.579C60.7261 112.703 61.561 113.675 62.584 114.418V140.39H59.2407V143.746H62.584V154.073C50.1531 156.565 40.8719 166.323 40.8719 177.98C40.8719 186.758 46.1256 194.451 54.0128 198.788V334.574C44.7573 338.962 38.5225 347.34 38.5225 356.957C38.5225 366.187 44.2668 374.267 52.9026 378.785L-16.4163 478.517L-7.9354 484.416L63.0617 382.167V484.971H73.3885V382.322C74.589 382.154 75.7637 381.935 76.8996 381.664L117.639 484.532ZM65.3723 224.115L65.5401 224.412H69.2965L72.8593 222.734V235.888H65.3723V224.115ZM65.3723 247.208L65.5401 247.467H69.2965L72.8593 245.995V258.103H65.3723V247.208ZM65.3723 269.424L65.5401 269.682H69.2965L72.8593 268.211V281.274H65.3723V269.424ZM65.3723 291.291L65.5401 291.472H69.2965L72.8593 290.452V301.812H65.3723V291.291ZM65.3723 311.829L65.5401 312.009H69.2965L72.8593 310.99V322.336H65.3723V311.829ZM69.7354 331.321L72.8593 330.74V331.54C71.8395 331.424 70.7939 331.346 69.7354 331.321ZM68.7802 202.519C70.1311 202.519 71.4806 202.432 72.8205 202.261V212.162H65.3336V202.312C66.4776 202.446 67.6283 202.515 68.7802 202.519ZM65.3336 331.282L65.5014 331.398H66.1984L65.3207 331.475L65.3336 331.282Z" fill="#059FF5"/>
<g clip-path="url(#clip1)">
<path d="M367.15 330.852H239.89V479.142H367.15V330.852Z" fill="url(#paint0_linear)"/>
<path opacity="0.56" fill-rule="evenodd" clip-rule="evenodd" d="M243.56 334.121H260.08V360.231H243.56V334.121ZM262.399 334.121H278.919V360.231H262.399V334.121ZM297.53 334.121H281.01V360.231H297.53V334.121ZM299.8 334.121H316.32V360.231H299.8V334.121ZM335.29 334.121H318.77V360.231H335.29V334.121ZM337.38 334.121H353.9V360.231H337.38V334.121ZM363.469 334.121H356.169V360.231H363.469V334.121ZM243.56 363.711H363.47V367.621H243.56V363.711ZM243.56 373.012H363.47V376.922H243.56V373.012ZM363.47 382.312H243.56V386.222H363.47V382.312ZM243.56 391.621H363.47V395.531H243.56V391.621ZM363.47 400.922H243.56V404.832H363.47V400.922ZM243.56 410.223H363.47V414.133H243.56V410.223ZM363.47 419.52H243.56V423.43H363.47V419.52ZM243.56 428.82H363.47V432.73H243.56V428.82ZM363.47 438.133H243.56V442.043H363.47V438.133ZM243.56 447.43H363.47V451.34H243.56V447.43ZM363.47 456.73H243.56V460.64H363.47V456.73ZM243.56 466.031H363.47V469.941H243.56V466.031ZM363.47 475.34H243.56V479.25H363.47V475.34Z" fill="url(#paint1_linear)"/>
<path d="M367.15 330.871H239.89V299.871L367.15 330.871Z" fill="url(#paint2_linear)"/>
</g>
<g clip-path="url(#clip2)">
<path d="M269.26 266.871H153.91V528.081H269.26V266.871Z" fill="url(#paint3_linear)"/>
<path fill-rule="evenodd" clip-rule="evenodd" d="M190.339 277.293H164.729V294.313H190.339V277.293ZM190.339 299.402H164.729V316.422H190.339V299.402ZM164.729 321.172H190.339V338.192H164.729V321.172ZM190.339 342.941H164.729V359.961H190.339V342.941ZM164.729 364.711H190.339V381.731H164.729V364.711ZM190.339 386.473H164.729V403.493H190.339V386.473ZM164.729 408.242H190.339V425.262H164.729V408.242ZM190.339 430.012H164.729V447.032H190.339V430.012ZM164.729 451.781H190.339V468.801H164.729V451.781ZM190.339 473.543H164.729V490.563H190.339V473.543ZM164.729 495.312H190.339V512.333H164.729V495.312ZM224.39 277.293H198.78V294.313H224.39V277.293ZM198.78 299.402H224.39V316.422H198.78V299.402ZM224.39 321.172H198.78V338.192H224.39V321.172ZM198.78 342.941H224.39V359.961H198.78V342.941ZM224.39 364.711H198.78V381.731H224.39V364.711ZM198.78 386.473H224.39V403.493H198.78V386.473ZM224.39 408.242H198.78V425.262H224.39V408.242ZM198.78 430.012H224.39V447.032H198.78V430.012ZM224.39 451.781H198.78V468.801H224.39V451.781ZM198.78 473.543H224.39V490.563H198.78V473.543ZM224.39 495.312H198.78V512.333H224.39V495.312ZM232.27 277.293H257.88V294.313H232.27V277.293ZM257.88 299.402H232.27V316.422H257.88V299.402ZM232.27 321.172H257.88V338.192H232.27V321.172ZM257.88 342.941H232.27V359.961H257.88V342.941ZM232.27 364.711H257.88V381.731H232.27V364.711ZM257.88 386.473H232.27V403.493H257.88V386.473ZM232.27 408.242H257.88V425.262H232.27V408.242ZM257.88 430.012H232.27V447.032H257.88V430.012ZM232.27 451.781H257.88V468.801H232.27V451.781ZM257.88 473.543H232.27V490.563H257.88V473.543ZM232.27 495.312H257.88V512.333H232.27V495.312Z" fill="#F97673"/>
<path fill-rule="evenodd" clip-rule="evenodd" d="M190.339 277.293H164.729V294.313H190.339V277.293ZM190.339 299.402H164.729V316.422H190.339V299.402ZM164.729 321.172H190.339V338.192H164.729V321.172ZM190.339 342.941H164.729V359.961H190.339V342.941ZM164.729 364.711H190.339V381.731H164.729V364.711ZM190.339 386.473H164.729V403.493H190.339V386.473ZM164.729 408.242H190.339V425.262H164.729V408.242ZM190.339 430.012H164.729V447.032H190.339V430.012ZM164.729 451.781H190.339V468.801H164.729V451.781ZM190.339 473.543H164.729V490.563H190.339V473.543ZM164.729 495.312H190.339V512.333H164.729V495.312ZM224.39 277.293H198.78V294.313H224.39V277.293ZM198.78 299.402H224.39V316.422H198.78V299.402ZM224.39 321.172H198.78V338.192H224.39V321.172ZM198.78 342.941H224.39V359.961H198.78V342.941ZM224.39 364.711H198.78V381.731H224.39V364.711ZM198.78 386.473H224.39V403.493H198.78V386.473ZM224.39 408.242H198.78V425.262H224.39V408.242ZM198.78 430.012H224.39V447.032H198.78V430.012ZM224.39 451.781H198.78V468.801H224.39V451.781ZM198.78 473.543H224.39V490.563H198.78V473.543ZM224.39 495.312H198.78V512.333H224.39V495.312ZM232.27 277.293H257.88V294.313H232.27V277.293ZM257.88 299.402H232.27V316.422H257.88V299.402ZM232.27 321.172H257.88V338.192H232.27V321.172ZM257.88 342.941H232.27V359.961H257.88V342.941ZM232.27 364.711H257.88V381.731H232.27V364.711ZM257.88 386.473H232.27V403.493H257.88V386.473ZM232.27 408.242H257.88V425.262H232.27V408.242ZM257.88 430.012H232.27V447.032H257.88V430.012ZM232.27 451.781H257.88V468.801H232.27V451.781ZM257.88 473.543H232.27V490.563H257.88V473.543ZM232.27 495.312H257.88V512.333H232.27V495.312Z" fill="url(#paint4_linear)"/>
<path d="M153.91 526.061L127.89 549.661V290.471L153.91 266.871V526.061Z" fill="url(#paint5_linear)"/>
</g>
<g clip-path="url(#clip3)">
<path d="M130.583 241H-16.4165V457H130.583V241Z" fill="url(#paint6_linear)"/>
<path opacity="0.56" fill-rule="evenodd" clip-rule="evenodd" d="M-11.3223 249.277H7.76024V275.378H-11.3223V249.277ZM10.4286 249.277H29.5112V275.378H10.4286V249.277ZM51.0077 249.277H31.9252V275.378H51.0077V249.277ZM53.6299 249.277H72.7124V275.378H53.6299V249.277ZM94.6364 249.277H75.5539V275.378H94.6364V249.277ZM97.0392 249.277H116.122V275.378H97.0392V249.277ZM127.176 249.277H118.743V275.378H127.176V249.277ZM-11.3223 339.674H127.188V343.582H-11.3223V339.674ZM127.188 329.345H-11.3223V333.254H127.188V329.345ZM-11.3223 319.029H127.188V322.937H-11.3223V319.029ZM127.188 308.705H-11.3223V312.613H127.188V308.705ZM-11.3223 298.388H127.188V302.297H-11.3223V298.388ZM127.188 288.06H-11.3223V291.968H127.188V288.06ZM-11.3223 277.747H127.188V281.656H-11.3223V277.747ZM127.188 348.971H-11.3223V352.879H127.188V348.971ZM-11.3223 358.264H127.188V362.173H-11.3223V358.264ZM127.188 367.573H-11.3223V371.482H127.188V367.573ZM-11.3223 376.871H127.188V380.779H-11.3223V376.871ZM127.188 386.164H-11.3223V390.073H127.188V386.164ZM-11.3223 395.461H127.188V399.37H-11.3223V395.461ZM127.188 404.759H-11.3223V408.667H127.188V404.759ZM-11.3223 414.064H127.188V417.973H-11.3223V414.064ZM127.188 423.361H-11.3223V427.27H127.188V423.361ZM-11.3223 432.659H127.188V436.567H-11.3223V432.659ZM127.188 441.956H-11.3223V445.865H127.188V441.956ZM-11.3223 451.261H127.188V455.17H-11.3223V451.261Z" fill="url(#paint7_linear)"/>
</g>
<g clip-path="url(#clip4)">
<path fill-rule="evenodd" clip-rule="evenodd" d="M931.311 339.117C931.44 339.004 931.505 338.891 931.505 338.776C931.505 335.584 880.873 332.996 818.415 332.996C755.957 332.996 705.325 335.584 705.325 338.776C705.325 338.891 705.39 339.004 705.518 339.117H705.325V416.347H931.495V339.117H931.311Z" fill="url(#paint8_linear)"/>
<path opacity="0.38" fill-rule="evenodd" clip-rule="evenodd" d="M815.485 337.438L809.325 337.457V414.666H815.485V337.438ZM798.325 337.527L804.495 337.477V348.897H798.45L804.495 348.995V414.665H798.325V337.527ZM787.375 337.654V348.764L793.535 348.844V337.574L787.375 337.654ZM787.375 414.666H793.535V348.846L787.375 348.766V414.666ZM776.395 337.845L782.555 337.695V414.667H776.395V337.845ZM765.415 338.106V348.316V414.666H771.585V348.476V337.996L765.415 338.106ZM754.445 338.446L760.605 338.246V414.666H754.445V338.446ZM743.465 338.885V347.535V414.665H749.625V347.795V338.625L743.465 338.885ZM710.535 339.807V343.327V412.998H716.695V339.117C714.325 339.267 712.215 339.537 710.535 339.807ZM727.675 339.766C725.475 339.916 723.415 340.076 721.515 340.236V414.667H727.675V339.766ZM732.485 339.457C734.455 339.337 736.505 339.227 738.655 339.117V414.665H732.485V339.457ZM820.325 337.438L826.485 337.447V414.666H820.325V337.438ZM837.495 337.517L831.325 337.477V414.666H837.495V337.517ZM842.255 337.566L848.415 337.646V414.665H842.255V337.566ZM859.395 337.825L853.235 337.715V414.668H859.395V337.825ZM864.205 348.496V337.926L870.375 338.076V348.346L864.205 348.496ZM870.375 414.668H864.205V348.498L870.375 348.348V414.668ZM875.185 338.215V348.185L875.165 348.186L875.185 414.666H881.325V347.996L881.074 348.004L881.325 347.995V338.415L875.185 338.215ZM886.165 338.586L892.325 338.836V414.666H886.165V338.586ZM897.135 339.066V347.356L897.155 347.355L897.135 414.666H903.325V339.396L897.135 339.066ZM908.115 346.695V339.695C910.005 339.815 911.742 339.949 913.425 340.08L914.275 340.145V346.245C912.365 346.405 910.305 346.555 908.115 346.695ZM914.325 414.667H908.115L908.165 346.727C910.325 346.587 912.415 346.437 914.325 346.277V414.667ZM919.095 340.574V345.844C921.465 345.604 923.525 345.364 925.255 345.104V341.314C923.525 341.064 921.465 340.814 919.095 340.574ZM919.095 414.665H925.255V345.105C923.525 345.365 921.465 345.605 919.095 345.845V414.665Z" fill="url(#paint9_linear)"/>
</g>
<g clip-path="url(#clip5)">
<path d="M925.76 285.805H1056.29V581.385H925.76V285.805Z" fill="url(#paint10_linear)"/>
<path d="M998.313 297.598H1043.95V316.857H998.313V297.598Z" fill="url(#paint11_linear)"/>
<path d="M1043.95 322.616H998.313V341.876H1043.95V322.616Z" fill="url(#paint12_linear)"/>
<path d="M998.313 347.25H1043.95V366.51H998.313V347.25Z" fill="url(#paint13_linear)"/>
<path d="M1043.95 371.884H998.313V391.144H1043.95V371.884Z" fill="url(#paint14_linear)"/>
<path d="M998.313 396.518H1043.95V415.778H998.313V396.518Z" fill="url(#paint15_linear)"/>
<path d="M1043.95 421.143H998.313V440.403H1043.95V421.143Z" fill="url(#paint16_linear)"/>
<path d="M998.313 445.777H1043.95V465.037H998.313V445.777Z" fill="url(#paint17_linear)"/>
<path d="M1043.95 470.411H998.313V489.671H1043.95V470.411Z" fill="url(#paint18_linear)"/>
<path d="M998.313 495.045H1043.95V514.305H998.313V495.045Z" fill="url(#paint19_linear)"/>
<path d="M1043.95 519.671H998.313V538.93H1043.95V519.671Z" fill="url(#paint20_linear)"/>
<path d="M998.313 544.305H1043.95V563.564H998.313V544.305Z" fill="url(#paint21_linear)"/>
<path d="M984.272 297.598H938.638V316.857H984.272V297.598Z" fill="url(#paint22_linear)"/>
<path d="M938.638 322.616H984.272V341.876H938.638V322.616Z" fill="url(#paint23_linear)"/>
<path d="M984.272 347.25H938.638V366.51H984.272V347.25Z" fill="url(#paint24_linear)"/>
<path d="M938.638 371.884H984.272V391.144H938.638V371.884Z" fill="url(#paint25_linear)"/>
<path d="M984.272 396.518H938.638V415.778H984.272V396.518Z" fill="url(#paint26_linear)"/>
<path d="M938.638 421.143H984.272V440.403H938.638V421.143Z" fill="url(#paint27_linear)"/>
<path d="M984.272 445.777H938.638V465.037H984.272V445.777Z" fill="url(#paint28_linear)"/>
<path d="M938.638 470.411H984.272V489.671H938.638V470.411Z" fill="url(#paint29_linear)"/>
<path d="M984.272 495.045H938.638V514.305H984.272V495.045Z" fill="url(#paint30_linear)"/>
<path d="M938.638 519.671H984.272V538.93H938.638V519.671Z" fill="url(#paint31_linear)"/>
<path d="M984.272 544.305H938.638V563.564H984.272V544.305Z" fill="url(#paint32_linear)"/>
<path d="M1056.29 579.099L1085.73 605.805V312.51L1056.29 285.805V579.099Z" fill="url(#paint33_linear)"/>
</g>
<rect x="396.531" y="381.742" width="280.054" height="35.2578" fill="#22BDEE"/>
<ellipse cx="536" cy="380.979" rx="140" ry="20.624" fill="#AEECFF"/>
<g filter="url(#filter0_f)">
<ellipse cx="535.548" cy="380.913" rx="94.0816" ry="3.92097" fill="#4B96C0"/>
</g>
<g opacity="0.5" filter="url(#filter1_f)">
<ellipse cx="606.218" cy="383.935" rx="42.6333" ry="2.33308" fill="#4B96C0"/>
</g>
<g opacity="0.5" filter="url(#filter2_f)">
<ellipse cx="552.442" cy="394.676" rx="13.6471" ry="1.20302" fill="#4B96C0"/>
</g>
<g opacity="0.5" filter="url(#filter3_f)">
<ellipse cx="605.969" cy="389.328" rx="7.51732" ry="1.20302" fill="#4B96C0"/>
</g>
<path d="M584.954 57H467.351C456.562 57 447.815 65.7466 447.815 76.536V362.187C447.815 372.976 456.562 381.723 467.351 381.723H584.954C595.744 381.723 604.49 372.976 604.49 362.187V76.536C604.49 65.7466 595.744 57 584.954 57Z" fill="#333333"/>
<path d="M583.932 63.1683H568.379C568.103 63.1649 567.829 63.2177 567.574 63.3235C567.319 63.4293 567.089 63.5859 566.896 63.7837C566.704 63.9816 566.554 64.2165 566.455 64.4743C566.357 64.732 566.312 65.0071 566.323 65.2828C566.323 65.6587 566.323 66.0346 566.323 66.4575C566.119 68.6893 565.083 70.7625 563.42 72.2646C561.756 73.7666 559.589 74.5873 557.348 74.5633H494.981C492.722 74.5981 490.535 73.7746 488.861 72.2592C487.186 70.7437 486.149 68.6493 485.959 66.3988C485.934 66.0076 485.934 65.6153 485.959 65.2241C485.97 64.9484 485.925 64.6733 485.826 64.4155C485.728 64.1578 485.578 63.9229 485.385 63.725C485.193 63.5272 484.962 63.3706 484.707 63.2647C484.453 63.1589 484.179 63.1061 483.903 63.1095H468.338C464.518 63.1095 460.854 64.6269 458.154 67.3279C455.453 70.0288 453.935 73.6921 453.935 77.5119V361.095C453.927 362.991 454.294 364.869 455.015 366.623C455.735 368.376 456.795 369.97 458.133 371.313C459.472 372.655 461.062 373.72 462.813 374.447C464.564 375.173 466.442 375.546 468.338 375.544H583.932C585.822 375.546 587.694 375.175 589.441 374.452C591.188 373.729 592.775 372.669 594.111 371.333C595.448 369.996 596.508 368.409 597.231 366.662C597.953 364.916 598.324 363.044 598.323 361.154V77.5706C598.324 75.6798 597.953 73.8073 597.231 72.06C596.508 70.3127 595.449 68.7249 594.112 67.3873C592.776 66.0498 591.189 64.9887 589.442 64.2648C587.695 63.5409 585.823 63.1683 583.932 63.1683Z" fill="#FDFDFF"/>
<path d="M536.708 63.5898H515.621C514.628 63.5898 513.824 64.3945 513.824 65.3872C513.824 66.3799 514.628 67.1846 515.621 67.1846H536.708C537.7 67.1846 538.505 66.3799 538.505 65.3872C538.505 64.3945 537.7 63.5898 536.708 63.5898Z" fill="white"/>
<path d="M543.697 67.4436C544.833 67.4436 545.753 66.5232 545.753 65.3878C545.753 64.2524 544.833 63.332 543.697 63.332C542.562 63.332 541.642 64.2524 541.642 65.3878C541.642 66.5232 542.562 67.4436 543.697 67.4436Z" fill="white"/>
<path d="M538.505 144.707H513.824V291.432H538.505V144.707Z" fill="#838C93"/>
<path d="M480.756 292.386C518.633 292.386 549.338 260.898 549.338 222.055C549.338 183.211 518.633 151.723 480.756 151.723C442.88 151.723 412.175 183.211 412.175 222.055C412.175 260.898 442.88 292.386 480.756 292.386Z" fill="#FEC332"/>
<path d="M550.371 235.505C540.55 273.649 502.019 296.744 464.533 286.242C427.047 275.74 406.148 235.974 417.543 198.277C428.715 161.484 466.659 140.444 502.547 150.5C538.436 160.556 559.981 198.265 550.371 235.505Z" fill="url(#paint34_linear)"/>
<path d="M539.305 232.438C531.023 264.156 498.953 283.222 467.834 274.505C436.715 265.789 419.246 232.802 428.644 201.413C437.866 170.658 469.525 152.99 499.54 161.401C529.555 169.812 547.423 201.331 539.305 232.438Z" fill="#E99C16"/>
<path d="M480.498 244.48L477.256 256.122L470.477 254.219L473.708 242.753C467.932 241.04 462.337 238.766 457.003 235.963L460.821 222.642C466.135 225.448 471.7 227.748 477.443 229.514L480.134 219.94C466.471 213.467 464.651 208.134 467.646 197.702C471.17 185.59 478.841 183.958 489.579 186.366L491.658 178.953L498.272 180.809L496.204 188.222C500.554 189.604 504.751 191.43 508.727 193.673L505.344 205.984C501.379 203.672 497.176 201.793 492.809 200.38L490.072 210.119C504.251 216.803 505.285 222.43 502.559 232.439C499.658 243.071 493.631 247.088 480.498 244.48ZM483.764 206.982L486.113 198.595C482.753 198.09 481.72 199.006 481.038 201.426C480.357 203.846 480.756 205.185 483.764 206.982ZM488.956 228.375C489.532 226.331 489.285 225.027 486.442 223.17L484.21 231.194C487.358 231.64 488.322 230.665 488.956 228.375Z" fill="#DF7F13"/>
<path d="M480.204 243.656L476.95 255.298L470.183 253.395L473.402 241.929C467.622 240.213 462.026 237.926 456.697 235.104L460.527 221.794C465.836 224.6 471.398 226.901 477.138 228.666L479.828 219.092C466.177 212.631 464.345 207.345 467.34 196.878C470.865 184.766 478.547 183.133 489.273 185.542L491.364 178.129L497.966 179.985L495.898 187.398C500.252 188.786 504.449 190.624 508.421 192.884L505.038 205.183C501.074 202.859 496.872 200.969 492.503 199.544L489.778 209.318C503.945 215.991 504.979 221.63 502.254 231.638C499.352 242.258 493.326 246.264 480.204 243.656ZM483.47 206.182L485.819 197.794C482.448 197.289 481.426 198.217 480.733 200.625C480.039 203.033 480.462 204.384 483.47 206.182ZM488.65 227.562C489.226 225.518 488.979 224.214 486.148 222.358L483.904 230.381C487.053 230.828 488.016 229.853 488.65 227.562Z" fill="#FFF285"/>
<path d="M418.471 199.757C429.631 162.917 467.587 141.854 503.487 151.922C519.369 156.379 533.083 166.469 542.066 180.303C533.121 165.757 519.024 155.115 502.583 150.5C466.694 140.444 428.75 161.484 417.578 198.277C414.626 207.895 413.751 218.031 415.011 228.014C416.27 237.996 419.636 247.596 424.885 256.18C419.997 247.721 416.905 238.344 415.801 228.637C414.698 218.929 415.607 209.098 418.471 199.757Z" fill="#FFFCC8"/>
<path d="M429.232 202.224C438.442 171.457 470.113 153.73 500.128 162.188C512.527 165.665 523.366 173.275 530.847 183.757C523.353 172.86 512.274 164.937 499.54 161.366C469.526 152.955 437.866 170.623 428.645 201.378C426.083 209.831 425.448 218.751 426.786 227.482C428.123 236.214 431.4 244.534 436.375 251.833C431.627 244.59 428.527 236.394 427.292 227.822C426.058 219.25 426.72 210.512 429.232 202.224Z" fill="#DF7F13"/>
<path d="M490.236 209.578L490.154 209.884C495.863 212.574 499.434 215.099 501.49 217.801C499.564 214.97 496.039 212.362 490.236 209.578Z" fill="#FFFCC8"/>
<path d="M488.65 227.562C488.051 229.724 487.147 230.687 484.421 230.428L484.28 230.922C487.44 231.368 488.392 230.393 489.038 228.102C489.275 227.519 489.348 226.883 489.249 226.261C489.149 225.64 488.881 225.058 488.474 224.578C488.715 225.034 488.856 225.536 488.886 226.051C488.916 226.566 488.836 227.081 488.65 227.562Z" fill="#FFFCC8"/>
<path d="M486.207 198.371C486.019 198.371 485.866 198.371 485.69 198.371L483.47 206.289C482.64 205.838 481.891 205.255 481.25 204.562C481.917 205.515 482.809 206.29 483.846 206.818L486.207 198.371Z" fill="#FFFCC8"/>
<path d="M468.351 211.069C465.872 207.368 466.002 203.163 467.705 197.395C471.229 185.283 478.912 183.65 489.637 186.058L491.728 178.658L497.849 180.373L497.955 179.985L491.352 178.129L489.261 185.542C478.536 183.192 470.818 184.766 467.329 196.878C465.614 202.904 465.496 207.239 468.351 211.069Z" fill="#FFFCC8"/>
<path d="M473.778 242.473L473.297 242.32L470.184 253.398L470.677 253.539L473.778 242.473Z" fill="#FFFCC8"/>
<path d="M460.903 222.335C466.213 225.139 471.775 227.44 477.514 229.208L480.204 219.633L479.746 219.41L477.138 228.667C471.398 226.902 465.836 224.601 460.527 221.795L456.697 235.105L457.155 235.375L460.903 222.335Z" fill="#FFFCC8"/>
<path opacity="0.5" d="M499.54 161.366C469.525 152.955 437.866 170.623 428.644 201.378C424.12 216.332 425.682 232.468 432.991 246.277L533.666 188.256C530.027 181.749 525.139 176.025 519.283 171.411C513.427 166.796 506.718 163.383 499.54 161.366Z" fill="url(#paint35_linear)"/>
<path d="M496.261 187.513C500.445 188.863 504.489 190.614 508.338 192.74L508.408 192.482C504.585 190.304 500.551 188.521 496.367 187.16L496.261 187.513Z" fill="#FFFCC8"/>
<path fill-rule="evenodd" clip-rule="evenodd" d="M463.639 149.333L466.893 152.975C467.067 153.115 467.271 153.212 467.49 153.257C467.709 153.302 467.935 153.294 468.15 153.234C469.06 152.509 470.09 151.948 471.193 151.577C472.661 151.107 474.905 152.176 476.103 152.623C477.019 152.952 477.936 151.706 476.502 150.637C475.924 150.261 475.305 149.95 474.658 149.709L479.087 149.263C480.744 149.213 482.403 149.308 484.044 149.545C484.502 149.545 484.162 148.84 483.645 148.37C480.919 146.162 476.749 145.586 473.977 145.574C470.452 145.574 463.733 148.276 463.733 148.276C463.595 148.413 463.51 148.594 463.492 148.788C463.475 148.981 463.527 149.174 463.639 149.333Z" fill="#FFD4C7"/>
<path fill-rule="evenodd" clip-rule="evenodd" d="M412.62 228.733C412.62 228.733 412.531 232.802 414.364 239.685C415.032 246.419 416.415 256.298 416.849 260.22C418.329 273.494 417.448 273.988 410.975 283.985C406.546 291.562 396.549 303.897 394.528 306.305C392.943 305.482 387.257 301.206 387.257 301.206C387.257 301.206 397.054 282.058 398.828 275.738C400.543 269.641 400.52 268.784 399.592 263.286L392.543 239.685L382.581 264.519C381.066 268.043 379.186 269.218 371.222 273.271C364.913 276.948 354.963 280.39 350.957 281.905C346.951 283.421 342.323 284.901 342.323 284.901C341.454 284.208 338.27 277.018 338.27 277.018L362.822 260.572C367.31 257.295 368.003 254.945 369.777 249.659L377.095 221.465L412.62 228.733Z" fill="url(#paint36_linear)"/>
<path fill-rule="evenodd" clip-rule="evenodd" d="M342.323 284.899C342.323 284.899 341.442 283.325 339.68 279.342C339.415 278.455 339.061 277.597 338.622 276.781C338.622 276.781 333.841 279.131 331.069 280.928C330.564 281.245 329.436 282.267 329.53 282.831C330.223 287.072 335.051 301.063 339.069 302.379C341.36 303.119 340.807 295.33 340.173 292.182C339.539 289.034 342.323 284.899 342.323 284.899Z" fill="#333333"/>
<path fill-rule="evenodd" clip-rule="evenodd" d="M394.857 305.977C394.857 305.977 393.272 305.143 389.642 302.734C388.94 302.126 388.176 301.595 387.363 301.148C387.363 301.148 384.625 305.718 383.239 308.702C382.993 309.254 382.593 310.711 382.969 311.145C385.847 314.341 397.465 323.516 401.542 322.458C403.891 321.847 399.192 315.551 396.984 313.272C394.775 310.993 394.857 305.977 394.857 305.977Z" fill="#333333"/>
<path d="M412.332 167.156C407.896 167.581 401.034 166.16 401.034 166.16C392.705 164.233 386.623 171.029 384.591 186.712L384.384 190.088C383.86 192.189 383.348 194.302 382.877 196.243C382.008 199.824 381.281 202.821 380.885 204.086C380.209 206.25 378.864 212.255 377.654 217.661C377.077 220.233 376.531 222.67 376.103 224.493C376.685 225.242 378.922 226.476 380.519 226.975C380.783 227.058 381.196 227.206 381.723 227.396C385.622 228.796 395.748 232.432 397.892 228.205C397.906 228.177 397.92 228.149 397.934 228.121C401.032 228.82 403.571 229.255 405.639 229.511C405.652 231.032 405.886 232.077 408.132 231.643C409.091 231.457 409.935 231.338 410.659 231.236C412.829 230.929 412.924 231.457 412.801 230.129C412.611 228.082 412.636 224.749 412.512 223.792C412.339 220.13 412.42 217.117 412.801 212.576C412.952 211.564 413.51 207.481 413.741 206.392C416.212 194.75 417.789 187.652 417.789 187.652L441.002 171.769C453.219 162.712 467.892 152.938 467.892 152.938L464.015 147.992L435.821 160.82C435.821 160.82 421.572 165.315 414.655 166.766C413.433 166.765 412.223 167.031 412.304 167.123C412.314 167.134 412.323 167.145 412.332 167.156Z" fill="url(#paint37_linear)"/>
<path d="M411.1 188.643C409.687 199.038 405.764 228.371 405.764 229.653C405.764 229.704 405.765 229.754 405.765 229.804C403.697 229.548 401.158 229.113 398.06 228.414C400.878 222.763 403.791 207.702 404.514 198.586C404.617 191.026 403.905 185.681 402.73 181.959C402.641 177.549 401.876 172.845 401.251 170.053V168.93C402.561 169.865 405.886 171.475 408.67 171.655C408.826 171.665 408.969 171.675 409.099 171.684C409.768 171.731 410.047 171.559 410.384 171.474C410.789 171.373 411.142 171.154 411.946 170.586C412.119 170.463 412.418 170.071 412.637 169.918C412.885 169.744 413.236 169.323 413.349 169.918C413.934 172.994 413.953 178.922 411.1 188.643Z" fill="white"/>
<path fill-rule="evenodd" clip-rule="evenodd" d="M410.399 211.659C410.399 211.659 411.099 211.697 411.966 213.547C413.072 215.744 414.529 217.746 416.279 219.473C417.574 220.633 417.535 221.793 416.825 221.781C416.08 221.621 415.372 221.318 414.742 220.888C414.648 223.326 414.739 225.767 415.013 228.192C413.688 227.318 412.559 226.179 411.697 224.847C410.599 222.305 409.739 219.667 409.127 216.967C408.934 216.325 407.913 215.788 407.913 215.788L410.399 211.659Z" fill="#FFD4C7"/>
<g clip-path="url(#clip6)">
<path d="M638.939 320.598H572.273C570.975 320.598 569.923 321.65 569.923 322.947V330.924C569.923 332.221 570.975 333.273 572.273 333.273H638.939C640.237 333.273 641.289 332.221 641.289 330.924V322.947C641.289 321.65 640.237 320.598 638.939 320.598Z" fill="#FEC332"/>
<path d="M630.082 320.598L623.256 333.273H615.08L621.906 320.598H630.082Z" fill="url(#paint38_linear)"/>
<path opacity="0.5" d="M630.082 320.598L623.256 333.273H615.08L621.906 320.598H630.082Z" fill="white"/>
<path d="M620.049 320.598L613.224 333.273H610.393L617.23 320.598H620.049Z" fill="url(#paint39_linear)"/>
<path opacity="0.5" d="M620.049 320.598L613.224 333.273H610.393L617.23 320.598H620.049Z" fill="white"/>
<path d="M633.876 320.598L627.051 333.273H625.641L632.466 320.598H633.876Z" fill="url(#paint40_linear)"/>
<path opacity="0.5" d="M633.876 320.598L627.051 333.273H625.641L632.466 320.598H633.876Z" fill="#FFAC27"/>
<path opacity="0.5" d="M638.939 333.271H572.273C571.948 333.27 571.626 333.202 571.329 333.071C571.032 332.939 570.765 332.748 570.546 332.508H640.666C640.447 332.748 640.18 332.939 639.883 333.071C639.586 333.202 639.264 333.27 638.939 333.271Z" fill="#E08E17"/>
<path d="M638.939 333.273H572.273C570.975 333.273 569.923 334.325 569.923 335.623V343.599C569.923 344.897 570.975 345.949 572.273 345.949H638.939C640.237 345.949 641.289 344.897 641.289 343.599V335.623C641.289 334.325 640.237 333.273 638.939 333.273Z" fill="#FEC332"/>
<path d="M630.082 333.273L623.256 345.949H615.08L621.906 333.273H630.082Z" fill="url(#paint41_linear)"/>
<path opacity="0.5" d="M630.082 333.273L623.256 345.949H615.08L621.906 333.273H630.082Z" fill="white"/>
<path d="M620.049 333.273L613.224 345.949H610.393L617.23 333.273H620.049Z" fill="url(#paint42_linear)"/>
<path opacity="0.5" d="M620.049 333.273L613.224 345.949H610.393L617.23 333.273H620.049Z" fill="white"/>
<path d="M633.876 333.273L627.051 345.949H625.641L632.466 333.273H633.876Z" fill="url(#paint43_linear)"/>
<path opacity="0.5" d="M633.876 333.273L627.051 345.949H625.641L632.466 333.273H633.876Z" fill="#FFAC27"/>
<path opacity="0.5" d="M638.939 345.947H572.273C571.948 345.946 571.626 345.878 571.329 345.746C571.032 345.615 570.765 345.423 570.546 345.184H640.666C640.447 345.423 640.18 345.615 639.883 345.746C639.586 345.878 639.264 345.946 638.939 345.947Z" fill="#E08E17"/>
<path d="M638.939 345.949H572.273C570.975 345.949 569.923 347.001 569.923 348.299V356.275C569.923 357.573 570.975 358.625 572.273 358.625H638.939C640.237 358.625 641.289 357.573 641.289 356.275V348.299C641.289 347.001 640.237 345.949 638.939 345.949Z" fill="#FEC332"/>
<path d="M630.082 345.949L623.256 358.625H615.08L621.906 345.949H630.082Z" fill="url(#paint44_linear)"/>
<path opacity="0.5" d="M630.082 345.949L623.256 358.625H615.08L621.906 345.949H630.082Z" fill="white"/>
<path d="M620.049 345.949L613.224 358.625H610.393L617.23 345.949H620.049Z" fill="url(#paint45_linear)"/>
<path opacity="0.5" d="M620.049 345.949L613.224 358.625H610.393L617.23 345.949H620.049Z" fill="white"/>
<path d="M633.876 345.949L627.051 358.625H625.641L632.466 345.949H633.876Z" fill="url(#paint46_linear)"/>
<path opacity="0.5" d="M633.876 345.949L627.051 358.625H625.641L632.466 345.949H633.876Z" fill="#FFAC27"/>
<path opacity="0.5" d="M638.939 358.623H572.273C571.948 358.622 571.626 358.554 571.329 358.422C571.032 358.291 570.765 358.099 570.546 357.859H640.666C640.447 358.099 640.18 358.291 639.883 358.422C639.586 358.554 639.264 358.622 638.939 358.623Z" fill="#E08E17"/>
<path d="M638.81 358.613H572.143C570.846 358.613 569.794 359.665 569.794 360.963V368.939C569.794 370.237 570.846 371.289 572.143 371.289H638.81C640.108 371.289 641.16 370.237 641.16 368.939V360.963C641.16 359.665 640.108 358.613 638.81 358.613Z" fill="#FEC332"/>
<path d="M629.953 358.613L623.127 371.289H614.951L621.776 358.613H629.953Z" fill="url(#paint47_linear)"/>
<path opacity="0.5" d="M629.953 358.613L623.127 371.289H614.951L621.776 358.613H629.953Z" fill="white"/>
<path d="M619.92 358.613L613.095 371.289H610.264L617.101 358.613H619.92Z" fill="url(#paint48_linear)"/>
<path opacity="0.5" d="M619.92 358.613L613.095 371.289H610.264L617.101 358.613H619.92Z" fill="white"/>
<path d="M633.747 358.613L626.922 371.289H625.512L632.337 358.613H633.747Z" fill="url(#paint49_linear)"/>
<path opacity="0.5" d="M633.747 358.613L626.922 371.289H625.512L632.337 358.613H633.747Z" fill="#FFAC27"/>
<path opacity="0.5" d="M638.81 371.287H572.143C571.818 371.286 571.497 371.218 571.2 371.086C570.903 370.955 570.636 370.763 570.417 370.523H640.537C640.318 370.763 640.051 370.955 639.754 371.086C639.456 371.218 639.135 371.286 638.81 371.287Z" fill="#E08E17"/>
<path d="M638.81 371.289H572.143C570.846 371.289 569.794 372.341 569.794 373.639V381.615C569.794 382.913 570.846 383.965 572.143 383.965H638.81C640.108 383.965 641.16 382.913 641.16 381.615V373.639C641.16 372.341 640.108 371.289 638.81 371.289Z" fill="#FEC332"/>
<path d="M629.953 371.289L623.127 383.965H614.951L621.776 371.289H629.953Z" fill="url(#paint50_linear)"/>
<path opacity="0.5" d="M629.953 371.289L623.127 383.965H614.951L621.776 371.289H629.953Z" fill="white"/>
<path d="M619.92 371.289L613.095 383.965H610.264L617.101 371.289H619.92Z" fill="url(#paint51_linear)"/>
<path opacity="0.5" d="M619.92 371.289L613.095 383.965H610.264L617.101 371.289H619.92Z" fill="white"/>
<path d="M633.747 371.289L626.922 383.965H625.512L632.337 371.289H633.747Z" fill="url(#paint52_linear)"/>
<path opacity="0.5" d="M633.747 371.289L626.922 383.965H625.512L632.337 371.289H633.747Z" fill="#FFAC27"/>
<path opacity="0.5" d="M638.81 383.963H572.143C571.818 383.962 571.497 383.894 571.2 383.762C570.903 383.631 570.636 383.439 570.417 383.199H640.537C640.318 383.439 640.051 383.631 639.754 383.762C639.456 383.894 639.135 383.962 638.81 383.963Z" fill="#E08E17"/>
</g>
<path d="M570.646 329.272C571.251 329.841 571.645 330.599 571.762 331.422C571.614 331.065 571.392 330.745 571.111 330.481C570.829 330.218 570.494 330.018 570.129 329.894C569.658 329.705 569.156 329.602 568.649 329.589C568.165 329.588 567.686 329.684 567.239 329.871C567.289 329.528 567.433 329.206 567.655 328.941C567.876 328.675 568.168 328.477 568.496 328.367C569.301 328.386 570.069 328.709 570.646 329.272Z" fill="url(#paint53_linear)"/>
<path d="M566.053 330.259C566.153 329.89 566.329 329.546 566.569 329.249C566.803 328.969 567.096 328.744 567.427 328.591C567.762 328.436 568.127 328.36 568.496 328.368C568.169 328.476 567.879 328.673 567.657 328.937C567.435 329.2 567.291 329.519 567.239 329.86C567.108 330.358 567.076 330.877 567.145 331.387C567.212 331.923 567.371 332.444 567.615 332.926C567.248 332.805 566.913 332.605 566.631 332.342C566.349 332.078 566.127 331.756 565.982 331.399C565.935 331.018 565.959 330.631 566.053 330.259Z" fill="url(#paint54_linear)"/>
<path d="M571.715 331.433C571.777 331.825 571.757 332.225 571.656 332.608C571.558 332.982 571.382 333.33 571.139 333.63C570.905 333.91 570.613 334.135 570.282 334.288C569.947 334.442 569.581 334.519 569.213 334.511C569.542 334.401 569.835 334.2 570.057 333.933C570.279 333.665 570.422 333.34 570.47 332.996C570.601 332.498 570.632 331.979 570.564 331.469C570.497 330.932 570.338 330.412 570.094 329.93C570.456 330.05 570.788 330.246 571.067 330.506C571.347 330.765 571.568 331.081 571.715 331.433Z" fill="url(#paint55_linear)"/>
<path d="M570.54 332.949C570.494 333.294 570.351 333.619 570.129 333.887C569.907 334.155 569.614 334.355 569.283 334.465C568.479 334.452 567.71 334.133 567.133 333.572C566.523 333.002 566.129 332.238 566.017 331.41C566.167 331.765 566.389 332.085 566.671 332.348C566.952 332.611 567.286 332.812 567.65 332.937C568.118 333.137 568.622 333.241 569.13 333.243C569.616 333.246 570.096 333.146 570.54 332.949Z" fill="url(#paint56_linear)"/>
<path d="M568.531 331.891L567.615 332.995" stroke="url(#paint57_linear)" stroke-width="0.2" stroke-miterlimit="10"/>
<path d="M569.365 331.891L570.54 333.065" stroke="url(#paint58_linear)" stroke-width="0.2" stroke-miterlimit="10"/>
<path d="M569.201 331.01L570.141 329.906" stroke="url(#paint59_linear)" stroke-width="0.2" stroke-miterlimit="10"/>
<path d="M568.942 331.893C569.082 331.925 569.226 331.925 569.365 331.893C569.394 331.753 569.394 331.609 569.365 331.47C569.347 331.323 569.304 331.179 569.236 331.047C569.107 330.987 568.967 330.955 568.825 330.953C568.688 330.957 568.553 330.985 568.426 331.035C568.403 331.171 568.403 331.31 568.426 331.447C568.449 331.596 568.493 331.743 568.555 331.881C568.682 331.908 568.814 331.912 568.942 331.893Z" fill="white"/>
<path d="M567.227 329.895L568.402 330.999" stroke="url(#paint60_linear)" stroke-width="0.2"/>
<path d="M629.682 278.907C616.415 259.889 617.742 260.167 611.394 240.592C605.266 225.633 596.307 227.925 593.632 228.88C590.935 230.401 590.737 232.023 589.772 234.309C594.083 257.398 586.006 270.796 581.2 288.513C577.241 302.725 599.941 306.466 612.793 308.791C619.349 310.729 622.629 304.807 626.155 306.461C629.682 308.115 633.438 308.522 634.12 308.791C626.105 296.158 640.968 295.085 629.682 278.907Z" fill="#141414"/>
<path fill-rule="evenodd" clip-rule="evenodd" d="M605.576 241.644C605.376 242.313 602.886 243.782 602.745 245.168C602.42 248.917 602.084 252.731 602.745 256.436L603.849 260.087C602.052 261.626 602.181 262.519 599.538 263.153C598.33 263.497 597.05 263.491 595.845 263.135C594.641 262.78 593.563 262.089 592.736 261.144C592.736 261.144 592.525 252.757 592.325 252.721C587.861 252.064 584.008 253.015 586.71 243.852L585.3 243.312C585.261 243.297 585.226 243.274 585.198 243.243C585.17 243.212 585.15 243.174 585.139 243.134C585.129 243.093 585.129 243.051 585.138 243.011C585.148 242.97 585.167 242.932 585.194 242.901L586.698 240.927C587.155 240.331 587.494 239.653 587.696 238.93C587.814 238.484 587.955 238.025 588.108 237.556C590.234 231.083 597.094 228.005 602.087 230.166C607.08 232.328 606.927 237.062 605.576 241.644Z" fill="#FFD4C7"/>
<path d="M591.035 231.284C590.368 232.287 590.14 232.995 589.759 234.264C590.504 234.625 591.588 234.856 592.796 235.2C593.051 234.479 593.243 234.214 593.88 233.791C593.387 234.313 593.32 234.612 593.152 235.34C594.95 235.704 599.838 237.377 601.952 239.879C602.258 240.232 602.581 242.101 602.862 242.441C603.084 242.199 603.355 242.008 603.657 241.88C603.96 241.753 604.286 241.692 604.614 241.702C604.942 241.712 605.263 241.793 605.557 241.938C605.851 242.084 606.11 242.292 606.316 242.547C607.327 243.604 608.317 234.938 606.085 231.813C603.657 229.074 602.256 228.463 599.648 228.063C597.91 227.77 596.441 227.959 594.732 228.391C593.152 229.07 592.067 229.734 591.035 231.284Z" fill="#141414"/>
<path d="M561.778 383.502C561.935 382.308 562.324 380.159 562.499 379.233L555.373 378.752C555.449 379.418 555.42 380.763 554.849 381.208C554.136 381.765 552.333 382.182 549.668 383.131C547.537 383.89 545.776 384.832 545.162 385.208C545.109 385.387 545.663 385.776 548.304 385.906C550.945 386.036 558.387 384.357 561.778 383.502Z" fill="#EFB6A5"/>
<path d="M561.414 382.132C561.747 382.085 561.823 382.089 561.966 382.187L562.156 389.353L540.831 388.028C540.831 388.028 543.759 385.424 546.078 384.706C546.669 384.781 548.652 384.719 550.957 384.77C553.262 384.821 558.104 383.37 560.041 382.529C560.3 382.416 561.082 382.179 561.414 382.132Z" fill="black"/>
<path d="M564.007 388.012C564.549 386.776 564.618 384.575 565.095 383.634L558.442 381.094C558.317 381.834 557.777 383.333 557.024 383.634C556.083 384.01 554.012 383.897 550.85 384.086C548.32 384.237 546.131 384.701 545.353 384.914C545.24 385.09 545.715 385.682 548.516 386.646C551.317 387.609 560.092 387.874 564.007 388.012Z" fill="#FFD4C7"/>
<path d="M563.799 386.675C564.172 386.729 564.253 386.756 564.376 386.906L562.343 394.676L539.813 386.595C539.813 386.595 543.776 384.707 546.495 384.658C547.108 384.923 549.26 385.475 551.724 386.249C554.188 387.023 559.851 386.974 562.198 386.673C562.511 386.633 563.427 386.622 563.799 386.675Z" fill="black"/>
<path d="M579.756 313.115L558.658 337.554C558.529 337.672 558.4 337.789 558.282 337.918C555.615 340.714 554.288 342.617 554.887 345.719L555.408 370.924C555.442 372.362 555.408 377.757 555.408 379.906C556.889 380.082 560.319 380.846 562.057 379.906C563.524 368.28 565.154 358.688 565.294 348.181C565.27 347.322 565.475 346.472 565.888 345.719C566.301 344.965 566.907 344.335 567.644 343.893C575.609 339.194 587.344 329.585 594.663 323.453C595.327 322.892 595.83 322.164 596.12 321.344C596.409 320.525 596.474 319.643 596.309 318.789C596.144 317.936 595.754 317.142 595.18 316.489C594.606 315.836 593.868 315.349 593.042 315.077L584.49 312.246C583.693 311.97 582.838 311.905 582.008 312.057C581.179 312.209 580.403 312.574 579.756 313.115Z" fill="#EFB6A5"/>
<path d="M600.498 316.84C597.588 315.71 594.286 316.409 592.083 318.621L570.514 340.283C569.133 341.669 568.147 343.4 567.658 345.294L558.405 381.134L564.932 383.934L576.634 353.508C577.315 351.737 578.443 350.172 579.907 348.966L602.65 330.235C607.288 326.415 606.099 319.015 600.498 316.84Z" fill="#FFD4C7"/>
<path fill-rule="evenodd" clip-rule="evenodd" d="M602.727 255.547C602.727 255.547 602.727 255.547 602.727 255.547C602.678 255.561 602.581 255.62 602.435 255.709C601.818 256.086 600.329 256.995 597.869 257.279C597.116 257.366 596.271 257.395 595.333 257.332C594.916 257.303 594.557 257.275 594.248 257.251C594.248 257.251 594.248 257.251 594.248 257.251C593.689 257.207 593.296 257.176 593.022 257.183C592.565 257.194 592.441 257.311 592.441 257.65C592.44 258.801 592.371 260.03 591.766 260.472C591.728 260.499 591.709 260.533 591.707 260.571C591.554 260.681 591.388 260.798 591.213 260.918C590.993 260.928 590.742 260.933 590.454 260.939C589.235 260.963 587.363 261 584.48 261.461C581.082 262.008 580.219 266.403 578.957 272.827V272.827L578.957 272.827C578.186 276.752 577.266 281.435 575.528 286.46C575.41 286.802 575.305 287.201 575.188 287.647C574.691 289.543 573.966 292.303 570.97 295.317C566.271 300.11 556.683 308.432 556.683 308.432L561.477 313.117L578.691 302.44C579.315 301.66 579.93 300.921 580.518 300.216L580.518 300.216L580.518 300.216L580.518 300.216C581.08 299.541 581.617 298.896 582.112 298.275C580.387 307.857 578.406 316.913 576.431 321.775L609.514 321.136C609.514 321.136 600.133 307.719 607.921 282.857C607.825 279.046 609.72 274.944 611.373 271.367C613.566 266.619 615.333 262.796 611.45 261.804C608.692 261.1 605.194 259.989 604.099 259.636C603.388 259.01 603.119 257.469 602.942 256.458L602.942 256.458V256.458C602.862 256.002 602.802 255.653 602.727 255.547C602.727 255.547 602.727 255.547 602.727 255.547Z" fill="url(#paint61_linear)"/>
<path d="M563.701 331.476C569.323 325.131 582.486 307.704 583.575 299.207C591.006 302.233 602.539 300.593 607.165 299.208C607.165 303.349 612.593 305.88 611.337 316.749C610.789 321.489 595.959 338.824 594.476 341.328C588.394 340.255 587.367 338.281 585.335 336.961C583.304 335.64 582.309 334.218 578.429 334.218C573.756 334.218 576.666 335.442 569.897 332.695C567.748 331.823 567.214 331.281 563.701 331.476Z" fill="url(#paint62_linear)"/>
<path fill-rule="evenodd" clip-rule="evenodd" d="M572.369 311.888C572.898 311.629 574.719 310.713 575 310.584C576.465 309.944 577.973 309.406 579.511 308.974L580.005 308.833H580.087C581.485 308.411 583.846 307.659 585.185 308.458C585.82 308.822 586.36 309.162 586.489 309.938C586.619 310.713 586.489 311.477 584.387 312.698C583.211 313.314 581.994 313.847 580.745 314.296H580.627L579.265 314.813C577.42 315.8 576.833 316.34 575.647 317.033C574.565 317.602 573.333 317.82 572.122 317.656C571.558 317.48 570.948 320.076 570.583 318.96C570.219 317.844 567.294 318.654 567.153 318.396C567.012 318.137 567.506 317.045 567.811 316.375C568.261 315.544 568.788 314.758 569.385 314.026C570.275 313.177 571.279 312.457 572.369 311.888Z" fill="#FFD4C7"/>
<path d="M611.747 261.79C617.134 263.828 616.596 268.908 615.738 278.53C614.998 286.753 612.828 299.271 611.747 301.597C609.104 307.247 588.651 312.845 582.66 314.736L579.277 308.768L601.785 297.021C601.785 297.021 604.597 285.392 604.597 273.86C605.478 265.649 605.672 260.191 611.747 261.79Z" fill="url(#paint63_linear)"/>
<path fill-rule="evenodd" clip-rule="evenodd" d="M600.948 243.824C601.68 242.9 602.628 242.17 603.708 241.698C604.061 241.606 604.431 241.592 604.789 241.659C605.148 241.726 605.488 241.871 605.784 242.084C606.081 242.297 606.326 242.573 606.503 242.892C606.681 243.212 606.785 243.566 606.81 243.93C606.739 246.056 604.319 247.842 601.84 247.748C599.726 247.666 600.325 247.372 600.325 245.504C600.354 244.893 600.572 244.307 600.948 243.824Z" fill="#FFD4C7"/>
<path d="M563.574 132.664H538.505V296.408H563.574V132.664Z" fill="#FDFDFF"/>
<path d="M603.651 357.4C603.534 356.035 603.808 354.665 604.441 353.45C605.441 351.69 606.201 351.06 605.741 349.72C605.553 348.905 605.641 348.05 605.991 347.29C607.671 344.75 606.801 343.67 603.671 339.39C600.541 335.11 602.131 321.12 608.671 321.09C615.211 321.06 622.071 333.37 617.601 343.54C613.131 353.71 610.331 351.39 611.691 353.8C613.051 356.21 611.101 358.4 609.421 359.39C608.051 360.179 606.582 360.781 605.051 361.18C604.239 360.076 603.754 358.766 603.651 357.4Z" fill="url(#paint64_linear)"/>
<path fill-rule="evenodd" clip-rule="evenodd" d="M609.586 329.156C609.66 329.12 609.75 329.15 609.786 329.225C611.117 331.957 611.916 334.922 612.14 337.926C612.174 337.89 612.211 337.851 612.249 337.808C612.468 337.567 612.758 337.223 613.049 336.811C613.634 335.98 614.202 334.894 614.202 333.822C614.202 333.739 614.269 333.672 614.352 333.672C614.435 333.672 614.502 333.739 614.502 333.822C614.502 334.989 613.889 336.139 613.294 336.983C612.995 337.408 612.696 337.762 612.472 338.009C612.359 338.133 612.266 338.23 612.2 338.297L612.167 338.33C612.31 340.835 612.053 343.361 611.37 345.798C611.434 345.781 611.515 345.752 611.609 345.704C611.843 345.583 612.159 345.334 612.451 344.818C612.492 344.746 612.583 344.721 612.655 344.762C612.727 344.802 612.753 344.894 612.712 344.966C612.394 345.53 612.035 345.821 611.747 345.97C611.603 346.045 611.479 346.083 611.388 346.102C611.343 346.112 611.306 346.117 611.279 346.119L611.278 346.12C610.587 348.447 609.504 350.687 608.007 352.743C607.098 354.303 606.445 356.01 605.982 357.738L606.007 357.733C606.079 357.72 606.182 357.699 606.308 357.671C606.559 357.615 606.901 357.529 607.26 357.409C607.62 357.288 607.994 357.135 608.313 356.945C608.634 356.754 608.886 356.535 609.02 356.289C609.059 356.216 609.15 356.19 609.223 356.229C609.296 356.269 609.323 356.36 609.283 356.433C609.112 356.747 608.808 357 608.466 357.203C608.122 357.407 607.727 357.569 607.355 357.693C606.983 357.818 606.632 357.907 606.373 357.964C606.244 357.993 606.137 358.014 606.063 358.028C606.026 358.035 605.997 358.04 605.977 358.044L605.954 358.048L605.947 358.049L605.946 358.049L605.945 358.049L605.945 358.049L605.928 357.943L605.928 357.943L605.945 358.049C605.93 358.051 605.915 358.052 605.901 358.05C605.292 360.437 605.038 362.852 604.962 364.966C604.894 366.834 604.966 368.463 605.055 369.625C605.1 370.206 605.148 370.67 605.186 370.989C605.205 371.148 605.221 371.27 605.232 371.353C605.238 371.395 605.242 371.426 605.245 371.447L605.248 371.471L605.249 371.476L605.249 371.478L605.25 371.478L605.101 371.501C604.953 371.523 604.953 371.523 604.953 371.523L604.953 371.523L604.953 371.521L604.952 371.515L604.948 371.49C604.945 371.468 604.94 371.436 604.935 371.394C604.923 371.309 604.907 371.185 604.888 371.024C604.85 370.702 604.801 370.234 604.756 369.648C604.667 368.478 604.594 366.837 604.662 364.955C604.751 362.469 605.086 359.556 605.955 356.748C605.927 356.741 605.9 356.725 605.879 356.701C605.613 356.397 605.418 356.039 605.306 355.651C605.195 355.264 605.17 354.857 605.233 354.458C605.246 354.377 605.323 354.321 605.405 354.334C605.487 354.347 605.543 354.424 605.53 354.506C605.473 354.86 605.495 355.223 605.595 355.568C605.687 355.888 605.842 356.185 606.052 356.442C606.485 355.109 607.041 353.804 607.752 352.585L607.756 352.578L607.76 352.572C608.389 351.709 608.944 350.813 609.427 349.891C609.017 349.717 608.6 349.412 608.302 349.106C607.977 348.772 607.731 348.37 607.58 347.929C607.553 347.851 607.595 347.765 607.673 347.739C607.752 347.712 607.837 347.754 607.864 347.832C608 348.231 608.223 348.595 608.517 348.897C608.798 349.186 609.192 349.47 609.564 349.624C611.004 346.777 611.762 343.693 611.887 340.59C611.867 340.58 611.84 340.568 611.808 340.553C611.73 340.515 611.619 340.459 611.483 340.384C611.212 340.235 610.843 340.008 610.451 339.702C609.669 339.092 608.785 338.155 608.417 336.863C608.395 336.783 608.441 336.7 608.52 336.678C608.6 336.655 608.683 336.701 608.706 336.781C608.72 336.831 608.735 336.881 608.751 336.93C609.118 338.061 609.912 338.901 610.636 339.466C611.012 339.76 611.367 339.978 611.628 340.122C611.658 340.138 611.687 340.154 611.714 340.168C611.785 340.206 611.847 340.238 611.898 340.263C611.914 339.635 611.904 339.006 611.869 338.379C611.836 338.332 611.833 338.27 611.86 338.22C611.668 335.162 610.871 332.138 609.516 329.356C609.48 329.282 609.511 329.192 609.586 329.156ZM605.101 371.501L605.25 371.478C605.262 371.56 605.206 371.636 605.124 371.649C605.042 371.661 604.965 371.605 604.953 371.523L605.101 371.501Z" fill="#18A85A"/>
<path d="M606.632 369.989C606.35 369.615 606.151 369.186 606.049 368.73C605.946 368.273 605.942 367.8 606.037 367.342C606.131 366.884 606.323 366.452 606.598 366.073C606.873 365.695 607.225 365.38 607.632 365.149C608.632 364.569 608.422 364.379 608.362 363.149C607.932 354.079 613.762 357.609 615.652 354.409C615.952 353.83 616.412 353.35 616.978 353.025C617.543 352.701 618.19 352.546 618.842 352.579C622.192 353.199 622.232 361.529 617.632 363.379C612.472 365.459 612.752 365.319 612.632 366.679C612.526 367.119 612.294 367.519 611.963 367.828C611.632 368.137 611.218 368.343 610.772 368.419C609.686 368.786 608.648 369.283 607.682 369.899C606.822 370.359 606.632 369.989 606.632 369.989Z" fill="url(#paint65_linear)"/>
<path fill-rule="evenodd" clip-rule="evenodd" d="M616.479 358.646C616.531 358.581 616.52 358.486 616.455 358.435C616.39 358.383 616.295 358.394 616.244 358.459C615.74 359.096 615.199 359.566 614.61 360.019C614.394 360.184 614.169 360.35 613.937 360.521L613.937 360.521L613.937 360.521L613.937 360.521L613.937 360.521C613.541 360.812 613.123 361.119 612.69 361.472C612.555 361.583 612.419 361.698 612.28 361.819C612.23 361.485 612.25 361.144 612.34 360.817C612.447 360.425 612.65 360.067 612.93 359.773C612.987 359.713 612.985 359.618 612.925 359.561C612.865 359.504 612.77 359.506 612.713 359.566C612.398 359.895 612.17 360.298 612.05 360.738C611.933 361.167 611.922 361.618 612.018 362.053C610.798 363.168 609.436 364.777 607.9 367.59L607.896 367.598L607.893 367.605C607.847 367.715 607.802 367.825 607.758 367.935C607.677 367.81 607.618 367.671 607.584 367.525C607.539 367.334 607.537 367.135 607.578 366.943C607.596 366.862 607.544 366.783 607.463 366.765C607.382 366.748 607.302 366.799 607.285 366.88C607.234 367.116 607.236 367.359 607.292 367.594C607.347 367.828 607.454 368.048 607.605 368.236C607.611 368.244 607.619 368.252 607.627 368.259C606.739 370.487 606.007 372.776 605.436 375.107C605.416 375.187 605.465 375.268 605.546 375.288C605.626 375.308 605.708 375.259 605.727 375.178C606.35 372.636 607.166 370.145 608.167 367.727C608.271 367.536 608.375 367.351 608.477 367.171L608.51 367.175C608.548 367.18 608.602 367.186 608.668 367.191C608.799 367.203 608.98 367.213 609.177 367.21C609.373 367.207 609.588 367.19 609.788 367.144C609.985 367.099 610.181 367.022 610.324 366.888C610.385 366.832 610.388 366.737 610.331 366.676C610.275 366.616 610.18 366.613 610.119 366.669C610.032 366.751 609.895 366.812 609.721 366.852C609.549 366.891 609.356 366.907 609.172 366.91C608.988 366.913 608.818 366.903 608.693 366.892C608.675 366.891 608.657 366.889 608.641 366.888C609.237 365.868 609.805 365.03 610.346 364.327C610.393 364.344 610.453 364.359 610.526 364.365C610.703 364.381 610.944 364.344 611.238 364.17C611.309 364.127 611.333 364.035 611.29 363.964C611.248 363.893 611.156 363.869 611.085 363.912C610.839 364.057 610.66 364.076 610.552 364.066L610.551 364.066C611.389 363.02 612.163 362.292 612.88 361.705C613.054 361.563 613.224 361.43 613.39 361.302C614.242 361.533 615.146 361.472 615.96 361.128C616.036 361.096 616.072 361.008 616.04 360.931C616.007 360.855 615.919 360.819 615.843 360.852C615.165 361.138 614.418 361.212 613.701 361.068C613.837 360.967 613.97 360.868 614.102 360.771L614.103 360.771L614.103 360.771L614.103 360.771C614.337 360.599 614.566 360.43 614.793 360.256C615.392 359.796 615.953 359.309 616.479 358.646Z" fill="#2EBA6E"/>
<path d="M593.921 360.199C593.495 360.687 593.211 361.282 593.1 361.921C592.989 362.559 593.055 363.216 593.291 363.819C593.845 365.005 594.754 365.99 595.891 366.639C597.121 367.519 599.331 367.119 600.031 367.989C600.381 368.419 600.291 369.119 601.891 369.149C603.221 369.149 603.531 370.819 604.301 370.819C604.731 370.819 604.671 369.139 604.621 368.969C604.031 366.909 604.621 366.379 602.621 365.799C601.881 365.579 601.081 364.339 600.541 362.799C600.451 362.549 599.741 359.859 597.611 359.179C596.971 358.913 596.259 358.869 595.591 359.054C594.922 359.239 594.334 359.642 593.921 360.199Z" fill="url(#paint66_linear)"/>
<path fill-rule="evenodd" clip-rule="evenodd" d="M596.798 362.868C596.746 362.804 596.652 362.794 596.587 362.846C596.523 362.898 596.513 362.993 596.565 363.057C597.117 363.739 597.745 364.352 598.434 364.887C597.86 364.942 597.28 364.891 596.722 364.736C596.642 364.714 596.559 364.76 596.537 364.84C596.515 364.92 596.562 365.003 596.641 365.025C597.338 365.219 598.067 365.26 598.78 365.145C599.279 365.503 599.808 365.821 600.362 366.095C601.534 366.752 602.401 367.456 603 368.155C602.585 368.181 602.169 368.177 601.755 368.141C601.672 368.134 601.599 368.195 601.592 368.278C601.585 368.36 601.646 368.433 601.729 368.44C602.22 368.482 602.714 368.482 603.205 368.44C603.213 368.439 603.22 368.438 603.228 368.436C603.633 368.971 603.884 369.499 603.995 369.995C604.138 370.631 604.347 372.237 604.521 373.694C604.608 374.42 604.686 375.107 604.742 375.611C604.77 375.863 604.793 376.07 604.808 376.214L604.826 376.38L604.831 376.424L604.832 376.435L604.832 376.437L604.832 376.438L604.832 376.438L604.982 376.422L604.832 376.438C604.841 376.521 604.915 376.58 604.998 376.572C605.08 376.563 605.14 376.489 605.131 376.407L604.982 376.422L605.131 376.407L605.131 376.406L605.131 376.406L605.13 376.403L605.129 376.392L605.125 376.348L605.107 376.182C605.091 376.038 605.068 375.831 605.04 375.578C604.984 375.073 604.906 374.386 604.819 373.658C604.646 372.208 604.435 370.584 604.288 369.93C604.038 368.817 603.17 367.617 601.602 366.517L601.602 366.512V365.752C601.602 365.669 601.535 365.602 601.452 365.602C601.369 365.602 601.302 365.669 601.302 365.752V366.314C601.052 366.15 600.787 365.989 600.505 365.832L600.505 365.831L600.498 365.828C599.972 365.567 599.468 365.266 598.992 364.928C598.971 364.871 598.917 364.833 598.857 364.831C598.092 364.269 597.399 363.61 596.798 362.868Z" fill="#2EBA6E"/>
<path fill-rule="evenodd" clip-rule="evenodd" d="M401.706 150.744C401.903 151.67 402.036 152.608 402.106 153.552C402.441 156.608 402.35 159.696 401.835 162.727L401.033 168.975C402.686 170.348 404.644 171.302 406.743 171.76C407.783 172.061 408.888 172.059 409.929 171.755C410.969 171.452 411.901 170.858 412.616 170.044C412.616 170.044 412.913 160.131 413.09 160.107C416.919 159.532 420.22 160.354 417.894 152.518L419.069 152.048C419.102 152.036 419.133 152.016 419.157 151.989C419.181 151.963 419.198 151.931 419.207 151.897C419.216 151.862 419.217 151.826 419.21 151.791C419.202 151.756 419.186 151.723 419.163 151.696L417.824 150.087C417.438 149.572 417.151 148.991 416.978 148.371C416.868 147.996 416.751 147.604 416.625 147.197C414.805 141.652 408.931 138.974 404.655 140.865C400.379 142.756 400.543 146.821 401.706 150.744Z" fill="#FFD4C7"/>
<path fill-rule="evenodd" clip-rule="evenodd" d="M417.119 138.257C418.982 136.552 421.818 137.87 422.441 139.338C422.852 140.189 422.97 141.153 422.774 142.078C422.578 143.003 422.081 143.837 421.36 144.448C419.609 145.999 415.802 144.448 411.785 145.207C407.685 146.288 409.342 151.226 410.517 153.165C413.7 158.663 417.037 155.009 417.93 153.858C417.951 153.831 417.98 153.81 418.013 153.798C418.046 153.786 418.082 153.784 418.116 153.791C418.15 153.799 418.181 153.815 418.207 153.84C418.232 153.864 418.25 153.895 418.259 153.928C418.611 155.185 419.609 159.191 418.705 160.53C417.448 162.398 413.595 163.35 409.894 161.705C408.789 161.182 407.824 160.403 407.081 159.433C406.337 158.462 405.836 157.328 405.618 156.125H402.294C402.189 155.123 402.032 154.127 401.824 153.141C401.46 151.461 399.86 148.396 400.109 145.564C400.522 143.261 401.377 141.511 403.938 140.407C407.463 138.845 411.21 140.407 413.783 140.9C416.355 141.394 415.592 139.655 417.119 138.257Z" fill="#281B1B"/>
<path d="M612.461 371.469H600.321V389.329H612.461V371.469Z" fill="#8D94D9"/>
<path d="M596.789 317.035L586.401 317.085L585.512 318.967L596.798 318.912C597.317 318.91 597.735 318.488 597.732 317.969C597.73 317.451 597.308 317.033 596.789 317.035Z" fill="#BDBDBD"/>
<path d="M538.479 281.603L579.605 281.404C581.64 281.394 583.358 282.914 583.597 284.935L587.354 316.727C587.494 317.913 586.57 318.957 585.376 318.962L540.375 319.143C539.362 319.147 538.506 318.393 538.382 317.388L534.529 286.092C534.236 283.715 536.084 281.615 538.479 281.603Z" fill="#BDBDBD"/>
<path d="M537.808 281.607L578.936 281.408C580.97 281.398 582.688 282.917 582.927 284.937L586.699 316.736C586.84 317.923 585.916 318.967 584.721 318.972L539.704 319.147C538.691 319.151 537.835 318.397 537.711 317.392L533.857 286.096C533.565 283.719 535.413 281.619 537.808 281.607Z" fill="#E0E0E0"/>
<g clip-path="url(#clip7)">
<path d="M557.867 296.277C557.002 296.463 556.466 297.294 556.219 298.259C556.802 298.007 557.431 297.879 558.066 297.881C558.734 297.894 559.394 298.032 560.012 298.287C560.983 298.685 561.856 299.366 562.153 300.291C562.005 299.209 561.489 298.211 560.692 297.465C559.933 296.729 558.924 296.305 557.867 296.277Z" fill="url(#paint67_linear)"/>
<path d="M554.574 300.261C554.87 301.203 555.743 301.883 556.715 302.264C556.397 301.633 556.185 300.954 556.087 300.254C556.008 299.58 556.051 298.897 556.215 298.239C556.462 297.295 556.999 296.463 557.864 296.278C557.382 296.269 556.903 296.368 556.465 296.568C556.026 296.768 555.638 297.064 555.328 297.434C555.017 297.829 554.789 298.284 554.659 298.77C554.529 299.256 554.5 299.763 554.574 300.261Z" fill="url(#paint68_linear)"/>
<path d="M560.008 298.287C560.328 298.918 560.54 299.598 560.635 300.298C560.718 300.972 560.675 301.654 560.511 302.313C560.261 303.284 559.728 304.115 558.862 304.301C559.344 304.31 559.822 304.21 560.26 304.01C560.698 303.81 561.086 303.514 561.394 303.144C561.707 302.747 561.935 302.29 562.065 301.802C562.195 301.314 562.223 300.804 562.149 300.304C561.853 299.366 560.98 298.685 560.008 298.287Z" fill="url(#paint69_linear)"/>
<path d="M558.663 302.688C557.994 302.675 557.334 302.539 556.715 302.285C555.743 301.887 554.87 301.206 554.573 300.281C554.718 301.369 555.236 302.374 556.037 303.124C556.8 303.852 557.808 304.268 558.862 304.288C559.727 304.103 560.26 303.275 560.511 302.3C559.928 302.554 559.299 302.686 558.663 302.688Z" fill="url(#paint70_linear)"/>
<path d="M556.711 302.285L557.919 300.826" stroke="url(#paint71_linear)" stroke-width="0.2" stroke-miterlimit="10"/>
<path d="M560.511 302.302L558.95 300.836" stroke="url(#paint72_linear)" stroke-width="0.2" stroke-miterlimit="10"/>
<path d="M560.022 298.291L558.79 299.754" stroke="url(#paint73_linear)" stroke-width="0.2" stroke-miterlimit="10"/>
<path d="M557.906 300.838C557.816 300.658 557.757 300.464 557.732 300.265C557.717 300.083 557.734 299.9 557.783 299.724C557.945 299.653 558.119 299.615 558.296 299.614C558.482 299.618 558.666 299.657 558.837 299.729C558.927 299.904 558.987 300.092 559.014 300.286C559.036 300.472 559.023 300.661 558.977 300.843C558.815 300.915 558.641 300.953 558.464 300.953C558.272 300.951 558.083 300.912 557.906 300.838Z" fill="white"/>
<path d="M557.787 299.741L556.199 298.293" stroke="url(#paint74_linear)" stroke-width="0.2"/>
</g>
<path d="M412.671 166.934C412.671 169.401 412.638 172.192 412.24 174.593C411.607 178.789 410.061 197.459 409.776 198.828C409.776 198.828 413.98 185.269 415.116 181.647C416.251 178.026 417.818 176.032 416.798 175.324C415.778 174.615 414.737 174.305 414.535 174.134C414.535 174.134 416.323 173.394 417.184 172.942C418.036 172.496 417.316 171.36 416.072 170.041C414.828 168.721 412.671 166.934 412.671 166.934Z" fill="#E23333"/>
<path d="M400.346 167.563C400.346 167.563 396.788 172.751 396.575 173.508C396.362 174.266 397.016 174.599 398.108 174.686C399.199 174.774 401.907 175.955 401.285 176.304C400.664 176.653 398.405 178.101 398.368 178.614C398.33 179.126 399.767 182.509 400.483 184.2C401.199 185.891 404.606 197.105 404.31 200.023C404.31 200.023 406.069 184.988 405.235 178.155C404.31 170.583 402.807 167.129 401.398 166.459C400.939 166.873 400.477 167.328 400.346 167.563Z" fill="#E23333"/>
<path fill-rule="evenodd" clip-rule="evenodd" d="M376.994 190.664C375.573 193.977 375.455 196.925 379.626 200.767C387.391 207.933 403.121 214.699 406.903 215.956C407.163 216.047 407.442 216.063 407.71 216.003C407.978 215.942 408.223 215.808 408.419 215.615L410.956 212.444C411.107 212.299 411.225 212.124 411.303 211.931C411.381 211.737 411.418 211.529 411.41 211.321C411.402 211.112 411.351 210.908 411.258 210.721C411.166 210.534 411.035 210.368 410.874 210.235L392.501 193.037C391.949 192.085 392.29 190.969 393.159 189.724C393.159 189.724 401.124 184.109 403.473 178.869C405.442 174.479 406.821 170.485 402.304 166.997C400.771 165.812 398.75 165.564 395.963 166.065C392.948 166.608 391.013 168.187 389.071 170.388C383.937 176.367 377.687 189.019 376.994 190.664Z" fill="url(#paint75_linear)"/>
<g opacity="0.7">
<g clip-path="url(#clip8)">
<path d="M695.5 84.4453H656.5C654.015 84.4453 652 86.46 652 88.9453V127.945C652 130.431 654.015 132.445 656.5 132.445H695.5C697.985 132.445 700 130.431 700 127.945V88.9453C700 86.46 697.985 84.4453 695.5 84.4453Z" fill="#92E5FF"/>
<path opacity="0.5" fill-rule="evenodd" clip-rule="evenodd" d="M696.558 90.4453C696.558 91.2737 695.886 91.9453 695.058 91.9453C694.229 91.9453 693.558 91.2737 693.558 90.4453C693.558 89.6169 694.229 88.9453 695.058 88.9453C695.886 88.9453 696.558 89.6169 696.558 90.4453ZM673.215 95.7136C672.766 95.5427 672.288 95.4624 671.808 95.4774C670.848 95.4633 669.922 95.829 669.23 96.4949C668.539 97.1608 668.139 98.0728 668.118 99.0324C668.233 99.9376 668.674 100.77 669.359 101.373C670.044 101.976 670.925 102.309 671.838 102.309C672.75 102.309 673.631 101.976 674.316 101.373C675.001 100.77 675.442 99.9376 675.558 99.0324C675.547 98.552 675.441 98.0786 675.247 97.6394C675.052 97.2001 674.772 96.8038 674.424 96.4733C674.075 96.1427 673.664 95.8845 673.215 95.7136ZM663.048 115.24H688.548L688.48 115.232C688.602 115.231 688.722 115.199 688.829 115.14C688.937 115.081 689.028 114.997 689.095 114.895C689.162 114.793 689.204 114.676 689.215 114.555C689.227 114.433 689.209 114.31 689.163 114.197L683.395 100.405C683.197 100.031 682.902 99.7186 682.54 99.5006C682.177 99.2825 681.763 99.1673 681.34 99.1673C680.917 99.1673 680.503 99.2825 680.141 99.5006C679.779 99.7186 679.483 100.031 679.285 100.405L674.725 109.487C674.597 109.728 674.409 109.93 674.178 110.074C673.947 110.219 673.683 110.3 673.411 110.31C673.139 110.32 672.869 110.258 672.628 110.131C672.388 110.003 672.185 109.815 672.04 109.585L670.638 107.26C670.355 106.82 669.967 106.458 669.508 106.208C669.049 105.957 668.535 105.826 668.013 105.826C667.49 105.826 666.976 105.957 666.517 106.208C666.058 106.458 665.67 106.82 665.388 107.26L662.388 114.152C662.33 114.266 662.303 114.392 662.308 114.519C662.313 114.647 662.35 114.77 662.416 114.879C662.482 114.988 662.575 115.078 662.685 115.141C662.796 115.204 662.92 115.238 663.048 115.24ZM662.68 118.374H688.93C689.137 118.374 689.305 118.542 689.305 118.749V120.249C689.305 120.456 689.137 120.624 688.93 120.624H662.68C662.473 120.624 662.305 120.456 662.305 120.249V118.749C662.305 118.542 662.473 118.374 662.68 118.374ZM679.93 122.786H662.68C662.473 122.786 662.305 122.954 662.305 123.161V124.661C662.305 124.868 662.473 125.036 662.68 125.036H679.93C680.137 125.036 680.305 124.868 680.305 124.661V123.161C680.305 122.954 680.137 122.786 679.93 122.786Z" fill="#00A2E2"/>
</g>
</g>
</g>
<defs>
<filter id="filter0_f" x="432.467" y="367.992" width="206.163" height="25.8419" filterUnits="userSpaceOnUse" color-interpolation-filters="sRGB">
<feFlood flood-opacity="0" result="BackgroundImageFix"/>
<feBlend mode="normal" in="SourceGraphic" in2="BackgroundImageFix" result="shape"/>
<feGaussianBlur stdDeviation="4.5" result="effect1_foregroundBlur"/>
</filter>
<filter id="filter1_f" x="558.585" y="376.602" width="95.2665" height="14.6662" filterUnits="userSpaceOnUse" color-interpolation-filters="sRGB">
<feFlood flood-opacity="0" result="BackgroundImageFix"/>
<feBlend mode="normal" in="SourceGraphic" in2="BackgroundImageFix" result="shape"/>
<feGaussianBlur stdDeviation="2.5" result="effect1_foregroundBlur"/>
</filter>
<filter id="filter2_f" x="535.794" y="390.473" width="33.2943" height="8.40604" filterUnits="userSpaceOnUse" color-interpolation-filters="sRGB">
<feFlood flood-opacity="0" result="BackgroundImageFix"/>
<feBlend mode="normal" in="SourceGraphic" in2="BackgroundImageFix" result="shape"/>
<feGaussianBlur stdDeviation="1.5" result="effect1_foregroundBlur"/>
</filter>
<filter id="filter3_f" x="595.452" y="385.125" width="21.0346" height="8.40604" filterUnits="userSpaceOnUse" color-interpolation-filters="sRGB">
<feFlood flood-opacity="0" result="BackgroundImageFix"/>
<feBlend mode="normal" in="SourceGraphic" in2="BackgroundImageFix" result="shape"/>
<feGaussianBlur stdDeviation="1.5" result="effect1_foregroundBlur"/>
</filter>
<linearGradient id="paint0_linear" x1="353.574" y1="430.601" x2="282.822" y2="459.436" gradientUnits="userSpaceOnUse">
<stop stop-color="#12AFF2"/>
<stop offset="1" stop-color="#12B6FD"/>
</linearGradient>
<linearGradient id="paint1_linear" x1="363.469" y1="398.403" x2="314.038" y2="442.123" gradientUnits="userSpaceOnUse">
<stop offset="0.223958" stop-color="#2BCAFC"/>
<stop offset="1" stop-color="#07C4FF"/>
</linearGradient>
<linearGradient id="paint2_linear" x1="367.15" y1="327.826" x2="363.821" y2="340.54" gradientUnits="userSpaceOnUse">
<stop offset="0.12563" stop-color="#49D3FF"/>
<stop offset="1" stop-color="#07C4FF"/>
</linearGradient>
<linearGradient id="paint3_linear" x1="256.954" y1="442.577" x2="185.322" y2="457.6" gradientUnits="userSpaceOnUse">
<stop stop-color="#12AFF2"/>
<stop offset="1" stop-color="#12B6FD"/>
</linearGradient>
<linearGradient id="paint4_linear" x1="257.879" y1="381.398" x2="199.879" y2="406.005" gradientUnits="userSpaceOnUse">
<stop offset="0.223958" stop-color="#2BCAFC"/>
<stop offset="1" stop-color="#07C4FF"/>
</linearGradient>
<linearGradient id="paint5_linear" x1="133.647" y1="463.157" x2="113.713" y2="460.64" gradientUnits="userSpaceOnUse">
<stop stop-color="#12A2F2"/>
<stop offset="1" stop-color="#12B6FD"/>
</linearGradient>
<linearGradient id="paint6_linear" x1="-56.3631" y1="313.209" x2="-3.28599" y2="229.593" gradientUnits="userSpaceOnUse">
<stop stop-color="#1CA4F1"/>
<stop offset="1" stop-color="#12B6FD"/>
</linearGradient>
<linearGradient id="paint7_linear" x1="14.4822" y1="463.803" x2="-61.7123" y2="343.525" gradientUnits="userSpaceOnUse">
<stop offset="0.197917" stop-color="#18BDF1"/>
<stop offset="1" stop-color="#2BCAFC"/>
</linearGradient>
<linearGradient id="paint8_linear" x1="907.377" y1="389.063" x2="852.266" y2="460.084" gradientUnits="userSpaceOnUse">
<stop stop-color="#11B4FA"/>
<stop offset="1" stop-color="#2EC0FF"/>
</linearGradient>
<linearGradient id="paint9_linear" x1="925.254" y1="371.645" x2="911.324" y2="410.512" gradientUnits="userSpaceOnUse">
<stop offset="0.038212" stop-color="#07C4FF"/>
<stop offset="0.964153" stop-color="#53D6FF"/>
</linearGradient>
<linearGradient id="paint10_linear" x1="939.684" y1="484.631" x2="1020.74" y2="501.63" gradientUnits="userSpaceOnUse">
<stop stop-color="#12AFF2"/>
<stop offset="1" stop-color="#12B6FD"/>
</linearGradient>
<linearGradient id="paint11_linear" x1="938.638" y1="415.402" x2="1022.96" y2="471.732" gradientUnits="userSpaceOnUse">
<stop offset="0.223958" stop-color="#2BCAFC"/>
<stop offset="1" stop-color="#07C4FF"/>
</linearGradient>
<linearGradient id="paint12_linear" x1="938.638" y1="415.402" x2="1022.96" y2="471.732" gradientUnits="userSpaceOnUse">
<stop offset="0.223958" stop-color="#2BCAFC"/>
<stop offset="1" stop-color="#07C4FF"/>
</linearGradient>
<linearGradient id="paint13_linear" x1="938.638" y1="415.402" x2="1022.96" y2="471.732" gradientUnits="userSpaceOnUse">
<stop offset="0.223958" stop-color="#2BCAFC"/>
<stop offset="1" stop-color="#07C4FF"/>
</linearGradient>
<linearGradient id="paint14_linear" x1="938.638" y1="415.402" x2="1022.96" y2="471.732" gradientUnits="userSpaceOnUse">
<stop offset="0.223958" stop-color="#2BCAFC"/>
<stop offset="1" stop-color="#07C4FF"/>
</linearGradient>
<linearGradient id="paint15_linear" x1="938.638" y1="415.402" x2="1022.96" y2="471.732" gradientUnits="userSpaceOnUse">
<stop offset="0.223958" stop-color="#2BCAFC"/>
<stop offset="1" stop-color="#07C4FF"/>
</linearGradient>
<linearGradient id="paint16_linear" x1="938.638" y1="415.402" x2="1022.96" y2="471.732" gradientUnits="userSpaceOnUse">
<stop offset="0.223958" stop-color="#2BCAFC"/>
<stop offset="1" stop-color="#07C4FF"/>
</linearGradient>
<linearGradient id="paint17_linear" x1="938.638" y1="415.402" x2="1022.96" y2="471.732" gradientUnits="userSpaceOnUse">
<stop offset="0.223958" stop-color="#2BCAFC"/>
<stop offset="1" stop-color="#07C4FF"/>
</linearGradient>
<linearGradient id="paint18_linear" x1="938.638" y1="415.402" x2="1022.96" y2="471.732" gradientUnits="userSpaceOnUse">
<stop offset="0.223958" stop-color="#2BCAFC"/>
<stop offset="1" stop-color="#07C4FF"/>
</linearGradient>
<linearGradient id="paint19_linear" x1="938.638" y1="415.402" x2="1022.96" y2="471.732" gradientUnits="userSpaceOnUse">
<stop offset="0.223958" stop-color="#2BCAFC"/>
<stop offset="1" stop-color="#07C4FF"/>
</linearGradient>
<linearGradient id="paint20_linear" x1="938.638" y1="415.402" x2="1022.96" y2="471.732" gradientUnits="userSpaceOnUse">
<stop offset="0.223958" stop-color="#2BCAFC"/>
<stop offset="1" stop-color="#07C4FF"/>
</linearGradient>
<linearGradient id="paint21_linear" x1="938.638" y1="415.402" x2="1022.96" y2="471.732" gradientUnits="userSpaceOnUse">
<stop offset="0.223958" stop-color="#2BCAFC"/>
<stop offset="1" stop-color="#07C4FF"/>
</linearGradient>
<linearGradient id="paint22_linear" x1="938.638" y1="415.402" x2="1022.96" y2="471.732" gradientUnits="userSpaceOnUse">
<stop offset="0.223958" stop-color="#2BCAFC"/>
<stop offset="1" stop-color="#07C4FF"/>
</linearGradient>
<linearGradient id="paint23_linear" x1="938.638" y1="415.402" x2="1022.96" y2="471.732" gradientUnits="userSpaceOnUse">
<stop offset="0.223958" stop-color="#2BCAFC"/>
<stop offset="1" stop-color="#07C4FF"/>
</linearGradient>
<linearGradient id="paint24_linear" x1="938.638" y1="415.402" x2="1022.96" y2="471.732" gradientUnits="userSpaceOnUse">
<stop offset="0.223958" stop-color="#2BCAFC"/>
<stop offset="1" stop-color="#07C4FF"/>
</linearGradient>
<linearGradient id="paint25_linear" x1="938.638" y1="415.402" x2="1022.96" y2="471.732" gradientUnits="userSpaceOnUse">
<stop offset="0.223958" stop-color="#2BCAFC"/>
<stop offset="1" stop-color="#07C4FF"/>
</linearGradient>
<linearGradient id="paint26_linear" x1="938.638" y1="415.402" x2="1022.96" y2="471.732" gradientUnits="userSpaceOnUse">
<stop offset="0.223958" stop-color="#2BCAFC"/>
<stop offset="1" stop-color="#07C4FF"/>
</linearGradient>
<linearGradient id="paint27_linear" x1="938.638" y1="415.402" x2="1022.96" y2="471.732" gradientUnits="userSpaceOnUse">
<stop offset="0.223958" stop-color="#2BCAFC"/>
<stop offset="1" stop-color="#07C4FF"/>
</linearGradient>
<linearGradient id="paint28_linear" x1="938.638" y1="415.402" x2="1022.96" y2="471.732" gradientUnits="userSpaceOnUse">
<stop offset="0.223958" stop-color="#2BCAFC"/>
<stop offset="1" stop-color="#07C4FF"/>
</linearGradient>
<linearGradient id="paint29_linear" x1="938.638" y1="415.402" x2="1022.96" y2="471.732" gradientUnits="userSpaceOnUse">
<stop offset="0.223958" stop-color="#2BCAFC"/>
<stop offset="1" stop-color="#07C4FF"/>
</linearGradient>
<linearGradient id="paint30_linear" x1="938.638" y1="415.402" x2="1022.96" y2="471.732" gradientUnits="userSpaceOnUse">
<stop offset="0.223958" stop-color="#2BCAFC"/>
<stop offset="1" stop-color="#07C4FF"/>
</linearGradient>
<linearGradient id="paint31_linear" x1="938.638" y1="415.402" x2="1022.96" y2="471.732" gradientUnits="userSpaceOnUse">
<stop offset="0.223958" stop-color="#2BCAFC"/>
<stop offset="1" stop-color="#07C4FF"/>
</linearGradient>
<linearGradient id="paint32_linear" x1="938.638" y1="415.402" x2="1022.96" y2="471.732" gradientUnits="userSpaceOnUse">
<stop offset="0.223958" stop-color="#2BCAFC"/>
<stop offset="1" stop-color="#07C4FF"/>
</linearGradient>
<linearGradient id="paint33_linear" x1="1079.22" y1="507.918" x2="1101.77" y2="505.07" gradientUnits="userSpaceOnUse">
<stop stop-color="#12A2F2"/>
<stop offset="1" stop-color="#12B6FD"/>
</linearGradient>
<linearGradient id="paint34_linear" x1="18531.3" y1="16466.1" x2="13971" y2="32733.5" gradientUnits="userSpaceOnUse">
<stop stop-color="#FFF27B"/>
<stop offset="1" stop-color="#FFDD53"/>
</linearGradient>
<linearGradient id="paint35_linear" x1="489.847" y1="158.964" x2="466.592" y2="254.452" gradientUnits="userSpaceOnUse">
<stop stop-color="white"/>
<stop offset="1" stop-color="white" stop-opacity="0"/>
</linearGradient>
<linearGradient id="paint36_linear" x1="377.869" y1="221.465" x2="377.869" y2="306.305" gradientUnits="userSpaceOnUse">
<stop stop-color="#605F95"/>
<stop offset="1" stop-color="#21204D"/>
</linearGradient>
<linearGradient id="paint37_linear" x1="469.762" y1="147.992" x2="371.078" y2="217.904" gradientUnits="userSpaceOnUse">
<stop stop-color="#FF9B9B"/>
<stop offset="1" stop-color="#FF5656"/>
</linearGradient>
<linearGradient id="paint38_linear" x1="598.328" y1="326.93" x2="669.682" y2="326.93" gradientUnits="userSpaceOnUse">
<stop stop-color="#FFF27B"/>
<stop offset="1" stop-color="#FFDD53"/>
</linearGradient>
<linearGradient id="paint39_linear" x1="598.328" y1="326.93" x2="669.682" y2="326.93" gradientUnits="userSpaceOnUse">
<stop stop-color="#FFF27B"/>
<stop offset="1" stop-color="#FFDD53"/>
</linearGradient>
<linearGradient id="paint40_linear" x1="598.328" y1="326.93" x2="669.682" y2="326.93" gradientUnits="userSpaceOnUse">
<stop stop-color="#FFF27B"/>
<stop offset="1" stop-color="#FFDD53"/>
</linearGradient>
<linearGradient id="paint41_linear" x1="-112643" y1="97727.6" x2="-111732" y2="97727.6" gradientUnits="userSpaceOnUse">
<stop stop-color="#FFF27B"/>
<stop offset="1" stop-color="#FFDD53"/>
</linearGradient>
<linearGradient id="paint42_linear" x1="-68853.6" y1="97727.6" x2="-68267.1" y2="97727.6" gradientUnits="userSpaceOnUse">
<stop stop-color="#FFF27B"/>
<stop offset="1" stop-color="#FFDD53"/>
</linearGradient>
<linearGradient id="paint43_linear" x1="-57192.2" y1="97727.6" x2="-56692" y2="97727.6" gradientUnits="userSpaceOnUse">
<stop stop-color="#FFF27B"/>
<stop offset="1" stop-color="#FFDD53"/>
</linearGradient>
<linearGradient id="paint44_linear" x1="-112643" y1="97727.6" x2="-111732" y2="97727.6" gradientUnits="userSpaceOnUse">
<stop stop-color="#FFF27B"/>
<stop offset="1" stop-color="#FFDD53"/>
</linearGradient>
<linearGradient id="paint45_linear" x1="-68853.6" y1="97727.6" x2="-68267.1" y2="97727.6" gradientUnits="userSpaceOnUse">
<stop stop-color="#FFF27B"/>
<stop offset="1" stop-color="#FFDD53"/>
</linearGradient>
<linearGradient id="paint46_linear" x1="-57192.2" y1="97727.6" x2="-56692" y2="97727.6" gradientUnits="userSpaceOnUse">
<stop stop-color="#FFF27B"/>
<stop offset="1" stop-color="#FFDD53"/>
</linearGradient>
<linearGradient id="paint47_linear" x1="-112643" y1="97727.6" x2="-111732" y2="97727.6" gradientUnits="userSpaceOnUse">
<stop stop-color="#FFF27B"/>
<stop offset="1" stop-color="#FFDD53"/>
</linearGradient>
<linearGradient id="paint48_linear" x1="-68853.9" y1="97727.6" x2="-68267.4" y2="97727.6" gradientUnits="userSpaceOnUse">
<stop stop-color="#FFF27B"/>
<stop offset="1" stop-color="#FFDD53"/>
</linearGradient>
<linearGradient id="paint49_linear" x1="-57192.4" y1="97727.6" x2="-56692.2" y2="97727.6" gradientUnits="userSpaceOnUse">
<stop stop-color="#FFF27B"/>
<stop offset="1" stop-color="#FFDD53"/>
</linearGradient>
<linearGradient id="paint50_linear" x1="-112643" y1="97727.6" x2="-111732" y2="97727.6" gradientUnits="userSpaceOnUse">
<stop stop-color="#FFF27B"/>
<stop offset="1" stop-color="#FFDD53"/>
</linearGradient>
<linearGradient id="paint51_linear" x1="-68853.9" y1="97727.6" x2="-68267.4" y2="97727.6" gradientUnits="userSpaceOnUse">
<stop stop-color="#FFF27B"/>
<stop offset="1" stop-color="#FFDD53"/>
</linearGradient>
<linearGradient id="paint52_linear" x1="-57192.4" y1="97727.6" x2="-56692.2" y2="97727.6" gradientUnits="userSpaceOnUse">
<stop stop-color="#FFF27B"/>
<stop offset="1" stop-color="#FFDD53"/>
</linearGradient>
<linearGradient id="paint53_linear" x1="571.567" y1="329.689" x2="565.894" y2="330.395" gradientUnits="userSpaceOnUse">
<stop offset="0.5" stop-color="white"/>
<stop offset="1" stop-color="white" stop-opacity="0"/>
</linearGradient>
<linearGradient id="paint54_linear" x1="1607.91" y1="2488.7" x2="1618.16" y2="2469.09" gradientUnits="userSpaceOnUse">
<stop offset="0.5" stop-color="white"/>
<stop offset="1" stop-color="white" stop-opacity="0"/>
</linearGradient>
<linearGradient id="paint55_linear" x1="570.579" y1="328.444" x2="570.532" y2="334.562" gradientUnits="userSpaceOnUse">
<stop stop-color="white" stop-opacity="0"/>
<stop offset="0.5" stop-color="white"/>
</linearGradient>
<linearGradient id="paint56_linear" x1="2431.88" y1="1767.93" x2="2410.71" y2="1763.11" gradientUnits="userSpaceOnUse">
<stop offset="0.5" stop-color="white"/>
<stop offset="1" stop-color="white" stop-opacity="0"/>
</linearGradient>
<linearGradient id="paint57_linear" x1="344.873" y1="143.943" x2="344.808" y2="145.082" gradientUnits="userSpaceOnUse">
<stop stop-color="white"/>
<stop offset="1" stop-color="white" stop-opacity="0"/>
</linearGradient>
<linearGradient id="paint58_linear" x1="233.489" y1="37.7971" x2="233.465" y2="32.3333" gradientUnits="userSpaceOnUse">
<stop stop-color="white"/>
<stop offset="1" stop-color="white" stop-opacity="0"/>
</linearGradient>
<linearGradient id="paint59_linear" x1="569.702" y1="329.914" x2="569.686" y2="331.151" gradientUnits="userSpaceOnUse">
<stop stop-color="white" stop-opacity="0"/>
<stop offset="1" stop-color="white"/>
</linearGradient>
<linearGradient id="paint60_linear" x1="244.064" y1="173.928" x2="242.906" y2="172.788" gradientUnits="userSpaceOnUse">
<stop stop-color="white"/>
<stop offset="1" stop-color="white" stop-opacity="0"/>
</linearGradient>
<linearGradient id="paint61_linear" x1="584.137" y1="254.56" x2="605.86" y2="266.334" gradientUnits="userSpaceOnUse">
<stop stop-color="#FF9B9B"/>
<stop offset="1" stop-color="#FF5656"/>
</linearGradient>
<linearGradient id="paint62_linear" x1="587.599" y1="299.203" x2="587.599" y2="341.327" gradientUnits="userSpaceOnUse">
<stop stop-color="#605F95"/>
<stop offset="1" stop-color="#21204D"/>
</linearGradient>
<linearGradient id="paint63_linear" x1="608.518" y1="259.455" x2="581.904" y2="318.475" gradientUnits="userSpaceOnUse">
<stop stop-color="#FF5656"/>
<stop offset="1" stop-color="#FF9B9B"/>
</linearGradient>
<linearGradient id="paint64_linear" x1="610.451" y1="322.49" x2="610.731" y2="360.91" gradientUnits="userSpaceOnUse">
<stop stop-color="#73E694"/>
<stop offset="1" stop-color="#35CF57"/>
</linearGradient>
<linearGradient id="paint65_linear" x1="613.488" y1="353.187" x2="613.548" y2="370.012" gradientUnits="userSpaceOnUse">
<stop stop-color="#69EF8E"/>
<stop offset="1" stop-color="#4EDB6D"/>
</linearGradient>
<linearGradient id="paint66_linear" x1="598.766" y1="359.356" x2="598.801" y2="370.739" gradientUnits="userSpaceOnUse">
<stop stop-color="#69EF8E"/>
<stop offset="1" stop-color="#4EDB6D"/>
</linearGradient>
<linearGradient id="paint67_linear" x1="561.92" y1="298.421" x2="554.454" y2="299.353" gradientUnits="userSpaceOnUse">
<stop offset="0.5" stop-color="white"/>
<stop offset="1" stop-color="white" stop-opacity="0"/>
</linearGradient>
<linearGradient id="paint68_linear" x1="555.99" y1="296.376" x2="555.943" y2="304.481" gradientUnits="userSpaceOnUse">
<stop offset="0.5" stop-color="white"/>
<stop offset="1" stop-color="white" stop-opacity="0"/>
</linearGradient>
<linearGradient id="paint69_linear" x1="559.775" y1="296.417" x2="559.729" y2="304.442" gradientUnits="userSpaceOnUse">
<stop stop-color="white" stop-opacity="0"/>
<stop offset="0.5" stop-color="white"/>
</linearGradient>
<linearGradient id="paint70_linear" x1="554.851" y1="302.403" x2="562.298" y2="301.473" gradientUnits="userSpaceOnUse">
<stop offset="0.5" stop-color="white"/>
<stop offset="1" stop-color="white" stop-opacity="0"/>
</linearGradient>
<linearGradient id="paint71_linear" x1="557.248" y1="300.946" x2="557.239" y2="302.417" gradientUnits="userSpaceOnUse">
<stop stop-color="white"/>
<stop offset="1" stop-color="white" stop-opacity="0"/>
</linearGradient>
<linearGradient id="paint72_linear" x1="582.213" y1="178.749" x2="582.182" y2="172.31" gradientUnits="userSpaceOnUse">
<stop stop-color="white"/>
<stop offset="1" stop-color="white" stop-opacity="0"/>
</linearGradient>
<linearGradient id="paint73_linear" x1="559.336" y1="298.406" x2="559.328" y2="299.881" gradientUnits="userSpaceOnUse">
<stop stop-color="white" stop-opacity="0"/>
<stop offset="1" stop-color="white"/>
</linearGradient>
<linearGradient id="paint74_linear" x1="557.787" y1="299.807" x2="556.146" y2="298.293" gradientUnits="userSpaceOnUse">
<stop stop-color="white"/>
<stop offset="1" stop-color="white" stop-opacity="0"/>
</linearGradient>
<linearGradient id="paint75_linear" x1="416.609" y1="212.83" x2="382.147" y2="175.248" gradientUnits="userSpaceOnUse">
<stop stop-color="#FF9B9B"/>
<stop offset="1" stop-color="#FF5656"/>
</linearGradient>
<clipPath id="clip0">
<rect width="1072" height="400" fill="white"/>
</clipPath>
<clipPath id="clip1">
<rect x="239.89" y="299.871" width="127.26" height="179.38" fill="white"/>
</clipPath>
<clipPath id="clip2">
<rect x="127.89" y="266.871" width="141.37" height="282.79" fill="white"/>
</clipPath>
<clipPath id="clip3">
<rect x="-16.4165" y="241" width="147" height="216" fill="white"/>
</clipPath>
<clipPath id="clip4">
<rect x="705.325" y="332.996" width="226.17" height="81.67" fill="white"/>
</clipPath>
<clipPath id="clip5">
<rect width="159.972" height="320" transform="matrix(-1 0 0 1 1085.73 285.805)" fill="white"/>
</clipPath>
<clipPath id="clip6">
<rect x="569.794" y="320.598" width="71.4949" height="63.3656" fill="white"/>
</clipPath>
<clipPath id="clip7">
<rect x="554.524" y="296.293" width="7.63918" height="8.01846" transform="rotate(-0.277449 554.524 296.293)" fill="white"/>
</clipPath>
<clipPath id="clip8">
<rect x="652" y="84.4453" width="48" height="48" fill="white"/>
</clipPath>
</defs>
</svg>
