<svg width="32" height="32" viewBox="0 0 32 32" fill="none" xmlns="http://www.w3.org/2000/svg">
<path d="M16.895 23.6625V23.5475C16.895 22.9192 16.3857 22.41 15.7575 22.41C15.1293 22.41 14.62 22.9192 14.62 23.5475V23.6625C14.62 24.2907 15.1293 24.8 15.7575 24.8C16.3857 24.8 16.895 24.2907 16.895 23.6625Z" fill="#912D27"/>
<path d="M20.61 14.055C20.85 13.545 20.97 12.98 20.97 12.355C20.97 10.965 20.495 9.85 19.555 9.00499C18.61 8.17 17.425 7.75 16.005 7.75C15.3 7.75 14.635 7.85998 14 8.08C13.365 8.29999 12.79 8.63995 12.275 9.09997C11.76 9.55999 11.385 10.085 11.15 10.67C10.9943 11.0577 10.8825 11.5661 10.816 12.1909C10.7554 12.761 11.223 13.235 11.7963 13.235C12.3589 13.235 12.8019 12.7755 12.8834 12.2189C13.1452 10.4306 14.1587 9.535 15.93 9.535C16.85 9.535 17.555 9.79999 18.04 10.32C18.525 10.845 18.77 11.445 18.77 12.125C18.77 12.805 18.665 13.315 18.455 13.66C18.24 14.005 17.77 14.555 17.035 15.315C16.305 16.075 15.795 16.65 15.515 17.04C15.23 17.43 15.025 17.89 14.88 18.41C14.7994 18.7123 14.742 19.0727 14.7078 19.4912C14.6619 20.0524 15.1265 20.51 15.6897 20.51C16.2608 20.51 16.7065 20.039 16.7642 19.4708C16.7932 19.1851 16.8398 18.935 16.905 18.72C17.04 18.27 17.23 17.89 17.49 17.57C17.745 17.255 18.275 16.71 19.06 15.955C19.85 15.2 20.365 14.565 20.61 14.055Z" fill="#912D27"/>
<ellipse opacity="0.2" cx="16" cy="16" rx="16" ry="16" fill="#FF4A4A"/>
</svg>
