<svg width="12" height="12" viewBox="0 0 12 12" fill="none" xmlns="http://www.w3.org/2000/svg">
<path d="M6.75 3.25C6.75 3.66421 6.41421 4 6 4C5.58579 4 5.25 3.66421 5.25 3.25C5.25 2.83579 5.58579 2.5 6 2.5C6.41421 2.5 6.75 2.83579 6.75 3.25Z" fill="#BDBDBD"/>
<path d="M6 5C5.72386 5 5.5 5.22386 5.5 5.5V8.5C5.5 8.77614 5.72386 9 6 9C6.27614 9 6.5 8.77614 6.5 8.5V5.5C6.5 5.22386 6.27614 5 6 5Z" fill="#BDBDBD"/>
<path fill-rule="evenodd" clip-rule="evenodd" d="M6 12C9.31371 12 12 9.31371 12 6C12 2.68629 9.31371 0 6 0C2.68629 0 0 2.68629 0 6C0 9.31371 2.68629 12 6 12ZM6 11C8.76142 11 11 8.76142 11 6C11 3.23858 8.76142 1 6 1C3.23858 1 1 3.23858 1 6C1 8.76142 3.23858 11 6 11Z" fill="#BDBDBD"/>
</svg>
