<svg width="12" height="12" viewBox="0 0 12 12" fill="none" xmlns="http://www.w3.org/2000/svg">
<g clip-path="url(#clip0)">
<path d="M1.2 0H7.2V0.9H1.2C1.03431 0.9 0.9 1.03431 0.9 1.2V10.8C0.9 10.9657 1.03431 11.1 1.2 11.1H10.8C10.9657 11.1 11.1 10.9657 11.1 10.8V4.8H12V10.8C12 11.4627 11.4627 12 10.8 12H1.2C0.537259 12 0 11.4627 0 10.8V1.2C0 0.537259 0.537258 0 1.2 0Z" fill="#1A7DF1"/>
<path d="M8.52504 0C8.25777 0 8.12392 0.323142 8.31291 0.512131L9.5825 1.78172L2.68258 8.68156C2.50685 8.85729 2.50685 9.14221 2.68258 9.31795C2.85832 9.49369 3.14324 9.49369 3.31898 9.31796L10.2189 2.41812L11.4886 3.68787C11.6776 3.87686 12.0008 3.74301 12.0008 3.47574V0.3C12.0008 0.134315 11.8665 0 11.7008 0H8.52504Z" fill="#1A7DF1"/>
</g>
<defs>
<clipPath id="clip0">
<rect width="12" height="12" fill="white"/>
</clipPath>
</defs>
</svg>
