<svg width="12" height="12" viewBox="0 0 12 12" fill="none" xmlns="http://www.w3.org/2000/svg">
<g clip-path="url(#clip0)">
<path d="M8.4118 11.8613C8.6098 12.0533 8.9278 12.0473 9.1198 11.8493C9.3118 11.6513 9.3058 11.3333 9.1078 11.1413L3.95381 6.02926L9.0778 0.851259C9.2698 0.653259 9.2698 0.341259 9.0718 0.143259C8.8738 -0.0487414 8.5618 -0.0487414 8.3638 0.149259L2.90381 5.65726C2.89781 5.66326 2.89181 5.67526 2.88581 5.68726C2.88581 5.68726 2.87981 5.68726 2.87981 5.69326C2.68781 5.89126 2.68781 6.20326 2.88581 6.40126L8.3938 11.8613C8.4058 11.8553 8.4058 11.8553 8.4118 11.8613Z" fill="white"/>
</g>
<defs>
<clipPath id="clip0">
<rect width="12" height="12" fill="white" transform="translate(12) rotate(90)"/>
</clipPath>
</defs>
</svg>
