<svg width="12" height="12" viewBox="0 0 12 12" fill="none" xmlns="http://www.w3.org/2000/svg">
<g clip-path="url(#clip0)">
<path fill-rule="evenodd" clip-rule="evenodd" d="M2.65787 0.235853C2.35974 0.543299 2.36962 1.03428 2.67446 1.33128L7.35627 5.97494L2.69988 10.6804L2.69776 10.6826C2.40201 10.9876 2.402 11.4714 2.70668 11.7761L2.70999 11.7793C3.01499 12.0751 3.4988 12.075 3.80348 11.7704L8.98979 6.53845L8.99072 6.53752C9.0131 6.51495 9.02895 6.49207 9.03832 6.47708L9.03976 6.47517C9.31134 6.16925 9.30311 5.7037 9.00689 5.40748L9.00596 5.40655L3.62119 0.0687151L3.57883 0.0898958C3.28113 -0.0680453 2.90299 -0.0169325 2.65787 0.235853ZM3.75791 0.22114L3.75526 0.218574C3.75999 0.223036 3.7615 0.224738 3.75791 0.22114Z" fill="#1A7DF1"/>
</g>
<defs>
<clipPath id="clip0">
<path d="M0 0L12 0V12H0L0 0Z" fill="white"/>
</clipPath>
</defs>
</svg>
