<svg width="16" height="16" viewBox="0 0 16 16" fill="none" xmlns="http://www.w3.org/2000/svg">
<path d="M11.9594 10.4245L12.7675 11.2326L16 8.00008L12.7675 4.76758L11.9594 5.57572L13.8123 7.42865H5.71429V8.57151H13.8123L11.9594 10.4245Z" fill="#1A7DF1"/>
<path d="M12.839 12.8488C11.5439 14.1439 9.82207 14.8571 7.99057 14.8571C6.15889 14.8571 4.43679 14.1439 3.14157 12.8488C1.84632 11.5536 1.14286 9.83161 1.14286 8C1.14286 6.16854 1.84632 4.44661 3.14161 3.15139C4.43686 1.85618 6.15893 1.14286 7.99057 1.14286C9.82196 1.14286 11.5438 1.85618 12.839 3.15136C12.9292 3.24164 13.0163 3.33425 13.1009 3.42857H14.5555C13.11 1.35614 10.7088 0 7.99057 0C3.57218 0 0 3.58207 0 8C0 12.4184 3.57218 16 7.99057 16C10.7089 16 13.1102 14.6439 14.5556 12.5714H13.101C13.0164 12.6658 12.9293 12.7584 12.839 12.8488Z" fill="#1A7DF1"/>
</svg>
