<svg width="32" height="32" viewBox="0 0 32 32" fill="none" xmlns="http://www.w3.org/2000/svg">
<rect width="32" height="32" rx="16" fill="black" fill-opacity="0.2"/>
<g clip-path="url(#clip0)">
<path d="M20.4956 21.5798C20.4989 21.7098 20.4757 21.8391 20.4274 21.9599C20.3792 22.0807 20.3069 22.1904 20.2149 22.2823C20.123 22.3743 20.0133 22.4466 19.8925 22.4948C19.7717 22.5431 19.6424 22.5663 19.5124 22.563H12.4928C12.3628 22.5663 12.2335 22.5431 12.1127 22.4948C11.992 22.4466 11.8823 22.3743 11.7903 22.2823C11.6983 22.1904 11.626 22.0807 11.5778 21.9599C11.5295 21.8391 11.5063 21.7098 11.5096 21.5798V11.261H20.4956V21.5798ZM13.476 9.57619C13.472 9.54757 13.4747 9.51842 13.4839 9.49104C13.4931 9.46365 13.5086 9.43879 13.5291 9.41842C13.5496 9.39804 13.5745 9.38271 13.602 9.37365C13.6294 9.36458 13.6586 9.36202 13.6872 9.36617H18.3907C18.4194 9.36198 18.4487 9.36455 18.4763 9.37368C18.5038 9.3828 18.5288 9.39824 18.5493 9.41875C18.5698 9.43926 18.5853 9.46428 18.5944 9.49182C18.6035 9.51935 18.6061 9.54864 18.6019 9.57734V10.1393H13.5475C13.4771 10.1393 13.4771 9.57734 13.4771 9.57734L13.476 9.57619ZM23.3736 10.1382H19.6532V9.5762C19.6533 9.40098 19.619 9.22744 19.552 9.06552C19.485 8.90361 19.3867 8.75649 19.2628 8.63258C19.1389 8.50868 18.9918 8.41042 18.8299 8.34343C18.668 8.27644 18.4944 8.24204 18.3192 8.24219H13.6156C13.4404 8.24204 13.2669 8.27644 13.105 8.34342C12.943 8.41041 12.7959 8.50867 12.672 8.63257C12.5481 8.75647 12.4499 8.90359 12.3829 9.06551C12.3159 9.22743 12.2815 9.40096 12.2816 9.57619V10.1382H8.56691C8.49281 10.1371 8.41926 10.1509 8.35059 10.1788C8.28193 10.2066 8.21955 10.248 8.16715 10.3004C8.11475 10.3528 8.0734 10.4152 8.04553 10.4838C8.01767 10.5525 8.00387 10.626 8.00494 10.7001C8.01477 10.846 8.07714 10.9833 8.18047 11.0866C8.2838 11.1899 8.4211 11.2523 8.56691 11.2621H10.3221V21.5809C10.3248 22.1573 10.555 22.7093 10.9625 23.1169C11.3701 23.5245 11.9221 23.7547 12.4985 23.7573H19.5181C20.0945 23.7546 20.6465 23.5245 21.0541 23.1169C21.4616 22.7093 21.6918 22.1573 21.6945 21.5809V11.2621H23.4395C23.5135 11.2632 23.5871 11.2494 23.6558 11.2215C23.7244 11.1937 23.7868 11.1523 23.8392 11.0999C23.8916 11.0475 23.933 10.9851 23.9608 10.9165C23.9887 10.8478 24.0025 10.7743 24.0014 10.7002C23.9871 10.5439 23.9139 10.399 23.7967 10.2946C23.6795 10.1903 23.5271 10.1344 23.3702 10.1382L23.3736 10.1382ZM16.0032 20.8101C16.0773 20.8112 16.1508 20.7973 16.2195 20.7695C16.2882 20.7416 16.3505 20.7003 16.4029 20.6479C16.4553 20.5955 16.4967 20.5331 16.5246 20.4644C16.5524 20.3958 16.5662 20.3222 16.5652 20.2481V14.0039C16.5662 13.9298 16.5524 13.8562 16.5246 13.7876C16.4967 13.7189 16.4553 13.6565 16.4029 13.6041C16.3505 13.5517 16.2882 13.5104 16.2195 13.4825C16.1508 13.4547 16.0773 13.4408 16.0032 13.4419C15.8574 13.4518 15.7201 13.5141 15.6167 13.6174C15.5134 13.7208 15.451 13.8581 15.4412 14.0039V20.2481C15.4401 20.3222 15.4539 20.3957 15.4818 20.4644C15.5097 20.5331 15.551 20.5955 15.6034 20.6479C15.6558 20.7003 15.7182 20.7416 15.7869 20.7695C15.8555 20.7973 15.9291 20.8112 16.0032 20.8101ZM13.266 20.8101C13.3401 20.8111 13.4136 20.7973 13.4823 20.7695C13.5509 20.7416 13.6133 20.7003 13.6657 20.6479C13.7181 20.5955 13.7595 20.5331 13.7873 20.4644C13.8152 20.3957 13.829 20.3222 13.8279 20.2481V14.0039C13.829 13.9298 13.8152 13.8562 13.7873 13.7876C13.7595 13.7189 13.7181 13.6565 13.6657 13.6041C13.6133 13.5517 13.5509 13.5104 13.4823 13.4825C13.4136 13.4547 13.3401 13.4409 13.266 13.4419C13.1201 13.4518 12.9829 13.5141 12.8795 13.6175C12.7762 13.7208 12.7138 13.8581 12.704 14.0039V20.2481C12.7138 20.3939 12.7762 20.5312 12.8795 20.6345C12.9829 20.7379 13.1201 20.8002 13.266 20.8101ZM18.7416 20.8101C18.8157 20.8111 18.8892 20.7973 18.9579 20.7695C19.0265 20.7416 19.0889 20.7003 19.1413 20.6479C19.1937 20.5955 19.2351 20.5331 19.2629 20.4644C19.2908 20.3957 19.3046 20.3222 19.3035 20.2481V14.0039C19.3046 13.9298 19.2908 13.8562 19.2629 13.7876C19.2351 13.7189 19.1937 13.6565 19.1413 13.6041C19.0889 13.5517 19.0265 13.5104 18.9579 13.4825C18.8892 13.4547 18.8157 13.4409 18.7416 13.4419C18.5958 13.4518 18.4585 13.5141 18.3551 13.6175C18.2518 13.7208 18.1894 13.8581 18.1796 14.0039V20.2481C18.1785 20.3222 18.1923 20.3957 18.2202 20.4644C18.248 20.5331 18.2894 20.5955 18.3418 20.6479C18.3942 20.7003 18.4566 20.7416 18.5252 20.7695C18.5939 20.7973 18.6675 20.8111 18.7416 20.8101Z" fill="white"/>
</g>
<defs>
<clipPath id="clip0">
<rect width="16" height="16" fill="white" transform="translate(8 8)"/>
</clipPath>
</defs>
</svg>
