<svg width="21" height="20" viewBox="0 0 21 20" fill="none" xmlns="http://www.w3.org/2000/svg">
<g clip-path="url(#clip0)">
<path fill-rule="evenodd" clip-rule="evenodd" d="M11.086 6.91946C12.6586 6.57612 13.836 5.17556 13.836 3.5C13.836 1.567 12.269 0 10.336 0C8.403 0 6.836 1.567 6.836 3.5C6.836 5.17556 8.01341 6.57612 9.586 6.91946V10.25H4.33337C3.36688 10.25 2.58337 11.0335 2.58337 12V15.0123C1.32004 15.1378 0.333374 16.2037 0.333374 17.5C0.333374 18.8807 1.45266 20 2.83337 20C4.21409 20 5.33337 18.8807 5.33337 17.5C5.33337 16.5746 4.83063 15.7667 4.08337 15.3345V12C4.08337 11.8619 4.1953 11.75 4.33337 11.75H16.3334C16.4714 11.75 16.5834 11.8619 16.5834 12V15.3345C15.8361 15.7667 15.3334 16.5746 15.3334 17.5C15.3334 18.8807 16.4527 20 17.8334 20C19.2141 20 20.3334 18.8807 20.3334 17.5C20.3334 16.2037 19.3467 15.1378 18.0834 15.0123V12C18.0834 11.0335 17.2999 10.25 16.3334 10.25H11.086V6.91946Z" fill="#333333"/>
</g>
<defs>
<clipPath id="clip0">
<path d="M0.335999 0H20.336V20H0.335999V0Z" fill="white"/>
</clipPath>
</defs>
</svg>
