<svg width="20" height="20" viewBox="0 0 20 20" fill="none" xmlns="http://www.w3.org/2000/svg">
<path d="M9.99992 0C4.4771 0 0 4.47716 0 9.99998C0 15.5228 4.4771 20 9.99992 20C15.5227 20 19.9998 15.5228 19.9998 10C19.9998 4.47719 15.5228 0 9.99992 0ZM8.6956 3.82928C8.6956 3.63719 8.85131 3.48147 9.04344 3.48147H10.9565C11.1486 3.48147 11.3043 3.63722 11.3043 3.82928V5.74231C11.3043 5.9344 11.1486 6.09015 10.9565 6.09015H9.04341C8.85128 6.09015 8.69557 5.9344 8.69557 5.74231V3.82928H8.6956ZM13.0434 16.1339C13.0434 16.326 12.8877 16.4817 12.6955 16.4817H7.30428C7.11219 16.4817 6.95647 16.326 6.95647 16.1339V15.0903C6.95647 14.8982 7.11222 14.7425 7.30428 14.7425H8.6956V9.52518H7.30431C7.11219 9.52518 6.95647 9.36943 6.95647 9.17734V8.13386C6.95647 7.94176 7.11219 7.78602 7.30431 7.78602H10.9565H10.9565C11.1486 7.78602 11.3043 7.94173 11.3043 8.13386V14.7425H12.6956C12.8877 14.7425 13.0435 14.8982 13.0435 15.0903V16.1339H13.0434Z" fill="white"/>
</svg>
