<svg width="20" height="20" viewBox="0 0 20 20" fill="none" xmlns="http://www.w3.org/2000/svg">
<path fill-rule="evenodd" clip-rule="evenodd" d="M2 0C0.895431 0 0 0.895431 0 2V18C0 19.1046 0.895431 20 2 20H18C19.1046 20 20 19.1046 20 18V2C20 0.895431 19.1046 0 18 0H2ZM9.04345 3.48145C8.85132 3.48145 8.69561 3.63716 8.69561 3.82925L8.69558 5.74228C8.69558 5.93438 8.85129 6.09012 9.04342 6.09012H10.9565C11.1486 6.09012 11.3043 5.93438 11.3043 5.74228V3.82925C11.3043 3.63719 11.1486 3.48145 10.9565 3.48145H9.04345ZM12.6955 16.4817C12.8877 16.4817 13.0434 16.3259 13.0434 16.1339L13.0435 15.0903C13.0435 14.8982 12.8877 14.7425 12.6956 14.7425H11.3043V8.13383C11.3043 7.9417 11.1486 7.78599 10.9565 7.78599H7.30432C7.11219 7.78599 6.95648 7.94174 6.95648 8.13383V9.17731C6.95648 9.36941 7.11219 9.52515 7.30432 9.52515H8.69561V14.7425H7.30429C7.11223 14.7425 6.95648 14.8982 6.95648 15.0903V16.1339C6.95648 16.3259 7.11219 16.4817 7.30429 16.4817H12.6955Z" fill="white"/>
</svg>
