<svg width="20" height="20" viewBox="0 0 20 20" fill="none" xmlns="http://www.w3.org/2000/svg">
<path fill-rule="evenodd" clip-rule="evenodd" d="M10.8865 1.712C10.4925 1.0296 9.50752 1.0296 9.11354 1.712L0.138664 17.2569C-0.25532 17.9393 0.237159 18.7923 1.02513 18.7923H18.9749C19.7628 18.7923 20.2553 17.9393 19.8613 17.2569L10.8865 1.712ZM10.9161 11.9152C10.9161 12.3317 10.4995 12.665 10.083 12.665H9.91636C9.4998 12.665 9.08324 12.3317 9.08324 11.9152L8.8333 7.24968C8.74999 6.58319 9.33318 6 9.99968 6C10.6662 6 11.2494 6.58319 11.166 7.24968L10.9161 11.9152ZM11.1994 14.8003C11.1994 15.4629 10.6623 16 9.99968 16C9.33711 16 8.79999 15.4629 8.79999 14.8003C8.79999 14.1377 9.33711 13.6006 9.99968 13.6006C10.6623 13.6006 11.1994 14.1377 11.1994 14.8003Z" fill="white"/>
</svg>
