<svg width="32" height="32" viewBox="0 0 32 32" fill="none" xmlns="http://www.w3.org/2000/svg">
<rect width="32" height="32" rx="16" fill="#E2F3FF"/>
<path fill-rule="evenodd" clip-rule="evenodd" d="M8.23037 23.9724H23.2361C23.3015 23.9726 23.3662 23.96 23.4267 23.9351C23.4871 23.9102 23.542 23.8736 23.5882 23.8274C23.6344 23.7812 23.6711 23.7262 23.696 23.6658C23.7208 23.6054 23.7335 23.5406 23.7333 23.4753C23.7333 23.1991 23.5123 22.9781 23.2361 22.9781H22.7758V13.5052C22.7758 13.1001 22.6193 12.7227 22.3339 12.4465C22.0486 12.1611 21.6711 12.0046 21.2753 12.0046H17.777V9.5006C17.777 9.09549 17.6205 8.71807 17.335 8.44186C17.0497 8.15654 16.6723 8 16.2764 8H10.2649C9.85982 8 9.49161 8.15654 9.20619 8.44186C8.92087 8.72728 8.76433 9.10473 8.76433 9.5006V22.9781H8.23037C7.95426 22.9781 7.73328 23.1991 7.73328 23.4753C7.73302 23.5406 7.74569 23.6054 7.77058 23.6658C7.79547 23.7262 7.83207 23.7811 7.87828 23.8273C7.9245 23.8736 7.9794 23.9102 8.03983 23.9351C8.10026 23.9599 8.16502 23.9726 8.23037 23.9724ZM12.7689 11.001H10.7712V13.0079H12.7689V11.001ZM15.7701 19.0102H13.7724V21.0079H15.7701V19.0102ZM15.7701 15.0056H13.7724V17.0033H15.7701V15.0056ZM12.7689 15.0056H10.7712V17.0033H12.7689V15.0056ZM12.7689 19.0102H10.7712V21.0079H12.7689V19.0102ZM20.7689 15.0056H18.7712V17.0033H20.7689V15.0056ZM15.7701 11.001H13.7724V13.0079H15.7701V11.001ZM20.7689 19.0102H18.7712V21.0079H20.7689V19.0102Z" fill="#1A7DF1"/>
</svg>
