<svg width="21" height="20" viewBox="0 0 21 20" fill="none" xmlns="http://www.w3.org/2000/svg">
<path fill-rule="evenodd" clip-rule="evenodd" d="M10.3555 0.151787C10.1591 -0.0505958 9.83424 -0.0505955 9.63784 0.151787L0.144808 9.93384C-0.162906 10.2509 0.0617771 10.782 0.503624 10.782L2.49167 10.782V19.482C2.49167 19.7582 2.71553 19.982 2.99167 19.982H7.99167V13.282C7.99167 13.0059 8.21553 12.782 8.49167 12.782H11.4917C11.7678 12.782 11.9917 13.0059 11.9917 13.282V19.982H16.9917C17.2678 19.982 17.4917 19.7582 17.4917 19.482V10.782L19.4897 10.782C19.9315 10.782 20.1562 10.2509 19.8485 9.93384L10.3555 0.151787Z" fill="#333333"/>
</svg>
