<svg width="21" height="20" viewBox="0 0 21 20" fill="none" xmlns="http://www.w3.org/2000/svg">
<path d="M6.586 2.25C6.30986 2.25 6.086 2.47386 6.086 2.75V5.75C6.086 6.02614 6.30986 6.25 6.586 6.25H14.086C14.3621 6.25 14.586 6.02614 14.586 5.75V2.75C14.586 2.47386 14.3621 2.25 14.086 2.25H6.586Z" fill="#333333"/>
<path fill-rule="evenodd" clip-rule="evenodd" d="M3.836 2C3.836 0.895431 4.73143 0 5.836 0H14.836C15.9406 0 16.836 0.895431 16.836 2V18C16.836 19.1046 15.9406 20 14.836 20H5.836C4.73143 20 3.836 19.1046 3.836 18V2ZM5.836 1.5H14.836C15.1121 1.5 15.336 1.72386 15.336 2V18C15.336 18.2761 15.1121 18.5 14.836 18.5H5.836C5.55986 18.5 5.336 18.2761 5.336 18V2C5.336 1.72386 5.55986 1.5 5.836 1.5Z" fill="#333333"/>
</svg>
