<svg width="200" height="200" viewBox="0 0 200 200" fill="none" xmlns="http://www.w3.org/2000/svg">
<g clip-path="url(#clip0)">
<path d="M181.989 166.837C180.595 166.837 179.267 169.713 177.856 170.132C176.809 170.442 175.485 170.829 174.435 171.141C172.496 171.486 170.294 171.398 168.323 171.398H31.5C27.6496 171.398 24.091 171.089 20.5121 169.496C19.8913 169.219 19.6397 168.759 19.1357 168.311C18.4392 167.758 18.3165 167.202 18.0027 166.788C18.476 174.56 18.9511 182.726 19.4176 190.492C19.6079 193.662 19.7982 196.831 19.989 200H179.814C180 196.897 180.187 193.794 180.373 190.692C180.827 183.14 181.53 174.394 181.989 166.837Z" fill="#54A3E9"/>
<path d="M169.493 124.117C169.325 123.551 168.792 122.985 167.978 122.496C167.164 122.007 166.07 121.57 164.779 121.184C163.488 120.823 162 120.515 160.401 120.309C158.801 120.103 157.033 120 155.237 120H44.7508C42.9547 120 41.2147 120.103 39.5871 120.309C37.9594 120.515 36.472 120.823 35.2091 121.184C33.9182 121.544 32.8237 122.007 32.0099 122.496C31.196 122.985 30.6628 123.551 30.4945 124.117L18.0903 166.031C17.8658 166.828 18.0623 167.6 18.6516 168.321C19.241 169.041 20.2232 169.684 21.486 170.225C22.777 170.765 24.3766 171.202 26.2007 171.511C28.0249 171.82 30.0735 172 32.2905 172H167.697C169.886 172 171.963 171.82 173.787 171.511C175.611 171.202 177.211 170.765 178.502 170.225C179.793 169.684 180.747 169.041 181.336 168.321C181.926 167.626 182.15 166.854 181.898 166.031" fill="#75BEFE"/>
<rect x="37" y="149.2" width="127" height="8" rx="4" fill="#237CCA"/>
<path fill-rule="evenodd" clip-rule="evenodd" d="M152.488 157.398V37.9834H47.5859V157.398H152.488Z" fill="white"/>
<path fill-rule="evenodd" clip-rule="evenodd" d="M152.488 157.398V37.9834H47.5859V157.398H43V37.9834C43 35.4612 45.0637 33.3975 47.5859 33.3975H152.488C155.011 33.3975 157.074 35.4612 157.074 37.9834V157.398H152.488Z" fill="#E2E9EE"/>
<path d="M71.0458 128.978C70.3367 128.978 69.7795 128.421 69.7795 127.712C69.7795 127.003 70.3367 126.446 71.0458 126.446H104.475C105.184 126.446 105.741 127.003 105.741 127.712C105.741 128.421 105.184 128.978 104.475 128.978H71.0458Z" fill="white"/>
<path d="M104.475 124.42H71.0459C69.2225 124.42 67.7537 125.889 67.7537 127.712C67.7537 129.536 69.2225 131.004 71.0459 131.004H104.475C106.298 131.004 107.767 129.536 107.767 127.712C107.767 125.889 106.298 124.42 104.475 124.42Z" fill="#E2E9EE"/>
<path d="M63.1951 126.446H60.6626V128.978H63.1951V126.446Z" fill="white"/>
<path d="M63.8789 124.42H59.9536C59.2191 124.42 58.6113 125.028 58.6113 125.762V129.688C58.6113 130.422 59.2191 131.03 59.9536 131.03H63.8789C64.6134 131.03 65.2212 130.422 65.2212 129.688V125.762C65.2212 125.028 64.6134 124.42 63.8789 124.42Z" fill="#E2E9EE"/>
<path d="M63.1951 138.056H60.6626V140.588H63.1951V138.056Z" fill="white"/>
<path d="M63.8789 136.03H59.9536C59.2191 136.03 58.6113 136.638 58.6113 137.372V141.297C58.6113 142.032 59.2191 142.64 59.9536 142.64H63.8789C64.6134 142.64 65.2212 142.032 65.2212 141.297V137.372C65.2212 136.638 64.6134 136.03 63.8789 136.03Z" fill="#E2E9EE"/>
<path d="M70.8432 140.588C70.2607 140.588 69.7795 140.107 69.7795 139.525V139.119C69.7795 138.537 70.2607 138.056 70.8432 138.056H132.788C133.371 138.056 133.852 138.537 133.852 139.119V139.525C133.852 140.107 133.371 140.588 132.788 140.588H70.8432Z" fill="white"/>
<path d="M132.788 136.03H70.8433C69.1465 136.03 67.7537 137.423 67.7537 139.119V139.525C67.7537 141.221 69.1465 142.614 70.8433 142.614H132.788C134.485 142.614 135.878 141.221 135.878 139.525V139.119C135.878 137.423 134.485 136.03 132.788 136.03Z" fill="#E2E9EE"/>
<path d="M63.1951 149.666H60.6626V152.198H63.1951V149.666Z" fill="white"/>
<path d="M63.8789 147.64H59.9536C59.2191 147.64 58.6113 148.247 58.6113 148.982V152.907C58.6113 153.642 59.2191 154.249 59.9536 154.249H63.8789C64.6134 154.249 65.2212 153.642 65.2212 152.907V148.982C65.2212 148.247 64.6134 147.64 63.8789 147.64Z" fill="#E2E9EE"/>
<path d="M71.0458 152.198C70.3367 152.198 69.7795 151.641 69.7795 150.932C69.7795 150.223 70.3367 149.666 71.0458 149.666H112.072C112.781 149.666 113.339 150.223 113.339 150.932C113.339 151.641 112.781 152.198 112.072 152.198H71.0458Z" fill="white"/>
<path d="M112.073 147.64H71.0459C69.2225 147.64 67.7537 149.108 67.7537 150.932C67.7537 152.755 69.2225 154.224 71.0459 154.224H112.073C113.896 154.224 115.365 152.755 115.365 150.932C115.365 149.108 113.896 147.64 112.073 147.64Z" fill="#E2E9EE"/>
<path d="M126.393 15.5812C124.295 15.5812 122.582 17.3296 122.582 19.4625C122.582 21.5955 124.295 23.3088 126.428 23.3088H130.834L128.421 25.3719C126.812 26.7356 126.603 29.1832 128.001 30.7917C129.365 32.4001 131.813 32.6099 133.421 31.2113L138.841 26.5607C138.107 28.3091 137.722 30.2322 137.722 32.2253C137.722 32.6081 137.737 32.99 137.765 33.3702H145.472C145.411 32.9933 145.38 32.6113 145.38 32.2253C145.38 29.5678 146.778 27.2601 148.876 25.9663C149.296 25.7215 149.716 25.5117 150.135 25.3369C150.17 25.3194 150.196 25.3107 150.223 25.3019C150.249 25.2932 150.275 25.2844 150.31 25.267C150.362 25.2495 150.424 25.232 150.485 25.2145C150.546 25.197 150.607 25.1795 150.66 25.1621C150.834 25.0921 151.009 25.0572 151.184 25.0222C151.219 25.0222 151.254 25.0135 151.289 25.0047C151.324 24.996 151.359 24.9872 151.394 24.9872C151.464 24.9698 151.543 24.961 151.621 24.9523C151.7 24.9435 151.779 24.9348 151.849 24.9173C151.918 24.8823 151.988 24.8823 152.058 24.8823C152.268 24.8474 152.513 24.8474 152.723 24.8474C156.779 24.8474 160.066 28.1342 160.066 32.1903C160.066 35.1625 158.317 37.8199 155.555 38.9738C153.597 39.813 152.688 42.0509 153.492 44.009C154.121 45.5126 155.555 46.3867 157.059 46.3867C157.548 46.3867 158.038 46.2818 158.527 46.072C164.157 43.7293 167.793 38.2745 167.793 32.1903H167.828V-4H148.911V16.0008C147.722 15.7211 146.499 15.5812 145.275 15.5812H126.393Z" fill="#F7CFC2"/>
<path d="M145.641 -4H170.834V9.74585C170.834 10.8504 169.939 11.7459 168.834 11.7459H147.641C146.536 11.7459 145.641 10.8504 145.641 9.74586V-4Z" fill="#75BEFE"/>
<ellipse cx="148.79" cy="8.59668" rx="1.04972" ry="1.04972" fill="white"/>
<g clip-path="url(#clip1)">
<rect x="60.7512" y="182.304" width="9" height="6" rx="1" fill="#237CCA"/>
<rect x="73.7512" y="182.304" width="9" height="6" rx="1" fill="white"/>
<rect x="86.7512" y="182.304" width="9" height="6" rx="1" fill="#237CCA"/>
<rect x="99.7512" y="182.304" width="9" height="6" rx="1" fill="#75BEFE"/>
<rect x="112.751" y="182.304" width="9" height="6" rx="1" fill="#75BEFE"/>
<rect x="125.751" y="182.304" width="9" height="6" rx="1" fill="#237CCA"/>
</g>
<path fill-rule="evenodd" clip-rule="evenodd" d="M99.9945 103.724C111.589 103.724 120.989 94.3242 120.989 82.7293C120.989 71.1343 111.589 61.7348 99.9945 61.7348C88.3995 61.7348 79 71.1343 79 82.7293C79 94.3242 88.3995 103.724 99.9945 103.724ZM107.277 74.6388L96.9043 85.1603L92.7116 80.8495C92.3093 80.4397 91.6576 80.4397 91.2553 80.8495L89.799 82.3339C89.3968 82.7436 89.3968 83.4077 89.7987 83.8179L94.6603 88.8169C94.676 88.8352 94.6924 88.8531 94.7095 88.8705L95.0279 89.1948L96.1632 90.3622C96.5655 90.7719 97.2176 90.7719 97.6198 90.3622L98.7058 89.255L110.19 77.6068C110.592 77.197 110.592 76.5325 110.19 76.1228L108.734 74.6391C108.332 74.229 107.68 74.229 107.277 74.6388Z" fill="#52BF36"/>
<path d="M175 96C175 97.6569 173.657 99 172 99C170.343 99 169 97.6569 169 96C169 94.3431 170.343 93 172 93C173.657 93 175 94.3431 175 96Z" stroke="#52BF36" stroke-width="2"/>
<ellipse cx="31" cy="85" rx="2" ry="2" fill="#52BF36"/>
<rect x="21" y="65" width="8" height="2" rx="1" fill="#52BF36"/>
<rect x="26" y="62" width="8" height="2" rx="1" transform="rotate(90 26 62)" fill="#52BF36"/>
</g>
<defs>
<clipPath id="clip0">
<rect width="200" height="200" fill="white"/>
</clipPath>
<clipPath id="clip1">
<rect width="74" height="6.29834" fill="white" transform="translate(60.7512 182.155)"/>
</clipPath>
</defs>
</svg>
