<svg width="12" height="12" viewBox="0 0 12 12" fill="none" xmlns="http://www.w3.org/2000/svg">
<path d="M3.54555 0.434075C3.35748 0.251699 3.05542 0.257398 2.87304 0.445474C2.69066 0.633549 2.69636 0.935609 2.88444 1.11798L7.78009 5.97374L2.91293 10.8922C2.73056 11.0803 2.73056 11.3766 2.91863 11.5647C3.10671 11.7471 3.40307 11.7471 3.59114 11.559L8.77746 6.3271C8.78315 6.3214 8.78885 6.31 8.79455 6.2986C8.79455 6.2986 8.80025 6.2986 8.80025 6.2929C8.98263 6.10483 8.98263 5.80846 8.79455 5.62039L3.56265 0.434075C3.55125 0.439774 3.55125 0.439774 3.54555 0.434075Z" fill="white"/>
</svg>
