<svg width="160" height="161" viewBox="0 0 160 161" fill="none" xmlns="http://www.w3.org/2000/svg">
<rect width="160" height="160" rx="2" fill="white"/>
<circle cx="80" cy="80" r="80" fill="#E6FCDC"/>
<g clip-path="url(#clip0)">
<path d="M59.4155 150.834L56.1452 149.127C55.0976 148.533 54.231 147.665 53.6378 146.616C53.0447 145.568 52.7472 144.378 52.7772 143.173L56.0475 144.88C56.0201 146.087 56.3216 147.278 56.9196 148.327C57.5175 149.376 58.3895 150.242 59.4421 150.834" fill="#1B1B1B"/>
<path d="M103.582 25.8881C103.837 25.8558 104.096 25.8793 104.341 25.9569C104.586 26.0345 104.812 26.1644 105.002 26.3376C105.192 26.5108 105.342 26.7231 105.442 26.9601C105.542 27.197 105.59 27.4528 105.581 27.7098C105.593 28.278 105.406 28.8324 105.052 29.2771C104.699 29.7218 104.2 30.0287 103.644 30.1448C103.393 30.1764 103.137 30.154 102.895 30.079C102.654 30.004 102.43 29.8781 102.241 29.7098C102.052 29.5415 101.9 29.3346 101.798 29.1031C101.695 28.8716 101.643 28.6208 101.645 28.3674C101.627 27.793 101.812 27.2307 102.165 26.7778C102.519 26.325 103.02 26.0102 103.582 25.8881Z" fill="white"/>
<path fill-rule="evenodd" clip-rule="evenodd" d="M89.2363 22.1586C89.1422 22.13 89.0428 22.1228 88.9456 22.1376C88.7386 22.1755 88.5517 22.2856 88.4182 22.4483C88.2848 22.6111 88.2134 22.8159 88.2169 23.0263C88.2104 23.1245 88.2261 23.2228 88.2627 23.3141C88.2993 23.4054 88.356 23.4874 88.4284 23.5539C88.5009 23.6204 88.5874 23.6698 88.6815 23.6985C88.7756 23.7271 88.875 23.7343 88.9722 23.7195C89.1792 23.6816 89.3661 23.5715 89.4996 23.4088C89.633 23.246 89.7044 23.0412 89.7009 22.8308C89.7074 22.7326 89.6917 22.6343 89.6551 22.543C89.6185 22.4517 89.5618 22.3697 89.4894 22.3032C89.4169 22.2367 89.3304 22.1873 89.2363 22.1586ZM86.6675 22.6224C86.5847 22.5988 86.4977 22.5944 86.413 22.6093L78.7705 23.8623C78.5864 23.9016 78.4218 24.0038 78.305 24.1514C78.1882 24.2991 78.1266 24.4828 78.1307 24.671C78.1273 24.7567 78.1427 24.8421 78.1759 24.9212C78.2091 25.0003 78.2593 25.0712 78.3228 25.1288C78.3864 25.1864 78.4618 25.2294 78.5437 25.2547C78.6257 25.28 78.7122 25.2871 78.7972 25.2753L86.4308 24.0223C86.6157 23.9799 86.7806 23.8759 86.8985 23.7273C87.0164 23.5787 87.0802 23.3944 87.0795 23.2047C87.0848 23.1188 87.0706 23.0329 87.0379 22.9533C87.0052 22.8737 86.9549 22.8026 86.8907 22.7453C86.8266 22.6879 86.7502 22.6459 86.6675 22.6224Z" fill="white"/>
<path d="M103.866 17.277C107.776 16.6639 110.975 19.5876 111.073 23.8176L112.85 135.868C112.913 140.107 109.793 144.035 105.883 144.648L63.2278 151.402C59.3177 152.024 56.1186 149.1 56.0297 144.87L54.2524 32.8108C54.1902 28.5808 57.3005 24.6529 61.2106 24.0308L103.866 17.277ZM110.54 135.833L108.763 24.5907C108.758 23.8705 108.613 23.1581 108.336 22.4935C108.089 21.864 107.707 21.2967 107.216 20.8317C106.729 20.387 106.145 20.0615 105.51 19.8808C104.86 19.6957 104.177 19.6563 103.511 19.7653L97.8588 20.6539C97.7585 20.6729 97.6624 20.709 97.5744 20.7606C97.4803 20.8177 97.3987 20.8933 97.3344 20.9827C97.2641 21.0702 97.2099 21.1695 97.1745 21.276C97.1423 21.3825 97.1273 21.4935 97.1301 21.6048V22.0758C97.0605 22.9746 96.7055 23.8278 96.117 24.5107C95.574 25.1628 94.8191 25.6031 93.9842 25.7548L71.3235 29.3095C70.9389 29.3917 70.5412 29.3915 70.1567 29.3087C69.7723 29.226 69.4097 29.0627 69.0929 28.8296C68.7793 28.5642 68.5218 28.2389 68.3356 27.8726C68.1494 27.5064 68.0383 27.1066 68.0088 26.6968C67.9999 26.5459 67.9999 26.3945 68.0088 26.2436C68.0108 26.1346 67.9927 26.0261 67.9555 25.9237C67.918 25.8342 67.8637 25.7527 67.7955 25.6837C67.7224 25.6161 67.634 25.5673 67.5378 25.5415L61.6016 26.4302C60.1477 26.6797 58.839 27.4623 57.9314 28.6252C56.9689 29.827 56.451 31.3244 56.4651 32.8641L58.198 144.097C58.2004 144.82 58.3453 145.536 58.6246 146.203C58.8821 146.849 59.2762 147.431 59.7798 147.91C60.2783 148.33 60.8642 148.633 61.4949 148.798C62.1478 148.983 62.8335 149.023 63.5033 148.914L105.421 142.275C106.125 142.162 106.799 141.908 107.403 141.529C108.044 141.138 108.609 140.635 109.074 140.045C109.559 139.443 109.935 138.76 110.184 138.028C110.433 137.314 110.554 136.562 110.54 135.806V135.833ZM78.7704 23.8531C78.5863 23.8924 78.4217 23.9946 78.3049 24.1422C78.1881 24.2898 78.1264 24.4736 78.1306 24.6618C78.1272 24.7475 78.1426 24.8329 78.1758 24.912C78.209 24.9911 78.2591 25.062 78.3227 25.1196C78.3862 25.1772 78.4616 25.2202 78.5436 25.2455C78.6256 25.2708 78.7121 25.2778 78.7971 25.2661L86.4306 24.0575C86.6155 24.0151 86.7805 23.9111 86.8984 23.7625C87.0163 23.6139 87.0801 23.4296 87.0794 23.2399C87.0906 23.1512 87.0808 23.0611 87.0507 22.977C87.0206 22.8928 86.971 22.8169 86.9061 22.7554C86.8412 22.694 86.7627 22.6487 86.677 22.6232C86.5913 22.5978 86.5008 22.5929 86.4129 22.609L78.7704 23.8531ZM88.9455 22.138C88.7385 22.1758 88.5516 22.2859 88.4182 22.4487C88.2848 22.6114 88.2134 22.8162 88.2168 23.0267C88.2104 23.1248 88.2261 23.2232 88.2627 23.3145C88.2993 23.4058 88.3559 23.4877 88.4284 23.5542C88.5009 23.6208 88.5874 23.6702 88.6815 23.6988C88.7756 23.7275 88.8749 23.7346 88.9722 23.7198C89.1792 23.682 89.3661 23.5719 89.4995 23.4091C89.633 23.2464 89.7043 23.0416 89.7009 22.8311C89.7073 22.733 89.6917 22.6346 89.6551 22.5433C89.6184 22.452 89.5618 22.3701 89.4893 22.3036C89.4168 22.237 89.3303 22.1876 89.2362 22.159C89.1421 22.1303 89.0428 22.1232 88.9455 22.138Z" fill="#2D2D2D"/>
<path d="M108.381 22.4941C108.658 23.1587 108.803 23.8711 108.807 24.5913L110.584 135.833C110.598 136.589 110.478 137.341 110.229 138.055C109.98 138.787 109.604 139.47 109.118 140.072C108.654 140.662 108.088 141.165 107.447 141.556C106.843 141.935 106.17 142.189 105.466 142.303L63.5478 148.941C62.878 149.05 62.1923 149.011 61.5394 148.826C60.8907 148.659 60.2887 148.346 59.7799 147.91C59.2815 147.444 58.8877 146.878 58.6246 146.248C58.3454 145.581 58.2004 144.866 58.1981 144.142L56.4652 32.8558C56.4523 31.319 56.9703 29.8249 57.9315 28.6258C58.8293 27.4482 60.1354 26.6493 61.5927 26.3864L67.2357 25.4977C67.6267 25.4977 67.7067 25.5866 67.7867 25.6577C67.8549 25.7266 67.9092 25.8081 67.9466 25.8976C67.9839 26.0001 68.002 26.1085 68 26.2175C67.9911 26.3685 67.9911 26.5198 68 26.6707C68.0271 27.0858 68.1379 27.4911 68.3258 27.8622C68.5136 28.2333 68.7746 28.5626 69.093 28.8302C69.3959 29.0718 69.7465 29.2466 70.1217 29.3431C70.4969 29.4396 70.8884 29.4556 71.2702 29.39L93.931 25.8354C94.7887 25.693 95.5672 25.2486 96.1259 24.5824C96.7286 23.8803 97.0845 23 97.139 22.0764V21.6143C97.1449 21.5016 97.1689 21.3905 97.2101 21.2855C97.2455 21.179 97.2997 21.0797 97.3701 20.9922C97.4343 20.9028 97.5159 20.8272 97.61 20.7701C97.698 20.7185 97.7942 20.6824 97.8944 20.6634L103.546 19.7748C104.213 19.6658 104.896 19.7052 105.546 19.8903C106.167 20.0734 106.738 20.3955 107.216 20.8323C107.723 21.2927 108.121 21.8604 108.381 22.4941ZM103.582 25.8887C103.028 26.0115 102.534 26.3218 102.182 26.7671C101.831 27.2124 101.644 27.7654 101.653 28.3325C101.651 28.5859 101.704 28.8367 101.806 29.0682C101.909 29.2997 102.061 29.5065 102.25 29.6749C102.439 29.8432 102.662 29.9691 102.904 30.0441C103.146 30.1191 103.402 30.1415 103.653 30.1098C104.209 29.9938 104.707 29.6869 105.061 29.2422C105.415 28.7975 105.602 28.2431 105.59 27.6749C105.599 27.4179 105.551 27.1621 105.451 26.9252C105.351 26.6882 105.201 26.4758 105.011 26.3026C104.821 26.1294 104.595 25.9996 104.35 25.922C104.105 25.8444 103.846 25.8209 103.591 25.8532" fill="#72D5FD"/>
<path d="M105.723 115.424C105.914 115.395 106.109 115.408 106.293 115.464C106.478 115.519 106.648 115.615 106.791 115.745C106.934 115.874 107.046 116.034 107.12 116.212C107.193 116.39 107.226 116.582 107.216 116.775C107.222 117.2 107.081 117.614 106.817 117.948C106.554 118.281 106.183 118.514 105.768 118.606L62.4723 125.457C62.2809 125.487 62.0854 125.473 61.9 125.417C61.7146 125.361 61.5441 125.265 61.4009 125.134C61.2577 125.004 61.1456 124.843 61.0726 124.664C60.9997 124.484 60.9678 124.291 60.9794 124.098C60.9754 123.674 61.1172 123.262 61.3809 122.93C61.6446 122.598 62.0142 122.367 62.4279 122.276L105.723 115.424Z" fill="#0579A7"/>
<path d="M103.866 17.2772L100.596 15.5799C101.351 15.4561 102.122 15.4712 102.871 15.6243L106.141 17.3306C105.392 17.1745 104.621 17.1564 103.866 17.2772Z" fill="#222222"/>
<path d="M106.141 17.331L102.871 15.6248C103.294 15.7109 103.705 15.8451 104.097 16.0247L107.368 17.7309C106.975 17.5513 106.564 17.4171 106.141 17.331Z" fill="#212121"/>
<path d="M107.368 17.7304L104.097 16.0242L104.408 16.1664L107.679 17.8726L107.368 17.7304Z" fill="#202020"/>
<path d="M61.2284 24.0403L57.9581 22.3341L100.596 15.5803L103.866 17.2865L61.2284 24.0403Z" fill="#242424"/>
<path d="M56.0209 144.879L52.7507 143.173L51 31.1133L54.2703 32.8195L56.0209 144.879Z" fill="#1A1A1A"/>
<path d="M54.2702 32.82L51 31.1138C50.9845 30.0509 51.1621 28.994 51.5243 27.9946L54.8034 29.7186C54.4384 30.7175 54.2578 31.7744 54.2702 32.8378" fill="#1B1B1B"/>
<path d="M54.8034 29.7182L51.5243 27.9942C51.6759 27.5789 51.8571 27.1751 52.0664 26.7856L55.3366 28.4919C55.1257 28.8854 54.9474 29.2956 54.8034 29.7182Z" fill="#1C1C1C"/>
<path d="M55.3367 28.4919L52.0664 26.7857C52.2409 26.4534 52.4368 26.1328 52.6529 25.8259L55.9232 27.5321C55.707 27.839 55.5111 28.1596 55.3367 28.4919Z" fill="#1D1D1D"/>
<path d="M55.9231 27.5317L52.6528 25.8255C52.852 25.537 53.0686 25.261 53.3016 24.999L56.5718 26.7052C56.3389 26.9672 56.1223 27.2432 55.9231 27.5317Z" fill="#1E1E1E"/>
<path d="M56.5719 26.706L53.3016 24.9997C53.5346 24.7327 53.7839 24.4805 54.0481 24.2444L57.3184 25.9506C57.0541 26.1867 56.8048 26.439 56.5719 26.706Z" fill="#1F1F1F"/>
<path d="M57.3182 25.9504L54.048 24.2442C54.3282 23.9933 54.6251 23.7618 54.9366 23.551L58.2158 25.275C57.9043 25.4858 57.6074 25.7173 57.3271 25.9682" fill="#202020"/>
<path d="M58.2158 25.2748L54.9456 23.5508C55.335 23.2771 55.752 23.0448 56.1897 22.8577L59.4599 24.5639C59.0231 24.7527 58.6063 24.9849 58.2158 25.257" fill="#212121"/>
<path d="M59.46 24.564L56.1897 22.8578C56.7572 22.6076 57.3545 22.4313 57.967 22.3335L61.2373 24.0397C60.6248 24.1376 60.0275 24.3138 59.46 24.564Z" fill="#222222"/>
<path fill-rule="evenodd" clip-rule="evenodd" d="M75.1877 64.6261C75.3164 65.7267 75.8683 66.7341 76.7265 67.435C77.1455 67.7637 77.6281 68.0021 78.1437 68.1352C78.6594 68.2684 79.197 68.2933 79.7227 68.2085C80.8748 67.9983 81.9204 67.4008 82.6864 66.515C83.4929 65.6051 83.9965 64.467 84.1275 63.2583C84.111 62.6516 83.9754 62.054 83.7285 61.4996C83.4948 60.9784 83.1502 60.5144 82.719 60.1399C82.2904 59.7807 81.7869 59.5219 81.2453 59.3827C80.7363 59.2587 80.2078 59.2366 79.6902 59.3176H79.5518H79.4785C78.2919 59.5277 77.2232 60.1649 76.4741 61.1088C75.6613 62.1028 75.208 63.3422 75.1877 64.6261ZM100.768 85.8196C100.71 85.803 100.65 85.7994 100.591 85.8093L69.0816 90.8003C68.9538 90.8283 68.8396 90.8994 68.758 91.0017C68.6765 91.104 68.6326 91.2313 68.6338 91.3621V93.308C68.6308 93.3679 68.6411 93.4278 68.664 93.4833C68.6868 93.5388 68.7217 93.5886 68.766 93.6291C68.8104 93.6695 68.8631 93.6997 68.9205 93.7174C68.9779 93.7351 69.0385 93.7398 69.0979 93.7313L100.607 88.7404C100.737 88.7135 100.853 88.6416 100.935 88.5373C101.017 88.433 101.059 88.303 101.055 88.1704V86.2245C101.058 86.1648 101.048 86.1052 101.025 86.0499C101.002 85.9947 100.967 85.9454 100.922 85.9055C100.878 85.8656 100.825 85.8363 100.768 85.8196ZM89.868 93.2609C89.9264 93.2524 89.9859 93.257 90.0423 93.2742C90.0987 93.2915 90.1506 93.321 90.1942 93.3607C90.2378 93.4005 90.2721 93.4493 90.2945 93.5039C90.3169 93.5584 90.327 93.6173 90.324 93.6762V95.6221C90.3252 95.7529 90.2813 95.8801 90.1998 95.9824C90.1182 96.0847 90.004 96.1558 89.8762 96.1839L69.1551 99.4406C69.0961 99.4505 69.0357 99.4469 68.9782 99.4303C68.9208 99.4137 68.8679 99.3843 68.8233 99.3444C68.7788 99.3046 68.7437 99.2552 68.7208 99.2C68.6979 99.1448 68.6877 99.0851 68.691 99.0254V97.0713C68.6917 96.9419 68.7364 96.8166 68.8178 96.716C68.8992 96.6153 69.0124 96.5454 69.1388 96.5177L89.868 93.2609ZM68.5276 85.9014C68.5361 86.0587 68.5807 86.2119 68.6579 86.3492C68.7398 86.476 68.8554 86.5774 68.9917 86.6423C69.1292 86.7052 69.2824 86.7251 69.4314 86.6993L100.077 81.8142H99.996C100.148 81.7862 100.29 81.722 100.411 81.6269C100.542 81.5288 100.65 81.4039 100.729 81.2605C100.802 81.1152 100.849 80.9581 100.867 80.7964C100.877 80.6409 100.852 80.4852 100.794 80.3405L93.5802 63.503C93.3479 63.0651 92.9831 62.7118 92.5381 62.4934C92.088 62.2763 91.5822 62.2024 91.0888 62.2818C90.5607 62.3743 90.0664 62.6046 89.6558 62.9494C89.2151 63.3071 88.8662 63.7649 88.6381 64.2847L83.3377 76.9535C83.1937 77.2898 82.9735 77.588 82.6945 77.8246C82.4118 78.062 82.0723 78.2219 81.7093 78.2887C81.4128 78.335 81.1092 78.3013 80.83 78.191C80.5384 78.0668 80.2894 77.8603 80.1135 77.5967L78.3793 74.8366C78.0434 74.3282 77.5687 73.927 77.0115 73.6804C76.4397 73.4453 75.8137 73.3748 75.204 73.4769C74.5493 73.5977 73.9343 73.8773 73.4128 74.2911C72.86 74.7162 72.4047 75.2548 72.0775 75.8706L68.609 85.4047C68.5465 85.5625 68.5187 85.7319 68.5276 85.9014Z" fill="white"/>
</g>
<g clip-path="url(#clip1)">
<path d="M120.862 144.452V142.1C120.867 142.165 120.867 142.23 120.862 142.295C120.871 142.405 120.871 142.516 120.862 142.626C120.85 142.698 120.833 142.769 120.811 142.839C120.791 142.93 120.766 143.021 120.735 143.11C120.709 143.186 120.678 143.26 120.642 143.331C120.642 143.416 120.574 143.509 120.531 143.594L120.404 143.806C120.353 143.891 120.302 143.976 120.243 144.061C120.183 144.146 120.141 144.205 120.081 144.273L119.878 144.528L119.691 144.732L119.411 145.004L119.198 145.182C119.077 145.293 118.949 145.398 118.816 145.496L118.604 145.649C118.366 145.819 118.129 145.98 117.857 146.141H117.797C117.475 146.337 117.127 146.515 116.753 146.693L116.549 146.787C116.244 146.931 115.93 147.067 115.59 147.194H115.463C115.157 147.313 114.851 147.423 114.529 147.525L114.181 147.636L113.332 147.873L112.975 147.967C112.567 148.069 112.126 148.17 111.727 148.255C111.031 148.4 110.317 148.51 109.596 148.603C109.409 148.603 109.222 148.663 109.035 148.68C108.701 148.719 108.37 148.753 108.042 148.782L107.337 148.841L106.684 148.884H105.835H103.805L102.447 148.935L101.122 148.824L100.715 148.782L99.7555 148.654L99.3395 148.595C98.9914 148.544 98.6518 148.485 98.3121 148.417L98.032 148.374L96.7584 148.086L96.232 147.941C95.9858 147.873 95.7311 147.814 95.4934 147.737C95.0264 147.593 94.5849 147.44 94.1604 147.279L93.5406 147.024L93.0227 146.812L92.4284 146.515C92.2925 146.438 92.1567 146.379 92.0293 146.303C91.8313 146.199 91.6386 146.086 91.452 145.963C91.3501 145.904 91.2482 145.844 91.1548 145.776C90.8885 145.59 90.8031 145.33 90.5605 145.115C90.1159 144.767 89.9749 144.34 89.7115 143.841C89.4481 143.342 88.8985 142.841 88.8624 142.278V144.579C88.8997 145.14 89.0561 145.687 89.321 146.184C89.586 146.68 89.9535 147.114 90.3992 147.457C90.6384 147.674 90.8908 147.875 91.1548 148.06L91.452 148.255C91.6388 148.374 91.8255 148.502 92.0378 148.62L92.4368 148.824L93.0227 149.13L93.4981 149.325L94.0415 149.563H94.1094C94.534 149.733 94.9585 149.885 95.4424 150.021L96.1471 150.217L96.6735 150.361L97.8537 150.624H97.9131L98.1763 150.675L98.9829 150.819H99.2206L99.6366 150.879L100.104 150.947L100.596 150.998H100.995H101.224L102.328 151.083L103.491 151.142H105.121H105.656H106.004H106.539H107.193H107.448L107.889 151.1L108.993 151.057H109.307L109.562 151.015C110.275 150.913 110.988 150.802 111.684 150.658C112.12 150.573 112.536 150.48 112.932 150.378L113.289 150.276L114.138 150.038L114.486 149.928C114.809 149.826 115.123 149.716 115.429 149.605L115.547 149.554C115.887 149.427 116.201 149.291 116.515 149.155H116.6L116.719 149.096C117.084 148.918 117.441 148.739 117.763 148.552C118.024 148.394 118.27 148.233 118.502 148.069L118.579 148.018L118.714 147.907L119.105 147.602C119.141 147.573 119.175 147.541 119.207 147.508C119.245 147.482 119.279 147.45 119.309 147.415C119.411 147.321 119.504 147.236 119.589 147.143C119.674 147.05 119.674 147.067 119.708 147.024L119.776 146.939L119.988 146.685L120.098 146.549C120.101 146.523 120.101 146.498 120.098 146.472C120.157 146.394 120.211 146.311 120.26 146.226L120.361 146.073V146.005C120.361 145.92 120.446 145.836 120.48 145.751L120.557 145.581C120.553 145.564 120.553 145.547 120.557 145.53L120.633 145.25C120.633 145.199 120.633 145.139 120.676 145.088C120.67 145.075 120.67 145.06 120.676 145.046C120.676 144.936 120.676 144.825 120.676 144.715C120.676 144.604 120.862 144.503 120.862 144.452Z" fill="#FEC332"/>
<path d="M119.326 139.221C123.087 142.617 119.665 146.684 111.684 148.323C103.704 149.961 94.152 148.509 90.3908 145.156C86.6296 141.802 90.0511 137.693 98.032 136.054C106.013 134.415 115.565 135.833 119.326 139.221Z" fill="#FEC332"/>
<path d="M104.892 149.443C113.679 149.443 120.803 146.193 120.803 142.184C120.803 138.175 113.679 134.925 104.892 134.925C96.1046 134.925 88.9811 138.175 88.9811 142.184C88.9811 146.193 96.1046 149.443 104.892 149.443Z" fill="url(#paint0_linear)"/>
<path d="M89.2782 142.294C89.2782 138.32 96.4016 135.035 105.189 135.043C108.772 134.997 112.333 135.613 115.692 136.86C112.254 135.521 108.589 134.864 104.9 134.924C96.1129 134.924 88.9811 138.159 88.9811 142.175C88.9811 144.348 91.0697 146.293 94.3809 147.66C91.2395 146.301 89.2697 144.399 89.2782 142.294Z" fill="#FFFCC8"/>
<path d="M104.892 148.236C112.217 148.236 118.154 145.526 118.154 142.182C118.154 138.839 112.217 136.129 104.892 136.129C97.568 136.129 91.6305 138.839 91.6305 142.182C91.6305 145.526 97.568 148.236 104.892 148.236Z" fill="#E99C16"/>
<path d="M91.8173 142.245C91.8173 138.9 97.7605 136.2 105.079 136.208C107.895 136.174 110.695 136.625 113.357 137.541C110.633 136.572 107.758 136.097 104.867 136.14C97.5737 136.132 91.6305 138.832 91.6305 142.177C91.6305 144.087 93.5748 145.794 96.6058 146.906C93.6767 145.794 91.8173 144.121 91.8173 142.245Z" fill="#DF7F13"/>
<path opacity="0.5" d="M104.892 136.138C97.5737 136.129 91.6305 138.829 91.6305 142.175C91.6305 143.873 93.1163 145.358 95.5106 146.42L114.266 137.912C111.298 136.678 108.106 136.074 104.892 136.138Z" fill="url(#paint1_linear)"/>
<path d="M105.843 144.993V146.216H104.221V145.01C102.71 145.01 100.995 144.908 100.121 144.798V143.414C100.97 143.507 102.736 143.617 104.221 143.634V142.565C100.825 142.301 100.044 141.818 100.044 140.697C100.044 139.381 101.666 138.999 104.23 138.939V138.158H105.843V138.965C107.083 138.965 108.339 139.084 108.993 139.169V140.502C108.458 140.425 107.1 140.315 105.835 140.289V141.342C109.409 141.622 109.978 142.191 109.978 143.21C109.978 144.229 108.883 144.891 105.843 144.993ZM104.221 141.206V140.298C103.432 140.298 103.262 140.459 103.262 140.722C103.262 140.985 103.44 141.104 104.221 141.206ZM106.692 143.184C106.692 142.964 106.556 142.845 105.843 142.743V143.592C106.556 143.55 106.692 143.414 106.692 143.184Z" fill="#DF7F13"/>
<path d="M105.707 144.927V146.15H104.145V144.944C102.642 144.944 100.919 144.834 100.044 144.732V143.323C100.893 143.416 102.659 143.518 104.145 143.543V142.567C100.672 142.253 99.8998 141.777 99.8998 140.648C99.8998 139.332 101.598 138.95 104.145 138.899V138.05H105.75V138.899C106.802 138.913 107.854 138.981 108.9 139.103V140.436C107.854 140.31 106.803 140.239 105.75 140.224V141.276C109.316 141.548 109.884 142.083 109.884 143.144C109.884 144.206 108.764 144.825 105.707 144.927ZM104.145 141.132V140.232C103.364 140.232 103.186 140.393 103.186 140.657C103.186 140.92 103.296 141.039 104.145 141.132ZM106.624 143.119C106.624 142.898 106.488 142.779 105.775 142.669V143.518C106.437 143.484 106.59 143.356 106.59 143.119H106.624Z" fill="#FFF285"/>
<path d="M105.843 141.282C106.863 141.322 107.874 141.482 108.857 141.757C107.877 141.469 106.864 141.31 105.843 141.282Z" fill="#FFFCC8"/>
<path d="M106.59 143.118C106.59 143.347 106.446 143.466 105.826 143.517V143.568C106.556 143.568 106.675 143.398 106.675 143.16C106.675 142.922 106.607 142.905 106.327 142.821C106.539 142.897 106.59 142.99 106.59 143.118Z" fill="#FFFCC8"/>
<path d="M104.23 140.273H104.145V141.122C103.941 141.101 103.74 141.064 103.542 141.012C103.771 141.096 104.011 141.148 104.255 141.164L104.23 140.273Z" fill="#FFFCC8"/>
<path d="M101.054 142.039C100.753 141.971 100.486 141.798 100.3 141.551C100.115 141.303 100.024 140.998 100.044 140.689C100.044 139.373 101.666 138.991 104.23 138.94V138.091H105.716H104.145V138.94C101.598 138.949 99.8998 139.331 99.8998 140.647C99.8998 141.301 100.18 141.717 101.054 142.039Z" fill="#FFFCC8"/>
<path d="M104.221 144.984H104.145V146.147H104.264L104.221 144.984Z" fill="#FFFCC8"/>
<path d="M100.121 143.364C100.97 143.457 102.736 143.559 104.221 143.585V142.566H104.145V143.559C102.659 143.559 100.868 143.432 100.044 143.339V144.748H100.163L100.121 143.364Z" fill="#FFFCC8"/>
<path d="M105.843 138.939C107.015 138.939 108.195 139.041 108.874 139.126C108.246 139.041 107.04 138.956 105.843 138.922V138.939Z" fill="#FFFCC8"/>
</g>
<g clip-path="url(#clip2)">
<path d="M140.392 140.405C140.392 140.533 140.296 140.661 140.248 140.78C140.226 140.855 140.196 140.927 140.16 140.996C140.104 141.115 140.04 141.227 139.977 141.347L139.881 141.514C139.776 141.682 139.658 141.842 139.53 141.993L139.434 142.089C139.33 142.209 139.234 142.321 139.123 142.432L138.939 142.592L138.644 142.855C138.573 142.913 138.498 142.966 138.42 143.015C138.321 143.096 138.217 143.17 138.109 143.238L137.798 143.43C137.702 143.494 137.598 143.55 137.495 143.605L137.143 143.781L136.824 143.933C136.545 144.056 136.26 144.165 135.97 144.26H135.93C135.643 144.356 135.34 144.443 135.028 144.515L134.757 144.579C134.462 144.643 134.167 144.707 133.863 144.755L133.576 144.803C133.185 144.858 132.778 144.898 132.379 144.93H132.147C131.796 144.93 131.437 144.93 131.07 144.97H130.711C130.264 144.97 129.809 144.97 129.338 144.914C128.867 144.858 128.42 144.827 127.965 144.771L127.518 144.699C127.215 144.656 126.912 144.608 126.609 144.555L126.026 144.483L125.228 144.308L124.621 144.156L123.975 143.973C123.352 143.789 122.738 143.589 122.147 143.374L121.98 143.302C121.477 143.111 120.982 142.911 120.503 142.688L120.04 142.48C119.633 142.281 119.242 142.073 118.835 141.866L118.492 141.682C117.981 141.395 117.487 141.091 117.016 140.772C116.8 140.629 116.593 140.485 116.393 140.333L116.066 140.102C115.755 139.87 115.459 139.631 115.18 139.392C114.901 139.144 114.645 138.897 114.382 138.649L114.222 138.49C113.983 138.242 113.752 137.995 113.544 137.74L113.44 137.62C113.249 137.38 113.073 137.149 112.906 136.91C112.874 136.866 112.844 136.821 112.818 136.774C112.644 136.516 112.485 136.25 112.339 135.976L112.251 135.8C112.115 135.529 111.988 135.249 111.884 135.002C111.537 134.162 111.4 133.25 111.485 132.344C111.516 132.074 111.572 131.807 111.653 131.546H111.661L111.062 133.478C110.744 134.592 110.808 135.781 111.246 136.854C111.349 137.133 111.477 137.404 111.613 137.652L111.708 137.827C111.848 138.103 112.006 138.37 112.179 138.625C112.179 138.673 112.243 138.713 112.267 138.761C112.435 139 112.61 139.232 112.802 139.471L112.906 139.591C113.113 139.846 113.344 140.094 113.584 140.341L113.744 140.501C113.999 140.748 114.254 140.996 114.542 141.235L114.59 141.275C114.869 141.514 115.164 141.754 115.467 141.985L115.795 142.217C115.962 142.336 116.122 142.464 116.297 142.584L116.417 142.656C116.888 142.967 117.383 143.278 117.894 143.566L117.981 143.613L118.237 143.749C118.628 143.957 119.035 144.164 119.442 144.356L119.689 144.483L119.905 144.571C120.392 144.787 120.878 144.994 121.381 145.186L121.517 145.242C122.115 145.457 122.722 145.657 123.344 145.84L123.56 145.904C123.702 145.949 123.845 145.986 123.991 146.016L124.597 146.175L125.396 146.351L126.002 146.479L126.226 146.518L126.912 146.622L127.359 146.694C127.814 146.75 128.277 146.798 128.732 146.838C129.186 146.878 129.657 146.886 130.104 146.894H130.463C130.831 146.894 131.19 146.894 131.541 146.894H131.772C132.187 146.894 132.57 146.822 132.969 146.766L133.257 146.718L134.151 146.542H134.326H134.43C134.733 146.463 135.036 146.383 135.324 146.287C135.614 146.192 135.899 146.083 136.178 145.96H136.258L136.497 145.84L136.848 145.665C136.952 145.609 137.056 145.553 137.151 145.489L137.471 145.297L137.55 145.242C137.63 145.194 137.702 145.13 137.782 145.074L137.997 144.914L138.293 144.651L138.476 144.491C138.476 144.491 138.668 144.284 138.756 144.188L138.859 144.068C138.979 143.917 139.091 143.765 139.194 143.605L139.29 143.43C139.354 143.318 139.426 143.206 139.482 143.087C139.538 142.967 139.538 142.935 139.57 142.863C139.601 142.791 139.649 142.672 139.681 142.576V142.496L140.392 140.405Z" fill="#FEC332"/>
<path d="M140.208 137.029C142.036 141.985 137.167 145.529 129.338 144.954C121.509 144.379 113.664 139.894 111.836 134.946C110.009 129.998 114.853 126.446 122.714 127.021C130.575 127.596 138.38 132.081 140.208 137.029Z" fill="#057EAE"/>
<path d="M140.534 140.29C141.858 135.906 136.459 130.397 128.474 127.985C120.489 125.573 112.943 127.171 111.619 131.555C110.295 135.939 115.694 141.448 123.679 143.86C131.663 146.272 139.21 144.673 140.534 140.29Z" fill="url(#paint2_linear)"/>
<path d="M122.913 143.485C115.068 140.764 110.248 135.169 112.139 130.987C113.001 129.064 115.132 127.795 117.941 127.204C114.988 127.723 112.738 129.056 111.836 131.043C109.945 135.233 114.765 140.827 122.618 143.541C126.396 144.936 130.473 145.321 134.446 144.658C130.564 145.238 126.599 144.834 122.913 143.485Z" fill="#FFFCC8"/>
<path d="M138.06 139.596C139.161 135.955 134.674 131.376 128.038 129.369C121.401 127.361 115.129 128.685 114.027 132.326C112.926 135.967 117.413 140.546 124.049 142.553C130.686 144.561 136.958 143.237 138.06 139.596Z" fill="#E99C16"/>
<path d="M123.36 142.24C116.816 139.973 112.802 135.313 114.374 131.817C115.052 130.325 116.649 129.319 118.755 128.776C116.561 129.319 114.901 130.333 114.206 131.865C112.61 135.353 116.649 140.013 123.185 142.24C126.482 143.457 130.051 143.733 133.496 143.038C130.107 143.69 126.605 143.414 123.36 142.24Z" fill="#DF7F13"/>
<path opacity="0.5" d="M114.206 131.865C112.61 135.353 116.649 140.013 123.185 142.24C126.131 143.328 129.293 143.7 132.411 143.325L119.689 128.601C117.032 129 114.997 130.117 114.206 131.865Z" fill="url(#paint3_linear)"/>
<path d="M131.74 137.42L134.135 138.218L133.791 139.016L131.437 138.218C131.107 138.888 130.67 139.5 130.144 140.029L127.375 139.056C127.904 138.524 128.345 137.913 128.684 137.244L126.688 136.558C125.443 138.01 124.342 138.042 122.139 137.284C119.57 136.39 119.17 135.361 119.601 134.092L118.045 133.549L118.388 132.751L119.985 133.301C120.26 132.789 120.622 132.327 121.054 131.937L123.632 132.871C123.192 133.255 122.825 133.714 122.546 134.227L124.605 134.946C125.906 133.429 127.072 133.517 129.147 134.235C131.341 134.993 132.195 135.895 131.74 137.42ZM123.983 135.616L122.211 135.001C122.123 135.4 122.323 135.568 122.842 135.744C123.36 135.919 123.632 135.919 123.983 135.616ZM128.388 135.776C128.22 135.687 128.03 135.65 127.841 135.67C127.652 135.69 127.473 135.765 127.327 135.887L128.995 136.47C129.067 136.095 128.859 135.935 128.42 135.776H128.388Z" fill="#DF7F13"/>
<path d="M131.613 137.428L134.007 138.226L133.656 139.024L131.309 138.226C130.98 138.898 130.54 139.51 130.008 140.038L127.247 139.088C127.774 138.553 128.218 137.943 128.564 137.276L126.569 136.582C125.316 138.042 124.214 138.074 122.02 137.316C119.442 136.422 119.043 135.393 119.474 134.124L117.878 133.573L118.229 132.775L119.825 133.326C120.103 132.812 120.468 132.351 120.902 131.961L123.504 132.863C123.069 133.251 122.702 133.71 122.419 134.22L124.486 134.938C125.779 133.421 126.944 133.509 129.027 134.227C131.11 134.946 132.028 135.903 131.613 137.428ZM123.815 135.624L122.036 135.01C121.948 135.409 122.155 135.576 122.666 135.752C123.177 135.927 123.456 135.927 123.815 135.624ZM128.221 135.784C128.053 135.695 127.862 135.658 127.673 135.678C127.484 135.698 127.305 135.774 127.159 135.895L128.835 136.478C128.907 136.103 128.7 135.943 128.221 135.784Z" fill="#FFF285"/>
<path d="M124.478 134.906H124.542C124.944 134.376 125.502 133.985 126.138 133.788C125.475 133.965 124.891 134.358 124.478 134.906Z" fill="#FFFCC8"/>
<path d="M128.221 135.784C128.668 135.936 128.875 136.087 128.843 136.414H128.939C129.011 136.039 128.803 135.888 128.332 135.72C128.103 135.64 127.855 135.634 127.622 135.704C127.825 135.681 128.031 135.708 128.221 135.784Z" fill="#FFFCC8"/>
<path d="M122.147 134.978C122.152 134.999 122.152 135.02 122.147 135.041L123.823 135.624C123.723 135.714 123.607 135.785 123.48 135.831C123.652 135.799 123.811 135.715 123.935 135.592L122.147 134.978Z" fill="#FFFCC8"/>
<path d="M124.933 137.691C123.965 137.822 122.98 137.687 122.083 137.3C119.514 136.414 119.115 135.377 119.546 134.108L117.949 133.565L118.269 132.855H118.189L117.838 133.653L119.434 134.203C119.003 135.464 119.434 136.494 121.98 137.396C122.913 137.785 123.941 137.888 124.933 137.691Z" fill="#FFFCC8"/>
<path d="M131.373 138.178V138.234L133.64 139.032V138.976L131.373 138.178Z" fill="#FFFCC8"/>
<path d="M127.319 139.032C127.846 138.502 128.288 137.894 128.628 137.228L126.633 136.502L126.593 136.55L128.524 137.22C128.178 137.887 127.734 138.497 127.207 139.032L129.969 139.982C129.987 139.985 130.006 139.985 130.024 139.982L127.319 139.032Z" fill="#FFFCC8"/>
<path d="M119.889 133.31C120.158 132.82 120.5 132.373 120.902 131.985H120.854C120.435 132.366 120.082 132.813 119.809 133.31H119.889Z" fill="#FFFCC8"/>
</g>
<path d="M85.5047 142.977C93.8984 142.977 100.703 135.999 100.703 127.391C100.703 118.783 93.8984 111.805 85.5047 111.805C77.111 111.805 70.3066 118.783 70.3066 127.391C70.3066 135.999 77.111 142.977 85.5047 142.977Z" fill="#FEC332"/>
<path d="M100.932 130.37C98.7553 138.823 90.2164 143.941 81.9093 141.613C73.6022 139.286 68.9709 130.474 71.4961 122.12C73.9718 113.966 82.3805 109.304 90.3336 111.532C98.2867 113.761 103.061 122.117 100.932 130.37Z" fill="url(#paint4_linear)"/>
<path d="M98.4792 129.691C96.6439 136.72 89.5369 140.945 82.6407 139.013C75.7446 137.082 71.8735 129.771 73.9561 122.815C75.9997 116 83.0156 112.085 89.667 113.949C96.3185 115.813 100.278 122.797 98.4792 129.691Z" fill="#E99C16"/>
<path d="M85.4478 132.361L84.7293 134.941L83.2272 134.519L83.9431 131.979C82.6631 131.599 81.4232 131.095 80.2412 130.474L81.0873 127.522C82.2648 128.144 83.4981 128.653 84.771 129.045L85.3671 126.923C82.3395 125.489 81.936 124.307 82.5998 121.995C83.3808 119.311 85.0807 118.949 87.4602 119.483L87.9209 117.84L89.3866 118.251L88.9284 119.894C89.8925 120.2 90.8224 120.605 91.7035 121.102L90.9538 123.83C90.0751 123.318 89.1438 122.902 88.1761 122.589L87.5695 124.747C90.7117 126.228 90.9408 127.475 90.3368 129.693C89.6938 132.049 88.3583 132.939 85.4478 132.361ZM86.1715 124.052L86.6922 122.193C85.9476 122.081 85.7186 122.284 85.5676 122.82C85.4166 123.356 85.5051 123.653 86.1715 124.052ZM87.3222 128.792C87.4497 128.339 87.3951 128.05 86.7651 127.639L86.2705 129.417C86.9681 129.516 87.1816 129.3 87.3222 128.792Z" fill="#DF7F13"/>
<path d="M85.3819 132.175L84.6608 134.755L83.1613 134.333L83.8746 131.792C82.5936 131.412 81.3536 130.905 80.1727 130.28L81.0214 127.33C82.198 127.952 83.4305 128.462 84.7025 128.853L85.2986 126.732C82.2736 125.3 81.8675 124.128 82.5313 121.809C83.3123 119.125 85.0149 118.763 87.3917 119.296L87.8551 117.654L89.3181 118.065L88.8599 119.708C89.8247 120.015 90.7548 120.423 91.6351 120.924L90.8853 123.649C90.007 123.134 89.0757 122.715 88.1076 122.4L87.5036 124.566C90.6432 126.044 90.8723 127.294 90.2683 129.512C89.6253 131.865 88.2898 132.753 85.3819 132.175ZM86.1056 123.87L86.6263 122.012C85.8792 121.9 85.6527 122.105 85.4991 122.639C85.3455 123.173 85.4392 123.472 86.1056 123.87ZM87.2537 128.608C87.3813 128.156 87.3266 127.867 86.6992 127.455L86.202 129.233C86.8997 129.332 87.1131 129.116 87.2537 128.608Z" fill="#FFF285"/>
<path d="M71.7019 122.448C74.175 114.284 82.5863 109.616 90.542 111.847C94.0614 112.835 97.1005 115.071 99.0912 118.137C97.1091 114.913 93.9849 112.555 90.3415 111.532C82.3884 109.304 73.9798 113.966 71.504 122.12C70.8498 124.251 70.6559 126.498 70.935 128.71C71.2142 130.922 71.9601 133.049 73.1233 134.952C72.0401 133.077 71.3548 130.999 71.1102 128.848C70.8657 126.697 71.0671 124.518 71.7019 122.448Z" fill="#FFFCC8"/>
<path d="M74.0863 122.995C76.1272 116.177 83.1457 112.249 89.7972 114.123C92.545 114.894 94.947 116.58 96.6048 118.903C94.944 116.488 92.4889 114.732 89.667 113.941C83.0156 112.077 75.9997 115.992 73.9561 122.808C73.3884 124.681 73.2477 126.658 73.5441 128.593C73.8405 130.528 74.5666 132.372 75.6691 133.989C74.617 132.384 73.9299 130.568 73.6564 128.668C73.3829 126.768 73.5297 124.832 74.0863 122.995Z" fill="#DF7F13"/>
<path d="M87.6055 124.624L87.5873 124.691C88.8525 125.287 89.6439 125.847 90.0995 126.446C89.6725 125.818 88.8915 125.241 87.6055 124.624Z" fill="#FFFCC8"/>
<path d="M87.2541 128.61C87.1213 129.089 86.9209 129.303 86.3169 129.245L86.2856 129.355C86.9859 129.454 87.1968 129.238 87.34 128.73C87.3925 128.601 87.4087 128.46 87.3866 128.322C87.3646 128.184 87.3053 128.055 87.215 127.949C87.2684 128.05 87.2995 128.161 87.3063 128.275C87.313 128.389 87.2952 128.504 87.2541 128.61Z" fill="#FFFCC8"/>
<path d="M86.713 122.142C86.6713 122.142 86.6375 122.142 86.5984 122.142L86.1064 123.896C85.9226 123.797 85.7564 123.667 85.6144 123.514C85.7623 123.725 85.9599 123.897 86.1897 124.014L86.713 122.142Z" fill="#FFFCC8"/>
<path d="M82.7554 124.953C82.2061 124.133 82.2348 123.201 82.6122 121.923C83.3932 119.239 85.0958 118.877 87.4726 119.411L87.936 117.771L89.2923 118.151L89.3157 118.065L87.8527 117.654L87.3893 119.296C85.0125 118.776 83.3021 119.125 82.5289 121.809C82.1489 123.144 82.1228 124.105 82.7554 124.953Z" fill="#FFFCC8"/>
<path d="M83.9584 131.912L83.8516 131.878L83.1617 134.333L83.2711 134.365L83.9584 131.912Z" fill="#FFFCC8"/>
<path d="M81.1047 127.453C82.2815 128.075 83.5139 128.584 84.7858 128.976L85.3819 126.854L85.2804 126.805L84.7025 128.856C83.4305 128.465 82.198 127.955 81.0214 127.333L80.1727 130.283L80.2743 130.343L81.1047 127.453Z" fill="#FFFCC8"/>
<path opacity="0.5" d="M89.6673 113.941C83.0159 112.077 76 115.992 73.9564 122.808C72.9537 126.122 73.2999 129.698 74.9196 132.758L97.2299 119.9C96.4233 118.458 95.3401 117.19 94.0424 116.167C92.7446 115.144 91.2579 114.388 89.6673 113.941Z" fill="url(#paint5_linear)"/>
<path d="M105.723 115.425C105.914 115.396 106.109 115.409 106.293 115.465C106.478 115.52 106.648 115.616 106.791 115.745C106.934 115.875 107.046 116.034 107.12 116.213C107.193 116.391 107.226 116.583 107.216 116.776C107.222 117.201 107.081 117.615 106.817 117.949C106.554 118.282 106.183 118.515 105.768 118.607L62.4723 125.458C62.2809 125.488 62.0854 125.474 61.9 125.418C61.7146 125.362 61.5441 125.266 61.4009 125.135C61.2577 125.005 61.1456 124.844 61.0726 124.665C60.9997 124.485 60.9678 124.292 60.9794 124.099C60.9754 123.675 61.1172 123.263 61.3809 122.931C61.6446 122.599 62.0142 122.368 62.4279 122.277L105.723 115.425Z" fill="url(#paint6_linear)"/>
<path fill-rule="evenodd" clip-rule="evenodd" d="M53.3977 123.282L53.5079 125.448C53.8618 125.409 54.2931 125.031 54.2639 124.349C54.2341 123.655 53.7564 123.296 53.3977 123.282ZM53.1156 122.3C53.1836 122.29 53.2529 122.285 53.3233 122.283C54.3456 122.262 55.2143 123.177 55.2637 124.328C55.3121 125.457 54.5533 126.393 53.5588 126.448L53.5593 126.457L52.4997 126.5L52.4831 126.138C51.9578 125.778 51.5931 125.139 51.5616 124.406C51.5304 123.677 51.8355 123.028 52.3232 122.645L52.3092 122.34L53.1156 122.3Z" fill="url(#paint7_linear)"/>
<path d="M53.8601 124.384C53.9008 125.316 53.2701 125.981 52.5782 125.995C51.8862 126.01 51.1986 125.372 51.1578 124.439C51.1171 123.507 51.7478 122.842 52.4397 122.827C53.1317 122.813 53.8193 123.451 53.8601 124.384Z" stroke="url(#paint8_linear)"/>
<path d="M43.3041 136.124C41.9852 134.836 41.8651 137.201 43.3041 137.044C51.7229 136.124 50.2647 133.84 50.2647 130.364C50.2647 127.754 49.3769 124.374 52.6322 124.374" stroke="#05B42C" stroke-width="1.5" stroke-linecap="round"/>
<path d="M63.0114 122.141L106.136 115.306L106.136 97.6246L61.7803 103.464L63.0114 122.141Z" fill="#72D5FD"/>
<g clip-path="url(#clip3)">
<path d="M50.8967 141.952C51.8297 142.801 50.9802 143.804 49.0029 144.222L19.4955 150.251C17.702 150.693 15.8068 150.413 14.2178 149.472L0.292673 136.939C-0.556762 136.131 0.292673 135.115 2.27004 134.711L31.7357 128.667C33.529 128.224 35.4248 128.504 37.0133 129.447L50.8967 141.952Z" fill="url(#paint9_linear)"/>
<path d="M51.2769 142.697C51.2769 143.341 50.1074 143.829 49.6014 143.971C49.0954 144.114 49.2115 144.083 49.0026 144.138L19.4952 150.252C19.2608 150.302 19.0237 150.34 18.785 150.363H18.6736H18.0052H17.9356C17.6944 150.377 17.4527 150.377 17.2115 150.363L16.5152 150.293C16.2945 150.266 16.0758 150.225 15.8608 150.168L15.2898 149.987L14.9278 149.82L14.7607 149.736C14.6164 149.658 14.4811 149.565 14.3568 149.458L0.43168 136.925C0.316764 136.85 0.218918 136.752 0.144533 136.637C0.0701487 136.522 0.0208986 136.392 0 136.257L0 146.339C0.0103038 146.477 0.0490247 146.611 0.113729 146.733C0.178433 146.855 0.26772 146.963 0.375979 147.049L14.3011 159.581C14.6253 159.895 15.0771 160.068 15.4987 160.208C16.982 160.597 18.9661 160.278 18.9661 160.278L19.5509 160.18L49.0165 154.137L49.6153 153.984L50.7433 153.649C50.8549 153.506 50.8169 153.446 50.8407 153.19C50.8407 153.19 51.2769 142.053 51.2769 142.697Z" fill="url(#paint10_linear)"/>
<path d="M23.8326 156.472L23.8325 152.079L45.5319 147.777V152.079L23.8326 156.472Z" fill="url(#paint11_linear)"/>
<path d="M30.8304 136.591C27.9288 135.603 24.8226 135.373 21.8069 135.923C20.0781 136.152 18.4376 136.823 17.0445 137.873C16.6313 138.16 16.3181 138.57 16.1483 139.044C15.9786 139.518 15.9609 140.034 16.0976 140.518C14.1481 141.201 13.3126 142.412 14.2595 143.484C15.2064 144.557 17.9914 145.336 20.6233 145.072L35.1612 142.482C38.6424 141.869 40.397 140.059 39.0602 138.443C37.7234 136.828 34.1586 136.104 30.8026 136.564L30.8304 136.591ZM34.632 141.841L20.8879 144.292C18.8409 144.64 16.5432 144.167 15.7634 143.234C14.9836 142.301 15.7634 141.451 17.4205 140.978L17.894 140.853L17.7826 140.602C17.6005 140.196 17.5648 139.74 17.6817 139.311C17.7985 138.881 18.0605 138.506 18.4231 138.249C19.5729 137.375 20.9317 136.818 22.3639 136.633C24.6497 136.201 27.0047 136.306 29.243 136.94C28.0751 137.173 27.0286 137.815 26.2908 138.75C26.1655 138.945 26.4022 139.14 26.7921 139.195C26.9606 139.235 27.1363 139.233 27.3038 139.19C27.4713 139.146 27.6255 139.062 27.753 138.945C28.1482 138.483 28.6309 138.103 29.1734 137.828C29.716 137.553 30.3075 137.389 30.914 137.343C33.6015 136.87 36.6233 137.483 37.6398 138.736C38.6564 139.989 37.3196 141.368 34.632 141.841Z" fill="#BCFFB1"/>
</g>
<defs>
<linearGradient id="paint0_linear" x1="105.173" y1="133.638" x2="105.173" y2="148.335" gradientUnits="userSpaceOnUse">
<stop stop-color="#FFF27B"/>
<stop offset="1" stop-color="#FFDD53"/>
</linearGradient>
<linearGradient id="paint1_linear" x1="102.929" y1="134.893" x2="103.093" y2="145.2" gradientUnits="userSpaceOnUse">
<stop stop-color="white"/>
<stop offset="1" stop-color="white" stop-opacity="0"/>
</linearGradient>
<linearGradient id="paint2_linear" x1="110.942" y1="131.581" x2="138.33" y2="144.065" gradientUnits="userSpaceOnUse">
<stop stop-color="#FFF27B"/>
<stop offset="1" stop-color="#FFDD53"/>
</linearGradient>
<linearGradient id="paint3_linear" x1="115.057" y1="133.047" x2="134.7" y2="140.581" gradientUnits="userSpaceOnUse">
<stop stop-color="white"/>
<stop offset="1" stop-color="white" stop-opacity="0"/>
</linearGradient>
<linearGradient id="paint4_linear" x1="4085.6" y1="3727.18" x2="3075.01" y2="7332.13" gradientUnits="userSpaceOnUse">
<stop stop-color="#FFF27B"/>
<stop offset="1" stop-color="#FFDD53"/>
</linearGradient>
<linearGradient id="paint5_linear" x1="87.5192" y1="113.409" x2="82.3658" y2="134.569" gradientUnits="userSpaceOnUse">
<stop stop-color="white"/>
<stop offset="1" stop-color="white" stop-opacity="0"/>
</linearGradient>
<linearGradient id="paint6_linear" x1="83.1111" y1="119.188" x2="83.5833" y2="122.021" gradientUnits="userSpaceOnUse">
<stop stop-color="#189CD1"/>
<stop offset="1" stop-color="#189CD1" stop-opacity="0"/>
</linearGradient>
<linearGradient id="paint7_linear" x1="54.6668" y1="123.921" x2="52.1613" y2="124.431" gradientUnits="userSpaceOnUse">
<stop stop-color="#04B42A"/>
<stop offset="1" stop-color="#04C63B"/>
</linearGradient>
<linearGradient id="paint8_linear" x1="51.5683" y1="122.366" x2="51.6135" y2="126.534" gradientUnits="userSpaceOnUse">
<stop stop-color="#20F85E"/>
<stop offset="1" stop-color="#04E635"/>
</linearGradient>
<linearGradient id="paint9_linear" x1="13.8318" y1="128.569" x2="13.7503" y2="150.562" gradientUnits="userSpaceOnUse">
<stop stop-color="#2FE262"/>
<stop offset="1" stop-color="#2DD752"/>
</linearGradient>
<linearGradient id="paint10_linear" x1="42.9888" y1="145.637" x2="13.921" y2="159.932" gradientUnits="userSpaceOnUse">
<stop stop-color="#1CC141"/>
<stop offset="1" stop-color="#19B746"/>
</linearGradient>
<linearGradient id="paint11_linear" x1="36.5694" y1="146.263" x2="31.9506" y2="156.472" gradientUnits="userSpaceOnUse">
<stop stop-color="#09A334"/>
<stop offset="1" stop-color="#008124"/>
</linearGradient>
<clipPath id="clip0">
<rect width="61.8238" height="136" fill="white" transform="translate(51 15.5)"/>
</clipPath>
<clipPath id="clip1">
<rect width="32" height="16.3863" fill="white" transform="translate(88.8624 134.925)"/>
</clipPath>
<clipPath id="clip2">
<rect width="29.7925" height="20" fill="white" transform="translate(110.862 126.925)"/>
</clipPath>
<clipPath id="clip3">
<rect width="51.3281" height="32" fill="white" transform="translate(0 128.5)"/>
</clipPath>
</defs>
</svg>
