<svg width="32" height="32" viewBox="0 0 32 32" fill="none" xmlns="http://www.w3.org/2000/svg">
<rect width="32" height="32" rx="16" fill="white"/>
<g clip-path="url(#clip0)">
<path d="M23.7429 10.5925C23.403 10.2609 22.8642 10.2691 22.5325 10.6091L13.7633 19.5641L9.45902 15.2599C9.12742 14.9283 8.5803 14.9283 8.2487 15.2599C7.9171 15.5915 7.9171 16.1387 8.2487 16.4702L13.0678 21.2893C13.0965 21.329 13.1284 21.3674 13.1647 21.4028C13.2429 21.4816 13.3359 21.5441 13.4383 21.5868C13.5407 21.6294 13.6506 21.6514 13.7616 21.6515C13.9854 21.6515 14.2093 21.5686 14.375 21.3943L23.7595 11.8028C23.8382 11.7224 23.9003 11.6273 23.942 11.5228C23.9838 11.4184 24.0046 11.3067 24.003 11.1942C24.0015 11.0817 23.9777 10.9706 23.933 10.8674C23.8884 10.7641 23.8238 10.6707 23.7429 10.5925Z" fill="#609EF5"/>
</g>
<defs>
<clipPath id="clip0">
<path d="M8 8H24V24H8V8Z" fill="white"/>
</clipPath>
</defs>
</svg>
