<svg width="158" height="32" viewBox="0 0 158 32" fill="none" xmlns="http://www.w3.org/2000/svg">
<rect width="158" height="32" rx="4" fill="white"/>
<path d="M24.6289 17.7803L25.8799 17.6709C25.9391 18.1722 26.0758 18.5846 26.29 18.9082C26.5088 19.2272 26.846 19.487 27.3018 19.6875C27.7575 19.8835 28.2702 19.9814 28.8398 19.9814C29.3457 19.9814 29.7923 19.9062 30.1797 19.7559C30.5671 19.6055 30.8542 19.4004 31.041 19.1406C31.2324 18.8763 31.3281 18.5892 31.3281 18.2793C31.3281 17.9648 31.237 17.6914 31.0547 17.459C30.8724 17.222 30.5716 17.0238 30.1523 16.8643C29.8835 16.7594 29.2887 16.5977 28.3682 16.3789C27.4476 16.1556 26.8027 15.946 26.4336 15.75C25.9551 15.4993 25.5973 15.1895 25.3604 14.8203C25.1279 14.4466 25.0117 14.0296 25.0117 13.5693C25.0117 13.0635 25.1553 12.5918 25.4424 12.1543C25.7295 11.7122 26.1488 11.3773 26.7002 11.1494C27.2516 10.9215 27.8646 10.8076 28.5391 10.8076C29.2819 10.8076 29.9359 10.9284 30.501 11.1699C31.0706 11.4069 31.5081 11.7578 31.8135 12.2227C32.1188 12.6875 32.2829 13.2139 32.3057 13.8018L31.0342 13.8975C30.9658 13.264 30.7334 12.7855 30.3369 12.4619C29.945 12.1383 29.3639 11.9766 28.5938 11.9766C27.7917 11.9766 27.2061 12.1247 26.8369 12.4209C26.4723 12.7126 26.29 13.0658 26.29 13.4805C26.29 13.8405 26.4199 14.1367 26.6797 14.3691C26.9349 14.6016 27.6003 14.8408 28.6758 15.0869C29.7559 15.3285 30.4964 15.5404 30.8975 15.7227C31.4808 15.9915 31.9115 16.3333 32.1895 16.748C32.4674 17.1582 32.6064 17.6322 32.6064 18.1699C32.6064 18.7031 32.4538 19.2067 32.1484 19.6807C31.8431 20.1501 31.4033 20.5169 30.8291 20.7812C30.2594 21.041 29.6169 21.1709 28.9014 21.1709C27.9945 21.1709 27.2334 21.0387 26.6182 20.7744C26.0075 20.5101 25.5267 20.1136 25.1758 19.585C24.8294 19.0518 24.6471 18.4502 24.6289 17.7803ZM33.3174 21L37.166 10.9785H38.5947L42.6963 21H41.1855L40.0166 17.9648H35.8262L34.7256 21H33.3174ZM36.209 16.8848H39.6064L38.5605 14.1094C38.2415 13.2663 38.0046 12.5736 37.8496 12.0312C37.722 12.6738 37.542 13.3118 37.3096 13.9453L36.209 16.8848ZM45.5811 21L41.6982 10.9785H43.1338L45.7383 18.2588C45.9479 18.8421 46.1234 19.389 46.2646 19.8994C46.4196 19.3525 46.5996 18.8057 46.8047 18.2588L49.5117 10.9785H50.8652L46.9414 21H45.5811ZM52.082 21V10.9785H59.3281V12.1611H53.4082V15.2305H58.9521V16.4062H53.4082V19.8174H59.5605V21H52.082ZM72.4395 17.4863L73.7656 17.8213C73.4876 18.9105 72.9863 19.7422 72.2617 20.3164C71.5417 20.8861 70.6598 21.1709 69.6162 21.1709C68.5361 21.1709 67.6566 20.9521 66.9775 20.5146C66.3031 20.0726 65.7881 19.4346 65.4326 18.6006C65.0817 17.7666 64.9062 16.8711 64.9062 15.9141C64.9062 14.8704 65.1045 13.9613 65.501 13.1865C65.902 12.4072 66.4694 11.8171 67.2031 11.416C67.9414 11.0104 68.7526 10.8076 69.6367 10.8076C70.6393 10.8076 71.4824 11.0628 72.166 11.5732C72.8496 12.0837 73.3258 12.8014 73.5947 13.7266L72.2891 14.0342C72.0566 13.305 71.7194 12.7741 71.2773 12.4414C70.8353 12.1087 70.2793 11.9424 69.6094 11.9424C68.8392 11.9424 68.1943 12.127 67.6748 12.4961C67.1598 12.8652 66.7975 13.362 66.5879 13.9863C66.3783 14.6061 66.2734 15.2464 66.2734 15.9072C66.2734 16.7594 66.3965 17.5046 66.6426 18.1426C66.8932 18.776 67.2806 19.25 67.8047 19.5645C68.3288 19.8789 68.8962 20.0361 69.5068 20.0361C70.2497 20.0361 70.8786 19.8219 71.3936 19.3936C71.9085 18.9652 72.2572 18.3294 72.4395 17.4863ZM75.4473 21V10.9785H76.7734V15.0938H81.9824V10.9785H83.3086V21H81.9824V16.2764H76.7734V21H75.4473ZM84.4229 21L88.2715 10.9785H89.7002L93.8018 21H92.291L91.1221 17.9648H86.9316L85.8311 21H84.4229ZM87.3145 16.8848H90.7119L89.666 14.1094C89.347 13.2663 89.11 12.5736 88.9551 12.0312C88.8275 12.6738 88.6475 13.3118 88.415 13.9453L87.3145 16.8848ZM94.8477 21V10.9785H96.208L101.472 18.8467V10.9785H102.743V21H101.383L96.1191 13.125V21H94.8477ZM109.668 17.0693V15.8936L113.913 15.8867V19.6055C113.261 20.125 112.589 20.5169 111.896 20.7812C111.204 21.041 110.493 21.1709 109.764 21.1709C108.779 21.1709 107.884 20.9613 107.077 20.542C106.275 20.1182 105.669 19.5075 105.259 18.71C104.849 17.9124 104.644 17.0215 104.644 16.0371C104.644 15.0618 104.846 14.1527 105.252 13.3096C105.662 12.4619 106.25 11.833 107.016 11.4229C107.781 11.0127 108.663 10.8076 109.661 10.8076C110.386 10.8076 111.04 10.9261 111.623 11.1631C112.211 11.3955 112.671 11.7214 113.004 12.1406C113.337 12.5599 113.59 13.1068 113.763 13.7812L112.566 14.1094C112.416 13.599 112.229 13.1979 112.006 12.9062C111.783 12.6146 111.464 12.3822 111.049 12.209C110.634 12.0312 110.174 11.9424 109.668 11.9424C109.062 11.9424 108.538 12.0358 108.096 12.2227C107.654 12.4049 107.296 12.6465 107.022 12.9473C106.754 13.248 106.544 13.5785 106.394 13.9385C106.138 14.5583 106.011 15.2305 106.011 15.9551C106.011 16.8483 106.163 17.5957 106.469 18.1973C106.779 18.7988 107.228 19.2454 107.815 19.5371C108.403 19.8288 109.028 19.9746 109.688 19.9746C110.263 19.9746 110.823 19.8652 111.37 19.6465C111.917 19.4232 112.332 19.1862 112.614 18.9355V17.0693H109.668ZM115.902 21V10.9785H123.148V12.1611H117.229V15.2305H122.772V16.4062H117.229V19.8174H123.381V21H115.902ZM124.762 17.7803L126.013 17.6709C126.072 18.1722 126.209 18.5846 126.423 18.9082C126.642 19.2272 126.979 19.487 127.435 19.6875C127.89 19.8835 128.403 19.9814 128.973 19.9814C129.479 19.9814 129.925 19.9062 130.312 19.7559C130.7 19.6055 130.987 19.4004 131.174 19.1406C131.365 18.8763 131.461 18.5892 131.461 18.2793C131.461 17.9648 131.37 17.6914 131.188 17.459C131.005 17.222 130.704 17.0238 130.285 16.8643C130.016 16.7594 129.422 16.5977 128.501 16.3789C127.58 16.1556 126.936 15.946 126.566 15.75C126.088 15.4993 125.73 15.1895 125.493 14.8203C125.261 14.4466 125.145 14.0296 125.145 13.5693C125.145 13.0635 125.288 12.5918 125.575 12.1543C125.862 11.7122 126.282 11.3773 126.833 11.1494C127.384 10.9215 127.997 10.8076 128.672 10.8076C129.415 10.8076 130.069 10.9284 130.634 11.1699C131.203 11.4069 131.641 11.7578 131.946 12.2227C132.252 12.6875 132.416 13.2139 132.438 13.8018L131.167 13.8975C131.099 13.264 130.866 12.7855 130.47 12.4619C130.078 12.1383 129.497 11.9766 128.727 11.9766C127.924 11.9766 127.339 12.1247 126.97 12.4209C126.605 12.7126 126.423 13.0658 126.423 13.4805C126.423 13.8405 126.553 14.1367 126.812 14.3691C127.068 14.6016 127.733 14.8408 128.809 15.0869C129.889 15.3285 130.629 15.5404 131.03 15.7227C131.614 15.9915 132.044 16.3333 132.322 16.748C132.6 17.1582 132.739 17.6322 132.739 18.1699C132.739 18.7031 132.587 19.2067 132.281 19.6807C131.976 20.1501 131.536 20.5169 130.962 20.7812C130.392 21.041 129.75 21.1709 129.034 21.1709C128.127 21.1709 127.366 21.0387 126.751 20.7744C126.14 20.5101 125.66 20.1136 125.309 19.585C124.962 19.0518 124.78 18.4502 124.762 17.7803Z" fill="#5F9CF1"/>
</svg>
