<svg width="21" height="20" viewBox="0 0 21 20" fill="none" xmlns="http://www.w3.org/2000/svg">
<g clip-path="url(#clip0)">
<path d="M14.026 20H10.106V18.01C10.106 17.03 9.306 16.24 8.336 16.24C7.356 16.24 6.566 17.04 6.566 18.01V20H2.896C1.486 20 0.335999 18.85 0.335999 17.44V13.82H2.376C3.356 13.82 4.146 13.02 4.146 12.05C4.146 11.08 3.346 10.28 2.376 10.28H0.335999V6.31C0.335999 4.9 1.486 3.76 2.896 3.76H5.166V3.18C5.156 1.42 6.576 0 8.326 0C10.076 0 11.496 1.42 11.496 3.17V3.75H14.016C15.426 3.75 16.576 4.9 16.576 6.31V8.87H17.166C18.916 8.87 20.336 10.29 20.336 12.04C20.336 13.79 18.916 15.21 17.166 15.21H16.576V17.43C16.576 18.85 15.426 20 14.026 20ZM11.506 18.6H14.026C14.666 18.6 15.186 18.08 15.186 17.44V13.82H17.176C18.156 13.82 18.946 13.02 18.946 12.05C18.946 11.08 18.146 10.28 17.176 10.28H15.186V6.31C15.186 5.67 14.666 5.15 14.026 5.15H10.106V3.17C10.106 2.19 9.306 1.4 8.336 1.4C7.356 1.4 6.566 2.2 6.566 3.17V5.15H2.896C2.256 5.15 1.736 5.67 1.736 6.31V8.87H2.376C4.126 8.87 5.546 10.29 5.546 12.04C5.546 13.79 4.126 15.21 2.376 15.21H1.736V17.43C1.736 18.07 2.256 18.59 2.896 18.59H5.166V18C5.166 16.25 6.586 14.83 8.336 14.83C10.086 14.83 11.506 16.25 11.506 18V18.6Z" fill="#333333"/>
</g>
<defs>
<clipPath id="clip0">
<path d="M0.335999 0H20.336V20H0.335999V0Z" fill="white"/>
</clipPath>
</defs>
</svg>
