<svg width="12" height="13" viewBox="0 0 12 13" fill="none" xmlns="http://www.w3.org/2000/svg">
<g clip-path="url(#clip0)">
<path d="M5.99994 8.70117C4.78839 8.70117 3.80249 7.71541 3.80249 6.50385C3.80249 5.29216 4.78839 4.3064 5.99994 4.3064C7.2115 4.3064 8.19712 5.29216 8.19712 6.50385C8.19712 7.71541 7.2115 8.70117 5.99994 8.70117ZM5.99994 5.04558C5.19582 5.04558 4.54167 5.69972 4.54167 6.50385C4.54167 7.30784 5.19582 7.96199 5.99994 7.96199C6.80393 7.96199 7.45808 7.30784 7.45808 6.50385C7.45808 5.69972 6.80393 5.04558 5.99994 5.04558V5.04558Z" fill="#1A7DF1"/>
<path d="M7.90506 12.2067C7.62284 12.2067 7.34778 12.0603 7.1967 11.7987C6.95645 11.3829 6.50953 11.1249 6.02945 11.1249H6.0278L5.97523 11.1247C5.97097 11.1246 5.96656 11.1246 5.96202 11.1246C5.48593 11.1246 5.04947 11.3708 4.8194 11.7697C4.70588 11.9663 4.5226 12.1069 4.30313 12.1655C4.08352 12.2246 3.8547 12.1943 3.6582 12.0808L2.31634 11.3057C2.12632 11.196 1.99037 11.0189 1.93368 10.807C1.87699 10.5951 1.90602 10.3739 2.01582 10.1838C2.25965 9.76154 2.25992 9.2366 2.01665 8.81404L2.00716 8.79753C1.76471 8.37634 1.31228 8.11476 0.826557 8.11476C0.370829 8.11476 0 7.74393 0 7.2882V5.75783C0 5.28132 0.387616 4.89371 0.864121 4.89371C1.32728 4.89371 1.75851 4.64438 1.98954 4.24314C2.24988 3.79113 2.2496 3.22972 1.98885 2.77799L1.94675 2.7052C1.75824 2.37854 1.87052 1.95996 2.19663 1.77173L3.65229 0.931273C4.06192 0.695015 4.587 0.835916 4.82325 1.245C5.05167 1.64101 5.48469 1.88538 5.95514 1.88538C5.95996 1.88538 5.96491 1.88538 5.96959 1.88525L6.01816 1.88497H6.01981C6.50925 1.88497 6.9559 1.62725 7.19546 1.21197C7.30664 1.01934 7.48222 0.884626 7.69247 0.828348C7.90217 0.771658 8.12178 0.800829 8.31015 0.909669L9.68958 1.70623C9.87795 1.8148 10.0127 1.99037 10.0689 2.20048C10.1252 2.41046 10.0963 2.62993 9.98775 2.81817C9.75081 3.22849 9.75961 3.75067 10.0109 4.18095L10.0257 4.20668C10.2693 4.62952 10.7141 4.89343 11.1858 4.89343C11.6348 4.89343 12 5.25862 12 5.70761V7.30196C12 7.74999 11.6355 8.11449 11.1873 8.11449C10.7152 8.11449 10.2697 8.37881 10.0249 8.80427L10.0114 8.82752C9.76016 9.25807 9.7515 9.78067 9.98872 10.1913C10.2125 10.5793 10.0791 11.077 9.69137 11.301L8.31235 12.0971C8.18369 12.1715 8.04348 12.2067 7.90506 12.2067V12.2067ZM6.03013 10.3857C6.77289 10.3857 7.46515 10.7853 7.83681 11.4291C7.85002 11.4521 7.86969 11.4612 7.88373 11.465C7.89804 11.4691 7.91923 11.4704 7.94235 11.4575L9.32136 10.6613C9.35631 10.6411 9.36828 10.5962 9.34806 10.5611C8.9786 9.92144 8.9881 9.11455 9.37255 8.45532L9.70416 8.6203L9.38383 8.43592C9.7603 7.78191 10.4512 7.37558 11.1869 7.37558C11.2274 7.37558 11.2604 7.34269 11.2604 7.30224V5.70788C11.2604 5.6666 11.2267 5.63289 11.1853 5.63289C10.4501 5.63289 9.75962 5.22711 9.38342 4.57393L9.37186 4.55384C8.98727 3.89488 8.97778 3.08841 9.34696 2.44885C9.35975 2.4267 9.3581 2.40564 9.35452 2.39188C9.35095 2.37826 9.34186 2.35927 9.31971 2.34648L7.94056 1.54992C7.93206 1.54496 7.92265 1.54174 7.91289 1.54047C7.90313 1.53919 7.89322 1.53988 7.88373 1.54249C7.86997 1.54606 7.85112 1.55515 7.83832 1.5773C7.46446 2.22498 6.77248 2.62429 6.02972 2.62429H6.02738L5.97812 2.62456C5.23357 2.63172 4.54723 2.24548 4.18314 1.61459C4.16209 1.57771 4.12921 1.56437 4.11146 1.55969C4.09357 1.55501 4.05862 1.55033 4.02202 1.57138L2.61493 2.38377L2.62883 2.40798C3.02126 3.08772 3.02167 3.93203 2.63007 4.61191C2.26749 5.24156 1.59078 5.63275 0.864121 5.63275C0.795184 5.63275 0.739181 5.68875 0.739181 5.75769V7.28807C0.739181 7.33623 0.778397 7.37544 0.826557 7.37544C1.57606 7.37544 2.27382 7.77888 2.64768 8.42849L2.65717 8.44486C3.03158 9.09543 3.03117 9.90327 2.65593 10.5532C2.6419 10.5776 2.64369 10.6005 2.64768 10.6156C2.65167 10.6305 2.66158 10.6514 2.68579 10.6653L4.02807 11.4401C4.08091 11.4707 4.14902 11.4528 4.17943 11.3997C4.54145 10.7725 5.22298 10.385 5.96147 10.385C5.96835 10.385 5.97482 10.385 5.98156 10.3851L6.0278 10.3853C6.02835 10.3857 6.02931 10.3857 6.03013 10.3857V10.3857Z" fill="#1A7DF1"/>
</g>
<defs>
<clipPath id="clip0">
<rect width="12" height="12" fill="white" transform="translate(0 0.5)"/>
</clipPath>
</defs>
</svg>
