<svg width="42" height="42" viewBox="0 0 42 42" fill="none" xmlns="http://www.w3.org/2000/svg">
<rect x="0.915771" y="-5.08807" width="36" height="66.4669" transform="rotate(-45 0.915771 -5.08807)" fill="#32B611"/>
<g clip-path="url(#clip0)">
<path d="M36.8072 5.94444C36.5523 5.69574 36.1482 5.70192 35.8995 5.95686L29.3226 12.6731L26.0943 9.44496C25.8456 9.19626 25.4353 9.19626 25.1866 9.44496C24.9379 9.69366 24.9379 10.1041 25.1866 10.3527L28.8009 13.967C28.8225 13.9968 28.8463 14.0256 28.8736 14.0522C28.9322 14.1112 29.002 14.1581 29.0788 14.1901C29.1556 14.2221 29.238 14.2386 29.3212 14.2387C29.4891 14.2387 29.657 14.1765 29.7813 14.0458L36.8197 6.85218C36.8787 6.79189 36.9253 6.72053 36.9566 6.64219C36.9879 6.56385 37.0035 6.48008 37.0023 6.39571C37.0012 6.31134 36.9833 6.22804 36.9498 6.15059C36.9163 6.07314 36.8679 6.00308 36.8072 5.94444Z" fill="white"/>
</g>
<defs>
<clipPath id="clip0">
<rect width="12" height="12" fill="white" transform="translate(25.0001 4)"/>
</clipPath>
</defs>
</svg>
