<svg width="16" height="16" viewBox="0 0 16 16" fill="none" xmlns="http://www.w3.org/2000/svg">
<path fill-rule="evenodd" clip-rule="evenodd" d="M2 3H14C14.5523 3 15 3.44772 15 4V12C15 12.5523 14.5523 13 14 13H2C1.44772 13 1 12.5523 1 12V4C1 3.44772 1.44772 3 2 3ZM0 4C0 2.89543 0.895431 2 2 2H14C15.1046 2 16 2.89543 16 4V12C16 13.1046 15.1046 14 14 14H2C0.895431 14 0 13.1046 0 12V4ZM2.5 5.19922C2.22386 5.19922 2 5.42308 2 5.69922C2 5.97536 2.22386 6.19922 2.5 6.19922H6.5C6.77614 6.19922 7 5.97536 7 5.69922C7 5.42308 6.77614 5.19922 6.5 5.19922H2.5ZM2 8C2 7.72386 2.22386 7.5 2.5 7.5H6.5C6.77614 7.5 7 7.72386 7 8C7 8.27614 6.77614 8.5 6.5 8.5H2.5C2.22386 8.5 2 8.27614 2 8ZM2.5 9.79883C2.22386 9.79883 2 10.0227 2 10.2988C2 10.575 2.22386 10.7988 2.5 10.7988H5.5C5.77614 10.7988 6 10.575 6 10.2988C6 10.0227 5.77614 9.79883 5.5 9.79883H2.5ZM10.95 5.5C10.3149 5.5 9.80005 6.01487 9.80005 6.65C9.80005 7.28513 10.3149 7.8 10.95 7.8C11.5852 7.8 12.1 7.28513 12.1 6.65C12.1 6.01487 11.5852 5.5 10.95 5.5ZM8.80005 6.65C8.80005 5.46259 9.76264 4.5 10.95 4.5C12.1375 4.5 13.1 5.46259 13.1 6.65C13.1 7.31617 12.7971 7.91158 12.3214 8.30594C13.3157 8.79455 14 9.81735 14 11C14 11.2761 13.7761 11.5 13.5 11.5C13.2239 11.5 13 11.2761 13 11C13 9.89543 12.1046 9 11 9C9.89543 9 9 9.89543 9 11C9 11.2761 8.77614 11.5 8.5 11.5C8.22386 11.5 8 11.2761 8 11C8 9.8419 8.65622 8.83707 9.6171 8.33705C9.11939 7.94327 8.80005 7.33393 8.80005 6.65Z" fill="#999999"/>
</svg>
