<svg width="24" height="24" viewBox="0 0 24 24" fill="none" xmlns="http://www.w3.org/2000/svg">
<rect width="24" height="24" rx="12" fill="#1A7DF1"/>
<g clip-path="url(#clip0)">
<path d="M17.8071 7.94444C17.5523 7.69574 17.1482 7.70192 16.8994 7.95686L10.3225 14.6731L7.09426 11.445C6.84557 11.1963 6.43523 11.1963 6.18653 11.445C5.93782 11.6937 5.93782 12.1041 6.18653 12.3527L9.80087 15.967C9.82241 15.9968 9.84629 16.0256 9.87353 16.0522C9.93216 16.1112 10.0019 16.1581 10.0787 16.1901C10.1556 16.2221 10.238 16.2386 10.3212 16.2387C10.4891 16.2387 10.6569 16.1765 10.7813 16.0458L17.8196 8.85218C17.8787 8.79189 17.9252 8.72053 17.9565 8.64219C17.9879 8.56385 18.0034 8.48008 18.0023 8.39571C18.0011 8.31134 17.9833 8.22804 17.9498 8.15059C17.9163 8.07314 17.8678 8.00308 17.8071 7.94444Z" fill="white"/>
</g>
<defs>
<clipPath id="clip0">
<rect width="12" height="12" fill="white" transform="translate(6 6)"/>
</clipPath>
</defs>
</svg>
