<svg width="12" height="13" viewBox="0 0 12 13" fill="none" xmlns="http://www.w3.org/2000/svg">
<path d="M5.99995 0.663086C2.68626 0.663086 0 3.34938 0 6.66308C0 9.97677 2.68626 12.6631 5.99995 12.6631C9.31363 12.6631 11.9999 9.97679 11.9999 6.66309C11.9999 3.3494 9.31366 0.663086 5.99995 0.663086ZM5.21736 2.96065C5.21736 2.8454 5.31079 2.75197 5.42606 2.75197H6.57388C6.68914 2.75197 6.78256 2.84542 6.78256 2.96065V4.10847C6.78256 4.22373 6.68914 4.31717 6.57388 4.31717H5.42604C5.31077 4.31717 5.21734 4.22373 5.21734 4.10847V2.96065H5.21736ZM7.82604 10.3434C7.82604 10.4587 7.73259 10.5521 7.61732 10.5521H4.38257C4.26731 10.5521 4.17388 10.4587 4.17388 10.3434V9.71729C4.17388 9.60203 4.26733 9.5086 4.38257 9.5086H5.21736V6.37819H4.38259C4.26731 6.37819 4.17388 6.28475 4.17388 6.16949V5.5434C4.17388 5.42814 4.26731 5.3347 4.38259 5.3347H6.57388H6.5739C6.68916 5.3347 6.78258 5.42813 6.78258 5.5434V9.5086H7.61736C7.73263 9.5086 7.82608 9.60203 7.82608 9.71729V10.3434H7.82604Z" fill="#F2AA1F"/>
</svg>
