<svg width="21" height="20" viewBox="0 0 21 20" fill="none" xmlns="http://www.w3.org/2000/svg">
<rect x="0.5" width="20" height="20" rx="10" fill="#32B611"/>
<g clip-path="url(#clip0)">
<path d="M15.3393 6.62102C15.1269 6.41377 14.7901 6.41892 14.5828 6.63137L9.10209 12.2283L6.41189 9.53812C6.20464 9.33087 5.86269 9.33087 5.65544 9.53812C5.44819 9.74537 5.44819 10.0874 5.65544 10.2946L8.66739 13.3065C8.68534 13.3313 8.70524 13.3553 8.72794 13.3775C8.7768 13.4267 8.83492 13.4658 8.89894 13.4924C8.96297 13.5191 9.03163 13.5328 9.10099 13.5329C9.24089 13.5329 9.38079 13.4811 9.48439 13.3722L15.3497 7.37747C15.3989 7.32723 15.4377 7.26776 15.4638 7.20247C15.4899 7.13719 15.5028 7.06739 15.5019 6.99708C15.5009 6.92677 15.486 6.85735 15.4581 6.79281C15.4302 6.72827 15.3898 6.66988 15.3393 6.62102Z" fill="white"/>
</g>
<defs>
<clipPath id="clip0">
<path d="M5.5 5H15.5V15H5.5V5Z" fill="white"/>
</clipPath>
</defs>
</svg>
