<svg width="14" height="14" viewBox="0 0 14 14" fill="none" xmlns="http://www.w3.org/2000/svg">
<rect width="14" height="14" rx="7" fill="#0FCCAA"/>
<path d="M3.87891 11V2.41016H7.10156C7.75781 2.41016 8.2832 2.49805 8.67773 2.67383C9.07617 2.8457 9.38672 3.11328 9.60938 3.47656C9.83594 3.83594 9.94922 4.21289 9.94922 4.60742C9.94922 4.97461 9.84961 5.32031 9.65039 5.64453C9.45117 5.96875 9.15039 6.23047 8.74805 6.42969C9.26758 6.58203 9.66602 6.8418 9.94336 7.20898C10.2246 7.57617 10.3652 8.00977 10.3652 8.50977C10.3652 8.91211 10.2793 9.28711 10.1074 9.63477C9.93945 9.97852 9.73047 10.2441 9.48047 10.4316C9.23047 10.6191 8.91602 10.7617 8.53711 10.8594C8.16211 10.9531 7.70117 11 7.1543 11H3.87891ZM5.01562 6.01953H6.87305C7.37695 6.01953 7.73828 5.98633 7.95703 5.91992C8.24609 5.83398 8.46289 5.69141 8.60742 5.49219C8.75586 5.29297 8.83008 5.04297 8.83008 4.74219C8.83008 4.45703 8.76172 4.20703 8.625 3.99219C8.48828 3.77344 8.29297 3.625 8.03906 3.54688C7.78516 3.46484 7.34961 3.42383 6.73242 3.42383H5.01562V6.01953ZM5.01562 9.98633H7.1543C7.52148 9.98633 7.7793 9.97266 7.92773 9.94531C8.18945 9.89844 8.4082 9.82031 8.58398 9.71094C8.75977 9.60156 8.9043 9.44336 9.01758 9.23633C9.13086 9.02539 9.1875 8.7832 9.1875 8.50977C9.1875 8.18945 9.10547 7.91211 8.94141 7.67773C8.77734 7.43945 8.54883 7.27344 8.25586 7.17969C7.9668 7.08203 7.54883 7.0332 7.00195 7.0332H5.01562V9.98633Z" fill="white"/>
</svg>
