<svg width="16" height="16" viewBox="0 0 16 16" fill="none" xmlns="http://www.w3.org/2000/svg">
<path d="M4.87695 12V3.41016H8.09961C8.75586 3.41016 9.28125 3.49805 9.67578 3.67383C10.0742 3.8457 10.3848 4.11328 10.6074 4.47656C10.834 4.83594 10.9473 5.21289 10.9473 5.60742C10.9473 5.97461 10.8477 6.32031 10.6484 6.64453C10.4492 6.96875 10.1484 7.23047 9.74609 7.42969C10.2656 7.58203 10.6641 7.8418 10.9414 8.20898C11.2227 8.57617 11.3633 9.00977 11.3633 9.50977C11.3633 9.91211 11.2773 10.2871 11.1055 10.6348C10.9375 10.9785 10.7285 11.2441 10.4785 11.4316C10.2285 11.6191 9.91406 11.7617 9.53516 11.8594C9.16016 11.9531 8.69922 12 8.15234 12H4.87695ZM6.01367 7.01953H7.87109C8.375 7.01953 8.73633 6.98633 8.95508 6.91992C9.24414 6.83398 9.46094 6.69141 9.60547 6.49219C9.75391 6.29297 9.82812 6.04297 9.82812 5.74219C9.82812 5.45703 9.75977 5.20703 9.62305 4.99219C9.48633 4.77344 9.29102 4.625 9.03711 4.54688C8.7832 4.46484 8.34766 4.42383 7.73047 4.42383H6.01367V7.01953ZM6.01367 10.9863H8.15234C8.51953 10.9863 8.77734 10.9727 8.92578 10.9453C9.1875 10.8984 9.40625 10.8203 9.58203 10.7109C9.75781 10.6016 9.90234 10.4434 10.0156 10.2363C10.1289 10.0254 10.1855 9.7832 10.1855 9.50977C10.1855 9.18945 10.1035 8.91211 9.93945 8.67773C9.77539 8.43945 9.54688 8.27344 9.25391 8.17969C8.96484 8.08203 8.54688 8.0332 8 8.0332H6.01367V10.9863Z" fill="#0FCCAA"/>
<path d="M8 15C4.13401 15 1 11.866 1 8H-1C-1 12.9706 3.02944 17 8 17V15ZM15 8C15 11.866 11.866 15 8 15V17C12.9706 17 17 12.9706 17 8H15ZM8 1C11.866 1 15 4.13401 15 8H17C17 3.02944 12.9706 -1 8 -1V1ZM8 -1C3.02944 -1 -1 3.02944 -1 8H1C1 4.13401 4.13401 1 8 1V-1Z" fill="#0FCCAA"/>
</svg>
