<svg width="16" height="16" viewBox="0 0 16 16" fill="none" xmlns="http://www.w3.org/2000/svg">
<circle cx="8" cy="8" r="8" fill="white"/>
<g clip-path="url(#clip0)">
<path d="M11.8714 5.29601C11.7015 5.13021 11.4321 5.13433 11.2663 5.30429L6.88167 9.78181L4.72951 7.62969C4.56371 7.46389 4.29015 7.46389 4.12435 7.62969C3.95855 7.79549 3.95855 8.06909 4.12435 8.23485L6.53391 10.6444C6.54827 10.6642 6.56419 10.6834 6.58235 10.7012C6.62144 10.7405 6.66794 10.7718 6.71915 10.7931C6.77037 10.8145 6.82531 10.8255 6.88079 10.8255C6.99271 10.8255 7.10463 10.784 7.18751 10.6969L11.8797 5.90117C11.9191 5.86098 11.9501 5.8134 11.971 5.76117C11.9919 5.70895 12.0023 5.6531 12.0015 5.59686C12.0007 5.54061 11.9888 5.48507 11.9665 5.43344C11.9442 5.38181 11.9119 5.3351 11.8714 5.29601Z" fill="#00CA08"/>
</g>
<defs>
<clipPath id="clip0">
<path d="M4 4H12V12H4V4Z" fill="white"/>
</clipPath>
</defs>
</svg>
