<svg width="40" height="40" viewBox="0 0 40 40" fill="none" xmlns="http://www.w3.org/2000/svg">
<circle opacity="0.2" cx="20" cy="20" r="20" fill="#E02703"/>
<path fill-rule="evenodd" clip-rule="evenodd" d="M5.63623 33.9171C5.74684 33.0693 5.86088 32.2105 6.08199 31L6.13243 30.7235C6.40432 29.2315 6.63242 27.9798 6.99465 26.9396C8.12767 23.6856 15.2105 22.5 19.775 22.5C24.3395 22.5 31.0407 23.7174 32.2639 26.9396C32.5536 27.7028 32.7946 28.5786 33.0694 29.5773C33.193 30.0264 33.3234 30.5003 33.4682 31C33.7885 32.1059 33.9613 32.9183 34.1268 33.6968C34.1538 33.8238 34.1806 33.9498 34.2078 34.0761C30.5835 37.7342 25.5563 40 19.9999 40C14.3635 40 9.27163 37.6684 5.63623 33.9171ZM26.9999 14.5C26.9999 18.366 23.8659 21.5 19.9999 21.5C16.1339 21.5 12.9999 18.366 12.9999 14.5C12.9999 10.634 16.1339 7.5 19.9999 7.5C23.8659 7.5 26.9999 10.634 26.9999 14.5Z" fill="#B02D13"/>
</svg>
