<svg width="16" height="16" viewBox="0 0 16 16" fill="none" xmlns="http://www.w3.org/2000/svg">
  <path d="M1.276 1.064C1.15808 1.064 1.064 1.15754 1.064 1.276V14.724C1.064 14.8419 1.15754 14.936 1.276 14.936H7.996C8.28981 14.936 8.528 15.1742 8.528 15.468C8.528 15.7618 8.28981 16 7.996 16H1.276C0.562463 16 0 15.4221 0 14.724V1.276C0 0.562462 0.577921 0 1.276 0H14.716C15.4295 0 15.992 0.57792 15.992 1.276V7.828C15.992 8.12181 15.7538 8.36 15.46 8.36C15.1662 8.36 14.928 8.12181 14.928 7.828V1.276C14.928 1.15808 14.8345 1.064 14.716 1.064H1.276Z" fill="#1A7DF1"/>
  <path fill-rule="evenodd" clip-rule="evenodd" d="M5.048 9.26798C5.048 6.98594 6.89796 5.13598 9.18 5.13598C11.462 5.13598 13.312 6.98594 13.312 9.26798C13.312 10.1948 13.0069 11.0503 12.4916 11.7396L15.844 15.092C16.052 15.3 16.052 15.636 15.844 15.844C15.636 16.044 15.292 16.044 15.084 15.844L11.7507 12.5032C11.0451 13.0646 10.1517 13.4 9.18 13.4C6.89796 13.4 5.048 11.55 5.048 9.26798ZM9.18 6.19998C7.48559 6.19998 6.112 7.57357 6.112 9.26798C6.112 10.9624 7.48559 12.336 9.18 12.336C10.8744 12.336 12.248 10.9624 12.248 9.26798C12.248 7.57357 10.8744 6.19998 9.18 6.19998Z" fill="#1A7DF1"/>
</svg>
