<svg width="16" height="16" viewBox="0 0 16 16" fill="none" xmlns="http://www.w3.org/2000/svg">
<path d="M7.99994 0C3.58168 0 0 3.58173 0 7.99999C0 12.4182 3.58168 16 7.99994 16C12.4182 16 15.9999 12.4183 15.9999 8.00001C15.9999 3.58175 12.4182 0 7.99994 0ZM6.95648 3.06342C6.95648 2.90975 7.08105 2.78518 7.23475 2.78518H8.76517C8.91885 2.78518 9.04342 2.90977 9.04342 3.06342V4.59385C9.04342 4.74752 8.91885 4.87212 8.76517 4.87212H7.23473C7.08103 4.87212 6.95646 4.74752 6.95646 4.59385V3.06342H6.95648ZM10.4347 12.9071C10.4347 13.0608 10.3101 13.1853 10.1564 13.1853H5.84342C5.68975 13.1853 5.56518 13.0608 5.56518 12.9071V12.0723C5.56518 11.9186 5.68977 11.794 5.84342 11.794H6.95648V7.62014H5.84345C5.68975 7.62014 5.56518 7.49555 5.56518 7.34187V6.50709C5.56518 6.35341 5.68975 6.22882 5.84345 6.22882H8.76517H8.7652C8.91887 6.22882 9.04344 6.35339 9.04344 6.50709V11.794H10.1565C10.3102 11.794 10.4348 11.9186 10.4348 12.0723V12.9071H10.4347Z" fill="#ECB057"/>
</svg>
