<svg width="16" height="16" viewBox="0 0 16 16" fill="none" xmlns="http://www.w3.org/2000/svg">
<path fill-rule="evenodd" clip-rule="evenodd" d="M2 0C0.895431 0 0 0.895431 0 2V14C0 15.1046 0.895431 16 2 16H14C15.1046 16 16 15.1046 16 14V2C16 0.895431 15.1046 0 14 0H2ZM7.23476 2.78516C7.08106 2.78516 6.95649 2.90973 6.95649 3.0634L6.95646 4.59383C6.95646 4.7475 7.08103 4.8721 7.23473 4.8721H8.76518C8.91886 4.8721 9.04343 4.7475 9.04343 4.59383V3.0634C9.04343 2.90975 8.91886 2.78516 8.76518 2.78516H7.23476ZM10.1564 13.1853C10.3101 13.1853 10.4347 13.0608 10.4347 12.9071L10.4348 12.0722C10.4348 11.9186 10.3102 11.794 10.1565 11.794H9.04345V6.50706C9.04345 6.35336 8.91886 6.22879 8.76518 6.22879H5.84346C5.68976 6.22879 5.56519 6.35339 5.56519 6.50706V7.34185C5.56519 7.49552 5.68976 7.62012 5.84346 7.62012H6.95649V11.794H5.84343C5.68978 11.794 5.56519 11.9186 5.56519 12.0722V12.9071C5.56519 13.0608 5.68976 13.1853 5.84343 13.1853H10.1564Z" fill="#54B5E1"/>
</svg>
