<svg width="16" height="16" viewBox="0 0 16 16" fill="none" xmlns="http://www.w3.org/2000/svg">
<path fill-rule="evenodd" clip-rule="evenodd" d="M2 0C0.895431 0 0 0.895431 0 2V10.8C0 11.9046 0.895431 12.8 2 12.8H4.8V15.6C4.8 15.9296 5.17631 16.1178 5.44 15.92L9.6 12.8H14C15.1046 12.8 16 11.9046 16 10.8V2C16 0.895431 15.1046 0 14 0H2ZM2.4 3C2.4 2.66863 2.66863 2.4 3 2.4H13C13.3314 2.4 13.6 2.66863 13.6 3C13.6 3.33137 13.3314 3.6 13 3.6H3C2.66863 3.6 2.4 3.33137 2.4 3ZM2.4 5.8C2.4 5.46863 2.66863 5.2 3 5.2H13C13.3314 5.2 13.6 5.46863 13.6 5.8C13.6 6.13137 13.3314 6.4 13 6.4H3C2.66863 6.4 2.4 6.13137 2.4 5.8ZM3 8C2.66863 8 2.4 8.26863 2.4 8.6C2.4 8.93137 2.66863 9.2 3 9.2H9.8C10.1314 9.2 10.4 8.93137 10.4 8.6C10.4 8.26863 10.1314 8 9.8 8H3Z" fill="#46A8EE"/>
</svg>
