<svg width="136" height="64" viewBox="0 0 136 64" fill="none" xmlns="http://www.w3.org/2000/svg">
<path d="M0 8C0 3.58172 3.58172 0 8 0H128C132.418 0 136 3.58172 136 8V56C136 60.4183 132.418 64 128 64H8C3.58172 64 0 60.4183 0 56V8Z" fill="#F7F7FA"/>
<path d="M16.3291 55.7207L17.3662 55.8555C17.2529 56.5703 16.9619 57.1309 16.4932 57.5371C16.0283 57.9395 15.4561 58.1406 14.7764 58.1406C13.9248 58.1406 13.2393 57.8633 12.7197 57.3086C12.2041 56.75 11.9463 55.9512 11.9463 54.9121C11.9463 54.2402 12.0576 53.6523 12.2803 53.1484C12.5029 52.6445 12.8408 52.2676 13.2939 52.0176C13.751 51.7637 14.2471 51.6367 14.7822 51.6367C15.458 51.6367 16.0107 51.8086 16.4404 52.1523C16.8701 52.4922 17.1455 52.9766 17.2666 53.6055L16.2412 53.7637C16.1436 53.3457 15.9697 53.0312 15.7197 52.8203C15.4736 52.6094 15.1748 52.5039 14.8232 52.5039C14.292 52.5039 13.8604 52.6953 13.5283 53.0781C13.1963 53.457 13.0303 54.0586 13.0303 54.8828C13.0303 55.7188 13.1904 56.3262 13.5107 56.7051C13.8311 57.084 14.249 57.2734 14.7646 57.2734C15.1787 57.2734 15.5244 57.1465 15.8018 56.8926C16.0791 56.6387 16.2549 56.248 16.3291 55.7207ZM17.876 54.8887C17.876 53.7363 18.1963 52.8828 18.8369 52.3281C19.3721 51.8672 20.0244 51.6367 20.7939 51.6367C21.6494 51.6367 22.3486 51.918 22.8916 52.4805C23.4346 53.0391 23.7061 53.8125 23.7061 54.8008C23.7061 55.6016 23.585 56.2324 23.3428 56.6934C23.1045 57.1504 22.7549 57.5059 22.2939 57.7598C21.8369 58.0137 21.3369 58.1406 20.7939 58.1406C19.9229 58.1406 19.2178 57.8613 18.6787 57.3027C18.1436 56.7441 17.876 55.9395 17.876 54.8887ZM18.96 54.8887C18.96 55.6855 19.1338 56.2832 19.4814 56.6816C19.8291 57.0762 20.2666 57.2734 20.7939 57.2734C21.3174 57.2734 21.7529 57.0742 22.1006 56.6758C22.4482 56.2773 22.6221 55.6699 22.6221 54.8535C22.6221 54.084 22.4463 53.502 22.0947 53.1074C21.7471 52.709 21.3135 52.5098 20.7939 52.5098C20.2666 52.5098 19.8291 52.707 19.4814 53.1016C19.1338 53.4961 18.96 54.0918 18.96 54.8887ZM24.9248 58V49.4102H25.9795V58H24.9248ZM31.6572 58V57.2148C31.2627 57.832 30.6826 58.1406 29.917 58.1406C29.4209 58.1406 28.9639 58.0039 28.5459 57.7305C28.1318 57.457 27.8096 57.0762 27.5791 56.5879C27.3525 56.0957 27.2393 55.5312 27.2393 54.8945C27.2393 54.2734 27.3428 53.7109 27.5498 53.207C27.7568 52.6992 28.0674 52.3105 28.4814 52.041C28.8955 51.7715 29.3584 51.6367 29.8701 51.6367C30.2451 51.6367 30.5791 51.7168 30.8721 51.877C31.165 52.0332 31.4033 52.2383 31.5869 52.4922V49.4102H32.6357V58H31.6572ZM28.3232 54.8945C28.3232 55.6914 28.4912 56.2871 28.8271 56.6816C29.1631 57.0762 29.5596 57.2734 30.0166 57.2734C30.4775 57.2734 30.8682 57.0859 31.1885 56.7109C31.5127 56.332 31.6748 55.7559 31.6748 54.9824C31.6748 54.1309 31.5107 53.5059 31.1826 53.1074C30.8545 52.709 30.4502 52.5098 29.9697 52.5098C29.501 52.5098 29.1084 52.7012 28.792 53.084C28.4795 53.4668 28.3232 54.0703 28.3232 54.8945ZM37.2178 56.1426L38.2607 55.9785C38.3193 56.3965 38.4814 56.7168 38.7471 56.9395C39.0166 57.1621 39.3916 57.2734 39.8721 57.2734C40.3564 57.2734 40.7158 57.1758 40.9502 56.9805C41.1846 56.7812 41.3018 56.5488 41.3018 56.2832C41.3018 56.0449 41.1982 55.8574 40.9912 55.7207C40.8467 55.627 40.4873 55.5078 39.9131 55.3633C39.1396 55.168 38.6025 55 38.3018 54.8594C38.0049 54.7148 37.7783 54.5176 37.6221 54.2676C37.4697 54.0137 37.3936 53.7344 37.3936 53.4297C37.3936 53.1523 37.4561 52.8965 37.5811 52.6621C37.71 52.4238 37.8838 52.2266 38.1025 52.0703C38.2666 51.9492 38.4893 51.8477 38.7705 51.7656C39.0557 51.6797 39.3604 51.6367 39.6846 51.6367C40.1729 51.6367 40.6006 51.707 40.9678 51.8477C41.3389 51.9883 41.6123 52.1797 41.7881 52.4219C41.9639 52.6602 42.085 52.9805 42.1514 53.3828L41.1201 53.5234C41.0732 53.2031 40.9365 52.9531 40.71 52.7734C40.4873 52.5938 40.1709 52.5039 39.7607 52.5039C39.2764 52.5039 38.9307 52.584 38.7236 52.7441C38.5166 52.9043 38.4131 53.0918 38.4131 53.3066C38.4131 53.4434 38.4561 53.5664 38.542 53.6758C38.6279 53.7891 38.7627 53.8828 38.9463 53.957C39.0518 53.9961 39.3623 54.0859 39.8779 54.2266C40.624 54.4258 41.1436 54.5898 41.4365 54.7188C41.7334 54.8438 41.9658 55.0273 42.1338 55.2695C42.3018 55.5117 42.3857 55.8125 42.3857 56.1719C42.3857 56.5234 42.2822 56.8555 42.0752 57.168C41.8721 57.4766 41.5771 57.7168 41.1904 57.8887C40.8037 58.0566 40.3662 58.1406 39.8779 58.1406C39.0693 58.1406 38.4521 57.9727 38.0264 57.6367C37.6045 57.3008 37.335 56.8027 37.2178 56.1426ZM45.9424 57.0566L46.0947 57.9883C45.7979 58.0508 45.5322 58.082 45.2979 58.082C44.915 58.082 44.6182 58.0215 44.4072 57.9004C44.1963 57.7793 44.0479 57.6211 43.9619 57.4258C43.876 57.2266 43.833 56.8105 43.833 56.1777V52.5977H43.0596V51.7773H43.833V50.2363L44.8818 49.6035V51.7773H45.9424V52.5977H44.8818V56.2363C44.8818 56.5371 44.8994 56.7305 44.9346 56.8164C44.9736 56.9023 45.0342 56.9707 45.1162 57.0215C45.2021 57.0723 45.3232 57.0977 45.4795 57.0977C45.5967 57.0977 45.751 57.084 45.9424 57.0566ZM51.04 57.2324C50.6494 57.5645 50.2725 57.7988 49.9092 57.9355C49.5498 58.0723 49.1631 58.1406 48.749 58.1406C48.0654 58.1406 47.54 57.9746 47.1729 57.6426C46.8057 57.3066 46.6221 56.8789 46.6221 56.3594C46.6221 56.0547 46.6904 55.7773 46.8271 55.5273C46.9678 55.2734 47.1494 55.0703 47.3721 54.918C47.5986 54.7656 47.8525 54.6504 48.1338 54.5723C48.3408 54.5176 48.6533 54.4648 49.0713 54.4141C49.9229 54.3125 50.5498 54.1914 50.9521 54.0508C50.9561 53.9062 50.958 53.8145 50.958 53.7754C50.958 53.3457 50.8584 53.043 50.6592 52.8672C50.3896 52.6289 49.9893 52.5098 49.458 52.5098C48.9619 52.5098 48.5947 52.5977 48.3564 52.7734C48.1221 52.9453 47.9482 53.252 47.835 53.6934L46.8037 53.5527C46.8975 53.1113 47.0518 52.7559 47.2666 52.4863C47.4814 52.2129 47.792 52.0039 48.1982 51.8594C48.6045 51.7109 49.0752 51.6367 49.6104 51.6367C50.1416 51.6367 50.5732 51.6992 50.9053 51.8242C51.2373 51.9492 51.4814 52.1074 51.6377 52.2988C51.7939 52.4863 51.9033 52.7246 51.9658 53.0137C52.001 53.1934 52.0186 53.5176 52.0186 53.9863V55.3926C52.0186 56.373 52.04 56.9941 52.083 57.2559C52.1299 57.5137 52.2197 57.7617 52.3525 58H51.251C51.1416 57.7812 51.0713 57.5254 51.04 57.2324ZM50.9521 54.877C50.5693 55.0332 49.9951 55.166 49.2295 55.2754C48.7959 55.3379 48.4893 55.4082 48.3096 55.4863C48.1299 55.5645 47.9912 55.6797 47.8936 55.832C47.7959 55.9805 47.7471 56.1465 47.7471 56.3301C47.7471 56.6113 47.8525 56.8457 48.0635 57.0332C48.2783 57.2207 48.5908 57.3145 49.001 57.3145C49.4072 57.3145 49.7686 57.2266 50.085 57.0508C50.4014 56.8711 50.6338 56.627 50.7822 56.3184C50.8955 56.0801 50.9521 55.7285 50.9521 55.2637V54.877ZM53.6475 58V51.7773H54.5967V52.7207C54.8389 52.2793 55.0615 51.9883 55.2646 51.8477C55.4717 51.707 55.6982 51.6367 55.9443 51.6367C56.2998 51.6367 56.6611 51.75 57.0283 51.9766L56.665 52.9551C56.4072 52.8027 56.1494 52.7266 55.8916 52.7266C55.6611 52.7266 55.4541 52.7969 55.2705 52.9375C55.0869 53.0742 54.9561 53.2656 54.8779 53.5117C54.7607 53.8867 54.7021 54.2969 54.7021 54.7422V58H53.6475ZM59.958 57.0566L60.1104 57.9883C59.8135 58.0508 59.5479 58.082 59.3135 58.082C58.9307 58.082 58.6338 58.0215 58.4229 57.9004C58.2119 57.7793 58.0635 57.6211 57.9775 57.4258C57.8916 57.2266 57.8486 56.8105 57.8486 56.1777V52.5977H57.0752V51.7773H57.8486V50.2363L58.8975 49.6035V51.7773H59.958V52.5977H58.8975V56.2363C58.8975 56.5371 58.915 56.7305 58.9502 56.8164C58.9893 56.9023 59.0498 56.9707 59.1318 57.0215C59.2178 57.0723 59.3389 57.0977 59.4951 57.0977C59.6123 57.0977 59.7666 57.084 59.958 57.0566Z" fill="#757F8A"/>
<rect x="12.4092" y="27.5625" width="16.8609" height="16.6307" fill="#5DBBFF"/>
<rect x="29.27" y="40.1914" width="1" height="4" fill="#757F8A"/>
<path d="M125.702 44.9772C125.976 44.886 125.976 44.4992 125.702 44.408L120.951 42.8242C120.757 42.7595 120.556 42.9041 120.556 43.1088V44.1926H11.4775V45.1926H120.556V46.2764C120.556 46.4811 120.757 46.6257 120.951 46.561L125.702 44.9772Z" fill="#757F8A"/>
<path d="M12.2614 10.2051C12.1702 9.93162 11.7833 9.93162 11.6922 10.2051L10.1084 14.9564C10.0436 15.1507 10.1882 15.3513 10.393 15.3513H11.4768V44.5H12.4768V15.3513H13.5605C13.7653 15.3513 13.9099 15.1507 13.8452 14.9564L12.2614 10.2051Z" fill="#757F8A"/>
<path d="M12.4873 27.8734L17.967 24.9114C19.9939 23.8158 22.507 24.247 24.0527 25.9557L26.6124 28.7854C28.4084 30.7709 31.4497 30.9893 33.511 29.2809L39.4558 24.3538C41.3842 22.7556 44.1976 22.8307 46.0379 24.5296L52.4315 30.4317C54.3469 32.1998 57.2992 32.1998 59.2145 30.4317L65.3195 24.796C67.2805 22.9858 70.3175 23.0347 72.2191 24.9072L77.7134 30.3172C79.5736 32.149 82.53 32.2412 84.5008 30.5289L91.3293 24.5961C93.3001 22.8838 96.2565 22.976 98.1167 24.8078L104.109 30.7083C105.797 32.3708 108.421 32.6199 110.392 31.3051L115.189 28.1052" stroke="#757F8A" stroke-linecap="square" stroke-dasharray="2 2"/>
</svg>
